G04*
G04 #@! TF.GenerationSoftware,Altium Limited,Altium Designer,24.5.2 (23)*
G04*
G04 Layer_Color=32896*
%FSLAX44Y44*%
%MOMM*%
G71*
G04*
G04 #@! TF.SameCoordinates,44D7EE50-CEF4-4518-91F5-DF1CE1C3C4A8*
G04*
G04*
G04 #@! TF.FilePolarity,Positive*
G04*
G01*
G75*
%ADD10C,0.1270*%
%ADD41C,0.2540*%
%ADD66R,0.8128X0.8128*%
G36*
X35088Y872783D02*
X35189Y872755D01*
X35263Y872718D01*
X35337Y872690D01*
X35384Y872663D01*
X35420Y872635D01*
X35448Y872616D01*
X35457Y872607D01*
X35467Y872598D01*
X35513Y872515D01*
X35541Y872422D01*
Y872385D01*
X35550Y872348D01*
Y872330D01*
Y872320D01*
X35541Y872246D01*
X35531Y872191D01*
X35485Y872089D01*
X35467Y872052D01*
X35448Y872025D01*
X35439Y872006D01*
X35430Y871997D01*
X35384Y871951D01*
X35337Y871923D01*
X35245Y871886D01*
X35199Y871877D01*
X35171Y871867D01*
X35143D01*
X35051Y871877D01*
X34958Y871895D01*
X34921D01*
X34884Y871904D01*
X34866Y871914D01*
X34857D01*
X34061Y872117D01*
Y868437D01*
X34949D01*
X35060Y868428D01*
X35162Y868419D01*
X35245Y868400D01*
X35310Y868373D01*
X35356Y868345D01*
X35393Y868326D01*
X35411Y868317D01*
X35420Y868308D01*
X35467Y868262D01*
X35494Y868206D01*
X35531Y868104D01*
X35541Y868058D01*
X35550Y868030D01*
Y868003D01*
Y867993D01*
X35541Y867929D01*
X35531Y867864D01*
X35485Y867762D01*
X35457Y867725D01*
X35439Y867698D01*
X35430Y867688D01*
X35420Y867679D01*
X35356Y867642D01*
X35291Y867614D01*
X35134Y867578D01*
X35060Y867568D01*
X35004Y867559D01*
X32295D01*
X32185Y867568D01*
X32083Y867578D01*
X32009Y867596D01*
X31944Y867624D01*
X31898Y867642D01*
X31861Y867661D01*
X31843Y867670D01*
X31833Y867679D01*
X31787Y867725D01*
X31750Y867781D01*
X31732Y867836D01*
X31713Y867883D01*
X31704Y867929D01*
X31695Y867966D01*
Y867984D01*
Y867993D01*
X31704Y868067D01*
X31713Y868123D01*
X31759Y868225D01*
X31787Y868262D01*
X31815Y868289D01*
X31824Y868299D01*
X31833Y868308D01*
X31889Y868354D01*
X31963Y868382D01*
X32120Y868419D01*
X32185Y868428D01*
X32240Y868437D01*
X33183D01*
Y873273D01*
X35088Y872783D01*
D02*
G37*
G36*
X314488D02*
X314589Y872755D01*
X314663Y872718D01*
X314737Y872690D01*
X314783Y872663D01*
X314820Y872635D01*
X314848Y872616D01*
X314858Y872607D01*
X314867Y872598D01*
X314913Y872515D01*
X314941Y872422D01*
Y872385D01*
X314950Y872348D01*
Y872330D01*
Y872320D01*
X314941Y872246D01*
X314932Y872191D01*
X314885Y872089D01*
X314867Y872052D01*
X314848Y872025D01*
X314839Y872006D01*
X314830Y871997D01*
X314783Y871951D01*
X314737Y871923D01*
X314645Y871886D01*
X314599Y871877D01*
X314571Y871867D01*
X314543D01*
X314451Y871877D01*
X314358Y871895D01*
X314321D01*
X314284Y871904D01*
X314266Y871914D01*
X314256D01*
X313461Y872117D01*
Y868437D01*
X314349D01*
X314460Y868428D01*
X314562Y868419D01*
X314645Y868400D01*
X314710Y868373D01*
X314756Y868345D01*
X314793Y868326D01*
X314811Y868317D01*
X314820Y868308D01*
X314867Y868262D01*
X314895Y868206D01*
X314932Y868104D01*
X314941Y868058D01*
X314950Y868030D01*
Y868003D01*
Y867993D01*
X314941Y867929D01*
X314932Y867864D01*
X314885Y867762D01*
X314858Y867725D01*
X314839Y867698D01*
X314830Y867688D01*
X314820Y867679D01*
X314756Y867642D01*
X314691Y867614D01*
X314534Y867578D01*
X314460Y867568D01*
X314405Y867559D01*
X311695D01*
X311584Y867568D01*
X311483Y867578D01*
X311409Y867596D01*
X311344Y867624D01*
X311298Y867642D01*
X311261Y867661D01*
X311243Y867670D01*
X311233Y867679D01*
X311187Y867725D01*
X311150Y867781D01*
X311131Y867836D01*
X311113Y867883D01*
X311104Y867929D01*
X311094Y867966D01*
Y867984D01*
Y867993D01*
X311104Y868067D01*
X311113Y868123D01*
X311159Y868225D01*
X311187Y868262D01*
X311215Y868289D01*
X311224Y868299D01*
X311233Y868308D01*
X311289Y868354D01*
X311363Y868382D01*
X311520Y868419D01*
X311584Y868428D01*
X311640Y868437D01*
X312583D01*
Y873273D01*
X314488Y872783D01*
D02*
G37*
D10*
X1055396Y702282D02*
X1066064D01*
X1055396D02*
Y710156D01*
X1066064Y702282D02*
Y710156D01*
X1055396Y727174D02*
X1066064D01*
X1055396Y719300D02*
Y727174D01*
X1066064Y719300D02*
Y727174D01*
X1042696Y732143D02*
Y756527D01*
Y732143D02*
X1053364D01*
X1042696Y756527D02*
X1053364D01*
Y732143D02*
Y756527D01*
X1004596Y702282D02*
X1015264D01*
X1004596D02*
Y710156D01*
X1015264Y702282D02*
Y710156D01*
X1004596Y727174D02*
X1015264D01*
X1004596Y719300D02*
Y727174D01*
X1015264Y719300D02*
Y727174D01*
X1105180Y606258D02*
Y677358D01*
X978180Y606258D02*
Y677358D01*
X585496Y702282D02*
Y726666D01*
Y702282D02*
X596164D01*
X585496Y726666D02*
X596164D01*
Y702282D02*
Y726666D01*
X598196Y702282D02*
Y726666D01*
Y702282D02*
X608864D01*
X598196Y726666D02*
X608864D01*
Y702282D02*
Y726666D01*
X861622Y638302D02*
Y662686D01*
X850954D02*
X861622D01*
X850954Y638302D02*
X861622D01*
X850954D02*
Y662686D01*
X827078Y638302D02*
Y662686D01*
Y638302D02*
X837746D01*
X827078Y662686D02*
X837746D01*
Y638302D02*
Y662686D01*
X1068096Y702282D02*
X1078764D01*
X1068096D02*
Y710156D01*
X1078764Y702282D02*
Y710156D01*
X1068096Y727174D02*
X1078764D01*
X1068096Y719300D02*
Y727174D01*
X1078764Y719300D02*
Y727174D01*
X1093496Y732143D02*
Y756527D01*
Y732143D02*
X1104164D01*
X1093496Y756527D02*
X1104164D01*
Y732143D02*
Y756527D01*
X1263824Y637794D02*
X1283636D01*
Y653034D01*
X1263824Y637794D02*
Y653034D01*
Y680466D02*
X1283636D01*
Y665226D02*
Y680466D01*
X1263824Y665226D02*
Y680466D01*
X1218746Y610362D02*
Y634746D01*
X1208078D02*
X1218746D01*
X1208078Y610362D02*
X1218746D01*
X1208078D02*
Y634746D01*
X1091464Y732143D02*
Y756527D01*
X1080796D02*
X1091464D01*
X1080796Y732143D02*
X1091464D01*
X1080796D02*
Y756527D01*
X1231954Y610362D02*
Y634746D01*
Y610362D02*
X1242622D01*
X1231954Y634746D02*
X1242622D01*
Y610362D02*
Y634746D01*
X1080796Y702282D02*
X1091464D01*
X1080796D02*
Y710156D01*
X1091464Y702282D02*
Y710156D01*
X1080796Y727174D02*
X1091464D01*
X1080796Y719300D02*
Y727174D01*
X1091464Y719300D02*
Y727174D01*
X1258584Y666496D02*
Y690880D01*
X1247916D02*
X1258584D01*
X1247916Y666496D02*
X1258584D01*
X1247916D02*
Y690880D01*
X1066026Y732143D02*
Y756527D01*
X1055358D02*
X1066026D01*
X1055358Y732143D02*
X1066026D01*
X1055358D02*
Y756527D01*
X977164Y702282D02*
Y726666D01*
X966496D02*
X977164D01*
X966496Y702282D02*
X977164D01*
X966496D02*
Y726666D01*
X989864Y702282D02*
Y726666D01*
X979196D02*
X989864D01*
X979196Y702282D02*
X989864D01*
X979196D02*
Y726666D01*
X1040664Y702536D02*
Y726920D01*
X1029996D02*
X1040664D01*
X1029996Y702536D02*
X1040664D01*
X1029996D02*
Y726920D01*
X1202784Y610362D02*
Y634746D01*
X1192116D02*
X1202784D01*
X1192116Y610362D02*
X1202784D01*
X1192116D02*
Y634746D01*
X1242622Y666496D02*
Y690880D01*
X1231954D02*
X1242622D01*
X1231954Y666496D02*
X1242622D01*
X1231954D02*
Y690880D01*
X1002564Y702282D02*
Y726666D01*
X991896D02*
X1002564D01*
X991896Y702282D02*
X1002564D01*
X991896D02*
Y726666D01*
X1258584Y610362D02*
Y634746D01*
X1247916D02*
X1258584D01*
X1247916Y610362D02*
X1258584D01*
X1247916D02*
Y634746D01*
X1027964Y702282D02*
Y726666D01*
X1017296D02*
X1027964D01*
X1017296Y702282D02*
X1027964D01*
X1017296D02*
Y726666D01*
X1202784Y666496D02*
Y690880D01*
X1192116D02*
X1202784D01*
X1192116Y666496D02*
X1202784D01*
X1192116D02*
Y690880D01*
X1218746Y638302D02*
Y662686D01*
X1208078D02*
X1218746D01*
X1208078Y638302D02*
X1218746D01*
X1208078D02*
Y662686D01*
X1218746Y666496D02*
Y690880D01*
X1208078D02*
X1218746D01*
X1208078Y666496D02*
X1218746D01*
X1208078D02*
Y690880D01*
X1242622Y638302D02*
Y662686D01*
X1231954D02*
X1242622D01*
X1231954Y638302D02*
X1242622D01*
X1231954D02*
Y662686D01*
X724180Y606258D02*
Y677358D01*
X597180Y606258D02*
Y677358D01*
X661696Y732143D02*
Y756527D01*
Y732143D02*
X672364D01*
X661696Y756527D02*
X672364D01*
Y732143D02*
Y756527D01*
X882824Y637794D02*
X902636D01*
Y653034D01*
X882824Y637794D02*
Y653034D01*
Y680466D02*
X902636D01*
Y665226D02*
Y680466D01*
X882824Y665226D02*
Y680466D01*
X648996Y702536D02*
Y726920D01*
Y702536D02*
X659664D01*
X648996Y726920D02*
X659664D01*
Y702536D02*
Y726920D01*
X636296Y702282D02*
Y726666D01*
Y702282D02*
X646964D01*
X636296Y726666D02*
X646964D01*
Y702282D02*
Y726666D01*
X610896Y702282D02*
Y726666D01*
Y702282D02*
X621564D01*
X610896Y726666D02*
X621564D01*
Y702282D02*
Y726666D01*
X634264Y719300D02*
Y727174D01*
X623596Y719300D02*
Y727174D01*
X634264D01*
Y702282D02*
Y710156D01*
X623596Y702282D02*
Y710156D01*
Y702282D02*
X634264D01*
X687096D02*
X697764D01*
X687096D02*
Y710156D01*
X697764Y702282D02*
Y710156D01*
X687096Y727174D02*
X697764D01*
X687096Y719300D02*
Y727174D01*
X697764Y719300D02*
Y727174D01*
X685064Y719300D02*
Y727174D01*
X674396Y719300D02*
Y727174D01*
X685064D01*
Y702282D02*
Y710156D01*
X674396Y702282D02*
Y710156D01*
Y702282D02*
X685064D01*
X685026Y732143D02*
Y756527D01*
X674358D02*
X685026D01*
X674358Y732143D02*
X685026D01*
X674358D02*
Y756527D01*
X710464Y719300D02*
Y727174D01*
X699796Y719300D02*
Y727174D01*
X710464D01*
Y702282D02*
Y710156D01*
X699796Y702282D02*
Y710156D01*
Y702282D02*
X710464D01*
Y732143D02*
Y756527D01*
X699796D02*
X710464D01*
X699796Y732143D02*
X710464D01*
X699796D02*
Y756527D01*
X712496Y732143D02*
Y756527D01*
Y732143D02*
X723164D01*
X712496Y756527D02*
X723164D01*
Y732143D02*
Y756527D01*
X866916Y610362D02*
Y634746D01*
Y610362D02*
X877584D01*
X866916Y634746D02*
X877584D01*
Y610362D02*
Y634746D01*
X861622Y666496D02*
Y690880D01*
X850954D02*
X861622D01*
X850954Y666496D02*
X861622D01*
X850954D02*
Y690880D01*
X877584Y666496D02*
Y690880D01*
X866916D02*
X877584D01*
X866916Y666496D02*
X877584D01*
X866916D02*
Y690880D01*
X837746Y610362D02*
Y634746D01*
X827078D02*
X837746D01*
X827078Y610362D02*
X837746D01*
X827078D02*
Y634746D01*
X850954Y610362D02*
Y634746D01*
Y610362D02*
X861622D01*
X850954Y634746D02*
X861622D01*
Y610362D02*
Y634746D01*
X202419Y375042D02*
X212579D01*
X202419Y357770D02*
X212579D01*
X202419D02*
Y375042D01*
X224771D02*
X234931D01*
X224771Y357770D02*
X234931D01*
Y375042D01*
X199117Y386814D02*
X200387Y385544D01*
X199117Y384274D02*
X200387Y385544D01*
X199117Y386814D02*
X199117Y384274D01*
X205381Y379950D02*
X226381D01*
X205381Y410950D02*
X226381D01*
X190526Y409754D02*
Y419914D01*
X173254Y409754D02*
Y419914D01*
X190526D01*
Y387402D02*
Y397562D01*
X173254Y387402D02*
Y397562D01*
Y387402D02*
X190526D01*
X266980Y376908D02*
Y385036D01*
X246152Y376908D02*
Y385036D01*
X1203986Y244602D02*
X1213892Y244602D01*
X1203986Y244602D02*
Y258572D01*
X1216178Y260604D02*
X1222782D01*
X1202716Y263144D02*
Y265684D01*
Y263144D02*
X1203986Y264414D01*
X1202716Y265684D02*
X1203986Y264414D01*
X1225068Y244602D02*
X1234974Y244602D01*
Y258572D01*
X1129056Y244602D02*
X1138962D01*
X1129056Y258572D02*
X1129056Y244602D01*
X1141248Y260604D02*
X1147852D01*
X1127786Y263144D02*
Y265684D01*
Y263144D02*
X1129056Y264414D01*
X1127786Y265684D02*
X1129056Y264414D01*
X1150138Y244602D02*
X1160044D01*
X1160044Y258572D01*
X821784Y666496D02*
Y690880D01*
X811116D02*
X821784D01*
X811116Y666496D02*
X821784D01*
X811116D02*
Y690880D01*
X821784Y610362D02*
Y634746D01*
X811116D02*
X821784D01*
X811116Y610362D02*
X821784D01*
X811116D02*
Y634746D01*
X837746Y666496D02*
Y690880D01*
X827078D02*
X837746D01*
X827078Y666496D02*
X837746D01*
X827078D02*
Y690880D01*
X129879Y978811D02*
X189633Y978811D01*
X129879Y978811D02*
Y995575D01*
X159756D01*
X189633Y978811D02*
Y995575D01*
X159756D02*
X189633D01*
X289306Y910485D02*
Y995585D01*
X30206Y910485D02*
Y995585D01*
X289306D01*
X30206Y910485D02*
X289306D01*
X309606D02*
X568706D01*
X309606Y995585D02*
X568706D01*
X309606Y910485D02*
Y995585D01*
X568706Y910485D02*
Y995585D01*
X439156Y995575D02*
X469033D01*
Y978811D02*
Y995575D01*
X409278D02*
X439156D01*
X409278Y978811D02*
Y995575D01*
Y978811D02*
X469033Y978811D01*
D41*
X996976Y695380D02*
X998246Y696650D01*
X995706D02*
X996976Y695380D01*
X995706Y696650D02*
X998246D01*
X615976Y695380D02*
X617246Y696650D01*
X614706D02*
X615976Y695380D01*
X614706Y696650D02*
X617246D01*
D66*
X996722Y670002D02*
D03*
X615722Y670001D02*
D03*
M02*
