G04*
G04 #@! TF.GenerationSoftware,Altium Limited,Altium Designer,24.5.2 (23)*
G04*
G04 Layer_Physical_Order=1*
G04 Layer_Color=255*
%FSLAX44Y44*%
%MOMM*%
G71*
G04*
G04 #@! TF.SameCoordinates,44D7EE50-CEF4-4518-91F5-DF1CE1C3C4A8*
G04*
G04*
G04 #@! TF.FilePolarity,Positive*
G04*
G01*
G75*
%ADD23C,0.7620*%
%ADD24C,0.3048*%
%ADD25C,0.3810*%
%ADD26C,0.5080*%
%ADD27C,1.2700*%
%ADD28C,1.0160*%
%ADD29C,2.0000*%
%ADD30C,2.5000*%
%ADD31R,1.3080X1.3080*%
%ADD32C,1.3080*%
%ADD33C,1.5240*%
%ADD34C,1.8000*%
%ADD35R,1.6000X1.6000*%
%ADD36C,1.6000*%
%ADD37C,4.4000*%
%ADD38R,1.8000X1.8000*%
%ADD39C,2.8000*%
%ADD40C,1.0000*%
G36*
X180703Y963489D02*
X179307Y961787D01*
X177252Y957944D01*
X175987Y953773D01*
X175560Y949436D01*
X175606D01*
Y910320D01*
X174310Y909325D01*
X170602D01*
X167021Y908365D01*
X163811Y906512D01*
X161189Y903890D01*
X159335Y900680D01*
X158376Y897099D01*
Y893391D01*
X159335Y889810D01*
X161189Y886600D01*
X163811Y883978D01*
X164533Y883561D01*
Y881529D01*
X163811Y881112D01*
X161189Y878490D01*
X159335Y875280D01*
X158376Y871699D01*
Y867991D01*
X159335Y864410D01*
X161189Y861200D01*
X163811Y858578D01*
X167021Y856725D01*
X170602Y855765D01*
X174310D01*
X175352Y854965D01*
Y842264D01*
X175358Y842225D01*
X175050Y840678D01*
X174152Y839334D01*
X172808Y838436D01*
X171261Y838128D01*
X171222Y838133D01*
X27225D01*
Y838169D01*
X26616Y838290D01*
X26101Y838635D01*
X25756Y839151D01*
X25635Y839759D01*
X25599D01*
Y964101D01*
X26291Y964828D01*
X27019Y965521D01*
X47288D01*
Y955453D01*
X47249D01*
X47642Y952469D01*
X48794Y949689D01*
X50626Y947301D01*
X53014Y945469D01*
X55794Y944317D01*
X58778Y943925D01*
X61762Y944317D01*
X64542Y945469D01*
X66930Y947301D01*
X68762Y949689D01*
X69914Y952469D01*
X70307Y955453D01*
X70268D01*
Y965521D01*
X179742D01*
X180703Y963489D01*
D02*
G37*
G36*
X1447521Y5179D02*
X5179D01*
Y832250D01*
X7211Y832551D01*
X7503Y831590D01*
X9476Y827899D01*
X12130Y824665D01*
X15365Y822010D01*
X19056Y820037D01*
X23060Y818822D01*
X27225Y818412D01*
Y818455D01*
X80714D01*
X81240Y816492D01*
X80567Y816104D01*
X76685Y813125D01*
X73225Y809665D01*
X70246Y805783D01*
X67800Y801545D01*
X65927Y797024D01*
X64661Y792298D01*
X64022Y787447D01*
Y782553D01*
X64661Y777702D01*
X65927Y772976D01*
X67800Y768455D01*
X70246Y764217D01*
X73225Y760335D01*
X76685Y756875D01*
X80567Y753896D01*
X84805Y751450D01*
X89326Y749577D01*
X94052Y748311D01*
X98903Y747672D01*
X103797D01*
X108648Y748311D01*
X113374Y749577D01*
X117895Y751450D01*
X122133Y753896D01*
X126015Y756875D01*
X129475Y760335D01*
X132454Y764217D01*
X134900Y768455D01*
X136773Y772976D01*
X138039Y777702D01*
X138678Y782553D01*
Y787447D01*
X138039Y792298D01*
X136773Y797024D01*
X134900Y801545D01*
X132454Y805783D01*
X129475Y809665D01*
X126015Y813125D01*
X122133Y816104D01*
X121460Y816492D01*
X121986Y818455D01*
X171222D01*
Y818400D01*
X175877Y818859D01*
X180354Y820217D01*
X184480Y822422D01*
X188096Y825390D01*
X191064Y829006D01*
X193269Y833132D01*
X194627Y837608D01*
X195086Y842264D01*
X195031D01*
Y855020D01*
X196002Y855765D01*
X199710D01*
X203291Y856725D01*
X206501Y858578D01*
X209123Y861200D01*
X210976Y864410D01*
X211936Y867991D01*
Y871699D01*
X210976Y875280D01*
X209123Y878490D01*
X206501Y881112D01*
X205779Y881529D01*
Y883561D01*
X206501Y883978D01*
X209123Y886600D01*
X210976Y889810D01*
X211936Y893391D01*
Y897099D01*
X210976Y900680D01*
X209123Y903890D01*
X206501Y906512D01*
X203291Y908365D01*
X199710Y909325D01*
X196002D01*
X195285Y909875D01*
Y949436D01*
X195304D01*
X195493Y950388D01*
X196033Y951195D01*
X196840Y951735D01*
X197793Y951924D01*
Y951943D01*
X230148D01*
X231321Y949911D01*
X230663Y948771D01*
X229976Y946207D01*
Y943553D01*
X230005Y943443D01*
X228642Y941597D01*
X227186Y941525D01*
X226687Y942024D01*
X224389Y943351D01*
X221825Y944038D01*
X219171D01*
X216607Y943351D01*
X214309Y942024D01*
X212432Y940147D01*
X211105Y937849D01*
X210418Y935285D01*
Y932631D01*
X211105Y930067D01*
X212432Y927769D01*
X214309Y925892D01*
X216607Y924565D01*
X219171Y923878D01*
X221825D01*
X224389Y924565D01*
X226687Y925892D01*
X227708Y926913D01*
X301508D01*
X302017Y924881D01*
X300200Y923909D01*
X296541Y920907D01*
X293538Y917248D01*
X291307Y913074D01*
X289933Y908545D01*
X289470Y903834D01*
X289509D01*
X289509Y903834D01*
Y899825D01*
X287477Y899557D01*
X287176Y900680D01*
X285323Y903890D01*
X282701Y906512D01*
X279491Y908365D01*
X275910Y909325D01*
X272202D01*
X268621Y908365D01*
X265411Y906512D01*
X262789Y903890D01*
X262372Y903168D01*
X260340D01*
X259923Y903890D01*
X257301Y906512D01*
X254091Y908365D01*
X250510Y909325D01*
X246802D01*
X243221Y908365D01*
X240011Y906512D01*
X237389Y903890D01*
X235536Y900680D01*
X234576Y897099D01*
Y893391D01*
X235536Y889810D01*
X237389Y886600D01*
X240011Y883978D01*
X240733Y883561D01*
Y881529D01*
X240011Y881112D01*
X237389Y878490D01*
X235536Y875280D01*
X234576Y871699D01*
Y867991D01*
X235536Y864410D01*
X237389Y861200D01*
X240011Y858578D01*
X243221Y856725D01*
X246802Y855765D01*
X250510D01*
X254091Y856725D01*
X257301Y858578D01*
X259923Y861200D01*
X260340Y861922D01*
X262372D01*
X262789Y861200D01*
X265411Y858578D01*
X266406Y858003D01*
Y845058D01*
X266416Y844980D01*
X266087Y843324D01*
X265105Y841853D01*
X263634Y840871D01*
X261978Y840542D01*
X261900Y840552D01*
X243522D01*
X242818Y841255D01*
X240520Y842582D01*
X237956Y843269D01*
X235302D01*
X232738Y842582D01*
X230440Y841255D01*
X228563Y839379D01*
X227236Y837080D01*
X226549Y834516D01*
Y831862D01*
X227236Y829298D01*
X228563Y827000D01*
X230440Y825123D01*
X232738Y823796D01*
X235302Y823109D01*
X237956D01*
X240520Y823796D01*
X242818Y825123D01*
X242875Y825180D01*
X261900D01*
Y825150D01*
X265784Y825533D01*
X269518Y826665D01*
X272960Y828505D01*
X275977Y830981D01*
X278453Y833998D01*
X280292Y837440D01*
X281425Y841174D01*
X281808Y845058D01*
X281778D01*
Y858045D01*
X282701Y858578D01*
X285323Y861200D01*
X287176Y864410D01*
X287477Y865533D01*
X289509Y865265D01*
Y847344D01*
X289463D01*
X289953Y842365D01*
X291406Y837577D01*
X293764Y833164D01*
X296938Y829297D01*
X300806Y826123D01*
X305219Y823764D01*
X310007Y822311D01*
X314986Y821821D01*
Y821867D01*
X360670D01*
Y821829D01*
X365350Y822290D01*
X369851Y823655D01*
X373999Y825872D01*
X377635Y828855D01*
X380618Y832491D01*
X382835Y836639D01*
X384201Y841140D01*
X384661Y845820D01*
X384623D01*
Y858900D01*
X386923Y861200D01*
X388776Y864410D01*
X389736Y867991D01*
Y871699D01*
X388776Y875280D01*
X386923Y878490D01*
X384301Y881112D01*
X383579Y881529D01*
Y883561D01*
X384301Y883978D01*
X386923Y886600D01*
X388776Y889810D01*
X389736Y893391D01*
Y897099D01*
X388776Y900680D01*
X386923Y903890D01*
X386369Y904444D01*
X387147Y906321D01*
X414965D01*
X415743Y904444D01*
X415189Y903890D01*
X413335Y900680D01*
X412376Y897099D01*
Y893391D01*
X413335Y889810D01*
X415189Y886600D01*
X417811Y883978D01*
X418533Y883561D01*
Y881529D01*
X417811Y881112D01*
X415189Y878490D01*
X413335Y875280D01*
X412376Y871699D01*
Y867991D01*
X413335Y864410D01*
X415189Y861200D01*
X417811Y858578D01*
X421021Y856725D01*
X424602Y855765D01*
X428310D01*
X430480Y856347D01*
X432512Y854835D01*
Y810897D01*
X431897Y809916D01*
X430916Y809301D01*
X409833D01*
X409666Y809591D01*
X407789Y811468D01*
X405490Y812795D01*
X402927Y813482D01*
X400273D01*
X397709Y812795D01*
X395411Y811468D01*
X393534Y809591D01*
X392207Y807293D01*
X391520Y804729D01*
Y802075D01*
X392207Y799511D01*
X393534Y797213D01*
X395411Y795336D01*
X397709Y794009D01*
X400273Y793322D01*
X402927D01*
X405490Y794009D01*
X407789Y795336D01*
X408432Y795979D01*
X431512D01*
Y795913D01*
X435236Y796403D01*
X438706Y797840D01*
X441686Y800127D01*
X443972Y803107D01*
X445410Y806577D01*
X445900Y810301D01*
X445834D01*
Y854809D01*
X447866Y856338D01*
X450002Y855765D01*
X453710D01*
X457291Y856725D01*
X460501Y858578D01*
X463123Y861200D01*
X464976Y864410D01*
X465936Y867991D01*
Y871699D01*
X464976Y875280D01*
X463123Y878490D01*
X460501Y881112D01*
X459779Y881529D01*
Y883561D01*
X460501Y883978D01*
X463123Y886600D01*
X464976Y889810D01*
X465936Y893391D01*
Y897099D01*
X464976Y900680D01*
X463123Y903890D01*
X462569Y904444D01*
X463346Y906321D01*
X491165D01*
X491943Y904444D01*
X491389Y903890D01*
X489535Y900680D01*
X488576Y897099D01*
Y893391D01*
X489535Y889810D01*
X491389Y886600D01*
X494011Y883978D01*
X494733Y883561D01*
Y881529D01*
X494011Y881112D01*
X491389Y878490D01*
X489535Y875280D01*
X488576Y871699D01*
Y867991D01*
X489535Y864410D01*
X491389Y861200D01*
X494011Y858578D01*
X497221Y856725D01*
X500802Y855765D01*
X504510D01*
X506699Y856352D01*
X508731Y854849D01*
Y791744D01*
X508733Y791725D01*
X508435Y790225D01*
X507574Y788937D01*
X506286Y788076D01*
X504786Y787778D01*
X504767Y787780D01*
X312114D01*
Y787811D01*
X308543Y787460D01*
X305109Y786418D01*
X301944Y784726D01*
X299170Y782450D01*
X296893Y779676D01*
X295201Y776511D01*
X294160Y773077D01*
X293808Y769505D01*
X293839D01*
Y592941D01*
X291807Y592325D01*
X289018Y594188D01*
X285546Y595627D01*
X281859Y596360D01*
X278101D01*
X274415Y595627D01*
X270942Y594188D01*
X267817Y592100D01*
X265160Y589443D01*
X263071Y586318D01*
X261633Y582845D01*
X260900Y579159D01*
Y575401D01*
X261633Y571715D01*
X263071Y568242D01*
X265160Y565117D01*
X267817Y562460D01*
X270942Y560372D01*
X274415Y558933D01*
X278101Y558200D01*
X279301D01*
X279705Y556168D01*
X277002Y555048D01*
X273877Y552960D01*
X271220Y550303D01*
X269407Y547590D01*
X267493Y548383D01*
X267620Y549021D01*
Y552779D01*
X266887Y556465D01*
X265448Y559938D01*
X263360Y563063D01*
X260703Y565720D01*
X257578Y567808D01*
X254105Y569247D01*
X250419Y569980D01*
X246661D01*
X242975Y569247D01*
X239502Y567808D01*
X236377Y565720D01*
X233720Y563063D01*
X231632Y559938D01*
X230193Y556465D01*
X229460Y552779D01*
Y549021D01*
X230193Y545335D01*
X231632Y541862D01*
X233720Y538737D01*
X236377Y536080D01*
X239502Y533992D01*
X242975Y532553D01*
X246661Y531820D01*
X250419D01*
X254105Y532553D01*
X257578Y533992D01*
X260703Y536080D01*
X263360Y538737D01*
X265173Y541449D01*
X267087Y540657D01*
X266960Y540019D01*
Y536261D01*
X267693Y532575D01*
X269132Y529102D01*
X271220Y525977D01*
X273877Y523320D01*
X277002Y521231D01*
X280475Y519793D01*
X284161Y519060D01*
X284236D01*
X284640Y517028D01*
X283772Y516669D01*
X280647Y514580D01*
X277990Y511923D01*
X275902Y508798D01*
X274463Y505326D01*
X273730Y501639D01*
Y497881D01*
X274463Y494195D01*
X275902Y490722D01*
X277990Y487597D01*
X280647Y484940D01*
X283772Y482851D01*
X287245Y481413D01*
X290931Y480680D01*
X293085D01*
X293489Y478648D01*
X291462Y477808D01*
X288337Y475720D01*
X285680Y473063D01*
X283591Y469938D01*
X282153Y466465D01*
X281420Y462779D01*
Y459021D01*
X282153Y455335D01*
X283591Y451862D01*
X285680Y448737D01*
X286705Y447712D01*
X286937Y447343D01*
X289430Y444707D01*
X290318Y443630D01*
X291082Y442594D01*
X291690Y441652D01*
X292147Y440817D01*
X292462Y440100D01*
X292653Y439514D01*
X292744Y439064D01*
X292752Y438959D01*
X292785Y436940D01*
X292785D01*
X293164Y433094D01*
X294286Y429396D01*
X296107Y425988D01*
X298559Y423001D01*
X301546Y420549D01*
X304954Y418728D01*
X308652Y417606D01*
X312498Y417227D01*
Y417256D01*
X570256D01*
Y417224D01*
X574239Y417616D01*
X578070Y418778D01*
X581600Y420665D01*
X584694Y423204D01*
X587233Y426298D01*
X589120Y429828D01*
X589969Y432628D01*
X592001Y432327D01*
Y251632D01*
X592045Y251299D01*
X591659Y247377D01*
X590418Y243285D01*
X588402Y239514D01*
X585689Y236209D01*
X582384Y233496D01*
X578613Y231480D01*
X574521Y230239D01*
X570599Y229853D01*
X570266Y229897D01*
X266218D01*
X265872Y229851D01*
X262604Y230281D01*
X259237Y231676D01*
X256345Y233895D01*
X254126Y236787D01*
X252731Y240154D01*
X252301Y243422D01*
X252346Y243768D01*
Y321909D01*
X254025Y323031D01*
X255107Y324113D01*
X256230Y325794D01*
X256816Y327207D01*
X256816Y327207D01*
X257063Y328450D01*
X257210Y329189D01*
X257210Y329190D01*
X257210Y329190D01*
X257210Y329955D01*
X257210Y415927D01*
X257210Y415928D01*
X257210Y416587D01*
X257110Y417087D01*
X257110Y417598D01*
X256853Y418892D01*
X256658Y419363D01*
X256558Y419864D01*
X256053Y421083D01*
X255770Y421507D01*
X255574Y421979D01*
X254841Y423076D01*
X254480Y423437D01*
X254197Y423861D01*
X253264Y424794D01*
X252840Y425078D01*
X252479Y425439D01*
X251381Y426172D01*
X250910Y426367D01*
X250486Y426651D01*
X249266Y427156D01*
X248766Y427255D01*
X248295Y427450D01*
X247000Y427708D01*
X246490D01*
X245990Y427808D01*
X231933Y427808D01*
X229951Y427413D01*
X228084Y426640D01*
X226404Y425517D01*
X224975Y424088D01*
X223852Y422408D01*
X223078Y420541D01*
X222684Y418558D01*
Y417548D01*
Y331188D01*
X222684Y330178D01*
X223078Y328195D01*
X223852Y326328D01*
X224275Y325696D01*
X224975Y324648D01*
X224975Y324648D01*
X226404Y323219D01*
X228084Y322096D01*
X229289Y321597D01*
Y243768D01*
X229274D01*
X229729Y237989D01*
X231082Y232352D01*
X233300Y226996D01*
X236330Y222053D01*
X240095Y217645D01*
X244503Y213880D01*
X249446Y210851D01*
X254802Y208632D01*
X260438Y207279D01*
X266218Y206824D01*
Y206839D01*
X570266D01*
X570307Y206845D01*
X576112Y207225D01*
X581858Y208368D01*
X587406Y210252D01*
X592661Y212843D01*
X597532Y216098D01*
X601937Y219961D01*
X605800Y224366D01*
X609055Y229237D01*
X611646Y234492D01*
X613530Y240040D01*
X614673Y245786D01*
X615053Y251591D01*
X615058Y251632D01*
Y506815D01*
Y734175D01*
X614666Y737159D01*
X613514Y739939D01*
X611682Y742327D01*
X609294Y744159D01*
X606514Y745311D01*
X603530Y745703D01*
X600546Y745311D01*
X597766Y744159D01*
X595378Y742327D01*
X593546Y739939D01*
X592674Y737833D01*
X590642Y738238D01*
Y773718D01*
X591022Y774099D01*
X592349Y776397D01*
X593036Y778961D01*
Y781615D01*
X592349Y784179D01*
X591022Y786477D01*
X589145Y788354D01*
X586847Y789681D01*
X584283Y790368D01*
X581629D01*
X579065Y789681D01*
X576767Y788354D01*
X575402Y786989D01*
X573370Y787713D01*
Y793023D01*
X573750Y793403D01*
X575077Y795701D01*
X575764Y798265D01*
Y800919D01*
X575077Y803483D01*
X573750Y805781D01*
X571873Y807658D01*
X569575Y808985D01*
X567011Y809672D01*
X564357D01*
X561793Y808985D01*
X559495Y807658D01*
X557618Y805781D01*
X556291Y803483D01*
X555604Y800919D01*
Y798265D01*
X556291Y795701D01*
X557618Y793403D01*
X557998Y793023D01*
Y489024D01*
X558023Y488834D01*
X557569Y486552D01*
X556168Y484455D01*
X554072Y483055D01*
X551790Y482601D01*
X551599Y482626D01*
X361678D01*
X361601Y482647D01*
X360906Y482696D01*
X360456Y482787D01*
X359870Y482978D01*
X359153Y483293D01*
X358318Y483750D01*
X357376Y484358D01*
X356391Y485084D01*
X353986Y487168D01*
X352700Y488433D01*
X352294Y488699D01*
X351233Y489760D01*
X348108Y491848D01*
X344636Y493287D01*
X340949Y494020D01*
X337191D01*
X333505Y493287D01*
X330032Y491848D01*
X326907Y489760D01*
X324250Y487103D01*
X322161Y483978D01*
X320723Y480505D01*
X319990Y476819D01*
Y473061D01*
X320723Y469375D01*
X322161Y465902D01*
X324250Y462777D01*
X326907Y460120D01*
X330032Y458032D01*
X333505Y456593D01*
X337191Y455860D01*
X340949D01*
X344636Y456593D01*
X348108Y458032D01*
X351233Y460120D01*
X352258Y461145D01*
X352627Y461377D01*
X355263Y463870D01*
X356340Y464758D01*
X357376Y465522D01*
X358318Y466130D01*
X359153Y466587D01*
X359870Y466902D01*
X360456Y467093D01*
X360906Y467184D01*
X361601Y467233D01*
X361678Y467254D01*
X551599D01*
Y467215D01*
X555854Y467634D01*
X559945Y468875D01*
X563716Y470891D01*
X567021Y473603D01*
X569733Y476908D01*
X571749Y480678D01*
X572990Y484770D01*
X573238Y487290D01*
X575270Y487191D01*
Y437642D01*
X575284Y437534D01*
X574921Y435709D01*
X573827Y434071D01*
X572188Y432976D01*
X570364Y432613D01*
X570256Y432628D01*
X312498D01*
X312432Y432619D01*
X310840Y432936D01*
X309433Y433875D01*
X308494Y435282D01*
X308177Y436874D01*
X308186Y436940D01*
Y438292D01*
X308207Y438369D01*
X308256Y439064D01*
X308347Y439514D01*
X308538Y440100D01*
X308853Y440817D01*
X309310Y441652D01*
X309918Y442594D01*
X310644Y443579D01*
X312728Y445984D01*
X313993Y447270D01*
X314259Y447676D01*
X315320Y448737D01*
X317409Y451862D01*
X318847Y455335D01*
X319580Y459021D01*
Y462779D01*
X318847Y466465D01*
X317409Y469938D01*
X315320Y473063D01*
X312663Y475720D01*
X309538Y477808D01*
X306066Y479247D01*
X302379Y479980D01*
X300225D01*
X299821Y482012D01*
X301848Y482851D01*
X304973Y484940D01*
X307630Y487597D01*
X309718Y490722D01*
X311157Y494195D01*
X311890Y497881D01*
Y501639D01*
X311157Y505326D01*
X310141Y507777D01*
X311783Y509124D01*
X313612Y507901D01*
X317085Y506463D01*
X320771Y505730D01*
X324529D01*
X328215Y506463D01*
X331688Y507901D01*
X334813Y509990D01*
X337470Y512647D01*
X338930Y514832D01*
X340844Y514039D01*
X340510Y512359D01*
Y508601D01*
X341243Y504915D01*
X342682Y501442D01*
X344770Y498317D01*
X347427Y495660D01*
X350552Y493572D01*
X354025Y492133D01*
X357711Y491400D01*
X361469D01*
X365155Y492133D01*
X368628Y493572D01*
X371753Y495660D01*
X372778Y496685D01*
X373147Y496917D01*
X375783Y499410D01*
X376860Y500298D01*
X377896Y501062D01*
X378838Y501670D01*
X379673Y502127D01*
X380390Y502442D01*
X380976Y502633D01*
X381426Y502724D01*
X382121Y502773D01*
X382198Y502794D01*
X532130D01*
Y502757D01*
X536318Y503169D01*
X540345Y504391D01*
X544056Y506374D01*
X547308Y509044D01*
X549978Y512296D01*
X551961Y516007D01*
X553183Y520034D01*
X553595Y524221D01*
X553558D01*
Y812073D01*
X553938Y812453D01*
X555265Y814751D01*
X555952Y817315D01*
Y819969D01*
X555265Y822533D01*
X553938Y824831D01*
X552061Y826708D01*
X549762Y828035D01*
X547199Y828722D01*
X544545D01*
X541981Y828035D01*
X539683Y826708D01*
X537806Y824831D01*
X537774Y824776D01*
X535742Y825320D01*
Y858024D01*
X536701Y858578D01*
X539323Y861200D01*
X541176Y864410D01*
X542136Y867991D01*
Y871699D01*
X541176Y875280D01*
X539323Y878490D01*
X536701Y881112D01*
X535979Y881529D01*
Y883561D01*
X536701Y883978D01*
X539323Y886600D01*
X541176Y889810D01*
X542136Y893391D01*
Y897099D01*
X541176Y900680D01*
X539323Y903890D01*
X538769Y904444D01*
X539547Y906321D01*
X633435D01*
X633484Y906328D01*
X635090Y906009D01*
X636493Y905071D01*
X637430Y903668D01*
X637749Y902063D01*
X637743Y902013D01*
Y575437D01*
X637689D01*
X638145Y569639D01*
X639503Y563984D01*
X641728Y558611D01*
X644767Y553653D01*
X648544Y549231D01*
X652966Y545454D01*
X657925Y542415D01*
X663298Y540190D01*
X668953Y538832D01*
X674750Y538376D01*
Y538429D01*
X1311786D01*
Y538404D01*
X1316162Y538748D01*
X1320430Y539773D01*
X1324486Y541453D01*
X1328229Y543746D01*
X1331567Y546597D01*
X1334418Y549935D01*
X1336711Y553678D01*
X1338391Y557733D01*
X1339416Y562002D01*
X1339760Y566378D01*
X1339734D01*
Y841421D01*
X1339781D01*
X1339354Y845756D01*
X1338090Y849925D01*
X1336036Y853766D01*
X1333273Y857134D01*
X1329906Y859897D01*
X1326064Y861951D01*
X1321895Y863215D01*
X1317560Y863642D01*
Y863595D01*
X1299597D01*
X1299162Y864348D01*
X1296798Y866712D01*
X1293902Y868384D01*
X1290672Y869250D01*
X1287328D01*
X1284098Y868384D01*
X1281202Y866712D01*
X1278837Y864348D01*
X1277165Y861452D01*
X1276300Y858222D01*
Y854878D01*
X1277165Y851648D01*
X1278837Y848752D01*
X1281202Y846387D01*
X1284098Y844715D01*
X1287328Y843850D01*
X1290672D01*
X1293902Y844715D01*
X1296798Y846387D01*
X1299162Y848752D01*
X1299597Y849505D01*
X1317560D01*
X1317570Y849506D01*
X1319653Y849232D01*
X1321603Y848424D01*
X1323278Y847139D01*
X1324563Y845464D01*
X1325371Y843514D01*
X1325645Y841431D01*
X1325644Y841421D01*
Y837937D01*
X1323807Y837068D01*
X1323433Y837375D01*
X1320013Y839203D01*
X1316303Y840328D01*
X1312444Y840708D01*
Y840673D01*
X1131220D01*
Y840698D01*
X1130831Y840859D01*
X1130670Y841248D01*
X1130645D01*
Y845514D01*
X1131631Y846083D01*
X1134067Y848519D01*
X1135789Y851501D01*
X1136680Y854828D01*
Y858272D01*
X1135789Y861599D01*
X1134067Y864581D01*
X1131631Y867017D01*
X1128649Y868739D01*
X1125322Y869630D01*
X1121878D01*
X1118551Y868739D01*
X1115569Y867017D01*
X1113133Y864581D01*
X1111411Y861599D01*
X1110520Y858272D01*
Y854828D01*
X1111411Y851501D01*
X1113133Y848519D01*
X1115569Y846083D01*
X1116555Y845514D01*
Y841248D01*
X1116489D01*
X1116991Y837435D01*
X1118463Y833883D01*
X1120804Y830832D01*
X1123855Y828491D01*
X1127407Y827019D01*
X1131220Y826517D01*
Y826583D01*
X1236641D01*
X1237395Y824551D01*
X1235966Y823122D01*
X1234578Y820718D01*
X1233860Y818038D01*
Y815262D01*
X1234578Y812582D01*
X1235966Y810178D01*
X1237928Y808216D01*
X1240332Y806828D01*
X1243012Y806110D01*
X1245788D01*
X1248468Y806828D01*
X1250872Y808216D01*
X1252834Y810178D01*
X1254222Y812582D01*
X1254940Y815262D01*
Y818038D01*
X1254222Y820718D01*
X1252834Y823122D01*
X1251405Y824551D01*
X1252159Y826583D01*
X1312444D01*
X1312573Y826600D01*
X1314624Y826192D01*
X1316472Y824957D01*
X1317708Y823108D01*
X1318116Y821057D01*
X1318098Y820928D01*
Y569468D01*
X1318102Y569443D01*
X1317813Y567251D01*
X1316957Y565185D01*
X1315596Y563411D01*
X1313822Y562049D01*
X1311756Y561193D01*
X1309563Y560905D01*
X1309539Y560908D01*
X994677D01*
X994467Y561055D01*
X993408Y562940D01*
X993532Y563241D01*
X993559Y563287D01*
X993572Y563338D01*
X994064Y564525D01*
X994232Y565799D01*
X994246Y565851D01*
Y565904D01*
X994413Y567178D01*
Y732114D01*
X994610Y732848D01*
Y735502D01*
X993923Y738065D01*
X993496Y738804D01*
Y740841D01*
X1037464D01*
X1038437Y740216D01*
X1039063Y739242D01*
Y726723D01*
X1038637Y725985D01*
X1037950Y723421D01*
Y720767D01*
X1038637Y718203D01*
X1039964Y715905D01*
X1041841Y714028D01*
X1044139Y712701D01*
X1046703Y712014D01*
X1049357D01*
X1051920Y712701D01*
X1054219Y714028D01*
X1056096Y715905D01*
X1057423Y718203D01*
X1058110Y720767D01*
Y723421D01*
X1057423Y725985D01*
X1056997Y726723D01*
Y739813D01*
X1057011D01*
X1056647Y743515D01*
X1055567Y747075D01*
X1053813Y750356D01*
X1051664Y752974D01*
X1051783Y754193D01*
X1052156Y755283D01*
X1054219Y756474D01*
X1054599Y756854D01*
X1091144D01*
Y678175D01*
X1091130D01*
X1090943Y677236D01*
X1090411Y676439D01*
X1089614Y675907D01*
X1088674Y675720D01*
Y675706D01*
X1079999D01*
X1079619Y676086D01*
X1077320Y677413D01*
X1074757Y678100D01*
X1072103D01*
X1069539Y677413D01*
X1067241Y676086D01*
X1065364Y674209D01*
X1064037Y671911D01*
X1063350Y669347D01*
Y666693D01*
X1064037Y664129D01*
X1065364Y661831D01*
X1067241Y659954D01*
X1069539Y658627D01*
X1072103Y657940D01*
X1074757D01*
X1077320Y658627D01*
X1079619Y659954D01*
X1079999Y660334D01*
X1088674D01*
Y660314D01*
X1092159Y660657D01*
X1095510Y661674D01*
X1098598Y663324D01*
X1101304Y665546D01*
X1103526Y668252D01*
X1105176Y671340D01*
X1106193Y674691D01*
X1106536Y678175D01*
X1106516D01*
Y757971D01*
X1106896Y758351D01*
X1108223Y760649D01*
X1108910Y763213D01*
Y765867D01*
X1108223Y768431D01*
X1106896Y770729D01*
X1105019Y772606D01*
X1103795Y773313D01*
Y775659D01*
X1105019Y776366D01*
X1106896Y778243D01*
X1108223Y780541D01*
X1108910Y783105D01*
Y785759D01*
X1108223Y788323D01*
X1106896Y790621D01*
X1106815Y790702D01*
X1106896Y790783D01*
X1108223Y793081D01*
X1108910Y795645D01*
Y798299D01*
X1108223Y800863D01*
X1106896Y803161D01*
X1105019Y805038D01*
X1102720Y806365D01*
X1100157Y807052D01*
X1097503D01*
X1094939Y806365D01*
X1092641Y805038D01*
X1090764Y803161D01*
X1089437Y800863D01*
X1089351Y800541D01*
X1035971D01*
Y800551D01*
X1034829Y800778D01*
X1033861Y801425D01*
X1033214Y802393D01*
X1032987Y803535D01*
X1032977D01*
X1032977Y803535D01*
Y950468D01*
X1033024D01*
X1032596Y955909D01*
X1031322Y961215D01*
X1029233Y966257D01*
X1026382Y970910D01*
X1022838Y975060D01*
X1018688Y978604D01*
X1014035Y981456D01*
X1008993Y983544D01*
X1003686Y984818D01*
X998246Y985246D01*
Y985199D01*
X26950D01*
Y985240D01*
X22840Y984836D01*
X18887Y983636D01*
X15244Y981689D01*
X12051Y979069D01*
X9430Y975876D01*
X7483Y972233D01*
X7211Y971337D01*
X5179Y971638D01*
Y994821D01*
X1447521D01*
Y5179D01*
D02*
G37*
G36*
X350306Y924881D02*
X348548Y923438D01*
X346270Y920662D01*
X344577Y917495D01*
X343535Y914059D01*
X343183Y910485D01*
X343211D01*
Y907436D01*
X341611Y906512D01*
X338989Y903890D01*
X337136Y900680D01*
X336176Y897099D01*
Y893391D01*
X337136Y889810D01*
X338989Y886600D01*
X341611Y883978D01*
X342333Y883561D01*
Y881529D01*
X341611Y881112D01*
X338989Y878490D01*
X337136Y875280D01*
X336176Y871699D01*
Y867991D01*
X337136Y864410D01*
X338989Y861200D01*
X341611Y858578D01*
X344821Y856725D01*
X348402Y855765D01*
X352110D01*
X355691Y856725D01*
X358901Y858578D01*
X361523Y861200D01*
X361940Y861922D01*
X363972D01*
X364389Y861200D01*
X366689Y858900D01*
Y845820D01*
X366716Y845618D01*
X366293Y843491D01*
X364973Y841517D01*
X362999Y840197D01*
X360872Y839774D01*
X360670Y839801D01*
X314986D01*
X314931Y839793D01*
X313030Y840044D01*
X311207Y840799D01*
X309642Y842000D01*
X308441Y843565D01*
X307686Y845388D01*
X307435Y847289D01*
X307442Y847344D01*
Y903834D01*
X307415Y904045D01*
X307848Y906223D01*
X309201Y908247D01*
X311225Y909600D01*
X313403Y910033D01*
X313613Y910005D01*
X320517D01*
X321255Y909579D01*
X323819Y908892D01*
X326473D01*
X329036Y909579D01*
X331335Y910906D01*
X333212Y912783D01*
X334539Y915081D01*
X335226Y917645D01*
Y920299D01*
X334539Y922863D01*
X333374Y924881D01*
X334013Y926913D01*
X349579D01*
X350306Y924881D01*
D02*
G37*
G36*
X997079Y951935D02*
X998252Y951702D01*
X999247Y951037D01*
X999911Y950042D01*
X1000145Y948869D01*
X1000153D01*
Y925337D01*
Y917361D01*
X998195Y917180D01*
Y917180D01*
X995212Y916787D01*
X992431Y915636D01*
X990044Y913804D01*
X988212Y911416D01*
X987060Y908635D01*
X986667Y905652D01*
X987060Y902668D01*
X988212Y899887D01*
X990044Y897500D01*
X992431Y895668D01*
X995212Y894516D01*
X998195Y894123D01*
Y894123D01*
X1000153Y893942D01*
Y884349D01*
Y787227D01*
X999831Y787141D01*
X997533Y785814D01*
X995656Y783937D01*
X994329Y781639D01*
X993642Y779075D01*
Y776421D01*
X994329Y773857D01*
X995656Y771559D01*
X997533Y769682D01*
X999831Y768355D01*
X1002395Y767668D01*
X1005049D01*
X1007613Y768355D01*
X1009911Y769682D01*
X1009992Y769763D01*
X1010073Y769682D01*
X1012371Y768355D01*
X1014935Y767668D01*
X1017589D01*
X1020153Y768355D01*
X1022451Y769682D01*
X1024328Y771559D01*
X1025655Y773857D01*
X1026342Y776421D01*
Y779075D01*
X1025822Y781016D01*
X1027055Y782312D01*
X1027436Y782495D01*
X1031538Y781250D01*
X1035971Y780814D01*
Y780863D01*
X1089351D01*
X1089437Y780541D01*
X1090764Y778243D01*
X1092641Y776366D01*
X1093865Y775659D01*
Y773313D01*
X1092641Y772606D01*
X1092260Y772226D01*
X1054599D01*
X1054219Y772606D01*
X1051920Y773933D01*
X1049357Y774620D01*
X1046703D01*
X1044139Y773933D01*
X1041841Y772606D01*
X1039964Y770729D01*
X1038637Y768431D01*
X1037950Y765867D01*
Y763213D01*
X1038637Y760649D01*
X1038707Y760528D01*
X1037373Y758775D01*
X993236D01*
Y758783D01*
X989787Y758443D01*
X986470Y757437D01*
X983413Y755803D01*
X980733Y753604D01*
X978534Y750925D01*
X976901Y747868D01*
X975894Y744551D01*
X975555Y741102D01*
X975555D01*
X975433Y739120D01*
X975291Y738934D01*
X974267Y736463D01*
X973918Y733811D01*
Y577425D01*
X890795D01*
X890068Y579457D01*
X892146Y581163D01*
X894732Y584314D01*
X896654Y587910D01*
X897837Y591811D01*
X898237Y595868D01*
X898197D01*
Y645868D01*
X898258D01*
X897774Y650783D01*
X896340Y655509D01*
X894012Y659865D01*
X890879Y663683D01*
X887061Y666816D01*
X882705Y669145D01*
X877979Y670578D01*
X873064Y671062D01*
Y671001D01*
X828160D01*
Y671027D01*
X827342Y671190D01*
X826647Y671654D01*
X826184Y672348D01*
X826021Y673166D01*
X825995D01*
Y690053D01*
X828027Y691291D01*
X830120Y690730D01*
X833180D01*
X836135Y691522D01*
X838785Y693052D01*
X840948Y695215D01*
X842478Y697865D01*
X843270Y700820D01*
Y703880D01*
X842478Y706835D01*
X840948Y709485D01*
X838785Y711648D01*
X837547Y712363D01*
X837589Y714685D01*
X841157Y716576D01*
X842820Y716130D01*
X845880D01*
X848835Y716922D01*
X851485Y718452D01*
X853648Y720615D01*
X855178Y723265D01*
X855970Y726220D01*
Y729280D01*
X855178Y732235D01*
X853648Y734885D01*
X851485Y737048D01*
X848835Y738578D01*
X845880Y739370D01*
X842820D01*
X839865Y738578D01*
X837215Y737048D01*
X835052Y734885D01*
X833522Y732235D01*
X832886Y729861D01*
X832510Y729634D01*
X830233Y730538D01*
X829778Y732235D01*
X828248Y734885D01*
X826085Y737048D01*
X823435Y738578D01*
X820480Y739370D01*
X817420D01*
X814465Y738578D01*
X811815Y737048D01*
X809652Y734885D01*
X808122Y732235D01*
X807330Y729280D01*
Y726220D01*
X808122Y723265D01*
X809652Y720615D01*
X811815Y718452D01*
X814465Y716922D01*
X815673Y716598D01*
X816426Y714711D01*
X815199Y712708D01*
X815009Y712487D01*
X812704Y712041D01*
X810735Y713178D01*
X807780Y713970D01*
X804720D01*
X801765Y713178D01*
X799115Y711648D01*
X796952Y709485D01*
X795422Y706835D01*
X794630Y703880D01*
Y700820D01*
X795422Y697865D01*
X796952Y695215D01*
X799115Y693052D01*
X801765Y691522D01*
X804720Y690730D01*
X806317D01*
Y673166D01*
X806272D01*
X806692Y668896D01*
X807938Y664790D01*
X809960Y661006D01*
X812683Y657689D01*
X816000Y654967D01*
X819784Y652944D01*
X823890Y651698D01*
X828160Y651278D01*
Y651323D01*
X873064D01*
X873181Y651338D01*
X875166Y650943D01*
X876948Y649753D01*
X878139Y647970D01*
X878534Y645985D01*
X878519Y645868D01*
Y638517D01*
X868167D01*
Y638556D01*
X865183Y638163D01*
X862402Y637011D01*
X860015Y635179D01*
X858183Y632791D01*
X857031Y630011D01*
X856638Y627027D01*
X857031Y624043D01*
X858183Y621263D01*
X860015Y618875D01*
X862402Y617043D01*
X865183Y615891D01*
X868167Y615498D01*
Y615537D01*
X878519D01*
Y609643D01*
Y596349D01*
X877881Y595428D01*
X876960Y594790D01*
X859406D01*
X858564Y596822D01*
X858988Y597246D01*
X860315Y599545D01*
X861002Y602108D01*
Y604762D01*
X860315Y607326D01*
X858988Y609625D01*
X857111Y611502D01*
X854812Y612828D01*
X852249Y613516D01*
X849595D01*
X847031Y612828D01*
X844733Y611502D01*
X843889Y610658D01*
X843046Y611502D01*
X840748Y612828D01*
X838184Y613516D01*
X835530D01*
X832966Y612828D01*
X830668Y611502D01*
X828791Y609625D01*
X827784Y607881D01*
X827189Y607711D01*
X826118D01*
X825523Y607881D01*
X824516Y609625D01*
X822639Y611502D01*
X820341Y612828D01*
X817777Y613516D01*
X815123D01*
X812559Y612828D01*
X810261Y611502D01*
X808384Y609625D01*
X807057Y607326D01*
X806370Y604762D01*
Y602108D01*
X807057Y599545D01*
X808384Y597246D01*
X808764Y596866D01*
Y588872D01*
X700300D01*
Y588923D01*
X700206Y588963D01*
X700167Y589057D01*
X700116D01*
Y611799D01*
X700496Y612179D01*
X701823Y614477D01*
X702510Y617041D01*
Y619695D01*
X701823Y622259D01*
X700496Y624557D01*
X698619Y626434D01*
X696320Y627761D01*
X693757Y628448D01*
X691103D01*
X688539Y627761D01*
X686241Y626434D01*
X684364Y624557D01*
X683037Y622259D01*
X682350Y619695D01*
Y617041D01*
X683037Y614477D01*
X684364Y612179D01*
X684744Y611799D01*
Y589057D01*
X684735D01*
X685034Y586020D01*
X685920Y583100D01*
X687358Y580409D01*
X688139Y579457D01*
X687178Y577425D01*
X680238D01*
X680184Y577418D01*
X679098Y577634D01*
X678132Y578280D01*
X677486Y579246D01*
X677270Y580331D01*
X677278Y580386D01*
Y722094D01*
X677110Y723368D01*
Y723421D01*
X677096Y723473D01*
X676928Y724746D01*
X676437Y725933D01*
X676423Y725985D01*
X676396Y726031D01*
X675905Y727218D01*
X675122Y728237D01*
X675096Y728283D01*
X675058Y728321D01*
X674276Y729340D01*
X673257Y730122D01*
X673219Y730160D01*
X673173Y730187D01*
X672154Y730969D01*
X670967Y731460D01*
X670920Y731487D01*
X670869Y731501D01*
X669682Y731992D01*
X668408Y732160D01*
X668357Y732174D01*
X668304D01*
X667030Y732342D01*
X665756Y732174D01*
X665703D01*
X665651Y732160D01*
X664378Y731992D01*
X663190Y731501D01*
X663139Y731487D01*
X663093Y731460D01*
X663009Y731426D01*
X660977Y732695D01*
Y754363D01*
X662737Y755379D01*
X663139Y755147D01*
X665703Y754460D01*
X668357D01*
X670920Y755147D01*
X673219Y756474D01*
X673599Y756854D01*
X710144D01*
Y678175D01*
X710130D01*
X709943Y677236D01*
X709411Y676439D01*
X708614Y675907D01*
X707674Y675720D01*
Y675706D01*
X698999D01*
X698619Y676086D01*
X696320Y677413D01*
X693757Y678100D01*
X691103D01*
X688539Y677413D01*
X686241Y676086D01*
X684364Y674209D01*
X683037Y671911D01*
X682350Y669347D01*
Y666693D01*
X683037Y664129D01*
X684364Y661831D01*
X686241Y659954D01*
X688539Y658627D01*
X691103Y657940D01*
X693757D01*
X696320Y658627D01*
X698619Y659954D01*
X698999Y660334D01*
X707674D01*
Y660314D01*
X711159Y660657D01*
X714510Y661674D01*
X717598Y663324D01*
X720304Y665546D01*
X722526Y668252D01*
X724176Y671340D01*
X725193Y674691D01*
X725536Y678175D01*
X725516D01*
Y757971D01*
X725896Y758351D01*
X727223Y760649D01*
X727910Y763213D01*
Y765867D01*
X727223Y768431D01*
X725896Y770729D01*
X724019Y772606D01*
X721721Y773933D01*
X719157Y774620D01*
X716503D01*
X713939Y773933D01*
X711641Y772606D01*
X711260Y772226D01*
X709064D01*
X708397Y773380D01*
X708135Y774258D01*
X708761Y776595D01*
Y779249D01*
X708074Y781813D01*
X706747Y784111D01*
X704870Y785988D01*
X702572Y787315D01*
X702250Y787401D01*
Y789490D01*
X874387D01*
X874473Y789168D01*
X875800Y786870D01*
X877677Y784993D01*
X879975Y783666D01*
X882539Y782979D01*
X885193D01*
X887757Y783666D01*
X890055Y784993D01*
X891932Y786870D01*
X893259Y789168D01*
X893946Y791732D01*
Y794386D01*
X893259Y796950D01*
X891932Y799248D01*
X891851Y799329D01*
X891932Y799410D01*
X893259Y801708D01*
X893946Y804272D01*
Y806926D01*
X893259Y809490D01*
X891932Y811788D01*
X890055Y813665D01*
X887757Y814992D01*
X885193Y815679D01*
X882539D01*
X879975Y814992D01*
X877677Y813665D01*
X875800Y811788D01*
X875115Y810603D01*
X874426D01*
X873222Y812582D01*
X873940Y815262D01*
Y818038D01*
X873222Y820718D01*
X872790Y821466D01*
X873963Y823498D01*
X891094D01*
X893076Y823892D01*
X894691Y824561D01*
X896371Y825684D01*
X897607Y826920D01*
X897607Y826920D01*
X898730Y828600D01*
X899399Y830215D01*
X899793Y832197D01*
Y844277D01*
X901825Y845450D01*
X903098Y844715D01*
X906328Y843850D01*
X909672D01*
X912902Y844715D01*
X915798Y846387D01*
X918162Y848752D01*
X919834Y851648D01*
X920700Y854878D01*
Y858222D01*
X919834Y861452D01*
X918162Y864348D01*
X915798Y866712D01*
X915045Y867147D01*
Y937762D01*
X915107D01*
X914622Y941444D01*
X913201Y944874D01*
X910940Y947821D01*
X908216Y949911D01*
X908247Y950674D01*
X908787Y951943D01*
X997079D01*
Y951935D01*
D02*
G37*
G36*
X892522Y866033D02*
X893879Y864676D01*
X894614Y862902D01*
Y832197D01*
X893945Y830582D01*
X892709Y829346D01*
X891094Y828678D01*
X716506D01*
X715016Y829295D01*
X713875Y830435D01*
X713258Y831926D01*
Y861885D01*
X714186Y864125D01*
X715901Y865840D01*
X718141Y866768D01*
X731665D01*
X732443Y864891D01*
X732133Y864581D01*
X730411Y861599D01*
X729520Y858272D01*
Y854828D01*
X730411Y851501D01*
X732133Y848519D01*
X734569Y846083D01*
X737551Y844361D01*
X740878Y843470D01*
X744322D01*
X747649Y844361D01*
X750631Y846083D01*
X753067Y848519D01*
X754789Y851501D01*
X755680Y854828D01*
Y858272D01*
X754789Y861599D01*
X753067Y864581D01*
X752757Y864891D01*
X753535Y866768D01*
X890748D01*
X892522Y866033D01*
D02*
G37*
G36*
X332421Y585701D02*
X335102Y583377D01*
X336381Y582434D01*
X337618Y581635D01*
X338815Y580982D01*
X339970Y580473D01*
X341084Y580110D01*
X342156Y579893D01*
X343188Y579820D01*
Y574740D01*
X342156Y574667D01*
X341084Y574450D01*
X339970Y574087D01*
X338815Y573578D01*
X337618Y572925D01*
X336381Y572126D01*
X335102Y571183D01*
X333782Y570094D01*
X331018Y567480D01*
Y587080D01*
X332421Y585701D01*
D02*
G37*
G36*
X363861Y559321D02*
X366542Y556997D01*
X367821Y556054D01*
X369058Y555255D01*
X370255Y554602D01*
X371410Y554093D01*
X372524Y553730D01*
X373596Y553513D01*
X374628Y553440D01*
Y548360D01*
X373596Y548287D01*
X372524Y548070D01*
X371410Y547707D01*
X370255Y547198D01*
X369058Y546545D01*
X367821Y545746D01*
X366542Y544803D01*
X365222Y543714D01*
X362458Y541100D01*
Y560700D01*
X363861Y559321D01*
D02*
G37*
G36*
X299080Y555990D02*
X298885Y555262D01*
X298751Y554346D01*
X298678Y553243D01*
X298666Y551952D01*
X298825Y548806D01*
X299230Y544910D01*
X299878Y540263D01*
X284194Y552018D01*
X286268Y552336D01*
X289853Y553151D01*
X291366Y553649D01*
X292691Y554206D01*
X293829Y554822D01*
X294780Y555498D01*
X295543Y556234D01*
X296120Y557030D01*
X296509Y557885D01*
X299080Y555990D01*
D02*
G37*
G36*
X370991Y518901D02*
X373672Y516577D01*
X374951Y515634D01*
X376189Y514835D01*
X377385Y514182D01*
X378540Y513673D01*
X379654Y513310D01*
X380726Y513093D01*
X381758Y513020D01*
Y507940D01*
X380726Y507867D01*
X379654Y507650D01*
X378540Y507287D01*
X377385Y506778D01*
X376189Y506125D01*
X374951Y505326D01*
X373672Y504383D01*
X372352Y503294D01*
X369588Y500680D01*
Y520280D01*
X370991Y518901D01*
D02*
G37*
G36*
X350471Y483361D02*
X353152Y481037D01*
X354431Y480094D01*
X355668Y479295D01*
X356865Y478642D01*
X358020Y478133D01*
X359134Y477770D01*
X360206Y477553D01*
X361238Y477480D01*
Y472400D01*
X360206Y472327D01*
X359134Y472110D01*
X358020Y471747D01*
X356865Y471238D01*
X355668Y470585D01*
X354431Y469786D01*
X353152Y468843D01*
X351832Y467754D01*
X349068Y465140D01*
Y484740D01*
X350471Y483361D01*
D02*
G37*
G36*
X308921Y449499D02*
X306597Y446818D01*
X305654Y445539D01*
X304855Y444301D01*
X304202Y443105D01*
X303693Y441950D01*
X303330Y440836D01*
X303113Y439764D01*
X303040Y438732D01*
X297960D01*
X297887Y439764D01*
X297670Y440836D01*
X297307Y441950D01*
X296798Y443105D01*
X296145Y444301D01*
X295346Y445539D01*
X294403Y446818D01*
X293314Y448138D01*
X290700Y450902D01*
X310300D01*
X308921Y449499D01*
D02*
G37*
G36*
X245330Y422628D02*
X245990D01*
X247284Y422370D01*
X248504Y421865D01*
X249601Y421132D01*
X250535Y420199D01*
X251268Y419101D01*
X251773Y417882D01*
X252030Y416587D01*
X252030Y415927D01*
X252031Y415927D01*
X252031Y329955D01*
X252031Y329189D01*
X251445Y327776D01*
X250363Y326694D01*
X248949Y326108D01*
X248184Y326108D01*
X232944Y326108D01*
X231933Y326108D01*
X230066Y326881D01*
X228637Y328310D01*
X227864Y330177D01*
X227864Y331188D01*
Y331188D01*
Y417548D01*
Y418558D01*
X228637Y420425D01*
X230066Y421855D01*
X231933Y422628D01*
X232944D01*
X245330Y422628D01*
D02*
G37*
%LPC*%
G36*
X72710Y909325D02*
X69002D01*
X65421Y908365D01*
X62211Y906512D01*
X59589Y903890D01*
X59172Y903168D01*
X57140D01*
X56723Y903890D01*
X54101Y906512D01*
X50891Y908365D01*
X47310Y909325D01*
X43602D01*
X40021Y908365D01*
X36811Y906512D01*
X34189Y903890D01*
X32336Y900680D01*
X31376Y897099D01*
Y893391D01*
X32336Y889810D01*
X34189Y886600D01*
X34832Y885957D01*
X33990Y883925D01*
X31376D01*
Y855765D01*
X59536D01*
Y858379D01*
X61568Y859221D01*
X62211Y858578D01*
X65421Y856725D01*
X69002Y855765D01*
X72710D01*
X76291Y856725D01*
X79501Y858578D01*
X82123Y861200D01*
X83976Y864410D01*
X84936Y867991D01*
Y871699D01*
X83976Y875280D01*
X82123Y878490D01*
X79501Y881112D01*
X78779Y881529D01*
Y883561D01*
X79501Y883978D01*
X82123Y886600D01*
X83976Y889810D01*
X84936Y893391D01*
Y897099D01*
X83976Y900680D01*
X82123Y903890D01*
X79501Y906512D01*
X76291Y908365D01*
X72710Y909325D01*
D02*
G37*
G36*
X123510Y909325D02*
X119802D01*
X116221Y908365D01*
X113011Y906512D01*
X110389Y903890D01*
X108535Y900680D01*
X107576Y897099D01*
Y893391D01*
X108535Y889810D01*
X110389Y886600D01*
X113011Y883978D01*
X113733Y883561D01*
Y881529D01*
X113011Y881112D01*
X110389Y878490D01*
X108535Y875280D01*
X107576Y871699D01*
Y867991D01*
X108535Y864410D01*
X110389Y861200D01*
X113011Y858578D01*
X116221Y856725D01*
X119802Y855765D01*
X123510D01*
X127091Y856725D01*
X130301Y858578D01*
X132923Y861200D01*
X134776Y864410D01*
X135736Y867991D01*
Y871699D01*
X134776Y875280D01*
X132923Y878490D01*
X130301Y881112D01*
X129579Y881529D01*
Y883561D01*
X130301Y883978D01*
X132923Y886600D01*
X134776Y889810D01*
X135736Y893391D01*
Y897099D01*
X134776Y900680D01*
X132923Y903890D01*
X130301Y906512D01*
X127091Y908365D01*
X123510Y909325D01*
D02*
G37*
G36*
X1353797Y972328D02*
X1348903D01*
X1344052Y971689D01*
X1339326Y970423D01*
X1334805Y968550D01*
X1330567Y966104D01*
X1326685Y963125D01*
X1323225Y959665D01*
X1320246Y955783D01*
X1317800Y951545D01*
X1315927Y947024D01*
X1314661Y942298D01*
X1314022Y937447D01*
Y932553D01*
X1314661Y927702D01*
X1315927Y922976D01*
X1317800Y918455D01*
X1320246Y914217D01*
X1323225Y910335D01*
X1326685Y906875D01*
X1330567Y903896D01*
X1334805Y901450D01*
X1339326Y899577D01*
X1344052Y898311D01*
X1348903Y897672D01*
X1353797D01*
X1358648Y898311D01*
X1363374Y899577D01*
X1367895Y901450D01*
X1372133Y903896D01*
X1376015Y906875D01*
X1379475Y910335D01*
X1382454Y914217D01*
X1384900Y918455D01*
X1386773Y922976D01*
X1388039Y927702D01*
X1388678Y932553D01*
Y937447D01*
X1388039Y942298D01*
X1386773Y947024D01*
X1384900Y951545D01*
X1382454Y955783D01*
X1379475Y959665D01*
X1376015Y963125D01*
X1372133Y966104D01*
X1367895Y968550D01*
X1363374Y970423D01*
X1358648Y971689D01*
X1353797Y972328D01*
D02*
G37*
G36*
X1226880Y739370D02*
X1223820D01*
X1220865Y738578D01*
X1218215Y737048D01*
X1216052Y734885D01*
X1214522Y732235D01*
X1213827Y729642D01*
X1213533Y729447D01*
X1213413Y729437D01*
X1211702Y730044D01*
X1211232Y730543D01*
X1210778Y732235D01*
X1209248Y734885D01*
X1207085Y737048D01*
X1204435Y738578D01*
X1201480Y739370D01*
X1198420D01*
X1195465Y738578D01*
X1192815Y737048D01*
X1190652Y734885D01*
X1189122Y732235D01*
X1188330Y729280D01*
Y726220D01*
X1189122Y723265D01*
X1190652Y720615D01*
X1192815Y718452D01*
X1195465Y716922D01*
X1196320Y716693D01*
X1197073Y714805D01*
X1195944Y712963D01*
X1195687Y712746D01*
X1193399Y712217D01*
X1191735Y713178D01*
X1188780Y713970D01*
X1185720D01*
X1182765Y713178D01*
X1180115Y711648D01*
X1177952Y709485D01*
X1176422Y706835D01*
X1175630Y703880D01*
Y700820D01*
X1176422Y697865D01*
X1177952Y695215D01*
X1180115Y693052D01*
X1182765Y691522D01*
X1185720Y690730D01*
X1187317D01*
Y673166D01*
X1187272D01*
X1187692Y668896D01*
X1188938Y664790D01*
X1190960Y661006D01*
X1193683Y657689D01*
X1197000Y654967D01*
X1200784Y652944D01*
X1204890Y651698D01*
X1209160Y651278D01*
Y651323D01*
X1254064D01*
X1254181Y651338D01*
X1256166Y650943D01*
X1257948Y649753D01*
X1259139Y647970D01*
X1259534Y645985D01*
X1259519Y645868D01*
Y638517D01*
X1249167D01*
Y638556D01*
X1246183Y638163D01*
X1243402Y637011D01*
X1241015Y635179D01*
X1239183Y632791D01*
X1238031Y630011D01*
X1237638Y627027D01*
X1238031Y624043D01*
X1239183Y621263D01*
X1241015Y618875D01*
X1243402Y617043D01*
X1246183Y615891D01*
X1249167Y615498D01*
Y615537D01*
X1259519D01*
Y609643D01*
Y596349D01*
X1258881Y595428D01*
X1257960Y594790D01*
X1240406D01*
X1239564Y596822D01*
X1239988Y597246D01*
X1241315Y599545D01*
X1242002Y602108D01*
Y604762D01*
X1241315Y607326D01*
X1239988Y609625D01*
X1238111Y611502D01*
X1235813Y612828D01*
X1233249Y613516D01*
X1230595D01*
X1228031Y612828D01*
X1225732Y611502D01*
X1224889Y610658D01*
X1224046Y611502D01*
X1221748Y612828D01*
X1219184Y613516D01*
X1216530D01*
X1213966Y612828D01*
X1211668Y611502D01*
X1209791Y609625D01*
X1208784Y607881D01*
X1208189Y607711D01*
X1207118D01*
X1206523Y607881D01*
X1205516Y609625D01*
X1203639Y611502D01*
X1201341Y612828D01*
X1198777Y613516D01*
X1196123D01*
X1193559Y612828D01*
X1191261Y611502D01*
X1189384Y609625D01*
X1188057Y607326D01*
X1187370Y604762D01*
Y602108D01*
X1188057Y599545D01*
X1189384Y597246D01*
X1189764Y596866D01*
Y588930D01*
X1189724Y588913D01*
X1189707Y588872D01*
X1081300D01*
Y588923D01*
X1081206Y588963D01*
X1081167Y589057D01*
X1081116D01*
Y611799D01*
X1081496Y612179D01*
X1082823Y614477D01*
X1083510Y617041D01*
Y619695D01*
X1082823Y622259D01*
X1081496Y624557D01*
X1079619Y626434D01*
X1077320Y627761D01*
X1074757Y628448D01*
X1072103D01*
X1069539Y627761D01*
X1067241Y626434D01*
X1065364Y624557D01*
X1064037Y622259D01*
X1063350Y619695D01*
Y617041D01*
X1064037Y614477D01*
X1065364Y612179D01*
X1065744Y611799D01*
Y589057D01*
X1065735D01*
X1066034Y586020D01*
X1066920Y583100D01*
X1068358Y580409D01*
X1070294Y578051D01*
X1072653Y576115D01*
X1075343Y574677D01*
X1078263Y573791D01*
X1081300Y573492D01*
Y573501D01*
X1189791D01*
Y573493D01*
X1192786Y573788D01*
X1195666Y574661D01*
X1198321Y576080D01*
X1200647Y577990D01*
X1202557Y580316D01*
X1203975Y582970D01*
X1204849Y585850D01*
X1205144Y588846D01*
X1205136D01*
Y596866D01*
X1205516Y597246D01*
X1206523Y598990D01*
X1207118Y599160D01*
X1208189D01*
X1208784Y598990D01*
X1209791Y597246D01*
X1211668Y595369D01*
X1213498Y594313D01*
X1215024Y593090D01*
X1215370Y589577D01*
X1216394Y586200D01*
X1218058Y583087D01*
X1220297Y580359D01*
X1223025Y578120D01*
X1226138Y576456D01*
X1229516Y575431D01*
X1233028Y575085D01*
Y575112D01*
X1258441D01*
Y575072D01*
X1262498Y575471D01*
X1266399Y576655D01*
X1269995Y578577D01*
X1273146Y581163D01*
X1275732Y584314D01*
X1277654Y587910D01*
X1278837Y591811D01*
X1279237Y595868D01*
X1279197D01*
Y645868D01*
X1279258D01*
X1278774Y650783D01*
X1277340Y655509D01*
X1275012Y659865D01*
X1271879Y663683D01*
X1268061Y666816D01*
X1263705Y669145D01*
X1258979Y670578D01*
X1254064Y671062D01*
Y671001D01*
X1209160D01*
Y671027D01*
X1208342Y671190D01*
X1207647Y671654D01*
X1207184Y672348D01*
X1207021Y673166D01*
X1206995D01*
Y690053D01*
X1209027Y691291D01*
X1211120Y690730D01*
X1214180D01*
X1217135Y691522D01*
X1219785Y693052D01*
X1221948Y695215D01*
X1223478Y697865D01*
X1224270Y700820D01*
Y703880D01*
X1223478Y706835D01*
X1221948Y709485D01*
X1219785Y711648D01*
X1218776Y712231D01*
X1218818Y714553D01*
X1222475Y716490D01*
X1223820Y716130D01*
X1226880D01*
X1229835Y716922D01*
X1232485Y718452D01*
X1234648Y720615D01*
X1236178Y723265D01*
X1236970Y726220D01*
Y729280D01*
X1236178Y732235D01*
X1234648Y734885D01*
X1232485Y737048D01*
X1229835Y738578D01*
X1226880Y739370D01*
D02*
G37*
G36*
X1252280D02*
X1249220D01*
X1246265Y738578D01*
X1243615Y737048D01*
X1241452Y734885D01*
X1239922Y732235D01*
X1239130Y729280D01*
Y726220D01*
X1239922Y723265D01*
X1241452Y720615D01*
X1243615Y718452D01*
X1246265Y716922D01*
X1249220Y716130D01*
X1252280D01*
X1255235Y716922D01*
X1257885Y718452D01*
X1260048Y720615D01*
X1261578Y723265D01*
X1262370Y726220D01*
Y729280D01*
X1261578Y732235D01*
X1260048Y734885D01*
X1257885Y737048D01*
X1255235Y738578D01*
X1252280Y739370D01*
D02*
G37*
G36*
X1176080D02*
X1173020D01*
X1170065Y738578D01*
X1167415Y737048D01*
X1165252Y734885D01*
X1163722Y732235D01*
X1162930Y729280D01*
Y726220D01*
X1163722Y723265D01*
X1165252Y720615D01*
X1167415Y718452D01*
X1170065Y716922D01*
X1173020Y716130D01*
X1176080D01*
X1179035Y716922D01*
X1181685Y718452D01*
X1183848Y720615D01*
X1185378Y723265D01*
X1186170Y726220D01*
Y729280D01*
X1185378Y732235D01*
X1183848Y734885D01*
X1181685Y737048D01*
X1179035Y738578D01*
X1176080Y739370D01*
D02*
G37*
G36*
X1239580Y713970D02*
X1236520D01*
X1233565Y713178D01*
X1230915Y711648D01*
X1228752Y709485D01*
X1227222Y706835D01*
X1226430Y703880D01*
Y700820D01*
X1227222Y697865D01*
X1228752Y695215D01*
X1230915Y693052D01*
X1233565Y691522D01*
X1236520Y690730D01*
X1239580D01*
X1242535Y691522D01*
X1245185Y693052D01*
X1247348Y695215D01*
X1248878Y697865D01*
X1249670Y700820D01*
Y703880D01*
X1248878Y706835D01*
X1247348Y709485D01*
X1245185Y711648D01*
X1242535Y713178D01*
X1239580Y713970D01*
D02*
G37*
G36*
X1173470D02*
X1150230D01*
Y690730D01*
X1173470D01*
Y713970D01*
D02*
G37*
G36*
X248240Y672685D02*
X244686D01*
X241201Y671992D01*
X237918Y670632D01*
X234963Y668658D01*
X232450Y666145D01*
X230476Y663191D01*
X229116Y659908D01*
X228423Y656422D01*
Y652869D01*
X229116Y649383D01*
X230476Y646100D01*
X232450Y643146D01*
X234963Y640633D01*
X237918Y638659D01*
X241201Y637299D01*
X244686Y636605D01*
X248240D01*
X251725Y637299D01*
X255008Y638659D01*
X257963Y640633D01*
X260476Y643146D01*
X262450Y646100D01*
X263810Y649383D01*
X264503Y652869D01*
Y656422D01*
X263810Y659908D01*
X262450Y663191D01*
X260476Y666145D01*
X257963Y668658D01*
X255008Y670632D01*
X251725Y671992D01*
X248240Y672685D01*
D02*
G37*
G36*
X1182288Y636690D02*
X1179512D01*
X1176832Y635972D01*
X1174428Y634584D01*
X1172466Y632622D01*
X1171078Y630218D01*
X1170360Y627538D01*
Y624762D01*
X1171078Y622082D01*
X1172466Y619678D01*
X1174428Y617716D01*
X1176832Y616328D01*
X1179512Y615610D01*
X1182288D01*
X1184968Y616328D01*
X1187372Y617716D01*
X1189334Y619678D01*
X1190722Y622082D01*
X1191440Y624762D01*
Y627538D01*
X1190722Y630218D01*
X1189334Y632622D01*
X1187372Y634584D01*
X1184968Y635972D01*
X1182288Y636690D01*
D02*
G37*
G36*
X374402Y414015D02*
X370848D01*
X367363Y413322D01*
X364080Y411962D01*
X361125Y409988D01*
X358612Y407475D01*
X356638Y404520D01*
X355278Y401237D01*
X354585Y397752D01*
Y394198D01*
X355278Y390713D01*
X356638Y387430D01*
X358612Y384475D01*
X361125Y381962D01*
X364080Y379988D01*
X367363Y378628D01*
X370848Y377935D01*
X374402D01*
X377887Y378628D01*
X381170Y379988D01*
X384125Y381962D01*
X386638Y384475D01*
X388612Y387430D01*
X389972Y390713D01*
X390665Y394198D01*
Y397752D01*
X389972Y401237D01*
X388612Y404520D01*
X386638Y407475D01*
X384125Y409988D01*
X381170Y411962D01*
X377887Y413322D01*
X374402Y414015D01*
D02*
G37*
G36*
X1169685Y358880D02*
X1166715D01*
X1163801Y358301D01*
X1161057Y357164D01*
X1158587Y355513D01*
X1156487Y353413D01*
X1155199Y351486D01*
X876401D01*
X875113Y353413D01*
X873013Y355513D01*
X870543Y357164D01*
X867799Y358301D01*
X864885Y358880D01*
X861915D01*
X859001Y358301D01*
X856257Y357164D01*
X853787Y355513D01*
X851687Y353413D01*
X850036Y350943D01*
X848900Y348199D01*
X848320Y345285D01*
Y342315D01*
X848900Y339401D01*
X850036Y336657D01*
X850915Y335342D01*
X849829Y333310D01*
X823995D01*
Y333346D01*
X818814Y332938D01*
X813760Y331725D01*
X808958Y329736D01*
X804526Y327020D01*
X800574Y323645D01*
X800574Y323645D01*
X799034Y322457D01*
X798678Y322604D01*
X795282Y323280D01*
X791818D01*
X788422Y322604D01*
X785223Y321279D01*
X782343Y319355D01*
X779895Y316907D01*
X777971Y314027D01*
X776646Y310828D01*
X775970Y307432D01*
Y303969D01*
X776646Y300572D01*
X777971Y297373D01*
X779895Y294493D01*
X782343Y292045D01*
X785223Y290121D01*
X788422Y288796D01*
X791818Y288120D01*
X795282D01*
X798678Y288796D01*
X801877Y290121D01*
X804757Y292045D01*
X807205Y294493D01*
X809129Y297373D01*
X810454Y300572D01*
X811130Y303969D01*
Y307432D01*
X810454Y310828D01*
X810189Y311469D01*
X811469Y312750D01*
X811534Y312834D01*
X814140Y314973D01*
X817207Y316612D01*
X820535Y317622D01*
X823890Y317952D01*
X823995Y317938D01*
X841640D01*
X842726Y315906D01*
X841471Y314027D01*
X840146Y310828D01*
X839470Y307432D01*
Y303969D01*
X840146Y300572D01*
X841471Y297373D01*
X842142Y296368D01*
X841056Y294336D01*
X838301D01*
X837013Y296263D01*
X834913Y298363D01*
X832443Y300014D01*
X829699Y301150D01*
X826785Y301730D01*
X823815D01*
X820901Y301150D01*
X818157Y300014D01*
X815687Y298363D01*
X813587Y296263D01*
X811936Y293793D01*
X810799Y291049D01*
X810220Y288135D01*
Y285165D01*
X810799Y282251D01*
X811936Y279507D01*
X813587Y277037D01*
X815687Y274937D01*
X818157Y273286D01*
X820901Y272150D01*
X823815Y271570D01*
X826785D01*
X829699Y272150D01*
X832443Y273286D01*
X834913Y274937D01*
X837013Y277037D01*
X838301Y278964D01*
X1193299D01*
X1194587Y277037D01*
X1196687Y274937D01*
X1199157Y273286D01*
X1201901Y272150D01*
X1204815Y271570D01*
X1207785D01*
X1210699Y272150D01*
X1213443Y273286D01*
X1215913Y274937D01*
X1218013Y277037D01*
X1219664Y279507D01*
X1220800Y282251D01*
X1221380Y285165D01*
Y288135D01*
X1220800Y291049D01*
X1219664Y293793D01*
X1218013Y296263D01*
X1215913Y298363D01*
X1213443Y300014D01*
X1210699Y301150D01*
X1207785Y301730D01*
X1204815D01*
X1201901Y301150D01*
X1199157Y300014D01*
X1196687Y298363D01*
X1194587Y296263D01*
X1193299Y294336D01*
X1187022D01*
X1186451Y296368D01*
X1187914Y298557D01*
X1189051Y301301D01*
X1189630Y304215D01*
Y307185D01*
X1189051Y310099D01*
X1187914Y312843D01*
X1186263Y315313D01*
X1185670Y315906D01*
X1186512Y317938D01*
X1207605D01*
X1207710Y317952D01*
X1211066Y317622D01*
X1214393Y316612D01*
X1217460Y314973D01*
X1220066Y312834D01*
X1220131Y312750D01*
X1223422Y309459D01*
X1222970Y307185D01*
Y304215D01*
X1223549Y301301D01*
X1224686Y298557D01*
X1226337Y296087D01*
X1228437Y293987D01*
X1230907Y292336D01*
X1233651Y291199D01*
X1236565Y290620D01*
X1239535D01*
X1242449Y291199D01*
X1245193Y292336D01*
X1247663Y293987D01*
X1249763Y296087D01*
X1251414Y298557D01*
X1252551Y301301D01*
X1253130Y304215D01*
Y307185D01*
X1252551Y310099D01*
X1251414Y312843D01*
X1249763Y315313D01*
X1247663Y317413D01*
X1245193Y319064D01*
X1242449Y320201D01*
X1239535Y320780D01*
X1236565D01*
X1234292Y320328D01*
X1231000Y323619D01*
X1231026Y323645D01*
X1227074Y327020D01*
X1222642Y329736D01*
X1217840Y331725D01*
X1212786Y332938D01*
X1207605Y333346D01*
Y333310D01*
X1181771D01*
X1180685Y335342D01*
X1181564Y336657D01*
X1182701Y339401D01*
X1183280Y342315D01*
Y345285D01*
X1182701Y348199D01*
X1181564Y350943D01*
X1179913Y353413D01*
X1177813Y355513D01*
X1175343Y357164D01*
X1172599Y358301D01*
X1169685Y358880D01*
D02*
G37*
G36*
X1353797Y102328D02*
X1348903D01*
X1344052Y101689D01*
X1339326Y100423D01*
X1334805Y98550D01*
X1330567Y96104D01*
X1326685Y93125D01*
X1323225Y89665D01*
X1320246Y85783D01*
X1317800Y81545D01*
X1315927Y77024D01*
X1314661Y72298D01*
X1314022Y67447D01*
Y62553D01*
X1314661Y57702D01*
X1315927Y52976D01*
X1317800Y48455D01*
X1320246Y44217D01*
X1323225Y40335D01*
X1326685Y36875D01*
X1330567Y33896D01*
X1334805Y31450D01*
X1339326Y29577D01*
X1344052Y28311D01*
X1348903Y27672D01*
X1353797D01*
X1358648Y28311D01*
X1363374Y29577D01*
X1367895Y31450D01*
X1372133Y33896D01*
X1376015Y36875D01*
X1379475Y40335D01*
X1382454Y44217D01*
X1384900Y48455D01*
X1386773Y52976D01*
X1388039Y57702D01*
X1388678Y62553D01*
Y67447D01*
X1388039Y72298D01*
X1386773Y77024D01*
X1384900Y81545D01*
X1382454Y85783D01*
X1379475Y89665D01*
X1376015Y93125D01*
X1372133Y96104D01*
X1367895Y98550D01*
X1363374Y100423D01*
X1358648Y101689D01*
X1353797Y102328D01*
D02*
G37*
G36*
X103797D02*
X98903D01*
X94052Y101689D01*
X89326Y100423D01*
X84805Y98550D01*
X80567Y96104D01*
X76685Y93125D01*
X73225Y89665D01*
X70246Y85783D01*
X67800Y81545D01*
X65927Y77024D01*
X64661Y72298D01*
X64022Y67447D01*
Y62553D01*
X64661Y57702D01*
X65927Y52976D01*
X67800Y48455D01*
X70246Y44217D01*
X73225Y40335D01*
X76685Y36875D01*
X80567Y33896D01*
X84805Y31450D01*
X89326Y29577D01*
X94052Y28311D01*
X98903Y27672D01*
X103797D01*
X108648Y28311D01*
X113374Y29577D01*
X117895Y31450D01*
X122133Y33896D01*
X126015Y36875D01*
X129475Y40335D01*
X132454Y44217D01*
X134900Y48455D01*
X136773Y52976D01*
X138039Y57702D01*
X138678Y62553D01*
Y67447D01*
X138039Y72298D01*
X136773Y77024D01*
X134900Y81545D01*
X132454Y85783D01*
X129475Y89665D01*
X126015Y93125D01*
X122133Y96104D01*
X117895Y98550D01*
X113374Y100423D01*
X108648Y101689D01*
X103797Y102328D01*
D02*
G37*
G36*
X871280Y739370D02*
X868220D01*
X865265Y738578D01*
X862615Y737048D01*
X860452Y734885D01*
X858922Y732235D01*
X858130Y729280D01*
Y726220D01*
X858922Y723265D01*
X860452Y720615D01*
X862615Y718452D01*
X865265Y716922D01*
X868220Y716130D01*
X871280D01*
X874235Y716922D01*
X876885Y718452D01*
X879048Y720615D01*
X880578Y723265D01*
X881370Y726220D01*
Y729280D01*
X880578Y732235D01*
X879048Y734885D01*
X876885Y737048D01*
X874235Y738578D01*
X871280Y739370D01*
D02*
G37*
G36*
X795080D02*
X792020D01*
X789065Y738578D01*
X786415Y737048D01*
X784252Y734885D01*
X782722Y732235D01*
X781930Y729280D01*
Y726220D01*
X782722Y723265D01*
X784252Y720615D01*
X786415Y718452D01*
X789065Y716922D01*
X792020Y716130D01*
X795080D01*
X798035Y716922D01*
X800685Y718452D01*
X802848Y720615D01*
X804378Y723265D01*
X805170Y726220D01*
Y729280D01*
X804378Y732235D01*
X802848Y734885D01*
X800685Y737048D01*
X798035Y738578D01*
X795080Y739370D01*
D02*
G37*
G36*
X858580Y713970D02*
X855520D01*
X852565Y713178D01*
X849915Y711648D01*
X847752Y709485D01*
X846222Y706835D01*
X845430Y703880D01*
Y700820D01*
X846222Y697865D01*
X847752Y695215D01*
X849915Y693052D01*
X852565Y691522D01*
X855520Y690730D01*
X858580D01*
X861535Y691522D01*
X864185Y693052D01*
X866348Y695215D01*
X867878Y697865D01*
X868670Y700820D01*
Y703880D01*
X867878Y706835D01*
X866348Y709485D01*
X864185Y711648D01*
X861535Y713178D01*
X858580Y713970D01*
D02*
G37*
G36*
X792470D02*
X769230D01*
Y690730D01*
X792470D01*
Y713970D01*
D02*
G37*
G36*
X801288Y636690D02*
X798512D01*
X795832Y635972D01*
X793428Y634584D01*
X791466Y632622D01*
X790078Y630218D01*
X789360Y627538D01*
Y624762D01*
X790078Y622082D01*
X791466Y619678D01*
X793428Y617716D01*
X795832Y616328D01*
X798512Y615610D01*
X801288D01*
X803968Y616328D01*
X806372Y617716D01*
X808334Y619678D01*
X809722Y622082D01*
X810440Y624762D01*
Y627538D01*
X809722Y630218D01*
X808334Y632622D01*
X806372Y634584D01*
X803968Y635972D01*
X801288Y636690D01*
D02*
G37*
G36*
X248184Y326108D02*
X248184D01*
D01*
X248184D01*
D02*
G37*
%LPD*%
D23*
X313613Y918972D02*
G03*
X298476Y903834I0J-15138D01*
G01*
X1048030Y739813D02*
G03*
X1038035Y749808I-9995J0D01*
G01*
X993236D02*
G03*
X984530Y741102I0J-8706D01*
G01*
X360670Y830834D02*
G03*
X375656Y845820I0J14986D01*
G01*
X298476Y847344D02*
G03*
X314986Y830834I16510J0D01*
G01*
X298476Y847344D02*
Y903834D01*
X313613Y918972D02*
X325146D01*
X993236Y749808D02*
X1038035D01*
X1048030Y722094D02*
Y739813D01*
X984530Y734175D02*
Y741102D01*
X314986Y830834D02*
X360670D01*
X375656Y845820D02*
Y869845D01*
D24*
X312114Y781119D02*
G03*
X300500Y769505I0J-11614D01*
G01*
X504767Y781119D02*
G03*
X515392Y791744I0J10625D01*
G01*
X286040Y538140D02*
G03*
X300500Y573050I-34910J34910D01*
G01*
X431512Y802640D02*
G03*
X439173Y810301I0J7661D01*
G01*
X451856Y895245D02*
G03*
X439173Y879211I3793J-16034D01*
G01*
X528056Y895245D02*
G03*
X515392Y882581I0J-12664D01*
G01*
X300500Y573050D02*
Y769505D01*
X515392Y791744D02*
Y882581D01*
X312114Y781119D02*
X504767D01*
X402362Y802640D02*
X431512D01*
X439173Y810301D02*
Y879211D01*
X401600Y803402D02*
X402362Y802640D01*
D25*
X742600Y924411D02*
G03*
X733053Y933958I-9547J0D01*
G01*
X1020344Y803535D02*
G03*
X1035971Y787908I15627J0D01*
G01*
X1020344Y950468D02*
G03*
X998246Y972566I-22098J0D01*
G01*
X182398Y859903D02*
G03*
X172456Y869845I-9942J0D01*
G01*
X1098830Y784432D02*
G03*
X1095354Y787908I-3476J0D01*
G01*
X26950Y972566D02*
G03*
X18554Y964169I0J-8396D01*
G01*
X171222Y831088D02*
G03*
X182398Y842264I0J11176D01*
G01*
X18554Y839759D02*
G03*
X27225Y831088I8671J0D01*
G01*
X1095354Y793496D02*
G03*
X1098830Y796972I0J3476D01*
G01*
X1025932Y803535D02*
G03*
X1035971Y793496I10039J0D01*
G01*
X1025932Y950468D02*
G03*
X998246Y978154I-27686J0D01*
G01*
X197856Y869845D02*
G03*
X187986Y859975I0J-9870D01*
G01*
X26950Y978154D02*
G03*
X12966Y964169I0J-13985D01*
G01*
X171222Y825500D02*
G03*
X187986Y842264I0J16764D01*
G01*
X12966Y839759D02*
G03*
X27225Y825500I14259J0D01*
G01*
X1012786Y781224D02*
G03*
X1016262Y777748I3476J0D01*
G01*
X1003722D02*
G03*
X1007198Y781224I0J3476D01*
G01*
Y896762D02*
G03*
X1002753Y901207I-4445J0D01*
G01*
X998195Y910097D02*
G03*
X998195Y901207I0J-4445D01*
G01*
X1002753Y910097D02*
G03*
X1007198Y914542I0J4445D01*
G01*
X67668Y972566D02*
G03*
X63223Y968121I0J-4445D01*
G01*
X54333Y955453D02*
G03*
X63223Y955453I4445J0D01*
G01*
X54333Y968121D02*
G03*
X49888Y972566I-4445J0D01*
G01*
X885564Y618137D02*
G03*
X881119Y622582I-4445J0D01*
G01*
X868167Y631472D02*
G03*
X868167Y622582I0J-4445D01*
G01*
X881119Y631472D02*
G03*
X885564Y635917I0J4445D01*
G01*
Y645868D02*
G03*
X885535Y646712I-12500J0D01*
G01*
X1266564Y618137D02*
G03*
X1262119Y622582I-4445J0D01*
G01*
X1249167Y631472D02*
G03*
X1249167Y622582I0J-4445D01*
G01*
X1262119Y631472D02*
G03*
X1266564Y635917I0J4445D01*
G01*
Y645868D02*
G03*
X1266535Y646712I-12500J0D01*
G01*
X1210568Y718154D02*
G03*
X1210566Y718153I9382J-17663D01*
G01*
D02*
G03*
X1199950Y700429I9384J-17662D01*
G01*
X1266535Y646712D02*
G03*
X1254064Y658368I-12471J-844D01*
G01*
X1194362Y673166D02*
G03*
X1209160Y658368I14798J0D01*
G01*
X1222095Y593090D02*
G03*
X1233028Y582157I10933J0D01*
G01*
X1258441D02*
G03*
X1272152Y595868I0J13711D01*
G01*
X1222095Y599197D02*
G03*
X1217857Y603436I-4238J0D01*
G01*
X1272152Y645868D02*
G03*
X1254064Y663956I-18088J0D01*
G01*
X1227683Y593090D02*
G03*
X1233028Y587745I5345J0D01*
G01*
X1258441D02*
G03*
X1266564Y595868I0J8123D01*
G01*
X1231922Y603436D02*
G03*
X1227683Y599197I0J-4238D01*
G01*
X1199950Y673166D02*
G03*
X1209160Y663956I9210J0D01*
G01*
X1194362Y690880D02*
G03*
X1191280Y698320I-10521J0D01*
G01*
X813362Y690880D02*
G03*
X810280Y698320I-10521J0D01*
G01*
X831106Y719223D02*
G03*
X818950Y699004I10736J-20219D01*
G01*
X818950Y673166D02*
G03*
X828160Y663956I9210J0D01*
G01*
X813362Y673166D02*
G03*
X828160Y658368I14798J0D01*
G01*
X885564Y645868D02*
G03*
X873064Y658368I-12500J0D01*
G01*
X850922Y603436D02*
G03*
X846683Y599197I0J-4238D01*
G01*
X877441Y587745D02*
G03*
X885564Y595868I0J8123D01*
G01*
X846683Y593090D02*
G03*
X852028Y587745I5345J0D01*
G01*
X891152Y645868D02*
G03*
X873064Y663956I-18088J0D01*
G01*
X841095Y599197D02*
G03*
X836857Y603436I-4238J0D01*
G01*
X877441Y582157D02*
G03*
X891152Y595868I0J13711D01*
G01*
X841095Y593090D02*
G03*
X852028Y582157I10933J0D01*
G01*
X653932Y577187D02*
G03*
X677256Y553863I23324J0D01*
G01*
X644788Y575437D02*
G03*
X674750Y545475I29962J0D01*
G01*
X1309539Y553863D02*
G03*
X1325144Y569468I0J15605D01*
G01*
X1311786Y545475D02*
G03*
X1332689Y566378I0J20903D01*
G01*
Y841421D02*
G03*
X1317560Y856550I-15129J0D01*
G01*
X1325144Y820928D02*
G03*
X1312444Y833628I-12700J0D01*
G01*
X1123600Y841248D02*
G03*
X1131220Y833628I7620J0D01*
G01*
X1007198Y948869D02*
G03*
X997079Y958988I-10119J0D01*
G01*
X1012786Y948869D02*
G03*
X997079Y964576I-15707J0D01*
G01*
X197793Y958988D02*
G03*
X188240Y949436I0J-9553D01*
G01*
X197793Y964576D02*
G03*
X182652Y949436I0J-15141D01*
G01*
X188240Y904861D02*
G03*
X197856Y895245I9616J0D01*
G01*
X644788Y902013D02*
G03*
X633435Y913367I-11353J0D01*
G01*
X362992Y884174D02*
G03*
X362992Y884181I-3810J0D01*
G01*
X371294Y913367D02*
G03*
X362973Y905046I0J-8321D01*
G01*
X880390Y802123D02*
G03*
X883866Y805599I0J3476D01*
G01*
X700300Y802123D02*
G03*
X689617Y791440I0J-10683D01*
G01*
X695205Y781398D02*
G03*
X698681Y777922I3476J0D01*
G01*
X883866Y793059D02*
G03*
X880390Y796535I-3476J0D01*
G01*
X700300D02*
G03*
X695205Y791440I0J-5095D01*
G01*
X686141Y777922D02*
G03*
X689617Y781398I0J3476D01*
G01*
X653932Y903177D02*
G03*
X635379Y921730I-18553J0D01*
G01*
X908000Y937762D02*
G03*
X900882Y944880I-7118J0D01*
G01*
X361501Y921730D02*
G03*
X350256Y910485I0J-11245D01*
G01*
Y869845D02*
G03*
X362992Y882581I0J12736D01*
G01*
X172456Y895245D02*
G03*
X182652Y905441I0J10196D01*
G01*
X742600Y856550D02*
Y924411D01*
X220498Y933958D02*
X733053D01*
X742600Y856550D02*
X742600D01*
X1020344Y803535D02*
Y950468D01*
X1035971Y787908D02*
X1095354D01*
X182398Y842264D02*
Y859903D01*
X89688Y972566D02*
X998246D01*
X26950D02*
X39093D01*
X27225Y831088D02*
X171222D01*
X18554Y839759D02*
Y964169D01*
X1035971Y793496D02*
X1095354D01*
X26950Y978154D02*
X998246D01*
X187986Y842264D02*
Y859975D01*
X1025932Y803535D02*
Y950468D01*
X27225Y825500D02*
X171222D01*
X12966Y839759D02*
Y964169D01*
X1012786Y781224D02*
Y948869D01*
X1007198Y781224D02*
Y884349D01*
Y896762D01*
X998195Y901207D02*
X1002753D01*
X998195Y910097D02*
X1002753D01*
X1007198Y914542D02*
Y925337D01*
Y948869D01*
X67668Y972566D02*
X89688D01*
X63223Y955453D02*
Y968121D01*
X54333Y955453D02*
Y968121D01*
X39093Y972566D02*
X49888D01*
X885564Y609643D02*
Y618137D01*
X868167Y622582D02*
X881119D01*
X868167Y631472D02*
X881119D01*
X885564Y635917D02*
Y645868D01*
Y595868D02*
Y609643D01*
X1266564D02*
Y618137D01*
X1249167Y622582D02*
X1262119D01*
X1249167Y631472D02*
X1262119D01*
X1266564Y635917D02*
Y645868D01*
X1224888Y726248D02*
X1225350Y727750D01*
X1210568Y718154D02*
X1223814Y725173D01*
X1224888Y726248D01*
X1199950Y673166D02*
Y700430D01*
X1266564Y595868D02*
Y609643D01*
X1209160Y658368D02*
X1254064D01*
X1194362Y673166D02*
Y690880D01*
X1209160Y663956D02*
X1254064D01*
X1222095Y593090D02*
Y599197D01*
X1233028Y582157D02*
X1258441D01*
X1272152Y595868D02*
Y645868D01*
X1227683Y593090D02*
Y599197D01*
X1233028Y587745D02*
X1258441D01*
X1187250Y702350D02*
X1191280Y698320D01*
X806250Y702350D02*
X810280Y698320D01*
X813362Y673166D02*
Y690880D01*
X818950Y673166D02*
Y699004D01*
X842907Y725476D02*
X843981Y726551D01*
X831106Y719223D02*
X842907Y725476D01*
X843981Y726551D02*
X844350Y727750D01*
X852028Y587745D02*
X877441D01*
X846683Y593090D02*
Y599197D01*
X828160Y658368D02*
X873064D01*
X891152Y595868D02*
Y645868D01*
X852028Y582157D02*
X877441D01*
X841095Y593090D02*
Y599197D01*
X828160Y663956D02*
X873064D01*
X644788Y575437D02*
Y902013D01*
X677256Y553863D02*
X1309539D01*
X653932Y577187D02*
Y903177D01*
X674750Y545475D02*
X1311786D01*
X1332689Y566378D02*
Y841421D01*
X1289000Y856550D02*
X1317560D01*
X1325144Y569468D02*
Y820928D01*
X1123600Y841248D02*
Y856550D01*
X1131220Y833628D02*
X1312444D01*
X197793Y964576D02*
X997079D01*
X197793Y958988D02*
X997079D01*
X188240Y904861D02*
Y949436D01*
X182652Y905441D02*
Y949436D01*
X371294Y913367D02*
X633435D01*
X362992Y882581D02*
Y884174D01*
X362973Y900499D02*
Y905046D01*
X689617Y781398D02*
Y791440D01*
X700300Y802123D02*
X880390D01*
X695205Y781398D02*
Y791440D01*
X700300Y796535D02*
X880390D01*
X361501Y921730D02*
X635379D01*
X240056Y944880D02*
X900882D01*
X908000Y856550D02*
Y937762D01*
X362973Y895031D02*
Y900499D01*
Y895031D02*
X362973Y895031D01*
Y892072D02*
Y895031D01*
Y892072D02*
X362978Y892067D01*
X362973Y900499D02*
X362973Y900499D01*
X362978Y892067D02*
X362992Y884181D01*
X350256Y895245D02*
Y910485D01*
D26*
X1189791Y581187D02*
G03*
X1197450Y588846I0J7659D01*
G01*
X809892Y581187D02*
G03*
X816450Y587745I0J6558D01*
G01*
X1088674Y668020D02*
G03*
X1098830Y678175I0J10155D01*
G01*
X1073430Y589057D02*
G03*
X1081300Y581187I7870J0D01*
G01*
X692430Y589057D02*
G03*
X700300Y581187I7870J0D01*
G01*
X707674Y668020D02*
G03*
X717830Y678175I0J10155D01*
G01*
X261900Y832866D02*
G03*
X274092Y845058I0J12192D01*
G01*
X823995Y325624D02*
G03*
X806035Y318185I0J-25400D01*
G01*
X1225565D02*
G03*
X1207605Y325624I-17960J-17960D01*
G01*
X496075Y577280D02*
G03*
X508788Y589993I0J12713D01*
G01*
X514658Y550900D02*
G03*
X528056Y564298I0J13398D01*
G01*
X532130Y510480D02*
G03*
X545872Y524221I0J13741D01*
G01*
X551599Y474940D02*
G03*
X565684Y489024I0J14084D01*
G01*
X300500Y436940D02*
G03*
X312498Y424942I11998J0D01*
G01*
X570256D02*
G03*
X582956Y437642I0J12700D01*
G01*
X1081300Y581187D02*
X1189791D01*
X1197450Y588846D02*
Y603436D01*
X582956Y437642D02*
Y780288D01*
X816450Y587745D02*
Y603436D01*
X700300Y581187D02*
X809892D01*
X1073430Y668020D02*
X1088674D01*
X1048030Y764540D02*
X1098830D01*
X1073430Y589057D02*
Y618368D01*
X1098830Y678175D02*
Y764540D01*
X717830Y678175D02*
Y764540D01*
X692430Y589057D02*
Y618368D01*
X667030Y764540D02*
X717830D01*
X692430Y668020D02*
X707674D01*
X235428Y832866D02*
X261900D01*
X793550Y305700D02*
X806035Y318185D01*
X274092Y845058D02*
Y869845D01*
X823995Y325624D02*
X1207605D01*
X1225565Y318185D02*
X1238050Y305700D01*
X508788Y589993D02*
Y760984D01*
X321020Y577280D02*
X496075D01*
X352460Y550900D02*
X514658D01*
X528056Y564298D02*
Y869845D01*
X359590Y510480D02*
X532130D01*
X545872Y524221D02*
Y818642D01*
X565684Y489024D02*
Y799592D01*
X339070Y474940D02*
X551599D01*
X300500Y436940D02*
Y460900D01*
X312498Y424942D02*
X570256D01*
X235105Y833189D02*
X235428Y832866D01*
X825300Y286650D02*
X1206300D01*
X857050Y305700D02*
X1174550D01*
X863400Y343800D02*
X1168200D01*
X274056Y869845D02*
X274092D01*
D27*
X570266Y218368D02*
G03*
X603530Y251632I0J33264D01*
G01*
X240818Y243768D02*
G03*
X266218Y218368I25400J0D01*
G01*
X603530Y251632D02*
Y506815D01*
X266218Y218368D02*
X570266D01*
X603530Y506815D02*
Y734175D01*
X240818Y243768D02*
Y339062D01*
D28*
X667030Y580386D02*
G03*
X680238Y567178I13208J0D01*
G01*
X984166D02*
Y733811D01*
X680238Y567178D02*
X984166D01*
X667030Y580386D02*
Y722094D01*
D29*
X825300Y248550D02*
D03*
Y286650D02*
D03*
X863400Y343800D02*
D03*
X780850Y337450D02*
D03*
X1288850Y229500D02*
D03*
X1206300Y286650D02*
D03*
X1174550Y305700D02*
D03*
X1238050D02*
D03*
X1244400Y337450D02*
D03*
X1168200Y343800D02*
D03*
D30*
X857050Y305700D02*
D03*
X793550D02*
D03*
D31*
X780850Y702350D02*
D03*
X1161850D02*
D03*
D32*
X793550Y727750D02*
D03*
X806250Y702350D02*
D03*
X818950Y727750D02*
D03*
X831650Y702350D02*
D03*
X844350Y727750D02*
D03*
X857050Y702350D02*
D03*
X869750Y727750D02*
D03*
X1174550D02*
D03*
X1187250Y702350D02*
D03*
X1199950Y727750D02*
D03*
X1212650Y702350D02*
D03*
X1225350Y727750D02*
D03*
X1238050Y702350D02*
D03*
X1250750Y727750D02*
D03*
D33*
X908000Y856550D02*
D03*
X882600D02*
D03*
X1289000D02*
D03*
X1263600D02*
D03*
D34*
X749100Y715050D02*
D03*
X1130100D02*
D03*
X45456Y895245D02*
D03*
X70856Y869845D02*
D03*
Y895245D02*
D03*
X96256Y869845D02*
D03*
Y895245D02*
D03*
X121656Y869845D02*
D03*
Y895245D02*
D03*
X147056Y869845D02*
D03*
X147056Y895245D02*
D03*
X172456Y869845D02*
D03*
X172456Y895245D02*
D03*
X197856Y869845D02*
D03*
Y895245D02*
D03*
X223256Y869845D02*
D03*
Y895245D02*
D03*
X248656Y869845D02*
D03*
Y895245D02*
D03*
X274056Y869845D02*
D03*
X274056Y895245D02*
D03*
X553456D02*
D03*
X553456Y869845D02*
D03*
X528056Y895245D02*
D03*
Y869845D02*
D03*
X502656Y895245D02*
D03*
Y869845D02*
D03*
X477256Y895245D02*
D03*
Y869845D02*
D03*
X451856Y895245D02*
D03*
X451856Y869845D02*
D03*
X426456Y895245D02*
D03*
X426456Y869845D02*
D03*
X401056Y895245D02*
D03*
Y869845D02*
D03*
X375656Y895245D02*
D03*
Y869845D02*
D03*
X350256Y895245D02*
D03*
Y869845D02*
D03*
X324856Y895245D02*
D03*
D35*
X768000Y856550D02*
D03*
X1149000D02*
D03*
D36*
X742600D02*
D03*
X1123600D02*
D03*
D37*
X1351350Y935000D02*
D03*
Y65000D02*
D03*
X101350D02*
D03*
Y785000D02*
D03*
D38*
X45456Y869845D02*
D03*
X324856D02*
D03*
D39*
X292810Y499760D02*
D03*
X322650Y524810D02*
D03*
X286040Y538140D02*
D03*
X339070Y474940D02*
D03*
X359590Y510480D02*
D03*
X352460Y550900D02*
D03*
X321020Y577280D02*
D03*
X300500Y460900D02*
D03*
X261930Y474940D02*
D03*
X241410Y510480D02*
D03*
X248540Y550900D02*
D03*
X279980Y577280D02*
D03*
D40*
X1003722Y777748D02*
D03*
X1016262D02*
D03*
X196577Y366406D02*
D03*
X208515Y339062D02*
D03*
X197384Y414246D02*
D03*
X215881D02*
D03*
X984166Y567178D02*
D03*
X603530Y506815D02*
D03*
X1098830Y784432D02*
D03*
Y796972D02*
D03*
X1009930Y734175D02*
D03*
X1048030Y722094D02*
D03*
X1073430Y736715D02*
D03*
Y668020D02*
D03*
X1048030Y764540D02*
D03*
X1098830D02*
D03*
X1197450Y603436D02*
D03*
X1073430Y618368D02*
D03*
X1217857Y603436D02*
D03*
X1231922D02*
D03*
X1273730Y727416D02*
D03*
X984530Y734175D02*
D03*
X603530D02*
D03*
X892730Y727416D02*
D03*
X850922Y603436D02*
D03*
X836857D02*
D03*
X692430Y618368D02*
D03*
X816450Y603436D02*
D03*
X686141Y777922D02*
D03*
X698681D02*
D03*
X717830Y764540D02*
D03*
X667030D02*
D03*
X692430Y668020D02*
D03*
X628930Y734175D02*
D03*
X883866Y793059D02*
D03*
Y805599D02*
D03*
X582956Y780288D02*
D03*
X692430Y736715D02*
D03*
X667030Y722094D02*
D03*
X325146Y918972D02*
D03*
X220498Y933958D02*
D03*
X240056Y944880D02*
D03*
X401600Y803402D02*
D03*
X236629Y833189D02*
D03*
X1219480Y222758D02*
D03*
X1144804Y224028D02*
D03*
X240818Y339062D02*
D03*
Y414246D02*
D03*
X508788Y759714D02*
D03*
X565684Y799592D02*
D03*
X545872Y818642D02*
D03*
M02*
