G04*
G04 #@! TF.GenerationSoftware,Altium Limited,Altium Designer,24.5.2 (23)*
G04*
G04 Layer_Color=16711935*
%FSLAX44Y44*%
%MOMM*%
G71*
G04*
G04 #@! TF.SameCoordinates,44D7EE50-CEF4-4518-91F5-DF1CE1C3C4A8*
G04*
G04*
G04 #@! TF.FilePolarity,Positive*
G04*
G01*
G75*
%ADD41C,0.2540*%
%ADD67C,0.1524*%
D41*
X1455240Y0D02*
X1552448D01*
X1455240Y1000000D02*
X1552448D01*
X1549908Y0D02*
Y436010D01*
Y555862D02*
Y1000000D01*
Y0D02*
X1554988Y15240D01*
X1544828D02*
X1549908Y0D01*
X1544828Y984760D02*
X1549908Y1000000D01*
X1554988Y984760D01*
X1452700Y1002540D02*
Y1115314D01*
X0Y1002540D02*
Y1115314D01*
X782212Y1112774D02*
X1452700D01*
X0D02*
X662360D01*
X1437460Y1117854D02*
X1452700Y1112774D01*
X1437460Y1107694D02*
X1452700Y1112774D01*
X0D02*
X15240Y1107694D01*
X0Y1112774D02*
X15240Y1117854D01*
D67*
X1559050Y440074D02*
Y445152D01*
Y442613D01*
X1543815D01*
X1546354Y440074D01*
Y452770D02*
X1543815Y455309D01*
Y460387D01*
X1546354Y462927D01*
X1556510D01*
X1559050Y460387D01*
Y455309D01*
X1556510Y452770D01*
X1546354D01*
Y468005D02*
X1543815Y470544D01*
Y475623D01*
X1546354Y478162D01*
X1556510D01*
X1559050Y475623D01*
Y470544D01*
X1556510Y468005D01*
X1546354D01*
X1559050Y483240D02*
X1556510D01*
Y485779D01*
X1559050D01*
Y483240D01*
X1546354Y495936D02*
X1543815Y498475D01*
Y503554D01*
X1546354Y506093D01*
X1556510D01*
X1559050Y503554D01*
Y498475D01*
X1556510Y495936D01*
X1546354D01*
Y511171D02*
X1543815Y513710D01*
Y518789D01*
X1546354Y521328D01*
X1556510D01*
X1559050Y518789D01*
Y513710D01*
X1556510Y511171D01*
X1546354D01*
X1559050Y526406D02*
X1548893D01*
Y528945D01*
X1551432Y531484D01*
X1559050D01*
X1551432D01*
X1548893Y534024D01*
X1551432Y536563D01*
X1559050D01*
Y541641D02*
X1548893D01*
Y544180D01*
X1551432Y546720D01*
X1559050D01*
X1551432D01*
X1548893Y549259D01*
X1551432Y551798D01*
X1559050D01*
X666424Y1103633D02*
X671502D01*
X668963D01*
Y1118867D01*
X666424Y1116328D01*
X686738Y1103633D02*
Y1118867D01*
X679120Y1111250D01*
X689277D01*
X704512Y1118867D02*
X694355D01*
Y1111250D01*
X699433Y1113789D01*
X701973D01*
X704512Y1111250D01*
Y1106172D01*
X701973Y1103633D01*
X696894D01*
X694355Y1106172D01*
X709590Y1103633D02*
Y1106172D01*
X712129D01*
Y1103633D01*
X709590D01*
X732443D02*
X722286D01*
X732443Y1113789D01*
Y1116328D01*
X729903Y1118867D01*
X724825D01*
X722286Y1116328D01*
X737521Y1118867D02*
X747678D01*
Y1116328D01*
X737521Y1106172D01*
Y1103633D01*
X752756D02*
Y1113789D01*
X755295D01*
X757834Y1111250D01*
Y1103633D01*
Y1111250D01*
X760374Y1113789D01*
X762913Y1111250D01*
Y1103633D01*
X767991D02*
Y1113789D01*
X770530D01*
X773070Y1111250D01*
Y1103633D01*
Y1111250D01*
X775609Y1113789D01*
X778148Y1111250D01*
Y1103633D01*
M02*
