G04*
G04 #@! TF.GenerationSoftware,Altium Limited,Altium Designer,24.5.2 (23)*
G04*
G04 Layer_Color=128*
%FSLAX44Y44*%
%MOMM*%
G71*
G04*
G04 #@! TF.SameCoordinates,44D7EE50-CEF4-4518-91F5-DF1CE1C3C4A8*
G04*
G04*
G04 #@! TF.FilePolarity,Positive*
G04*
G01*
G75*
%ADD42R,0.8890X0.7620*%
%ADD43R,0.7600X1.6700*%
%ADD44R,1.7780X1.5240*%
%ADD45R,1.0160X1.5240*%
%ADD46R,0.7400X0.2700*%
%ADD47R,0.8400X2.4000*%
%ADD48R,1.5240X1.0160*%
%ADD49R,2.2000X0.6500*%
%ADD50R,0.8200X0.9200*%
D42*
X1060730Y707108D02*
D03*
Y722348D02*
D03*
X1048030Y751955D02*
D03*
Y736715D02*
D03*
X1009930Y707108D02*
D03*
Y722348D02*
D03*
X590830Y706854D02*
D03*
Y722094D02*
D03*
X603530Y706854D02*
D03*
Y722094D02*
D03*
X856288Y642874D02*
D03*
Y658114D02*
D03*
X832412D02*
D03*
Y642874D02*
D03*
X1073430Y707108D02*
D03*
Y722348D02*
D03*
X1098830Y751955D02*
D03*
Y736715D02*
D03*
X1213412Y614934D02*
D03*
Y630174D02*
D03*
X1086130Y736715D02*
D03*
Y751955D02*
D03*
X1237288Y630174D02*
D03*
Y614934D02*
D03*
X1086130Y707108D02*
D03*
Y722348D02*
D03*
X1253250Y671068D02*
D03*
Y686308D02*
D03*
X1060692Y736715D02*
D03*
Y751955D02*
D03*
X971830Y706854D02*
D03*
Y722094D02*
D03*
X984530Y706854D02*
D03*
Y722094D02*
D03*
X1035330Y707108D02*
D03*
Y722348D02*
D03*
X1197450Y614934D02*
D03*
Y630174D02*
D03*
X1237288Y671068D02*
D03*
Y686308D02*
D03*
X997230Y706854D02*
D03*
Y722094D02*
D03*
X1253250Y614934D02*
D03*
Y630174D02*
D03*
X1022630Y706854D02*
D03*
Y722094D02*
D03*
X1197450Y671068D02*
D03*
Y686308D02*
D03*
X1213412Y642874D02*
D03*
Y658114D02*
D03*
Y671068D02*
D03*
Y686308D02*
D03*
X1237288Y642874D02*
D03*
Y658114D02*
D03*
X667030Y751955D02*
D03*
Y736715D02*
D03*
X654330Y707108D02*
D03*
Y722348D02*
D03*
X641630Y706854D02*
D03*
Y722094D02*
D03*
X616230Y706854D02*
D03*
Y722094D02*
D03*
X628930Y722348D02*
D03*
Y707108D02*
D03*
X692430D02*
D03*
Y722348D02*
D03*
X679730Y707108D02*
D03*
Y722348D02*
D03*
X679692Y736715D02*
D03*
Y751955D02*
D03*
X705130Y707108D02*
D03*
Y722348D02*
D03*
Y736715D02*
D03*
Y751955D02*
D03*
X717830D02*
D03*
Y736715D02*
D03*
X872250Y614934D02*
D03*
Y630174D02*
D03*
X856288Y671068D02*
D03*
Y686308D02*
D03*
X872250Y671068D02*
D03*
Y686308D02*
D03*
X832412Y614934D02*
D03*
Y630174D02*
D03*
X856288D02*
D03*
Y614934D02*
D03*
X816450Y686308D02*
D03*
X832412D02*
D03*
X816450Y671068D02*
D03*
X832412D02*
D03*
X816450Y614934D02*
D03*
Y630174D02*
D03*
D43*
X997230Y599158D02*
D03*
X1009930Y599158D02*
D03*
X1022630Y599158D02*
D03*
X1035330D02*
D03*
X1048030D02*
D03*
X1060730D02*
D03*
X1073430Y599158D02*
D03*
X1086130Y599158D02*
D03*
Y684458D02*
D03*
X1073430Y684458D02*
D03*
X1060730Y684458D02*
D03*
X1048030D02*
D03*
X1035330D02*
D03*
X1022630D02*
D03*
X1009930Y684458D02*
D03*
X997230Y684458D02*
D03*
X616230Y599158D02*
D03*
X628930Y599158D02*
D03*
X641630Y599158D02*
D03*
X654330D02*
D03*
X667030D02*
D03*
X679730D02*
D03*
X692430Y599158D02*
D03*
X705130Y599158D02*
D03*
Y684458D02*
D03*
X692430Y684458D02*
D03*
X679730Y684458D02*
D03*
X667030D02*
D03*
X654330D02*
D03*
X641630D02*
D03*
X628930Y684458D02*
D03*
X616230Y684458D02*
D03*
D44*
X1273730Y671830D02*
D03*
Y646430D02*
D03*
X892730Y671830D02*
D03*
Y646430D02*
D03*
D45*
X208515Y366406D02*
D03*
X228835Y366406D02*
D03*
D46*
X205931Y385450D02*
D03*
Y390450D02*
D03*
Y395450D02*
D03*
Y400450D02*
D03*
Y405450D02*
D03*
X225831D02*
D03*
X225831Y400450D02*
D03*
X225831Y395450D02*
D03*
Y390450D02*
D03*
Y385450D02*
D03*
D47*
X215881Y395450D02*
D03*
D48*
X181890Y413818D02*
D03*
X181890Y393498D02*
D03*
D49*
X256566Y390472D02*
D03*
Y371472D02*
D03*
D50*
X1228980Y262730D02*
D03*
X1209980D02*
D03*
X1219480Y242730D02*
D03*
X1154050Y262730D02*
D03*
X1135050D02*
D03*
X1144550Y242730D02*
D03*
M02*
