G04*
G04 #@! TF.GenerationSoftware,Altium Limited,Altium Designer,24.5.2 (23)*
G04*
G04 Layer_Color=65535*
%FSLAX44Y44*%
%MOMM*%
G71*
G04*
G04 #@! TF.SameCoordinates,44D7EE50-CEF4-4518-91F5-DF1CE1C3C4A8*
G04*
G04*
G04 #@! TF.FilePolarity,Positive*
G04*
G01*
G75*
%ADD10C,0.1270*%
G36*
X231752Y577695D02*
X231900D01*
X232234Y577658D01*
X232604Y577621D01*
X232993Y577547D01*
X233382Y577454D01*
X233733Y577325D01*
X233752D01*
X233770Y577306D01*
X233881Y577251D01*
X234048Y577158D01*
X234233Y577028D01*
X234456Y576862D01*
X234696Y576658D01*
X234918Y576399D01*
X235122Y576121D01*
X235141Y576084D01*
X235196Y575973D01*
X235289Y575825D01*
X235381Y575603D01*
X235474Y575343D01*
X235567Y575066D01*
X235622Y574751D01*
X235641Y574436D01*
Y574399D01*
Y574306D01*
X235622Y574140D01*
X235585Y573936D01*
X235529Y573695D01*
X235437Y573436D01*
X235326Y573177D01*
X235178Y572899D01*
X235159Y572862D01*
X235104Y572788D01*
X234993Y572640D01*
X234844Y572492D01*
X234659Y572307D01*
X234437Y572103D01*
X234159Y571918D01*
X233845Y571733D01*
X233863D01*
X233900Y571714D01*
X233956Y571696D01*
X234030Y571659D01*
X234252Y571585D01*
X234511Y571455D01*
X234789Y571288D01*
X235104Y571085D01*
X235381Y570844D01*
X235641Y570548D01*
X235659Y570510D01*
X235733Y570399D01*
X235844Y570233D01*
X235955Y570011D01*
X236066Y569714D01*
X236178Y569399D01*
X236252Y569029D01*
X236270Y568622D01*
Y568603D01*
Y568585D01*
Y568474D01*
X236252Y568288D01*
X236215Y568066D01*
X236178Y567807D01*
X236103Y567529D01*
X236011Y567233D01*
X235881Y566937D01*
X235863Y566900D01*
X235807Y566807D01*
X235733Y566678D01*
X235622Y566492D01*
X235474Y566307D01*
X235326Y566104D01*
X235141Y565900D01*
X234937Y565733D01*
X234918Y565715D01*
X234844Y565659D01*
X234715Y565585D01*
X234548Y565511D01*
X234345Y565400D01*
X234104Y565289D01*
X233845Y565196D01*
X233530Y565104D01*
X233493D01*
X233382Y565067D01*
X233196Y565048D01*
X232956Y565011D01*
X232659Y564974D01*
X232308Y564937D01*
X231919Y564919D01*
X231474Y564900D01*
X226586D01*
Y577714D01*
X231623D01*
X231752Y577695D01*
D02*
G37*
G36*
X305713Y435421D02*
X298139D01*
Y431514D01*
X305231D01*
Y429996D01*
X298139D01*
Y425644D01*
X306009D01*
Y424126D01*
X296436D01*
Y436940D01*
X305713D01*
Y435421D01*
D02*
G37*
G36*
X353108Y454725D02*
X346146D01*
Y450763D01*
X352163D01*
Y449244D01*
X346146D01*
Y443430D01*
X344442D01*
Y456244D01*
X353108D01*
Y454725D01*
D02*
G37*
G36*
X381210Y551844D02*
X379506D01*
Y557880D01*
X372878D01*
Y551844D01*
X371174D01*
Y564658D01*
X372878D01*
Y559399D01*
X379506D01*
Y564658D01*
X381210D01*
Y551844D01*
D02*
G37*
G36*
X323718Y599552D02*
Y599534D01*
Y599478D01*
Y599404D01*
Y599293D01*
X323699Y599145D01*
Y598997D01*
X323662Y598645D01*
X323625Y598238D01*
X323551Y597812D01*
X323440Y597423D01*
X323311Y597053D01*
Y597034D01*
X323292Y597016D01*
X323236Y596904D01*
X323144Y596756D01*
X323014Y596553D01*
X322829Y596349D01*
X322625Y596127D01*
X322366Y595905D01*
X322070Y595719D01*
X322033Y595701D01*
X321922Y595645D01*
X321755Y595571D01*
X321514Y595497D01*
X321218Y595405D01*
X320885Y595331D01*
X320514Y595275D01*
X320107Y595257D01*
X319940D01*
X319829Y595275D01*
X319681Y595294D01*
X319533Y595312D01*
X319144Y595386D01*
X318737Y595497D01*
X318311Y595664D01*
X318089Y595775D01*
X317885Y595905D01*
X317700Y596053D01*
X317515Y596219D01*
X317496Y596238D01*
X317478Y596256D01*
X317441Y596330D01*
X317385Y596404D01*
X317311Y596497D01*
X317237Y596627D01*
X317163Y596775D01*
X317070Y596941D01*
X316996Y597127D01*
X316922Y597349D01*
X316848Y597571D01*
X316774Y597830D01*
X316737Y598108D01*
X316682Y598423D01*
X316663Y598738D01*
Y599090D01*
X318200Y599312D01*
Y599293D01*
Y599256D01*
Y599182D01*
X318218Y599071D01*
X318237Y598960D01*
Y598830D01*
X318293Y598515D01*
X318348Y598182D01*
X318459Y597849D01*
X318570Y597553D01*
X318644Y597423D01*
X318737Y597312D01*
X318755Y597293D01*
X318829Y597238D01*
X318941Y597145D01*
X319089Y597053D01*
X319292Y596941D01*
X319515Y596867D01*
X319792Y596793D01*
X320089Y596775D01*
X320200D01*
X320311Y596793D01*
X320477Y596812D01*
X320644Y596849D01*
X320829Y596886D01*
X321014Y596960D01*
X321200Y597053D01*
X321218Y597071D01*
X321274Y597108D01*
X321348Y597182D01*
X321459Y597256D01*
X321551Y597386D01*
X321662Y597515D01*
X321755Y597664D01*
X321829Y597849D01*
Y597867D01*
X321866Y597941D01*
X321885Y598071D01*
X321922Y598238D01*
X321959Y598460D01*
X321977Y598738D01*
X322014Y599071D01*
Y599460D01*
Y608292D01*
X323718D01*
Y599552D01*
D02*
G37*
G36*
X216935Y518137D02*
X217102Y518119D01*
X217306Y518100D01*
X217509Y518082D01*
X217750Y518026D01*
X218250Y517915D01*
X218805Y517748D01*
X219083Y517637D01*
X219342Y517508D01*
X219602Y517341D01*
X219861Y517174D01*
X219879Y517156D01*
X219916Y517137D01*
X219990Y517082D01*
X220083Y516989D01*
X220176Y516897D01*
X220305Y516767D01*
X220435Y516619D01*
X220583Y516471D01*
X220731Y516286D01*
X220879Y516063D01*
X221046Y515841D01*
X221194Y515601D01*
X221324Y515323D01*
X221472Y515045D01*
X221583Y514749D01*
X221694Y514416D01*
X220028Y514027D01*
Y514045D01*
X220009Y514082D01*
X219972Y514156D01*
X219935Y514249D01*
X219898Y514360D01*
X219842Y514508D01*
X219694Y514804D01*
X219509Y515138D01*
X219287Y515471D01*
X219009Y515786D01*
X218713Y516063D01*
X218676Y516101D01*
X218565Y516175D01*
X218379Y516267D01*
X218139Y516397D01*
X217824Y516508D01*
X217472Y516619D01*
X217046Y516693D01*
X216583Y516712D01*
X216435D01*
X216343Y516693D01*
X216213D01*
X216065Y516675D01*
X215713Y516619D01*
X215324Y516545D01*
X214917Y516415D01*
X214491Y516230D01*
X214102Y515989D01*
X214084D01*
X214065Y515952D01*
X213936Y515860D01*
X213769Y515712D01*
X213565Y515490D01*
X213325Y515212D01*
X213102Y514897D01*
X212899Y514508D01*
X212713Y514082D01*
Y514064D01*
X212695Y514027D01*
X212676Y513971D01*
X212658Y513879D01*
X212621Y513768D01*
X212584Y513638D01*
X212528Y513323D01*
X212454Y512953D01*
X212380Y512545D01*
X212343Y512101D01*
X212325Y511619D01*
Y511601D01*
Y511545D01*
Y511453D01*
Y511342D01*
X212343Y511212D01*
Y511045D01*
X212362Y510860D01*
X212380Y510657D01*
X212436Y510212D01*
X212528Y509731D01*
X212639Y509249D01*
X212787Y508768D01*
Y508750D01*
X212806Y508712D01*
X212843Y508657D01*
X212880Y508564D01*
X212991Y508342D01*
X213158Y508083D01*
X213361Y507787D01*
X213621Y507472D01*
X213917Y507194D01*
X214269Y506935D01*
X214287D01*
X214324Y506916D01*
X214380Y506879D01*
X214454Y506842D01*
X214547Y506805D01*
X214658Y506750D01*
X214917Y506639D01*
X215250Y506527D01*
X215620Y506435D01*
X216028Y506361D01*
X216454Y506342D01*
X216583D01*
X216695Y506361D01*
X216824D01*
X216954Y506379D01*
X217287Y506453D01*
X217676Y506546D01*
X218065Y506694D01*
X218472Y506898D01*
X218676Y507009D01*
X218861Y507157D01*
X218879Y507175D01*
X218898Y507194D01*
X218953Y507250D01*
X219028Y507305D01*
X219102Y507398D01*
X219194Y507509D01*
X219305Y507620D01*
X219398Y507768D01*
X219509Y507935D01*
X219639Y508120D01*
X219750Y508305D01*
X219861Y508527D01*
X219953Y508768D01*
X220046Y509027D01*
X220139Y509305D01*
X220213Y509601D01*
X221916Y509175D01*
Y509157D01*
X221898Y509083D01*
X221861Y508972D01*
X221805Y508824D01*
X221749Y508657D01*
X221675Y508453D01*
X221583Y508231D01*
X221472Y507990D01*
X221213Y507472D01*
X220879Y506953D01*
X220676Y506694D01*
X220472Y506435D01*
X220250Y506213D01*
X219990Y505990D01*
X219972Y505972D01*
X219935Y505935D01*
X219842Y505898D01*
X219750Y505824D01*
X219602Y505731D01*
X219454Y505639D01*
X219250Y505546D01*
X219046Y505453D01*
X218805Y505342D01*
X218546Y505250D01*
X218268Y505157D01*
X217972Y505065D01*
X217657Y504991D01*
X217324Y504953D01*
X216972Y504916D01*
X216602Y504898D01*
X216398D01*
X216250Y504916D01*
X216083D01*
X215880Y504935D01*
X215658Y504972D01*
X215398Y505009D01*
X214861Y505102D01*
X214306Y505250D01*
X213750Y505453D01*
X213491Y505583D01*
X213232Y505731D01*
X213213Y505750D01*
X213176Y505768D01*
X213102Y505824D01*
X213028Y505898D01*
X212917Y505972D01*
X212787Y506083D01*
X212639Y506213D01*
X212491Y506361D01*
X212343Y506527D01*
X212176Y506694D01*
X211843Y507120D01*
X211528Y507620D01*
X211251Y508175D01*
Y508194D01*
X211214Y508250D01*
X211195Y508342D01*
X211140Y508453D01*
X211103Y508601D01*
X211047Y508787D01*
X210973Y508990D01*
X210917Y509212D01*
X210862Y509453D01*
X210788Y509731D01*
X210695Y510305D01*
X210621Y510953D01*
X210584Y511619D01*
Y511638D01*
Y511712D01*
Y511823D01*
X210602Y511953D01*
Y512138D01*
X210621Y512323D01*
X210640Y512564D01*
X210677Y512805D01*
X210769Y513342D01*
X210899Y513934D01*
X211084Y514527D01*
X211343Y515101D01*
X211362Y515119D01*
X211380Y515175D01*
X211417Y515249D01*
X211491Y515341D01*
X211565Y515471D01*
X211658Y515619D01*
X211899Y515952D01*
X212213Y516323D01*
X212584Y516693D01*
X213010Y517063D01*
X213510Y517378D01*
X213528Y517397D01*
X213584Y517415D01*
X213658Y517452D01*
X213750Y517508D01*
X213899Y517563D01*
X214047Y517619D01*
X214232Y517693D01*
X214436Y517767D01*
X214658Y517841D01*
X214898Y517915D01*
X215417Y518026D01*
X216009Y518119D01*
X216620Y518156D01*
X216806D01*
X216935Y518137D01*
D02*
G37*
G36*
X239719Y466893D02*
X240089Y466875D01*
X240459Y466837D01*
X240830Y466782D01*
X241145Y466726D01*
X241163D01*
X241200Y466708D01*
X241256D01*
X241330Y466671D01*
X241533Y466615D01*
X241793Y466523D01*
X242089Y466393D01*
X242404Y466226D01*
X242718Y466041D01*
X243015Y465801D01*
X243033Y465782D01*
X243052Y465764D01*
X243107Y465708D01*
X243181Y465652D01*
X243367Y465467D01*
X243589Y465208D01*
X243829Y464893D01*
X244089Y464523D01*
X244329Y464097D01*
X244533Y463615D01*
Y463597D01*
X244552Y463560D01*
X244589Y463486D01*
X244607Y463375D01*
X244663Y463245D01*
X244700Y463097D01*
X244737Y462930D01*
X244792Y462727D01*
X244848Y462523D01*
X244885Y462282D01*
X244977Y461764D01*
X245033Y461190D01*
X245051Y460560D01*
Y460542D01*
Y460505D01*
Y460412D01*
Y460320D01*
X245033Y460190D01*
Y460042D01*
X245014Y459690D01*
X244959Y459283D01*
X244903Y458857D01*
X244811Y458412D01*
X244700Y457968D01*
Y457949D01*
X244681Y457912D01*
X244663Y457857D01*
X244644Y457783D01*
X244570Y457579D01*
X244459Y457320D01*
X244348Y457024D01*
X244200Y456727D01*
X244015Y456413D01*
X243829Y456116D01*
X243811Y456079D01*
X243737Y455987D01*
X243626Y455857D01*
X243478Y455690D01*
X243311Y455505D01*
X243107Y455320D01*
X242904Y455116D01*
X242663Y454950D01*
X242626Y454931D01*
X242552Y454876D01*
X242422Y454802D01*
X242237Y454709D01*
X242015Y454598D01*
X241756Y454505D01*
X241459Y454394D01*
X241126Y454302D01*
X241089D01*
X241033Y454283D01*
X240978Y454265D01*
X240793Y454246D01*
X240534Y454209D01*
X240237Y454172D01*
X239885Y454135D01*
X239496Y454117D01*
X239071Y454098D01*
X234460D01*
Y466912D01*
X239385D01*
X239719Y466893D01*
D02*
G37*
G36*
X385237Y517629D02*
X385385D01*
X385737Y517592D01*
X386125Y517537D01*
X386533Y517444D01*
X386977Y517333D01*
X387403Y517185D01*
X387421D01*
X387459Y517166D01*
X387514Y517148D01*
X387588Y517111D01*
X387792Y517000D01*
X388051Y516870D01*
X388329Y516685D01*
X388625Y516463D01*
X388903Y516222D01*
X389162Y515926D01*
X389199Y515889D01*
X389273Y515778D01*
X389384Y515611D01*
X389532Y515370D01*
X389681Y515074D01*
X389847Y514704D01*
X390014Y514296D01*
X390144Y513834D01*
X388607Y513426D01*
Y513445D01*
X388588Y513463D01*
X388570Y513519D01*
X388551Y513593D01*
X388495Y513759D01*
X388421Y513982D01*
X388310Y514241D01*
X388181Y514482D01*
X388051Y514741D01*
X387884Y514963D01*
X387866Y514981D01*
X387810Y515056D01*
X387699Y515148D01*
X387570Y515278D01*
X387403Y515426D01*
X387181Y515574D01*
X386940Y515722D01*
X386662Y515852D01*
X386625Y515870D01*
X386533Y515907D01*
X386366Y515963D01*
X386144Y516037D01*
X385885Y516092D01*
X385588Y516148D01*
X385255Y516185D01*
X384903Y516204D01*
X384700D01*
X384607Y516185D01*
X384496D01*
X384218Y516167D01*
X383903Y516111D01*
X383552Y516055D01*
X383218Y515963D01*
X382885Y515833D01*
X382848Y515815D01*
X382737Y515778D01*
X382589Y515685D01*
X382403Y515592D01*
X382181Y515444D01*
X381941Y515296D01*
X381718Y515111D01*
X381515Y514907D01*
X381496Y514889D01*
X381422Y514815D01*
X381330Y514685D01*
X381218Y514537D01*
X381089Y514352D01*
X380959Y514130D01*
X380830Y513889D01*
X380700Y513630D01*
Y513611D01*
X380681Y513574D01*
X380663Y513519D01*
X380626Y513426D01*
X380589Y513315D01*
X380552Y513185D01*
X380496Y513037D01*
X380459Y512871D01*
X380367Y512482D01*
X380293Y512037D01*
X380237Y511574D01*
X380219Y511056D01*
Y511037D01*
Y510982D01*
Y510889D01*
X380237Y510778D01*
Y510630D01*
X380256Y510445D01*
X380274Y510260D01*
X380293Y510056D01*
X380367Y509593D01*
X380459Y509112D01*
X380607Y508630D01*
X380793Y508167D01*
Y508149D01*
X380830Y508112D01*
X380848Y508056D01*
X380904Y507982D01*
X381033Y507779D01*
X381237Y507519D01*
X381478Y507242D01*
X381774Y506964D01*
X382126Y506705D01*
X382515Y506464D01*
X382533D01*
X382570Y506445D01*
X382626Y506408D01*
X382718Y506371D01*
X382811Y506334D01*
X382940Y506297D01*
X383237Y506186D01*
X383607Y506093D01*
X384015Y506001D01*
X384459Y505927D01*
X384922Y505908D01*
X385107D01*
X385218Y505927D01*
X385329D01*
X385607Y505964D01*
X385940Y506001D01*
X386292Y506075D01*
X386681Y506186D01*
X387070Y506316D01*
X387088D01*
X387125Y506334D01*
X387162Y506353D01*
X387236Y506390D01*
X387440Y506482D01*
X387662Y506594D01*
X387921Y506723D01*
X388199Y506871D01*
X388459Y507038D01*
X388681Y507223D01*
Y509630D01*
X384903D01*
Y511149D01*
X390347D01*
Y506390D01*
X390329Y506371D01*
X390292Y506353D01*
X390218Y506297D01*
X390125Y506223D01*
X390014Y506149D01*
X389884Y506057D01*
X389718Y505945D01*
X389551Y505834D01*
X389162Y505594D01*
X388718Y505334D01*
X388255Y505094D01*
X387755Y504890D01*
X387736D01*
X387699Y504871D01*
X387625Y504853D01*
X387533Y504816D01*
X387403Y504779D01*
X387255Y504723D01*
X387088Y504686D01*
X386922Y504649D01*
X386514Y504557D01*
X386051Y504464D01*
X385551Y504408D01*
X385033Y504390D01*
X384848D01*
X384718Y504408D01*
X384552D01*
X384348Y504427D01*
X384126Y504464D01*
X383885Y504483D01*
X383348Y504594D01*
X382774Y504723D01*
X382181Y504927D01*
X381885Y505038D01*
X381589Y505186D01*
X381570Y505205D01*
X381515Y505223D01*
X381441Y505279D01*
X381330Y505334D01*
X381200Y505427D01*
X381070Y505519D01*
X380718Y505779D01*
X380348Y506112D01*
X379959Y506519D01*
X379589Y506982D01*
X379256Y507519D01*
Y507538D01*
X379219Y507593D01*
X379182Y507667D01*
X379126Y507797D01*
X379071Y507927D01*
X379015Y508112D01*
X378941Y508297D01*
X378867Y508519D01*
X378793Y508760D01*
X378719Y509038D01*
X378663Y509315D01*
X378608Y509612D01*
X378515Y510260D01*
X378478Y510945D01*
Y510963D01*
Y511037D01*
Y511130D01*
X378497Y511260D01*
Y511426D01*
X378515Y511630D01*
X378552Y511834D01*
X378571Y512074D01*
X378626Y512334D01*
X378663Y512611D01*
X378811Y513204D01*
X378997Y513815D01*
X379256Y514426D01*
X379274Y514445D01*
X379293Y514500D01*
X379330Y514574D01*
X379404Y514685D01*
X379478Y514833D01*
X379571Y514981D01*
X379830Y515333D01*
X380145Y515741D01*
X380533Y516129D01*
X380978Y516518D01*
X381237Y516685D01*
X381496Y516852D01*
X381515Y516870D01*
X381570Y516889D01*
X381644Y516926D01*
X381755Y516981D01*
X381904Y517037D01*
X382070Y517111D01*
X382255Y517185D01*
X382478Y517259D01*
X382718Y517333D01*
X382977Y517389D01*
X383255Y517463D01*
X383552Y517518D01*
X384200Y517611D01*
X384533Y517648D01*
X385126D01*
X385237Y517629D01*
D02*
G37*
G36*
X284286Y595576D02*
X282360D01*
X280861Y599464D01*
X275491D01*
X274102Y595576D01*
X272306D01*
X277194Y608390D01*
X279046D01*
X284286Y595576D01*
D02*
G37*
G36*
X766030Y339251D02*
X764831D01*
Y346878D01*
X764817Y346863D01*
X764747Y346807D01*
X764662Y346722D01*
X764521Y346624D01*
X764366Y346497D01*
X764169Y346356D01*
X763943Y346201D01*
X763690Y346046D01*
X763676D01*
X763661Y346032D01*
X763577Y345975D01*
X763436Y345905D01*
X763267Y345820D01*
X763069Y345722D01*
X762858Y345623D01*
X762646Y345524D01*
X762435Y345440D01*
Y346595D01*
X762449D01*
X762477Y346624D01*
X762534Y346638D01*
X762604Y346680D01*
X762689Y346722D01*
X762787Y346779D01*
X763027Y346920D01*
X763309Y347075D01*
X763591Y347272D01*
X763887Y347498D01*
X764183Y347737D01*
X764197Y347752D01*
X764211Y347766D01*
X764253Y347808D01*
X764310Y347850D01*
X764437Y347991D01*
X764606Y348160D01*
X764775Y348358D01*
X764958Y348583D01*
X765113Y348809D01*
X765254Y349048D01*
X766030D01*
Y339251D01*
D02*
G37*
G36*
X882232Y353241D02*
X878327D01*
X877806Y350604D01*
X877820Y350619D01*
X877848Y350633D01*
X877890Y350661D01*
X877961Y350703D01*
X878046Y350745D01*
X878144Y350802D01*
X878370Y350914D01*
X878652Y351027D01*
X878962Y351126D01*
X879300Y351197D01*
X879469Y351225D01*
X879779D01*
X879864Y351211D01*
X879977Y351197D01*
X880104Y351182D01*
X880245Y351154D01*
X880400Y351112D01*
X880738Y351013D01*
X880921Y350943D01*
X881105Y350844D01*
X881288Y350745D01*
X881471Y350633D01*
X881640Y350492D01*
X881809Y350337D01*
X881824Y350322D01*
X881852Y350294D01*
X881894Y350252D01*
X881950Y350182D01*
X882021Y350083D01*
X882091Y349984D01*
X882176Y349857D01*
X882261Y349716D01*
X882331Y349561D01*
X882416Y349392D01*
X882486Y349195D01*
X882557Y348997D01*
X882613Y348786D01*
X882655Y348546D01*
X882683Y348307D01*
X882698Y348053D01*
Y348039D01*
Y347996D01*
Y347926D01*
X882683Y347827D01*
X882669Y347715D01*
X882655Y347588D01*
X882627Y347433D01*
X882599Y347277D01*
X882514Y346911D01*
X882373Y346530D01*
X882289Y346333D01*
X882176Y346150D01*
X882063Y345952D01*
X881922Y345769D01*
X881908Y345755D01*
X881880Y345713D01*
X881824Y345656D01*
X881753Y345586D01*
X881654Y345501D01*
X881542Y345388D01*
X881401Y345290D01*
X881245Y345177D01*
X881076Y345064D01*
X880879Y344966D01*
X880668Y344867D01*
X880442Y344768D01*
X880202Y344698D01*
X879934Y344641D01*
X879653Y344599D01*
X879357Y344585D01*
X879230D01*
X879131Y344599D01*
X879018Y344613D01*
X878891Y344627D01*
X878736Y344641D01*
X878581Y344684D01*
X878229Y344768D01*
X877876Y344895D01*
X877693Y344980D01*
X877510Y345078D01*
X877341Y345191D01*
X877171Y345318D01*
X877157Y345332D01*
X877129Y345346D01*
X877101Y345403D01*
X877045Y345459D01*
X876974Y345530D01*
X876904Y345614D01*
X876819Y345727D01*
X876749Y345854D01*
X876664Y345981D01*
X876579Y346136D01*
X876424Y346474D01*
X876298Y346869D01*
X876255Y347080D01*
X876227Y347306D01*
X877482Y347404D01*
Y347390D01*
Y347362D01*
X877496Y347320D01*
X877510Y347249D01*
X877552Y347094D01*
X877608Y346883D01*
X877693Y346671D01*
X877806Y346432D01*
X877947Y346220D01*
X878116Y346023D01*
X878144Y346009D01*
X878201Y345952D01*
X878313Y345882D01*
X878468Y345797D01*
X878638Y345713D01*
X878849Y345642D01*
X879089Y345586D01*
X879357Y345572D01*
X879441D01*
X879498Y345586D01*
X879667Y345600D01*
X879864Y345656D01*
X880104Y345727D01*
X880343Y345840D01*
X880597Y346009D01*
X880710Y346107D01*
X880823Y346220D01*
X880837Y346234D01*
X880851Y346248D01*
X880879Y346291D01*
X880921Y346333D01*
X881020Y346488D01*
X881133Y346685D01*
X881231Y346925D01*
X881330Y347221D01*
X881401Y347574D01*
X881429Y347757D01*
Y347954D01*
Y347968D01*
Y347996D01*
Y348053D01*
X881415Y348123D01*
Y348208D01*
X881401Y348307D01*
X881358Y348532D01*
X881288Y348800D01*
X881189Y349068D01*
X881048Y349322D01*
X880851Y349561D01*
Y349575D01*
X880823Y349589D01*
X880752Y349660D01*
X880625Y349759D01*
X880456Y349871D01*
X880230Y349970D01*
X879977Y350069D01*
X879681Y350139D01*
X879512Y350167D01*
X879244D01*
X879131Y350153D01*
X878990Y350139D01*
X878821Y350097D01*
X878652Y350055D01*
X878468Y349984D01*
X878285Y349900D01*
X878271Y349885D01*
X878215Y349857D01*
X878130Y349787D01*
X878017Y349716D01*
X877905Y349618D01*
X877792Y349491D01*
X877665Y349364D01*
X877566Y349209D01*
X876439Y349364D01*
X877383Y354382D01*
X882232D01*
Y353241D01*
D02*
G37*
G36*
X826508Y236046D02*
X826621D01*
X826889Y236018D01*
X827185Y235976D01*
X827495Y235905D01*
X827833Y235821D01*
X828158Y235708D01*
X828172D01*
X828200Y235694D01*
X828242Y235680D01*
X828299Y235652D01*
X828454Y235567D01*
X828651Y235468D01*
X828863Y235327D01*
X829088Y235158D01*
X829300Y234975D01*
X829497Y234749D01*
X829525Y234721D01*
X829582Y234637D01*
X829666Y234510D01*
X829779Y234326D01*
X829892Y234101D01*
X830019Y233819D01*
X830145Y233509D01*
X830244Y233157D01*
X829074Y232846D01*
Y232860D01*
X829060Y232875D01*
X829046Y232917D01*
X829032Y232973D01*
X828989Y233100D01*
X828933Y233269D01*
X828848Y233467D01*
X828750Y233650D01*
X828651Y233847D01*
X828524Y234016D01*
X828510Y234030D01*
X828468Y234087D01*
X828383Y234157D01*
X828285Y234256D01*
X828158Y234369D01*
X827989Y234482D01*
X827805Y234594D01*
X827594Y234693D01*
X827566Y234707D01*
X827495Y234735D01*
X827368Y234778D01*
X827199Y234834D01*
X827002Y234876D01*
X826776Y234919D01*
X826523Y234947D01*
X826255Y234961D01*
X826100D01*
X826029Y234947D01*
X825945D01*
X825733Y234933D01*
X825493Y234890D01*
X825226Y234848D01*
X824972Y234778D01*
X824718Y234679D01*
X824690Y234665D01*
X824605Y234637D01*
X824492Y234566D01*
X824352Y234496D01*
X824182Y234383D01*
X823999Y234270D01*
X823830Y234129D01*
X823675Y233974D01*
X823661Y233960D01*
X823604Y233904D01*
X823534Y233805D01*
X823449Y233692D01*
X823351Y233551D01*
X823252Y233382D01*
X823153Y233199D01*
X823055Y233001D01*
Y232987D01*
X823040Y232959D01*
X823026Y232917D01*
X822998Y232846D01*
X822970Y232762D01*
X822942Y232663D01*
X822900Y232550D01*
X822871Y232423D01*
X822801Y232127D01*
X822745Y231789D01*
X822702Y231437D01*
X822688Y231042D01*
Y231028D01*
Y230986D01*
Y230915D01*
X822702Y230830D01*
Y230718D01*
X822716Y230577D01*
X822730Y230436D01*
X822745Y230281D01*
X822801Y229928D01*
X822871Y229562D01*
X822984Y229195D01*
X823125Y228843D01*
Y228829D01*
X823153Y228801D01*
X823167Y228758D01*
X823210Y228702D01*
X823308Y228547D01*
X823464Y228349D01*
X823647Y228138D01*
X823872Y227927D01*
X824140Y227729D01*
X824436Y227546D01*
X824450D01*
X824478Y227532D01*
X824521Y227504D01*
X824591Y227475D01*
X824662Y227447D01*
X824760Y227419D01*
X824986Y227334D01*
X825268Y227264D01*
X825578Y227193D01*
X825916Y227137D01*
X826269Y227123D01*
X826410D01*
X826494Y227137D01*
X826579D01*
X826790Y227165D01*
X827044Y227193D01*
X827312Y227250D01*
X827608Y227334D01*
X827904Y227433D01*
X827918D01*
X827946Y227447D01*
X827974Y227461D01*
X828031Y227489D01*
X828186Y227560D01*
X828355Y227645D01*
X828552Y227743D01*
X828764Y227856D01*
X828961Y227983D01*
X829130Y228124D01*
Y229956D01*
X826255D01*
Y231112D01*
X830399D01*
Y227489D01*
X830385Y227475D01*
X830357Y227461D01*
X830301Y227419D01*
X830230Y227363D01*
X830145Y227306D01*
X830047Y227236D01*
X829920Y227151D01*
X829793Y227067D01*
X829497Y226883D01*
X829159Y226686D01*
X828806Y226503D01*
X828426Y226348D01*
X828411D01*
X828383Y226334D01*
X828327Y226319D01*
X828256Y226291D01*
X828158Y226263D01*
X828045Y226221D01*
X827918Y226192D01*
X827791Y226164D01*
X827481Y226094D01*
X827129Y226023D01*
X826748Y225981D01*
X826353Y225967D01*
X826212D01*
X826114Y225981D01*
X825987D01*
X825832Y225995D01*
X825663Y226023D01*
X825479Y226038D01*
X825070Y226122D01*
X824633Y226221D01*
X824182Y226376D01*
X823957Y226460D01*
X823731Y226573D01*
X823717Y226587D01*
X823675Y226601D01*
X823618Y226644D01*
X823534Y226686D01*
X823435Y226756D01*
X823337Y226827D01*
X823069Y227024D01*
X822787Y227278D01*
X822491Y227588D01*
X822209Y227941D01*
X821955Y228349D01*
Y228363D01*
X821927Y228406D01*
X821899Y228462D01*
X821856Y228561D01*
X821814Y228659D01*
X821772Y228801D01*
X821715Y228941D01*
X821659Y229111D01*
X821603Y229294D01*
X821546Y229505D01*
X821504Y229717D01*
X821462Y229942D01*
X821391Y230436D01*
X821363Y230957D01*
Y230971D01*
Y231028D01*
Y231098D01*
X821377Y231197D01*
Y231324D01*
X821391Y231479D01*
X821419Y231634D01*
X821433Y231817D01*
X821476Y232015D01*
X821504Y232226D01*
X821617Y232677D01*
X821758Y233142D01*
X821955Y233608D01*
X821969Y233622D01*
X821983Y233664D01*
X822011Y233720D01*
X822068Y233805D01*
X822124Y233918D01*
X822195Y234030D01*
X822392Y234298D01*
X822632Y234608D01*
X822928Y234904D01*
X823266Y235201D01*
X823464Y235327D01*
X823661Y235454D01*
X823675Y235468D01*
X823717Y235483D01*
X823774Y235511D01*
X823858Y235553D01*
X823971Y235595D01*
X824098Y235652D01*
X824239Y235708D01*
X824408Y235764D01*
X824591Y235821D01*
X824789Y235863D01*
X825000Y235919D01*
X825226Y235962D01*
X825719Y236032D01*
X825973Y236060D01*
X826424D01*
X826508Y236046D01*
D02*
G37*
G36*
X780889Y681959D02*
X779690D01*
Y689585D01*
X779676Y689571D01*
X779606Y689515D01*
X779521Y689430D01*
X779380Y689332D01*
X779225Y689205D01*
X779028Y689064D01*
X778802Y688909D01*
X778549Y688754D01*
X778534D01*
X778520Y688740D01*
X778436Y688683D01*
X778295Y688613D01*
X778126Y688528D01*
X777928Y688429D01*
X777717Y688331D01*
X777505Y688232D01*
X777294Y688148D01*
Y689304D01*
X777308D01*
X777336Y689332D01*
X777393Y689346D01*
X777463Y689388D01*
X777548Y689430D01*
X777646Y689487D01*
X777886Y689628D01*
X778168Y689783D01*
X778450Y689980D01*
X778746Y690206D01*
X779042Y690445D01*
X779056Y690460D01*
X779070Y690474D01*
X779112Y690516D01*
X779169Y690558D01*
X779296Y690699D01*
X779465Y690868D01*
X779634Y691066D01*
X779817Y691291D01*
X779972Y691517D01*
X780113Y691756D01*
X780889D01*
Y681959D01*
D02*
G37*
G36*
X1161889D02*
X1160691D01*
Y689585D01*
X1160676Y689571D01*
X1160606Y689515D01*
X1160521Y689430D01*
X1160380Y689332D01*
X1160225Y689205D01*
X1160028Y689064D01*
X1159802Y688909D01*
X1159549Y688754D01*
X1159535D01*
X1159520Y688740D01*
X1159436Y688683D01*
X1159295Y688613D01*
X1159126Y688528D01*
X1158928Y688429D01*
X1158717Y688331D01*
X1158505Y688232D01*
X1158294Y688148D01*
Y689304D01*
X1158308D01*
X1158336Y689332D01*
X1158393Y689346D01*
X1158463Y689388D01*
X1158548Y689430D01*
X1158646Y689487D01*
X1158886Y689628D01*
X1159168Y689783D01*
X1159450Y689980D01*
X1159746Y690206D01*
X1160042Y690445D01*
X1160056Y690460D01*
X1160070Y690474D01*
X1160113Y690516D01*
X1160169Y690558D01*
X1160296Y690699D01*
X1160465Y690868D01*
X1160634Y691066D01*
X1160817Y691291D01*
X1160972Y691517D01*
X1161113Y691756D01*
X1161889D01*
Y681959D01*
D02*
G37*
G36*
X1262981Y333132D02*
X1261783D01*
Y340759D01*
X1261768Y340744D01*
X1261698Y340688D01*
X1261613Y340603D01*
X1261472Y340505D01*
X1261317Y340378D01*
X1261120Y340237D01*
X1260894Y340082D01*
X1260641Y339927D01*
X1260627D01*
X1260612Y339913D01*
X1260528Y339856D01*
X1260387Y339786D01*
X1260218Y339701D01*
X1260020Y339603D01*
X1259809Y339504D01*
X1259597Y339405D01*
X1259386Y339321D01*
Y340476D01*
X1259400D01*
X1259428Y340505D01*
X1259485Y340519D01*
X1259555Y340561D01*
X1259640Y340603D01*
X1259738Y340660D01*
X1259978Y340801D01*
X1260260Y340956D01*
X1260542Y341153D01*
X1260838Y341379D01*
X1261134Y341618D01*
X1261148Y341632D01*
X1261162Y341647D01*
X1261205Y341689D01*
X1261261Y341731D01*
X1261388Y341872D01*
X1261557Y342041D01*
X1261726Y342239D01*
X1261909Y342464D01*
X1262064Y342690D01*
X1262205Y342929D01*
X1262981D01*
Y333132D01*
D02*
G37*
G36*
X1154139Y346614D02*
X1150235D01*
X1149713Y343977D01*
X1149727Y343992D01*
X1149755Y344006D01*
X1149797Y344034D01*
X1149868Y344076D01*
X1149952Y344118D01*
X1150051Y344175D01*
X1150277Y344288D01*
X1150559Y344400D01*
X1150869Y344499D01*
X1151207Y344570D01*
X1151376Y344598D01*
X1151686D01*
X1151771Y344584D01*
X1151884Y344570D01*
X1152011Y344555D01*
X1152152Y344527D01*
X1152307Y344485D01*
X1152645Y344386D01*
X1152828Y344316D01*
X1153012Y344217D01*
X1153195Y344118D01*
X1153378Y344006D01*
X1153547Y343865D01*
X1153716Y343710D01*
X1153730Y343695D01*
X1153759Y343667D01*
X1153801Y343625D01*
X1153857Y343554D01*
X1153928Y343456D01*
X1153998Y343357D01*
X1154083Y343230D01*
X1154167Y343089D01*
X1154238Y342934D01*
X1154323Y342765D01*
X1154393Y342568D01*
X1154464Y342370D01*
X1154520Y342159D01*
X1154562Y341919D01*
X1154590Y341680D01*
X1154604Y341426D01*
Y341412D01*
Y341370D01*
Y341299D01*
X1154590Y341200D01*
X1154576Y341087D01*
X1154562Y340961D01*
X1154534Y340806D01*
X1154506Y340650D01*
X1154421Y340284D01*
X1154280Y339903D01*
X1154196Y339706D01*
X1154083Y339523D01*
X1153970Y339325D01*
X1153829Y339142D01*
X1153815Y339128D01*
X1153787Y339086D01*
X1153730Y339029D01*
X1153660Y338959D01*
X1153561Y338874D01*
X1153449Y338761D01*
X1153308Y338663D01*
X1153152Y338550D01*
X1152983Y338437D01*
X1152786Y338339D01*
X1152575Y338240D01*
X1152349Y338141D01*
X1152109Y338071D01*
X1151842Y338014D01*
X1151560Y337972D01*
X1151264Y337958D01*
X1151137D01*
X1151038Y337972D01*
X1150925Y337986D01*
X1150798Y338000D01*
X1150643Y338014D01*
X1150488Y338057D01*
X1150136Y338141D01*
X1149783Y338268D01*
X1149600Y338353D01*
X1149417Y338451D01*
X1149248Y338564D01*
X1149079Y338691D01*
X1149064Y338705D01*
X1149036Y338719D01*
X1149008Y338776D01*
X1148952Y338832D01*
X1148881Y338903D01*
X1148811Y338987D01*
X1148726Y339100D01*
X1148656Y339227D01*
X1148571Y339354D01*
X1148486Y339509D01*
X1148331Y339847D01*
X1148204Y340242D01*
X1148162Y340453D01*
X1148134Y340679D01*
X1149389Y340777D01*
Y340763D01*
Y340735D01*
X1149403Y340693D01*
X1149417Y340622D01*
X1149459Y340467D01*
X1149516Y340256D01*
X1149600Y340044D01*
X1149713Y339805D01*
X1149854Y339593D01*
X1150023Y339396D01*
X1150051Y339382D01*
X1150108Y339325D01*
X1150220Y339255D01*
X1150375Y339170D01*
X1150545Y339086D01*
X1150756Y339015D01*
X1150996Y338959D01*
X1151264Y338945D01*
X1151348D01*
X1151404Y338959D01*
X1151574Y338973D01*
X1151771Y339029D01*
X1152011Y339100D01*
X1152250Y339213D01*
X1152504Y339382D01*
X1152617Y339481D01*
X1152730Y339593D01*
X1152744Y339607D01*
X1152758Y339621D01*
X1152786Y339664D01*
X1152828Y339706D01*
X1152927Y339861D01*
X1153040Y340059D01*
X1153138Y340298D01*
X1153237Y340594D01*
X1153308Y340947D01*
X1153336Y341130D01*
Y341327D01*
Y341341D01*
Y341370D01*
Y341426D01*
X1153322Y341496D01*
Y341581D01*
X1153308Y341680D01*
X1153265Y341905D01*
X1153195Y342173D01*
X1153096Y342441D01*
X1152955Y342695D01*
X1152758Y342934D01*
Y342948D01*
X1152730Y342962D01*
X1152659Y343033D01*
X1152532Y343132D01*
X1152363Y343244D01*
X1152138Y343343D01*
X1151884Y343442D01*
X1151588Y343512D01*
X1151419Y343540D01*
X1151151D01*
X1151038Y343526D01*
X1150897Y343512D01*
X1150728Y343470D01*
X1150559Y343428D01*
X1150375Y343357D01*
X1150192Y343273D01*
X1150178Y343259D01*
X1150122Y343230D01*
X1150037Y343160D01*
X1149924Y343089D01*
X1149811Y342991D01*
X1149699Y342864D01*
X1149572Y342737D01*
X1149473Y342582D01*
X1148345Y342737D01*
X1149290Y347755D01*
X1154139D01*
Y346614D01*
D02*
G37*
G36*
X1290439Y214941D02*
X1290552D01*
X1290820Y214913D01*
X1291116Y214871D01*
X1291426Y214800D01*
X1291765Y214716D01*
X1292089Y214603D01*
X1292103D01*
X1292131Y214589D01*
X1292173Y214575D01*
X1292230Y214547D01*
X1292385Y214462D01*
X1292582Y214363D01*
X1292794Y214222D01*
X1293019Y214053D01*
X1293231Y213870D01*
X1293428Y213644D01*
X1293456Y213616D01*
X1293513Y213532D01*
X1293597Y213405D01*
X1293710Y213221D01*
X1293823Y212996D01*
X1293950Y212714D01*
X1294076Y212404D01*
X1294175Y212052D01*
X1293005Y211741D01*
Y211755D01*
X1292991Y211770D01*
X1292977Y211812D01*
X1292963Y211868D01*
X1292921Y211995D01*
X1292864Y212164D01*
X1292780Y212362D01*
X1292681Y212545D01*
X1292582Y212742D01*
X1292455Y212911D01*
X1292441Y212925D01*
X1292399Y212982D01*
X1292314Y213052D01*
X1292216Y213151D01*
X1292089Y213264D01*
X1291920Y213377D01*
X1291736Y213489D01*
X1291525Y213588D01*
X1291497Y213602D01*
X1291426Y213630D01*
X1291299Y213673D01*
X1291130Y213729D01*
X1290933Y213771D01*
X1290707Y213814D01*
X1290453Y213842D01*
X1290186Y213856D01*
X1290031D01*
X1289960Y213842D01*
X1289875D01*
X1289664Y213828D01*
X1289424Y213785D01*
X1289157Y213743D01*
X1288903Y213673D01*
X1288649Y213574D01*
X1288621Y213560D01*
X1288536Y213532D01*
X1288423Y213461D01*
X1288283Y213391D01*
X1288113Y213278D01*
X1287930Y213165D01*
X1287761Y213024D01*
X1287606Y212869D01*
X1287592Y212855D01*
X1287535Y212799D01*
X1287465Y212700D01*
X1287380Y212587D01*
X1287282Y212446D01*
X1287183Y212277D01*
X1287084Y212094D01*
X1286986Y211896D01*
Y211882D01*
X1286971Y211854D01*
X1286957Y211812D01*
X1286929Y211741D01*
X1286901Y211657D01*
X1286873Y211558D01*
X1286831Y211445D01*
X1286802Y211318D01*
X1286732Y211022D01*
X1286676Y210684D01*
X1286633Y210332D01*
X1286619Y209937D01*
Y209923D01*
Y209881D01*
Y209810D01*
X1286633Y209725D01*
Y209613D01*
X1286647Y209472D01*
X1286661Y209331D01*
X1286676Y209176D01*
X1286732Y208823D01*
X1286802Y208457D01*
X1286915Y208090D01*
X1287056Y207738D01*
Y207724D01*
X1287084Y207696D01*
X1287098Y207653D01*
X1287141Y207597D01*
X1287239Y207442D01*
X1287395Y207244D01*
X1287578Y207033D01*
X1287803Y206821D01*
X1288071Y206624D01*
X1288367Y206441D01*
X1288381D01*
X1288409Y206427D01*
X1288452Y206399D01*
X1288522Y206370D01*
X1288593Y206342D01*
X1288691Y206314D01*
X1288917Y206229D01*
X1289199Y206159D01*
X1289509Y206088D01*
X1289847Y206032D01*
X1290200Y206018D01*
X1290341D01*
X1290425Y206032D01*
X1290510D01*
X1290721Y206060D01*
X1290975Y206088D01*
X1291243Y206145D01*
X1291539Y206229D01*
X1291835Y206328D01*
X1291849D01*
X1291877Y206342D01*
X1291906Y206356D01*
X1291962Y206385D01*
X1292117Y206455D01*
X1292286Y206539D01*
X1292484Y206638D01*
X1292695Y206751D01*
X1292892Y206878D01*
X1293061Y207019D01*
Y208851D01*
X1290186D01*
Y210007D01*
X1294330D01*
Y206385D01*
X1294316Y206370D01*
X1294288Y206356D01*
X1294232Y206314D01*
X1294161Y206258D01*
X1294076Y206201D01*
X1293978Y206131D01*
X1293851Y206046D01*
X1293724Y205962D01*
X1293428Y205778D01*
X1293090Y205581D01*
X1292737Y205398D01*
X1292357Y205243D01*
X1292343D01*
X1292314Y205229D01*
X1292258Y205214D01*
X1292187Y205186D01*
X1292089Y205158D01*
X1291976Y205116D01*
X1291849Y205088D01*
X1291722Y205059D01*
X1291412Y204989D01*
X1291060Y204918D01*
X1290679Y204876D01*
X1290284Y204862D01*
X1290143D01*
X1290045Y204876D01*
X1289918D01*
X1289763Y204890D01*
X1289594Y204918D01*
X1289410Y204932D01*
X1289001Y205017D01*
X1288564Y205116D01*
X1288113Y205271D01*
X1287888Y205355D01*
X1287662Y205468D01*
X1287648Y205482D01*
X1287606Y205496D01*
X1287549Y205539D01*
X1287465Y205581D01*
X1287366Y205651D01*
X1287268Y205722D01*
X1287000Y205919D01*
X1286718Y206173D01*
X1286422Y206483D01*
X1286140Y206836D01*
X1285886Y207244D01*
Y207258D01*
X1285858Y207301D01*
X1285830Y207357D01*
X1285787Y207456D01*
X1285745Y207554D01*
X1285703Y207696D01*
X1285646Y207836D01*
X1285590Y208006D01*
X1285534Y208189D01*
X1285477Y208400D01*
X1285435Y208612D01*
X1285393Y208837D01*
X1285322Y209331D01*
X1285294Y209852D01*
Y209866D01*
Y209923D01*
Y209993D01*
X1285308Y210092D01*
Y210219D01*
X1285322Y210374D01*
X1285350Y210529D01*
X1285365Y210712D01*
X1285407Y210910D01*
X1285435Y211121D01*
X1285548Y211572D01*
X1285689Y212037D01*
X1285886Y212503D01*
X1285900Y212517D01*
X1285914Y212559D01*
X1285943Y212615D01*
X1285999Y212700D01*
X1286055Y212813D01*
X1286126Y212925D01*
X1286323Y213193D01*
X1286563Y213503D01*
X1286859Y213799D01*
X1287197Y214095D01*
X1287395Y214222D01*
X1287592Y214349D01*
X1287606Y214363D01*
X1287648Y214377D01*
X1287705Y214406D01*
X1287789Y214448D01*
X1287902Y214490D01*
X1288029Y214547D01*
X1288170Y214603D01*
X1288339Y214659D01*
X1288522Y214716D01*
X1288720Y214758D01*
X1288931Y214814D01*
X1289157Y214857D01*
X1289650Y214927D01*
X1289904Y214956D01*
X1290355D01*
X1290439Y214941D01*
D02*
G37*
%LPC*%
G36*
X231326Y576195D02*
X228290D01*
Y572344D01*
X231437D01*
X231678Y572362D01*
X231937Y572381D01*
X232197Y572399D01*
X232456Y572436D01*
X232659Y572473D01*
X232696Y572492D01*
X232771Y572510D01*
X232882Y572566D01*
X233030Y572640D01*
X233178Y572714D01*
X233345Y572825D01*
X233511Y572973D01*
X233641Y573121D01*
X233659Y573140D01*
X233696Y573195D01*
X233752Y573307D01*
X233808Y573436D01*
X233863Y573584D01*
X233919Y573769D01*
X233956Y573992D01*
X233974Y574232D01*
Y574269D01*
Y574343D01*
X233956Y574455D01*
X233937Y574603D01*
X233900Y574788D01*
X233845Y574973D01*
X233770Y575158D01*
X233659Y575343D01*
X233641Y575362D01*
X233604Y575417D01*
X233530Y575510D01*
X233437Y575603D01*
X233307Y575714D01*
X233159Y575825D01*
X232974Y575936D01*
X232771Y576010D01*
X232752D01*
X232659Y576047D01*
X232530Y576065D01*
X232326Y576102D01*
X232048Y576140D01*
X231734Y576158D01*
X231326Y576195D01*
D02*
G37*
G36*
X231660Y570825D02*
X228290D01*
Y566418D01*
X231937D01*
X232326Y566437D01*
X232493Y566455D01*
X232641Y566474D01*
X232659D01*
X232733Y566492D01*
X232845Y566511D01*
X232974Y566548D01*
X233289Y566659D01*
X233604Y566807D01*
X233622Y566826D01*
X233678Y566863D01*
X233752Y566918D01*
X233845Y566992D01*
X233937Y567104D01*
X234067Y567215D01*
X234159Y567363D01*
X234270Y567529D01*
X234289Y567548D01*
X234307Y567603D01*
X234345Y567715D01*
X234400Y567844D01*
X234456Y567992D01*
X234493Y568177D01*
X234511Y568400D01*
X234530Y568622D01*
Y568659D01*
Y568733D01*
X234511Y568881D01*
X234474Y569048D01*
X234437Y569233D01*
X234363Y569437D01*
X234270Y569640D01*
X234141Y569844D01*
X234122Y569862D01*
X234067Y569936D01*
X233993Y570029D01*
X233881Y570140D01*
X233733Y570270D01*
X233548Y570399D01*
X233345Y570510D01*
X233104Y570603D01*
X233067Y570622D01*
X232993Y570640D01*
X232826Y570677D01*
X232622Y570714D01*
X232363Y570751D01*
X232048Y570788D01*
X231660Y570825D01*
D02*
G37*
G36*
X239126Y465393D02*
X236164D01*
Y455616D01*
X239200D01*
X239330Y455635D01*
X239608Y455653D01*
X239922Y455672D01*
X240256Y455709D01*
X240589Y455765D01*
X240867Y455839D01*
X240904Y455857D01*
X240996Y455876D01*
X241126Y455931D01*
X241293Y456005D01*
X241478Y456116D01*
X241663Y456227D01*
X241848Y456357D01*
X242033Y456505D01*
X242052Y456542D01*
X242126Y456616D01*
X242237Y456746D01*
X242367Y456931D01*
X242515Y457172D01*
X242681Y457449D01*
X242829Y457764D01*
X242959Y458116D01*
Y458135D01*
X242978Y458172D01*
X242996Y458227D01*
X243015Y458301D01*
X243033Y458394D01*
X243070Y458523D01*
X243107Y458653D01*
X243144Y458801D01*
X243200Y459171D01*
X243255Y459597D01*
X243292Y460079D01*
X243311Y460597D01*
Y460616D01*
Y460690D01*
Y460783D01*
X243292Y460931D01*
Y461097D01*
X243274Y461282D01*
X243255Y461505D01*
X243237Y461727D01*
X243144Y462227D01*
X243033Y462745D01*
X242866Y463227D01*
X242755Y463467D01*
X242644Y463671D01*
Y463690D01*
X242607Y463727D01*
X242570Y463782D01*
X242533Y463856D01*
X242385Y464041D01*
X242200Y464264D01*
X241959Y464504D01*
X241681Y464745D01*
X241367Y464949D01*
X241033Y465115D01*
X240996Y465134D01*
X240904Y465152D01*
X240737Y465208D01*
X240496Y465263D01*
X240200Y465300D01*
X239830Y465356D01*
X239608Y465375D01*
X239367D01*
X239126Y465393D01*
D02*
G37*
G36*
X278083Y607056D02*
Y607038D01*
X278065Y607001D01*
Y606927D01*
X278028Y606853D01*
X278009Y606723D01*
X277972Y606593D01*
X277898Y606279D01*
X277805Y605908D01*
X277676Y605501D01*
X277546Y605056D01*
X277380Y604594D01*
X275991Y600853D01*
X280324D01*
X278990Y604371D01*
Y604390D01*
X278972Y604445D01*
X278935Y604538D01*
X278898Y604649D01*
X278842Y604779D01*
X278787Y604945D01*
X278731Y605131D01*
X278657Y605316D01*
X278509Y605742D01*
X278361Y606186D01*
X278213Y606630D01*
X278083Y607056D01*
D02*
G37*
%LPD*%
D10*
X879299Y844550D02*
G03*
X879299Y868550I16934J12000D01*
G01*
X1260300Y844550D02*
G03*
X1260300Y868550I16934J12000D01*
G01*
X741771Y844677D02*
G03*
X769002Y844878I13529J11873D01*
G01*
Y868222D02*
G03*
X741771Y868423I-13702J-11672D01*
G01*
X1122771Y844677D02*
G03*
X1150002Y844878I13529J11873D01*
G01*
Y868222D02*
G03*
X1122771Y868423I-13702J-11672D01*
G01*
X700182Y191423D02*
Y456356D01*
Y191423D02*
X950164D01*
Y456356D01*
X700182D02*
X950164D01*
X903635Y839747D02*
X903729Y847953D01*
X879299Y844550D02*
Y847185D01*
Y865916D02*
Y868550D01*
X899579Y843897D02*
X907785Y843803D01*
X951300Y575050D02*
Y881558D01*
X700300D02*
X951300D01*
X700300Y575050D02*
Y881558D01*
Y575050D02*
X951300D01*
X1284635Y839747D02*
X1284729Y847953D01*
X1260300Y844550D02*
Y847185D01*
Y865916D02*
Y868550D01*
X1280579Y843897D02*
X1288785Y843803D01*
X1332300Y575050D02*
Y881558D01*
X1081300D02*
X1332300D01*
X1081300Y575050D02*
Y881558D01*
Y575050D02*
X1332300D01*
X726090Y857566D02*
X731678D01*
X728884Y854264D02*
Y860614D01*
X778668Y857566D02*
X784256D01*
X1107090D02*
X1112678D01*
X1109884Y854264D02*
Y860614D01*
X1159668Y857566D02*
X1165256D01*
X1081300Y191100D02*
Y497449D01*
Y191100D02*
X1331283D01*
Y497449D01*
X1081300D02*
X1331283D01*
X233692Y345899D02*
X367307D01*
X477499Y456091D02*
Y585709D01*
X123500Y456090D02*
Y585708D01*
X233692Y695900D01*
X367306D02*
X477498Y585708D01*
X367307Y345899D02*
X477499Y456091D01*
X123500Y456090D02*
X233692Y345898D01*
Y695900D02*
X367306D01*
M02*
