G04*
G04 #@! TF.GenerationSoftware,Altium Limited,Altium Designer,24.5.2 (23)*
G04*
G04 Layer_Color=16711935*
%FSLAX44Y44*%
%MOMM*%
G71*
G04*
G04 #@! TF.SameCoordinates,44D7EE50-CEF4-4518-91F5-DF1CE1C3C4A8*
G04*
G04*
G04 #@! TF.FilePolarity,Negative*
G04*
G01*
G75*
%ADD11C,2.2032*%
%ADD12C,2.7032*%
%ADD13R,1.5112X1.5112*%
%ADD14C,1.5112*%
%ADD15C,1.6256*%
%ADD16C,0.2032*%
%ADD17C,2.0032*%
%ADD18R,1.8032X1.8032*%
%ADD19C,1.8032*%
%ADD20C,4.6032*%
%ADD21R,2.0032X2.0032*%
%ADD22C,3.0032*%
%ADD56R,1.0090X0.8820*%
%ADD57R,1.0922X0.9652*%
%ADD58R,0.9632X1.8732*%
%ADD59R,1.9812X1.7272*%
%ADD60R,1.1560X1.6640*%
%ADD61R,0.9432X0.4732*%
%ADD62R,1.0432X2.6032*%
%ADD63R,1.6640X1.1560*%
%ADD64R,2.4032X0.8532*%
%ADD65R,1.0232X1.1232*%
D11*
X825300Y248550D02*
D03*
Y286650D02*
D03*
X863400Y343800D02*
D03*
X780850Y337450D02*
D03*
X1288850Y229500D02*
D03*
X1206300Y286650D02*
D03*
X1174550Y305700D02*
D03*
X1238050D02*
D03*
X1244400Y337450D02*
D03*
X1168200Y343800D02*
D03*
D12*
X857050Y305700D02*
D03*
X793550D02*
D03*
D13*
X780850Y702350D02*
D03*
X1161850D02*
D03*
D14*
X793550Y727750D02*
D03*
X806250Y702350D02*
D03*
X818950Y727750D02*
D03*
X831650Y702350D02*
D03*
X844350Y727750D02*
D03*
X857050Y702350D02*
D03*
X869750Y727750D02*
D03*
X1174550D02*
D03*
X1187250Y702350D02*
D03*
X1199950Y727750D02*
D03*
X1212650Y702350D02*
D03*
X1225350Y727750D02*
D03*
X1238050Y702350D02*
D03*
X1250750Y727750D02*
D03*
D15*
X908000Y856550D02*
D03*
X882600D02*
D03*
X1289000D02*
D03*
X1263600D02*
D03*
D16*
X863400Y816650D02*
D03*
X799900Y626150D02*
D03*
X1244400Y816650D02*
D03*
X1180900Y626150D02*
D03*
X246463Y654645D02*
D03*
X372625Y395975D02*
D03*
D17*
X749100Y715050D02*
D03*
X1130100D02*
D03*
X45456Y895245D02*
D03*
X70856Y869845D02*
D03*
Y895245D02*
D03*
X96256Y869845D02*
D03*
Y895245D02*
D03*
X121656Y869845D02*
D03*
Y895245D02*
D03*
X147056Y869845D02*
D03*
X147056Y895245D02*
D03*
X172456Y869845D02*
D03*
X172456Y895245D02*
D03*
X197856Y869845D02*
D03*
Y895245D02*
D03*
X223256Y869845D02*
D03*
Y895245D02*
D03*
X248656Y869845D02*
D03*
Y895245D02*
D03*
X274056Y869845D02*
D03*
X274056Y895245D02*
D03*
X553456D02*
D03*
X553456Y869845D02*
D03*
X528056Y895245D02*
D03*
Y869845D02*
D03*
X502656Y895245D02*
D03*
Y869845D02*
D03*
X477256Y895245D02*
D03*
Y869845D02*
D03*
X451856Y895245D02*
D03*
X451856Y869845D02*
D03*
X426456Y895245D02*
D03*
X426456Y869845D02*
D03*
X401056Y895245D02*
D03*
Y869845D02*
D03*
X375656Y895245D02*
D03*
Y869845D02*
D03*
X350256Y895245D02*
D03*
Y869845D02*
D03*
X324856Y895245D02*
D03*
D18*
X768000Y856550D02*
D03*
X1149000D02*
D03*
D19*
X742600D02*
D03*
X1123600D02*
D03*
D20*
X1351350Y935000D02*
D03*
Y65000D02*
D03*
X101350D02*
D03*
Y785000D02*
D03*
D21*
X45456Y869845D02*
D03*
X324856D02*
D03*
D22*
X292810Y499760D02*
D03*
X322650Y524810D02*
D03*
X286040Y538140D02*
D03*
X339070Y474940D02*
D03*
X359590Y510480D02*
D03*
X352460Y550900D02*
D03*
X321020Y577280D02*
D03*
X300500Y460900D02*
D03*
X261930Y474940D02*
D03*
X241410Y510480D02*
D03*
X248540Y550900D02*
D03*
X279980Y577280D02*
D03*
D56*
X1060730Y707108D02*
D03*
Y722348D02*
D03*
X1009930Y707108D02*
D03*
Y722348D02*
D03*
X1073430Y707108D02*
D03*
Y722348D02*
D03*
X1086130Y707108D02*
D03*
Y722348D02*
D03*
X628930D02*
D03*
Y707108D02*
D03*
X692430D02*
D03*
Y722348D02*
D03*
X679730Y707108D02*
D03*
Y722348D02*
D03*
X705130Y707108D02*
D03*
Y722348D02*
D03*
D57*
X1048030Y751955D02*
D03*
Y736715D02*
D03*
X590830Y706854D02*
D03*
Y722094D02*
D03*
X603530Y706854D02*
D03*
Y722094D02*
D03*
X856288Y642874D02*
D03*
Y658114D02*
D03*
X832412D02*
D03*
Y642874D02*
D03*
X1098830Y751955D02*
D03*
Y736715D02*
D03*
X1213412Y614934D02*
D03*
Y630174D02*
D03*
X1086130Y736715D02*
D03*
Y751955D02*
D03*
X1237288Y630174D02*
D03*
Y614934D02*
D03*
X1253250Y671068D02*
D03*
Y686308D02*
D03*
X1060692Y736715D02*
D03*
Y751955D02*
D03*
X971830Y706854D02*
D03*
Y722094D02*
D03*
X984530Y706854D02*
D03*
Y722094D02*
D03*
X1035330Y707108D02*
D03*
Y722348D02*
D03*
X1197450Y614934D02*
D03*
Y630174D02*
D03*
X1237288Y671068D02*
D03*
Y686308D02*
D03*
X997230Y706854D02*
D03*
Y722094D02*
D03*
X1253250Y614934D02*
D03*
Y630174D02*
D03*
X1022630Y706854D02*
D03*
Y722094D02*
D03*
X1197450Y671068D02*
D03*
Y686308D02*
D03*
X1213412Y642874D02*
D03*
Y658114D02*
D03*
Y671068D02*
D03*
Y686308D02*
D03*
X1237288Y642874D02*
D03*
Y658114D02*
D03*
X667030Y751955D02*
D03*
Y736715D02*
D03*
X654330Y707108D02*
D03*
Y722348D02*
D03*
X641630Y706854D02*
D03*
Y722094D02*
D03*
X616230Y706854D02*
D03*
Y722094D02*
D03*
X679692Y736715D02*
D03*
Y751955D02*
D03*
X705130Y736715D02*
D03*
Y751955D02*
D03*
X717830D02*
D03*
Y736715D02*
D03*
X872250Y614934D02*
D03*
Y630174D02*
D03*
X856288Y671068D02*
D03*
Y686308D02*
D03*
X872250Y671068D02*
D03*
Y686308D02*
D03*
X832412Y614934D02*
D03*
Y630174D02*
D03*
X856288D02*
D03*
Y614934D02*
D03*
X816450Y686308D02*
D03*
X832412D02*
D03*
X816450Y671068D02*
D03*
X832412D02*
D03*
X816450Y614934D02*
D03*
Y630174D02*
D03*
D58*
X997230Y599158D02*
D03*
X1009930Y599158D02*
D03*
X1022630Y599158D02*
D03*
X1035330D02*
D03*
X1048030D02*
D03*
X1060730D02*
D03*
X1073430Y599158D02*
D03*
X1086130Y599158D02*
D03*
Y684458D02*
D03*
X1073430Y684458D02*
D03*
X1060730Y684458D02*
D03*
X1048030D02*
D03*
X1035330D02*
D03*
X1022630D02*
D03*
X1009930Y684458D02*
D03*
X997230Y684458D02*
D03*
X616230Y599158D02*
D03*
X628930Y599158D02*
D03*
X641630Y599158D02*
D03*
X654330D02*
D03*
X667030D02*
D03*
X679730D02*
D03*
X692430Y599158D02*
D03*
X705130Y599158D02*
D03*
Y684458D02*
D03*
X692430Y684458D02*
D03*
X679730Y684458D02*
D03*
X667030D02*
D03*
X654330D02*
D03*
X641630D02*
D03*
X628930Y684458D02*
D03*
X616230Y684458D02*
D03*
D59*
X1273730Y671830D02*
D03*
Y646430D02*
D03*
X892730Y671830D02*
D03*
Y646430D02*
D03*
D60*
X208515Y366406D02*
D03*
X228835Y366406D02*
D03*
D61*
X205931Y385450D02*
D03*
Y390450D02*
D03*
Y395450D02*
D03*
Y400450D02*
D03*
Y405450D02*
D03*
X225831D02*
D03*
X225831Y400450D02*
D03*
X225831Y395450D02*
D03*
Y390450D02*
D03*
Y385450D02*
D03*
D62*
X215881Y395450D02*
D03*
D63*
X181890Y413818D02*
D03*
X181890Y393498D02*
D03*
D64*
X256566Y390472D02*
D03*
Y371472D02*
D03*
D65*
X1228980Y262730D02*
D03*
X1209980D02*
D03*
X1219480Y242730D02*
D03*
X1154050Y262730D02*
D03*
X1135050D02*
D03*
X1144550Y242730D02*
D03*
M02*
