G04*
G04 #@! TF.GenerationSoftware,Altium Limited,Altium Designer,24.5.2 (23)*
G04*
G04 Layer_Color=128*
%FSLAX44Y44*%
%MOMM*%
G71*
G04*
G04 #@! TF.SameCoordinates,DB171CDF-FD1A-43B8-AFCB-F980BC985382*
G04*
G04*
G04 #@! TF.FilePolarity,Positive*
G04*
G01*
G75*
%ADD46R,0.8890X0.7620*%
%ADD47R,1.7780X1.5240*%
%ADD48R,0.8200X0.9200*%
%ADD49R,0.7600X1.6700*%
D46*
X692430Y722348D02*
D03*
Y707108D02*
D03*
X705130Y722348D02*
D03*
Y707108D02*
D03*
X679730Y722348D02*
D03*
Y707108D02*
D03*
X590830Y722094D02*
D03*
Y706854D02*
D03*
X603530Y722094D02*
D03*
Y706854D02*
D03*
X616230Y722094D02*
D03*
Y706854D02*
D03*
X628930Y707108D02*
D03*
Y722348D02*
D03*
X641630Y722094D02*
D03*
Y706854D02*
D03*
X654330Y722348D02*
D03*
Y707108D02*
D03*
X667030Y736715D02*
D03*
Y751955D02*
D03*
X679692D02*
D03*
Y736715D02*
D03*
X705130Y751955D02*
D03*
Y736715D02*
D03*
X717830D02*
D03*
Y751955D02*
D03*
X1022630Y722094D02*
D03*
Y706854D02*
D03*
X1009930Y722348D02*
D03*
Y707108D02*
D03*
X997230Y722094D02*
D03*
Y706854D02*
D03*
X984530Y722094D02*
D03*
Y706854D02*
D03*
X971830Y722094D02*
D03*
Y706854D02*
D03*
X1035330Y722348D02*
D03*
Y707108D02*
D03*
X1060730Y722348D02*
D03*
Y707108D02*
D03*
X1086130Y722348D02*
D03*
Y707108D02*
D03*
X1073430Y722348D02*
D03*
Y707108D02*
D03*
X1048030Y736715D02*
D03*
Y751955D02*
D03*
X1060692D02*
D03*
Y736715D02*
D03*
X1086130Y751955D02*
D03*
Y736715D02*
D03*
X1098830D02*
D03*
Y751955D02*
D03*
X856288Y686308D02*
D03*
Y671068D02*
D03*
X832412D02*
D03*
Y686308D02*
D03*
Y642874D02*
D03*
Y658114D02*
D03*
X1197450Y686308D02*
D03*
Y671068D02*
D03*
X1213412Y686308D02*
D03*
Y671068D02*
D03*
X1237288Y686308D02*
D03*
Y671068D02*
D03*
X1253250Y686308D02*
D03*
Y671068D02*
D03*
X1213412Y658114D02*
D03*
Y642874D02*
D03*
X1237288Y658114D02*
D03*
Y642874D02*
D03*
X1213412Y630174D02*
D03*
Y614934D02*
D03*
X1197450Y630174D02*
D03*
Y614934D02*
D03*
X1237288D02*
D03*
Y630174D02*
D03*
X1253250D02*
D03*
Y614934D02*
D03*
X856288Y658114D02*
D03*
Y642874D02*
D03*
X816450Y671068D02*
D03*
Y686308D02*
D03*
X872250D02*
D03*
Y671068D02*
D03*
Y630174D02*
D03*
Y614934D02*
D03*
X856288D02*
D03*
Y630174D02*
D03*
X832412D02*
D03*
Y614934D02*
D03*
X816450Y630174D02*
D03*
Y614934D02*
D03*
D47*
X1273730Y646430D02*
D03*
Y671830D02*
D03*
X892730Y646430D02*
D03*
Y671830D02*
D03*
D48*
X789940Y238550D02*
D03*
X780440Y258550D02*
D03*
X799440D02*
D03*
X1228370Y242730D02*
D03*
X1218870Y262730D02*
D03*
X1237870D02*
D03*
D49*
X616230Y684458D02*
D03*
X628930Y684458D02*
D03*
X641630Y684458D02*
D03*
X654330D02*
D03*
X667030D02*
D03*
X679730D02*
D03*
X692430Y684458D02*
D03*
X705130Y684458D02*
D03*
Y599158D02*
D03*
X692430Y599158D02*
D03*
X679730Y599158D02*
D03*
X667030D02*
D03*
X654330D02*
D03*
X641630D02*
D03*
X628930Y599158D02*
D03*
X616230Y599158D02*
D03*
X997230Y684458D02*
D03*
X1009930Y684458D02*
D03*
X1022630Y684458D02*
D03*
X1035330D02*
D03*
X1048030D02*
D03*
X1060730D02*
D03*
X1073430Y684458D02*
D03*
X1086130Y684458D02*
D03*
Y599158D02*
D03*
X1073430Y599158D02*
D03*
X1060730Y599158D02*
D03*
X1048030D02*
D03*
X1035330D02*
D03*
X1022630D02*
D03*
X1009930Y599158D02*
D03*
X997230Y599158D02*
D03*
M02*
