G04*
G04 #@! TF.GenerationSoftware,Altium Limited,Altium Designer,24.5.2 (23)*
G04*
G04 Layer_Physical_Order=2*
G04 Layer_Color=16711680*
%FSLAX44Y44*%
%MOMM*%
G71*
G04*
G04 #@! TF.SameCoordinates,DB171CDF-FD1A-43B8-AFCB-F980BC985382*
G04*
G04*
G04 #@! TF.FilePolarity,Positive*
G04*
G01*
G75*
%ADD26C,0.3810*%
%ADD27C,0.3048*%
%ADD28C,0.7620*%
%ADD30C,0.5080*%
%ADD31C,1.2700*%
%ADD32C,1.5200*%
%ADD33R,1.5200X1.5200*%
%ADD34C,1.8000*%
%ADD35R,1.8000X1.8000*%
%ADD36C,1.6000*%
%ADD37R,1.6000X1.6000*%
%ADD38C,2.0000*%
%ADD39C,2.5000*%
%ADD40R,1.3080X1.3080*%
%ADD41C,1.3080*%
%ADD42C,1.5240*%
%ADD43C,4.4000*%
%ADD44C,1.0000*%
%ADD45C,0.3048*%
%ADD46R,0.8890X0.7620*%
%ADD47R,1.7780X1.5240*%
%ADD48R,0.8200X0.9200*%
%ADD49R,0.7600X1.6700*%
%ADD50C,0.6350*%
G36*
X778836Y955593D02*
X779796Y955402D01*
X780611Y954857D01*
X780636Y954820D01*
X781346Y953082D01*
X781346D01*
X781364Y952283D01*
Y933088D01*
X781342D01*
X781671Y929752D01*
X782644Y926544D01*
X784224Y923588D01*
X786351Y920996D01*
X787401Y920135D01*
X787498Y919955D01*
X787368Y917533D01*
X785774Y916224D01*
X783647Y913633D01*
X782067Y910676D01*
X781561Y909008D01*
X779529Y909309D01*
Y914165D01*
X779523Y914205D01*
X779141Y919065D01*
X777994Y923843D01*
X776113Y928384D01*
X773545Y932574D01*
X770353Y936311D01*
X766616Y939503D01*
X762426Y942071D01*
X757885Y943952D01*
X753107Y945099D01*
X748247Y945481D01*
X748207Y945487D01*
X649139D01*
X649066Y945477D01*
X644329Y945104D01*
X639638Y943978D01*
X635181Y942132D01*
X631068Y939611D01*
X627400Y936478D01*
X624267Y932810D01*
X621746Y928697D01*
X619900Y924240D01*
X618774Y919549D01*
X618401Y914812D01*
X618391Y914739D01*
Y840604D01*
X618784Y837620D01*
X619936Y834840D01*
X621768Y832452D01*
X624156Y830620D01*
X626936Y829468D01*
X629920Y829075D01*
X632904Y829468D01*
X635684Y830620D01*
X638072Y832452D01*
X639904Y834840D01*
X641056Y837620D01*
X641449Y840604D01*
Y914739D01*
X641430Y914883D01*
X641674Y916739D01*
X642446Y918603D01*
X643674Y920204D01*
X645275Y921432D01*
X647139Y922204D01*
X648995Y922448D01*
X649139Y922429D01*
X748207D01*
X748369Y922451D01*
X750357Y922189D01*
X752361Y921359D01*
X754081Y920039D01*
X755401Y918319D01*
X756231Y916315D01*
X756493Y914327D01*
X756471Y914165D01*
Y869630D01*
X754920D01*
Y865435D01*
X753664Y864856D01*
X752888Y864760D01*
X750631Y867017D01*
X747649Y868739D01*
X744322Y869630D01*
X740878D01*
X737551Y868739D01*
X734569Y867017D01*
X732133Y864581D01*
X730411Y861599D01*
X729520Y858272D01*
Y854828D01*
X730411Y851501D01*
X732133Y848519D01*
X734569Y846083D01*
X737551Y844361D01*
X740878Y843470D01*
X744322D01*
X747649Y844361D01*
X750631Y846083D01*
X752888Y848340D01*
X753664Y848244D01*
X754920Y847665D01*
Y843470D01*
X781080D01*
Y866168D01*
X783112Y866677D01*
X783647Y865676D01*
X785774Y863084D01*
X788365Y860958D01*
X789011Y860612D01*
X789361Y858619D01*
X789102Y858260D01*
X787018Y855721D01*
X785438Y852764D01*
X784465Y849556D01*
X784136Y846220D01*
X784158D01*
Y810828D01*
X784161Y810808D01*
X783875Y809369D01*
X783048Y808132D01*
X781812Y807306D01*
X780373Y807020D01*
X780353Y807022D01*
X772632D01*
X772544Y807011D01*
X770723Y807373D01*
X769104Y808455D01*
X768023Y810073D01*
X767660Y811894D01*
X767672Y811982D01*
Y824803D01*
X767694D01*
X767365Y828139D01*
X766392Y831347D01*
X764812Y834303D01*
X762685Y836895D01*
X760094Y839021D01*
X757138Y840602D01*
X753930Y841575D01*
X750594Y841903D01*
X747258Y841575D01*
X744050Y840602D01*
X741093Y839021D01*
X738502Y836895D01*
X736840Y834869D01*
X734484Y834537D01*
X733729Y835456D01*
X731138Y837583D01*
X728182Y839163D01*
X724974Y840136D01*
X721638Y840465D01*
X718302Y840136D01*
X715094Y839163D01*
X712137Y837583D01*
X709546Y835456D01*
X708473Y834148D01*
X705847D01*
X704773Y835456D01*
X702182Y837583D01*
X699226Y839163D01*
X696018Y840136D01*
X692682Y840465D01*
X689346Y840136D01*
X686138Y839163D01*
X683181Y837583D01*
X680590Y835456D01*
X679517Y834148D01*
X676891D01*
X675817Y835456D01*
X673226Y837583D01*
X670270Y839163D01*
X667062Y840136D01*
X663726Y840465D01*
X660390Y840136D01*
X657182Y839163D01*
X654225Y837583D01*
X651634Y835456D01*
X649507Y832865D01*
X647927Y829909D01*
X646954Y826701D01*
X646625Y823364D01*
X646647D01*
Y807784D01*
X641257D01*
X640264Y807833D01*
X640066Y807816D01*
X639283Y807893D01*
X635349Y807506D01*
X631566Y806358D01*
X628079Y804494D01*
X625023Y801986D01*
X622515Y798930D01*
X620651Y795443D01*
X619503Y791660D01*
X619116Y787726D01*
X619152Y787717D01*
X619153Y787696D01*
Y754831D01*
X618789Y752072D01*
X617604Y749210D01*
X616921Y748320D01*
X615660Y746810D01*
X614358Y745747D01*
X612496Y746475D01*
Y933691D01*
X612537D01*
X612068Y938454D01*
X610679Y943034D01*
X608423Y947255D01*
X605387Y950954D01*
X602188Y953579D01*
X602812Y955611D01*
X778836D01*
Y955593D01*
D02*
G37*
G36*
X1447521Y5179D02*
X5179D01*
Y831138D01*
X7211Y831440D01*
X7409Y830787D01*
X9261Y827323D01*
X11753Y824287D01*
X14789Y821795D01*
X18253Y819944D01*
X22011Y818803D01*
X25920Y818419D01*
Y818455D01*
X48286D01*
Y818419D01*
X52194Y818803D01*
X55953Y819944D01*
X59417Y821795D01*
X62453Y824287D01*
X64945Y827323D01*
X66796Y830787D01*
X67936Y834545D01*
X68321Y838454D01*
X68285D01*
Y855215D01*
X69002Y855765D01*
X72710D01*
X76291Y856725D01*
X79501Y858578D01*
X82123Y861200D01*
X83976Y864410D01*
X84936Y867991D01*
Y871699D01*
X83976Y875280D01*
X82123Y878490D01*
X79501Y881112D01*
X78779Y881529D01*
Y883561D01*
X79501Y883978D01*
X82123Y886600D01*
X83976Y889810D01*
X84936Y893391D01*
Y897099D01*
X83976Y900680D01*
X82123Y903890D01*
X79501Y906512D01*
X76291Y908365D01*
X72710Y909325D01*
X69002D01*
X67777Y910265D01*
Y949183D01*
X67754Y949358D01*
X68213Y951665D01*
X69619Y953769D01*
X71723Y955175D01*
X74030Y955634D01*
X74205Y955611D01*
X85888D01*
X87426Y954417D01*
X87818Y951433D01*
X88970Y948653D01*
X90802Y946265D01*
X93190Y944433D01*
X95970Y943281D01*
X98954Y942888D01*
X101938Y943281D01*
X104719Y944433D01*
X107106Y946265D01*
X108938Y948653D01*
X110090Y951433D01*
X110483Y954417D01*
X112020Y955611D01*
X234419D01*
X234963Y953579D01*
X233867Y952946D01*
X232846Y951925D01*
X134160D01*
Y951959D01*
X130340Y951583D01*
X126666Y950469D01*
X123280Y948659D01*
X120313Y946223D01*
X117877Y943256D01*
X116067Y939870D01*
X114953Y936196D01*
X114577Y932376D01*
X114611D01*
Y907436D01*
X113011Y906512D01*
X110389Y903890D01*
X108535Y900680D01*
X107576Y897099D01*
Y893391D01*
X108535Y889810D01*
X110389Y886600D01*
X113011Y883978D01*
X113733Y883561D01*
Y881529D01*
X113011Y881112D01*
X110389Y878490D01*
X108535Y875280D01*
X107576Y871699D01*
Y867991D01*
X108535Y864410D01*
X110389Y861200D01*
X113011Y858578D01*
X116221Y856725D01*
X119802Y855765D01*
X123510D01*
X127091Y856725D01*
X130301Y858578D01*
X132923Y861200D01*
X134776Y864410D01*
X135736Y867991D01*
Y871699D01*
X135258Y873483D01*
X136783Y875008D01*
X136783Y875008D01*
X136794Y874997D01*
X138772Y877407D01*
X140243Y880157D01*
X141148Y883142D01*
X141453Y886245D01*
X141437D01*
Y892956D01*
X141437Y894457D01*
X141470D01*
Y896033D01*
X141437D01*
X141437Y897533D01*
Y921476D01*
X141422Y921592D01*
X141815Y923571D01*
X143002Y925347D01*
X144779Y926534D01*
X146758Y926928D01*
X146874Y926913D01*
X213288D01*
X214309Y925892D01*
X216607Y924565D01*
X219171Y923878D01*
X221825D01*
X224389Y924565D01*
X226687Y925892D01*
X228564Y927769D01*
X229891Y930067D01*
X230578Y932631D01*
Y935285D01*
X230548Y935395D01*
X231911Y937241D01*
X233367Y937313D01*
X233867Y936814D01*
X236165Y935487D01*
X238729Y934800D01*
X241383D01*
X243946Y935487D01*
X246245Y936814D01*
X248122Y938691D01*
X249449Y940989D01*
X250136Y943553D01*
Y946207D01*
X249449Y948771D01*
X248122Y951069D01*
X246245Y952946D01*
X245148Y953579D01*
X245693Y955611D01*
X375538D01*
X376265Y953579D01*
X373469Y951284D01*
X370575Y947759D01*
X368425Y943736D01*
X367101Y939371D01*
X366654Y934832D01*
X366689D01*
Y906190D01*
X364389Y903890D01*
X363972Y903168D01*
X361940D01*
X361523Y903890D01*
X358901Y906512D01*
X355691Y908365D01*
X352110Y909325D01*
X348402D01*
X344821Y908365D01*
X341611Y906512D01*
X338989Y903890D01*
X337136Y900680D01*
X336176Y897099D01*
Y893391D01*
X337136Y889810D01*
X338989Y886600D01*
X341611Y883978D01*
X342333Y883561D01*
Y881529D01*
X341611Y881112D01*
X338989Y878490D01*
X337136Y875280D01*
X336176Y871699D01*
Y867991D01*
X337136Y864410D01*
X338989Y861200D01*
X341611Y858578D01*
X344821Y856725D01*
X348402Y855765D01*
X352110D01*
X355691Y856725D01*
X358901Y858578D01*
X360789Y860466D01*
X363105Y860710D01*
X363513Y860584D01*
X364127Y859955D01*
Y853704D01*
X364108D01*
X364579Y848922D01*
X365974Y844324D01*
X368239Y840086D01*
X371287Y836371D01*
X375002Y833323D01*
X379240Y831058D01*
X383838Y829663D01*
X388620Y829192D01*
Y829211D01*
X493656D01*
X496640Y829604D01*
X499420Y830756D01*
X501808Y832588D01*
X503485Y834773D01*
X504166Y834757D01*
X505517Y834197D01*
Y761319D01*
X505195Y761233D01*
X502897Y759906D01*
X501020Y758029D01*
X499693Y755731D01*
X499006Y753167D01*
Y750513D01*
X499693Y747949D01*
X501020Y745651D01*
X502897Y743774D01*
X505195Y742447D01*
X507759Y741760D01*
X510413D01*
X512977Y742447D01*
X515275Y743774D01*
X515356Y743855D01*
X515437Y743774D01*
X517735Y742447D01*
X520299Y741760D01*
X522953D01*
X525517Y742447D01*
X527815Y743774D01*
X529692Y745651D01*
X531019Y747949D01*
X531706Y750513D01*
Y753167D01*
X531019Y755731D01*
X529692Y758029D01*
X527815Y759906D01*
X525517Y761233D01*
X525195Y761319D01*
Y854992D01*
X526202Y855765D01*
X529910D01*
X533491Y856725D01*
X536701Y858578D01*
X539323Y861200D01*
X541176Y864410D01*
X542136Y867991D01*
Y871699D01*
X541176Y875280D01*
X539323Y878490D01*
X536701Y881112D01*
X535979Y881529D01*
Y883561D01*
X536701Y883978D01*
X539323Y886600D01*
X541176Y889810D01*
X542136Y893391D01*
Y897099D01*
X541176Y900680D01*
X539323Y903890D01*
X536701Y906512D01*
X536203Y906799D01*
X536748Y908831D01*
X561982D01*
Y908828D01*
X563236Y908578D01*
X564299Y907868D01*
X565010Y906804D01*
X565259Y905550D01*
X565263D01*
Y849876D01*
X565286Y849703D01*
X564862Y846484D01*
X563553Y843324D01*
X561576Y840748D01*
X561438Y840642D01*
X545505Y824709D01*
X544054Y823306D01*
X544050Y823303D01*
X542772Y821805D01*
X540914Y819631D01*
X538391Y815513D01*
X536542Y811051D01*
X535415Y806355D01*
X535036Y801540D01*
X535071Y801532D01*
X535071Y801510D01*
Y664799D01*
X534749Y664713D01*
X532451Y663386D01*
X530574Y661509D01*
X529247Y659211D01*
X528560Y656647D01*
Y653993D01*
X529247Y651429D01*
X530574Y649131D01*
X532451Y647254D01*
X534749Y645927D01*
X537313Y645240D01*
X539967D01*
X542531Y645927D01*
X544829Y647254D01*
X544910Y647335D01*
X544991Y647254D01*
X547289Y645927D01*
X549853Y645240D01*
X552507D01*
X555071Y645927D01*
X557369Y647254D01*
X559246Y649131D01*
X559375Y649354D01*
X561407Y648809D01*
Y600029D01*
X561085Y599943D01*
X558787Y598616D01*
X556910Y596739D01*
X555583Y594441D01*
X554896Y591877D01*
Y589223D01*
X555583Y586659D01*
X556910Y584361D01*
X558787Y582484D01*
X561085Y581157D01*
X563649Y580470D01*
X566303D01*
X568867Y581157D01*
X571165Y582484D01*
X571246Y582565D01*
X571327Y582484D01*
X573625Y581157D01*
X576189Y580470D01*
X578843D01*
X581407Y581157D01*
X583705Y582484D01*
X585582Y584361D01*
X586909Y586659D01*
X587596Y589223D01*
Y591877D01*
X586909Y594441D01*
X585582Y596739D01*
X583705Y598616D01*
X581407Y599943D01*
X581085Y600029D01*
Y671556D01*
X583117Y671689D01*
X583569Y668255D01*
X584977Y664856D01*
X587216Y661938D01*
X590135Y659699D01*
X593533Y658291D01*
X597180Y657811D01*
Y657866D01*
X622906D01*
Y657814D01*
X626467Y658283D01*
X629786Y659658D01*
X632637Y661845D01*
X634824Y664695D01*
X636199Y668014D01*
X636595Y671028D01*
X681131D01*
X682368Y669416D01*
X682350Y669347D01*
Y666693D01*
X683037Y664129D01*
X684218Y662083D01*
X683599Y660051D01*
X641144D01*
Y660096D01*
X636882Y659676D01*
X632784Y658433D01*
X629008Y656415D01*
X625698Y653698D01*
X622981Y650388D01*
X620962Y646611D01*
X619719Y642514D01*
X619300Y638252D01*
X619344D01*
Y632402D01*
X619365Y632249D01*
X618959Y629165D01*
X617709Y626148D01*
X616926Y625127D01*
X615660Y623620D01*
X615660Y623620D01*
X612891Y620245D01*
X610833Y616395D01*
X609678Y612588D01*
X607350D01*
Y585728D01*
X620050D01*
Y585728D01*
X621244D01*
Y539108D01*
X621223D01*
X621569Y535599D01*
X622592Y532225D01*
X624254Y529115D01*
X626491Y526389D01*
X629217Y524153D01*
X632326Y522491D01*
X635700Y521467D01*
X639209Y521121D01*
Y521142D01*
X861075D01*
Y521117D01*
X864759Y521480D01*
X868302Y522555D01*
X871567Y524300D01*
X874429Y526649D01*
X876778Y529511D01*
X878523Y532776D01*
X879598Y536319D01*
X879961Y540003D01*
X879936D01*
Y606044D01*
X881775D01*
Y621284D01*
Y633730D01*
X906700D01*
Y659130D01*
X878760D01*
Y649411D01*
X865813D01*
Y662178D01*
X881775D01*
Y677418D01*
Y695198D01*
X876795D01*
Y718400D01*
X876885Y718452D01*
X879048Y720615D01*
X880578Y723265D01*
X881370Y726220D01*
Y729280D01*
X880578Y732235D01*
X879048Y734885D01*
X876885Y737048D01*
X874235Y738578D01*
X871280Y739370D01*
X868220D01*
X865265Y738578D01*
X862615Y737048D01*
X860452Y734885D01*
X858922Y732235D01*
X858130Y729280D01*
Y726220D01*
X858922Y723265D01*
X860452Y720615D01*
X862615Y718452D01*
X862705Y718400D01*
Y714647D01*
X860673Y713409D01*
X858580Y713970D01*
X855520D01*
X852565Y713178D01*
X849915Y711648D01*
X847752Y709485D01*
X846222Y706835D01*
X845430Y703880D01*
Y700820D01*
X846222Y697865D01*
X846622Y697172D01*
X846763Y695198D01*
X846763Y695198D01*
X846763Y695198D01*
Y677418D01*
Y662178D01*
Y649224D01*
Y637219D01*
X841937D01*
Y649224D01*
Y662178D01*
Y677418D01*
Y695198D01*
X841937Y695198D01*
X841937D01*
X842078Y697172D01*
X842478Y697865D01*
X843270Y700820D01*
Y703880D01*
X842478Y706835D01*
X840948Y709485D01*
X838785Y711648D01*
X836135Y713178D01*
X833180Y713970D01*
X830120D01*
X828027Y713409D01*
X825995Y714647D01*
Y718400D01*
X826085Y718452D01*
X828248Y720615D01*
X829778Y723265D01*
X830570Y726220D01*
Y729280D01*
X829778Y732235D01*
X828248Y734885D01*
X826085Y737048D01*
X823435Y738578D01*
X820480Y739370D01*
X817420D01*
X814465Y738578D01*
X811815Y737048D01*
X809652Y734885D01*
X808122Y732235D01*
X807330Y729280D01*
Y726220D01*
X808122Y723265D01*
X809652Y720615D01*
X811815Y718452D01*
X811905Y718400D01*
Y714647D01*
X809873Y713409D01*
X807780Y713970D01*
X804720D01*
X802627Y713409D01*
X800595Y714647D01*
Y718400D01*
X800685Y718452D01*
X802848Y720615D01*
X804378Y723265D01*
X805170Y726220D01*
Y729280D01*
X804378Y732235D01*
X802848Y734885D01*
X800685Y737048D01*
X798035Y738578D01*
X795080Y739370D01*
X792020D01*
X789065Y738578D01*
X786415Y737048D01*
X784252Y734885D01*
X782722Y732235D01*
X781930Y729280D01*
Y726220D01*
X782722Y723265D01*
X784252Y720615D01*
X786415Y718452D01*
X786505Y718400D01*
Y713970D01*
X769230D01*
Y690730D01*
X773805D01*
Y660118D01*
X773738D01*
Y660051D01*
X753213D01*
Y669645D01*
X753251D01*
X752858Y672629D01*
X751706Y675409D01*
X749874Y677797D01*
X747487Y679629D01*
X744706Y680781D01*
X741722Y681173D01*
X738739Y680781D01*
X735958Y679629D01*
X733570Y677797D01*
X731738Y675409D01*
X730587Y672629D01*
X730194Y669645D01*
X730232D01*
Y660051D01*
X701261D01*
X700642Y662083D01*
X701823Y664129D01*
X702510Y666693D01*
Y669347D01*
X702491Y669416D01*
X703728Y671028D01*
X714010D01*
Y697888D01*
X714655Y698218D01*
Y713458D01*
Y727825D01*
X727355D01*
Y743065D01*
Y760845D01*
X727355D01*
X727296Y760922D01*
X727910Y763213D01*
Y765867D01*
X727223Y768431D01*
X725896Y770729D01*
X724019Y772606D01*
X721721Y773933D01*
X719157Y774620D01*
X716503D01*
X713939Y773933D01*
X711641Y772606D01*
X709764Y770729D01*
X708437Y768431D01*
X707750Y765867D01*
Y763213D01*
X707952Y762457D01*
X706715Y760845D01*
X702250D01*
Y768443D01*
X702572Y768529D01*
X704870Y769856D01*
X706747Y771733D01*
X708074Y774031D01*
X708761Y776595D01*
Y779249D01*
X708074Y781813D01*
X706747Y784111D01*
X705359Y785500D01*
X706233Y787455D01*
X707160Y787364D01*
X710496Y787693D01*
X713704Y788666D01*
X716660Y790246D01*
X719251Y792373D01*
X720325Y793681D01*
X722951D01*
X724024Y792373D01*
X726615Y790246D01*
X729572Y788666D01*
X732780Y787693D01*
X736116Y787364D01*
X739452Y787693D01*
X742660Y788666D01*
X745616Y790246D01*
X748207Y792373D01*
X750334Y794964D01*
X751060Y796322D01*
X753492Y796562D01*
X755169Y794519D01*
X758911Y791447D01*
X763181Y789165D01*
X767814Y787760D01*
X772632Y787285D01*
Y787344D01*
X780353D01*
Y787291D01*
X784945Y787743D01*
X789360Y789082D01*
X793429Y791257D01*
X796996Y794184D01*
X799923Y797751D01*
X802098Y801821D01*
X803438Y806236D01*
X803890Y810828D01*
X803837D01*
Y843620D01*
X812373D01*
Y843598D01*
X815709Y843926D01*
X818917Y844900D01*
X821873Y846480D01*
X824465Y848606D01*
X826355Y850909D01*
X827385Y850777D01*
X828387Y850246D01*
Y809260D01*
X828351D01*
X828732Y805396D01*
X829859Y801681D01*
X831689Y798257D01*
X834152Y795255D01*
X837154Y792792D01*
X840578Y790962D01*
X844293Y789835D01*
X848157Y789454D01*
Y789490D01*
X874387D01*
X874473Y789168D01*
X875800Y786870D01*
X877677Y784993D01*
X879975Y783666D01*
X882539Y782979D01*
X885193D01*
X887757Y783666D01*
X890055Y784993D01*
X891932Y786870D01*
X893259Y789168D01*
X893946Y791732D01*
Y794386D01*
X893259Y796950D01*
X891932Y799248D01*
X891851Y799329D01*
X891932Y799410D01*
X893259Y801708D01*
X893946Y804272D01*
Y806926D01*
X893259Y809490D01*
X891932Y811788D01*
X890055Y813665D01*
X887757Y814992D01*
X885193Y815679D01*
X882539D01*
X879975Y814992D01*
X877677Y813665D01*
X875800Y811788D01*
X875115Y810603D01*
X874426D01*
X873222Y812582D01*
X873940Y815262D01*
Y818038D01*
X873222Y820718D01*
X872790Y821466D01*
X873963Y823498D01*
X943766D01*
X1233837Y823498D01*
X1235010Y821466D01*
X1234578Y820718D01*
X1233860Y818038D01*
Y815262D01*
X1234578Y812582D01*
X1235966Y810178D01*
X1237928Y808216D01*
X1240332Y806828D01*
X1243012Y806110D01*
X1245788D01*
X1248468Y806828D01*
X1250872Y808216D01*
X1252834Y810178D01*
X1254222Y812582D01*
X1254940Y815262D01*
Y818038D01*
X1254222Y820718D01*
X1253790Y821466D01*
X1254963Y823498D01*
X1268098D01*
X1268414Y823561D01*
X1268737Y823538D01*
X1270669Y823778D01*
X1270850Y823838D01*
X1271040D01*
X1271253Y823880D01*
X1271724Y824075D01*
X1272225Y824175D01*
X1273563Y824729D01*
X1273988Y825013D01*
X1274459Y825208D01*
X1275663Y826013D01*
X1276024Y826373D01*
X1276448Y826657D01*
X1277473Y827681D01*
X1277756Y828105D01*
X1278117Y828466D01*
X1278922Y829671D01*
X1279117Y830142D01*
X1279400Y830566D01*
X1279955Y831905D01*
X1280054Y832405D01*
X1280249Y832876D01*
X1280532Y834297D01*
Y834808D01*
X1280632Y835308D01*
X1280632Y836032D01*
X1280632Y844370D01*
X1282664Y845543D01*
X1284098Y844715D01*
X1287328Y843850D01*
X1290672D01*
X1293902Y844715D01*
X1296798Y846387D01*
X1299162Y848752D01*
X1300834Y851648D01*
X1301700Y854878D01*
Y858222D01*
X1300834Y861452D01*
X1299162Y864348D01*
X1296798Y866712D01*
X1296045Y867147D01*
Y930474D01*
X1296089D01*
X1295676Y934668D01*
X1294452Y938700D01*
X1292466Y942416D01*
X1289793Y945673D01*
X1286536Y948346D01*
X1282820Y950332D01*
X1278787Y951555D01*
X1274594Y951969D01*
Y951925D01*
X915210D01*
X914189Y952946D01*
X911891Y954273D01*
X909327Y954960D01*
X906673D01*
X904109Y954273D01*
X901811Y952946D01*
X899934Y951069D01*
X898607Y948771D01*
X897920Y946207D01*
Y943553D01*
X898607Y940989D01*
X899934Y938691D01*
X901811Y936814D01*
X904109Y935487D01*
X906673Y934800D01*
X909327D01*
X911891Y935487D01*
X914189Y936814D01*
X915210Y937835D01*
X1274594D01*
Y937831D01*
X1276498Y937580D01*
X1278272Y936845D01*
X1279796Y935676D01*
X1280965Y934153D01*
X1281700Y932378D01*
X1281951Y930474D01*
X1281955D01*
Y867510D01*
X1280310Y866212D01*
X1278166Y866550D01*
X1278003Y866794D01*
X1277642Y867154D01*
X1277358Y867579D01*
X1276263Y868674D01*
X1275839Y868958D01*
X1275478Y869318D01*
X1274190Y870179D01*
X1273718Y870375D01*
X1273294Y870658D01*
X1271863Y871251D01*
X1271362Y871350D01*
X1270891Y871546D01*
X1269371Y871848D01*
X1268861Y871848D01*
X1268361Y871947D01*
X1267586Y871947D01*
X1134535Y871947D01*
X1134535Y871947D01*
X1132553Y871553D01*
X1130872Y870431D01*
X1129750Y868750D01*
X1129044Y868511D01*
X1128649Y868739D01*
X1125322Y869630D01*
X1121878D01*
X1118551Y868739D01*
X1118156Y868511D01*
X1117450Y868750D01*
X1116328Y870431D01*
X1114647Y871553D01*
X1112665Y871947D01*
X918616Y871947D01*
X916634Y871553D01*
X914953Y870431D01*
X913831Y868750D01*
X911938Y868643D01*
X909672Y869250D01*
X906328D01*
X904062Y868643D01*
X902169Y868750D01*
X901046Y870431D01*
X899366Y871553D01*
X897383Y871947D01*
X859354D01*
X859354Y871947D01*
X858141Y871947D01*
X856159Y871553D01*
X856159Y871553D01*
X853919Y870625D01*
X852238Y869502D01*
X850523Y867787D01*
X850077Y867119D01*
X848065Y867766D01*
Y969185D01*
X848121D01*
X847657Y973903D01*
X846281Y978439D01*
X844046Y982620D01*
X841038Y986285D01*
X837374Y989292D01*
X833193Y991527D01*
X829034Y992789D01*
X829335Y994821D01*
X1447521D01*
Y5179D01*
D02*
G37*
G36*
X897383Y866768D02*
X898225Y864736D01*
X897837Y864348D01*
X896165Y861452D01*
X895300Y858222D01*
Y854878D01*
X896165Y851648D01*
X897837Y848752D01*
X900202Y846387D01*
X903098Y844715D01*
X906328Y843850D01*
X909672D01*
X912902Y844715D01*
X915798Y846387D01*
X918162Y848752D01*
X919834Y851648D01*
X920700Y854878D01*
Y858222D01*
X919834Y861452D01*
X918162Y864348D01*
X917774Y864736D01*
X918616Y866768D01*
X1112665Y866768D01*
X1113443Y864891D01*
X1113133Y864581D01*
X1111411Y861599D01*
X1110520Y858272D01*
Y854828D01*
X1111411Y851501D01*
X1113133Y848519D01*
X1115569Y846083D01*
X1118551Y844361D01*
X1121878Y843470D01*
X1125322D01*
X1128649Y844361D01*
X1131631Y846083D01*
X1134067Y848519D01*
X1135789Y851501D01*
X1136680Y854828D01*
Y858272D01*
X1135789Y861599D01*
X1134067Y864581D01*
X1133757Y864891D01*
X1134535Y866768D01*
X1267586Y866768D01*
X1268361Y866768D01*
X1269880Y866466D01*
X1271312Y865873D01*
X1272600Y865012D01*
X1273696Y863916D01*
X1274557Y862628D01*
X1275150Y861196D01*
X1275235Y860769D01*
X1275452Y858903D01*
Y858902D01*
X1275452Y858902D01*
X1275452Y858902D01*
X1275452Y836032D01*
X1275452Y835308D01*
X1275170Y833887D01*
X1274615Y832548D01*
X1273810Y831344D01*
X1272786Y830319D01*
X1271581Y829514D01*
X1270243Y828960D01*
X1270030Y828918D01*
X1268098Y828678D01*
X943766Y828678D01*
X857312D01*
X856506Y828678D01*
X855016Y829295D01*
X853875Y830435D01*
X853258Y831926D01*
X853258Y832732D01*
Y860672D01*
X853258Y861885D01*
X854186Y864125D01*
X855901Y865840D01*
X858141Y866768D01*
X859354Y866768D01*
X859354Y866768D01*
X897383D01*
D02*
G37*
G36*
X389921Y940131D02*
X437126D01*
X437853Y938099D01*
X435744Y936367D01*
X432995Y933018D01*
X430953Y929197D01*
X429695Y925052D01*
X429271Y920740D01*
X429317D01*
Y910098D01*
X428310Y909325D01*
X424602D01*
X421021Y908365D01*
X417811Y906512D01*
X415189Y903890D01*
X413335Y900680D01*
X412376Y897099D01*
Y893391D01*
X413335Y889810D01*
X415189Y886600D01*
X417811Y883978D01*
X418533Y883561D01*
Y881529D01*
X417811Y881112D01*
X415189Y878490D01*
X413335Y875280D01*
X412376Y871699D01*
Y867991D01*
X413335Y864410D01*
X415189Y861200D01*
X417811Y858578D01*
X421021Y856725D01*
X424602Y855765D01*
X428310D01*
X431891Y856725D01*
X435101Y858578D01*
X437723Y861200D01*
X438140Y861922D01*
X440172D01*
X440589Y861200D01*
X443211Y858578D01*
X446421Y856725D01*
X450002Y855765D01*
X453710D01*
X457291Y856725D01*
X460501Y858578D01*
X463123Y861200D01*
X464976Y864410D01*
X465936Y867991D01*
Y871699D01*
X464976Y875280D01*
X463123Y878490D01*
X460501Y881112D01*
X459779Y881529D01*
Y883561D01*
X460501Y883978D01*
X463123Y886600D01*
X464976Y889810D01*
X465936Y893391D01*
Y897099D01*
X464976Y900680D01*
X463123Y903890D01*
X460501Y906512D01*
X457291Y908365D01*
X453710Y909325D01*
X450002D01*
X448995Y910098D01*
Y920740D01*
X449017D01*
X449196Y921641D01*
X449706Y922405D01*
X450470Y922915D01*
X451371Y923094D01*
Y923116D01*
X507972D01*
X508841Y921279D01*
X508433Y920781D01*
X506821Y917766D01*
X505828Y914493D01*
X505500Y911163D01*
X505260Y909901D01*
X504510Y909325D01*
X500802D01*
X497221Y908365D01*
X494011Y906512D01*
X491389Y903890D01*
X489535Y900680D01*
X488576Y897099D01*
Y893391D01*
X489535Y889810D01*
X491389Y886600D01*
X494011Y883978D01*
X494733Y883561D01*
Y881529D01*
X494011Y881112D01*
X491389Y878490D01*
X489535Y875280D01*
X488576Y871699D01*
Y867991D01*
X489535Y864410D01*
X491389Y861200D01*
X494011Y858578D01*
X497221Y856725D01*
X500802Y855765D01*
X504510D01*
X505517Y854992D01*
Y847283D01*
X504166Y846723D01*
X503485Y846707D01*
X501808Y848892D01*
X499420Y850724D01*
X496640Y851876D01*
X493656Y852269D01*
X388620D01*
X388593Y852265D01*
X387181Y853677D01*
X387185Y853704D01*
Y861653D01*
X388776Y864410D01*
X389736Y867991D01*
Y871699D01*
X388776Y875280D01*
X386923Y878490D01*
X384301Y881112D01*
X383579Y881529D01*
Y883561D01*
X384301Y883978D01*
X386923Y886600D01*
X388776Y889810D01*
X389736Y893391D01*
Y897099D01*
X388776Y900680D01*
X386923Y903890D01*
X384623Y906190D01*
Y934832D01*
X384602Y934991D01*
X384977Y936880D01*
X386138Y938616D01*
X387874Y939776D01*
X389763Y940152D01*
X389921Y940131D01*
D02*
G37*
G36*
X804720Y690730D02*
X806925D01*
Y677418D01*
Y662178D01*
X822887D01*
Y649224D01*
Y639064D01*
X806925D01*
Y636611D01*
X804893Y635438D01*
X803968Y635972D01*
X801288Y636690D01*
X798512D01*
X795832Y635972D01*
X793428Y634584D01*
X791466Y632622D01*
X790078Y630218D01*
X789360Y627538D01*
Y624762D01*
X790078Y622082D01*
X791466Y619678D01*
X793428Y617716D01*
X795832Y616328D01*
X798512Y615610D01*
X801288D01*
X803968Y616328D01*
X804893Y616862D01*
X806925Y615689D01*
Y606834D01*
X806370Y604762D01*
Y602108D01*
X807057Y599545D01*
X808384Y597246D01*
X810261Y595369D01*
X812559Y594042D01*
X815123Y593355D01*
X817777D01*
X820341Y594042D01*
X822639Y595369D01*
X824516Y597246D01*
X825523Y598990D01*
X826118Y599160D01*
X827189D01*
X827784Y598990D01*
X828791Y597246D01*
X830668Y595369D01*
X832966Y594042D01*
X834511Y593629D01*
Y554175D01*
X834513Y554158D01*
X834230Y552733D01*
X833413Y551511D01*
X832191Y550694D01*
X830766Y550411D01*
X830749Y550413D01*
X703566D01*
X702656Y551055D01*
X702015Y551964D01*
Y565660D01*
X701995Y565813D01*
X702401Y568897D01*
X703651Y571914D01*
X704434Y572934D01*
X705700Y574442D01*
X705700Y574442D01*
X708469Y577817D01*
X710527Y581667D01*
X711759Y585728D01*
X714010D01*
Y612588D01*
X702987D01*
X701860Y614245D01*
X701861Y614620D01*
X702510Y617041D01*
Y619695D01*
X701823Y622259D01*
X700496Y624557D01*
X698619Y626434D01*
X696320Y627761D01*
X693757Y628448D01*
X691103D01*
X688539Y627761D01*
X686241Y626434D01*
X684364Y624557D01*
X683037Y622259D01*
X682350Y619695D01*
Y617041D01*
X682999Y614620D01*
X683000Y614245D01*
X681872Y612588D01*
X648182D01*
X647027Y616395D01*
X644969Y620245D01*
X642200Y623620D01*
X642200Y623620D01*
X640948Y625133D01*
X640439Y625797D01*
X639364Y628391D01*
X639010Y631079D01*
X639023Y631176D01*
Y638252D01*
X639050D01*
X639209Y639053D01*
X639663Y639733D01*
X640342Y640187D01*
X641144Y640346D01*
Y640373D01*
X784498D01*
Y640355D01*
X787641Y640665D01*
X790665Y641582D01*
X793451Y643071D01*
X795893Y645075D01*
X797897Y647517D01*
X799386Y650303D01*
X800303Y653327D01*
X800613Y656470D01*
X800595D01*
Y690053D01*
X802627Y691291D01*
X804720Y690730D01*
D02*
G37*
G36*
X674333Y581667D02*
X676391Y577817D01*
X679160Y574442D01*
X679160Y574442D01*
X680429Y572936D01*
X680974Y572226D01*
X682006Y569734D01*
X682347Y567142D01*
X682337Y567060D01*
Y551507D01*
X682297D01*
X682697Y547447D01*
X683881Y543543D01*
X685804Y539944D01*
X686952Y538546D01*
X685991Y536514D01*
X639209D01*
Y536525D01*
X638221Y536722D01*
X637383Y537282D01*
X636824Y538119D01*
X636627Y539108D01*
X636616D01*
Y585728D01*
X637810D01*
Y585728D01*
X673101D01*
X674333Y581667D01*
D02*
G37*
%LPC*%
G36*
X1093527Y929560D02*
X1090873D01*
X1088309Y928873D01*
X1086011Y927546D01*
X1084990Y926525D01*
X870810D01*
X869789Y927546D01*
X867491Y928873D01*
X864927Y929560D01*
X862273D01*
X859709Y928873D01*
X857411Y927546D01*
X855534Y925669D01*
X854207Y923371D01*
X853520Y920807D01*
Y918153D01*
X854207Y915589D01*
X855534Y913291D01*
X857411Y911414D01*
X859709Y910087D01*
X862273Y909400D01*
X864927D01*
X867491Y910087D01*
X869789Y911414D01*
X870810Y912435D01*
X1084990D01*
X1086011Y911414D01*
X1088309Y910087D01*
X1090873Y909400D01*
X1093527D01*
X1096091Y910087D01*
X1098389Y911414D01*
X1100266Y913291D01*
X1101593Y915589D01*
X1102280Y918153D01*
Y920807D01*
X1101593Y923371D01*
X1100266Y925669D01*
X1098389Y927546D01*
X1096091Y928873D01*
X1093527Y929560D01*
D02*
G37*
G36*
X199710Y909325D02*
X196002D01*
X192421Y908365D01*
X189211Y906512D01*
X186589Y903890D01*
X186172Y903168D01*
X184140D01*
X183723Y903890D01*
X181101Y906512D01*
X177891Y908365D01*
X174310Y909325D01*
X170602D01*
X167021Y908365D01*
X163811Y906512D01*
X161189Y903890D01*
X159335Y900680D01*
X158376Y897099D01*
Y893391D01*
X159335Y889810D01*
X161189Y886600D01*
X163811Y883978D01*
X164533Y883561D01*
Y881529D01*
X163811Y881112D01*
X161189Y878490D01*
X159335Y875280D01*
X158376Y871699D01*
Y867991D01*
X159335Y864410D01*
X161189Y861200D01*
X163811Y858578D01*
X167021Y856725D01*
X170602Y855765D01*
X174310D01*
X177891Y856725D01*
X181101Y858578D01*
X183723Y861200D01*
X184140Y861922D01*
X186172D01*
X186589Y861200D01*
X189211Y858578D01*
X192421Y856725D01*
X196002Y855765D01*
X199710D01*
X203291Y856725D01*
X206501Y858578D01*
X209123Y861200D01*
X210976Y864410D01*
X211936Y867991D01*
Y871699D01*
X210976Y875280D01*
X209123Y878490D01*
X206501Y881112D01*
X205779Y881529D01*
Y883561D01*
X206501Y883978D01*
X209123Y886600D01*
X210976Y889810D01*
X211936Y893391D01*
Y897099D01*
X210976Y900680D01*
X209123Y903890D01*
X206501Y906512D01*
X203291Y908365D01*
X199710Y909325D01*
D02*
G37*
G36*
X1353797Y972328D02*
X1348903D01*
X1344052Y971689D01*
X1339326Y970423D01*
X1334805Y968550D01*
X1330567Y966104D01*
X1326685Y963125D01*
X1323225Y959665D01*
X1320246Y955783D01*
X1317800Y951545D01*
X1315927Y947024D01*
X1314661Y942298D01*
X1314022Y937447D01*
Y932553D01*
X1314661Y927702D01*
X1315927Y922976D01*
X1317800Y918455D01*
X1320246Y914217D01*
X1323225Y910335D01*
X1326685Y906875D01*
X1330567Y903896D01*
X1334805Y901450D01*
X1339326Y899577D01*
X1344052Y898311D01*
X1348903Y897672D01*
X1353797D01*
X1358648Y898311D01*
X1363374Y899577D01*
X1367895Y901450D01*
X1372133Y903896D01*
X1376015Y906875D01*
X1379475Y910335D01*
X1382454Y914217D01*
X1384900Y918455D01*
X1386773Y922976D01*
X1388039Y927702D01*
X1388678Y932553D01*
Y937447D01*
X1388039Y942298D01*
X1386773Y947024D01*
X1384900Y951545D01*
X1382454Y955783D01*
X1379475Y959665D01*
X1376015Y963125D01*
X1372133Y966104D01*
X1367895Y968550D01*
X1363374Y970423D01*
X1358648Y971689D01*
X1353797Y972328D01*
D02*
G37*
G36*
X1100157Y807052D02*
X1097503D01*
X1094939Y806365D01*
X1092641Y805038D01*
X1090764Y803161D01*
X1089437Y800863D01*
X1089351Y800541D01*
X1086384D01*
Y800591D01*
X1081924Y800152D01*
X1077635Y798851D01*
X1073682Y796738D01*
X1070218Y793895D01*
X1067375Y790431D01*
X1065262Y786478D01*
X1063961Y782189D01*
X1063522Y777729D01*
X1063572D01*
Y760845D01*
X1059144D01*
X1057907Y762457D01*
X1058110Y763213D01*
Y765867D01*
X1057423Y768431D01*
X1056096Y770729D01*
X1054219Y772606D01*
X1051920Y773933D01*
X1049357Y774620D01*
X1046703D01*
X1044139Y773933D01*
X1041841Y772606D01*
X1039964Y770729D01*
X1038637Y768431D01*
X1037950Y765867D01*
Y763213D01*
X1038564Y760922D01*
X1038505Y760845D01*
X1038505D01*
Y743065D01*
Y731238D01*
X1029705D01*
X1029294Y735408D01*
X1028027Y739585D01*
X1025969Y743435D01*
X1023200Y746810D01*
X1023200Y746810D01*
X1021924Y748313D01*
X1021276Y749158D01*
X1020179Y751809D01*
X1019818Y754550D01*
X1019831Y754653D01*
Y768269D01*
X1020153Y768355D01*
X1022451Y769682D01*
X1024328Y771559D01*
X1025655Y773857D01*
X1026342Y776421D01*
Y779075D01*
X1025655Y781639D01*
X1024328Y783937D01*
X1022451Y785814D01*
X1020153Y787141D01*
X1017589Y787828D01*
X1014935D01*
X1012371Y787141D01*
X1010073Y785814D01*
X1009992Y785733D01*
X1009911Y785814D01*
X1007613Y787141D01*
X1005049Y787828D01*
X1002395D01*
X999831Y787141D01*
X997533Y785814D01*
X995656Y783937D01*
X994329Y781639D01*
X993642Y779075D01*
Y776421D01*
X994329Y773857D01*
X995656Y771559D01*
X997533Y769682D01*
X999831Y768355D01*
X1000153Y768269D01*
Y754831D01*
X999789Y752072D01*
X998604Y749210D01*
X997921Y748320D01*
X996660Y746810D01*
X996660Y746810D01*
X993891Y743435D01*
X993174Y742094D01*
X991164Y741796D01*
X990719Y742241D01*
X988420Y743568D01*
X985857Y744255D01*
X983203D01*
X980639Y743568D01*
X978341Y742241D01*
X976464Y740364D01*
X975137Y738065D01*
X974450Y735502D01*
Y732848D01*
X974517Y732596D01*
X973280Y730984D01*
X962305D01*
Y713204D01*
Y697964D01*
X964144D01*
Y671902D01*
X964089D01*
X964569Y668255D01*
X965977Y664856D01*
X968216Y661938D01*
X971134Y659699D01*
X974533Y658291D01*
X978180Y657811D01*
Y657866D01*
X1003905D01*
Y657814D01*
X1007467Y658283D01*
X1010787Y659658D01*
X1013637Y661845D01*
X1015824Y664695D01*
X1017199Y668014D01*
X1017595Y671028D01*
X1062131D01*
X1063368Y669416D01*
X1063350Y669347D01*
Y666693D01*
X1064037Y664129D01*
X1065218Y662083D01*
X1064599Y660051D01*
X1022144D01*
Y660096D01*
X1017882Y659676D01*
X1013784Y658433D01*
X1010008Y656415D01*
X1006698Y653698D01*
X1003981Y650388D01*
X1001962Y646611D01*
X1000719Y642514D01*
X1000300Y638252D01*
X1000344D01*
Y632402D01*
X1000365Y632249D01*
X999959Y629165D01*
X998709Y626148D01*
X997926Y625127D01*
X996660Y623620D01*
X996660Y623620D01*
X993891Y620245D01*
X991833Y616395D01*
X990678Y612588D01*
X988350D01*
Y585728D01*
X1001050D01*
Y585728D01*
X1002244D01*
Y531502D01*
X1002222D01*
X1002574Y527924D01*
X1003618Y524483D01*
X1005313Y521312D01*
X1007594Y518532D01*
X1010373Y516251D01*
X1013544Y514556D01*
X1016985Y513512D01*
X1020564Y513160D01*
Y513182D01*
X1240564D01*
Y513151D01*
X1244508Y513539D01*
X1248301Y514690D01*
X1251796Y516558D01*
X1254860Y519072D01*
X1257374Y522136D01*
X1259242Y525631D01*
X1260393Y529424D01*
X1260781Y533368D01*
X1260750D01*
Y606044D01*
X1262775D01*
Y621284D01*
Y633730D01*
X1287700D01*
Y659130D01*
X1259760D01*
Y649411D01*
X1246813D01*
Y662178D01*
X1262775D01*
Y677418D01*
Y695198D01*
X1257795D01*
Y718400D01*
X1257885Y718452D01*
X1260048Y720615D01*
X1261578Y723265D01*
X1262370Y726220D01*
Y729280D01*
X1261578Y732235D01*
X1260048Y734885D01*
X1257885Y737048D01*
X1255235Y738578D01*
X1252280Y739370D01*
X1249220D01*
X1246265Y738578D01*
X1243615Y737048D01*
X1241452Y734885D01*
X1239922Y732235D01*
X1239130Y729280D01*
Y726220D01*
X1239922Y723265D01*
X1241452Y720615D01*
X1243615Y718452D01*
X1243705Y718400D01*
Y714647D01*
X1241673Y713409D01*
X1239580Y713970D01*
X1236520D01*
X1233565Y713178D01*
X1230915Y711648D01*
X1228752Y709485D01*
X1227222Y706835D01*
X1226430Y703880D01*
Y700820D01*
X1227222Y697865D01*
X1227622Y697172D01*
X1227763Y695198D01*
X1227763Y695198D01*
X1227763Y695198D01*
Y677418D01*
Y662178D01*
Y649224D01*
Y637219D01*
X1222937D01*
Y649224D01*
Y662178D01*
Y677418D01*
Y695198D01*
X1222937Y695198D01*
X1222937D01*
X1223078Y697172D01*
X1223478Y697865D01*
X1224270Y700820D01*
Y703880D01*
X1223478Y706835D01*
X1221948Y709485D01*
X1219785Y711648D01*
X1217135Y713178D01*
X1214180Y713970D01*
X1211120D01*
X1209027Y713409D01*
X1206995Y714647D01*
Y718400D01*
X1207085Y718452D01*
X1209248Y720615D01*
X1210778Y723265D01*
X1211570Y726220D01*
Y729280D01*
X1210778Y732235D01*
X1209248Y734885D01*
X1207085Y737048D01*
X1204435Y738578D01*
X1201480Y739370D01*
X1198420D01*
X1195465Y738578D01*
X1192815Y737048D01*
X1190652Y734885D01*
X1189122Y732235D01*
X1188330Y729280D01*
Y726220D01*
X1189122Y723265D01*
X1190652Y720615D01*
X1192815Y718452D01*
X1192905Y718400D01*
Y714647D01*
X1190873Y713409D01*
X1188780Y713970D01*
X1185720D01*
X1183627Y713409D01*
X1181595Y714647D01*
Y718400D01*
X1181685Y718452D01*
X1183848Y720615D01*
X1185378Y723265D01*
X1186170Y726220D01*
Y729280D01*
X1185378Y732235D01*
X1183848Y734885D01*
X1181685Y737048D01*
X1179035Y738578D01*
X1176080Y739370D01*
X1173020D01*
X1170065Y738578D01*
X1167415Y737048D01*
X1165252Y734885D01*
X1163722Y732235D01*
X1162930Y729280D01*
Y726220D01*
X1163722Y723265D01*
X1165252Y720615D01*
X1167415Y718452D01*
X1167505Y718400D01*
Y713970D01*
X1150230D01*
Y690730D01*
X1154805D01*
Y660118D01*
X1154738D01*
Y660051D01*
X1134213D01*
Y669994D01*
X1134251D01*
X1133858Y672978D01*
X1132707Y675759D01*
X1130874Y678146D01*
X1128487Y679978D01*
X1125706Y681130D01*
X1122722Y681523D01*
X1119739Y681130D01*
X1116958Y679978D01*
X1114570Y678146D01*
X1112738Y675759D01*
X1111587Y672978D01*
X1111194Y669994D01*
X1111232D01*
Y660051D01*
X1082261D01*
X1081642Y662083D01*
X1082823Y664129D01*
X1083510Y666693D01*
Y669347D01*
X1083491Y669416D01*
X1084728Y671028D01*
X1095010D01*
Y697888D01*
X1095655Y698218D01*
Y713458D01*
Y727825D01*
X1108355D01*
Y743065D01*
Y760845D01*
X1108355D01*
X1108296Y760922D01*
X1108910Y763213D01*
Y765867D01*
X1108223Y768431D01*
X1106896Y770729D01*
X1105019Y772606D01*
X1103795Y773313D01*
Y775659D01*
X1105019Y776366D01*
X1106896Y778243D01*
X1108223Y780541D01*
X1108910Y783105D01*
Y785759D01*
X1108223Y788323D01*
X1106896Y790621D01*
X1106815Y790702D01*
X1106896Y790783D01*
X1108223Y793081D01*
X1108910Y795645D01*
Y798299D01*
X1108223Y800863D01*
X1106896Y803161D01*
X1105019Y805038D01*
X1102720Y806365D01*
X1100157Y807052D01*
D02*
G37*
G36*
X103481Y812080D02*
X99219D01*
X95009Y811413D01*
X90955Y810096D01*
X87157Y808161D01*
X83709Y805656D01*
X80695Y802641D01*
X78189Y799193D01*
X76254Y795395D01*
X74937Y791341D01*
X74270Y787131D01*
Y782869D01*
X74937Y778659D01*
X76254Y774605D01*
X78189Y770807D01*
X80695Y767359D01*
X83709Y764344D01*
X87157Y761839D01*
X90955Y759904D01*
X95009Y758587D01*
X99219Y757920D01*
X103481D01*
X107691Y758587D01*
X111745Y759904D01*
X115543Y761839D01*
X118991Y764344D01*
X122005Y767359D01*
X124511Y770807D01*
X126446Y774605D01*
X127763Y778659D01*
X128430Y782869D01*
Y787131D01*
X127763Y791341D01*
X126446Y795395D01*
X124511Y799193D01*
X122005Y802641D01*
X118991Y805656D01*
X115543Y808161D01*
X111745Y810096D01*
X107691Y811413D01*
X103481Y812080D01*
D02*
G37*
G36*
X218497Y732376D02*
X215843D01*
X213279Y731689D01*
X210981Y730362D01*
X209104Y728485D01*
X207777Y726187D01*
X207691Y725865D01*
X191612D01*
Y725920D01*
X186938Y725460D01*
X182443Y724097D01*
X178300Y721882D01*
X174670Y718902D01*
X171690Y715272D01*
X169475Y711129D01*
X168112Y706634D01*
X167652Y701960D01*
X167707D01*
Y687192D01*
X167685D01*
X168013Y683856D01*
X168986Y680648D01*
X170567Y677691D01*
X171010Y677151D01*
X170141Y675314D01*
X156648D01*
Y675336D01*
X153312Y675007D01*
X150104Y674034D01*
X147147Y672454D01*
X144556Y670328D01*
X142429Y667736D01*
X140849Y664780D01*
X139876Y661572D01*
X139547Y658236D01*
X139876Y654900D01*
X140849Y651692D01*
X142429Y648735D01*
X144556Y646144D01*
X145864Y645071D01*
Y642445D01*
X144556Y641372D01*
X142429Y638780D01*
X140849Y635824D01*
X139876Y632616D01*
X139547Y629280D01*
X139876Y625944D01*
X140849Y622736D01*
X142429Y619779D01*
X144556Y617188D01*
X147147Y615061D01*
X150104Y613481D01*
X153312Y612508D01*
X156648Y612179D01*
Y612201D01*
X167707D01*
Y610103D01*
Y561951D01*
X167709Y561936D01*
X167428Y560523D01*
X166619Y559313D01*
X165409Y558504D01*
X163996Y558223D01*
X163981Y558225D01*
X118148D01*
X118092Y558218D01*
X116448Y558545D01*
X115008Y559508D01*
X114045Y560948D01*
X113718Y562592D01*
X113725Y562648D01*
Y605530D01*
X115485Y606546D01*
X116542Y605936D01*
X119767Y605072D01*
X123105D01*
X126330Y605936D01*
X129222Y607606D01*
X131582Y609966D01*
X133252Y612858D01*
X134116Y616083D01*
Y619421D01*
X133252Y622646D01*
X131582Y625538D01*
X129222Y627898D01*
X126330Y629568D01*
X123105Y630432D01*
X119767D01*
X116542Y629568D01*
X115485Y628958D01*
X113725Y629974D01*
Y632508D01*
X113773D01*
X113493Y635350D01*
X115413Y636588D01*
X116542Y635936D01*
X119767Y635072D01*
X123105D01*
X126330Y635936D01*
X129222Y637606D01*
X131582Y639966D01*
X133252Y642858D01*
X134116Y646083D01*
Y649421D01*
X133252Y652646D01*
X131582Y655538D01*
X129222Y657898D01*
X126330Y659568D01*
X123105Y660432D01*
X119767D01*
X116542Y659568D01*
X113650Y657898D01*
X111290Y655538D01*
X109620Y652646D01*
X108801Y649591D01*
X108477Y649325D01*
X106724Y648718D01*
X103846Y651080D01*
X103642Y651189D01*
X103252Y652646D01*
X101582Y655538D01*
X99222Y657898D01*
X96330Y659568D01*
X93105Y660432D01*
X89767D01*
X86542Y659568D01*
X83650Y657898D01*
X81290Y655538D01*
X79620Y652646D01*
X78756Y649421D01*
Y646083D01*
X79620Y642858D01*
X81290Y639966D01*
X83650Y637606D01*
X86542Y635936D01*
X89767Y635072D01*
X93105D01*
X96330Y635936D01*
X96662Y636128D01*
X99122Y635202D01*
X99359Y634631D01*
X99636Y632521D01*
X99635Y632508D01*
Y630006D01*
X97603Y628833D01*
X96330Y629568D01*
X93105Y630432D01*
X89767D01*
X86542Y629568D01*
X83650Y627898D01*
X81290Y625538D01*
X79620Y622646D01*
X78756Y619421D01*
Y616083D01*
X79620Y612858D01*
X81290Y609966D01*
X83650Y607606D01*
X86542Y605936D01*
X89767Y605072D01*
X93105D01*
X94047Y604350D01*
Y594322D01*
X92102Y594066D01*
X89322Y592915D01*
X86934Y591082D01*
X85102Y588695D01*
X83950Y585914D01*
X83558Y582930D01*
X83950Y579947D01*
X85102Y577166D01*
X86934Y574779D01*
X89322Y572946D01*
X92102Y571795D01*
X94047Y571539D01*
Y562648D01*
X93991D01*
X94455Y557935D01*
X95830Y553404D01*
X98062Y549227D01*
X101066Y545566D01*
X104727Y542562D01*
X108904Y540330D01*
X113435Y538955D01*
X118148Y538491D01*
Y538547D01*
X163981D01*
Y538494D01*
X168557Y538945D01*
X172957Y540280D01*
X177013Y542447D01*
X180568Y545364D01*
X183485Y548919D01*
X185652Y552975D01*
X186987Y557375D01*
X187438Y561951D01*
X187385D01*
Y610103D01*
Y614802D01*
X187407D01*
X187079Y618138D01*
X186106Y621346D01*
X184525Y624302D01*
X184082Y624842D01*
X184951Y626679D01*
X205205D01*
Y626657D01*
X208541Y626986D01*
X211749Y627959D01*
X214705Y629539D01*
X217296Y631666D01*
X219423Y634257D01*
X221003Y637214D01*
X221976Y640422D01*
X222305Y643758D01*
X221976Y647094D01*
X221003Y650302D01*
X219423Y653258D01*
X217296Y655850D01*
X215988Y656923D01*
Y659549D01*
X217296Y660622D01*
X219423Y663213D01*
X221003Y666170D01*
X221976Y669378D01*
X222305Y672714D01*
X221976Y676050D01*
X221003Y679258D01*
X219423Y682214D01*
X217296Y684806D01*
X214705Y686932D01*
X211749Y688512D01*
X208541Y689485D01*
X205205Y689814D01*
Y689792D01*
X187385D01*
Y701960D01*
X187379Y702004D01*
X187693Y703583D01*
X188613Y704959D01*
X189989Y705879D01*
X191567Y706193D01*
X191612Y706187D01*
X207691D01*
X207777Y705865D01*
X209104Y703567D01*
X210981Y701690D01*
X213279Y700363D01*
X215843Y699676D01*
X218497D01*
X221061Y700363D01*
X223359Y701690D01*
X225236Y703567D01*
X226563Y705865D01*
X227250Y708429D01*
Y711083D01*
X226563Y713647D01*
X225236Y715945D01*
X225155Y716026D01*
X225236Y716107D01*
X226563Y718405D01*
X227250Y720969D01*
Y723623D01*
X226563Y726187D01*
X225236Y728485D01*
X223359Y730362D01*
X221061Y731689D01*
X218497Y732376D01*
D02*
G37*
G36*
X1226880Y739370D02*
X1223820D01*
X1220865Y738578D01*
X1218215Y737048D01*
X1216052Y734885D01*
X1214522Y732235D01*
X1213730Y729280D01*
Y726220D01*
X1214522Y723265D01*
X1216052Y720615D01*
X1218215Y718452D01*
X1220865Y716922D01*
X1223820Y716130D01*
X1226880D01*
X1229835Y716922D01*
X1232485Y718452D01*
X1234648Y720615D01*
X1236178Y723265D01*
X1236970Y726220D01*
Y729280D01*
X1236178Y732235D01*
X1234648Y734885D01*
X1232485Y737048D01*
X1229835Y738578D01*
X1226880Y739370D01*
D02*
G37*
G36*
X845880D02*
X842820D01*
X839865Y738578D01*
X837215Y737048D01*
X835052Y734885D01*
X833522Y732235D01*
X832730Y729280D01*
Y726220D01*
X833522Y723265D01*
X835052Y720615D01*
X837215Y718452D01*
X839865Y716922D01*
X842820Y716130D01*
X845880D01*
X848835Y716922D01*
X851485Y718452D01*
X853648Y720615D01*
X855178Y723265D01*
X855970Y726220D01*
Y729280D01*
X855178Y732235D01*
X853648Y734885D01*
X851485Y737048D01*
X848835Y738578D01*
X845880Y739370D01*
D02*
G37*
G36*
X123105Y720432D02*
X119767D01*
X116542Y719568D01*
X113650Y717898D01*
X111290Y715538D01*
X109620Y712646D01*
X108756Y709421D01*
Y706083D01*
X109620Y702858D01*
X111290Y699966D01*
X113650Y697606D01*
X116542Y695936D01*
X119767Y695072D01*
X123105D01*
X126330Y695936D01*
X129222Y697606D01*
X131582Y699966D01*
X133252Y702858D01*
X134116Y706083D01*
Y709421D01*
X133252Y712646D01*
X131582Y715538D01*
X129222Y717898D01*
X126330Y719568D01*
X123105Y720432D01*
D02*
G37*
G36*
X104116D02*
X78756D01*
Y695072D01*
X104116D01*
Y720432D01*
D02*
G37*
G36*
X49964Y703792D02*
X46508D01*
X43120Y703118D01*
X39928Y701796D01*
X37055Y699876D01*
X34612Y697433D01*
X32692Y694560D01*
X31370Y691368D01*
X30696Y687980D01*
Y684525D01*
X31370Y681136D01*
X32692Y677944D01*
X34612Y675071D01*
X37055Y672628D01*
X39928Y670708D01*
X43120Y669386D01*
X46508Y668712D01*
X49964D01*
X53352Y669386D01*
X56544Y670708D01*
X59417Y672628D01*
X61860Y675071D01*
X63780Y677944D01*
X65102Y681136D01*
X65776Y684525D01*
Y687980D01*
X65102Y691368D01*
X63780Y694560D01*
X61860Y697433D01*
X59417Y699876D01*
X56544Y701796D01*
X53352Y703118D01*
X49964Y703792D01*
D02*
G37*
G36*
X123105Y690432D02*
X119767D01*
X116542Y689568D01*
X113650Y687898D01*
X111290Y685538D01*
X109620Y682646D01*
X108756Y679421D01*
Y676083D01*
X109620Y672858D01*
X111290Y669966D01*
X113650Y667606D01*
X116542Y665936D01*
X119767Y665072D01*
X123105D01*
X126330Y665936D01*
X129222Y667606D01*
X131582Y669966D01*
X133252Y672858D01*
X134116Y676083D01*
Y679421D01*
X133252Y682646D01*
X131582Y685538D01*
X129222Y687898D01*
X126330Y689568D01*
X123105Y690432D01*
D02*
G37*
G36*
X93105D02*
X89767D01*
X86542Y689568D01*
X83650Y687898D01*
X81290Y685538D01*
X79620Y682646D01*
X78756Y679421D01*
Y676083D01*
X79620Y672858D01*
X81290Y669966D01*
X83650Y667606D01*
X86542Y665936D01*
X89767Y665072D01*
X93105D01*
X96330Y665936D01*
X99222Y667606D01*
X101582Y669966D01*
X103252Y672858D01*
X104116Y676083D01*
Y679421D01*
X103252Y682646D01*
X101582Y685538D01*
X99222Y687898D01*
X96330Y689568D01*
X93105Y690432D01*
D02*
G37*
G36*
X305413Y626079D02*
X295587D01*
X295335Y626029D01*
X295080Y626055D01*
X285302Y625092D01*
X285056Y625017D01*
X284799D01*
X275162Y623100D01*
X274925Y623002D01*
X274669Y622977D01*
X265267Y620124D01*
X265040Y620003D01*
X264788Y619953D01*
X255711Y616193D01*
X255497Y616050D01*
X255251Y615976D01*
X246586Y611344D01*
X246388Y611181D01*
X246150Y611083D01*
X237981Y605624D01*
X237799Y605443D01*
X237572Y605321D01*
X229977Y599088D01*
X229814Y598890D01*
X229601Y598747D01*
X222653Y591799D01*
X222510Y591586D01*
X222312Y591423D01*
X216078Y583828D01*
X215957Y583601D01*
X215776Y583419D01*
X210317Y575250D01*
X210219Y575013D01*
X210056Y574814D01*
X205424Y566149D01*
X205350Y565903D01*
X205207Y565689D01*
X201447Y556612D01*
X201397Y556360D01*
X201276Y556133D01*
X198423Y546731D01*
X198398Y546475D01*
X198300Y546238D01*
X196383Y536601D01*
Y536344D01*
X196308Y536098D01*
X195345Y526320D01*
X195371Y526065D01*
X195320Y525813D01*
Y515987D01*
X195371Y515735D01*
X195345Y515480D01*
X196308Y505702D01*
X196383Y505456D01*
Y505199D01*
X198300Y495562D01*
X198398Y495325D01*
X198423Y495069D01*
X201276Y485667D01*
X201397Y485440D01*
X201447Y485188D01*
X205207Y476111D01*
X205350Y475897D01*
X205424Y475651D01*
X210056Y466986D01*
X210219Y466787D01*
X210317Y466550D01*
X215776Y458381D01*
X215957Y458199D01*
X216078Y457972D01*
X222312Y450377D01*
X222510Y450214D01*
X222653Y450001D01*
X229601Y443053D01*
X229814Y442910D01*
X229977Y442712D01*
X237572Y436479D01*
X237799Y436357D01*
X237981Y436176D01*
X246150Y430717D01*
X246388Y430619D01*
X246586Y430456D01*
X255251Y425824D01*
X255497Y425750D01*
X255711Y425607D01*
X264788Y421847D01*
X265040Y421797D01*
X265267Y421676D01*
X274669Y418823D01*
X274925Y418798D01*
X275162Y418700D01*
X284799Y416783D01*
X285056D01*
X285302Y416708D01*
X295080Y415745D01*
X295335Y415771D01*
X295587Y415720D01*
X305413D01*
X305665Y415771D01*
X305920Y415745D01*
X315698Y416708D01*
X315944Y416783D01*
X316201D01*
X325838Y418700D01*
X326075Y418798D01*
X326331Y418823D01*
X335733Y421676D01*
X335960Y421797D01*
X336212Y421847D01*
X345289Y425607D01*
X345503Y425750D01*
X345749Y425824D01*
X354414Y430456D01*
X354613Y430619D01*
X354850Y430717D01*
X363019Y436176D01*
X363201Y436357D01*
X363428Y436479D01*
X371023Y442712D01*
X371186Y442910D01*
X371399Y443053D01*
X378347Y450001D01*
X378490Y450214D01*
X378688Y450377D01*
X384921Y457972D01*
X385043Y458199D01*
X385224Y458381D01*
X390683Y466550D01*
X390781Y466787D01*
X390944Y466986D01*
X395576Y475651D01*
X395650Y475897D01*
X395793Y476111D01*
X399553Y485188D01*
X399603Y485440D01*
X399724Y485667D01*
X402577Y495069D01*
X402602Y495325D01*
X402700Y495562D01*
X404617Y505199D01*
Y505456D01*
X404692Y505702D01*
X405655Y515480D01*
X405629Y515735D01*
X405680Y515987D01*
Y525813D01*
X405629Y526065D01*
X405655Y526320D01*
X404692Y536098D01*
X404617Y536344D01*
Y536601D01*
X402700Y546238D01*
X402602Y546475D01*
X402577Y546731D01*
X399724Y556133D01*
X399603Y556360D01*
X399553Y556612D01*
X395793Y565689D01*
X395650Y565903D01*
X395576Y566149D01*
X390944Y574814D01*
X390781Y575013D01*
X390683Y575250D01*
X385224Y583419D01*
X385043Y583601D01*
X384921Y583828D01*
X378688Y591423D01*
X378490Y591586D01*
X378347Y591799D01*
X371399Y598747D01*
X371186Y598890D01*
X371023Y599088D01*
X363428Y605321D01*
X363201Y605443D01*
X363019Y605624D01*
X354850Y611083D01*
X354613Y611181D01*
X354414Y611344D01*
X345749Y615976D01*
X345503Y616050D01*
X345289Y616193D01*
X336212Y619953D01*
X335960Y620003D01*
X335733Y620124D01*
X326331Y622977D01*
X326075Y623002D01*
X325838Y623100D01*
X316201Y625017D01*
X315944D01*
X315698Y625092D01*
X305920Y626055D01*
X305665Y626029D01*
X305413Y626079D01*
D02*
G37*
G36*
X49964Y656792D02*
X46508D01*
X43120Y656118D01*
X39928Y654796D01*
X37055Y652876D01*
X34612Y650433D01*
X32692Y647560D01*
X31370Y644368D01*
X30696Y640980D01*
Y637524D01*
X31370Y634136D01*
X32692Y630944D01*
X34612Y628071D01*
X37055Y625628D01*
X39928Y623708D01*
X43120Y622386D01*
X46508Y621712D01*
X49964D01*
X53352Y622386D01*
X56544Y623708D01*
X59417Y625628D01*
X61860Y628071D01*
X63780Y630944D01*
X65102Y634136D01*
X65776Y637524D01*
Y640980D01*
X65102Y644368D01*
X63780Y647560D01*
X61860Y650433D01*
X59417Y652876D01*
X56544Y654796D01*
X53352Y656118D01*
X49964Y656792D01*
D02*
G37*
G36*
X984166Y579617D02*
X981182Y579224D01*
X978401Y578073D01*
X976014Y576240D01*
X974182Y573853D01*
X973030Y571072D01*
X972637Y568088D01*
Y532215D01*
X972682Y531869D01*
X972252Y528601D01*
X970857Y525234D01*
X968639Y522342D01*
X965747Y520123D01*
X962379Y518728D01*
X959111Y518298D01*
X958766Y518344D01*
X603530D01*
X600546Y517951D01*
X597766Y516799D01*
X595378Y514967D01*
X593546Y512579D01*
X592394Y509799D01*
X592001Y506815D01*
X592394Y503831D01*
X593546Y501051D01*
X595378Y498663D01*
X597766Y496831D01*
X600546Y495679D01*
X603530Y495286D01*
X958766D01*
Y495271D01*
X964545Y495726D01*
X970182Y497079D01*
X975538Y499298D01*
X980481Y502327D01*
X984889Y506092D01*
X988654Y510500D01*
X991683Y515443D01*
X993901Y520799D01*
X995255Y526436D01*
X995710Y532215D01*
X995694D01*
Y568088D01*
X995301Y571072D01*
X994150Y573853D01*
X992318Y576240D01*
X989930Y578073D01*
X987149Y579224D01*
X984166Y579617D01*
D02*
G37*
G36*
X1169685Y358880D02*
X1166715D01*
X1163801Y358301D01*
X1161057Y357164D01*
X1158587Y355513D01*
X1156487Y353413D01*
X1154836Y350943D01*
X1153699Y348199D01*
X1153120Y345285D01*
Y342315D01*
X1153699Y339401D01*
X1154836Y336657D01*
X1156487Y334187D01*
X1158587Y332087D01*
X1161057Y330436D01*
X1163801Y329300D01*
X1166715Y328720D01*
X1169685D01*
X1172599Y329300D01*
X1175343Y330436D01*
X1177813Y332087D01*
X1179913Y334187D01*
X1181564Y336657D01*
X1182701Y339401D01*
X1183280Y342315D01*
Y345285D01*
X1182701Y348199D01*
X1181564Y350943D01*
X1179913Y353413D01*
X1177813Y355513D01*
X1175343Y357164D01*
X1172599Y358301D01*
X1169685Y358880D01*
D02*
G37*
G36*
X864885D02*
X861915D01*
X859001Y358301D01*
X856257Y357164D01*
X853787Y355513D01*
X851687Y353413D01*
X850036Y350943D01*
X848900Y348199D01*
X848320Y345285D01*
Y342315D01*
X848900Y339401D01*
X850036Y336657D01*
X851687Y334187D01*
X853787Y332087D01*
X856257Y330436D01*
X859001Y329300D01*
X861915Y328720D01*
X864885D01*
X867799Y329300D01*
X870543Y330436D01*
X873013Y332087D01*
X875113Y334187D01*
X876764Y336657D01*
X877900Y339401D01*
X878480Y342315D01*
Y345285D01*
X877900Y348199D01*
X876764Y350943D01*
X875113Y353413D01*
X873013Y355513D01*
X870543Y357164D01*
X867799Y358301D01*
X864885Y358880D01*
D02*
G37*
G36*
X1176035Y320780D02*
X1173065D01*
X1170151Y320201D01*
X1167407Y319064D01*
X1164937Y317413D01*
X1162837Y315313D01*
X1161186Y312843D01*
X1160050Y310099D01*
X1159470Y307185D01*
Y304215D01*
X1160050Y301301D01*
X1161186Y298557D01*
X1162837Y296087D01*
X1164937Y293987D01*
X1167407Y292336D01*
X1170151Y291199D01*
X1173065Y290620D01*
X1176035D01*
X1178949Y291199D01*
X1181693Y292336D01*
X1184163Y293987D01*
X1186263Y296087D01*
X1187914Y298557D01*
X1189051Y301301D01*
X1189630Y304215D01*
Y307185D01*
X1189051Y310099D01*
X1187914Y312843D01*
X1186263Y315313D01*
X1184163Y317413D01*
X1181693Y319064D01*
X1178949Y320201D01*
X1176035Y320780D01*
D02*
G37*
G36*
X858782Y323280D02*
X855319D01*
X851922Y322604D01*
X848723Y321279D01*
X845843Y319355D01*
X843395Y316907D01*
X841471Y314027D01*
X840146Y310828D01*
X839470Y307432D01*
Y303969D01*
X840146Y300572D01*
X841471Y297373D01*
X843395Y294493D01*
X845843Y292045D01*
X848723Y290121D01*
X851922Y288796D01*
X855319Y288120D01*
X858782D01*
X862178Y288796D01*
X865377Y290121D01*
X868257Y292045D01*
X870705Y294493D01*
X872629Y297373D01*
X873954Y300572D01*
X874630Y303969D01*
Y307432D01*
X873954Y310828D01*
X872629Y314027D01*
X870705Y316907D01*
X868257Y319355D01*
X865377Y321279D01*
X862178Y322604D01*
X858782Y323280D01*
D02*
G37*
G36*
X795282D02*
X791818D01*
X788422Y322604D01*
X785223Y321279D01*
X782343Y319355D01*
X779895Y316907D01*
X777971Y314027D01*
X776646Y310828D01*
X775970Y307432D01*
Y303969D01*
X776646Y300572D01*
X777971Y297373D01*
X779895Y294493D01*
X782343Y292045D01*
X785223Y290121D01*
X788235Y288873D01*
X788541Y288221D01*
X788870Y286635D01*
X782309Y280074D01*
X781250Y278694D01*
X780585Y277088D01*
X780358Y275364D01*
X780358Y275364D01*
Y270459D01*
X780378Y270307D01*
X779965Y268230D01*
X771260D01*
Y248870D01*
X772863D01*
Y221056D01*
X773012Y219922D01*
X772964Y219914D01*
X773011Y219443D01*
X773455Y217979D01*
X774136Y215733D01*
X775964Y212314D01*
X778423Y209317D01*
X779116Y208748D01*
X779270Y208570D01*
X779900Y208008D01*
Y194413D01*
X779854Y194401D01*
X777555Y193074D01*
X775679Y191197D01*
X774352Y188898D01*
X773665Y186335D01*
Y183681D01*
X774352Y181117D01*
X775679Y178818D01*
X777555Y176942D01*
X779854Y175615D01*
X782418Y174928D01*
X785072D01*
X787635Y175615D01*
X789934Y176942D01*
X790015Y177022D01*
X790095Y176942D01*
X792394Y175615D01*
X794958Y174928D01*
X797612D01*
X800175Y175615D01*
X802474Y176942D01*
X804351Y178818D01*
X805678Y181117D01*
X806365Y183681D01*
Y186335D01*
X805678Y188898D01*
X804351Y191197D01*
X802474Y193074D01*
X800175Y194401D01*
X799064Y194699D01*
Y208008D01*
X799694Y208570D01*
X799848Y208748D01*
X800541Y209317D01*
X803000Y212314D01*
X804828Y215733D01*
X805509Y217979D01*
X805953Y219443D01*
X806000Y219914D01*
X805952Y219922D01*
X806101Y221056D01*
Y248870D01*
X808620D01*
Y268230D01*
X800973D01*
X800563Y268584D01*
X800479Y271142D01*
X808132Y278795D01*
X812412D01*
X813587Y277037D01*
X815687Y274937D01*
X818157Y273286D01*
X820901Y272150D01*
X823815Y271570D01*
X826785D01*
X829699Y272150D01*
X832443Y273286D01*
X834913Y274937D01*
X837013Y277037D01*
X838664Y279507D01*
X839800Y282251D01*
X840380Y285165D01*
Y288135D01*
X839800Y291049D01*
X838664Y293793D01*
X837013Y296263D01*
X834913Y298363D01*
X832443Y300014D01*
X829699Y301150D01*
X826785Y301730D01*
X823815D01*
X820901Y301150D01*
X818157Y300014D01*
X815687Y298363D01*
X813587Y296263D01*
X811936Y293793D01*
X811242Y292117D01*
X807702D01*
X806861Y294149D01*
X807205Y294493D01*
X809129Y297373D01*
X810454Y300572D01*
X811130Y303969D01*
Y307432D01*
X810454Y310828D01*
X809129Y314027D01*
X807205Y316907D01*
X804757Y319355D01*
X801877Y321279D01*
X798678Y322604D01*
X795282Y323280D01*
D02*
G37*
G36*
X274056Y937113D02*
X269699Y936684D01*
X265510Y935414D01*
X261649Y933350D01*
X258265Y930573D01*
X255487Y927188D01*
X253423Y923327D01*
X252153Y919138D01*
X251723Y914781D01*
X251774D01*
Y910295D01*
X250510Y909325D01*
X246802D01*
X243221Y908365D01*
X240011Y906512D01*
X237389Y903890D01*
X235536Y900680D01*
X234576Y897099D01*
Y893391D01*
X235536Y889810D01*
X237389Y886600D01*
X240011Y883978D01*
X240733Y883561D01*
Y881529D01*
X240011Y881112D01*
X237389Y878490D01*
X235536Y875280D01*
X234576Y871699D01*
Y867991D01*
X235536Y864410D01*
X237389Y861200D01*
X240011Y858578D01*
X243221Y856725D01*
X246802Y855765D01*
X250510D01*
X251774Y854795D01*
Y755533D01*
X251722D01*
X252157Y750011D01*
X253450Y744625D01*
X255569Y739508D01*
X258463Y734786D01*
X262061Y730574D01*
X266272Y726976D01*
X270995Y724082D01*
X276112Y721963D01*
X281498Y720670D01*
X287020Y720235D01*
Y720287D01*
X438100D01*
X438197Y720300D01*
X440132Y719915D01*
X441854Y718764D01*
X443005Y717042D01*
X443390Y715107D01*
X443377Y715010D01*
Y147320D01*
X443317D01*
X443785Y141381D01*
X445175Y135589D01*
X447455Y130085D01*
X450568Y125006D01*
X454436Y120476D01*
X458966Y116607D01*
X464045Y113495D01*
X469549Y111215D01*
X475342Y109824D01*
X481280Y109357D01*
Y109417D01*
X709272D01*
X709427Y108838D01*
X710754Y106540D01*
X712631Y104663D01*
X714929Y103336D01*
X717493Y102649D01*
X720147D01*
X722711Y103336D01*
X725009Y104663D01*
X726886Y106540D01*
X728213Y108838D01*
X728900Y111402D01*
Y114056D01*
X728213Y116620D01*
X726886Y118918D01*
X726805Y118999D01*
X726886Y119080D01*
X728213Y121378D01*
X728900Y123942D01*
Y126596D01*
X728213Y129160D01*
X726886Y131458D01*
X725009Y133335D01*
X722711Y134662D01*
X720147Y135349D01*
X717493D01*
X714929Y134662D01*
X712631Y133335D01*
X710754Y131458D01*
X709427Y129160D01*
X709272Y128581D01*
X669149D01*
X668620Y130394D01*
X668620D01*
X668253Y133179D01*
X667178Y135774D01*
X665468Y138002D01*
X663240Y139712D01*
X660645Y140787D01*
X657860Y141154D01*
X655075Y140787D01*
X652480Y139712D01*
X650251Y138002D01*
X648541Y135774D01*
X647467Y133179D01*
X647100Y130394D01*
X647100D01*
X646571Y128581D01*
X481280D01*
X481192Y128569D01*
X477621Y128921D01*
X474101Y129989D01*
X470858Y131722D01*
X468016Y134055D01*
X465682Y136898D01*
X463949Y140141D01*
X462881Y143660D01*
X462530Y147232D01*
X462541Y147320D01*
Y715010D01*
X462602D01*
X462132Y719790D01*
X460737Y724387D01*
X458473Y728623D01*
X455426Y732336D01*
X451713Y735383D01*
X447477Y737647D01*
X442880Y739041D01*
X438100Y739512D01*
Y739451D01*
X287020D01*
X286988Y739447D01*
X283881Y739753D01*
X280863Y740668D01*
X278081Y742155D01*
X275643Y744156D01*
X273642Y746594D01*
X272155Y749376D01*
X271240Y752394D01*
X270934Y755501D01*
X270938Y755533D01*
Y854795D01*
X272202Y855765D01*
X275910D01*
X279491Y856725D01*
X282701Y858578D01*
X285323Y861200D01*
X287176Y864410D01*
X287217Y864562D01*
X289249Y864294D01*
Y782828D01*
X289203D01*
X289614Y777607D01*
X290837Y772514D01*
X292841Y767675D01*
X295578Y763210D01*
X298979Y759227D01*
X302962Y755826D01*
X307427Y753089D01*
X312266Y751085D01*
X317359Y749862D01*
X322580Y749451D01*
Y749497D01*
X457962D01*
X458116Y749517D01*
X461311Y749097D01*
X464431Y747804D01*
X467110Y745748D01*
X469166Y743069D01*
X470459Y739949D01*
X470879Y736755D01*
X470859Y736600D01*
Y186690D01*
X470799D01*
X471266Y180751D01*
X472657Y174959D01*
X474937Y169455D01*
X478049Y164376D01*
X481918Y159846D01*
X486448Y155977D01*
X491527Y152865D01*
X497031Y150585D01*
X502823Y149194D01*
X508762Y148727D01*
Y148787D01*
X1217121D01*
Y148746D01*
X1221103Y149138D01*
X1224933Y150300D01*
X1228462Y152186D01*
X1231556Y154725D01*
X1234095Y157819D01*
X1235981Y161348D01*
X1237143Y165178D01*
X1237535Y169160D01*
X1237494Y169160D01*
X1237494Y170121D01*
Y193520D01*
Y212188D01*
X1238123Y212750D01*
X1238278Y212928D01*
X1238971Y213497D01*
X1241430Y216494D01*
X1243258Y219913D01*
X1243939Y222159D01*
X1244383Y223623D01*
X1244429Y224094D01*
X1244381Y224102D01*
X1244531Y225236D01*
Y253050D01*
X1247050D01*
Y272410D01*
X1238012D01*
X1237986Y272473D01*
X1237979Y272476D01*
X1237952Y272486D01*
Y290620D01*
X1239535D01*
X1242449Y291199D01*
X1245193Y292336D01*
X1247663Y293987D01*
X1249763Y296087D01*
X1251414Y298557D01*
X1252551Y301301D01*
X1253130Y304215D01*
Y307185D01*
X1252551Y310099D01*
X1251414Y312843D01*
X1249763Y315313D01*
X1247663Y317413D01*
X1245193Y319064D01*
X1242449Y320201D01*
X1239535Y320780D01*
X1236565D01*
X1233651Y320201D01*
X1230907Y319064D01*
X1228437Y317413D01*
X1226337Y315313D01*
X1224686Y312843D01*
X1223549Y310099D01*
X1222970Y307185D01*
Y304215D01*
X1223549Y301301D01*
X1224630Y298693D01*
Y293783D01*
X1222940Y292654D01*
X1222311Y292915D01*
X1219896Y293233D01*
X1219664Y293793D01*
X1218013Y296263D01*
X1215913Y298363D01*
X1213443Y300014D01*
X1210699Y301150D01*
X1207785Y301730D01*
X1204815D01*
X1201901Y301150D01*
X1199157Y300014D01*
X1196687Y298363D01*
X1194587Y296263D01*
X1192936Y293793D01*
X1191799Y291049D01*
X1191220Y288135D01*
Y285165D01*
X1191799Y282251D01*
X1192936Y279507D01*
X1194587Y277037D01*
X1196687Y274937D01*
X1199157Y273286D01*
X1201901Y272150D01*
X1204815Y271570D01*
X1207785D01*
X1208119Y271636D01*
X1209690Y270347D01*
Y253050D01*
X1211293D01*
Y225236D01*
X1211442Y224102D01*
X1211394Y224094D01*
X1211441Y223623D01*
X1211885Y222159D01*
X1212566Y219913D01*
X1214393Y216494D01*
X1216853Y213497D01*
X1217546Y212928D01*
X1217700Y212750D01*
X1218330Y212188D01*
Y170121D01*
X1218279Y170121D01*
X1218279Y170121D01*
X1218075Y169127D01*
X1217663Y168618D01*
X1216841Y167951D01*
X1145879D01*
X1145080Y169879D01*
X1143472Y171975D01*
X1141376Y173583D01*
X1138935Y174594D01*
X1136316Y174939D01*
X1133697Y174594D01*
X1131256Y173583D01*
X1129161Y171975D01*
X1127552Y169879D01*
X1126754Y167951D01*
X508762D01*
X508674Y167939D01*
X505102Y168291D01*
X501583Y169359D01*
X498340Y171092D01*
X495497Y173425D01*
X493164Y176268D01*
X491431Y179511D01*
X490363Y183030D01*
X490011Y186602D01*
X490023Y186690D01*
Y736600D01*
X490065D01*
X489670Y741622D01*
X488494Y746520D01*
X486566Y751174D01*
X483934Y755470D01*
X480662Y759300D01*
X476832Y762572D01*
X472536Y765204D01*
X467882Y767132D01*
X462984Y768308D01*
X457962Y768703D01*
Y768661D01*
X322580D01*
X322384Y768635D01*
X318900Y769094D01*
X315471Y770514D01*
X312526Y772774D01*
X310266Y775719D01*
X308846Y779148D01*
X308387Y782632D01*
X308413Y782828D01*
Y915670D01*
X308459D01*
X308047Y919853D01*
X306827Y923874D01*
X304846Y927581D01*
X302180Y930830D01*
X298931Y933496D01*
X295224Y935477D01*
X291203Y936697D01*
X287020Y937109D01*
Y937063D01*
X274056D01*
Y937113D01*
D02*
G37*
G36*
X1353797Y102328D02*
X1348903D01*
X1344052Y101689D01*
X1339326Y100423D01*
X1334805Y98550D01*
X1330567Y96104D01*
X1326685Y93125D01*
X1323225Y89665D01*
X1320246Y85783D01*
X1317800Y81545D01*
X1315927Y77024D01*
X1314661Y72298D01*
X1314022Y67447D01*
Y62553D01*
X1314661Y57702D01*
X1315927Y52976D01*
X1317800Y48455D01*
X1320246Y44217D01*
X1323225Y40335D01*
X1326685Y36875D01*
X1330567Y33896D01*
X1334805Y31450D01*
X1339326Y29577D01*
X1344052Y28311D01*
X1348903Y27672D01*
X1353797D01*
X1358648Y28311D01*
X1363374Y29577D01*
X1367895Y31450D01*
X1372133Y33896D01*
X1376015Y36875D01*
X1379475Y40335D01*
X1382454Y44217D01*
X1384900Y48455D01*
X1386773Y52976D01*
X1388039Y57702D01*
X1388678Y62553D01*
Y67447D01*
X1388039Y72298D01*
X1386773Y77024D01*
X1384900Y81545D01*
X1382454Y85783D01*
X1379475Y89665D01*
X1376015Y93125D01*
X1372133Y96104D01*
X1367895Y98550D01*
X1363374Y100423D01*
X1358648Y101689D01*
X1353797Y102328D01*
D02*
G37*
G36*
X103797D02*
X98903D01*
X94052Y101689D01*
X89326Y100423D01*
X84805Y98550D01*
X80567Y96104D01*
X76685Y93125D01*
X73225Y89665D01*
X70246Y85783D01*
X67800Y81545D01*
X65927Y77024D01*
X64661Y72298D01*
X64022Y67447D01*
Y62553D01*
X64661Y57702D01*
X65927Y52976D01*
X67800Y48455D01*
X70246Y44217D01*
X73225Y40335D01*
X76685Y36875D01*
X80567Y33896D01*
X84805Y31450D01*
X89326Y29577D01*
X94052Y28311D01*
X98903Y27672D01*
X103797D01*
X108648Y28311D01*
X113374Y29577D01*
X117895Y31450D01*
X122133Y33896D01*
X126015Y36875D01*
X129475Y40335D01*
X132454Y44217D01*
X134900Y48455D01*
X136773Y52976D01*
X138039Y57702D01*
X138678Y62553D01*
Y67447D01*
X138039Y72298D01*
X136773Y77024D01*
X134900Y81545D01*
X132454Y85783D01*
X129475Y89665D01*
X126015Y93125D01*
X122133Y96104D01*
X117895Y98550D01*
X113374Y100423D01*
X108648Y101689D01*
X103797Y102328D01*
D02*
G37*
%LPD*%
G36*
X1185720Y690730D02*
X1187925D01*
Y677418D01*
Y662178D01*
X1203887D01*
Y649224D01*
Y639064D01*
X1187925D01*
Y636611D01*
X1185893Y635438D01*
X1184968Y635972D01*
X1182288Y636690D01*
X1179512D01*
X1176832Y635972D01*
X1174428Y634584D01*
X1172466Y632622D01*
X1171078Y630218D01*
X1170360Y627538D01*
Y624762D01*
X1171078Y622082D01*
X1172466Y619678D01*
X1174428Y617716D01*
X1176832Y616328D01*
X1179512Y615610D01*
X1182288D01*
X1184968Y616328D01*
X1185893Y616862D01*
X1187925Y615689D01*
Y606834D01*
X1187370Y604762D01*
Y602108D01*
X1188057Y599545D01*
X1189384Y597246D01*
X1191261Y595369D01*
X1193559Y594042D01*
X1196123Y593355D01*
X1198777D01*
X1201341Y594042D01*
X1203639Y595369D01*
X1205516Y597246D01*
X1206523Y598990D01*
X1207118Y599160D01*
X1208189D01*
X1208784Y598990D01*
X1209791Y597246D01*
X1211668Y595369D01*
X1213966Y594042D01*
X1215511Y593629D01*
Y551977D01*
X1215512Y551969D01*
X1215238Y550595D01*
X1214455Y549422D01*
X1213283Y548639D01*
X1211908Y548366D01*
X1211900Y548367D01*
X1084566D01*
X1083656Y549008D01*
X1083015Y549917D01*
Y565660D01*
X1082995Y565813D01*
X1083401Y568897D01*
X1084650Y571914D01*
X1085434Y572934D01*
X1086700Y574442D01*
X1086700Y574442D01*
X1089469Y577817D01*
X1091527Y581667D01*
X1092759Y585728D01*
X1095010D01*
Y612588D01*
X1083987D01*
X1082860Y614245D01*
X1082861Y614620D01*
X1083510Y617041D01*
Y619695D01*
X1082823Y622259D01*
X1081496Y624557D01*
X1079619Y626434D01*
X1077320Y627761D01*
X1074757Y628448D01*
X1072103D01*
X1069539Y627761D01*
X1067241Y626434D01*
X1065364Y624557D01*
X1064037Y622259D01*
X1063350Y619695D01*
Y617041D01*
X1063998Y614620D01*
X1064000Y614245D01*
X1062872Y612588D01*
X1029182D01*
X1028027Y616395D01*
X1025969Y620245D01*
X1023200Y623620D01*
X1023200Y623620D01*
X1021948Y625133D01*
X1021439Y625797D01*
X1020364Y628391D01*
X1020010Y631079D01*
X1020023Y631176D01*
Y638252D01*
X1020050D01*
X1020209Y639053D01*
X1020663Y639733D01*
X1021342Y640187D01*
X1022144Y640346D01*
Y640373D01*
X1165498D01*
Y640355D01*
X1168641Y640665D01*
X1171665Y641582D01*
X1174451Y643071D01*
X1176893Y645075D01*
X1178897Y647517D01*
X1180386Y650303D01*
X1181303Y653327D01*
X1181613Y656470D01*
X1181595D01*
Y690053D01*
X1183627Y691291D01*
X1185720Y690730D01*
D02*
G37*
G36*
X1055333Y581667D02*
X1057391Y577817D01*
X1060160Y574442D01*
X1060160Y574442D01*
X1061429Y572936D01*
X1061974Y572226D01*
X1063006Y569734D01*
X1063347Y567142D01*
X1063336Y567060D01*
Y549460D01*
X1063297D01*
X1063697Y545400D01*
X1064881Y541496D01*
X1066804Y537898D01*
X1069392Y534744D01*
X1072546Y532156D01*
X1075483Y530586D01*
X1074974Y528554D01*
X1020564D01*
Y528558D01*
X1019437Y528783D01*
X1018482Y529421D01*
X1017844Y530376D01*
X1017620Y531502D01*
X1017616D01*
Y585728D01*
X1018810D01*
Y585728D01*
X1054101D01*
X1055333Y581667D01*
D02*
G37*
D26*
X180340Y687192D02*
G03*
X184785Y682747I4445J0D01*
G01*
X205205Y662681D02*
G03*
X205205Y682747I0J10033D01*
G01*
X156648Y662681D02*
G03*
X156648Y653791I0J-4445D01*
G01*
X205205Y633725D02*
G03*
X205205Y653791I0J10033D01*
G01*
X156648Y633725D02*
G03*
X156648Y624835I0J-4445D01*
G01*
X180340Y614802D02*
G03*
X170307Y624835I-10033J0D01*
G01*
X174752Y687192D02*
G03*
X184785Y677159I10033J0D01*
G01*
X205205Y668269D02*
G03*
X205205Y677159I0J4445D01*
G01*
X156648Y668269D02*
G03*
X156648Y648203I0J-10033D01*
G01*
X205205Y639313D02*
G03*
X205205Y648203I0J4445D01*
G01*
X156648Y639313D02*
G03*
X156648Y619247I0J-10033D01*
G01*
X174752Y614802D02*
G03*
X170307Y619247I-4445J0D01*
G01*
X1289000Y930474D02*
G03*
X1274594Y944880I-14406J0D01*
G01*
X549059Y818299D02*
G03*
X542116Y801540I16754J-16759D01*
G01*
X553262Y814599D02*
G03*
X547704Y801181I13418J-13418D01*
G01*
X566420Y835660D02*
G03*
X572308Y849876I-14216J14216D01*
G01*
Y905550D02*
G03*
X561982Y915877I-10327J0D01*
G01*
X518150Y904245D02*
G03*
X527150Y895245I9000J0D01*
G01*
X523541Y915877D02*
G03*
X518150Y910485I0J-5392D01*
G01*
X539824Y658179D02*
G03*
X542116Y663712I-5533J5533D01*
G01*
X539824Y658179D02*
G03*
X538640Y655320I2859J-2859D01*
G01*
X570383Y831721D02*
G03*
X577896Y849859I-18138J18138D01*
G01*
Y905550D02*
G03*
X561982Y921465I-15915J0D01*
G01*
X522936D02*
G03*
X512562Y911090I0J-10374D01*
G01*
X503562Y895245D02*
G03*
X512562Y904245I0J9000D01*
G01*
X547704Y663712D02*
G03*
X549996Y658179I7824J0D01*
G01*
X551180Y655320D02*
G03*
X549996Y658179I-4044J0D01*
G01*
X577664Y822944D02*
G03*
X577656Y822937I3666J-4218D01*
G01*
X582667Y819893D02*
G03*
X593355Y843644I-21044J23751D01*
G01*
X578976Y824089D02*
G03*
X587767Y843644I-17354J19555D01*
G01*
X575850Y821361D02*
G03*
X574930Y820501I12035J-13793D01*
G01*
Y820501D02*
G03*
X568452Y804845I15678J-15656D01*
G01*
X578885Y816553D02*
G03*
X574040Y804845I11724J-11708D01*
G01*
X593355Y917990D02*
G03*
X575596Y935749I-17759J0D01*
G01*
X587767Y917990D02*
G03*
X575596Y930161I-12171J0D01*
G01*
X579524Y817150D02*
G03*
X578885Y816553I8361J-9582D01*
G01*
X1211900Y535733D02*
G03*
X1228144Y551977I0J16244D01*
G01*
X1075970Y549460D02*
G03*
X1084109Y541321I8139J0D01*
G01*
X1211900D02*
G03*
X1222556Y551977I0J10656D01*
G01*
X1070382Y549460D02*
G03*
X1084109Y535733I13727J0D01*
G01*
X107844Y962656D02*
G03*
X103399Y958212I0J-4445D01*
G01*
X94509Y954417D02*
G03*
X103399Y954417I4445J0D01*
G01*
X94509Y958212D02*
G03*
X90064Y962656I-4445J0D01*
G01*
X96647Y587375D02*
G03*
X101092Y591820I0J4445D01*
G01*
X95086Y587375D02*
G03*
X95086Y578485I0J-4445D01*
G01*
X101092Y574040D02*
G03*
X96647Y578485I-4445J0D01*
G01*
X163981Y545592D02*
G03*
X180340Y561951I0J16359D01*
G01*
X101092Y562648D02*
G03*
X118148Y545592I17056J0D01*
G01*
X163981Y551180D02*
G03*
X174752Y561951I0J10771D01*
G01*
X106680Y562648D02*
G03*
X118148Y551180I11468J0D01*
G01*
X812373Y850665D02*
G03*
X812373Y870731I0J10033D01*
G01*
X801237Y850665D02*
G03*
X796792Y846220I0J-4445D01*
G01*
X812373Y856253D02*
G03*
X812373Y865143I0J4445D01*
G01*
X801237Y856253D02*
G03*
X791204Y846220I0J-10033D01*
G01*
X812373Y914165D02*
G03*
X812373Y923055I0J4445D01*
G01*
Y885209D02*
G03*
X812373Y894099I0J4445D01*
G01*
X788410Y933088D02*
G03*
X798443Y923055I10033J0D01*
G01*
X788410Y953082D02*
G03*
X778836Y962656I-9574J0D01*
G01*
X797865Y885209D02*
G03*
X797865Y865143I0J-10033D01*
G01*
Y914165D02*
G03*
X797865Y894099I0J-10033D01*
G01*
X780353Y799977D02*
G03*
X791204Y810828I0J10851D01*
G01*
X760627Y824803D02*
G03*
X740561Y824803I-10033J0D01*
G01*
X731671Y804464D02*
G03*
X740561Y804464I4445J0D01*
G01*
X760627Y811982D02*
G03*
X772632Y799977I12005J0D01*
G01*
X702715Y823364D02*
G03*
X682649Y823364I-10033J0D01*
G01*
X731671D02*
G03*
X711605Y823364I-10033J0D01*
G01*
X60732Y905369D02*
G03*
X70856Y895245I10124J0D01*
G01*
X74205Y962656D02*
G03*
X60732Y949183I0J-13474D01*
G01*
X673759Y823364D02*
G03*
X653693Y823364I-10033J0D01*
G01*
X673759Y804464D02*
G03*
X682649Y804464I4445J0D01*
G01*
X702715D02*
G03*
X711605Y804464I4445J0D01*
G01*
X649248Y800739D02*
G03*
X653693Y805184I0J4445D01*
G01*
X639921Y800796D02*
G03*
X626198Y787726I-637J-13070D01*
G01*
X620675Y741795D02*
G03*
X626198Y754654I-13349J13349D01*
G01*
X620675Y741795D02*
G03*
X616230Y731064I10731J-10731D01*
G01*
X822352Y917572D02*
G03*
X812373Y928643I-9979J1038D01*
G01*
Y908577D02*
G03*
X812373Y928643I0J10033D01*
G01*
Y879621D02*
G03*
X812373Y899687I0J10033D01*
G01*
X793998Y933088D02*
G03*
X798443Y928643I4445J0D01*
G01*
X793998Y953082D02*
G03*
X778836Y968244I-15162J0D01*
G01*
X797865Y879621D02*
G03*
X797865Y870731I0J-4445D01*
G01*
Y908577D02*
G03*
X797865Y899687I0J-4445D01*
G01*
X780353Y794389D02*
G03*
X796792Y810828I0J16439D01*
G01*
X755039Y824803D02*
G03*
X746149Y824803I-4445J0D01*
G01*
X755039Y811982D02*
G03*
X772632Y794389I17593J0D01*
G01*
X726083Y804464D02*
G03*
X746149Y804464I10033J0D01*
G01*
X697127Y823364D02*
G03*
X688237Y823364I-4445J0D01*
G01*
X726083D02*
G03*
X717193Y823364I-4445J0D01*
G01*
X74205Y968244D02*
G03*
X55144Y949183I0J-19062D01*
G01*
X668171Y823364D02*
G03*
X659281Y823364I-4445J0D01*
G01*
X668171Y804464D02*
G03*
X688237Y804464I10033J0D01*
G01*
X649248Y795151D02*
G03*
X659281Y805184I0J10033D01*
G01*
X697127Y804464D02*
G03*
X717193Y804464I10033J0D01*
G01*
X639952Y795151D02*
G03*
X632011Y787210I0J-7941D01*
G01*
X631786Y754653D02*
G03*
X637061Y741919I18009J0D01*
G01*
X641630Y731064D02*
G03*
X637185Y741795I-15176J0D01*
G01*
X881006Y794243D02*
G03*
X883866Y793059I2859J2859D01*
G01*
X880453Y794797D02*
G03*
X876257Y796535I-4196J-4196D01*
G01*
X835432Y809260D02*
G03*
X848157Y796535I12725J0D01*
G01*
X835432Y969185D02*
G03*
X823939Y980678I-11493J0D01*
G01*
X698681Y777922D02*
G03*
X695205Y774446I0J-3476D01*
G01*
Y755765D02*
G03*
X699015Y751955I3810J0D01*
G01*
X27401Y980678D02*
G03*
X18554Y971831I0J-8847D01*
G01*
X48286Y831088D02*
G03*
X55652Y838454I0J7366D01*
G01*
Y859649D02*
G03*
X45456Y869845I-10196J0D01*
G01*
X18554Y838454D02*
G03*
X25920Y831088I7366J0D01*
G01*
X883866Y805599D02*
G03*
X881006Y804415I0J-4044D01*
G01*
X876257Y802123D02*
G03*
X880453Y803861I0J5934D01*
G01*
X841020Y969185D02*
G03*
X823939Y986266I-17081J0D01*
G01*
X841020Y809260D02*
G03*
X848157Y802123I7137J0D01*
G01*
X70856Y869845D02*
G03*
X61240Y860229I0J-9616D01*
G01*
X27401Y986266D02*
G03*
X12966Y971831I0J-14435D01*
G01*
Y838454D02*
G03*
X25920Y825500I12954J0D01*
G01*
X689617Y774446D02*
G03*
X686141Y777922I-3476J0D01*
G01*
X685807Y751955D02*
G03*
X689617Y755765I0J3810D01*
G01*
X48286Y825500D02*
G03*
X61240Y838454I0J12954D01*
G01*
X1007198Y774272D02*
G03*
X1003722Y777748I-3476J0D01*
G01*
X1001675Y741795D02*
G03*
X1007198Y754654I-13349J13349D01*
G01*
X1001675Y741795D02*
G03*
X997230Y731064I10731J-10731D01*
G01*
X1022630D02*
G03*
X1018185Y741795I-15176J0D01*
G01*
X1016262Y777748D02*
G03*
X1012786Y774272I0J-3476D01*
G01*
Y754653D02*
G03*
X1018061Y741919I18009J0D01*
G01*
X1066807Y751955D02*
G03*
X1070617Y755765I0J3810D01*
G01*
X1086384Y793496D02*
G03*
X1070617Y777729I0J-15767D01*
G01*
X1095354Y793496D02*
G03*
X1098830Y796972I0J3476D01*
G01*
X1076205Y755765D02*
G03*
X1080015Y751955I3810J0D01*
G01*
X1086384Y787908D02*
G03*
X1076205Y777729I0J-10179D01*
G01*
X1098830Y784432D02*
G03*
X1095354Y787908I-3476J0D01*
G01*
X191612Y718820D02*
G03*
X174752Y701960I0J-16860D01*
G01*
X191612Y713232D02*
G03*
X180340Y701960I0J-11272D01*
G01*
X208778Y718820D02*
G03*
X214311Y721112I0J7824D01*
G01*
X217170Y722296D02*
G03*
X214311Y721112I0J-4044D01*
G01*
X512562Y856397D02*
G03*
X509329Y863718I-9906J0D01*
G01*
X510824Y755253D02*
G03*
X512562Y759449I-4196J4196D01*
G01*
X510270Y754699D02*
G03*
X509086Y751840I2859J-2859D01*
G01*
X106680Y632508D02*
G03*
X91436Y647752I-15244J0D01*
G01*
X214311Y710940D02*
G03*
X208778Y713232I-5533J-5533D01*
G01*
X214311Y710940D02*
G03*
X217170Y709756I2859J2859D01*
G01*
X521626Y751840D02*
G03*
X520442Y754699I-4044J0D01*
G01*
X521270Y863465D02*
G03*
X518150Y856248I6786J-7217D01*
G01*
Y759449D02*
G03*
X519888Y755253I5934J0D01*
G01*
X101092Y608096D02*
G03*
X91436Y617752I-9656J0D01*
G01*
X577516Y590550D02*
G03*
X576332Y593409I-4044J0D01*
G01*
X574040Y598159D02*
G03*
X575778Y593963I5934J0D01*
G01*
X566160Y593409D02*
G03*
X564976Y590550I2859J-2859D01*
G01*
X566714Y593963D02*
G03*
X568452Y598159I-4196J4196D01*
G01*
X451371Y930161D02*
G03*
X441950Y920740I0J-9421D01*
G01*
X451371Y935749D02*
G03*
X436362Y920740I0J-15009D01*
G01*
X441950Y905151D02*
G03*
X451856Y895245I9906J0D01*
G01*
X426456D02*
G03*
X436362Y905151I0J9906D01*
G01*
X18554Y939419D02*
G03*
X22999Y934974I4445J0D01*
G01*
X35801Y926084D02*
G03*
X35801Y934974I0J4445D01*
G01*
X22999Y926084D02*
G03*
X18554Y921639I0J-4445D01*
G01*
X746167Y657451D02*
G03*
X750612Y653006I4445J0D01*
G01*
X746167Y669645D02*
G03*
X737277Y669645I-4445J0D01*
G01*
X732832Y653006D02*
G03*
X737277Y657451I0J4445D01*
G01*
X1127167D02*
G03*
X1131612Y653006I4445J0D01*
G01*
X1127167Y669994D02*
G03*
X1118277Y669994I-4445J0D01*
G01*
X1113832Y653006D02*
G03*
X1118277Y657451I0J4445D01*
G01*
X1237288Y614934D02*
G03*
X1231922Y609568I0J-5366D01*
G01*
X1217857Y610489D02*
G03*
X1214101Y614880I-4445J0D01*
G01*
D02*
G03*
X1213412Y614934I-689J-4391D01*
G01*
X1081685Y579457D02*
G03*
X1086130Y590188I-10731J10731D01*
G01*
X1065298Y579333D02*
G03*
X1065175Y579457I-12694J-12446D01*
G01*
X1081685D02*
G03*
X1075970Y565660I13797J-13797D01*
G01*
X1070382Y567060D02*
G03*
X1065298Y579333I-17356J0D01*
G01*
X1060730Y590188D02*
G03*
X1065175Y579457I15176J0D01*
G01*
X856288Y614934D02*
G03*
X850922Y609568I0J-5366D01*
G01*
Y603436D02*
G03*
X847144Y599658I0J-3778D01*
G01*
X830900Y537780D02*
G03*
X847144Y554024I0J16244D01*
G01*
X689382Y551507D02*
G03*
X703109Y537780I13727J0D01*
G01*
X679730Y590188D02*
G03*
X684175Y579457I15176J0D01*
G01*
X689382Y567060D02*
G03*
X684298Y579333I-17356J0D01*
G01*
X836857Y610489D02*
G03*
X833101Y614880I-4445J0D01*
G01*
X841556Y598736D02*
G03*
X836857Y603436I-4699J0D01*
G01*
X830749Y543368D02*
G03*
X841556Y554175I0J10807D01*
G01*
X700685Y579457D02*
G03*
X694970Y565660I13797J-13797D01*
G01*
Y551507D02*
G03*
X703109Y543368I8139J0D01*
G01*
X833101Y614880D02*
G03*
X832412Y614934I-689J-4391D01*
G01*
X700685Y579457D02*
G03*
X705130Y590188I-10731J10731D01*
G01*
X684298Y579333D02*
G03*
X684175Y579457I-12694J-12446D01*
G01*
X1165498Y647418D02*
G03*
X1174550Y656470I0J9053D01*
G01*
X1022144Y647418D02*
G03*
X1012978Y638252I0J-9166D01*
G01*
Y631176D02*
G03*
X1018061Y618729I17778J0D01*
G01*
X1022630Y607874D02*
G03*
X1018185Y618605I-15176J0D01*
G01*
X1154738Y653006D02*
G03*
X1161850Y660118I0J7112D01*
G01*
X1022144Y653006D02*
G03*
X1007390Y638252I0J-14754D01*
G01*
X1001675Y618605D02*
G03*
X997230Y607874I10731J-10731D01*
G01*
X1018061Y618729D02*
G03*
X1018185Y618605I12694J12446D01*
G01*
X1001675D02*
G03*
X1007390Y632402I-13797J13797D01*
G01*
X1264666Y642366D02*
G03*
X1268730Y646430I0J4064D01*
G01*
X1222556Y598736D02*
G03*
X1217857Y603436I-4699J0D01*
G01*
X1231922D02*
G03*
X1228144Y599658I0J-3778D01*
G01*
X883666Y642366D02*
G03*
X887730Y646430I0J4064D01*
G01*
X620675Y618605D02*
G03*
X616230Y607874I10731J-10731D01*
G01*
X641144Y653006D02*
G03*
X626390Y638252I0J-14754D01*
G01*
X620675Y618605D02*
G03*
X626390Y632402I-13797J13797D01*
G01*
X641630Y607874D02*
G03*
X637185Y618605I-15176J0D01*
G01*
X637061Y618729D02*
G03*
X637185Y618605I12694J12446D01*
G01*
X631978Y631176D02*
G03*
X637061Y618729I17778J0D01*
G01*
X641144Y647418D02*
G03*
X631978Y638252I0J-9166D01*
G01*
X654076Y706854D02*
G03*
X654330Y707108I0J254D01*
G01*
X773738Y653006D02*
G03*
X780850Y660118I0J7112D01*
G01*
X784498Y647418D02*
G03*
X793550Y656470I0J9053D01*
G01*
X146874Y933958D02*
G03*
X134392Y921476I0J-12482D01*
G01*
X134160Y944880D02*
G03*
X121656Y932376I0J-12504D01*
G01*
X131801Y879990D02*
G03*
X134392Y886245I-6255J6255D01*
G01*
Y894457D02*
G03*
X134388Y894638I-3810J0D01*
G01*
Y895852D02*
G03*
X134388Y894638I12668J-607D01*
G01*
Y895852D02*
G03*
X134392Y896033I-3806J181D01*
G01*
X45456Y895245D02*
G03*
X55144Y904933I0J9688D01*
G01*
X180340Y687192D02*
Y700831D01*
X184785Y682747D02*
X205205D01*
X156648Y662681D02*
X205205D01*
X156648Y653791D02*
X205205D01*
X156648Y633725D02*
X205205D01*
X156648Y624835D02*
X170307D01*
X180340Y610103D02*
Y614802D01*
X174752Y687192D02*
Y700831D01*
X184785Y677159D02*
X205205D01*
X156648Y668269D02*
X205205D01*
X156648Y648203D02*
X205205D01*
X156648Y639313D02*
X205205D01*
X156648Y619247D02*
X170307D01*
X174752Y610103D02*
Y614802D01*
X863600Y919480D02*
X1092200D01*
X908000Y944880D02*
X1274594D01*
X1289000Y856550D02*
Y930474D01*
X549059Y818299D02*
X566420Y835660D01*
X542116Y663712D02*
Y801518D01*
X542116Y801540D02*
X542116Y801518D01*
X547704Y663712D02*
Y801181D01*
X553262Y814599D02*
X570383Y831721D01*
X523541Y915877D02*
X561982D01*
X572308Y849876D02*
Y905550D01*
X527150Y895245D02*
X528056D01*
X518150Y904245D02*
Y910485D01*
X577896Y849859D02*
Y905550D01*
X522936Y921465D02*
X561982D01*
X512562Y904245D02*
Y911090D01*
X502656Y895245D02*
X503562D01*
X593355Y843644D02*
Y917990D01*
X581330Y818726D02*
X582667Y819893D01*
X579524Y817150D02*
X581330Y818726D01*
X577664Y822944D02*
X578976Y824089D01*
X587767Y843644D02*
Y917990D01*
X575850Y821361D02*
X577656Y822937D01*
X578885Y816553D02*
X578885Y816553D01*
X451371Y935749D02*
X575596D01*
X451371Y930161D02*
X575596D01*
X1222556Y551977D02*
Y598736D01*
X1084109Y535733D02*
X1211900D01*
X1228144Y551977D02*
Y599658D01*
X1075970Y549460D02*
Y565660D01*
X1070382Y549460D02*
Y567060D01*
X1084109Y541321D02*
X1211900D01*
X107844Y962656D02*
X115062D01*
X103399Y954417D02*
Y958212D01*
X94509Y954417D02*
Y958212D01*
X79269Y962656D02*
X90064D01*
X101092Y591820D02*
Y599465D01*
X95086Y587375D02*
X96647D01*
X95086Y578485D02*
X96647D01*
X101092Y572135D02*
Y574040D01*
Y599465D02*
Y608096D01*
Y562648D02*
Y572135D01*
X118148Y545592D02*
X163981D01*
X180340Y561951D02*
Y610103D01*
X118148Y551180D02*
X163981D01*
X174752Y561951D02*
Y610103D01*
X106680Y562648D02*
Y632508D01*
X180340Y700831D02*
Y701960D01*
X174752Y700831D02*
Y701960D01*
X74205Y962656D02*
X79269D01*
X115062D02*
X778836D01*
X796792Y810828D02*
Y846220D01*
X801237Y850665D02*
X812373D01*
X801237Y856253D02*
X812373D01*
X798443Y923055D02*
X812373D01*
X797865Y914165D02*
X812373D01*
X797865Y894099D02*
X812373D01*
X797865Y865143D02*
X812373D01*
X797865Y885209D02*
X812373D01*
X788410Y933088D02*
Y952283D01*
X791204Y810828D02*
Y846220D01*
X772632Y799977D02*
X780353D01*
X760627Y811982D02*
Y824803D01*
X740561Y804464D02*
Y824803D01*
X731671Y804464D02*
Y823364D01*
X673759Y804464D02*
Y823364D01*
X702715Y804464D02*
Y823364D01*
X711605Y804464D02*
Y823364D01*
X682649Y804464D02*
Y823364D01*
X60732Y905369D02*
Y949183D01*
X653693Y805184D02*
Y823364D01*
X641085Y800739D02*
X649248D01*
X626198Y787726D02*
X626198Y787704D01*
Y754654D02*
Y787704D01*
X616230Y722094D02*
Y731064D01*
X797865Y908577D02*
X812373D01*
X797865Y899687D02*
X812373D01*
X797865Y870731D02*
X812373D01*
X797865Y879621D02*
X812373D01*
X793998Y933088D02*
Y952283D01*
X798443Y928643D02*
X812373D01*
X755039Y811982D02*
Y824803D01*
X746149Y804464D02*
Y824803D01*
X772632Y794389D02*
X780353D01*
X74205Y968244D02*
X778836D01*
X668171Y804464D02*
Y823364D01*
X697127Y804464D02*
Y823364D01*
X717193Y804464D02*
Y823364D01*
X688237Y804464D02*
Y823364D01*
X55144Y904933D02*
Y949183D01*
X659281Y805184D02*
Y823364D01*
X726083Y804464D02*
Y823364D01*
X639952Y795151D02*
X649248D01*
X631786Y754653D02*
X632011Y787210D01*
X641630Y722094D02*
Y731064D01*
X637061Y741919D02*
X637185Y741795D01*
X639921Y800796D02*
X641085Y800739D01*
X880453Y794797D02*
X881006Y794243D01*
X848157Y796535D02*
X876257D01*
X835432Y809260D02*
Y969185D01*
X699015Y751955D02*
X705130D01*
X695205Y755765D02*
Y774446D01*
X27401Y980678D02*
X823939D01*
X18554Y957372D02*
Y971831D01*
X55652Y838454D02*
Y859649D01*
X18554Y838454D02*
Y910844D01*
X25920Y831088D02*
X48286D01*
X880453Y803861D02*
X881006Y804415D01*
X848157Y802123D02*
X876257D01*
X841020Y809260D02*
Y969185D01*
X689617Y755765D02*
Y774446D01*
X27401Y986266D02*
X823939D01*
X61240Y838454D02*
Y860229D01*
X12966Y838454D02*
Y971831D01*
X25920Y825500D02*
X48286D01*
X679692Y751955D02*
X685807D01*
X1007198Y754654D02*
Y774272D01*
X997230Y722094D02*
Y731064D01*
X1018061Y741919D02*
X1018185Y741795D01*
X1022630Y722094D02*
Y731064D01*
X1012786Y754653D02*
Y774272D01*
X1060692Y751955D02*
X1066807D01*
X1070617Y755765D02*
Y777729D01*
X1086384Y793496D02*
X1095354D01*
X1080015Y751955D02*
X1086130D01*
X1076205Y755765D02*
Y777729D01*
X1086384Y787908D02*
X1095354D01*
X134160Y944880D02*
X240056D01*
X191612Y718820D02*
X208778D01*
X191612Y713232D02*
X208778D01*
X512562Y759449D02*
Y856397D01*
X510270Y754699D02*
X510824Y755253D01*
X521270Y863465D02*
X528056Y869845D01*
X518150Y759449D02*
Y856248D01*
X519888Y755253D02*
X520442Y754699D01*
X575778Y593963D02*
X576332Y593409D01*
X574040Y598159D02*
Y804845D01*
X566160Y593409D02*
X566714Y593963D01*
X568452Y598159D02*
Y804845D01*
X436362Y905151D02*
Y920740D01*
X441950Y905151D02*
Y920740D01*
X502656Y869845D02*
X509329Y863718D01*
X18554Y939419D02*
Y957372D01*
X22999Y934974D02*
X35801D01*
X22999Y926084D02*
X35801D01*
X18554Y910844D02*
Y921639D01*
X750612Y653006D02*
X762755D01*
X746167Y657451D02*
Y669645D01*
X737277Y657451D02*
Y669645D01*
X730927Y653006D02*
X732832D01*
X762755D02*
X773738D01*
X641144D02*
X730927D01*
X1131612D02*
X1143755D01*
X1127167Y657451D02*
Y669994D01*
X1118277Y657451D02*
Y669994D01*
X1111927Y653006D02*
X1113832D01*
X1022144D02*
X1111927D01*
X1143755D02*
X1154738D01*
X1231922Y603436D02*
Y609568D01*
X1217857Y603436D02*
Y610489D01*
X1086130Y590188D02*
Y599158D01*
X1060730Y590188D02*
Y599158D01*
X850922Y603436D02*
Y609568D01*
X847144Y554024D02*
Y599658D01*
X679730Y590188D02*
Y599158D01*
X689382Y551507D02*
Y567060D01*
X703109Y537780D02*
X830900D01*
X836857Y603436D02*
Y610489D01*
X841556Y554175D02*
Y598736D01*
X703109Y543368D02*
X830749D01*
X694970Y551507D02*
Y565660D01*
X705130Y590188D02*
Y599158D01*
X1022144Y647418D02*
X1165498D01*
X1022630Y599158D02*
Y607874D01*
Y597408D02*
Y599158D01*
X1012978Y631176D02*
Y638252D01*
X1007390Y632402D02*
Y638252D01*
X997230Y599158D02*
Y607874D01*
Y597408D02*
Y599158D01*
X1250750Y688808D02*
X1253250Y686308D01*
X1197450D02*
X1199950Y688808D01*
X1161850Y660118D02*
Y702350D01*
X1174550Y656470D02*
Y727750D01*
X1199950Y688808D02*
Y727750D01*
X1250750Y688808D02*
Y727750D01*
X1212650Y687070D02*
Y702350D01*
Y687070D02*
X1213412Y686308D01*
X1238050Y687070D02*
Y702350D01*
X1237288Y686308D02*
X1238050Y687070D01*
X1048030Y736715D02*
X1060692D01*
X1086130D02*
X1098830D01*
X1086130Y722348D02*
Y734175D01*
Y684458D02*
Y707108D01*
X1060692Y722348D02*
Y734175D01*
Y722348D02*
X1060730D01*
X997230Y684458D02*
Y706854D01*
X1022630Y684458D02*
Y706854D01*
X1035076D01*
X1213412Y630174D02*
Y642366D01*
Y630174D02*
X1237288D01*
Y642366D01*
X1264666D01*
X1199950Y630174D02*
X1213412D01*
X1237288D02*
X1250750D01*
X1273730Y671830D02*
Y727416D01*
X984530Y706854D02*
X997230D01*
X603530D02*
X616230D01*
X892730Y671830D02*
Y727416D01*
X856288Y630174D02*
X869750D01*
X818950D02*
X832412D01*
X856288Y642366D02*
X883666D01*
X856288Y630174D02*
Y642366D01*
X832412Y630174D02*
X856288D01*
X832412D02*
Y642366D01*
X626390Y632402D02*
Y638252D01*
X631978Y631176D02*
Y638252D01*
X616230Y598904D02*
Y607874D01*
X641630Y598904D02*
Y607874D01*
Y706854D02*
X654076D01*
X641630Y684458D02*
Y706854D01*
X616230Y684458D02*
Y706854D01*
X641144Y647418D02*
X784498D01*
X679692Y722348D02*
X679730D01*
X679692D02*
Y734175D01*
X705130Y684458D02*
Y707108D01*
Y722348D02*
Y734175D01*
Y736715D02*
X717830D01*
X667030D02*
X679692D01*
X856288Y686308D02*
X857050Y687070D01*
Y702350D01*
X831650Y687070D02*
X832412Y686308D01*
X831650Y687070D02*
Y702350D01*
X869750Y686308D02*
Y727750D01*
X818950Y686308D02*
Y727750D01*
X793550Y656470D02*
Y727750D01*
X780850Y660118D02*
Y702350D01*
X146874Y933958D02*
X220498D01*
X134392Y896033D02*
Y921476D01*
X121656Y895245D02*
Y932376D01*
X134392Y886245D02*
Y894457D01*
X121656Y869845D02*
X131801Y879990D01*
X147056Y895245D02*
X147056D01*
X324856Y869845D02*
X324856D01*
X553456Y895245D02*
X553456D01*
D27*
X649732Y121920D02*
G03*
X653796Y125984I0J4064D01*
G01*
X661924Y130394D02*
G03*
X653796Y130394I-4064J0D01*
G01*
X661924Y125984D02*
G03*
X665988Y121920I4064J0D01*
G01*
X1139745Y164719D02*
G03*
X1143174Y161290I3429J0D01*
G01*
X1139745Y164820D02*
G03*
X1132887Y164820I-3429J0D01*
G01*
X1129458Y161290D02*
G03*
X1132887Y164719I0J3429D01*
G01*
X792861Y269480D02*
G03*
X793852Y265025I10505J0D01*
G01*
D02*
G03*
X795938Y262052I9513J4455D01*
G01*
X784992Y263527D02*
G03*
X787019Y270459I-10840J6932D01*
G01*
X783250Y261360D02*
G03*
X784992Y263527I-9098J9098D01*
G01*
X786561Y209627D02*
G03*
X785542Y211902I-3048J0D01*
G01*
X779524Y221056D02*
G03*
X783704Y213541I12882J2244D01*
G01*
X718820Y125269D02*
G03*
X715610Y123941I0J-4542D01*
G01*
D02*
G03*
X715609Y123939I3210J-3213D01*
G01*
X274056Y869845D02*
G03*
X264277Y860066I0J-9779D01*
G01*
X455880Y715010D02*
G03*
X438100Y732790I-17780J0D01*
G01*
X264277Y755533D02*
G03*
X287020Y732790I22743J0D01*
G01*
X715263Y123593D02*
G03*
X715264Y123595I-4041J4044D01*
G01*
X455880Y147320D02*
G03*
X481280Y121920I25400J0D01*
G01*
X711222D02*
G03*
X715263Y123593I0J5717D01*
G01*
X795260Y213541D02*
G03*
X799440Y221056I-8703J9760D01*
G01*
X793422Y211902D02*
G03*
X792403Y209627I2029J-2275D01*
G01*
X793133Y190040D02*
G03*
X796285Y185008I12522J4339D01*
G01*
X792403Y194379D02*
G03*
X793133Y190040I13253J0D01*
G01*
X450038Y147320D02*
G03*
X481280Y116078I31242J0D01*
G01*
X715264Y114403D02*
G03*
X715263Y114405I-4043J-4043D01*
G01*
D02*
G03*
X711222Y116078I-4041J-4044D01*
G01*
X258435Y860066D02*
G03*
X248656Y869845I-9779J0D01*
G01*
X450038Y715010D02*
G03*
X438100Y726948I-11938J0D01*
G01*
X258435Y755533D02*
G03*
X287020Y726948I28585J0D01*
G01*
X715609Y114059D02*
G03*
X715610Y114057I3211J3211D01*
G01*
D02*
G03*
X718820Y112729I3210J3213D01*
G01*
X786255Y189399D02*
G03*
X786561Y191807I-9309J2408D01*
G01*
X783745Y185008D02*
G03*
X786255Y189399I-6799J6799D01*
G01*
X1217121Y161290D02*
G03*
X1224991Y169160I0J7870D01*
G01*
X1217121Y155448D02*
G03*
X1230833Y169160I0J13712D01*
G01*
X1238050Y305700D02*
G03*
X1231291Y298941I0J-6759D01*
G01*
Y272357D02*
G03*
X1233443Y267490I6579J0D01*
G01*
X1233690Y217721D02*
G03*
X1237870Y225236I-8703J9760D01*
G01*
X1231852Y216082D02*
G03*
X1230833Y213807I2029J-2275D01*
G01*
X295910Y915670D02*
G03*
X287020Y924560I-8890J0D01*
G01*
X274056D02*
G03*
X264277Y914781I0J-9779D01*
G01*
Y905024D02*
G03*
X274056Y895245I9779J0D01*
G01*
X477520Y186690D02*
G03*
X508762Y155448I31242J0D01*
G01*
X295910Y782828D02*
G03*
X322580Y756158I26670J0D01*
G01*
X477520Y736600D02*
G03*
X457962Y756158I-19558J0D01*
G01*
X1225449Y280071D02*
G03*
X1218870Y286650I-6579J0D01*
G01*
X1224991Y213807D02*
G03*
X1223971Y216082I-3048J0D01*
G01*
X1217954Y225236D02*
G03*
X1222133Y217721I12882J2244D01*
G01*
X274056Y930402D02*
G03*
X258435Y914781I0J-15621D01*
G01*
X301752Y915670D02*
G03*
X287020Y930402I-14732J0D01*
G01*
X483362Y186690D02*
G03*
X508762Y161290I25400J0D01*
G01*
X301752Y782828D02*
G03*
X322580Y762000I20828J0D01*
G01*
X483362Y736600D02*
G03*
X457962Y762000I-25400J0D01*
G01*
X1223104Y267200D02*
G03*
X1225449Y272236I-4234J5035D01*
G01*
X248656Y895245D02*
G03*
X258435Y905024I0J9779D01*
G01*
X634542Y121920D02*
X649732D01*
X653796Y125984D02*
Y130394D01*
X661924Y125984D02*
Y130394D01*
X665988Y121920D02*
X675640D01*
X481280D02*
X634542D01*
X675640D02*
X711222D01*
X1143174Y161290D02*
X1152320D01*
X1139745Y164719D02*
Y164820D01*
X1132887Y164719D02*
Y164820D01*
X1127934Y161290D02*
X1129458D01*
X1152320D02*
X1217121D01*
X508762D02*
X1127934D01*
X792861Y272944D02*
X805373Y285456D01*
X792861Y269480D02*
Y272944D01*
X787019Y275364D02*
X796892Y285237D01*
X787019Y270459D02*
Y275364D01*
X796892Y285237D02*
Y302358D01*
X805373Y285456D02*
X824106D01*
X793550Y305700D02*
X796892Y302358D01*
X824106Y285456D02*
X825300Y286650D01*
X799440Y221056D02*
Y258550D01*
X795938Y262052D02*
X799440Y258550D01*
X779524Y221056D02*
Y258550D01*
X780440D02*
X783250Y261360D01*
X786561Y191807D02*
Y209627D01*
X455880Y147320D02*
Y715010D01*
X715609Y123939D02*
X715610Y123941D01*
X264277Y755533D02*
Y860066D01*
X287020Y732790D02*
X438100D01*
X715264Y123595D02*
X715609Y123939D01*
X715263Y123593D02*
X715264Y123595D01*
X792403Y194379D02*
Y209627D01*
X796285Y185008D02*
Y185008D01*
X481280Y116078D02*
X711222D01*
X450038Y147320D02*
Y715010D01*
X715263Y114405D02*
X715264Y114403D01*
X258435Y755533D02*
Y860066D01*
X287020Y726948D02*
X438100D01*
X715609Y114059D02*
X715610Y114057D01*
X715264Y114403D02*
X715609Y114059D01*
X793422Y211902D02*
X795260Y213541D01*
X783704D02*
X785542Y211902D01*
X508762Y155448D02*
X1217121D01*
X1230833Y170121D02*
X1230833Y169160D01*
X1230833Y170121D02*
Y193520D01*
X1224991Y169160D02*
Y170121D01*
Y170121D02*
Y213807D01*
X1231291Y272357D02*
Y298941D01*
X1233443Y267490D02*
X1235294Y265806D01*
X1237870Y225236D02*
Y262730D01*
X1230833Y193520D02*
Y213807D01*
X274056Y924560D02*
X287020D01*
X295910Y782828D02*
Y915670D01*
X264277Y905024D02*
Y914781D01*
X477520Y186690D02*
Y736600D01*
X322580Y756158D02*
X457962D01*
X1225449Y272236D02*
Y280071D01*
X1206300Y286650D02*
X1218870D01*
X1217954Y225236D02*
Y262730D01*
X274056Y930402D02*
X287020D01*
X301752Y782828D02*
Y915670D01*
X258435Y905024D02*
Y914781D01*
X483362Y186690D02*
Y736600D01*
X322580Y762000D02*
X457962D01*
X1218870Y262730D02*
X1221446Y265806D01*
X1223104Y267200D01*
X1235294Y265806D02*
X1237870Y262730D01*
X1222133Y217721D02*
X1223971Y216082D01*
X1231852D02*
X1233690Y217721D01*
D28*
X603530Y933691D02*
G03*
X588124Y949097I-15406J0D01*
G01*
X389921D02*
G03*
X375656Y934832I0J-14266D01*
G01*
X789940Y222905D02*
Y238550D01*
X603530Y734175D02*
Y933691D01*
X389921Y949097D02*
X588124D01*
X375656Y895245D02*
Y934832D01*
X1228370Y227085D02*
Y242730D01*
X666776Y722348D02*
X667030Y722094D01*
D30*
X1253250Y614934D02*
G03*
X1253064Y614748I0J-186D01*
G01*
X1240564Y520868D02*
G03*
X1253064Y533368I0J12500D01*
G01*
X1009930Y531502D02*
G03*
X1020564Y520868I10634J0D01*
G01*
X861075Y528828D02*
G03*
X872250Y540003I0J11175D01*
G01*
X628930Y539108D02*
G03*
X639209Y528828I10280J0D01*
G01*
X1003905Y665552D02*
G03*
X1009930Y671576I0J6024D01*
G01*
X971830Y671902D02*
G03*
X978180Y665552I6350J0D01*
G01*
X590830Y671902D02*
G03*
X597180Y665552I6350J0D01*
G01*
X622906D02*
G03*
X628930Y671576I0J6024D01*
G01*
X603530Y722094D02*
Y734175D01*
X628930Y722348D02*
Y734175D01*
X1253064Y533368D02*
Y614748D01*
X1020564Y520868D02*
X1240564D01*
X1009930Y531502D02*
Y599158D01*
X639209Y528828D02*
X861075D01*
X628930Y599158D02*
Y601726D01*
Y539108D02*
Y599158D01*
X872250Y540003D02*
Y614934D01*
X1009930Y722348D02*
Y734175D01*
X1060730Y684458D02*
Y707108D01*
X1035330Y722348D02*
X1047776D01*
X1073430Y684458D02*
Y707108D01*
Y722740D02*
Y736715D01*
Y668020D02*
Y684458D01*
X1048030Y751955D02*
Y764540D01*
X1098830Y751955D02*
Y764540D01*
X1197450Y603436D02*
Y614934D01*
X1073430Y599158D02*
Y618368D01*
X971830Y722094D02*
X984530D01*
Y734175D01*
X1009930Y671576D02*
Y684458D01*
Y707108D01*
X978180Y665552D02*
X1003905D01*
X971830Y671902D02*
Y706854D01*
X590830Y671902D02*
Y706854D01*
X597180Y665552D02*
X622906D01*
X628930Y684458D02*
Y707108D01*
Y671576D02*
Y684458D01*
X590830Y722094D02*
X603530D01*
X692430Y599158D02*
Y618368D01*
X816450Y603436D02*
Y614934D01*
X717830Y751955D02*
Y764540D01*
X667030Y751955D02*
Y764540D01*
X692430Y668020D02*
Y684458D01*
Y722740D02*
Y734175D01*
Y684458D02*
Y707108D01*
X654330Y722348D02*
X666776D01*
X679730Y684458D02*
Y707108D01*
D31*
X768000Y914165D02*
G03*
X748207Y933958I-19793J0D01*
G01*
X649139D02*
G03*
X629920Y914739I0J-19219D01*
G01*
X375656Y853704D02*
G03*
X388620Y840740I12964J0D01*
G01*
X958766Y506815D02*
G03*
X984166Y532215I0J25400D01*
G01*
X768000Y856550D02*
Y914165D01*
X649139Y933958D02*
X748207D01*
X629920Y840604D02*
Y914739D01*
X388620Y840740D02*
X493656D01*
X375656Y853704D02*
Y869845D01*
X603530Y506815D02*
X958766D01*
X984166Y567178D02*
Y568088D01*
Y532215D02*
Y567178D01*
X223256Y869845D02*
Y895245D01*
X147056Y869845D02*
Y895245D01*
X96256Y869845D02*
Y895245D01*
X324856Y869845D02*
Y895245D01*
X553456Y869845D02*
Y895245D01*
X477256Y869845D02*
Y895245D01*
X401056Y869845D02*
Y895245D01*
D32*
X121436Y617752D02*
D03*
Y647752D02*
D03*
Y677752D02*
D03*
Y707752D02*
D03*
X91436Y617752D02*
D03*
Y647752D02*
D03*
Y677752D02*
D03*
D33*
Y707752D02*
D03*
D34*
X274056Y895245D02*
D03*
X274056Y869845D02*
D03*
X248656Y895245D02*
D03*
Y869845D02*
D03*
X223256Y895245D02*
D03*
Y869845D02*
D03*
X197856Y895245D02*
D03*
Y869845D02*
D03*
X172456Y895245D02*
D03*
X172456Y869845D02*
D03*
X147056Y895245D02*
D03*
X147056Y869845D02*
D03*
X121656Y895245D02*
D03*
Y869845D02*
D03*
X96256Y895245D02*
D03*
Y869845D02*
D03*
X70856Y895245D02*
D03*
Y869845D02*
D03*
X45456Y895245D02*
D03*
X324856D02*
D03*
X350256Y869845D02*
D03*
Y895245D02*
D03*
X375656Y869845D02*
D03*
Y895245D02*
D03*
X401056Y869845D02*
D03*
Y895245D02*
D03*
X426456Y869845D02*
D03*
X426456Y895245D02*
D03*
X451856Y869845D02*
D03*
X451856Y895245D02*
D03*
X477256Y869845D02*
D03*
Y895245D02*
D03*
X502656Y869845D02*
D03*
Y895245D02*
D03*
X528056Y869845D02*
D03*
Y895245D02*
D03*
X553456Y869845D02*
D03*
X553456Y895245D02*
D03*
X749100Y715050D02*
D03*
X1130100D02*
D03*
D35*
X45456Y869845D02*
D03*
X324856D02*
D03*
D36*
X742600Y856550D02*
D03*
X1123600D02*
D03*
D37*
X768000D02*
D03*
X1149000D02*
D03*
D38*
X825300Y248550D02*
D03*
Y286650D02*
D03*
X863400Y343800D02*
D03*
X780850Y337450D02*
D03*
X1288850Y229500D02*
D03*
X1206300Y286650D02*
D03*
X1174550Y305700D02*
D03*
X1238050D02*
D03*
X1244400Y337450D02*
D03*
X1168200Y343800D02*
D03*
D39*
X857050Y305700D02*
D03*
X793550D02*
D03*
D40*
X780850Y702350D02*
D03*
X1161850D02*
D03*
D41*
X793550Y727750D02*
D03*
X806250Y702350D02*
D03*
X818950Y727750D02*
D03*
X831650Y702350D02*
D03*
X844350Y727750D02*
D03*
X857050Y702350D02*
D03*
X869750Y727750D02*
D03*
X1174550D02*
D03*
X1187250Y702350D02*
D03*
X1199950Y727750D02*
D03*
X1212650Y702350D02*
D03*
X1225350Y727750D02*
D03*
X1238050Y702350D02*
D03*
X1250750Y727750D02*
D03*
D42*
X908000Y856550D02*
D03*
X882600D02*
D03*
X1289000D02*
D03*
X1263600D02*
D03*
D43*
X1351350Y935000D02*
D03*
Y65000D02*
D03*
X101350D02*
D03*
Y785000D02*
D03*
D44*
X863600Y919480D02*
D03*
X1092200D02*
D03*
X908000Y944880D02*
D03*
X789971Y222874D02*
D03*
X796285Y185008D02*
D03*
X783745D02*
D03*
X718820Y112729D02*
D03*
Y125269D02*
D03*
X629920Y840604D02*
D03*
X493656Y840740D02*
D03*
X628930Y734175D02*
D03*
X1228401Y227054D02*
D03*
X240056Y944880D02*
D03*
X217170Y709756D02*
D03*
Y722296D02*
D03*
X509086Y751840D02*
D03*
X521626D02*
D03*
X551180Y655320D02*
D03*
X538640D02*
D03*
X564976Y590550D02*
D03*
X577516D02*
D03*
X1003722Y777748D02*
D03*
X1016262D02*
D03*
X984166Y567178D02*
D03*
X603530Y506815D02*
D03*
X1098830Y784432D02*
D03*
Y796972D02*
D03*
X1009930Y734175D02*
D03*
X1048030Y722094D02*
D03*
X1073430Y736715D02*
D03*
Y668020D02*
D03*
X1048030Y764540D02*
D03*
X1098830D02*
D03*
X1197450Y603436D02*
D03*
X1073430Y618368D02*
D03*
X1217857Y603436D02*
D03*
X1231922D02*
D03*
X1273730Y727416D02*
D03*
X984530Y734175D02*
D03*
X603530D02*
D03*
X850922Y603436D02*
D03*
X836857D02*
D03*
X692430Y618368D02*
D03*
X816450Y603436D02*
D03*
X686141Y777922D02*
D03*
X698681D02*
D03*
X717830Y764540D02*
D03*
X667030D02*
D03*
X692430Y668020D02*
D03*
X883866Y793059D02*
D03*
Y805599D02*
D03*
X692430Y736715D02*
D03*
X667030Y722094D02*
D03*
X220498Y933958D02*
D03*
D45*
X1224991Y170121D02*
D03*
D46*
X692430Y722348D02*
D03*
Y707108D02*
D03*
X705130Y722348D02*
D03*
Y707108D02*
D03*
X679730Y722348D02*
D03*
Y707108D02*
D03*
X590830Y722094D02*
D03*
Y706854D02*
D03*
X603530Y722094D02*
D03*
Y706854D02*
D03*
X616230Y722094D02*
D03*
Y706854D02*
D03*
X628930Y707108D02*
D03*
Y722348D02*
D03*
X641630Y722094D02*
D03*
Y706854D02*
D03*
X654330Y722348D02*
D03*
Y707108D02*
D03*
X667030Y736715D02*
D03*
Y751955D02*
D03*
X679692D02*
D03*
Y736715D02*
D03*
X705130Y751955D02*
D03*
Y736715D02*
D03*
X717830D02*
D03*
Y751955D02*
D03*
X1022630Y722094D02*
D03*
Y706854D02*
D03*
X1009930Y722348D02*
D03*
Y707108D02*
D03*
X997230Y722094D02*
D03*
Y706854D02*
D03*
X984530Y722094D02*
D03*
Y706854D02*
D03*
X971830Y722094D02*
D03*
Y706854D02*
D03*
X1035330Y722348D02*
D03*
Y707108D02*
D03*
X1060730Y722348D02*
D03*
Y707108D02*
D03*
X1086130Y722348D02*
D03*
Y707108D02*
D03*
X1073430Y722348D02*
D03*
Y707108D02*
D03*
X1048030Y736715D02*
D03*
Y751955D02*
D03*
X1060692D02*
D03*
Y736715D02*
D03*
X1086130Y751955D02*
D03*
Y736715D02*
D03*
X1098830D02*
D03*
Y751955D02*
D03*
X856288Y686308D02*
D03*
Y671068D02*
D03*
X832412D02*
D03*
Y686308D02*
D03*
Y642874D02*
D03*
Y658114D02*
D03*
X1197450Y686308D02*
D03*
Y671068D02*
D03*
X1213412Y686308D02*
D03*
Y671068D02*
D03*
X1237288Y686308D02*
D03*
Y671068D02*
D03*
X1253250Y686308D02*
D03*
Y671068D02*
D03*
X1213412Y658114D02*
D03*
Y642874D02*
D03*
X1237288Y658114D02*
D03*
Y642874D02*
D03*
X1213412Y630174D02*
D03*
Y614934D02*
D03*
X1197450Y630174D02*
D03*
Y614934D02*
D03*
X1237288D02*
D03*
Y630174D02*
D03*
X1253250D02*
D03*
Y614934D02*
D03*
X856288Y658114D02*
D03*
Y642874D02*
D03*
X816450Y671068D02*
D03*
Y686308D02*
D03*
X872250D02*
D03*
Y671068D02*
D03*
Y630174D02*
D03*
Y614934D02*
D03*
X856288D02*
D03*
Y630174D02*
D03*
X832412D02*
D03*
Y614934D02*
D03*
X816450Y630174D02*
D03*
Y614934D02*
D03*
D47*
X1273730Y646430D02*
D03*
Y671830D02*
D03*
X892730Y646430D02*
D03*
Y671830D02*
D03*
D48*
X789940Y238550D02*
D03*
X780440Y258550D02*
D03*
X799440D02*
D03*
X1228370Y242730D02*
D03*
X1218870Y262730D02*
D03*
X1237870D02*
D03*
D49*
X616230Y684458D02*
D03*
X628930Y684458D02*
D03*
X641630Y684458D02*
D03*
X654330D02*
D03*
X667030D02*
D03*
X679730D02*
D03*
X692430Y684458D02*
D03*
X705130Y684458D02*
D03*
Y599158D02*
D03*
X692430Y599158D02*
D03*
X679730Y599158D02*
D03*
X667030D02*
D03*
X654330D02*
D03*
X641630D02*
D03*
X628930Y599158D02*
D03*
X616230Y599158D02*
D03*
X997230Y684458D02*
D03*
X1009930Y684458D02*
D03*
X1022630Y684458D02*
D03*
X1035330D02*
D03*
X1048030D02*
D03*
X1060730D02*
D03*
X1073430Y684458D02*
D03*
X1086130Y684458D02*
D03*
Y599158D02*
D03*
X1073430Y599158D02*
D03*
X1060730Y599158D02*
D03*
X1048030D02*
D03*
X1035330D02*
D03*
X1022630D02*
D03*
X1009930Y599158D02*
D03*
X997230Y599158D02*
D03*
D50*
X1199950Y671068D02*
X1213412D01*
Y657606D02*
Y671068D01*
X1237288Y658114D02*
Y671068D01*
X1253250D01*
X856288D02*
X869750D01*
X856288Y657606D02*
Y671068D01*
X832412Y657606D02*
Y671068D01*
X818950D02*
X832412D01*
M02*
