G04*
G04 #@! TF.GenerationSoftware,Altium Limited,Altium Designer,24.5.2 (23)*
G04*
G04 Layer_Color=8388736*
%FSLAX44Y44*%
%MOMM*%
G71*
G04*
G04 #@! TF.SameCoordinates,BE5CC84F-6731-4C53-AAD9-C32198600D17*
G04*
G04*
G04 #@! TF.FilePolarity,Negative*
G04*
G01*
G75*
%ADD11C,0.1524*%
%ADD12C,1.6724*%
%ADD13R,1.6724X1.6724*%
%ADD14C,3.4032*%
%ADD15R,3.4032X3.4032*%
%ADD16C,2.2032*%
%ADD17C,2.7032*%
%ADD18R,1.5112X1.5112*%
%ADD19C,1.5112*%
%ADD20C,1.6256*%
%ADD21C,0.2032*%
%ADD22C,2.0032*%
%ADD23R,1.8032X1.8032*%
%ADD24C,1.8032*%
%ADD25C,4.6032*%
%ADD26R,2.0032X2.0032*%
D11*
X48236Y498028D02*
D03*
Y545028D02*
D03*
D12*
X121436Y476528D02*
D03*
Y506528D02*
D03*
Y536528D02*
D03*
Y566528D02*
D03*
X91436Y476528D02*
D03*
Y506528D02*
D03*
Y536528D02*
D03*
D13*
Y566528D02*
D03*
D14*
X41910Y400116D02*
D03*
D15*
Y349316D02*
D03*
D16*
X825300Y248550D02*
D03*
Y286650D02*
D03*
X863400Y343800D02*
D03*
X780850Y337450D02*
D03*
X1288850Y229500D02*
D03*
X1206300Y286650D02*
D03*
X1174550Y305700D02*
D03*
X1238050D02*
D03*
X1244400Y337450D02*
D03*
X1168200Y343800D02*
D03*
D17*
X857050Y305700D02*
D03*
X793550D02*
D03*
D18*
X780850Y702350D02*
D03*
X1161850D02*
D03*
D19*
X793550Y727750D02*
D03*
X806250Y702350D02*
D03*
X818950Y727750D02*
D03*
X831650Y702350D02*
D03*
X844350Y727750D02*
D03*
X857050Y702350D02*
D03*
X869750Y727750D02*
D03*
X1174550D02*
D03*
X1187250Y702350D02*
D03*
X1199950Y727750D02*
D03*
X1212650Y702350D02*
D03*
X1225350Y727750D02*
D03*
X1238050Y702350D02*
D03*
X1250750Y727750D02*
D03*
D20*
X908000Y856550D02*
D03*
X882600D02*
D03*
X1289000D02*
D03*
X1263600D02*
D03*
D21*
X863400Y816650D02*
D03*
X799900Y626150D02*
D03*
X1244400Y816650D02*
D03*
X1180900Y626150D02*
D03*
D22*
X749100Y715050D02*
D03*
X1130100D02*
D03*
X45456Y895245D02*
D03*
X70856Y869845D02*
D03*
Y895245D02*
D03*
X96256Y869845D02*
D03*
Y895245D02*
D03*
X121656Y869845D02*
D03*
Y895245D02*
D03*
X147056Y869845D02*
D03*
X147056Y895245D02*
D03*
X172456Y869845D02*
D03*
X172456Y895245D02*
D03*
X197856Y869845D02*
D03*
Y895245D02*
D03*
X223256Y869845D02*
D03*
Y895245D02*
D03*
X248656Y869845D02*
D03*
Y895245D02*
D03*
X274056Y869845D02*
D03*
X274056Y895245D02*
D03*
X553456D02*
D03*
X553456Y869845D02*
D03*
X528056Y895245D02*
D03*
Y869845D02*
D03*
X502656Y895245D02*
D03*
Y869845D02*
D03*
X477256Y895245D02*
D03*
Y869845D02*
D03*
X451856Y895245D02*
D03*
X451856Y869845D02*
D03*
X426456Y895245D02*
D03*
X426456Y869845D02*
D03*
X401056Y895245D02*
D03*
Y869845D02*
D03*
X375656Y895245D02*
D03*
Y869845D02*
D03*
X350256Y895245D02*
D03*
Y869845D02*
D03*
X324856Y895245D02*
D03*
D23*
X768000Y856550D02*
D03*
X1149000D02*
D03*
D24*
X742600D02*
D03*
X1123600D02*
D03*
D25*
X1351350Y935000D02*
D03*
Y65000D02*
D03*
X101350D02*
D03*
Y785000D02*
D03*
D26*
X45456Y869845D02*
D03*
X324856D02*
D03*
M02*
