G04*
G04 #@! TF.GenerationSoftware,Altium Limited,Altium Designer,24.5.2 (23)*
G04*
G04 Layer_Color=8388736*
%FSLAX44Y44*%
%MOMM*%
G71*
G04*
G04 #@! TF.SameCoordinates,DB171CDF-FD1A-43B8-AFCB-F980BC985382*
G04*
G04*
G04 #@! TF.FilePolarity,Negative*
G04*
G01*
G75*
%ADD12C,0.1524*%
%ADD13C,1.6724*%
%ADD14R,1.6724X1.6724*%
%ADD15C,2.0032*%
%ADD16R,2.0032X2.0032*%
%ADD17C,1.8032*%
%ADD18R,1.8032X1.8032*%
%ADD19C,2.2032*%
%ADD20C,2.7032*%
%ADD21R,1.5112X1.5112*%
%ADD22C,1.5112*%
%ADD23C,1.6256*%
%ADD24C,0.2032*%
%ADD25C,4.6032*%
D12*
X48236Y639252D02*
D03*
Y686252D02*
D03*
D13*
X121436Y617752D02*
D03*
Y647752D02*
D03*
Y677752D02*
D03*
Y707752D02*
D03*
X91436Y617752D02*
D03*
Y647752D02*
D03*
Y677752D02*
D03*
D14*
Y707752D02*
D03*
D15*
X274056Y895245D02*
D03*
X274056Y869845D02*
D03*
X248656Y895245D02*
D03*
Y869845D02*
D03*
X223256Y895245D02*
D03*
Y869845D02*
D03*
X197856Y895245D02*
D03*
Y869845D02*
D03*
X172456Y895245D02*
D03*
X172456Y869845D02*
D03*
X147056Y895245D02*
D03*
X147056Y869845D02*
D03*
X121656Y895245D02*
D03*
Y869845D02*
D03*
X96256Y895245D02*
D03*
Y869845D02*
D03*
X70856Y895245D02*
D03*
Y869845D02*
D03*
X45456Y895245D02*
D03*
X324856D02*
D03*
X350256Y869845D02*
D03*
Y895245D02*
D03*
X375656Y869845D02*
D03*
Y895245D02*
D03*
X401056Y869845D02*
D03*
Y895245D02*
D03*
X426456Y869845D02*
D03*
X426456Y895245D02*
D03*
X451856Y869845D02*
D03*
X451856Y895245D02*
D03*
X477256Y869845D02*
D03*
Y895245D02*
D03*
X502656Y869845D02*
D03*
Y895245D02*
D03*
X528056Y869845D02*
D03*
Y895245D02*
D03*
X553456Y869845D02*
D03*
X553456Y895245D02*
D03*
X749100Y715050D02*
D03*
X1130100D02*
D03*
D16*
X45456Y869845D02*
D03*
X324856D02*
D03*
D17*
X742600Y856550D02*
D03*
X1123600D02*
D03*
D18*
X768000D02*
D03*
X1149000D02*
D03*
D19*
X825300Y248550D02*
D03*
Y286650D02*
D03*
X863400Y343800D02*
D03*
X780850Y337450D02*
D03*
X1288850Y229500D02*
D03*
X1206300Y286650D02*
D03*
X1174550Y305700D02*
D03*
X1238050D02*
D03*
X1244400Y337450D02*
D03*
X1168200Y343800D02*
D03*
D20*
X857050Y305700D02*
D03*
X793550D02*
D03*
D21*
X780850Y702350D02*
D03*
X1161850D02*
D03*
D22*
X793550Y727750D02*
D03*
X806250Y702350D02*
D03*
X818950Y727750D02*
D03*
X831650Y702350D02*
D03*
X844350Y727750D02*
D03*
X857050Y702350D02*
D03*
X869750Y727750D02*
D03*
X1174550D02*
D03*
X1187250Y702350D02*
D03*
X1199950Y727750D02*
D03*
X1212650Y702350D02*
D03*
X1225350Y727750D02*
D03*
X1238050Y702350D02*
D03*
X1250750Y727750D02*
D03*
D23*
X908000Y856550D02*
D03*
X882600D02*
D03*
X1289000D02*
D03*
X1263600D02*
D03*
D24*
X863400Y816650D02*
D03*
X799900Y626150D02*
D03*
X1244400Y816650D02*
D03*
X1180900Y626150D02*
D03*
D25*
X1351350Y935000D02*
D03*
Y65000D02*
D03*
X101350D02*
D03*
Y785000D02*
D03*
M02*
