G04*
G04 #@! TF.GenerationSoftware,Altium Limited,Altium Designer,24.5.2 (23)*
G04*
G04 Layer_Color=65535*
%FSLAX44Y44*%
%MOMM*%
G71*
G04*
G04 #@! TF.SameCoordinates,DB171CDF-FD1A-43B8-AFCB-F980BC985382*
G04*
G04*
G04 #@! TF.FilePolarity,Positive*
G04*
G01*
G75*
%ADD10C,0.1270*%
%ADD11C,0.2540*%
G36*
X766030Y339251D02*
X764831D01*
Y346878D01*
X764817Y346863D01*
X764747Y346807D01*
X764662Y346722D01*
X764521Y346624D01*
X764366Y346497D01*
X764169Y346356D01*
X763943Y346201D01*
X763690Y346046D01*
X763676D01*
X763661Y346032D01*
X763577Y345975D01*
X763436Y345905D01*
X763267Y345820D01*
X763069Y345722D01*
X762858Y345623D01*
X762646Y345524D01*
X762435Y345440D01*
Y346595D01*
X762449D01*
X762477Y346624D01*
X762534Y346638D01*
X762604Y346680D01*
X762689Y346722D01*
X762787Y346779D01*
X763027Y346920D01*
X763309Y347075D01*
X763591Y347272D01*
X763887Y347498D01*
X764183Y347737D01*
X764197Y347752D01*
X764211Y347766D01*
X764253Y347808D01*
X764310Y347850D01*
X764437Y347991D01*
X764606Y348160D01*
X764775Y348358D01*
X764958Y348583D01*
X765113Y348809D01*
X765254Y349048D01*
X766030D01*
Y339251D01*
D02*
G37*
G36*
X882232Y353241D02*
X878327D01*
X877806Y350604D01*
X877820Y350619D01*
X877848Y350633D01*
X877890Y350661D01*
X877961Y350703D01*
X878046Y350745D01*
X878144Y350802D01*
X878370Y350914D01*
X878652Y351027D01*
X878962Y351126D01*
X879300Y351197D01*
X879469Y351225D01*
X879779D01*
X879864Y351211D01*
X879977Y351197D01*
X880104Y351182D01*
X880245Y351154D01*
X880400Y351112D01*
X880738Y351013D01*
X880921Y350943D01*
X881105Y350844D01*
X881288Y350745D01*
X881471Y350633D01*
X881640Y350492D01*
X881809Y350337D01*
X881824Y350322D01*
X881852Y350294D01*
X881894Y350252D01*
X881950Y350182D01*
X882021Y350083D01*
X882091Y349984D01*
X882176Y349857D01*
X882261Y349716D01*
X882331Y349561D01*
X882416Y349392D01*
X882486Y349195D01*
X882557Y348997D01*
X882613Y348786D01*
X882655Y348546D01*
X882683Y348307D01*
X882698Y348053D01*
Y348039D01*
Y347996D01*
Y347926D01*
X882683Y347827D01*
X882669Y347715D01*
X882655Y347588D01*
X882627Y347433D01*
X882599Y347277D01*
X882514Y346911D01*
X882373Y346530D01*
X882289Y346333D01*
X882176Y346150D01*
X882063Y345952D01*
X881922Y345769D01*
X881908Y345755D01*
X881880Y345713D01*
X881824Y345656D01*
X881753Y345586D01*
X881654Y345501D01*
X881542Y345388D01*
X881401Y345290D01*
X881245Y345177D01*
X881076Y345064D01*
X880879Y344966D01*
X880668Y344867D01*
X880442Y344768D01*
X880202Y344698D01*
X879934Y344641D01*
X879653Y344599D01*
X879357Y344585D01*
X879230D01*
X879131Y344599D01*
X879018Y344613D01*
X878891Y344627D01*
X878736Y344641D01*
X878581Y344684D01*
X878229Y344768D01*
X877876Y344895D01*
X877693Y344980D01*
X877510Y345078D01*
X877341Y345191D01*
X877171Y345318D01*
X877157Y345332D01*
X877129Y345346D01*
X877101Y345403D01*
X877045Y345459D01*
X876974Y345530D01*
X876904Y345614D01*
X876819Y345727D01*
X876749Y345854D01*
X876664Y345981D01*
X876579Y346136D01*
X876424Y346474D01*
X876298Y346869D01*
X876255Y347080D01*
X876227Y347306D01*
X877482Y347404D01*
Y347390D01*
Y347362D01*
X877496Y347320D01*
X877510Y347249D01*
X877552Y347094D01*
X877608Y346883D01*
X877693Y346671D01*
X877806Y346432D01*
X877947Y346220D01*
X878116Y346023D01*
X878144Y346009D01*
X878201Y345952D01*
X878313Y345882D01*
X878468Y345797D01*
X878638Y345713D01*
X878849Y345642D01*
X879089Y345586D01*
X879357Y345572D01*
X879441D01*
X879498Y345586D01*
X879667Y345600D01*
X879864Y345656D01*
X880104Y345727D01*
X880343Y345840D01*
X880597Y346009D01*
X880710Y346107D01*
X880823Y346220D01*
X880837Y346234D01*
X880851Y346248D01*
X880879Y346291D01*
X880921Y346333D01*
X881020Y346488D01*
X881133Y346685D01*
X881231Y346925D01*
X881330Y347221D01*
X881401Y347574D01*
X881429Y347757D01*
Y347954D01*
Y347968D01*
Y347996D01*
Y348053D01*
X881415Y348123D01*
Y348208D01*
X881401Y348307D01*
X881358Y348532D01*
X881288Y348800D01*
X881189Y349068D01*
X881048Y349322D01*
X880851Y349561D01*
Y349575D01*
X880823Y349589D01*
X880752Y349660D01*
X880625Y349759D01*
X880456Y349871D01*
X880230Y349970D01*
X879977Y350069D01*
X879681Y350139D01*
X879512Y350167D01*
X879244D01*
X879131Y350153D01*
X878990Y350139D01*
X878821Y350097D01*
X878652Y350055D01*
X878468Y349984D01*
X878285Y349900D01*
X878271Y349885D01*
X878215Y349857D01*
X878130Y349787D01*
X878017Y349716D01*
X877905Y349618D01*
X877792Y349491D01*
X877665Y349364D01*
X877566Y349209D01*
X876439Y349364D01*
X877383Y354382D01*
X882232D01*
Y353241D01*
D02*
G37*
G36*
X826508Y236046D02*
X826621D01*
X826889Y236018D01*
X827185Y235976D01*
X827495Y235905D01*
X827833Y235821D01*
X828158Y235708D01*
X828172D01*
X828200Y235694D01*
X828242Y235680D01*
X828299Y235652D01*
X828454Y235567D01*
X828651Y235468D01*
X828863Y235327D01*
X829088Y235158D01*
X829300Y234975D01*
X829497Y234749D01*
X829525Y234721D01*
X829582Y234637D01*
X829666Y234510D01*
X829779Y234326D01*
X829892Y234101D01*
X830019Y233819D01*
X830145Y233509D01*
X830244Y233157D01*
X829074Y232846D01*
Y232860D01*
X829060Y232875D01*
X829046Y232917D01*
X829032Y232973D01*
X828989Y233100D01*
X828933Y233269D01*
X828848Y233467D01*
X828750Y233650D01*
X828651Y233847D01*
X828524Y234016D01*
X828510Y234030D01*
X828468Y234087D01*
X828383Y234157D01*
X828285Y234256D01*
X828158Y234369D01*
X827989Y234482D01*
X827805Y234594D01*
X827594Y234693D01*
X827566Y234707D01*
X827495Y234735D01*
X827368Y234778D01*
X827199Y234834D01*
X827002Y234876D01*
X826776Y234919D01*
X826523Y234947D01*
X826255Y234961D01*
X826100D01*
X826029Y234947D01*
X825945D01*
X825733Y234933D01*
X825493Y234890D01*
X825226Y234848D01*
X824972Y234778D01*
X824718Y234679D01*
X824690Y234665D01*
X824605Y234637D01*
X824492Y234566D01*
X824352Y234496D01*
X824182Y234383D01*
X823999Y234270D01*
X823830Y234129D01*
X823675Y233974D01*
X823661Y233960D01*
X823604Y233904D01*
X823534Y233805D01*
X823449Y233692D01*
X823351Y233551D01*
X823252Y233382D01*
X823153Y233199D01*
X823055Y233001D01*
Y232987D01*
X823040Y232959D01*
X823026Y232917D01*
X822998Y232846D01*
X822970Y232762D01*
X822942Y232663D01*
X822900Y232550D01*
X822871Y232423D01*
X822801Y232127D01*
X822745Y231789D01*
X822702Y231437D01*
X822688Y231042D01*
Y231028D01*
Y230986D01*
Y230915D01*
X822702Y230830D01*
Y230718D01*
X822716Y230577D01*
X822730Y230436D01*
X822745Y230281D01*
X822801Y229928D01*
X822871Y229562D01*
X822984Y229195D01*
X823125Y228843D01*
Y228829D01*
X823153Y228801D01*
X823167Y228758D01*
X823210Y228702D01*
X823308Y228547D01*
X823464Y228349D01*
X823647Y228138D01*
X823872Y227927D01*
X824140Y227729D01*
X824436Y227546D01*
X824450D01*
X824478Y227532D01*
X824521Y227504D01*
X824591Y227475D01*
X824662Y227447D01*
X824760Y227419D01*
X824986Y227334D01*
X825268Y227264D01*
X825578Y227193D01*
X825916Y227137D01*
X826269Y227123D01*
X826410D01*
X826494Y227137D01*
X826579D01*
X826790Y227165D01*
X827044Y227193D01*
X827312Y227250D01*
X827608Y227334D01*
X827904Y227433D01*
X827918D01*
X827946Y227447D01*
X827974Y227461D01*
X828031Y227489D01*
X828186Y227560D01*
X828355Y227645D01*
X828552Y227743D01*
X828764Y227856D01*
X828961Y227983D01*
X829130Y228124D01*
Y229956D01*
X826255D01*
Y231112D01*
X830399D01*
Y227489D01*
X830385Y227475D01*
X830357Y227461D01*
X830301Y227419D01*
X830230Y227363D01*
X830145Y227306D01*
X830047Y227236D01*
X829920Y227151D01*
X829793Y227067D01*
X829497Y226883D01*
X829159Y226686D01*
X828806Y226503D01*
X828426Y226348D01*
X828411D01*
X828383Y226334D01*
X828327Y226319D01*
X828256Y226291D01*
X828158Y226263D01*
X828045Y226221D01*
X827918Y226192D01*
X827791Y226164D01*
X827481Y226094D01*
X827129Y226023D01*
X826748Y225981D01*
X826353Y225967D01*
X826212D01*
X826114Y225981D01*
X825987D01*
X825832Y225995D01*
X825663Y226023D01*
X825479Y226038D01*
X825070Y226122D01*
X824633Y226221D01*
X824182Y226376D01*
X823957Y226460D01*
X823731Y226573D01*
X823717Y226587D01*
X823675Y226601D01*
X823618Y226644D01*
X823534Y226686D01*
X823435Y226756D01*
X823337Y226827D01*
X823069Y227024D01*
X822787Y227278D01*
X822491Y227588D01*
X822209Y227941D01*
X821955Y228349D01*
Y228363D01*
X821927Y228406D01*
X821899Y228462D01*
X821856Y228561D01*
X821814Y228659D01*
X821772Y228801D01*
X821715Y228941D01*
X821659Y229111D01*
X821603Y229294D01*
X821546Y229505D01*
X821504Y229717D01*
X821462Y229942D01*
X821391Y230436D01*
X821363Y230957D01*
Y230971D01*
Y231028D01*
Y231098D01*
X821377Y231197D01*
Y231324D01*
X821391Y231479D01*
X821419Y231634D01*
X821433Y231817D01*
X821476Y232015D01*
X821504Y232226D01*
X821617Y232677D01*
X821758Y233142D01*
X821955Y233608D01*
X821969Y233622D01*
X821983Y233664D01*
X822011Y233720D01*
X822068Y233805D01*
X822124Y233918D01*
X822195Y234030D01*
X822392Y234298D01*
X822632Y234608D01*
X822928Y234904D01*
X823266Y235201D01*
X823464Y235327D01*
X823661Y235454D01*
X823675Y235468D01*
X823717Y235483D01*
X823774Y235511D01*
X823858Y235553D01*
X823971Y235595D01*
X824098Y235652D01*
X824239Y235708D01*
X824408Y235764D01*
X824591Y235821D01*
X824789Y235863D01*
X825000Y235919D01*
X825226Y235962D01*
X825719Y236032D01*
X825973Y236060D01*
X826424D01*
X826508Y236046D01*
D02*
G37*
G36*
X780889Y681959D02*
X779690D01*
Y689585D01*
X779676Y689571D01*
X779606Y689515D01*
X779521Y689430D01*
X779380Y689332D01*
X779225Y689205D01*
X779028Y689064D01*
X778802Y688909D01*
X778549Y688754D01*
X778534D01*
X778520Y688740D01*
X778436Y688683D01*
X778295Y688613D01*
X778126Y688528D01*
X777928Y688429D01*
X777717Y688331D01*
X777505Y688232D01*
X777294Y688148D01*
Y689304D01*
X777308D01*
X777336Y689332D01*
X777393Y689346D01*
X777463Y689388D01*
X777548Y689430D01*
X777646Y689487D01*
X777886Y689628D01*
X778168Y689783D01*
X778450Y689980D01*
X778746Y690206D01*
X779042Y690445D01*
X779056Y690460D01*
X779070Y690474D01*
X779112Y690516D01*
X779169Y690558D01*
X779296Y690699D01*
X779465Y690868D01*
X779634Y691066D01*
X779817Y691291D01*
X779972Y691517D01*
X780113Y691756D01*
X780889D01*
Y681959D01*
D02*
G37*
G36*
X1161889D02*
X1160691D01*
Y689585D01*
X1160676Y689571D01*
X1160606Y689515D01*
X1160521Y689430D01*
X1160380Y689332D01*
X1160225Y689205D01*
X1160028Y689064D01*
X1159802Y688909D01*
X1159549Y688754D01*
X1159535D01*
X1159520Y688740D01*
X1159436Y688683D01*
X1159295Y688613D01*
X1159126Y688528D01*
X1158928Y688429D01*
X1158717Y688331D01*
X1158505Y688232D01*
X1158294Y688148D01*
Y689304D01*
X1158308D01*
X1158336Y689332D01*
X1158393Y689346D01*
X1158463Y689388D01*
X1158548Y689430D01*
X1158646Y689487D01*
X1158886Y689628D01*
X1159168Y689783D01*
X1159450Y689980D01*
X1159746Y690206D01*
X1160042Y690445D01*
X1160056Y690460D01*
X1160070Y690474D01*
X1160113Y690516D01*
X1160169Y690558D01*
X1160296Y690699D01*
X1160465Y690868D01*
X1160634Y691066D01*
X1160817Y691291D01*
X1160972Y691517D01*
X1161113Y691756D01*
X1161889D01*
Y681959D01*
D02*
G37*
G36*
X1262981Y333132D02*
X1261783D01*
Y340759D01*
X1261768Y340744D01*
X1261698Y340688D01*
X1261613Y340603D01*
X1261472Y340505D01*
X1261317Y340378D01*
X1261120Y340237D01*
X1260894Y340082D01*
X1260641Y339927D01*
X1260627D01*
X1260612Y339913D01*
X1260528Y339856D01*
X1260387Y339786D01*
X1260218Y339701D01*
X1260020Y339603D01*
X1259809Y339504D01*
X1259597Y339405D01*
X1259386Y339321D01*
Y340476D01*
X1259400D01*
X1259428Y340505D01*
X1259485Y340519D01*
X1259555Y340561D01*
X1259640Y340603D01*
X1259738Y340660D01*
X1259978Y340801D01*
X1260260Y340956D01*
X1260542Y341153D01*
X1260838Y341379D01*
X1261134Y341618D01*
X1261148Y341632D01*
X1261162Y341647D01*
X1261205Y341689D01*
X1261261Y341731D01*
X1261388Y341872D01*
X1261557Y342041D01*
X1261726Y342239D01*
X1261909Y342464D01*
X1262064Y342690D01*
X1262205Y342929D01*
X1262981D01*
Y333132D01*
D02*
G37*
G36*
X1154139Y346614D02*
X1150235D01*
X1149713Y343977D01*
X1149727Y343992D01*
X1149755Y344006D01*
X1149797Y344034D01*
X1149868Y344076D01*
X1149952Y344118D01*
X1150051Y344175D01*
X1150277Y344288D01*
X1150559Y344400D01*
X1150869Y344499D01*
X1151207Y344570D01*
X1151376Y344598D01*
X1151686D01*
X1151771Y344584D01*
X1151884Y344570D01*
X1152011Y344555D01*
X1152152Y344527D01*
X1152307Y344485D01*
X1152645Y344386D01*
X1152828Y344316D01*
X1153012Y344217D01*
X1153195Y344118D01*
X1153378Y344006D01*
X1153547Y343865D01*
X1153716Y343710D01*
X1153730Y343695D01*
X1153759Y343667D01*
X1153801Y343625D01*
X1153857Y343554D01*
X1153928Y343456D01*
X1153998Y343357D01*
X1154083Y343230D01*
X1154167Y343089D01*
X1154238Y342934D01*
X1154323Y342765D01*
X1154393Y342568D01*
X1154464Y342370D01*
X1154520Y342159D01*
X1154562Y341919D01*
X1154590Y341680D01*
X1154604Y341426D01*
Y341412D01*
Y341370D01*
Y341299D01*
X1154590Y341200D01*
X1154576Y341087D01*
X1154562Y340961D01*
X1154534Y340806D01*
X1154506Y340650D01*
X1154421Y340284D01*
X1154280Y339903D01*
X1154196Y339706D01*
X1154083Y339523D01*
X1153970Y339325D01*
X1153829Y339142D01*
X1153815Y339128D01*
X1153787Y339086D01*
X1153730Y339029D01*
X1153660Y338959D01*
X1153561Y338874D01*
X1153449Y338761D01*
X1153308Y338663D01*
X1153152Y338550D01*
X1152983Y338437D01*
X1152786Y338339D01*
X1152575Y338240D01*
X1152349Y338141D01*
X1152109Y338071D01*
X1151842Y338014D01*
X1151560Y337972D01*
X1151264Y337958D01*
X1151137D01*
X1151038Y337972D01*
X1150925Y337986D01*
X1150798Y338000D01*
X1150643Y338014D01*
X1150488Y338057D01*
X1150136Y338141D01*
X1149783Y338268D01*
X1149600Y338353D01*
X1149417Y338451D01*
X1149248Y338564D01*
X1149079Y338691D01*
X1149064Y338705D01*
X1149036Y338719D01*
X1149008Y338776D01*
X1148952Y338832D01*
X1148881Y338903D01*
X1148811Y338987D01*
X1148726Y339100D01*
X1148656Y339227D01*
X1148571Y339354D01*
X1148486Y339509D01*
X1148331Y339847D01*
X1148204Y340242D01*
X1148162Y340453D01*
X1148134Y340679D01*
X1149389Y340777D01*
Y340763D01*
Y340735D01*
X1149403Y340693D01*
X1149417Y340622D01*
X1149459Y340467D01*
X1149516Y340256D01*
X1149600Y340044D01*
X1149713Y339805D01*
X1149854Y339593D01*
X1150023Y339396D01*
X1150051Y339382D01*
X1150108Y339325D01*
X1150220Y339255D01*
X1150375Y339170D01*
X1150545Y339086D01*
X1150756Y339015D01*
X1150996Y338959D01*
X1151264Y338945D01*
X1151348D01*
X1151404Y338959D01*
X1151574Y338973D01*
X1151771Y339029D01*
X1152011Y339100D01*
X1152250Y339213D01*
X1152504Y339382D01*
X1152617Y339481D01*
X1152730Y339593D01*
X1152744Y339607D01*
X1152758Y339621D01*
X1152786Y339664D01*
X1152828Y339706D01*
X1152927Y339861D01*
X1153040Y340059D01*
X1153138Y340298D01*
X1153237Y340594D01*
X1153308Y340947D01*
X1153336Y341130D01*
Y341327D01*
Y341341D01*
Y341370D01*
Y341426D01*
X1153322Y341496D01*
Y341581D01*
X1153308Y341680D01*
X1153265Y341905D01*
X1153195Y342173D01*
X1153096Y342441D01*
X1152955Y342695D01*
X1152758Y342934D01*
Y342948D01*
X1152730Y342962D01*
X1152659Y343033D01*
X1152532Y343132D01*
X1152363Y343244D01*
X1152138Y343343D01*
X1151884Y343442D01*
X1151588Y343512D01*
X1151419Y343540D01*
X1151151D01*
X1151038Y343526D01*
X1150897Y343512D01*
X1150728Y343470D01*
X1150559Y343428D01*
X1150375Y343357D01*
X1150192Y343273D01*
X1150178Y343259D01*
X1150122Y343230D01*
X1150037Y343160D01*
X1149924Y343089D01*
X1149811Y342991D01*
X1149699Y342864D01*
X1149572Y342737D01*
X1149473Y342582D01*
X1148345Y342737D01*
X1149290Y347755D01*
X1154139D01*
Y346614D01*
D02*
G37*
G36*
X1290439Y214941D02*
X1290552D01*
X1290820Y214913D01*
X1291116Y214871D01*
X1291426Y214800D01*
X1291765Y214716D01*
X1292089Y214603D01*
X1292103D01*
X1292131Y214589D01*
X1292173Y214575D01*
X1292230Y214547D01*
X1292385Y214462D01*
X1292582Y214363D01*
X1292794Y214222D01*
X1293019Y214053D01*
X1293231Y213870D01*
X1293428Y213644D01*
X1293456Y213616D01*
X1293513Y213532D01*
X1293597Y213405D01*
X1293710Y213221D01*
X1293823Y212996D01*
X1293950Y212714D01*
X1294076Y212404D01*
X1294175Y212052D01*
X1293005Y211741D01*
Y211755D01*
X1292991Y211770D01*
X1292977Y211812D01*
X1292963Y211868D01*
X1292921Y211995D01*
X1292864Y212164D01*
X1292780Y212362D01*
X1292681Y212545D01*
X1292582Y212742D01*
X1292455Y212911D01*
X1292441Y212925D01*
X1292399Y212982D01*
X1292314Y213052D01*
X1292216Y213151D01*
X1292089Y213264D01*
X1291920Y213377D01*
X1291736Y213489D01*
X1291525Y213588D01*
X1291497Y213602D01*
X1291426Y213630D01*
X1291299Y213673D01*
X1291130Y213729D01*
X1290933Y213771D01*
X1290707Y213814D01*
X1290453Y213842D01*
X1290186Y213856D01*
X1290031D01*
X1289960Y213842D01*
X1289875D01*
X1289664Y213828D01*
X1289424Y213785D01*
X1289157Y213743D01*
X1288903Y213673D01*
X1288649Y213574D01*
X1288621Y213560D01*
X1288536Y213532D01*
X1288423Y213461D01*
X1288283Y213391D01*
X1288113Y213278D01*
X1287930Y213165D01*
X1287761Y213024D01*
X1287606Y212869D01*
X1287592Y212855D01*
X1287535Y212799D01*
X1287465Y212700D01*
X1287380Y212587D01*
X1287282Y212446D01*
X1287183Y212277D01*
X1287084Y212094D01*
X1286986Y211896D01*
Y211882D01*
X1286971Y211854D01*
X1286957Y211812D01*
X1286929Y211741D01*
X1286901Y211657D01*
X1286873Y211558D01*
X1286831Y211445D01*
X1286802Y211318D01*
X1286732Y211022D01*
X1286676Y210684D01*
X1286633Y210332D01*
X1286619Y209937D01*
Y209923D01*
Y209881D01*
Y209810D01*
X1286633Y209725D01*
Y209613D01*
X1286647Y209472D01*
X1286661Y209331D01*
X1286676Y209176D01*
X1286732Y208823D01*
X1286802Y208457D01*
X1286915Y208090D01*
X1287056Y207738D01*
Y207724D01*
X1287084Y207696D01*
X1287098Y207653D01*
X1287141Y207597D01*
X1287239Y207442D01*
X1287395Y207244D01*
X1287578Y207033D01*
X1287803Y206821D01*
X1288071Y206624D01*
X1288367Y206441D01*
X1288381D01*
X1288409Y206427D01*
X1288452Y206399D01*
X1288522Y206370D01*
X1288593Y206342D01*
X1288691Y206314D01*
X1288917Y206229D01*
X1289199Y206159D01*
X1289509Y206088D01*
X1289847Y206032D01*
X1290200Y206018D01*
X1290341D01*
X1290425Y206032D01*
X1290510D01*
X1290721Y206060D01*
X1290975Y206088D01*
X1291243Y206145D01*
X1291539Y206229D01*
X1291835Y206328D01*
X1291849D01*
X1291877Y206342D01*
X1291906Y206356D01*
X1291962Y206385D01*
X1292117Y206455D01*
X1292286Y206539D01*
X1292484Y206638D01*
X1292695Y206751D01*
X1292892Y206878D01*
X1293061Y207019D01*
Y208851D01*
X1290186D01*
Y210007D01*
X1294330D01*
Y206385D01*
X1294316Y206370D01*
X1294288Y206356D01*
X1294232Y206314D01*
X1294161Y206258D01*
X1294076Y206201D01*
X1293978Y206131D01*
X1293851Y206046D01*
X1293724Y205962D01*
X1293428Y205778D01*
X1293090Y205581D01*
X1292737Y205398D01*
X1292357Y205243D01*
X1292343D01*
X1292314Y205229D01*
X1292258Y205214D01*
X1292187Y205186D01*
X1292089Y205158D01*
X1291976Y205116D01*
X1291849Y205088D01*
X1291722Y205059D01*
X1291412Y204989D01*
X1291060Y204918D01*
X1290679Y204876D01*
X1290284Y204862D01*
X1290143D01*
X1290045Y204876D01*
X1289918D01*
X1289763Y204890D01*
X1289594Y204918D01*
X1289410Y204932D01*
X1289001Y205017D01*
X1288564Y205116D01*
X1288113Y205271D01*
X1287888Y205355D01*
X1287662Y205468D01*
X1287648Y205482D01*
X1287606Y205496D01*
X1287549Y205539D01*
X1287465Y205581D01*
X1287366Y205651D01*
X1287268Y205722D01*
X1287000Y205919D01*
X1286718Y206173D01*
X1286422Y206483D01*
X1286140Y206836D01*
X1285886Y207244D01*
Y207258D01*
X1285858Y207301D01*
X1285830Y207357D01*
X1285787Y207456D01*
X1285745Y207554D01*
X1285703Y207696D01*
X1285646Y207836D01*
X1285590Y208006D01*
X1285534Y208189D01*
X1285477Y208400D01*
X1285435Y208612D01*
X1285393Y208837D01*
X1285322Y209331D01*
X1285294Y209852D01*
Y209866D01*
Y209923D01*
Y209993D01*
X1285308Y210092D01*
Y210219D01*
X1285322Y210374D01*
X1285350Y210529D01*
X1285365Y210712D01*
X1285407Y210910D01*
X1285435Y211121D01*
X1285548Y211572D01*
X1285689Y212037D01*
X1285886Y212503D01*
X1285900Y212517D01*
X1285914Y212559D01*
X1285943Y212615D01*
X1285999Y212700D01*
X1286055Y212813D01*
X1286126Y212925D01*
X1286323Y213193D01*
X1286563Y213503D01*
X1286859Y213799D01*
X1287197Y214095D01*
X1287395Y214222D01*
X1287592Y214349D01*
X1287606Y214363D01*
X1287648Y214377D01*
X1287705Y214406D01*
X1287789Y214448D01*
X1287902Y214490D01*
X1288029Y214547D01*
X1288170Y214603D01*
X1288339Y214659D01*
X1288522Y214716D01*
X1288720Y214758D01*
X1288931Y214814D01*
X1289157Y214857D01*
X1289650Y214927D01*
X1289904Y214956D01*
X1290355D01*
X1290439Y214941D01*
D02*
G37*
D10*
X769002Y868222D02*
G03*
X741771Y868423I-13702J-11672D01*
G01*
Y844677D02*
G03*
X769002Y844878I13529J11873D01*
G01*
X879299Y844550D02*
G03*
X879299Y868550I16934J12000D01*
G01*
X1260300Y844550D02*
G03*
X1260300Y868550I16934J12000D01*
G01*
X1122771Y844677D02*
G03*
X1150002Y844878I13529J11873D01*
G01*
Y868222D02*
G03*
X1122771Y868423I-13702J-11672D01*
G01*
X778668Y857566D02*
X784256D01*
X728884Y854264D02*
Y860614D01*
X726090Y857566D02*
X731678D01*
X700182Y191423D02*
Y456356D01*
Y191423D02*
X950164D01*
Y456356D01*
X700182D02*
X950164D01*
X903635Y839747D02*
X903729Y847953D01*
X879299Y844550D02*
Y847185D01*
Y865916D02*
Y868550D01*
X899579Y843897D02*
X907785Y843803D01*
X951300Y575050D02*
Y881558D01*
X700300D02*
X951300D01*
X700300Y575050D02*
Y881558D01*
Y575050D02*
X951300D01*
X1284635Y839747D02*
X1284729Y847953D01*
X1260300Y844550D02*
Y847185D01*
Y865916D02*
Y868550D01*
X1280579Y843897D02*
X1288785Y843803D01*
X1332300Y575050D02*
Y881558D01*
X1081300D02*
X1332300D01*
X1081300Y575050D02*
Y881558D01*
Y575050D02*
X1332300D01*
X1107090Y857566D02*
X1112678D01*
X1109884Y854264D02*
Y860614D01*
X1159668Y857566D02*
X1165256D01*
X1081300Y191100D02*
Y497449D01*
Y191100D02*
X1331283D01*
Y497449D01*
X1081300D02*
X1331283D01*
D11*
X1116632Y968687D02*
Y977997D01*
X1121287Y982652D01*
X1125942Y977997D01*
Y968687D01*
Y975669D01*
X1116632D01*
X1139908Y980324D02*
X1137580Y982652D01*
X1132925D01*
X1130597Y980324D01*
Y971014D01*
X1132925Y968687D01*
X1137580D01*
X1139908Y971014D01*
X1153873Y982652D02*
X1144563D01*
Y975669D01*
X1149218D01*
X1144563D01*
Y968687D01*
X1158528Y966359D02*
X1167839D01*
X1179476Y982652D02*
X1174821D01*
X1172494Y980324D01*
Y971014D01*
X1174821Y968687D01*
X1179476D01*
X1181804Y971014D01*
Y980324D01*
X1179476Y982652D01*
X1186459D02*
Y971014D01*
X1188787Y968687D01*
X1193442D01*
X1195770Y971014D01*
Y982652D01*
X1200425D02*
X1209735D01*
X1205080D01*
Y968687D01*
X1214390Y966359D02*
X1223700D01*
X1228356Y977997D02*
X1233011Y968687D01*
X1237666Y977997D01*
X1251631Y968687D02*
X1242321D01*
X1251631Y977997D01*
Y980324D01*
X1249304Y982652D01*
X1244649D01*
X1242321Y980324D01*
X1256287Y968687D02*
Y971014D01*
X1258614D01*
Y968687D01*
X1256287D01*
X1267925Y980324D02*
X1270252Y982652D01*
X1274907D01*
X1277235Y980324D01*
Y971014D01*
X1274907Y968687D01*
X1270252D01*
X1267925Y971014D01*
Y980324D01*
X1093279Y905038D02*
X1088201D01*
X1090740D01*
Y892342D01*
X1088201Y889802D01*
X1085661D01*
X1083122Y892342D01*
X1108514Y905038D02*
X1103436Y902498D01*
X1098357Y897420D01*
Y892342D01*
X1100897Y889802D01*
X1105975D01*
X1108514Y892342D01*
Y894881D01*
X1105975Y897420D01*
X1098357D01*
X712279Y905038D02*
X707201D01*
X709740D01*
Y892342D01*
X707201Y889802D01*
X704661D01*
X702122Y892342D01*
X727514Y905038D02*
X717357D01*
Y897420D01*
X722436Y899959D01*
X724975D01*
X727514Y897420D01*
Y892342D01*
X724975Y889802D01*
X719896D01*
X717357Y892342D01*
X1093279Y520989D02*
X1088201D01*
X1090740D01*
Y508294D01*
X1088201Y505754D01*
X1085661D01*
X1083122Y508294D01*
X1098357Y518450D02*
X1100897Y520989D01*
X1105975D01*
X1108514Y518450D01*
Y515911D01*
X1105975Y513372D01*
X1103436D01*
X1105975D01*
X1108514Y510833D01*
Y508294D01*
X1105975Y505754D01*
X1100897D01*
X1098357Y508294D01*
X712279Y479841D02*
X707201D01*
X709740D01*
Y467146D01*
X707201Y464606D01*
X704661D01*
X702122Y467146D01*
X727514Y464606D02*
X717357D01*
X727514Y474763D01*
Y477302D01*
X724975Y479841D01*
X719896D01*
X717357Y477302D01*
M02*
