G04*
G04 #@! TF.GenerationSoftware,Altium Limited,Altium Designer,24.5.2 (23)*
G04*
G04 Layer_Color=2752767*
%FSLAX44Y44*%
%MOMM*%
G71*
G04*
G04 #@! TF.SameCoordinates,BE5CC84F-6731-4C53-AAD9-C32198600D17*
G04*
G04*
G04 #@! TF.FilePolarity,Positive*
G04*
G01*
G75*
%ADD10C,0.1270*%
%ADD30C,0.3810*%
%ADD48C,0.2540*%
%ADD77C,0.4064*%
D10*
X1174550Y343800D02*
G03*
X1174550Y343800I-6350J0D01*
G01*
X1250750Y337450D02*
G03*
X1250750Y337450I-6350J0D01*
G01*
X1244400Y305700D02*
G03*
X1244400Y305700I-6350J0D01*
G01*
X1180900D02*
G03*
X1180900Y305700I-6350J0D01*
G01*
X1212650Y286650D02*
G03*
X1212650Y286650I-6350J0D01*
G01*
X1295200Y229500D02*
G03*
X1295200Y229500I-6350J0D01*
G01*
X1136450Y715050D02*
G03*
X1136450Y715050I-6350J0D01*
G01*
X1267410Y856550D02*
G03*
X1267410Y856550I-3810J0D01*
G01*
X1269950D02*
G03*
X1269950Y856550I-6350J0D01*
G01*
X1292810D02*
G03*
X1292810Y856550I-3810J0D01*
G01*
X1295350D02*
G03*
X1295350Y856550I-6350J0D01*
G01*
X755450Y715050D02*
G03*
X755450Y715050I-6350J0D01*
G01*
X886410Y856550D02*
G03*
X886410Y856550I-3810J0D01*
G01*
X888950D02*
G03*
X888950Y856550I-6350J0D01*
G01*
X911810D02*
G03*
X911810Y856550I-3810J0D01*
G01*
X914350D02*
G03*
X914350Y856550I-6350J0D01*
G01*
X787200Y337450D02*
G03*
X787200Y337450I-6350J0D01*
G01*
X869750Y343800D02*
G03*
X869750Y343800I-6350J0D01*
G01*
X831650Y286650D02*
G03*
X831650Y286650I-6350J0D01*
G01*
Y248550D02*
G03*
X831650Y248550I-6350J0D01*
G01*
X162440Y381292D02*
X166250Y388912D01*
X158630D02*
X166250D01*
X158630D02*
X162440Y381292D01*
Y378752D02*
X168790Y391452D01*
X156090D02*
X168790D01*
X156090D02*
X162440Y378752D01*
Y306108D02*
X166250Y313728D01*
X158630D02*
X166250D01*
X158630D02*
X162440Y306108D01*
Y303568D02*
X168790Y316268D01*
X156090D02*
X168790D01*
X156090D02*
X162440Y303568D01*
X1144804Y220218D02*
X1148614Y227838D01*
X1140994D02*
X1148614D01*
X1140994D02*
X1144804Y220218D01*
Y217678D02*
X1151154Y230378D01*
X1138454D02*
X1151154D01*
X1138454D02*
X1144804Y217678D01*
X1219480Y218948D02*
X1223290Y226568D01*
X1215670D02*
X1223290D01*
X1215670D02*
X1219480Y218948D01*
Y216408D02*
X1225830Y229108D01*
X1213130D02*
X1225830D01*
X1213130D02*
X1219480Y216408D01*
X236629Y829379D02*
X240439Y836999D01*
X232819D02*
X240439D01*
X232819D02*
X236629Y829379D01*
Y826839D02*
X242979Y839539D01*
X230279D02*
X242979D01*
X230279D02*
X236629Y826839D01*
X240056Y941070D02*
X243866Y948690D01*
X236246D02*
X243866D01*
X236246D02*
X240056Y941070D01*
Y938530D02*
X246406Y951230D01*
X233706D02*
X246406D01*
X233706D02*
X240056Y938530D01*
X220498Y930148D02*
X224308Y937768D01*
X216688D02*
X224308D01*
X216688D02*
X220498Y930148D01*
Y927608D02*
X226848Y940308D01*
X214148D02*
X226848D01*
X214148D02*
X220498Y927608D01*
X325146Y915162D02*
X328956Y922782D01*
X321336D02*
X328956D01*
X321336D02*
X325146Y915162D01*
Y912622D02*
X331496Y925322D01*
X318796D02*
X331496D01*
X318796D02*
X325146Y912622D01*
X667030Y718284D02*
X670840Y725904D01*
X663220D02*
X670840D01*
X663220D02*
X667030Y718284D01*
Y715744D02*
X673380Y728444D01*
X660680D02*
X673380D01*
X660680D02*
X667030Y715744D01*
X692430Y732905D02*
X696240Y740525D01*
X688620D02*
X696240D01*
X688620D02*
X692430Y732905D01*
Y730365D02*
X698780Y743065D01*
X686080D02*
X698780D01*
X686080D02*
X692430Y730365D01*
X883866Y801789D02*
X887676Y809409D01*
X880056D02*
X887676D01*
X880056D02*
X883866Y801789D01*
Y799249D02*
X890216Y811949D01*
X877516D02*
X890216D01*
X877516D02*
X883866Y799249D01*
Y789249D02*
X887676Y796869D01*
X880056D02*
X887676D01*
X880056D02*
X883866Y789249D01*
Y786709D02*
X890216Y799409D01*
X877516D02*
X890216D01*
X877516D02*
X883866Y786709D01*
X628930Y730365D02*
X632740Y737985D01*
X625120D02*
X632740D01*
X625120D02*
X628930Y730365D01*
Y727825D02*
X635280Y740525D01*
X622580D02*
X635280D01*
X622580D02*
X628930Y727825D01*
X692430Y664210D02*
X696240Y671830D01*
X688620D02*
X696240D01*
X688620D02*
X692430Y664210D01*
Y661670D02*
X698780Y674370D01*
X686080D02*
X698780D01*
X686080D02*
X692430Y661670D01*
X667030Y760730D02*
X670840Y768350D01*
X663220D02*
X670840D01*
X663220D02*
X667030Y760730D01*
Y758190D02*
X673380Y770890D01*
X660680D02*
X673380D01*
X660680D02*
X667030Y758190D01*
X717830Y760730D02*
X721640Y768350D01*
X714020D02*
X721640D01*
X714020D02*
X717830Y760730D01*
Y758190D02*
X724180Y770890D01*
X711480D02*
X724180D01*
X711480D02*
X717830Y758190D01*
X698681Y774112D02*
X702491Y781732D01*
X694871D02*
X702491D01*
X694871D02*
X698681Y774112D01*
Y771572D02*
X705031Y784272D01*
X692331D02*
X705031D01*
X692331D02*
X698681Y771572D01*
X686141Y774112D02*
X689951Y781732D01*
X682331D02*
X689951D01*
X682331D02*
X686141Y774112D01*
Y771572D02*
X692491Y784272D01*
X679791D02*
X692491D01*
X679791D02*
X686141Y771572D01*
X816450Y599626D02*
X820260Y607245D01*
X812640D02*
X820260D01*
X812640D02*
X816450Y599626D01*
Y597085D02*
X822800Y609785D01*
X810100D02*
X822800D01*
X810100D02*
X816450Y597085D01*
X692430Y614558D02*
X696240Y622178D01*
X688620D02*
X696240D01*
X688620D02*
X692430Y614558D01*
Y612018D02*
X698780Y624718D01*
X686080D02*
X698780D01*
X686080D02*
X692430Y612018D01*
X836857Y599626D02*
X840667Y607245D01*
X833047D02*
X840667D01*
X833047D02*
X836857Y599626D01*
Y597085D02*
X843207Y609785D01*
X830507D02*
X843207D01*
X830507D02*
X836857Y597085D01*
X850922Y599626D02*
X854732Y607245D01*
X847112D02*
X854732D01*
X847112D02*
X850922Y599626D01*
Y597085D02*
X857272Y609785D01*
X844572D02*
X857272D01*
X844572D02*
X850922Y597085D01*
X892730Y723606D02*
X896540Y731226D01*
X888920D02*
X896540D01*
X888920D02*
X892730Y723606D01*
Y721066D02*
X899080Y733766D01*
X886380D02*
X899080D01*
X886380D02*
X892730Y721066D01*
X603530Y730365D02*
X607340Y737985D01*
X599720D02*
X607340D01*
X599720D02*
X603530Y730365D01*
Y727825D02*
X609880Y740525D01*
X597180D02*
X609880D01*
X597180D02*
X603530Y727825D01*
X984530Y730365D02*
X988340Y737985D01*
X980720D02*
X988340D01*
X980720D02*
X984530Y730365D01*
Y727825D02*
X990880Y740525D01*
X978180D02*
X990880D01*
X978180D02*
X984530Y727825D01*
X1273730Y723606D02*
X1277540Y731226D01*
X1269920D02*
X1277540D01*
X1269920D02*
X1273730Y723606D01*
Y721066D02*
X1280080Y733766D01*
X1267380D02*
X1280080D01*
X1267380D02*
X1273730Y721066D01*
X1231922Y599626D02*
X1235732Y607245D01*
X1228112D02*
X1235732D01*
X1228112D02*
X1231922Y599626D01*
Y597085D02*
X1238272Y609785D01*
X1225572D02*
X1238272D01*
X1225572D02*
X1231922Y597085D01*
X1217857Y599626D02*
X1221667Y607245D01*
X1214047D02*
X1221667D01*
X1214047D02*
X1217857Y599626D01*
Y597085D02*
X1224207Y609785D01*
X1211507D02*
X1224207D01*
X1211507D02*
X1217857Y597085D01*
X1073430Y614558D02*
X1077240Y622178D01*
X1069620D02*
X1077240D01*
X1069620D02*
X1073430Y614558D01*
Y612018D02*
X1079780Y624718D01*
X1067080D02*
X1079780D01*
X1067080D02*
X1073430Y612018D01*
X1197450Y599626D02*
X1201260Y607245D01*
X1193640D02*
X1201260D01*
X1193640D02*
X1197450Y599626D01*
Y597085D02*
X1203800Y609785D01*
X1191100D02*
X1203800D01*
X1191100D02*
X1197450Y597085D01*
X1098830Y760730D02*
X1102640Y768350D01*
X1095020D02*
X1102640D01*
X1095020D02*
X1098830Y760730D01*
Y758190D02*
X1105180Y770890D01*
X1092480D02*
X1105180D01*
X1092480D02*
X1098830Y758190D01*
X1048030Y760730D02*
X1051840Y768350D01*
X1044220D02*
X1051840D01*
X1044220D02*
X1048030Y760730D01*
Y758190D02*
X1054380Y770890D01*
X1041680D02*
X1054380D01*
X1041680D02*
X1048030Y758190D01*
X1073430Y664210D02*
X1077240Y671830D01*
X1069620D02*
X1077240D01*
X1069620D02*
X1073430Y664210D01*
Y661670D02*
X1079780Y674370D01*
X1067080D02*
X1079780D01*
X1067080D02*
X1073430Y661670D01*
Y732905D02*
X1077240Y740525D01*
X1069620D02*
X1077240D01*
X1069620D02*
X1073430Y732905D01*
Y730365D02*
X1079780Y743065D01*
X1067080D02*
X1079780D01*
X1067080D02*
X1073430Y730365D01*
X1048030Y718284D02*
X1051840Y725904D01*
X1044220D02*
X1051840D01*
X1044220D02*
X1048030Y718284D01*
Y715744D02*
X1054380Y728444D01*
X1041680D02*
X1054380D01*
X1041680D02*
X1048030Y715744D01*
X1009930Y730365D02*
X1013740Y737985D01*
X1006120D02*
X1013740D01*
X1006120D02*
X1009930Y730365D01*
Y727825D02*
X1016280Y740525D01*
X1003580D02*
X1016280D01*
X1003580D02*
X1009930Y727825D01*
X1098830Y793162D02*
X1102640Y800782D01*
X1095020D02*
X1102640D01*
X1095020D02*
X1098830Y793162D01*
Y790622D02*
X1105180Y803322D01*
X1092480D02*
X1105180D01*
X1092480D02*
X1098830Y790622D01*
Y780622D02*
X1102640Y788242D01*
X1095020D02*
X1102640D01*
X1095020D02*
X1098830Y780622D01*
Y778082D02*
X1105180Y790782D01*
X1092480D02*
X1105180D01*
X1092480D02*
X1098830Y778082D01*
X603530Y503005D02*
X607340Y510625D01*
X599720D02*
X607340D01*
X599720D02*
X603530Y503005D01*
Y500465D02*
X609880Y513165D01*
X597180D02*
X609880D01*
X597180D02*
X603530Y500465D01*
X984166Y563368D02*
X987976Y570988D01*
X980356D02*
X987976D01*
X980356D02*
X984166Y563368D01*
Y560828D02*
X990516Y573528D01*
X977816D02*
X990516D01*
X977816D02*
X984166Y560828D01*
X137503Y381292D02*
X141313Y388912D01*
X133693D02*
X141313D01*
X133693D02*
X137503Y381292D01*
Y378752D02*
X143853Y391452D01*
X131153D02*
X143853D01*
X131153D02*
X137503Y378752D01*
X119006Y381292D02*
X122816Y388912D01*
X115196D02*
X122816D01*
X115196D02*
X119006Y381292D01*
Y378752D02*
X125356Y391452D01*
X112656D02*
X125356D01*
X112656D02*
X119006Y378752D01*
X130137Y306108D02*
X133947Y313728D01*
X126327D02*
X133947D01*
X126327D02*
X130137Y306108D01*
Y303568D02*
X136487Y316268D01*
X123787D02*
X136487D01*
X123787D02*
X130137Y303568D01*
X118199Y333452D02*
X122009Y341072D01*
X114389D02*
X122009D01*
X114389D02*
X118199Y333452D01*
Y330912D02*
X124549Y343612D01*
X111849D02*
X124549D01*
X111849D02*
X118199Y330912D01*
X1016262Y773938D02*
X1020072Y781558D01*
X1012452D02*
X1020072D01*
X1012452D02*
X1016262Y773938D01*
Y771398D02*
X1022612Y784098D01*
X1009912D02*
X1022612D01*
X1009912D02*
X1016262Y771398D01*
X1003722Y773938D02*
X1007532Y781558D01*
X999912D02*
X1007532D01*
X999912D02*
X1003722Y773938D01*
Y771398D02*
X1010072Y784098D01*
X997372D02*
X1010072D01*
X997372D02*
X1003722Y771398D01*
X550672Y754380D02*
X554482Y762000D01*
X546862D02*
X554482D01*
X546862D02*
X550672Y754380D01*
Y751840D02*
X557022Y764540D01*
X544322D02*
X557022D01*
X544322D02*
X550672Y751840D01*
X72390Y689704D02*
X76200Y697324D01*
X68580D02*
X76200D01*
X68580D02*
X72390Y689704D01*
Y687164D02*
X78740Y699864D01*
X66040D02*
X78740D01*
X66040D02*
X72390Y687164D01*
X91689Y716120D02*
X95499Y723740D01*
X87879D02*
X95499D01*
X87879D02*
X91689Y716120D01*
Y713580D02*
X98039Y726280D01*
X85339D02*
X98039D01*
X85339D02*
X91689Y713580D01*
X140208Y664718D02*
X144018Y672338D01*
X136398D02*
X144018D01*
X136398D02*
X140208Y664718D01*
Y662178D02*
X146558Y674878D01*
X133858D02*
X146558D01*
X133858D02*
X140208Y662178D01*
X153000Y677213D02*
X156810Y684833D01*
X149190D02*
X156810D01*
X149190D02*
X153000Y677213D01*
Y674672D02*
X159350Y687373D01*
X146650D02*
X159350D01*
X146650D02*
X153000Y674672D01*
X165751Y729218D02*
X169561Y736838D01*
X161941D02*
X169561D01*
X161941D02*
X165751Y729218D01*
Y726678D02*
X172101Y739378D01*
X159401D02*
X172101D01*
X159401D02*
X165751Y726678D01*
X177366Y702794D02*
X181176Y710414D01*
X173556D02*
X181176D01*
X173556D02*
X177366Y702794D01*
Y700254D02*
X183716Y712954D01*
X171016D02*
X183716D01*
X171016D02*
X177366Y700254D01*
X318506Y863495D02*
X331206D01*
Y876195D01*
X318506D02*
X331206D01*
X318506Y863495D02*
Y876195D01*
X318506Y888895D02*
X331206D01*
Y901595D01*
X318506D02*
X331206D01*
X318506Y888895D02*
Y901595D01*
X343906Y863495D02*
X356606D01*
Y876195D01*
X343906D02*
X356606D01*
X343906Y863495D02*
Y876195D01*
Y888895D02*
X356606D01*
Y901595D01*
X343906D02*
X356606D01*
X343906Y888895D02*
Y901595D01*
X369306Y863495D02*
X382006D01*
Y876195D01*
X369306D02*
X382006D01*
X369306Y863495D02*
Y876195D01*
Y888895D02*
X382006D01*
Y901595D01*
X369306D02*
X382006D01*
X369306Y888895D02*
Y901595D01*
X394706Y863495D02*
X407406D01*
Y876195D01*
X394706D02*
X407406D01*
X394706Y863495D02*
Y876195D01*
Y888895D02*
X407406D01*
Y901595D01*
X394706D02*
X407406D01*
X394706Y888895D02*
Y901595D01*
X420106Y863495D02*
X432806D01*
Y876195D01*
X420106D02*
X432806D01*
X420106Y863495D02*
Y876195D01*
X420106Y888895D02*
X432806D01*
Y901595D01*
X420106D02*
X432806D01*
X420106Y888895D02*
Y901595D01*
X445506Y863495D02*
X458206D01*
Y876195D01*
X445506D02*
X458206D01*
X445506Y863495D02*
Y876195D01*
X445506Y888895D02*
X458206D01*
Y901595D01*
X445506D02*
X458206D01*
X445506Y888895D02*
Y901595D01*
X470906Y863495D02*
X483606D01*
Y876195D01*
X470906D02*
X483606D01*
X470906Y863495D02*
Y876195D01*
Y888895D02*
X483606D01*
Y901595D01*
X470906D02*
X483606D01*
X470906Y888895D02*
Y901595D01*
X496306Y863495D02*
X509006D01*
Y876195D01*
X496306D02*
X509006D01*
X496306Y863495D02*
Y876195D01*
Y888895D02*
X509006D01*
Y901595D01*
X496306D02*
X509006D01*
X496306Y888895D02*
Y901595D01*
X521706Y863495D02*
X534406D01*
Y876195D01*
X521706D02*
X534406D01*
X521706Y863495D02*
Y876195D01*
Y888895D02*
X534406D01*
Y901595D01*
X521706D02*
X534406D01*
X521706Y888895D02*
Y901595D01*
X547106Y863495D02*
X559806D01*
Y876195D01*
X547106D02*
X559806D01*
X547106Y863495D02*
Y876195D01*
X547106Y888895D02*
X559806D01*
Y901595D01*
X547106D02*
X559806D01*
X547106Y888895D02*
Y901595D01*
X267706Y888895D02*
X280406D01*
Y901595D01*
X267706D02*
X280406D01*
X267706Y888895D02*
Y901595D01*
X267706Y863495D02*
X280406D01*
Y876195D01*
X267706D02*
X280406D01*
X267706Y863495D02*
Y876195D01*
X242306Y888895D02*
X255006D01*
Y901595D01*
X242306D02*
X255006D01*
X242306Y888895D02*
Y901595D01*
Y863495D02*
X255006D01*
Y876195D01*
X242306D02*
X255006D01*
X242306Y863495D02*
Y876195D01*
X216906Y888895D02*
X229606D01*
Y901595D01*
X216906D02*
X229606D01*
X216906Y888895D02*
Y901595D01*
Y863495D02*
X229606D01*
Y876195D01*
X216906D02*
X229606D01*
X216906Y863495D02*
Y876195D01*
X191506Y888895D02*
X204206D01*
Y901595D01*
X191506D02*
X204206D01*
X191506Y888895D02*
Y901595D01*
Y863495D02*
X204206D01*
Y876195D01*
X191506D02*
X204206D01*
X191506Y863495D02*
Y876195D01*
X166106Y888895D02*
X178806D01*
Y901595D01*
X166106D02*
X178806D01*
X166106Y888895D02*
Y901595D01*
X166106Y863495D02*
X178806D01*
Y876195D01*
X166106D02*
X178806D01*
X166106Y863495D02*
Y876195D01*
X140706Y888895D02*
X153406D01*
Y901595D01*
X140706D02*
X153406D01*
X140706Y888895D02*
Y901595D01*
X140706Y863495D02*
X153406D01*
Y876195D01*
X140706D02*
X153406D01*
X140706Y863495D02*
Y876195D01*
X115306Y888895D02*
X128006D01*
Y901595D01*
X115306D02*
X128006D01*
X115306Y888895D02*
Y901595D01*
Y863495D02*
X128006D01*
Y876195D01*
X115306D02*
X128006D01*
X115306Y863495D02*
Y876195D01*
X89906Y888895D02*
X102606D01*
Y901595D01*
X89906D02*
X102606D01*
X89906Y888895D02*
Y901595D01*
Y863495D02*
X102606D01*
Y876195D01*
X89906D02*
X102606D01*
X89906Y863495D02*
Y876195D01*
X64506Y888895D02*
X77206D01*
Y901595D01*
X64506D02*
X77206D01*
X64506Y888895D02*
Y901595D01*
Y863495D02*
X77206D01*
Y876195D01*
X64506D02*
X77206D01*
X64506Y863495D02*
Y876195D01*
X39106Y888895D02*
X51806D01*
Y901595D01*
X39106D02*
X51806D01*
X39106Y888895D02*
Y901595D01*
X39106Y863495D02*
X51806D01*
Y876195D01*
X39106D02*
X51806D01*
X39106Y863495D02*
Y876195D01*
X99445Y783095D02*
X101350Y781190D01*
X97540Y783095D02*
X99445D01*
X97540D02*
X99445Y785000D01*
X97540Y786905D02*
X99445Y785000D01*
X97540Y786905D02*
X99445D01*
X101350Y788810D01*
X103255Y786905D01*
X105160D01*
X103255Y785000D02*
X105160Y786905D01*
X103255Y785000D02*
X105160Y783095D01*
X103255D02*
X105160D01*
X101350Y781190D02*
X103255Y783095D01*
X98175Y781825D02*
X101350Y778650D01*
X95000Y781825D02*
X98175D01*
X95000D02*
X98175Y785000D01*
X95000Y788175D02*
X98175Y785000D01*
X95000Y788175D02*
X98175D01*
X101350Y791350D01*
X104525Y788175D01*
X107700D01*
X104525Y785000D02*
X107700Y788175D01*
X104525Y785000D02*
X107700Y781825D01*
X104525D02*
X107700D01*
X101350Y778650D02*
X104525Y781825D01*
X99445Y63095D02*
X101350Y61190D01*
X97540Y63095D02*
X99445D01*
X97540D02*
X99445Y65000D01*
X97540Y66905D02*
X99445Y65000D01*
X97540Y66905D02*
X99445D01*
X101350Y68810D01*
X103255Y66905D01*
X105160D01*
X103255Y65000D02*
X105160Y66905D01*
X103255Y65000D02*
X105160Y63095D01*
X103255D02*
X105160D01*
X101350Y61190D02*
X103255Y63095D01*
X98175Y61825D02*
X101350Y58650D01*
X95000Y61825D02*
X98175D01*
X95000D02*
X98175Y65000D01*
X95000Y68175D02*
X98175Y65000D01*
X95000Y68175D02*
X98175D01*
X101350Y71350D01*
X104525Y68175D01*
X107700D01*
X104525Y65000D02*
X107700Y68175D01*
X104525Y65000D02*
X107700Y61825D01*
X104525D02*
X107700D01*
X101350Y58650D02*
X104525Y61825D01*
X1349445Y63095D02*
X1351350Y61190D01*
X1347540Y63095D02*
X1349445D01*
X1347540D02*
X1349445Y65000D01*
X1347540Y66905D02*
X1349445Y65000D01*
X1347540Y66905D02*
X1349445D01*
X1351350Y68810D01*
X1353255Y66905D01*
X1355160D01*
X1353255Y65000D02*
X1355160Y66905D01*
X1353255Y65000D02*
X1355160Y63095D01*
X1353255D02*
X1355160D01*
X1351350Y61190D02*
X1353255Y63095D01*
X1348175Y61825D02*
X1351350Y58650D01*
X1345000Y61825D02*
X1348175D01*
X1345000D02*
X1348175Y65000D01*
X1345000Y68175D02*
X1348175Y65000D01*
X1345000Y68175D02*
X1348175D01*
X1351350Y71350D01*
X1354525Y68175D01*
X1357700D01*
X1354525Y65000D02*
X1357700Y68175D01*
X1354525Y65000D02*
X1357700Y61825D01*
X1354525D02*
X1357700D01*
X1351350Y58650D02*
X1354525Y61825D01*
X1349445Y933095D02*
X1351350Y931190D01*
X1347540Y933095D02*
X1349445D01*
X1347540D02*
X1349445Y935000D01*
X1347540Y936905D02*
X1349445Y935000D01*
X1347540Y936905D02*
X1349445D01*
X1351350Y938810D01*
X1353255Y936905D01*
X1355160D01*
X1353255Y935000D02*
X1355160Y936905D01*
X1353255Y935000D02*
X1355160Y933095D01*
X1353255D02*
X1355160D01*
X1351350Y931190D02*
X1353255Y933095D01*
X1348175Y931825D02*
X1351350Y928650D01*
X1345000Y931825D02*
X1348175D01*
X1345000D02*
X1348175Y935000D01*
X1345000Y938175D02*
X1348175Y935000D01*
X1345000Y938175D02*
X1348175D01*
X1351350Y941350D01*
X1354525Y938175D01*
X1357700D01*
X1354525Y935000D02*
X1357700Y938175D01*
X1354525Y935000D02*
X1357700Y931825D01*
X1354525D02*
X1357700D01*
X1351350Y928650D02*
X1354525Y931825D01*
X1119790Y852740D02*
X1127410D01*
Y860360D01*
X1119790D02*
X1127410D01*
X1119790Y852740D02*
Y860360D01*
X1117250Y850200D02*
X1129950D01*
Y862900D01*
X1117250D02*
X1129950D01*
X1117250Y850200D02*
Y862900D01*
X1145190Y852740D02*
X1152810D01*
Y860360D01*
X1145190D02*
X1152810D01*
X1145190Y852740D02*
Y860360D01*
X1142650Y850200D02*
X1155350D01*
Y862900D01*
X1142650D02*
X1155350D01*
X1142650Y850200D02*
Y862900D01*
X738790Y852740D02*
X746410D01*
Y860360D01*
X738790D02*
X746410D01*
X738790Y852740D02*
Y860360D01*
X736250Y850200D02*
X748950D01*
Y862900D01*
X736250D02*
X748950D01*
X736250Y850200D02*
Y862900D01*
X764190Y852740D02*
X771810D01*
Y860360D01*
X764190D02*
X771810D01*
X764190Y852740D02*
Y860360D01*
X761650Y850200D02*
X774350D01*
Y862900D01*
X761650D02*
X774350D01*
X761650Y850200D02*
Y862900D01*
X1174550Y619800D02*
X1180900Y622975D01*
X1187250Y619800D01*
X1184075Y626150D02*
X1187250Y619800D01*
X1184075Y626150D02*
X1187250Y632500D01*
X1180900Y629325D02*
X1187250Y632500D01*
X1174550D02*
X1180900Y629325D01*
X1174550Y632500D02*
X1177725Y626150D01*
X1174550Y619800D02*
X1177725Y626150D01*
X1238050Y810300D02*
X1244400Y813475D01*
X1250750Y810300D01*
X1247575Y816650D02*
X1250750Y810300D01*
X1247575Y816650D02*
X1250750Y823000D01*
X1244400Y819825D02*
X1250750Y823000D01*
X1238050D02*
X1244400Y819825D01*
X1238050Y823000D02*
X1241225Y816650D01*
X1238050Y810300D02*
X1241225Y816650D01*
X793550Y619800D02*
X799900Y622975D01*
X806250Y619800D01*
X803075Y626150D02*
X806250Y619800D01*
X803075Y626150D02*
X806250Y632500D01*
X799900Y629325D02*
X806250Y632500D01*
X793550D02*
X799900Y629325D01*
X793550Y632500D02*
X796725Y626150D01*
X793550Y619800D02*
X796725Y626150D01*
X857050Y810300D02*
X863400Y813475D01*
X869750Y810300D01*
X866575Y816650D02*
X869750Y810300D01*
X866575Y816650D02*
X869750Y823000D01*
X863400Y819825D02*
X869750Y823000D01*
X857050D02*
X863400Y819825D01*
X857050Y823000D02*
X860225Y816650D01*
X857050Y810300D02*
X860225Y816650D01*
X1244400Y724575D02*
X1247575D01*
X1244400D02*
Y730925D01*
X1247575D01*
Y734100D01*
X1253925D01*
Y730925D02*
Y734100D01*
Y730925D02*
X1257100D01*
Y724575D02*
Y730925D01*
X1253925Y724575D02*
X1257100D01*
X1253925Y721400D02*
Y724575D01*
X1247575Y721400D02*
X1253925D01*
X1247575D02*
Y724575D01*
X1231700Y699175D02*
X1234875D01*
X1231700D02*
Y705525D01*
X1234875D01*
Y708700D01*
X1241225D01*
Y705525D02*
Y708700D01*
Y705525D02*
X1244400D01*
Y699175D02*
Y705525D01*
X1241225Y699175D02*
X1244400D01*
X1241225Y696000D02*
Y699175D01*
X1234875Y696000D02*
X1241225D01*
X1234875D02*
Y699175D01*
X1219000Y724575D02*
X1222175D01*
X1219000D02*
Y730925D01*
X1222175D01*
Y734100D01*
X1228525D01*
Y730925D02*
Y734100D01*
Y730925D02*
X1231700D01*
Y724575D02*
Y730925D01*
X1228525Y724575D02*
X1231700D01*
X1228525Y721400D02*
Y724575D01*
X1222175Y721400D02*
X1228525D01*
X1222175D02*
Y724575D01*
X1206300Y699175D02*
X1209475D01*
X1206300D02*
Y705525D01*
X1209475D01*
Y708700D01*
X1215825D01*
Y705525D02*
Y708700D01*
Y705525D02*
X1219000D01*
Y699175D02*
Y705525D01*
X1215825Y699175D02*
X1219000D01*
X1215825Y696000D02*
Y699175D01*
X1209475Y696000D02*
X1215825D01*
X1209475D02*
Y699175D01*
X1193600Y724575D02*
X1196775D01*
X1193600D02*
Y730925D01*
X1196775D01*
Y734100D01*
X1203125D01*
Y730925D02*
Y734100D01*
Y730925D02*
X1206300D01*
Y724575D02*
Y730925D01*
X1203125Y724575D02*
X1206300D01*
X1203125Y721400D02*
Y724575D01*
X1196775Y721400D02*
X1203125D01*
X1196775D02*
Y724575D01*
X1180900Y699175D02*
X1184075D01*
X1180900D02*
Y705525D01*
X1184075D01*
Y708700D01*
X1190425D01*
Y705525D02*
Y708700D01*
Y705525D02*
X1193600D01*
Y699175D02*
Y705525D01*
X1190425Y699175D02*
X1193600D01*
X1190425Y696000D02*
Y699175D01*
X1184075Y696000D02*
X1190425D01*
X1184075D02*
Y699175D01*
X1168200Y724575D02*
X1171375D01*
X1168200D02*
Y730925D01*
X1171375D01*
Y734100D01*
X1177725D01*
Y730925D02*
Y734100D01*
Y730925D02*
X1180900D01*
Y724575D02*
Y730925D01*
X1177725Y724575D02*
X1180900D01*
X1177725Y721400D02*
Y724575D01*
X1171375Y721400D02*
X1177725D01*
X1171375D02*
Y724575D01*
X1155500Y699175D02*
X1158675D01*
X1155500D02*
Y705525D01*
X1158675D01*
Y708700D01*
X1165025D01*
Y705525D02*
Y708700D01*
Y705525D02*
X1168200D01*
Y699175D02*
Y705525D01*
X1165025Y699175D02*
X1168200D01*
X1165025Y696000D02*
Y699175D01*
X1158675Y696000D02*
X1165025D01*
X1158675D02*
Y699175D01*
X863400Y724575D02*
X866575D01*
X863400D02*
Y730925D01*
X866575D01*
Y734100D01*
X872925D01*
Y730925D02*
Y734100D01*
Y730925D02*
X876100D01*
Y724575D02*
Y730925D01*
X872925Y724575D02*
X876100D01*
X872925Y721400D02*
Y724575D01*
X866575Y721400D02*
X872925D01*
X866575D02*
Y724575D01*
X850700Y699175D02*
X853875D01*
X850700D02*
Y705525D01*
X853875D01*
Y708700D01*
X860225D01*
Y705525D02*
Y708700D01*
Y705525D02*
X863400D01*
Y699175D02*
Y705525D01*
X860225Y699175D02*
X863400D01*
X860225Y696000D02*
Y699175D01*
X853875Y696000D02*
X860225D01*
X853875D02*
Y699175D01*
X838000Y724575D02*
X841175D01*
X838000D02*
Y730925D01*
X841175D01*
Y734100D01*
X847525D01*
Y730925D02*
Y734100D01*
Y730925D02*
X850700D01*
Y724575D02*
Y730925D01*
X847525Y724575D02*
X850700D01*
X847525Y721400D02*
Y724575D01*
X841175Y721400D02*
X847525D01*
X841175D02*
Y724575D01*
X825300Y699175D02*
X828475D01*
X825300D02*
Y705525D01*
X828475D01*
Y708700D01*
X834825D01*
Y705525D02*
Y708700D01*
Y705525D02*
X838000D01*
Y699175D02*
Y705525D01*
X834825Y699175D02*
X838000D01*
X834825Y696000D02*
Y699175D01*
X828475Y696000D02*
X834825D01*
X828475D02*
Y699175D01*
X812600Y724575D02*
X815775D01*
X812600D02*
Y730925D01*
X815775D01*
Y734100D01*
X822125D01*
Y730925D02*
Y734100D01*
Y730925D02*
X825300D01*
Y724575D02*
Y730925D01*
X822125Y724575D02*
X825300D01*
X822125Y721400D02*
Y724575D01*
X815775Y721400D02*
X822125D01*
X815775D02*
Y724575D01*
X799900Y699175D02*
X803075D01*
X799900D02*
Y705525D01*
X803075D01*
Y708700D01*
X809425D01*
Y705525D02*
Y708700D01*
Y705525D02*
X812600D01*
Y699175D02*
Y705525D01*
X809425Y699175D02*
X812600D01*
X809425Y696000D02*
Y699175D01*
X803075Y696000D02*
X809425D01*
X803075D02*
Y699175D01*
X787200Y724575D02*
X790375D01*
X787200D02*
Y730925D01*
X790375D01*
Y734100D01*
X796725D01*
Y730925D02*
Y734100D01*
Y730925D02*
X799900D01*
Y724575D02*
Y730925D01*
X796725Y724575D02*
X799900D01*
X796725Y721400D02*
Y724575D01*
X790375Y721400D02*
X796725D01*
X790375D02*
Y724575D01*
X774500Y699175D02*
X777675D01*
X774500D02*
Y705525D01*
X777675D01*
Y708700D01*
X784025D01*
Y705525D02*
Y708700D01*
Y705525D02*
X787200D01*
Y699175D02*
Y705525D01*
X784025Y699175D02*
X787200D01*
X784025Y696000D02*
Y699175D01*
X777675Y696000D02*
X784025D01*
X777675D02*
Y699175D01*
X793550Y299350D02*
X799900Y312050D01*
X787200D02*
X799900D01*
X787200D02*
X793550Y299350D01*
X857050D02*
X863400Y312050D01*
X850700D02*
X863400D01*
X850700D02*
X857050Y299350D01*
X38735Y346141D02*
X41910Y342966D01*
X35560Y346141D02*
X38735D01*
X35560D02*
X38735Y349316D01*
X35560Y352491D02*
X38735Y349316D01*
X35560Y352491D02*
X38735D01*
X41910Y355666D01*
X45085Y352491D01*
X48260D01*
X45085Y349316D02*
X48260Y352491D01*
X45085Y349316D02*
X48260Y346141D01*
X45085D02*
X48260D01*
X41910Y342966D02*
X45085Y346141D01*
X38735Y396941D02*
X41910Y393766D01*
X35560Y396941D02*
X38735D01*
X35560D02*
X38735Y400116D01*
X35560Y403291D02*
X38735Y400116D01*
X35560Y403291D02*
X38735D01*
X41910Y406466D01*
X45085Y403291D01*
X48260D01*
X45085Y400116D02*
X48260Y403291D01*
X45085Y400116D02*
X48260Y396941D01*
X45085D02*
X48260D01*
X41910Y393766D02*
X45085Y396941D01*
X87626Y564623D02*
X89531D01*
X87626D02*
Y568433D01*
X89531D01*
Y570338D01*
X93341D01*
Y568433D02*
Y570338D01*
Y568433D02*
X95246D01*
Y564623D02*
Y568433D01*
X93341Y564623D02*
X95246D01*
X93341Y562718D02*
Y564623D01*
X89531Y562718D02*
X93341D01*
X89531D02*
Y564623D01*
X85086Y563353D02*
X88261D01*
X85086D02*
Y569703D01*
X88261D01*
Y572878D01*
X94611D01*
Y569703D02*
Y572878D01*
Y569703D02*
X97786D01*
Y563353D02*
Y569703D01*
X94611Y563353D02*
X97786D01*
X94611Y560178D02*
Y563353D01*
X88261Y560178D02*
X94611D01*
X88261D02*
Y563353D01*
X87626Y534623D02*
X89531D01*
X87626D02*
Y538433D01*
X89531D01*
Y540338D01*
X93341D01*
Y538433D02*
Y540338D01*
Y538433D02*
X95246D01*
Y534623D02*
Y538433D01*
X93341Y534623D02*
X95246D01*
X93341Y532718D02*
Y534623D01*
X89531Y532718D02*
X93341D01*
X89531D02*
Y534623D01*
X85086Y533353D02*
X88261D01*
X85086D02*
Y539703D01*
X88261D01*
Y542878D01*
X94611D01*
Y539703D02*
Y542878D01*
Y539703D02*
X97786D01*
Y533353D02*
Y539703D01*
X94611Y533353D02*
X97786D01*
X94611Y530178D02*
Y533353D01*
X88261Y530178D02*
X94611D01*
X88261D02*
Y533353D01*
X44426Y541218D02*
X48236Y543123D01*
X52046Y541218D01*
X50141Y545028D02*
X52046Y541218D01*
X50141Y545028D02*
X52046Y548838D01*
X48236Y546933D02*
X52046Y548838D01*
X44426D02*
X48236Y546933D01*
X44426Y548838D02*
X46331Y545028D01*
X44426Y541218D02*
X46331Y545028D01*
X41886Y538678D02*
X48236Y541853D01*
X54586Y538678D01*
X51411Y545028D02*
X54586Y538678D01*
X51411Y545028D02*
X54586Y551378D01*
X48236Y548203D02*
X54586Y551378D01*
X41886D02*
X48236Y548203D01*
X41886Y551378D02*
X45061Y545028D01*
X41886Y538678D02*
X45061Y545028D01*
X87626Y504623D02*
X89531D01*
X87626D02*
Y508433D01*
X89531D01*
Y510338D01*
X93341D01*
Y508433D02*
Y510338D01*
Y508433D02*
X95246D01*
Y504623D02*
Y508433D01*
X93341Y504623D02*
X95246D01*
X93341Y502718D02*
Y504623D01*
X89531Y502718D02*
X93341D01*
X89531D02*
Y504623D01*
X85086Y503353D02*
X88261D01*
X85086D02*
Y509703D01*
X88261D01*
Y512878D01*
X94611D01*
Y509703D02*
Y512878D01*
Y509703D02*
X97786D01*
Y503353D02*
Y509703D01*
X94611Y503353D02*
X97786D01*
X94611Y500178D02*
Y503353D01*
X88261Y500178D02*
X94611D01*
X88261D02*
Y503353D01*
X87626Y474623D02*
X89531D01*
X87626D02*
Y478433D01*
X89531D01*
Y480338D01*
X93341D01*
Y478433D02*
Y480338D01*
Y478433D02*
X95246D01*
Y474623D02*
Y478433D01*
X93341Y474623D02*
X95246D01*
X93341Y472718D02*
Y474623D01*
X89531Y472718D02*
X93341D01*
X89531D02*
Y474623D01*
X85086Y473353D02*
X88261D01*
X85086D02*
Y479703D01*
X88261D01*
Y482878D01*
X94611D01*
Y479703D02*
Y482878D01*
Y479703D02*
X97786D01*
Y473353D02*
Y479703D01*
X94611Y473353D02*
X97786D01*
X94611Y470178D02*
Y473353D01*
X88261Y470178D02*
X94611D01*
X88261D02*
Y473353D01*
X117626Y564623D02*
X119531D01*
X117626D02*
Y568433D01*
X119531D01*
Y570338D01*
X123341D01*
Y568433D02*
Y570338D01*
Y568433D02*
X125246D01*
Y564623D02*
Y568433D01*
X123341Y564623D02*
X125246D01*
X123341Y562718D02*
Y564623D01*
X119531Y562718D02*
X123341D01*
X119531D02*
Y564623D01*
X115086Y563353D02*
X118261D01*
X115086D02*
Y569703D01*
X118261D01*
Y572878D01*
X124611D01*
Y569703D02*
Y572878D01*
Y569703D02*
X127786D01*
Y563353D02*
Y569703D01*
X124611Y563353D02*
X127786D01*
X124611Y560178D02*
Y563353D01*
X118261Y560178D02*
X124611D01*
X118261D02*
Y563353D01*
X117626Y534623D02*
X119531D01*
X117626D02*
Y538433D01*
X119531D01*
Y540338D01*
X123341D01*
Y538433D02*
Y540338D01*
Y538433D02*
X125246D01*
Y534623D02*
Y538433D01*
X123341Y534623D02*
X125246D01*
X123341Y532718D02*
Y534623D01*
X119531Y532718D02*
X123341D01*
X119531D02*
Y534623D01*
X115086Y533353D02*
X118261D01*
X115086D02*
Y539703D01*
X118261D01*
Y542878D01*
X124611D01*
Y539703D02*
Y542878D01*
Y539703D02*
X127786D01*
Y533353D02*
Y539703D01*
X124611Y533353D02*
X127786D01*
X124611Y530178D02*
Y533353D01*
X118261Y530178D02*
X124611D01*
X118261D02*
Y533353D01*
X117626Y504623D02*
X119531D01*
X117626D02*
Y508433D01*
X119531D01*
Y510338D01*
X123341D01*
Y508433D02*
Y510338D01*
Y508433D02*
X125246D01*
Y504623D02*
Y508433D01*
X123341Y504623D02*
X125246D01*
X123341Y502718D02*
Y504623D01*
X119531Y502718D02*
X123341D01*
X119531D02*
Y504623D01*
X115086Y503353D02*
X118261D01*
X115086D02*
Y509703D01*
X118261D01*
Y512878D01*
X124611D01*
Y509703D02*
Y512878D01*
Y509703D02*
X127786D01*
Y503353D02*
Y509703D01*
X124611Y503353D02*
X127786D01*
X124611Y500178D02*
Y503353D01*
X118261Y500178D02*
X124611D01*
X118261D02*
Y503353D01*
X117626Y474623D02*
X119531D01*
X117626D02*
Y478433D01*
X119531D01*
Y480338D01*
X123341D01*
Y478433D02*
Y480338D01*
Y478433D02*
X125246D01*
Y474623D02*
Y478433D01*
X123341Y474623D02*
X125246D01*
X123341Y472718D02*
Y474623D01*
X119531Y472718D02*
X123341D01*
X119531D02*
Y474623D01*
X115086Y473353D02*
X118261D01*
X115086D02*
Y479703D01*
X118261D01*
Y482878D01*
X124611D01*
Y479703D02*
Y482878D01*
Y479703D02*
X127786D01*
Y473353D02*
Y479703D01*
X124611Y473353D02*
X127786D01*
X124611Y470178D02*
Y473353D01*
X118261Y470178D02*
X124611D01*
X118261D02*
Y473353D01*
X44426Y494218D02*
X48236Y496123D01*
X52046Y494218D01*
X50141Y498028D02*
X52046Y494218D01*
X50141Y498028D02*
X52046Y501838D01*
X48236Y499933D02*
X52046Y501838D01*
X44426D02*
X48236Y499933D01*
X44426Y501838D02*
X46331Y498028D01*
X44426Y494218D02*
X46331Y498028D01*
X41886Y491678D02*
X48236Y494853D01*
X54586Y491678D01*
X51411Y498028D02*
X54586Y491678D01*
X51411Y498028D02*
X54586Y504378D01*
X48236Y501203D02*
X54586Y504378D01*
X41886D02*
X48236Y501203D01*
X41886Y504378D02*
X45061Y498028D01*
X41886Y491678D02*
X45061Y498028D01*
D30*
X15875Y1675257D02*
X2886286D01*
X15875Y1218057D02*
X2886286D01*
X15875Y1179957D02*
X2886286D01*
Y1713357D01*
X15875D02*
X2886286D01*
X15875Y1179957D02*
Y1713357D01*
X2536120Y1179957D02*
Y1713357D01*
X2197383Y1179957D02*
Y1713357D01*
X1980527Y1179957D02*
Y1713357D01*
X1630112Y1179957D02*
Y1713357D01*
X1440679Y1179957D02*
Y1713357D01*
X1290857Y1179957D02*
Y1713357D01*
X909971Y1179957D02*
Y1713357D01*
X723586Y1179957D02*
Y1713357D01*
X595093Y1179957D02*
Y1713357D01*
X303079Y1179957D02*
Y1713357D01*
X155797Y1179957D02*
Y1713357D01*
D48*
X44609Y1504654D02*
G03*
X44609Y1504654I-5080J0D01*
G01*
X47995D02*
G03*
X47995Y1504654I-8467J0D01*
G01*
Y1352254D02*
G03*
X47995Y1352254I-8467J0D01*
G01*
X39529Y1648587D02*
X47995Y1665520D01*
X31062D02*
X47995D01*
X31062D02*
X39529Y1648587D01*
X35295Y1614720D02*
X39529Y1610487D01*
X31062Y1614720D02*
X35295D01*
X31062D02*
X35295Y1618954D01*
X31062Y1623187D02*
X35295Y1618954D01*
X31062Y1623187D02*
X35295D01*
X39529Y1627420D01*
X43762Y1623187D01*
X47995D01*
X43762Y1618954D02*
X47995Y1623187D01*
X43762Y1618954D02*
X47995Y1614720D01*
X43762D02*
X47995D01*
X39529Y1610487D02*
X43762Y1614720D01*
X34449Y1575774D02*
X39529Y1578314D01*
X44609Y1575774D01*
X42069Y1580854D02*
X44609Y1575774D01*
X42069Y1580854D02*
X44609Y1585934D01*
X39529Y1583394D02*
X44609Y1585934D01*
X34449D02*
X39529Y1583394D01*
X34449Y1585934D02*
X36989Y1580854D01*
X34449Y1575774D02*
X36989Y1580854D01*
X31062Y1572387D02*
X39529Y1576620D01*
X47995Y1572387D01*
X43762Y1580854D02*
X47995Y1572387D01*
X43762Y1580854D02*
X47995Y1589320D01*
X39529Y1585087D02*
X47995Y1589320D01*
X31062D02*
X39529Y1585087D01*
X31062Y1589320D02*
X35295Y1580854D01*
X31062Y1572387D02*
X35295Y1580854D01*
X34449Y1537674D02*
X44609D01*
Y1547834D01*
X34449D02*
X44609D01*
X34449Y1537674D02*
Y1547834D01*
X31062Y1534287D02*
X47995D01*
Y1551220D01*
X31062D02*
X47995D01*
X31062Y1534287D02*
Y1551220D01*
Y1458087D02*
X39529Y1462320D01*
X47995Y1458087D01*
X43762Y1466554D02*
X47995Y1458087D01*
X43762Y1466554D02*
X47995Y1475020D01*
X39529Y1470787D02*
X47995Y1475020D01*
X31062D02*
X39529Y1470787D01*
X31062Y1475020D02*
X35295Y1466554D01*
X31062Y1458087D02*
X35295Y1466554D01*
X36989Y1425914D02*
X39529Y1423374D01*
X34449Y1425914D02*
X36989D01*
X34449D02*
X36989Y1428454D01*
X34449Y1430994D02*
X36989Y1428454D01*
X34449Y1430994D02*
X36989D01*
X39529Y1433534D01*
X42069Y1430994D01*
X44609D01*
X42069Y1428454D02*
X44609Y1430994D01*
X42069Y1428454D02*
X44609Y1425914D01*
X42069D02*
X44609D01*
X39529Y1423374D02*
X42069Y1425914D01*
X35295Y1424220D02*
X39529Y1419987D01*
X31062Y1424220D02*
X35295D01*
X31062D02*
X35295Y1428454D01*
X31062Y1432687D02*
X35295Y1428454D01*
X31062Y1432687D02*
X35295D01*
X39529Y1436920D01*
X43762Y1432687D01*
X47995D01*
X43762Y1428454D02*
X47995Y1432687D01*
X43762Y1428454D02*
X47995Y1424220D01*
X43762D02*
X47995D01*
X39529Y1419987D02*
X43762Y1424220D01*
X34449Y1387814D02*
X36989D01*
X34449D02*
Y1392894D01*
X36989D01*
Y1395434D01*
X42069D01*
Y1392894D02*
Y1395434D01*
Y1392894D02*
X44609D01*
Y1387814D02*
Y1392894D01*
X42069Y1387814D02*
X44609D01*
X42069Y1385274D02*
Y1387814D01*
X36989Y1385274D02*
X42069D01*
X36989D02*
Y1387814D01*
X31062Y1386120D02*
X35295D01*
X31062D02*
Y1394587D01*
X35295D01*
Y1398820D01*
X43762D01*
Y1394587D02*
Y1398820D01*
Y1394587D02*
X47995D01*
Y1386120D02*
Y1394587D01*
X43762Y1386120D02*
X47995D01*
X43762Y1381887D02*
Y1386120D01*
X35295Y1381887D02*
X43762D01*
X35295D02*
Y1386120D01*
X31062Y1309920D02*
X35295D01*
X31062D02*
Y1318387D01*
X35295D01*
Y1322620D01*
X43762D01*
Y1318387D02*
Y1322620D01*
Y1318387D02*
X47995D01*
Y1309920D02*
Y1318387D01*
X43762Y1309920D02*
X47995D01*
X43762Y1305687D02*
Y1309920D01*
X35295Y1305687D02*
X43762D01*
X35295D02*
Y1309920D01*
X31062Y1267587D02*
X47995D01*
Y1284520D01*
X31062D02*
X47995D01*
X31062Y1267587D02*
Y1284520D01*
X39529Y1232874D02*
X44609Y1243034D01*
X34449D02*
X44609D01*
X34449D02*
X39529Y1232874D01*
Y1229487D02*
X47995Y1246420D01*
X31062D02*
X47995D01*
X31062D02*
X39529Y1229487D01*
X1651698Y1658744D02*
X1644081D01*
X1641542Y1656205D01*
Y1651126D01*
X1644081Y1648587D01*
X1651698D01*
X1666933D02*
X1656777D01*
X1666933Y1658744D01*
Y1661283D01*
X1664394Y1663822D01*
X1659316D01*
X1656777Y1661283D01*
X1682168Y1663822D02*
X1672012D01*
Y1656205D01*
X1677090Y1658744D01*
X1679629D01*
X1682168Y1656205D01*
Y1651126D01*
X1679629Y1648587D01*
X1674551D01*
X1672012Y1651126D01*
X1687247Y1661283D02*
X1689786Y1663822D01*
X1694864D01*
X1697404Y1661283D01*
Y1651126D01*
X1694864Y1648587D01*
X1689786D01*
X1687247Y1651126D01*
Y1661283D01*
X1702482Y1663822D02*
Y1648587D01*
Y1656205D01*
X1705021Y1658744D01*
X1710099D01*
X1712639Y1656205D01*
Y1648587D01*
X1717717D02*
X1722795D01*
X1720256D01*
Y1663822D01*
X1717717Y1661283D01*
X1740569Y1663822D02*
X1735491Y1661283D01*
X1730413Y1656205D01*
Y1651126D01*
X1732952Y1648587D01*
X1738030D01*
X1740569Y1651126D01*
Y1653665D01*
X1738030Y1656205D01*
X1730413D01*
X1745648Y1661283D02*
X1748187Y1663822D01*
X1753265D01*
X1755805Y1661283D01*
Y1651126D01*
X1753265Y1648587D01*
X1748187D01*
X1745648Y1651126D01*
Y1661283D01*
X1646620Y1610487D02*
X1641542Y1615565D01*
Y1620644D01*
X1646620Y1625722D01*
X1654238Y1610487D02*
Y1625722D01*
X1659316Y1620644D01*
X1664394Y1625722D01*
Y1610487D01*
X1669473D02*
X1674551D01*
X1672012D01*
Y1620644D01*
X1669473D01*
X1682168D02*
X1692325Y1610487D01*
X1687247Y1615565D01*
X1692325Y1620644D01*
X1682168Y1610487D01*
X1705021D02*
X1699943D01*
X1697404Y1613026D01*
Y1618105D01*
X1699943Y1620644D01*
X1705021D01*
X1707560Y1618105D01*
Y1615565D01*
X1697404D01*
X1722795Y1625722D02*
Y1610487D01*
X1715178D01*
X1712639Y1613026D01*
Y1618105D01*
X1715178Y1620644D01*
X1722795D01*
X1727874Y1610487D02*
X1732952Y1615565D01*
Y1620644D01*
X1727874Y1625722D01*
X1651698Y1582544D02*
X1644081D01*
X1641542Y1580004D01*
Y1574926D01*
X1644081Y1572387D01*
X1651698D01*
X1656777Y1585083D02*
X1659316Y1587622D01*
X1664394D01*
X1666933Y1585083D01*
Y1574926D01*
X1664394Y1572387D01*
X1659316D01*
X1656777Y1574926D01*
Y1585083D01*
X1672012Y1587622D02*
Y1572387D01*
Y1580004D01*
X1674551Y1582544D01*
X1679629D01*
X1682168Y1580004D01*
Y1572387D01*
X1687247D02*
Y1582544D01*
X1694864D01*
X1697404Y1580004D01*
Y1572387D01*
X1702482Y1585083D02*
X1705021Y1587622D01*
X1710099D01*
X1712639Y1585083D01*
Y1582544D01*
X1710099Y1580004D01*
X1707560D01*
X1710099D01*
X1712639Y1577465D01*
Y1574926D01*
X1710099Y1572387D01*
X1705021D01*
X1702482Y1574926D01*
X1717717Y1585083D02*
X1720256Y1587622D01*
X1725334D01*
X1727874Y1585083D01*
Y1574926D01*
X1725334Y1572387D01*
X1720256D01*
X1717717Y1574926D01*
Y1585083D01*
X1732952D02*
X1735491Y1587622D01*
X1740569D01*
X1743109Y1585083D01*
Y1574926D01*
X1740569Y1572387D01*
X1735491D01*
X1732952Y1574926D01*
Y1585083D01*
X1748187Y1572387D02*
Y1582544D01*
X1750726D01*
X1753265Y1580004D01*
Y1572387D01*
Y1580004D01*
X1755805Y1582544D01*
X1758344Y1580004D01*
Y1572387D01*
X1763422D02*
X1768501D01*
X1765961D01*
Y1587622D01*
X1763422Y1585083D01*
X1786275Y1587622D02*
X1776118D01*
Y1580004D01*
X1781196Y1582544D01*
X1783736D01*
X1786275Y1580004D01*
Y1574926D01*
X1783736Y1572387D01*
X1778657D01*
X1776118Y1574926D01*
X1646620Y1534287D02*
X1641542Y1539365D01*
Y1544444D01*
X1646620Y1549522D01*
X1654238Y1534287D02*
Y1549522D01*
X1659316Y1544444D01*
X1664394Y1549522D01*
Y1534287D01*
X1669473D02*
X1674551D01*
X1672012D01*
Y1544444D01*
X1669473D01*
X1682168D02*
X1692325Y1534287D01*
X1687247Y1539365D01*
X1692325Y1544444D01*
X1682168Y1534287D01*
X1705021D02*
X1699943D01*
X1697404Y1536826D01*
Y1541904D01*
X1699943Y1544444D01*
X1705021D01*
X1707560Y1541904D01*
Y1539365D01*
X1697404D01*
X1722795Y1549522D02*
Y1534287D01*
X1715178D01*
X1712639Y1536826D01*
Y1541904D01*
X1715178Y1544444D01*
X1722795D01*
X1727874Y1534287D02*
X1732952Y1539365D01*
Y1544444D01*
X1727874Y1549522D01*
X1651698Y1506344D02*
X1644081D01*
X1641542Y1503804D01*
Y1498726D01*
X1644081Y1496187D01*
X1651698D01*
X1656777D02*
X1661855D01*
X1659316D01*
Y1511422D01*
X1656777Y1508883D01*
X1679629Y1511422D02*
X1669473D01*
Y1503804D01*
X1674551Y1506344D01*
X1677090D01*
X1679629Y1503804D01*
Y1498726D01*
X1677090Y1496187D01*
X1672012D01*
X1669473Y1498726D01*
X1694864Y1496187D02*
X1684708D01*
X1694864Y1506344D01*
Y1508883D01*
X1692325Y1511422D01*
X1687247D01*
X1684708Y1508883D01*
X1699943Y1511422D02*
Y1496187D01*
Y1503804D01*
X1702482Y1506344D01*
X1707560D01*
X1710099Y1503804D01*
Y1496187D01*
X1715178Y1498726D02*
X1717717Y1496187D01*
X1722795D01*
X1725334Y1498726D01*
Y1508883D01*
X1722795Y1511422D01*
X1717717D01*
X1715178Y1508883D01*
Y1506344D01*
X1717717Y1503804D01*
X1725334D01*
X1730413Y1508883D02*
X1732952Y1511422D01*
X1738030D01*
X1740569Y1508883D01*
Y1498726D01*
X1738030Y1496187D01*
X1732952D01*
X1730413Y1498726D01*
Y1508883D01*
X1748187Y1496187D02*
X1753265D01*
X1755805Y1498726D01*
Y1503804D01*
X1753265Y1506344D01*
X1748187D01*
X1745648Y1503804D01*
Y1498726D01*
X1748187Y1496187D01*
X1760883Y1508883D02*
X1763422Y1511422D01*
X1768501D01*
X1771040Y1508883D01*
Y1498726D01*
X1768501Y1496187D01*
X1763422D01*
X1760883Y1498726D01*
Y1508883D01*
X1776118Y1493648D02*
X1786275D01*
X1791353Y1508883D02*
X1793892Y1511422D01*
X1798971D01*
X1801510Y1508883D01*
Y1498726D01*
X1798971Y1496187D01*
X1793892D01*
X1791353Y1498726D01*
Y1508883D01*
X1806588Y1496187D02*
Y1506344D01*
X1809127D01*
X1811667Y1503804D01*
Y1496187D01*
Y1503804D01*
X1814206Y1506344D01*
X1816745Y1503804D01*
Y1496187D01*
X1821823D02*
X1826902D01*
X1824362D01*
Y1511422D01*
X1821823Y1508883D01*
X1844676Y1511422D02*
X1839597Y1508883D01*
X1834519Y1503804D01*
Y1498726D01*
X1837058Y1496187D01*
X1842137D01*
X1844676Y1498726D01*
Y1501265D01*
X1842137Y1503804D01*
X1834519D01*
X1849754Y1508883D02*
X1852293Y1511422D01*
X1857372D01*
X1859911Y1508883D01*
Y1506344D01*
X1857372Y1503804D01*
X1854833D01*
X1857372D01*
X1859911Y1501265D01*
Y1498726D01*
X1857372Y1496187D01*
X1852293D01*
X1849754Y1498726D01*
X1864989Y1496187D02*
Y1506344D01*
X1867529D01*
X1870068Y1503804D01*
Y1496187D01*
Y1503804D01*
X1872607Y1506344D01*
X1875146Y1503804D01*
Y1496187D01*
X1880224Y1506344D02*
X1890381Y1496187D01*
X1885303Y1501265D01*
X1890381Y1506344D01*
X1880224Y1496187D01*
X1895459D02*
X1900538D01*
X1897999D01*
Y1511422D01*
X1895459Y1508883D01*
X1918312Y1511422D02*
X1913234Y1508883D01*
X1908155Y1503804D01*
Y1498726D01*
X1910694Y1496187D01*
X1915773D01*
X1918312Y1498726D01*
Y1501265D01*
X1915773Y1503804D01*
X1908155D01*
X1923390Y1508883D02*
X1925930Y1511422D01*
X1931008D01*
X1933547Y1508883D01*
Y1506344D01*
X1931008Y1503804D01*
X1928469D01*
X1931008D01*
X1933547Y1501265D01*
Y1498726D01*
X1931008Y1496187D01*
X1925930D01*
X1923390Y1498726D01*
X1938625Y1491109D02*
Y1506344D01*
X1946243D01*
X1948782Y1503804D01*
Y1498726D01*
X1946243Y1496187D01*
X1938625D01*
X1953860Y1508883D02*
X1956400Y1511422D01*
X1961478D01*
X1964017Y1508883D01*
Y1498726D01*
X1961478Y1496187D01*
X1956400D01*
X1953860Y1498726D01*
Y1508883D01*
X1651698Y1468244D02*
X1644081D01*
X1641542Y1465704D01*
Y1460626D01*
X1644081Y1458087D01*
X1651698D01*
X1656777Y1470783D02*
X1659316Y1473322D01*
X1664394D01*
X1666933Y1470783D01*
Y1460626D01*
X1664394Y1458087D01*
X1659316D01*
X1656777Y1460626D01*
Y1470783D01*
X1672012Y1473322D02*
Y1458087D01*
Y1465704D01*
X1674551Y1468244D01*
X1679629D01*
X1682168Y1465704D01*
Y1458087D01*
X1687247D02*
Y1468244D01*
X1694864D01*
X1697404Y1465704D01*
Y1458087D01*
X1702482D02*
X1707560D01*
X1705021D01*
Y1473322D01*
X1702482Y1470783D01*
X1725334Y1473322D02*
X1720256Y1470783D01*
X1715178Y1465704D01*
Y1460626D01*
X1717717Y1458087D01*
X1722795D01*
X1725334Y1460626D01*
Y1463165D01*
X1722795Y1465704D01*
X1715178D01*
X1730413Y1470783D02*
X1732952Y1473322D01*
X1738030D01*
X1740569Y1470783D01*
Y1460626D01*
X1738030Y1458087D01*
X1732952D01*
X1730413Y1460626D01*
Y1470783D01*
X1651698Y1430144D02*
X1644081D01*
X1641542Y1427605D01*
Y1422526D01*
X1644081Y1419987D01*
X1651698D01*
X1664394D02*
Y1435222D01*
X1656777Y1427605D01*
X1666933D01*
X1679629Y1419987D02*
Y1435222D01*
X1672012Y1427605D01*
X1682168D01*
X1687247Y1432683D02*
X1689786Y1435222D01*
X1694864D01*
X1697404Y1432683D01*
Y1422526D01*
X1694864Y1419987D01*
X1689786D01*
X1687247Y1422526D01*
Y1432683D01*
X1702482Y1435222D02*
Y1419987D01*
Y1427605D01*
X1705021Y1430144D01*
X1710099D01*
X1712639Y1427605D01*
Y1419987D01*
X1717717Y1432683D02*
X1720256Y1435222D01*
X1725334D01*
X1727874Y1432683D01*
Y1430144D01*
X1725334Y1427605D01*
X1722795D01*
X1725334D01*
X1727874Y1425065D01*
Y1422526D01*
X1725334Y1419987D01*
X1720256D01*
X1717717Y1422526D01*
X1740569Y1419987D02*
Y1435222D01*
X1732952Y1427605D01*
X1743109D01*
X1748187Y1432683D02*
X1750726Y1435222D01*
X1755805D01*
X1758344Y1432683D01*
Y1422526D01*
X1755805Y1419987D01*
X1750726D01*
X1748187Y1422526D01*
Y1432683D01*
X1646620Y1381887D02*
X1641542Y1386965D01*
Y1392044D01*
X1646620Y1397122D01*
X1654238Y1381887D02*
Y1397122D01*
X1659316Y1392044D01*
X1664394Y1397122D01*
Y1381887D01*
X1669473D02*
X1674551D01*
X1672012D01*
Y1392044D01*
X1669473D01*
X1682168D02*
X1692325Y1381887D01*
X1687247Y1386965D01*
X1692325Y1392044D01*
X1682168Y1381887D01*
X1705021D02*
X1699943D01*
X1697404Y1384426D01*
Y1389505D01*
X1699943Y1392044D01*
X1705021D01*
X1707560Y1389505D01*
Y1386965D01*
X1697404D01*
X1722795Y1397122D02*
Y1381887D01*
X1715178D01*
X1712639Y1384426D01*
Y1389505D01*
X1715178Y1392044D01*
X1722795D01*
X1727874Y1381887D02*
X1732952Y1386965D01*
Y1392044D01*
X1727874Y1397122D01*
X1646620Y1343787D02*
X1641542Y1348865D01*
Y1353944D01*
X1646620Y1359022D01*
X1654238Y1343787D02*
Y1359022D01*
X1659316Y1353944D01*
X1664394Y1359022D01*
Y1343787D01*
X1669473D02*
X1674551D01*
X1672012D01*
Y1353944D01*
X1669473D01*
X1682168D02*
X1692325Y1343787D01*
X1687247Y1348865D01*
X1692325Y1353944D01*
X1682168Y1343787D01*
X1705021D02*
X1699943D01*
X1697404Y1346326D01*
Y1351405D01*
X1699943Y1353944D01*
X1705021D01*
X1707560Y1351405D01*
Y1348865D01*
X1697404D01*
X1722795Y1359022D02*
Y1343787D01*
X1715178D01*
X1712639Y1346326D01*
Y1351405D01*
X1715178Y1353944D01*
X1722795D01*
X1727874Y1343787D02*
X1732952Y1348865D01*
Y1353944D01*
X1727874Y1359022D01*
X1646620Y1305687D02*
X1641542Y1310765D01*
Y1315844D01*
X1646620Y1320922D01*
X1654238Y1305687D02*
Y1320922D01*
X1659316Y1315844D01*
X1664394Y1320922D01*
Y1305687D01*
X1669473D02*
X1674551D01*
X1672012D01*
Y1315844D01*
X1669473D01*
X1682168D02*
X1692325Y1305687D01*
X1687247Y1310765D01*
X1692325Y1315844D01*
X1682168Y1305687D01*
X1705021D02*
X1699943D01*
X1697404Y1308226D01*
Y1313304D01*
X1699943Y1315844D01*
X1705021D01*
X1707560Y1313304D01*
Y1310765D01*
X1697404D01*
X1722795Y1320922D02*
Y1305687D01*
X1715178D01*
X1712639Y1308226D01*
Y1313304D01*
X1715178Y1315844D01*
X1722795D01*
X1727874Y1305687D02*
X1732952Y1310765D01*
Y1315844D01*
X1727874Y1320922D01*
X1646620Y1267587D02*
X1641542Y1272665D01*
Y1277744D01*
X1646620Y1282822D01*
X1654238Y1267587D02*
Y1282822D01*
X1659316Y1277744D01*
X1664394Y1282822D01*
Y1267587D01*
X1669473D02*
X1674551D01*
X1672012D01*
Y1277744D01*
X1669473D01*
X1682168D02*
X1692325Y1267587D01*
X1687247Y1272665D01*
X1692325Y1277744D01*
X1682168Y1267587D01*
X1705021D02*
X1699943D01*
X1697404Y1270126D01*
Y1275204D01*
X1699943Y1277744D01*
X1705021D01*
X1707560Y1275204D01*
Y1272665D01*
X1697404D01*
X1722795Y1282822D02*
Y1267587D01*
X1715178D01*
X1712639Y1270126D01*
Y1275204D01*
X1715178Y1277744D01*
X1722795D01*
X1727874Y1267587D02*
X1732952Y1272665D01*
Y1277744D01*
X1727874Y1282822D01*
X1641542Y1239644D02*
X1646620Y1229487D01*
X1651698Y1239644D01*
X1656777Y1229487D02*
X1661855D01*
X1659316D01*
Y1244722D01*
X1656777Y1242183D01*
X1669473D02*
X1672012Y1244722D01*
X1677090D01*
X1679629Y1242183D01*
Y1232026D01*
X1677090Y1229487D01*
X1672012D01*
X1669473Y1232026D01*
Y1242183D01*
X1684708D02*
X1687247Y1244722D01*
X1692325D01*
X1694864Y1242183D01*
Y1232026D01*
X1692325Y1229487D01*
X1687247D01*
X1684708Y1232026D01*
Y1242183D01*
X1699943Y1244722D02*
Y1229487D01*
Y1237104D01*
X1702482Y1239644D01*
X1707560D01*
X1710099Y1237104D01*
Y1229487D01*
X1725334Y1244722D02*
X1720256Y1242183D01*
X1715178Y1237104D01*
Y1232026D01*
X1717717Y1229487D01*
X1722795D01*
X1725334Y1232026D01*
Y1234565D01*
X1722795Y1237104D01*
X1715178D01*
X1730413Y1242183D02*
X1732952Y1244722D01*
X1738030D01*
X1740569Y1242183D01*
Y1232026D01*
X1738030Y1229487D01*
X1732952D01*
X1730413Y1232026D01*
Y1242183D01*
X1745648Y1229487D02*
Y1239644D01*
X1748187D01*
X1750726Y1237104D01*
Y1229487D01*
Y1237104D01*
X1753265Y1239644D01*
X1755805Y1237104D01*
Y1229487D01*
X1760883Y1242183D02*
X1763422Y1244722D01*
X1768501D01*
X1771040Y1242183D01*
Y1232026D01*
X1768501Y1229487D01*
X1763422D01*
X1760883Y1232026D01*
Y1242183D01*
X1776118Y1229487D02*
Y1239644D01*
X1778657D01*
X1781196Y1237104D01*
Y1229487D01*
Y1237104D01*
X1783736Y1239644D01*
X1786275Y1237104D01*
Y1229487D01*
X1791353Y1239644D02*
X1801510Y1229487D01*
X1796431Y1234565D01*
X1801510Y1239644D01*
X1791353Y1229487D01*
X1806588Y1242183D02*
X1809127Y1244722D01*
X1814206D01*
X1816745Y1242183D01*
Y1232026D01*
X1814206Y1229487D01*
X1809127D01*
X1806588Y1232026D01*
Y1242183D01*
X1452109Y1648587D02*
Y1663822D01*
X1459726D01*
X1462266Y1661283D01*
Y1656205D01*
X1459726Y1653665D01*
X1452109D01*
X1457187D02*
X1462266Y1648587D01*
X1469883D02*
X1474962D01*
X1477501Y1651126D01*
Y1656205D01*
X1474962Y1658744D01*
X1469883D01*
X1467344Y1656205D01*
Y1651126D01*
X1469883Y1648587D01*
X1482579Y1658744D02*
Y1651126D01*
X1485118Y1648587D01*
X1492736D01*
Y1658744D01*
X1497814Y1648587D02*
Y1658744D01*
X1505432D01*
X1507971Y1656205D01*
Y1648587D01*
X1523206Y1663822D02*
Y1648587D01*
X1515588D01*
X1513049Y1651126D01*
Y1656205D01*
X1515588Y1658744D01*
X1523206D01*
X1535902Y1648587D02*
X1530823D01*
X1528284Y1651126D01*
Y1656205D01*
X1530823Y1658744D01*
X1535902D01*
X1538441Y1656205D01*
Y1653665D01*
X1528284D01*
X1553676Y1663822D02*
Y1648587D01*
X1546059D01*
X1543519Y1651126D01*
Y1656205D01*
X1546059Y1658744D01*
X1553676D01*
X1457187Y1610487D02*
X1452109Y1615565D01*
Y1620644D01*
X1457187Y1625722D01*
X1464805Y1610487D02*
Y1625722D01*
X1469883Y1620644D01*
X1474962Y1625722D01*
Y1610487D01*
X1480040D02*
X1485118D01*
X1482579D01*
Y1620644D01*
X1480040D01*
X1492736D02*
X1502892Y1610487D01*
X1497814Y1615565D01*
X1502892Y1620644D01*
X1492736Y1610487D01*
X1515588D02*
X1510510D01*
X1507971Y1613026D01*
Y1618105D01*
X1510510Y1620644D01*
X1515588D01*
X1518127Y1618105D01*
Y1615565D01*
X1507971D01*
X1533363Y1625722D02*
Y1610487D01*
X1525745D01*
X1523206Y1613026D01*
Y1618105D01*
X1525745Y1620644D01*
X1533363D01*
X1538441Y1610487D02*
X1543519Y1615565D01*
Y1620644D01*
X1538441Y1625722D01*
X1452109Y1572387D02*
Y1587622D01*
X1459726D01*
X1462266Y1585083D01*
Y1580004D01*
X1459726Y1577465D01*
X1452109D01*
X1457187D02*
X1462266Y1572387D01*
X1469883D02*
X1474962D01*
X1477501Y1574926D01*
Y1580004D01*
X1474962Y1582544D01*
X1469883D01*
X1467344Y1580004D01*
Y1574926D01*
X1469883Y1572387D01*
X1482579Y1582544D02*
Y1574926D01*
X1485118Y1572387D01*
X1492736D01*
Y1582544D01*
X1497814Y1572387D02*
Y1582544D01*
X1505432D01*
X1507971Y1580004D01*
Y1572387D01*
X1523206Y1587622D02*
Y1572387D01*
X1515588D01*
X1513049Y1574926D01*
Y1580004D01*
X1515588Y1582544D01*
X1523206D01*
X1535902Y1572387D02*
X1530823D01*
X1528284Y1574926D01*
Y1580004D01*
X1530823Y1582544D01*
X1535902D01*
X1538441Y1580004D01*
Y1577465D01*
X1528284D01*
X1553676Y1587622D02*
Y1572387D01*
X1546059D01*
X1543519Y1574926D01*
Y1580004D01*
X1546059Y1582544D01*
X1553676D01*
X1457187Y1534287D02*
X1452109Y1539365D01*
Y1544444D01*
X1457187Y1549522D01*
X1464805Y1534287D02*
Y1549522D01*
X1469883Y1544444D01*
X1474962Y1549522D01*
Y1534287D01*
X1480040D02*
X1485118D01*
X1482579D01*
Y1544444D01*
X1480040D01*
X1492736D02*
X1502892Y1534287D01*
X1497814Y1539365D01*
X1502892Y1544444D01*
X1492736Y1534287D01*
X1515588D02*
X1510510D01*
X1507971Y1536826D01*
Y1541904D01*
X1510510Y1544444D01*
X1515588D01*
X1518127Y1541904D01*
Y1539365D01*
X1507971D01*
X1533363Y1549522D02*
Y1534287D01*
X1525745D01*
X1523206Y1536826D01*
Y1541904D01*
X1525745Y1544444D01*
X1533363D01*
X1538441Y1534287D02*
X1543519Y1539365D01*
Y1544444D01*
X1538441Y1549522D01*
X1452109Y1496187D02*
Y1511422D01*
X1459726D01*
X1462266Y1508883D01*
Y1503804D01*
X1459726Y1501265D01*
X1452109D01*
X1457187D02*
X1462266Y1496187D01*
X1469883D02*
X1474962D01*
X1477501Y1498726D01*
Y1503804D01*
X1474962Y1506344D01*
X1469883D01*
X1467344Y1503804D01*
Y1498726D01*
X1469883Y1496187D01*
X1482579Y1506344D02*
Y1498726D01*
X1485118Y1496187D01*
X1492736D01*
Y1506344D01*
X1497814Y1496187D02*
Y1506344D01*
X1505432D01*
X1507971Y1503804D01*
Y1496187D01*
X1523206Y1511422D02*
Y1496187D01*
X1515588D01*
X1513049Y1498726D01*
Y1503804D01*
X1515588Y1506344D01*
X1523206D01*
X1535902Y1496187D02*
X1530823D01*
X1528284Y1498726D01*
Y1503804D01*
X1530823Y1506344D01*
X1535902D01*
X1538441Y1503804D01*
Y1501265D01*
X1528284D01*
X1553676Y1511422D02*
Y1496187D01*
X1546059D01*
X1543519Y1498726D01*
Y1503804D01*
X1546059Y1506344D01*
X1553676D01*
X1452109Y1458087D02*
Y1473322D01*
X1459726D01*
X1462266Y1470783D01*
Y1465704D01*
X1459726Y1463165D01*
X1452109D01*
X1457187D02*
X1462266Y1458087D01*
X1469883D02*
X1474962D01*
X1477501Y1460626D01*
Y1465704D01*
X1474962Y1468244D01*
X1469883D01*
X1467344Y1465704D01*
Y1460626D01*
X1469883Y1458087D01*
X1482579Y1468244D02*
Y1460626D01*
X1485118Y1458087D01*
X1492736D01*
Y1468244D01*
X1497814Y1458087D02*
Y1468244D01*
X1505432D01*
X1507971Y1465704D01*
Y1458087D01*
X1523206Y1473322D02*
Y1458087D01*
X1515588D01*
X1513049Y1460626D01*
Y1465704D01*
X1515588Y1468244D01*
X1523206D01*
X1535902Y1458087D02*
X1530823D01*
X1528284Y1460626D01*
Y1465704D01*
X1530823Y1468244D01*
X1535902D01*
X1538441Y1465704D01*
Y1463165D01*
X1528284D01*
X1553676Y1473322D02*
Y1458087D01*
X1546059D01*
X1543519Y1460626D01*
Y1465704D01*
X1546059Y1468244D01*
X1553676D01*
X1452109Y1419987D02*
Y1435222D01*
X1459726D01*
X1462266Y1432683D01*
Y1427605D01*
X1459726Y1425065D01*
X1452109D01*
X1457187D02*
X1462266Y1419987D01*
X1469883D02*
X1474962D01*
X1477501Y1422526D01*
Y1427605D01*
X1474962Y1430144D01*
X1469883D01*
X1467344Y1427605D01*
Y1422526D01*
X1469883Y1419987D01*
X1482579Y1430144D02*
Y1422526D01*
X1485118Y1419987D01*
X1492736D01*
Y1430144D01*
X1497814Y1419987D02*
Y1430144D01*
X1505432D01*
X1507971Y1427605D01*
Y1419987D01*
X1523206Y1435222D02*
Y1419987D01*
X1515588D01*
X1513049Y1422526D01*
Y1427605D01*
X1515588Y1430144D01*
X1523206D01*
X1535902Y1419987D02*
X1530823D01*
X1528284Y1422526D01*
Y1427605D01*
X1530823Y1430144D01*
X1535902D01*
X1538441Y1427605D01*
Y1425065D01*
X1528284D01*
X1553676Y1435222D02*
Y1419987D01*
X1546059D01*
X1543519Y1422526D01*
Y1427605D01*
X1546059Y1430144D01*
X1553676D01*
X1457187Y1381887D02*
X1452109Y1386965D01*
Y1392044D01*
X1457187Y1397122D01*
X1464805Y1381887D02*
Y1397122D01*
X1469883Y1392044D01*
X1474962Y1397122D01*
Y1381887D01*
X1480040D02*
X1485118D01*
X1482579D01*
Y1392044D01*
X1480040D01*
X1492736D02*
X1502892Y1381887D01*
X1497814Y1386965D01*
X1502892Y1392044D01*
X1492736Y1381887D01*
X1515588D02*
X1510510D01*
X1507971Y1384426D01*
Y1389505D01*
X1510510Y1392044D01*
X1515588D01*
X1518127Y1389505D01*
Y1386965D01*
X1507971D01*
X1533363Y1397122D02*
Y1381887D01*
X1525745D01*
X1523206Y1384426D01*
Y1389505D01*
X1525745Y1392044D01*
X1533363D01*
X1538441Y1381887D02*
X1543519Y1386965D01*
Y1392044D01*
X1538441Y1397122D01*
X1452109Y1343787D02*
Y1359022D01*
X1459726D01*
X1462266Y1356483D01*
Y1351405D01*
X1459726Y1348865D01*
X1452109D01*
X1457187D02*
X1462266Y1343787D01*
X1469883D02*
X1474962D01*
X1477501Y1346326D01*
Y1351405D01*
X1474962Y1353944D01*
X1469883D01*
X1467344Y1351405D01*
Y1346326D01*
X1469883Y1343787D01*
X1482579Y1353944D02*
Y1346326D01*
X1485118Y1343787D01*
X1492736D01*
Y1353944D01*
X1497814Y1343787D02*
Y1353944D01*
X1505432D01*
X1507971Y1351405D01*
Y1343787D01*
X1523206Y1359022D02*
Y1343787D01*
X1515588D01*
X1513049Y1346326D01*
Y1351405D01*
X1515588Y1353944D01*
X1523206D01*
X1535902Y1343787D02*
X1530823D01*
X1528284Y1346326D01*
Y1351405D01*
X1530823Y1353944D01*
X1535902D01*
X1538441Y1351405D01*
Y1348865D01*
X1528284D01*
X1553676Y1359022D02*
Y1343787D01*
X1546059D01*
X1543519Y1346326D01*
Y1351405D01*
X1546059Y1353944D01*
X1553676D01*
X1457187Y1305687D02*
X1452109Y1310765D01*
Y1315844D01*
X1457187Y1320922D01*
X1464805Y1305687D02*
Y1320922D01*
X1469883Y1315844D01*
X1474962Y1320922D01*
Y1305687D01*
X1480040D02*
X1485118D01*
X1482579D01*
Y1315844D01*
X1480040D01*
X1492736D02*
X1502892Y1305687D01*
X1497814Y1310765D01*
X1502892Y1315844D01*
X1492736Y1305687D01*
X1515588D02*
X1510510D01*
X1507971Y1308226D01*
Y1313304D01*
X1510510Y1315844D01*
X1515588D01*
X1518127Y1313304D01*
Y1310765D01*
X1507971D01*
X1533363Y1320922D02*
Y1305687D01*
X1525745D01*
X1523206Y1308226D01*
Y1313304D01*
X1525745Y1315844D01*
X1533363D01*
X1538441Y1305687D02*
X1543519Y1310765D01*
Y1315844D01*
X1538441Y1320922D01*
X1457187Y1267587D02*
X1452109Y1272665D01*
Y1277744D01*
X1457187Y1282822D01*
X1464805Y1267587D02*
Y1282822D01*
X1469883Y1277744D01*
X1474962Y1282822D01*
Y1267587D01*
X1480040D02*
X1485118D01*
X1482579D01*
Y1277744D01*
X1480040D01*
X1492736D02*
X1502892Y1267587D01*
X1497814Y1272665D01*
X1502892Y1277744D01*
X1492736Y1267587D01*
X1515588D02*
X1510510D01*
X1507971Y1270126D01*
Y1275204D01*
X1510510Y1277744D01*
X1515588D01*
X1518127Y1275204D01*
Y1272665D01*
X1507971D01*
X1533363Y1282822D02*
Y1267587D01*
X1525745D01*
X1523206Y1270126D01*
Y1275204D01*
X1525745Y1277744D01*
X1533363D01*
X1538441Y1267587D02*
X1543519Y1272665D01*
Y1277744D01*
X1538441Y1282822D01*
X1452109Y1229487D02*
Y1244722D01*
X1459726D01*
X1462266Y1242183D01*
Y1237104D01*
X1459726Y1234565D01*
X1452109D01*
X1457187D02*
X1462266Y1229487D01*
X1469883D02*
X1474962D01*
X1477501Y1232026D01*
Y1237104D01*
X1474962Y1239644D01*
X1469883D01*
X1467344Y1237104D01*
Y1232026D01*
X1469883Y1229487D01*
X1482579Y1239644D02*
Y1232026D01*
X1485118Y1229487D01*
X1492736D01*
Y1239644D01*
X1497814Y1229487D02*
Y1239644D01*
X1505432D01*
X1507971Y1237104D01*
Y1229487D01*
X1523206Y1244722D02*
Y1229487D01*
X1515588D01*
X1513049Y1232026D01*
Y1237104D01*
X1515588Y1239644D01*
X1523206D01*
X1535902Y1229487D02*
X1530823D01*
X1528284Y1232026D01*
Y1237104D01*
X1530823Y1239644D01*
X1535902D01*
X1538441Y1237104D01*
Y1234565D01*
X1528284D01*
X1553676Y1244722D02*
Y1229487D01*
X1546059D01*
X1543519Y1232026D01*
Y1237104D01*
X1546059Y1239644D01*
X1553676D01*
X1302287Y1648587D02*
Y1663822D01*
X1309905D01*
X1312444Y1661283D01*
Y1656205D01*
X1309905Y1653665D01*
X1302287D01*
X1320062Y1658744D02*
X1325140D01*
X1327679Y1656205D01*
Y1648587D01*
X1320062D01*
X1317522Y1651126D01*
X1320062Y1653665D01*
X1327679D01*
X1342914Y1663822D02*
Y1648587D01*
X1335297D01*
X1332758Y1651126D01*
Y1656205D01*
X1335297Y1658744D01*
X1342914D01*
X1302287Y1610487D02*
Y1625722D01*
X1309905D01*
X1312444Y1623183D01*
Y1618105D01*
X1309905Y1615565D01*
X1302287D01*
X1320062Y1620644D02*
X1325140D01*
X1327679Y1618105D01*
Y1610487D01*
X1320062D01*
X1317522Y1613026D01*
X1320062Y1615565D01*
X1327679D01*
X1342914Y1625722D02*
Y1610487D01*
X1335297D01*
X1332758Y1613026D01*
Y1618105D01*
X1335297Y1620644D01*
X1342914D01*
X1302287Y1572387D02*
Y1587622D01*
X1309905D01*
X1312444Y1585083D01*
Y1580004D01*
X1309905Y1577465D01*
X1302287D01*
X1320062Y1582544D02*
X1325140D01*
X1327679Y1580004D01*
Y1572387D01*
X1320062D01*
X1317522Y1574926D01*
X1320062Y1577465D01*
X1327679D01*
X1342914Y1587622D02*
Y1572387D01*
X1335297D01*
X1332758Y1574926D01*
Y1580004D01*
X1335297Y1582544D01*
X1342914D01*
X1302287Y1534287D02*
Y1549522D01*
X1309905D01*
X1312444Y1546983D01*
Y1541904D01*
X1309905Y1539365D01*
X1302287D01*
X1320062Y1544444D02*
X1325140D01*
X1327679Y1541904D01*
Y1534287D01*
X1320062D01*
X1317522Y1536826D01*
X1320062Y1539365D01*
X1327679D01*
X1342914Y1549522D02*
Y1534287D01*
X1335297D01*
X1332758Y1536826D01*
Y1541904D01*
X1335297Y1544444D01*
X1342914D01*
X1302287Y1496187D02*
Y1511422D01*
X1309905D01*
X1312444Y1508883D01*
Y1503804D01*
X1309905Y1501265D01*
X1302287D01*
X1320062Y1506344D02*
X1325140D01*
X1327679Y1503804D01*
Y1496187D01*
X1320062D01*
X1317522Y1498726D01*
X1320062Y1501265D01*
X1327679D01*
X1342914Y1511422D02*
Y1496187D01*
X1335297D01*
X1332758Y1498726D01*
Y1503804D01*
X1335297Y1506344D01*
X1342914D01*
X1302287Y1458087D02*
Y1473322D01*
X1309905D01*
X1312444Y1470783D01*
Y1465704D01*
X1309905Y1463165D01*
X1302287D01*
X1320062Y1468244D02*
X1325140D01*
X1327679Y1465704D01*
Y1458087D01*
X1320062D01*
X1317522Y1460626D01*
X1320062Y1463165D01*
X1327679D01*
X1342914Y1473322D02*
Y1458087D01*
X1335297D01*
X1332758Y1460626D01*
Y1465704D01*
X1335297Y1468244D01*
X1342914D01*
X1302287Y1419987D02*
Y1435222D01*
X1309905D01*
X1312444Y1432683D01*
Y1427605D01*
X1309905Y1425065D01*
X1302287D01*
X1320062Y1430144D02*
X1325140D01*
X1327679Y1427605D01*
Y1419987D01*
X1320062D01*
X1317522Y1422526D01*
X1320062Y1425065D01*
X1327679D01*
X1342914Y1435222D02*
Y1419987D01*
X1335297D01*
X1332758Y1422526D01*
Y1427605D01*
X1335297Y1430144D01*
X1342914D01*
X1302287Y1381887D02*
Y1397122D01*
X1309905D01*
X1312444Y1394583D01*
Y1389505D01*
X1309905Y1386965D01*
X1302287D01*
X1320062Y1392044D02*
X1325140D01*
X1327679Y1389505D01*
Y1381887D01*
X1320062D01*
X1317522Y1384426D01*
X1320062Y1386965D01*
X1327679D01*
X1342914Y1397122D02*
Y1381887D01*
X1335297D01*
X1332758Y1384426D01*
Y1389505D01*
X1335297Y1392044D01*
X1342914D01*
X1302287Y1343787D02*
Y1359022D01*
X1309905D01*
X1312444Y1356483D01*
Y1351405D01*
X1309905Y1348865D01*
X1302287D01*
X1320062Y1353944D02*
X1325140D01*
X1327679Y1351405D01*
Y1343787D01*
X1320062D01*
X1317522Y1346326D01*
X1320062Y1348865D01*
X1327679D01*
X1342914Y1359022D02*
Y1343787D01*
X1335297D01*
X1332758Y1346326D01*
Y1351405D01*
X1335297Y1353944D01*
X1342914D01*
X1302287Y1305687D02*
Y1320922D01*
X1309905D01*
X1312444Y1318383D01*
Y1313304D01*
X1309905Y1310765D01*
X1302287D01*
X1320062Y1315844D02*
X1325140D01*
X1327679Y1313304D01*
Y1305687D01*
X1320062D01*
X1317522Y1308226D01*
X1320062Y1310765D01*
X1327679D01*
X1342914Y1320922D02*
Y1305687D01*
X1335297D01*
X1332758Y1308226D01*
Y1313304D01*
X1335297Y1315844D01*
X1342914D01*
X1302287Y1267587D02*
Y1282822D01*
X1309905D01*
X1312444Y1280283D01*
Y1275204D01*
X1309905Y1272665D01*
X1302287D01*
X1320062Y1277744D02*
X1325140D01*
X1327679Y1275204D01*
Y1267587D01*
X1320062D01*
X1317522Y1270126D01*
X1320062Y1272665D01*
X1327679D01*
X1342914Y1282822D02*
Y1267587D01*
X1335297D01*
X1332758Y1270126D01*
Y1275204D01*
X1335297Y1277744D01*
X1342914D01*
X1302287Y1244722D02*
Y1234565D01*
X1307366Y1229487D01*
X1312444Y1234565D01*
Y1244722D01*
X1317522Y1229487D02*
X1322601D01*
X1320062D01*
Y1239644D01*
X1317522D01*
X1332758D02*
X1337836D01*
X1340375Y1237104D01*
Y1229487D01*
X1332758D01*
X1330218Y1232026D01*
X1332758Y1234565D01*
X1340375D01*
X921402Y1663822D02*
X931558D01*
X926480D01*
Y1648587D01*
X939176D02*
X944254D01*
X946793Y1651126D01*
Y1656205D01*
X944254Y1658744D01*
X939176D01*
X936637Y1656205D01*
Y1651126D01*
X939176Y1648587D01*
X951872Y1643509D02*
Y1658744D01*
X959489D01*
X962028Y1656205D01*
Y1651126D01*
X959489Y1648587D01*
X951872D01*
X982342Y1663822D02*
Y1648587D01*
X992498D01*
X1000116Y1658744D02*
X1005194D01*
X1007734Y1656205D01*
Y1648587D01*
X1000116D01*
X997577Y1651126D01*
X1000116Y1653665D01*
X1007734D01*
X1012812Y1658744D02*
Y1651126D01*
X1015351Y1648587D01*
X1022969D01*
Y1646048D01*
X1020430Y1643509D01*
X1017890D01*
X1022969Y1648587D02*
Y1658744D01*
X1035665Y1648587D02*
X1030586D01*
X1028047Y1651126D01*
Y1656205D01*
X1030586Y1658744D01*
X1035665D01*
X1038204Y1656205D01*
Y1653665D01*
X1028047D01*
X1043282Y1658744D02*
Y1648587D01*
Y1653665D01*
X1045821Y1656205D01*
X1048360Y1658744D01*
X1050900D01*
X1073752Y1656205D02*
X1083909D01*
X1104222Y1663822D02*
Y1648587D01*
X1111840D01*
X1114379Y1651126D01*
Y1653665D01*
X1111840Y1656205D01*
X1104222D01*
X1111840D01*
X1114379Y1658744D01*
Y1661283D01*
X1111840Y1663822D01*
X1104222D01*
X1121997Y1648587D02*
X1127075D01*
X1129614Y1651126D01*
Y1656205D01*
X1127075Y1658744D01*
X1121997D01*
X1119457Y1656205D01*
Y1651126D01*
X1121997Y1648587D01*
X1137232Y1661283D02*
Y1658744D01*
X1134693D01*
X1139771D01*
X1137232D01*
Y1651126D01*
X1139771Y1648587D01*
X1149928Y1661283D02*
Y1658744D01*
X1147388D01*
X1152467D01*
X1149928D01*
Y1651126D01*
X1152467Y1648587D01*
X1162624D02*
X1167702D01*
X1170241Y1651126D01*
Y1656205D01*
X1167702Y1658744D01*
X1162624D01*
X1160084Y1656205D01*
Y1651126D01*
X1162624Y1648587D01*
X1175319D02*
Y1658744D01*
X1177859D01*
X1180398Y1656205D01*
Y1648587D01*
Y1656205D01*
X1182937Y1658744D01*
X1185476Y1656205D01*
Y1648587D01*
X1205789Y1663822D02*
Y1648587D01*
X1215946D01*
X1223564Y1658744D02*
X1228642D01*
X1231181Y1656205D01*
Y1648587D01*
X1223564D01*
X1221025Y1651126D01*
X1223564Y1653665D01*
X1231181D01*
X1236260Y1658744D02*
Y1651126D01*
X1238799Y1648587D01*
X1246416D01*
Y1646048D01*
X1243877Y1643509D01*
X1241338D01*
X1246416Y1648587D02*
Y1658744D01*
X1259112Y1648587D02*
X1254034D01*
X1251495Y1651126D01*
Y1656205D01*
X1254034Y1658744D01*
X1259112D01*
X1261651Y1656205D01*
Y1653665D01*
X1251495D01*
X1266730Y1658744D02*
Y1648587D01*
Y1653665D01*
X1269269Y1656205D01*
X1271808Y1658744D01*
X1274347D01*
X921402Y1625722D02*
X931558D01*
X926480D01*
Y1610487D01*
X939176D02*
X944254D01*
X946793Y1613026D01*
Y1618105D01*
X944254Y1620644D01*
X939176D01*
X936637Y1618105D01*
Y1613026D01*
X939176Y1610487D01*
X951872Y1605409D02*
Y1620644D01*
X959489D01*
X962028Y1618105D01*
Y1613026D01*
X959489Y1610487D01*
X951872D01*
X982342Y1625722D02*
Y1610487D01*
X992498D01*
X1000116Y1620644D02*
X1005194D01*
X1007734Y1618105D01*
Y1610487D01*
X1000116D01*
X997577Y1613026D01*
X1000116Y1615565D01*
X1007734D01*
X1012812Y1620644D02*
Y1613026D01*
X1015351Y1610487D01*
X1022969D01*
Y1607948D01*
X1020430Y1605409D01*
X1017890D01*
X1022969Y1610487D02*
Y1620644D01*
X1035665Y1610487D02*
X1030586D01*
X1028047Y1613026D01*
Y1618105D01*
X1030586Y1620644D01*
X1035665D01*
X1038204Y1618105D01*
Y1615565D01*
X1028047D01*
X1043282Y1620644D02*
Y1610487D01*
Y1615565D01*
X1045821Y1618105D01*
X1048360Y1620644D01*
X1050900D01*
X1073752Y1618105D02*
X1083909D01*
X1104222Y1625722D02*
Y1610487D01*
X1111840D01*
X1114379Y1613026D01*
Y1615565D01*
X1111840Y1618105D01*
X1104222D01*
X1111840D01*
X1114379Y1620644D01*
Y1623183D01*
X1111840Y1625722D01*
X1104222D01*
X1121997Y1610487D02*
X1127075D01*
X1129614Y1613026D01*
Y1618105D01*
X1127075Y1620644D01*
X1121997D01*
X1119457Y1618105D01*
Y1613026D01*
X1121997Y1610487D01*
X1137232Y1623183D02*
Y1620644D01*
X1134693D01*
X1139771D01*
X1137232D01*
Y1613026D01*
X1139771Y1610487D01*
X1149928Y1623183D02*
Y1620644D01*
X1147388D01*
X1152467D01*
X1149928D01*
Y1613026D01*
X1152467Y1610487D01*
X1162624D02*
X1167702D01*
X1170241Y1613026D01*
Y1618105D01*
X1167702Y1620644D01*
X1162624D01*
X1160084Y1618105D01*
Y1613026D01*
X1162624Y1610487D01*
X1175319D02*
Y1620644D01*
X1177859D01*
X1180398Y1618105D01*
Y1610487D01*
Y1618105D01*
X1182937Y1620644D01*
X1185476Y1618105D01*
Y1610487D01*
X1205789Y1625722D02*
Y1610487D01*
X1215946D01*
X1223564Y1620644D02*
X1228642D01*
X1231181Y1618105D01*
Y1610487D01*
X1223564D01*
X1221025Y1613026D01*
X1223564Y1615565D01*
X1231181D01*
X1236260Y1620644D02*
Y1613026D01*
X1238799Y1610487D01*
X1246416D01*
Y1607948D01*
X1243877Y1605409D01*
X1241338D01*
X1246416Y1610487D02*
Y1620644D01*
X1259112Y1610487D02*
X1254034D01*
X1251495Y1613026D01*
Y1618105D01*
X1254034Y1620644D01*
X1259112D01*
X1261651Y1618105D01*
Y1615565D01*
X1251495D01*
X1266730Y1620644D02*
Y1610487D01*
Y1615565D01*
X1269269Y1618105D01*
X1271808Y1620644D01*
X1274347D01*
X921402Y1587622D02*
X931558D01*
X926480D01*
Y1572387D01*
X939176D02*
X944254D01*
X946793Y1574926D01*
Y1580004D01*
X944254Y1582544D01*
X939176D01*
X936637Y1580004D01*
Y1574926D01*
X939176Y1572387D01*
X951872Y1567309D02*
Y1582544D01*
X959489D01*
X962028Y1580004D01*
Y1574926D01*
X959489Y1572387D01*
X951872D01*
X982342Y1587622D02*
Y1572387D01*
X992498D01*
X1000116Y1582544D02*
X1005194D01*
X1007734Y1580004D01*
Y1572387D01*
X1000116D01*
X997577Y1574926D01*
X1000116Y1577465D01*
X1007734D01*
X1012812Y1582544D02*
Y1574926D01*
X1015351Y1572387D01*
X1022969D01*
Y1569848D01*
X1020430Y1567309D01*
X1017890D01*
X1022969Y1572387D02*
Y1582544D01*
X1035665Y1572387D02*
X1030586D01*
X1028047Y1574926D01*
Y1580004D01*
X1030586Y1582544D01*
X1035665D01*
X1038204Y1580004D01*
Y1577465D01*
X1028047D01*
X1043282Y1582544D02*
Y1572387D01*
Y1577465D01*
X1045821Y1580004D01*
X1048360Y1582544D01*
X1050900D01*
X1073752Y1580004D02*
X1083909D01*
X1104222Y1587622D02*
Y1572387D01*
X1111840D01*
X1114379Y1574926D01*
Y1577465D01*
X1111840Y1580004D01*
X1104222D01*
X1111840D01*
X1114379Y1582544D01*
Y1585083D01*
X1111840Y1587622D01*
X1104222D01*
X1121997Y1572387D02*
X1127075D01*
X1129614Y1574926D01*
Y1580004D01*
X1127075Y1582544D01*
X1121997D01*
X1119457Y1580004D01*
Y1574926D01*
X1121997Y1572387D01*
X1137232Y1585083D02*
Y1582544D01*
X1134693D01*
X1139771D01*
X1137232D01*
Y1574926D01*
X1139771Y1572387D01*
X1149928Y1585083D02*
Y1582544D01*
X1147388D01*
X1152467D01*
X1149928D01*
Y1574926D01*
X1152467Y1572387D01*
X1162624D02*
X1167702D01*
X1170241Y1574926D01*
Y1580004D01*
X1167702Y1582544D01*
X1162624D01*
X1160084Y1580004D01*
Y1574926D01*
X1162624Y1572387D01*
X1175319D02*
Y1582544D01*
X1177859D01*
X1180398Y1580004D01*
Y1572387D01*
Y1580004D01*
X1182937Y1582544D01*
X1185476Y1580004D01*
Y1572387D01*
X1205789Y1587622D02*
Y1572387D01*
X1215946D01*
X1223564Y1582544D02*
X1228642D01*
X1231181Y1580004D01*
Y1572387D01*
X1223564D01*
X1221025Y1574926D01*
X1223564Y1577465D01*
X1231181D01*
X1236260Y1582544D02*
Y1574926D01*
X1238799Y1572387D01*
X1246416D01*
Y1569848D01*
X1243877Y1567309D01*
X1241338D01*
X1246416Y1572387D02*
Y1582544D01*
X1259112Y1572387D02*
X1254034D01*
X1251495Y1574926D01*
Y1580004D01*
X1254034Y1582544D01*
X1259112D01*
X1261651Y1580004D01*
Y1577465D01*
X1251495D01*
X1266730Y1582544D02*
Y1572387D01*
Y1577465D01*
X1269269Y1580004D01*
X1271808Y1582544D01*
X1274347D01*
X921402Y1549522D02*
X931558D01*
X926480D01*
Y1534287D01*
X939176D02*
X944254D01*
X946793Y1536826D01*
Y1541904D01*
X944254Y1544444D01*
X939176D01*
X936637Y1541904D01*
Y1536826D01*
X939176Y1534287D01*
X951872Y1529209D02*
Y1544444D01*
X959489D01*
X962028Y1541904D01*
Y1536826D01*
X959489Y1534287D01*
X951872D01*
X982342Y1549522D02*
Y1534287D01*
X992498D01*
X1000116Y1544444D02*
X1005194D01*
X1007734Y1541904D01*
Y1534287D01*
X1000116D01*
X997577Y1536826D01*
X1000116Y1539365D01*
X1007734D01*
X1012812Y1544444D02*
Y1536826D01*
X1015351Y1534287D01*
X1022969D01*
Y1531748D01*
X1020430Y1529209D01*
X1017890D01*
X1022969Y1534287D02*
Y1544444D01*
X1035665Y1534287D02*
X1030586D01*
X1028047Y1536826D01*
Y1541904D01*
X1030586Y1544444D01*
X1035665D01*
X1038204Y1541904D01*
Y1539365D01*
X1028047D01*
X1043282Y1544444D02*
Y1534287D01*
Y1539365D01*
X1045821Y1541904D01*
X1048360Y1544444D01*
X1050900D01*
X1073752Y1541904D02*
X1083909D01*
X1104222Y1549522D02*
Y1534287D01*
X1111840D01*
X1114379Y1536826D01*
Y1539365D01*
X1111840Y1541904D01*
X1104222D01*
X1111840D01*
X1114379Y1544444D01*
Y1546983D01*
X1111840Y1549522D01*
X1104222D01*
X1121997Y1534287D02*
X1127075D01*
X1129614Y1536826D01*
Y1541904D01*
X1127075Y1544444D01*
X1121997D01*
X1119457Y1541904D01*
Y1536826D01*
X1121997Y1534287D01*
X1137232Y1546983D02*
Y1544444D01*
X1134693D01*
X1139771D01*
X1137232D01*
Y1536826D01*
X1139771Y1534287D01*
X1149928Y1546983D02*
Y1544444D01*
X1147388D01*
X1152467D01*
X1149928D01*
Y1536826D01*
X1152467Y1534287D01*
X1162624D02*
X1167702D01*
X1170241Y1536826D01*
Y1541904D01*
X1167702Y1544444D01*
X1162624D01*
X1160084Y1541904D01*
Y1536826D01*
X1162624Y1534287D01*
X1175319D02*
Y1544444D01*
X1177859D01*
X1180398Y1541904D01*
Y1534287D01*
Y1541904D01*
X1182937Y1544444D01*
X1185476Y1541904D01*
Y1534287D01*
X1205789Y1549522D02*
Y1534287D01*
X1215946D01*
X1223564Y1544444D02*
X1228642D01*
X1231181Y1541904D01*
Y1534287D01*
X1223564D01*
X1221025Y1536826D01*
X1223564Y1539365D01*
X1231181D01*
X1236260Y1544444D02*
Y1536826D01*
X1238799Y1534287D01*
X1246416D01*
Y1531748D01*
X1243877Y1529209D01*
X1241338D01*
X1246416Y1534287D02*
Y1544444D01*
X1259112Y1534287D02*
X1254034D01*
X1251495Y1536826D01*
Y1541904D01*
X1254034Y1544444D01*
X1259112D01*
X1261651Y1541904D01*
Y1539365D01*
X1251495D01*
X1266730Y1544444D02*
Y1534287D01*
Y1539365D01*
X1269269Y1541904D01*
X1271808Y1544444D01*
X1274347D01*
X921402Y1511422D02*
X931558D01*
X926480D01*
Y1496187D01*
X939176D02*
X944254D01*
X946793Y1498726D01*
Y1503804D01*
X944254Y1506344D01*
X939176D01*
X936637Y1503804D01*
Y1498726D01*
X939176Y1496187D01*
X951872Y1491109D02*
Y1506344D01*
X959489D01*
X962028Y1503804D01*
Y1498726D01*
X959489Y1496187D01*
X951872D01*
X982342Y1511422D02*
Y1496187D01*
X992498D01*
X1000116Y1506344D02*
X1005194D01*
X1007734Y1503804D01*
Y1496187D01*
X1000116D01*
X997577Y1498726D01*
X1000116Y1501265D01*
X1007734D01*
X1012812Y1506344D02*
Y1498726D01*
X1015351Y1496187D01*
X1022969D01*
Y1493648D01*
X1020430Y1491109D01*
X1017890D01*
X1022969Y1496187D02*
Y1506344D01*
X1035665Y1496187D02*
X1030586D01*
X1028047Y1498726D01*
Y1503804D01*
X1030586Y1506344D01*
X1035665D01*
X1038204Y1503804D01*
Y1501265D01*
X1028047D01*
X1043282Y1506344D02*
Y1496187D01*
Y1501265D01*
X1045821Y1503804D01*
X1048360Y1506344D01*
X1050900D01*
X1073752Y1503804D02*
X1083909D01*
X1104222Y1511422D02*
Y1496187D01*
X1111840D01*
X1114379Y1498726D01*
Y1501265D01*
X1111840Y1503804D01*
X1104222D01*
X1111840D01*
X1114379Y1506344D01*
Y1508883D01*
X1111840Y1511422D01*
X1104222D01*
X1121997Y1496187D02*
X1127075D01*
X1129614Y1498726D01*
Y1503804D01*
X1127075Y1506344D01*
X1121997D01*
X1119457Y1503804D01*
Y1498726D01*
X1121997Y1496187D01*
X1137232Y1508883D02*
Y1506344D01*
X1134693D01*
X1139771D01*
X1137232D01*
Y1498726D01*
X1139771Y1496187D01*
X1149928Y1508883D02*
Y1506344D01*
X1147388D01*
X1152467D01*
X1149928D01*
Y1498726D01*
X1152467Y1496187D01*
X1162624D02*
X1167702D01*
X1170241Y1498726D01*
Y1503804D01*
X1167702Y1506344D01*
X1162624D01*
X1160084Y1503804D01*
Y1498726D01*
X1162624Y1496187D01*
X1175319D02*
Y1506344D01*
X1177859D01*
X1180398Y1503804D01*
Y1496187D01*
Y1503804D01*
X1182937Y1506344D01*
X1185476Y1503804D01*
Y1496187D01*
X1205789Y1511422D02*
Y1496187D01*
X1215946D01*
X1223564Y1506344D02*
X1228642D01*
X1231181Y1503804D01*
Y1496187D01*
X1223564D01*
X1221025Y1498726D01*
X1223564Y1501265D01*
X1231181D01*
X1236260Y1506344D02*
Y1498726D01*
X1238799Y1496187D01*
X1246416D01*
Y1493648D01*
X1243877Y1491109D01*
X1241338D01*
X1246416Y1496187D02*
Y1506344D01*
X1259112Y1496187D02*
X1254034D01*
X1251495Y1498726D01*
Y1503804D01*
X1254034Y1506344D01*
X1259112D01*
X1261651Y1503804D01*
Y1501265D01*
X1251495D01*
X1266730Y1506344D02*
Y1496187D01*
Y1501265D01*
X1269269Y1503804D01*
X1271808Y1506344D01*
X1274347D01*
X921402Y1473322D02*
X931558D01*
X926480D01*
Y1458087D01*
X939176D02*
X944254D01*
X946793Y1460626D01*
Y1465704D01*
X944254Y1468244D01*
X939176D01*
X936637Y1465704D01*
Y1460626D01*
X939176Y1458087D01*
X951872Y1453009D02*
Y1468244D01*
X959489D01*
X962028Y1465704D01*
Y1460626D01*
X959489Y1458087D01*
X951872D01*
X982342Y1473322D02*
Y1458087D01*
X992498D01*
X1000116Y1468244D02*
X1005194D01*
X1007734Y1465704D01*
Y1458087D01*
X1000116D01*
X997577Y1460626D01*
X1000116Y1463165D01*
X1007734D01*
X1012812Y1468244D02*
Y1460626D01*
X1015351Y1458087D01*
X1022969D01*
Y1455548D01*
X1020430Y1453009D01*
X1017890D01*
X1022969Y1458087D02*
Y1468244D01*
X1035665Y1458087D02*
X1030586D01*
X1028047Y1460626D01*
Y1465704D01*
X1030586Y1468244D01*
X1035665D01*
X1038204Y1465704D01*
Y1463165D01*
X1028047D01*
X1043282Y1468244D02*
Y1458087D01*
Y1463165D01*
X1045821Y1465704D01*
X1048360Y1468244D01*
X1050900D01*
X1073752Y1465704D02*
X1083909D01*
X1104222Y1473322D02*
Y1458087D01*
X1111840D01*
X1114379Y1460626D01*
Y1463165D01*
X1111840Y1465704D01*
X1104222D01*
X1111840D01*
X1114379Y1468244D01*
Y1470783D01*
X1111840Y1473322D01*
X1104222D01*
X1121997Y1458087D02*
X1127075D01*
X1129614Y1460626D01*
Y1465704D01*
X1127075Y1468244D01*
X1121997D01*
X1119457Y1465704D01*
Y1460626D01*
X1121997Y1458087D01*
X1137232Y1470783D02*
Y1468244D01*
X1134693D01*
X1139771D01*
X1137232D01*
Y1460626D01*
X1139771Y1458087D01*
X1149928Y1470783D02*
Y1468244D01*
X1147388D01*
X1152467D01*
X1149928D01*
Y1460626D01*
X1152467Y1458087D01*
X1162624D02*
X1167702D01*
X1170241Y1460626D01*
Y1465704D01*
X1167702Y1468244D01*
X1162624D01*
X1160084Y1465704D01*
Y1460626D01*
X1162624Y1458087D01*
X1175319D02*
Y1468244D01*
X1177859D01*
X1180398Y1465704D01*
Y1458087D01*
Y1465704D01*
X1182937Y1468244D01*
X1185476Y1465704D01*
Y1458087D01*
X1205789Y1473322D02*
Y1458087D01*
X1215946D01*
X1223564Y1468244D02*
X1228642D01*
X1231181Y1465704D01*
Y1458087D01*
X1223564D01*
X1221025Y1460626D01*
X1223564Y1463165D01*
X1231181D01*
X1236260Y1468244D02*
Y1460626D01*
X1238799Y1458087D01*
X1246416D01*
Y1455548D01*
X1243877Y1453009D01*
X1241338D01*
X1246416Y1458087D02*
Y1468244D01*
X1259112Y1458087D02*
X1254034D01*
X1251495Y1460626D01*
Y1465704D01*
X1254034Y1468244D01*
X1259112D01*
X1261651Y1465704D01*
Y1463165D01*
X1251495D01*
X1266730Y1468244D02*
Y1458087D01*
Y1463165D01*
X1269269Y1465704D01*
X1271808Y1468244D01*
X1274347D01*
X921402Y1435222D02*
X931558D01*
X926480D01*
Y1419987D01*
X939176D02*
X944254D01*
X946793Y1422526D01*
Y1427605D01*
X944254Y1430144D01*
X939176D01*
X936637Y1427605D01*
Y1422526D01*
X939176Y1419987D01*
X951872Y1414909D02*
Y1430144D01*
X959489D01*
X962028Y1427605D01*
Y1422526D01*
X959489Y1419987D01*
X951872D01*
X982342Y1435222D02*
Y1419987D01*
X992498D01*
X1000116Y1430144D02*
X1005194D01*
X1007734Y1427605D01*
Y1419987D01*
X1000116D01*
X997577Y1422526D01*
X1000116Y1425065D01*
X1007734D01*
X1012812Y1430144D02*
Y1422526D01*
X1015351Y1419987D01*
X1022969D01*
Y1417448D01*
X1020430Y1414909D01*
X1017890D01*
X1022969Y1419987D02*
Y1430144D01*
X1035665Y1419987D02*
X1030586D01*
X1028047Y1422526D01*
Y1427605D01*
X1030586Y1430144D01*
X1035665D01*
X1038204Y1427605D01*
Y1425065D01*
X1028047D01*
X1043282Y1430144D02*
Y1419987D01*
Y1425065D01*
X1045821Y1427605D01*
X1048360Y1430144D01*
X1050900D01*
X1073752Y1427605D02*
X1083909D01*
X1104222Y1435222D02*
Y1419987D01*
X1111840D01*
X1114379Y1422526D01*
Y1425065D01*
X1111840Y1427605D01*
X1104222D01*
X1111840D01*
X1114379Y1430144D01*
Y1432683D01*
X1111840Y1435222D01*
X1104222D01*
X1121997Y1419987D02*
X1127075D01*
X1129614Y1422526D01*
Y1427605D01*
X1127075Y1430144D01*
X1121997D01*
X1119457Y1427605D01*
Y1422526D01*
X1121997Y1419987D01*
X1137232Y1432683D02*
Y1430144D01*
X1134693D01*
X1139771D01*
X1137232D01*
Y1422526D01*
X1139771Y1419987D01*
X1149928Y1432683D02*
Y1430144D01*
X1147388D01*
X1152467D01*
X1149928D01*
Y1422526D01*
X1152467Y1419987D01*
X1162624D02*
X1167702D01*
X1170241Y1422526D01*
Y1427605D01*
X1167702Y1430144D01*
X1162624D01*
X1160084Y1427605D01*
Y1422526D01*
X1162624Y1419987D01*
X1175319D02*
Y1430144D01*
X1177859D01*
X1180398Y1427605D01*
Y1419987D01*
Y1427605D01*
X1182937Y1430144D01*
X1185476Y1427605D01*
Y1419987D01*
X1205789Y1435222D02*
Y1419987D01*
X1215946D01*
X1223564Y1430144D02*
X1228642D01*
X1231181Y1427605D01*
Y1419987D01*
X1223564D01*
X1221025Y1422526D01*
X1223564Y1425065D01*
X1231181D01*
X1236260Y1430144D02*
Y1422526D01*
X1238799Y1419987D01*
X1246416D01*
Y1417448D01*
X1243877Y1414909D01*
X1241338D01*
X1246416Y1419987D02*
Y1430144D01*
X1259112Y1419987D02*
X1254034D01*
X1251495Y1422526D01*
Y1427605D01*
X1254034Y1430144D01*
X1259112D01*
X1261651Y1427605D01*
Y1425065D01*
X1251495D01*
X1266730Y1430144D02*
Y1419987D01*
Y1425065D01*
X1269269Y1427605D01*
X1271808Y1430144D01*
X1274347D01*
X921402Y1397122D02*
X931558D01*
X926480D01*
Y1381887D01*
X939176D02*
X944254D01*
X946793Y1384426D01*
Y1389505D01*
X944254Y1392044D01*
X939176D01*
X936637Y1389505D01*
Y1384426D01*
X939176Y1381887D01*
X951872Y1376809D02*
Y1392044D01*
X959489D01*
X962028Y1389505D01*
Y1384426D01*
X959489Y1381887D01*
X951872D01*
X982342Y1397122D02*
Y1381887D01*
X992498D01*
X1000116Y1392044D02*
X1005194D01*
X1007734Y1389505D01*
Y1381887D01*
X1000116D01*
X997577Y1384426D01*
X1000116Y1386965D01*
X1007734D01*
X1012812Y1392044D02*
Y1384426D01*
X1015351Y1381887D01*
X1022969D01*
Y1379348D01*
X1020430Y1376809D01*
X1017890D01*
X1022969Y1381887D02*
Y1392044D01*
X1035665Y1381887D02*
X1030586D01*
X1028047Y1384426D01*
Y1389505D01*
X1030586Y1392044D01*
X1035665D01*
X1038204Y1389505D01*
Y1386965D01*
X1028047D01*
X1043282Y1392044D02*
Y1381887D01*
Y1386965D01*
X1045821Y1389505D01*
X1048360Y1392044D01*
X1050900D01*
X1073752Y1389505D02*
X1083909D01*
X1104222Y1397122D02*
Y1381887D01*
X1111840D01*
X1114379Y1384426D01*
Y1386965D01*
X1111840Y1389505D01*
X1104222D01*
X1111840D01*
X1114379Y1392044D01*
Y1394583D01*
X1111840Y1397122D01*
X1104222D01*
X1121997Y1381887D02*
X1127075D01*
X1129614Y1384426D01*
Y1389505D01*
X1127075Y1392044D01*
X1121997D01*
X1119457Y1389505D01*
Y1384426D01*
X1121997Y1381887D01*
X1137232Y1394583D02*
Y1392044D01*
X1134693D01*
X1139771D01*
X1137232D01*
Y1384426D01*
X1139771Y1381887D01*
X1149928Y1394583D02*
Y1392044D01*
X1147388D01*
X1152467D01*
X1149928D01*
Y1384426D01*
X1152467Y1381887D01*
X1162624D02*
X1167702D01*
X1170241Y1384426D01*
Y1389505D01*
X1167702Y1392044D01*
X1162624D01*
X1160084Y1389505D01*
Y1384426D01*
X1162624Y1381887D01*
X1175319D02*
Y1392044D01*
X1177859D01*
X1180398Y1389505D01*
Y1381887D01*
Y1389505D01*
X1182937Y1392044D01*
X1185476Y1389505D01*
Y1381887D01*
X1205789Y1397122D02*
Y1381887D01*
X1215946D01*
X1223564Y1392044D02*
X1228642D01*
X1231181Y1389505D01*
Y1381887D01*
X1223564D01*
X1221025Y1384426D01*
X1223564Y1386965D01*
X1231181D01*
X1236260Y1392044D02*
Y1384426D01*
X1238799Y1381887D01*
X1246416D01*
Y1379348D01*
X1243877Y1376809D01*
X1241338D01*
X1246416Y1381887D02*
Y1392044D01*
X1259112Y1381887D02*
X1254034D01*
X1251495Y1384426D01*
Y1389505D01*
X1254034Y1392044D01*
X1259112D01*
X1261651Y1389505D01*
Y1386965D01*
X1251495D01*
X1266730Y1392044D02*
Y1381887D01*
Y1386965D01*
X1269269Y1389505D01*
X1271808Y1392044D01*
X1274347D01*
X921402Y1359022D02*
X931558D01*
X926480D01*
Y1343787D01*
X939176D02*
X944254D01*
X946793Y1346326D01*
Y1351405D01*
X944254Y1353944D01*
X939176D01*
X936637Y1351405D01*
Y1346326D01*
X939176Y1343787D01*
X951872Y1338709D02*
Y1353944D01*
X959489D01*
X962028Y1351405D01*
Y1346326D01*
X959489Y1343787D01*
X951872D01*
X982342Y1359022D02*
Y1343787D01*
X992498D01*
X1000116Y1353944D02*
X1005194D01*
X1007734Y1351405D01*
Y1343787D01*
X1000116D01*
X997577Y1346326D01*
X1000116Y1348865D01*
X1007734D01*
X1012812Y1353944D02*
Y1346326D01*
X1015351Y1343787D01*
X1022969D01*
Y1341248D01*
X1020430Y1338709D01*
X1017890D01*
X1022969Y1343787D02*
Y1353944D01*
X1035665Y1343787D02*
X1030586D01*
X1028047Y1346326D01*
Y1351405D01*
X1030586Y1353944D01*
X1035665D01*
X1038204Y1351405D01*
Y1348865D01*
X1028047D01*
X1043282Y1353944D02*
Y1343787D01*
Y1348865D01*
X1045821Y1351405D01*
X1048360Y1353944D01*
X1050900D01*
X1073752Y1351405D02*
X1083909D01*
X1104222Y1359022D02*
Y1343787D01*
X1111840D01*
X1114379Y1346326D01*
Y1348865D01*
X1111840Y1351405D01*
X1104222D01*
X1111840D01*
X1114379Y1353944D01*
Y1356483D01*
X1111840Y1359022D01*
X1104222D01*
X1121997Y1343787D02*
X1127075D01*
X1129614Y1346326D01*
Y1351405D01*
X1127075Y1353944D01*
X1121997D01*
X1119457Y1351405D01*
Y1346326D01*
X1121997Y1343787D01*
X1137232Y1356483D02*
Y1353944D01*
X1134693D01*
X1139771D01*
X1137232D01*
Y1346326D01*
X1139771Y1343787D01*
X1149928Y1356483D02*
Y1353944D01*
X1147388D01*
X1152467D01*
X1149928D01*
Y1346326D01*
X1152467Y1343787D01*
X1162624D02*
X1167702D01*
X1170241Y1346326D01*
Y1351405D01*
X1167702Y1353944D01*
X1162624D01*
X1160084Y1351405D01*
Y1346326D01*
X1162624Y1343787D01*
X1175319D02*
Y1353944D01*
X1177859D01*
X1180398Y1351405D01*
Y1343787D01*
Y1351405D01*
X1182937Y1353944D01*
X1185476Y1351405D01*
Y1343787D01*
X1205789Y1359022D02*
Y1343787D01*
X1215946D01*
X1223564Y1353944D02*
X1228642D01*
X1231181Y1351405D01*
Y1343787D01*
X1223564D01*
X1221025Y1346326D01*
X1223564Y1348865D01*
X1231181D01*
X1236260Y1353944D02*
Y1346326D01*
X1238799Y1343787D01*
X1246416D01*
Y1341248D01*
X1243877Y1338709D01*
X1241338D01*
X1246416Y1343787D02*
Y1353944D01*
X1259112Y1343787D02*
X1254034D01*
X1251495Y1346326D01*
Y1351405D01*
X1254034Y1353944D01*
X1259112D01*
X1261651Y1351405D01*
Y1348865D01*
X1251495D01*
X1266730Y1353944D02*
Y1343787D01*
Y1348865D01*
X1269269Y1351405D01*
X1271808Y1353944D01*
X1274347D01*
X921402Y1320922D02*
X931558D01*
X926480D01*
Y1305687D01*
X939176D02*
X944254D01*
X946793Y1308226D01*
Y1313304D01*
X944254Y1315844D01*
X939176D01*
X936637Y1313304D01*
Y1308226D01*
X939176Y1305687D01*
X951872Y1300609D02*
Y1315844D01*
X959489D01*
X962028Y1313304D01*
Y1308226D01*
X959489Y1305687D01*
X951872D01*
X982342Y1320922D02*
Y1305687D01*
X992498D01*
X1000116Y1315844D02*
X1005194D01*
X1007734Y1313304D01*
Y1305687D01*
X1000116D01*
X997577Y1308226D01*
X1000116Y1310765D01*
X1007734D01*
X1012812Y1315844D02*
Y1308226D01*
X1015351Y1305687D01*
X1022969D01*
Y1303148D01*
X1020430Y1300609D01*
X1017890D01*
X1022969Y1305687D02*
Y1315844D01*
X1035665Y1305687D02*
X1030586D01*
X1028047Y1308226D01*
Y1313304D01*
X1030586Y1315844D01*
X1035665D01*
X1038204Y1313304D01*
Y1310765D01*
X1028047D01*
X1043282Y1315844D02*
Y1305687D01*
Y1310765D01*
X1045821Y1313304D01*
X1048360Y1315844D01*
X1050900D01*
X1073752Y1313304D02*
X1083909D01*
X1104222Y1320922D02*
Y1305687D01*
X1111840D01*
X1114379Y1308226D01*
Y1310765D01*
X1111840Y1313304D01*
X1104222D01*
X1111840D01*
X1114379Y1315844D01*
Y1318383D01*
X1111840Y1320922D01*
X1104222D01*
X1121997Y1305687D02*
X1127075D01*
X1129614Y1308226D01*
Y1313304D01*
X1127075Y1315844D01*
X1121997D01*
X1119457Y1313304D01*
Y1308226D01*
X1121997Y1305687D01*
X1137232Y1318383D02*
Y1315844D01*
X1134693D01*
X1139771D01*
X1137232D01*
Y1308226D01*
X1139771Y1305687D01*
X1149928Y1318383D02*
Y1315844D01*
X1147388D01*
X1152467D01*
X1149928D01*
Y1308226D01*
X1152467Y1305687D01*
X1162624D02*
X1167702D01*
X1170241Y1308226D01*
Y1313304D01*
X1167702Y1315844D01*
X1162624D01*
X1160084Y1313304D01*
Y1308226D01*
X1162624Y1305687D01*
X1175319D02*
Y1315844D01*
X1177859D01*
X1180398Y1313304D01*
Y1305687D01*
Y1313304D01*
X1182937Y1315844D01*
X1185476Y1313304D01*
Y1305687D01*
X1205789Y1320922D02*
Y1305687D01*
X1215946D01*
X1223564Y1315844D02*
X1228642D01*
X1231181Y1313304D01*
Y1305687D01*
X1223564D01*
X1221025Y1308226D01*
X1223564Y1310765D01*
X1231181D01*
X1236260Y1315844D02*
Y1308226D01*
X1238799Y1305687D01*
X1246416D01*
Y1303148D01*
X1243877Y1300609D01*
X1241338D01*
X1246416Y1305687D02*
Y1315844D01*
X1259112Y1305687D02*
X1254034D01*
X1251495Y1308226D01*
Y1313304D01*
X1254034Y1315844D01*
X1259112D01*
X1261651Y1313304D01*
Y1310765D01*
X1251495D01*
X1266730Y1315844D02*
Y1305687D01*
Y1310765D01*
X1269269Y1313304D01*
X1271808Y1315844D01*
X1274347D01*
X921402Y1282822D02*
X931558D01*
X926480D01*
Y1267587D01*
X939176D02*
X944254D01*
X946793Y1270126D01*
Y1275204D01*
X944254Y1277744D01*
X939176D01*
X936637Y1275204D01*
Y1270126D01*
X939176Y1267587D01*
X951872Y1262509D02*
Y1277744D01*
X959489D01*
X962028Y1275204D01*
Y1270126D01*
X959489Y1267587D01*
X951872D01*
X982342Y1282822D02*
Y1267587D01*
X992498D01*
X1000116Y1277744D02*
X1005194D01*
X1007734Y1275204D01*
Y1267587D01*
X1000116D01*
X997577Y1270126D01*
X1000116Y1272665D01*
X1007734D01*
X1012812Y1277744D02*
Y1270126D01*
X1015351Y1267587D01*
X1022969D01*
Y1265048D01*
X1020430Y1262509D01*
X1017890D01*
X1022969Y1267587D02*
Y1277744D01*
X1035665Y1267587D02*
X1030586D01*
X1028047Y1270126D01*
Y1275204D01*
X1030586Y1277744D01*
X1035665D01*
X1038204Y1275204D01*
Y1272665D01*
X1028047D01*
X1043282Y1277744D02*
Y1267587D01*
Y1272665D01*
X1045821Y1275204D01*
X1048360Y1277744D01*
X1050900D01*
X1073752Y1275204D02*
X1083909D01*
X1104222Y1282822D02*
Y1267587D01*
X1111840D01*
X1114379Y1270126D01*
Y1272665D01*
X1111840Y1275204D01*
X1104222D01*
X1111840D01*
X1114379Y1277744D01*
Y1280283D01*
X1111840Y1282822D01*
X1104222D01*
X1121997Y1267587D02*
X1127075D01*
X1129614Y1270126D01*
Y1275204D01*
X1127075Y1277744D01*
X1121997D01*
X1119457Y1275204D01*
Y1270126D01*
X1121997Y1267587D01*
X1137232Y1280283D02*
Y1277744D01*
X1134693D01*
X1139771D01*
X1137232D01*
Y1270126D01*
X1139771Y1267587D01*
X1149928Y1280283D02*
Y1277744D01*
X1147388D01*
X1152467D01*
X1149928D01*
Y1270126D01*
X1152467Y1267587D01*
X1162624D02*
X1167702D01*
X1170241Y1270126D01*
Y1275204D01*
X1167702Y1277744D01*
X1162624D01*
X1160084Y1275204D01*
Y1270126D01*
X1162624Y1267587D01*
X1175319D02*
Y1277744D01*
X1177859D01*
X1180398Y1275204D01*
Y1267587D01*
Y1275204D01*
X1182937Y1277744D01*
X1185476Y1275204D01*
Y1267587D01*
X1205789Y1282822D02*
Y1267587D01*
X1215946D01*
X1223564Y1277744D02*
X1228642D01*
X1231181Y1275204D01*
Y1267587D01*
X1223564D01*
X1221025Y1270126D01*
X1223564Y1272665D01*
X1231181D01*
X1236260Y1277744D02*
Y1270126D01*
X1238799Y1267587D01*
X1246416D01*
Y1265048D01*
X1243877Y1262509D01*
X1241338D01*
X1246416Y1267587D02*
Y1277744D01*
X1259112Y1267587D02*
X1254034D01*
X1251495Y1270126D01*
Y1275204D01*
X1254034Y1277744D01*
X1259112D01*
X1261651Y1275204D01*
Y1272665D01*
X1251495D01*
X1266730Y1277744D02*
Y1267587D01*
Y1272665D01*
X1269269Y1275204D01*
X1271808Y1277744D01*
X1274347D01*
X921402Y1244722D02*
X931558D01*
X926480D01*
Y1229487D01*
X939176D02*
X944254D01*
X946793Y1232026D01*
Y1237104D01*
X944254Y1239644D01*
X939176D01*
X936637Y1237104D01*
Y1232026D01*
X939176Y1229487D01*
X951872Y1224409D02*
Y1239644D01*
X959489D01*
X962028Y1237104D01*
Y1232026D01*
X959489Y1229487D01*
X951872D01*
X982342Y1244722D02*
Y1229487D01*
X992498D01*
X1000116Y1239644D02*
X1005194D01*
X1007734Y1237104D01*
Y1229487D01*
X1000116D01*
X997577Y1232026D01*
X1000116Y1234565D01*
X1007734D01*
X1012812Y1239644D02*
Y1232026D01*
X1015351Y1229487D01*
X1022969D01*
Y1226948D01*
X1020430Y1224409D01*
X1017890D01*
X1022969Y1229487D02*
Y1239644D01*
X1035665Y1229487D02*
X1030586D01*
X1028047Y1232026D01*
Y1237104D01*
X1030586Y1239644D01*
X1035665D01*
X1038204Y1237104D01*
Y1234565D01*
X1028047D01*
X1043282Y1239644D02*
Y1229487D01*
Y1234565D01*
X1045821Y1237104D01*
X1048360Y1239644D01*
X1050900D01*
X1073752Y1237104D02*
X1083909D01*
X1104222Y1244722D02*
Y1229487D01*
X1111840D01*
X1114379Y1232026D01*
Y1234565D01*
X1111840Y1237104D01*
X1104222D01*
X1111840D01*
X1114379Y1239644D01*
Y1242183D01*
X1111840Y1244722D01*
X1104222D01*
X1121997Y1229487D02*
X1127075D01*
X1129614Y1232026D01*
Y1237104D01*
X1127075Y1239644D01*
X1121997D01*
X1119457Y1237104D01*
Y1232026D01*
X1121997Y1229487D01*
X1137232Y1242183D02*
Y1239644D01*
X1134693D01*
X1139771D01*
X1137232D01*
Y1232026D01*
X1139771Y1229487D01*
X1149928Y1242183D02*
Y1239644D01*
X1147388D01*
X1152467D01*
X1149928D01*
Y1232026D01*
X1152467Y1229487D01*
X1162624D02*
X1167702D01*
X1170241Y1232026D01*
Y1237104D01*
X1167702Y1239644D01*
X1162624D01*
X1160084Y1237104D01*
Y1232026D01*
X1162624Y1229487D01*
X1175319D02*
Y1239644D01*
X1177859D01*
X1180398Y1237104D01*
Y1229487D01*
Y1237104D01*
X1182937Y1239644D01*
X1185476Y1237104D01*
Y1229487D01*
X1205789Y1244722D02*
Y1229487D01*
X1215946D01*
X1223564Y1239644D02*
X1228642D01*
X1231181Y1237104D01*
Y1229487D01*
X1223564D01*
X1221025Y1232026D01*
X1223564Y1234565D01*
X1231181D01*
X1236260Y1239644D02*
Y1232026D01*
X1238799Y1229487D01*
X1246416D01*
Y1226948D01*
X1243877Y1224409D01*
X1241338D01*
X1246416Y1229487D02*
Y1239644D01*
X1259112Y1229487D02*
X1254034D01*
X1251495Y1232026D01*
Y1237104D01*
X1254034Y1239644D01*
X1259112D01*
X1261651Y1237104D01*
Y1234565D01*
X1251495D01*
X1266730Y1239644D02*
Y1229487D01*
Y1234565D01*
X1269269Y1237104D01*
X1271808Y1239644D01*
X1274347D01*
X735016Y1648587D02*
Y1663822D01*
X742633D01*
X745173Y1661283D01*
Y1656205D01*
X742633Y1653665D01*
X735016D01*
X740094D02*
X745173Y1648587D01*
X752790D02*
X757868D01*
X760408Y1651126D01*
Y1656205D01*
X757868Y1658744D01*
X752790D01*
X750251Y1656205D01*
Y1651126D01*
X752790Y1648587D01*
X765486Y1658744D02*
Y1651126D01*
X768025Y1648587D01*
X775643D01*
Y1658744D01*
X780721Y1648587D02*
Y1658744D01*
X788338D01*
X790878Y1656205D01*
Y1648587D01*
X806113Y1663822D02*
Y1648587D01*
X798495D01*
X795956Y1651126D01*
Y1656205D01*
X798495Y1658744D01*
X806113D01*
X735016Y1610487D02*
Y1625722D01*
X742633D01*
X745173Y1623183D01*
Y1618105D01*
X742633Y1615565D01*
X735016D01*
X740094D02*
X745173Y1610487D01*
X752790D02*
X757868D01*
X760408Y1613026D01*
Y1618105D01*
X757868Y1620644D01*
X752790D01*
X750251Y1618105D01*
Y1613026D01*
X752790Y1610487D01*
X765486Y1620644D02*
Y1613026D01*
X768025Y1610487D01*
X775643D01*
Y1620644D01*
X780721Y1610487D02*
Y1620644D01*
X788338D01*
X790878Y1618105D01*
Y1610487D01*
X806113Y1625722D02*
Y1610487D01*
X798495D01*
X795956Y1613026D01*
Y1618105D01*
X798495Y1620644D01*
X806113D01*
X735016Y1572387D02*
Y1587622D01*
X742633D01*
X745173Y1585083D01*
Y1580004D01*
X742633Y1577465D01*
X735016D01*
X740094D02*
X745173Y1572387D01*
X752790D02*
X757868D01*
X760408Y1574926D01*
Y1580004D01*
X757868Y1582544D01*
X752790D01*
X750251Y1580004D01*
Y1574926D01*
X752790Y1572387D01*
X765486Y1582544D02*
Y1574926D01*
X768025Y1572387D01*
X775643D01*
Y1582544D01*
X780721Y1572387D02*
Y1582544D01*
X788338D01*
X790878Y1580004D01*
Y1572387D01*
X806113Y1587622D02*
Y1572387D01*
X798495D01*
X795956Y1574926D01*
Y1580004D01*
X798495Y1582544D01*
X806113D01*
X735016Y1534287D02*
Y1549522D01*
X742633D01*
X745173Y1546983D01*
Y1541904D01*
X742633Y1539365D01*
X735016D01*
X740094D02*
X745173Y1534287D01*
X752790D02*
X757868D01*
X760408Y1536826D01*
Y1541904D01*
X757868Y1544444D01*
X752790D01*
X750251Y1541904D01*
Y1536826D01*
X752790Y1534287D01*
X765486Y1544444D02*
Y1536826D01*
X768025Y1534287D01*
X775643D01*
Y1544444D01*
X780721Y1534287D02*
Y1544444D01*
X788338D01*
X790878Y1541904D01*
Y1534287D01*
X806113Y1549522D02*
Y1534287D01*
X798495D01*
X795956Y1536826D01*
Y1541904D01*
X798495Y1544444D01*
X806113D01*
X735016Y1496187D02*
Y1511422D01*
X742633D01*
X745173Y1508883D01*
Y1503804D01*
X742633Y1501265D01*
X735016D01*
X740094D02*
X745173Y1496187D01*
X752790D02*
X757868D01*
X760408Y1498726D01*
Y1503804D01*
X757868Y1506344D01*
X752790D01*
X750251Y1503804D01*
Y1498726D01*
X752790Y1496187D01*
X765486Y1506344D02*
Y1498726D01*
X768025Y1496187D01*
X775643D01*
Y1506344D01*
X780721Y1496187D02*
Y1506344D01*
X788338D01*
X790878Y1503804D01*
Y1496187D01*
X806113Y1511422D02*
Y1496187D01*
X798495D01*
X795956Y1498726D01*
Y1503804D01*
X798495Y1506344D01*
X806113D01*
X735016Y1458087D02*
Y1473322D01*
X742633D01*
X745173Y1470783D01*
Y1465704D01*
X742633Y1463165D01*
X735016D01*
X740094D02*
X745173Y1458087D01*
X752790D02*
X757868D01*
X760408Y1460626D01*
Y1465704D01*
X757868Y1468244D01*
X752790D01*
X750251Y1465704D01*
Y1460626D01*
X752790Y1458087D01*
X765486Y1468244D02*
Y1460626D01*
X768025Y1458087D01*
X775643D01*
Y1468244D01*
X780721Y1458087D02*
Y1468244D01*
X788338D01*
X790878Y1465704D01*
Y1458087D01*
X806113Y1473322D02*
Y1458087D01*
X798495D01*
X795956Y1460626D01*
Y1465704D01*
X798495Y1468244D01*
X806113D01*
X735016Y1419987D02*
Y1435222D01*
X742633D01*
X745173Y1432683D01*
Y1427605D01*
X742633Y1425065D01*
X735016D01*
X740094D02*
X745173Y1419987D01*
X752790D02*
X757868D01*
X760408Y1422526D01*
Y1427605D01*
X757868Y1430144D01*
X752790D01*
X750251Y1427605D01*
Y1422526D01*
X752790Y1419987D01*
X765486Y1430144D02*
Y1422526D01*
X768025Y1419987D01*
X775643D01*
Y1430144D01*
X780721Y1419987D02*
Y1430144D01*
X788338D01*
X790878Y1427605D01*
Y1419987D01*
X806113Y1435222D02*
Y1419987D01*
X798495D01*
X795956Y1422526D01*
Y1427605D01*
X798495Y1430144D01*
X806113D01*
X735016Y1381887D02*
Y1397122D01*
X742633D01*
X745173Y1394583D01*
Y1389505D01*
X742633Y1386965D01*
X735016D01*
X740094D02*
X745173Y1381887D01*
X752790D02*
X757868D01*
X760408Y1384426D01*
Y1389505D01*
X757868Y1392044D01*
X752790D01*
X750251Y1389505D01*
Y1384426D01*
X752790Y1381887D01*
X765486Y1392044D02*
Y1384426D01*
X768025Y1381887D01*
X775643D01*
Y1392044D01*
X780721Y1381887D02*
Y1392044D01*
X788338D01*
X790878Y1389505D01*
Y1381887D01*
X806113Y1397122D02*
Y1381887D01*
X798495D01*
X795956Y1384426D01*
Y1389505D01*
X798495Y1392044D01*
X806113D01*
X735016Y1343787D02*
Y1359022D01*
X742633D01*
X745173Y1356483D01*
Y1351405D01*
X742633Y1348865D01*
X735016D01*
X740094D02*
X745173Y1343787D01*
X752790D02*
X757868D01*
X760408Y1346326D01*
Y1351405D01*
X757868Y1353944D01*
X752790D01*
X750251Y1351405D01*
Y1346326D01*
X752790Y1343787D01*
X765486Y1353944D02*
Y1346326D01*
X768025Y1343787D01*
X775643D01*
Y1353944D01*
X780721Y1343787D02*
Y1353944D01*
X788338D01*
X790878Y1351405D01*
Y1343787D01*
X806113Y1359022D02*
Y1343787D01*
X798495D01*
X795956Y1346326D01*
Y1351405D01*
X798495Y1353944D01*
X806113D01*
X735016Y1305687D02*
Y1320922D01*
X742633D01*
X745173Y1318383D01*
Y1313304D01*
X742633Y1310765D01*
X735016D01*
X740094D02*
X745173Y1305687D01*
X752790D02*
X757868D01*
X760408Y1308226D01*
Y1313304D01*
X757868Y1315844D01*
X752790D01*
X750251Y1313304D01*
Y1308226D01*
X752790Y1305687D01*
X765486Y1315844D02*
Y1308226D01*
X768025Y1305687D01*
X775643D01*
Y1315844D01*
X780721Y1305687D02*
Y1315844D01*
X788338D01*
X790878Y1313304D01*
Y1305687D01*
X806113Y1320922D02*
Y1305687D01*
X798495D01*
X795956Y1308226D01*
Y1313304D01*
X798495Y1315844D01*
X806113D01*
X735016Y1267587D02*
Y1282822D01*
X742633D01*
X745173Y1280283D01*
Y1275204D01*
X742633Y1272665D01*
X735016D01*
X740094D02*
X745173Y1267587D01*
X752790D02*
X757868D01*
X760408Y1270126D01*
Y1275204D01*
X757868Y1277744D01*
X752790D01*
X750251Y1275204D01*
Y1270126D01*
X752790Y1267587D01*
X765486Y1277744D02*
Y1270126D01*
X768025Y1267587D01*
X775643D01*
Y1277744D01*
X780721Y1267587D02*
Y1277744D01*
X788338D01*
X790878Y1275204D01*
Y1267587D01*
X806113Y1282822D02*
Y1267587D01*
X798495D01*
X795956Y1270126D01*
Y1275204D01*
X798495Y1277744D01*
X806113D01*
X735016Y1229487D02*
Y1244722D01*
X742633D01*
X745173Y1242183D01*
Y1237104D01*
X742633Y1234565D01*
X735016D01*
X740094D02*
X745173Y1229487D01*
X752790D02*
X757868D01*
X760408Y1232026D01*
Y1237104D01*
X757868Y1239644D01*
X752790D01*
X750251Y1237104D01*
Y1232026D01*
X752790Y1229487D01*
X765486Y1239644D02*
Y1232026D01*
X768025Y1229487D01*
X775643D01*
Y1239644D01*
X780721Y1229487D02*
Y1239644D01*
X788338D01*
X790878Y1237104D01*
Y1229487D01*
X806113Y1244722D02*
Y1229487D01*
X798495D01*
X795956Y1232026D01*
Y1237104D01*
X798495Y1239644D01*
X806113D01*
X606523Y1648587D02*
Y1663822D01*
X614141D01*
X616680Y1661283D01*
Y1656205D01*
X614141Y1653665D01*
X606523D01*
X621758Y1663822D02*
X631915D01*
X626837D01*
Y1648587D01*
X636993Y1663822D02*
Y1648587D01*
Y1656205D01*
X647150D01*
Y1663822D01*
Y1648587D01*
X606523Y1610487D02*
Y1625722D01*
X614141D01*
X616680Y1623183D01*
Y1618105D01*
X614141Y1615565D01*
X606523D01*
X621758Y1625722D02*
X631915D01*
X626837D01*
Y1610487D01*
X636993Y1625722D02*
Y1610487D01*
Y1618105D01*
X647150D01*
Y1625722D01*
Y1610487D01*
X606523Y1572387D02*
Y1587622D01*
X616680Y1572387D01*
Y1587622D01*
X621758Y1572387D02*
Y1587622D01*
X629376D01*
X631915Y1585083D01*
Y1580004D01*
X629376Y1577465D01*
X621758D01*
X636993Y1587622D02*
X647150D01*
X642072D01*
Y1572387D01*
X652228Y1587622D02*
Y1572387D01*
Y1580004D01*
X662385D01*
Y1587622D01*
Y1572387D01*
X606523Y1534287D02*
Y1549522D01*
X614141D01*
X616680Y1546983D01*
Y1541904D01*
X614141Y1539365D01*
X606523D01*
X621758Y1549522D02*
X631915D01*
X626837D01*
Y1534287D01*
X636993Y1549522D02*
Y1534287D01*
Y1541904D01*
X647150D01*
Y1549522D01*
Y1534287D01*
X606523Y1496187D02*
Y1511422D01*
X614141D01*
X616680Y1508883D01*
Y1503804D01*
X614141Y1501265D01*
X606523D01*
X621758Y1511422D02*
X631915D01*
X626837D01*
Y1496187D01*
X636993Y1511422D02*
Y1496187D01*
Y1503804D01*
X647150D01*
Y1511422D01*
Y1496187D01*
X606523Y1458087D02*
Y1473322D01*
X616680Y1458087D01*
Y1473322D01*
X621758Y1458087D02*
Y1473322D01*
X629376D01*
X631915Y1470783D01*
Y1465704D01*
X629376Y1463165D01*
X621758D01*
X636993Y1473322D02*
X647150D01*
X642072D01*
Y1458087D01*
X652228Y1473322D02*
Y1458087D01*
Y1465704D01*
X662385D01*
Y1473322D01*
Y1458087D01*
X606523Y1419987D02*
Y1435222D01*
X614141D01*
X616680Y1432683D01*
Y1427605D01*
X614141Y1425065D01*
X606523D01*
X621758Y1435222D02*
X631915D01*
X626837D01*
Y1419987D01*
X636993Y1435222D02*
Y1419987D01*
Y1427605D01*
X647150D01*
Y1435222D01*
Y1419987D01*
X606523Y1381887D02*
Y1397122D01*
X614141D01*
X616680Y1394583D01*
Y1389505D01*
X614141Y1386965D01*
X606523D01*
X621758Y1397122D02*
X631915D01*
X626837D01*
Y1381887D01*
X636993Y1397122D02*
Y1381887D01*
Y1389505D01*
X647150D01*
Y1397122D01*
Y1381887D01*
X606523Y1343787D02*
Y1359022D01*
X614141D01*
X616680Y1356483D01*
Y1351405D01*
X614141Y1348865D01*
X606523D01*
X621758Y1359022D02*
X631915D01*
X626837D01*
Y1343787D01*
X636993Y1359022D02*
Y1343787D01*
Y1351405D01*
X647150D01*
Y1359022D01*
Y1343787D01*
X606523Y1305687D02*
Y1320922D01*
X614141D01*
X616680Y1318383D01*
Y1313304D01*
X614141Y1310765D01*
X606523D01*
X621758Y1320922D02*
X631915D01*
X626837D01*
Y1305687D01*
X636993Y1320922D02*
Y1305687D01*
Y1313304D01*
X647150D01*
Y1320922D01*
Y1305687D01*
X606523Y1267587D02*
Y1282822D01*
X614141D01*
X616680Y1280283D01*
Y1275204D01*
X614141Y1272665D01*
X606523D01*
X621758Y1282822D02*
X631915D01*
X626837D01*
Y1267587D01*
X636993Y1282822D02*
Y1267587D01*
Y1275204D01*
X647150D01*
Y1282822D01*
Y1267587D01*
X606523Y1229487D02*
Y1244722D01*
X614141D01*
X616680Y1242183D01*
Y1237104D01*
X614141Y1234565D01*
X606523D01*
X621758Y1244722D02*
X631915D01*
X626837D01*
Y1229487D01*
X636993Y1244722D02*
Y1229487D01*
Y1237104D01*
X647150D01*
Y1244722D01*
Y1229487D01*
X324665Y1663822D02*
X319587Y1661283D01*
X314509Y1656205D01*
Y1651126D01*
X317048Y1648587D01*
X322126D01*
X324665Y1651126D01*
Y1653665D01*
X322126Y1656205D01*
X314509D01*
X339901Y1648587D02*
X329744D01*
X339901Y1658744D01*
Y1661283D01*
X337361Y1663822D01*
X332283D01*
X329744Y1661283D01*
X344979Y1648587D02*
Y1651126D01*
X347518D01*
Y1648587D01*
X344979D01*
X357675Y1651126D02*
X360214Y1648587D01*
X365292D01*
X367831Y1651126D01*
Y1661283D01*
X365292Y1663822D01*
X360214D01*
X357675Y1661283D01*
Y1658744D01*
X360214Y1656205D01*
X367831D01*
X372910Y1651126D02*
X375449Y1648587D01*
X380527D01*
X383067Y1651126D01*
Y1661283D01*
X380527Y1663822D01*
X375449D01*
X372910Y1661283D01*
Y1658744D01*
X375449Y1656205D01*
X383067D01*
X388145Y1648587D02*
Y1658744D01*
X390684D01*
X393223Y1656205D01*
Y1648587D01*
Y1656205D01*
X395762Y1658744D01*
X398302Y1656205D01*
Y1648587D01*
X403380D02*
X408458D01*
X405919D01*
Y1658744D01*
X403380D01*
X416076Y1648587D02*
X421154D01*
X418615D01*
Y1663822D01*
X416076D01*
X449085Y1648587D02*
X444007Y1653665D01*
Y1658744D01*
X449085Y1663822D01*
X456703Y1648587D02*
X461781D01*
X459242D01*
Y1663822D01*
X456703Y1661283D01*
X469399Y1648587D02*
Y1651126D01*
X471938D01*
Y1648587D01*
X469399D01*
X492251Y1663822D02*
X487173Y1661283D01*
X482094Y1656205D01*
Y1651126D01*
X484634Y1648587D01*
X489712D01*
X492251Y1651126D01*
Y1653665D01*
X489712Y1656205D01*
X482094D01*
X497330Y1661283D02*
X499869Y1663822D01*
X504947D01*
X507486Y1661283D01*
Y1651126D01*
X504947Y1648587D01*
X499869D01*
X497330Y1651126D01*
Y1661283D01*
X512565D02*
X515104Y1663822D01*
X520182D01*
X522721Y1661283D01*
Y1651126D01*
X520182Y1648587D01*
X515104D01*
X512565Y1651126D01*
Y1661283D01*
X527800Y1648587D02*
Y1658744D01*
X530339D01*
X532878Y1656205D01*
Y1648587D01*
Y1656205D01*
X535417Y1658744D01*
X537957Y1656205D01*
Y1648587D01*
X543035D02*
Y1658744D01*
X545574D01*
X548113Y1656205D01*
Y1648587D01*
Y1656205D01*
X550652Y1658744D01*
X553192Y1656205D01*
Y1648587D01*
X558270D02*
X563348Y1653665D01*
Y1658744D01*
X558270Y1663822D01*
X324665Y1625722D02*
X319587Y1623183D01*
X314509Y1618105D01*
Y1613026D01*
X317048Y1610487D01*
X322126D01*
X324665Y1613026D01*
Y1615565D01*
X322126Y1618105D01*
X314509D01*
X339901Y1625722D02*
X334822Y1623183D01*
X329744Y1618105D01*
Y1613026D01*
X332283Y1610487D01*
X337361D01*
X339901Y1613026D01*
Y1615565D01*
X337361Y1618105D01*
X329744D01*
X344979Y1610487D02*
Y1613026D01*
X347518D01*
Y1610487D01*
X344979D01*
X357675Y1613026D02*
X360214Y1610487D01*
X365292D01*
X367831Y1613026D01*
Y1623183D01*
X365292Y1625722D01*
X360214D01*
X357675Y1623183D01*
Y1620644D01*
X360214Y1618105D01*
X367831D01*
X372910Y1623183D02*
X375449Y1625722D01*
X380527D01*
X383067Y1623183D01*
Y1620644D01*
X380527Y1618105D01*
X377988D01*
X380527D01*
X383067Y1615565D01*
Y1613026D01*
X380527Y1610487D01*
X375449D01*
X372910Y1613026D01*
X388145Y1610487D02*
Y1620644D01*
X390684D01*
X393223Y1618105D01*
Y1610487D01*
Y1618105D01*
X395762Y1620644D01*
X398302Y1618105D01*
Y1610487D01*
X403380D02*
X408458D01*
X405919D01*
Y1620644D01*
X403380D01*
X416076Y1610487D02*
X421154D01*
X418615D01*
Y1625722D01*
X416076D01*
X449085Y1610487D02*
X444007Y1615565D01*
Y1620644D01*
X449085Y1625722D01*
X456703Y1610487D02*
X461781D01*
X459242D01*
Y1625722D01*
X456703Y1623183D01*
X469399Y1610487D02*
Y1613026D01*
X471938D01*
Y1610487D01*
X469399D01*
X482094Y1625722D02*
X492251D01*
Y1623183D01*
X482094Y1613026D01*
Y1610487D01*
X497330Y1623183D02*
X499869Y1625722D01*
X504947D01*
X507486Y1623183D01*
Y1613026D01*
X504947Y1610487D01*
X499869D01*
X497330Y1613026D01*
Y1623183D01*
X512565D02*
X515104Y1625722D01*
X520182D01*
X522721Y1623183D01*
Y1613026D01*
X520182Y1610487D01*
X515104D01*
X512565Y1613026D01*
Y1623183D01*
X527800Y1610487D02*
Y1620644D01*
X530339D01*
X532878Y1618105D01*
Y1610487D01*
Y1618105D01*
X535417Y1620644D01*
X537957Y1618105D01*
Y1610487D01*
X543035D02*
Y1620644D01*
X545574D01*
X548113Y1618105D01*
Y1610487D01*
Y1618105D01*
X550652Y1620644D01*
X553192Y1618105D01*
Y1610487D01*
X558270D02*
X563348Y1615565D01*
Y1620644D01*
X558270Y1625722D01*
X314509Y1572387D02*
X319587D01*
X317048D01*
Y1587622D01*
X314509Y1585083D01*
X327205Y1572387D02*
X332283D01*
X329744D01*
Y1587622D01*
X327205Y1585083D01*
X339901D02*
X342440Y1587622D01*
X347518D01*
X350057Y1585083D01*
Y1582544D01*
X347518Y1580004D01*
X350057Y1577465D01*
Y1574926D01*
X347518Y1572387D01*
X342440D01*
X339901Y1574926D01*
Y1577465D01*
X342440Y1580004D01*
X339901Y1582544D01*
Y1585083D01*
X342440Y1580004D02*
X347518D01*
X355136Y1572387D02*
Y1574926D01*
X357675D01*
Y1572387D01*
X355136D01*
X367831D02*
X372910D01*
X370371D01*
Y1587622D01*
X367831Y1585083D01*
X380527Y1572387D02*
X385606D01*
X383067D01*
Y1587622D01*
X380527Y1585083D01*
X393223Y1572387D02*
Y1582544D01*
X395762D01*
X398302Y1580004D01*
Y1572387D01*
Y1580004D01*
X400841Y1582544D01*
X403380Y1580004D01*
Y1572387D01*
X408458D02*
X413537D01*
X410998D01*
Y1582544D01*
X408458D01*
X421154Y1572387D02*
X426233D01*
X423693D01*
Y1587622D01*
X421154D01*
X454164Y1572387D02*
X449085Y1577465D01*
Y1582544D01*
X454164Y1587622D01*
X461781Y1585083D02*
X464320Y1587622D01*
X469399D01*
X471938Y1585083D01*
Y1582544D01*
X469399Y1580004D01*
X466859D01*
X469399D01*
X471938Y1577465D01*
Y1574926D01*
X469399Y1572387D01*
X464320D01*
X461781Y1574926D01*
X477016Y1572387D02*
Y1574926D01*
X479555D01*
Y1572387D01*
X477016D01*
X489712Y1585083D02*
X492251Y1587622D01*
X497330D01*
X499869Y1585083D01*
Y1574926D01*
X497330Y1572387D01*
X492251D01*
X489712Y1574926D01*
Y1585083D01*
X504947D02*
X507486Y1587622D01*
X512565D01*
X515104Y1585083D01*
Y1574926D01*
X512565Y1572387D01*
X507486D01*
X504947Y1574926D01*
Y1585083D01*
X520182D02*
X522721Y1587622D01*
X527800D01*
X530339Y1585083D01*
Y1574926D01*
X527800Y1572387D01*
X522721D01*
X520182Y1574926D01*
Y1585083D01*
X535417Y1572387D02*
Y1582544D01*
X537957D01*
X540496Y1580004D01*
Y1572387D01*
Y1580004D01*
X543035Y1582544D01*
X545574Y1580004D01*
Y1572387D01*
X550652D02*
Y1582544D01*
X553191D01*
X555731Y1580004D01*
Y1572387D01*
Y1580004D01*
X558270Y1582544D01*
X560809Y1580004D01*
Y1572387D01*
X565887D02*
X570966Y1577465D01*
Y1582544D01*
X565887Y1587622D01*
X314509Y1546983D02*
X317048Y1549522D01*
X322126D01*
X324665Y1546983D01*
Y1544444D01*
X322126Y1541904D01*
X319587D01*
X322126D01*
X324665Y1539365D01*
Y1536826D01*
X322126Y1534287D01*
X317048D01*
X314509Y1536826D01*
X339901Y1549522D02*
X329744D01*
Y1541904D01*
X334822Y1544444D01*
X337361D01*
X339901Y1541904D01*
Y1536826D01*
X337361Y1534287D01*
X332283D01*
X329744Y1536826D01*
X344979Y1534287D02*
Y1536826D01*
X347518D01*
Y1534287D01*
X344979D01*
X365292D02*
Y1549522D01*
X357675Y1541904D01*
X367831D01*
X372910Y1546983D02*
X375449Y1549522D01*
X380527D01*
X383067Y1546983D01*
Y1544444D01*
X380527Y1541904D01*
X377988D01*
X380527D01*
X383067Y1539365D01*
Y1536826D01*
X380527Y1534287D01*
X375449D01*
X372910Y1536826D01*
X388145Y1534287D02*
Y1544444D01*
X390684D01*
X393223Y1541904D01*
Y1534287D01*
Y1541904D01*
X395762Y1544444D01*
X398302Y1541904D01*
Y1534287D01*
X403380D02*
X408458D01*
X405919D01*
Y1544444D01*
X403380D01*
X416076Y1534287D02*
X421154D01*
X418615D01*
Y1549522D01*
X416076D01*
X449085Y1534287D02*
X444007Y1539365D01*
Y1544444D01*
X449085Y1549522D01*
X456703Y1546983D02*
X459242Y1549522D01*
X464320D01*
X466860Y1546983D01*
Y1536826D01*
X464320Y1534287D01*
X459242D01*
X456703Y1536826D01*
Y1546983D01*
X471938Y1534287D02*
Y1536826D01*
X474477D01*
Y1534287D01*
X471938D01*
X484634Y1536826D02*
X487173Y1534287D01*
X492251D01*
X494790Y1536826D01*
Y1546983D01*
X492251Y1549522D01*
X487173D01*
X484634Y1546983D01*
Y1544444D01*
X487173Y1541904D01*
X494790D01*
X499869Y1546983D02*
X502408Y1549522D01*
X507486D01*
X510025Y1546983D01*
Y1536826D01*
X507486Y1534287D01*
X502408D01*
X499869Y1536826D01*
Y1546983D01*
X515104D02*
X517643Y1549522D01*
X522721D01*
X525261Y1546983D01*
Y1536826D01*
X522721Y1534287D01*
X517643D01*
X515104Y1536826D01*
Y1546983D01*
X530339Y1534287D02*
Y1544444D01*
X532878D01*
X535417Y1541904D01*
Y1534287D01*
Y1541904D01*
X537957Y1544444D01*
X540496Y1541904D01*
Y1534287D01*
X545574D02*
Y1544444D01*
X548113D01*
X550652Y1541904D01*
Y1534287D01*
Y1541904D01*
X553192Y1544444D01*
X555731Y1541904D01*
Y1534287D01*
X560809D02*
X565887Y1539365D01*
Y1544444D01*
X560809Y1549522D01*
X314509Y1508883D02*
X317048Y1511422D01*
X322126D01*
X324665Y1508883D01*
Y1506344D01*
X322126Y1503804D01*
X319587D01*
X322126D01*
X324665Y1501265D01*
Y1498726D01*
X322126Y1496187D01*
X317048D01*
X314509Y1498726D01*
X339901Y1511422D02*
X329744D01*
Y1503804D01*
X334822Y1506344D01*
X337361D01*
X339901Y1503804D01*
Y1498726D01*
X337361Y1496187D01*
X332283D01*
X329744Y1498726D01*
X344979Y1496187D02*
Y1498726D01*
X347518D01*
Y1496187D01*
X344979D01*
X365292D02*
Y1511422D01*
X357675Y1503804D01*
X367831D01*
X372910Y1508883D02*
X375449Y1511422D01*
X380527D01*
X383067Y1508883D01*
Y1506344D01*
X380527Y1503804D01*
X377988D01*
X380527D01*
X383067Y1501265D01*
Y1498726D01*
X380527Y1496187D01*
X375449D01*
X372910Y1498726D01*
X388145Y1496187D02*
Y1506344D01*
X390684D01*
X393223Y1503804D01*
Y1496187D01*
Y1503804D01*
X395762Y1506344D01*
X398302Y1503804D01*
Y1496187D01*
X403380D02*
X408458D01*
X405919D01*
Y1506344D01*
X403380D01*
X416076Y1496187D02*
X421154D01*
X418615D01*
Y1511422D01*
X416076D01*
X449085Y1496187D02*
X444007Y1501265D01*
Y1506344D01*
X449085Y1511422D01*
X456703Y1508883D02*
X459242Y1511422D01*
X464320D01*
X466860Y1508883D01*
Y1498726D01*
X464320Y1496187D01*
X459242D01*
X456703Y1498726D01*
Y1508883D01*
X471938Y1496187D02*
Y1498726D01*
X474477D01*
Y1496187D01*
X471938D01*
X484634Y1498726D02*
X487173Y1496187D01*
X492251D01*
X494790Y1498726D01*
Y1508883D01*
X492251Y1511422D01*
X487173D01*
X484634Y1508883D01*
Y1506344D01*
X487173Y1503804D01*
X494790D01*
X499869Y1508883D02*
X502408Y1511422D01*
X507486D01*
X510025Y1508883D01*
Y1498726D01*
X507486Y1496187D01*
X502408D01*
X499869Y1498726D01*
Y1508883D01*
X515104D02*
X517643Y1511422D01*
X522721D01*
X525261Y1508883D01*
Y1498726D01*
X522721Y1496187D01*
X517643D01*
X515104Y1498726D01*
Y1508883D01*
X530339Y1496187D02*
Y1506344D01*
X532878D01*
X535417Y1503804D01*
Y1496187D01*
Y1503804D01*
X537957Y1506344D01*
X540496Y1503804D01*
Y1496187D01*
X545574D02*
Y1506344D01*
X548113D01*
X550652Y1503804D01*
Y1496187D01*
Y1503804D01*
X553192Y1506344D01*
X555731Y1503804D01*
Y1496187D01*
X560809D02*
X565887Y1501265D01*
Y1506344D01*
X560809Y1511422D01*
X324665Y1473322D02*
X319587Y1470783D01*
X314509Y1465704D01*
Y1460626D01*
X317048Y1458087D01*
X322126D01*
X324665Y1460626D01*
Y1463165D01*
X322126Y1465704D01*
X314509D01*
X339901Y1458087D02*
X329744D01*
X339901Y1468244D01*
Y1470783D01*
X337361Y1473322D01*
X332283D01*
X329744Y1470783D01*
X344979Y1458087D02*
Y1460626D01*
X347518D01*
Y1458087D01*
X344979D01*
X357675Y1460626D02*
X360214Y1458087D01*
X365292D01*
X367831Y1460626D01*
Y1470783D01*
X365292Y1473322D01*
X360214D01*
X357675Y1470783D01*
Y1468244D01*
X360214Y1465704D01*
X367831D01*
X372910Y1460626D02*
X375449Y1458087D01*
X380527D01*
X383067Y1460626D01*
Y1470783D01*
X380527Y1473322D01*
X375449D01*
X372910Y1470783D01*
Y1468244D01*
X375449Y1465704D01*
X383067D01*
X388145Y1458087D02*
Y1468244D01*
X390684D01*
X393223Y1465704D01*
Y1458087D01*
Y1465704D01*
X395762Y1468244D01*
X398302Y1465704D01*
Y1458087D01*
X403380D02*
X408458D01*
X405919D01*
Y1468244D01*
X403380D01*
X416076Y1458087D02*
X421154D01*
X418615D01*
Y1473322D01*
X416076D01*
X449085Y1458087D02*
X444007Y1463165D01*
Y1468244D01*
X449085Y1473322D01*
X456703Y1458087D02*
X461781D01*
X459242D01*
Y1473322D01*
X456703Y1470783D01*
X469399Y1458087D02*
Y1460626D01*
X471938D01*
Y1458087D01*
X469399D01*
X492251Y1473322D02*
X487173Y1470783D01*
X482094Y1465704D01*
Y1460626D01*
X484634Y1458087D01*
X489712D01*
X492251Y1460626D01*
Y1463165D01*
X489712Y1465704D01*
X482094D01*
X497330Y1470783D02*
X499869Y1473322D01*
X504947D01*
X507486Y1470783D01*
Y1460626D01*
X504947Y1458087D01*
X499869D01*
X497330Y1460626D01*
Y1470783D01*
X512565D02*
X515104Y1473322D01*
X520182D01*
X522721Y1470783D01*
Y1460626D01*
X520182Y1458087D01*
X515104D01*
X512565Y1460626D01*
Y1470783D01*
X527800Y1458087D02*
Y1468244D01*
X530339D01*
X532878Y1465704D01*
Y1458087D01*
Y1465704D01*
X535417Y1468244D01*
X537957Y1465704D01*
Y1458087D01*
X543035D02*
Y1468244D01*
X545574D01*
X548113Y1465704D01*
Y1458087D01*
Y1465704D01*
X550652Y1468244D01*
X553192Y1465704D01*
Y1458087D01*
X558270D02*
X563348Y1463165D01*
Y1468244D01*
X558270Y1473322D01*
X314509Y1419987D02*
X319587D01*
X317048D01*
Y1435222D01*
X314509Y1432683D01*
X327205D02*
X329744Y1435222D01*
X334822D01*
X337361Y1432683D01*
Y1430144D01*
X334822Y1427605D01*
X332283D01*
X334822D01*
X337361Y1425065D01*
Y1422526D01*
X334822Y1419987D01*
X329744D01*
X327205Y1422526D01*
X342440Y1432683D02*
X344979Y1435222D01*
X350057D01*
X352597Y1432683D01*
Y1430144D01*
X350057Y1427605D01*
X347518D01*
X350057D01*
X352597Y1425065D01*
Y1422526D01*
X350057Y1419987D01*
X344979D01*
X342440Y1422526D01*
X357675Y1419987D02*
Y1422526D01*
X360214D01*
Y1419987D01*
X357675D01*
X370371Y1432683D02*
X372910Y1435222D01*
X377988D01*
X380527Y1432683D01*
Y1430144D01*
X377988Y1427605D01*
X380527Y1425065D01*
Y1422526D01*
X377988Y1419987D01*
X372910D01*
X370371Y1422526D01*
Y1425065D01*
X372910Y1427605D01*
X370371Y1430144D01*
Y1432683D01*
X372910Y1427605D02*
X377988D01*
X395762Y1435222D02*
X390684Y1432683D01*
X385606Y1427605D01*
Y1422526D01*
X388145Y1419987D01*
X393223D01*
X395762Y1422526D01*
Y1425065D01*
X393223Y1427605D01*
X385606D01*
X400841Y1419987D02*
Y1430144D01*
X403380D01*
X405919Y1427605D01*
Y1419987D01*
Y1427605D01*
X408458Y1430144D01*
X410998Y1427605D01*
Y1419987D01*
X416076D02*
X421154D01*
X418615D01*
Y1430144D01*
X416076D01*
X428772Y1419987D02*
X433850D01*
X431311D01*
Y1435222D01*
X428772D01*
X461781Y1419987D02*
X456703Y1425065D01*
Y1430144D01*
X461781Y1435222D01*
X469399Y1432683D02*
X471938Y1435222D01*
X477016D01*
X479555Y1432683D01*
Y1430144D01*
X477016Y1427605D01*
X474477D01*
X477016D01*
X479555Y1425065D01*
Y1422526D01*
X477016Y1419987D01*
X471938D01*
X469399Y1422526D01*
X484634Y1419987D02*
Y1422526D01*
X487173D01*
Y1419987D01*
X484634D01*
X504947D02*
Y1435222D01*
X497330Y1427605D01*
X507486D01*
X512565Y1432683D02*
X515104Y1435222D01*
X520182D01*
X522721Y1432683D01*
Y1422526D01*
X520182Y1419987D01*
X515104D01*
X512565Y1422526D01*
Y1432683D01*
X527800D02*
X530339Y1435222D01*
X535417D01*
X537957Y1432683D01*
Y1422526D01*
X535417Y1419987D01*
X530339D01*
X527800Y1422526D01*
Y1432683D01*
X543035Y1419987D02*
Y1430144D01*
X545574D01*
X548113Y1427605D01*
Y1419987D01*
Y1427605D01*
X550652Y1430144D01*
X553192Y1427605D01*
Y1419987D01*
X558270D02*
Y1430144D01*
X560809D01*
X563348Y1427605D01*
Y1419987D01*
Y1427605D01*
X565887Y1430144D01*
X568427Y1427605D01*
Y1419987D01*
X573505D02*
X578583Y1425065D01*
Y1430144D01*
X573505Y1435222D01*
X322126Y1381887D02*
Y1397122D01*
X314509Y1389505D01*
X324665D01*
X329744Y1394583D02*
X332283Y1397122D01*
X337361D01*
X339901Y1394583D01*
Y1384426D01*
X337361Y1381887D01*
X332283D01*
X329744Y1384426D01*
Y1394583D01*
X344979Y1381887D02*
Y1384426D01*
X347518D01*
Y1381887D01*
X344979D01*
X357675D02*
X362753D01*
X360214D01*
Y1397122D01*
X357675Y1394583D01*
X380527Y1397122D02*
X375449Y1394583D01*
X370371Y1389505D01*
Y1384426D01*
X372910Y1381887D01*
X377988D01*
X380527Y1384426D01*
Y1386965D01*
X377988Y1389505D01*
X370371D01*
X385606Y1381887D02*
Y1392044D01*
X388145D01*
X390684Y1389505D01*
Y1381887D01*
Y1389505D01*
X393223Y1392044D01*
X395762Y1389505D01*
Y1381887D01*
X400841D02*
X405919D01*
X403380D01*
Y1392044D01*
X400841D01*
X413537Y1381887D02*
X418615D01*
X416076D01*
Y1397122D01*
X413537D01*
X446546Y1381887D02*
X441468Y1386965D01*
Y1392044D01*
X446546Y1397122D01*
X454164Y1381887D02*
X459242D01*
X456703D01*
Y1397122D01*
X454164Y1394583D01*
X466860Y1381887D02*
Y1384426D01*
X469399D01*
Y1381887D01*
X466860D01*
X479555Y1394583D02*
X482094Y1397122D01*
X487173D01*
X489712Y1394583D01*
Y1384426D01*
X487173Y1381887D01*
X482094D01*
X479555Y1384426D01*
Y1394583D01*
X504947Y1381887D02*
X494790D01*
X504947Y1392044D01*
Y1394583D01*
X502408Y1397122D01*
X497330D01*
X494790Y1394583D01*
X510025D02*
X512565Y1397122D01*
X517643D01*
X520182Y1394583D01*
Y1384426D01*
X517643Y1381887D01*
X512565D01*
X510025Y1384426D01*
Y1394583D01*
X525261Y1381887D02*
Y1392044D01*
X527800D01*
X530339Y1389505D01*
Y1381887D01*
Y1389505D01*
X532878Y1392044D01*
X535417Y1389505D01*
Y1381887D01*
X540496D02*
Y1392044D01*
X543035D01*
X545574Y1389505D01*
Y1381887D01*
Y1389505D01*
X548113Y1392044D01*
X550652Y1389505D01*
Y1381887D01*
X555731D02*
X560809Y1386965D01*
Y1392044D01*
X555731Y1397122D01*
X322126Y1343787D02*
Y1359022D01*
X314509Y1351405D01*
X324665D01*
X329744Y1359022D02*
X339901D01*
Y1356483D01*
X329744Y1346326D01*
Y1343787D01*
X344979D02*
Y1346326D01*
X347518D01*
Y1343787D01*
X344979D01*
X367831D02*
X357675D01*
X367831Y1353944D01*
Y1356483D01*
X365292Y1359022D01*
X360214D01*
X357675Y1356483D01*
X380527Y1343787D02*
Y1359022D01*
X372910Y1351405D01*
X383067D01*
X388145Y1343787D02*
Y1353944D01*
X390684D01*
X393223Y1351405D01*
Y1343787D01*
Y1351405D01*
X395762Y1353944D01*
X398302Y1351405D01*
Y1343787D01*
X403380D02*
X408458D01*
X405919D01*
Y1353944D01*
X403380D01*
X416076Y1343787D02*
X421154D01*
X418615D01*
Y1359022D01*
X416076D01*
X449085Y1343787D02*
X444007Y1348865D01*
Y1353944D01*
X449085Y1359022D01*
X456703Y1343787D02*
X461781D01*
X459242D01*
Y1359022D01*
X456703Y1356483D01*
X469399Y1343787D02*
Y1346326D01*
X471938D01*
Y1343787D01*
X469399D01*
X492251D02*
X482094D01*
X492251Y1353944D01*
Y1356483D01*
X489712Y1359022D01*
X484634D01*
X482094Y1356483D01*
X497330D02*
X499869Y1359022D01*
X504947D01*
X507486Y1356483D01*
Y1346326D01*
X504947Y1343787D01*
X499869D01*
X497330Y1346326D01*
Y1356483D01*
X512565D02*
X515104Y1359022D01*
X520182D01*
X522721Y1356483D01*
Y1346326D01*
X520182Y1343787D01*
X515104D01*
X512565Y1346326D01*
Y1356483D01*
X527800Y1343787D02*
Y1353944D01*
X530339D01*
X532878Y1351405D01*
Y1343787D01*
Y1351405D01*
X535417Y1353944D01*
X537957Y1351405D01*
Y1343787D01*
X543035D02*
Y1353944D01*
X545574D01*
X548113Y1351405D01*
Y1343787D01*
Y1351405D01*
X550652Y1353944D01*
X553192Y1351405D01*
Y1343787D01*
X558270D02*
X563348Y1348865D01*
Y1353944D01*
X558270Y1359022D01*
X314509Y1318383D02*
X317048Y1320922D01*
X322126D01*
X324665Y1318383D01*
Y1315844D01*
X322126Y1313304D01*
X319587D01*
X322126D01*
X324665Y1310765D01*
Y1308226D01*
X322126Y1305687D01*
X317048D01*
X314509Y1308226D01*
X329744Y1305687D02*
X334822D01*
X332283D01*
Y1320922D01*
X329744Y1318383D01*
X342440Y1305687D02*
Y1308226D01*
X344979D01*
Y1305687D01*
X342440D01*
X365292Y1320922D02*
X355136D01*
Y1313304D01*
X360214Y1315844D01*
X362753D01*
X365292Y1313304D01*
Y1308226D01*
X362753Y1305687D01*
X357675D01*
X355136Y1308226D01*
X370371Y1318383D02*
X372910Y1320922D01*
X377988D01*
X380527Y1318383D01*
Y1308226D01*
X377988Y1305687D01*
X372910D01*
X370371Y1308226D01*
Y1318383D01*
X385606Y1305687D02*
Y1315844D01*
X388145D01*
X390684Y1313304D01*
Y1305687D01*
Y1313304D01*
X393223Y1315844D01*
X395762Y1313304D01*
Y1305687D01*
X400841D02*
X405919D01*
X403380D01*
Y1315844D01*
X400841D01*
X413537Y1305687D02*
X418615D01*
X416076D01*
Y1320922D01*
X413537D01*
X446546Y1305687D02*
X441468Y1310765D01*
Y1315844D01*
X446546Y1320922D01*
X454164Y1318383D02*
X456703Y1320922D01*
X461781D01*
X464320Y1318383D01*
Y1308226D01*
X461781Y1305687D01*
X456703D01*
X454164Y1308226D01*
Y1318383D01*
X469399Y1305687D02*
Y1308226D01*
X471938D01*
Y1305687D01*
X469399D01*
X482094Y1318383D02*
X484634Y1320922D01*
X489712D01*
X492251Y1318383D01*
Y1315844D01*
X489712Y1313304D01*
X492251Y1310765D01*
Y1308226D01*
X489712Y1305687D01*
X484634D01*
X482094Y1308226D01*
Y1310765D01*
X484634Y1313304D01*
X482094Y1315844D01*
Y1318383D01*
X484634Y1313304D02*
X489712D01*
X497330Y1318383D02*
X499869Y1320922D01*
X504947D01*
X507486Y1318383D01*
Y1308226D01*
X504947Y1305687D01*
X499869D01*
X497330Y1308226D01*
Y1318383D01*
X512565D02*
X515104Y1320922D01*
X520182D01*
X522721Y1318383D01*
Y1308226D01*
X520182Y1305687D01*
X515104D01*
X512565Y1308226D01*
Y1318383D01*
X527800Y1305687D02*
Y1315844D01*
X530339D01*
X532878Y1313304D01*
Y1305687D01*
Y1313304D01*
X535417Y1315844D01*
X537957Y1313304D01*
Y1305687D01*
X543035D02*
Y1315844D01*
X545574D01*
X548113Y1313304D01*
Y1305687D01*
Y1313304D01*
X550652Y1315844D01*
X553192Y1313304D01*
Y1305687D01*
X558270D02*
X563348Y1310765D01*
Y1315844D01*
X558270Y1320922D01*
X322126Y1267587D02*
Y1282822D01*
X314509Y1275204D01*
X324665D01*
X329744Y1280283D02*
X332283Y1282822D01*
X337361D01*
X339901Y1280283D01*
Y1270126D01*
X337361Y1267587D01*
X332283D01*
X329744Y1270126D01*
Y1280283D01*
X344979Y1267587D02*
Y1270126D01*
X347518D01*
Y1267587D01*
X344979D01*
X357675Y1270126D02*
X360214Y1267587D01*
X365292D01*
X367831Y1270126D01*
Y1280283D01*
X365292Y1282822D01*
X360214D01*
X357675Y1280283D01*
Y1277744D01*
X360214Y1275204D01*
X367831D01*
X383067Y1282822D02*
X372910D01*
Y1275204D01*
X377988Y1277744D01*
X380527D01*
X383067Y1275204D01*
Y1270126D01*
X380527Y1267587D01*
X375449D01*
X372910Y1270126D01*
X388145Y1267587D02*
Y1277744D01*
X390684D01*
X393223Y1275204D01*
Y1267587D01*
Y1275204D01*
X395762Y1277744D01*
X398302Y1275204D01*
Y1267587D01*
X403380D02*
X408458D01*
X405919D01*
Y1277744D01*
X403380D01*
X416076Y1267587D02*
X421154D01*
X418615D01*
Y1282822D01*
X416076D01*
X449085Y1267587D02*
X444007Y1272665D01*
Y1277744D01*
X449085Y1282822D01*
X456703Y1267587D02*
X461781D01*
X459242D01*
Y1282822D01*
X456703Y1280283D01*
X469399Y1267587D02*
Y1270126D01*
X471938D01*
Y1267587D01*
X469399D01*
X482094Y1280283D02*
X484634Y1282822D01*
X489712D01*
X492251Y1280283D01*
Y1270126D01*
X489712Y1267587D01*
X484634D01*
X482094Y1270126D01*
Y1280283D01*
X504947Y1267587D02*
Y1282822D01*
X497330Y1275204D01*
X507486D01*
X512565Y1280283D02*
X515104Y1282822D01*
X520182D01*
X522721Y1280283D01*
Y1270126D01*
X520182Y1267587D01*
X515104D01*
X512565Y1270126D01*
Y1280283D01*
X527800Y1267587D02*
Y1277744D01*
X530339D01*
X532878Y1275204D01*
Y1267587D01*
Y1275204D01*
X535417Y1277744D01*
X537957Y1275204D01*
Y1267587D01*
X543035D02*
Y1277744D01*
X545574D01*
X548113Y1275204D01*
Y1267587D01*
Y1275204D01*
X550652Y1277744D01*
X553192Y1275204D01*
Y1267587D01*
X558270D02*
X563348Y1272665D01*
Y1277744D01*
X558270Y1282822D01*
X324665Y1229487D02*
X314509D01*
X324665Y1239644D01*
Y1242183D01*
X322126Y1244722D01*
X317048D01*
X314509Y1242183D01*
X329744D02*
X332283Y1244722D01*
X337361D01*
X339901Y1242183D01*
Y1239644D01*
X337361Y1237104D01*
X334822D01*
X337361D01*
X339901Y1234565D01*
Y1232026D01*
X337361Y1229487D01*
X332283D01*
X329744Y1232026D01*
X344979Y1229487D02*
Y1232026D01*
X347518D01*
Y1229487D01*
X344979D01*
X367831Y1244722D02*
X362753Y1242183D01*
X357675Y1237104D01*
Y1232026D01*
X360214Y1229487D01*
X365292D01*
X367831Y1232026D01*
Y1234565D01*
X365292Y1237104D01*
X357675D01*
X383067Y1229487D02*
X372910D01*
X383067Y1239644D01*
Y1242183D01*
X380527Y1244722D01*
X375449D01*
X372910Y1242183D01*
X388145Y1229487D02*
Y1239644D01*
X390684D01*
X393223Y1237104D01*
Y1229487D01*
Y1237104D01*
X395762Y1239644D01*
X398302Y1237104D01*
Y1229487D01*
X403380D02*
X408458D01*
X405919D01*
Y1239644D01*
X403380D01*
X416076Y1229487D02*
X421154D01*
X418615D01*
Y1244722D01*
X416076D01*
X449085Y1229487D02*
X444007Y1234565D01*
Y1239644D01*
X449085Y1244722D01*
X456703Y1242183D02*
X459242Y1244722D01*
X464320D01*
X466860Y1242183D01*
Y1232026D01*
X464320Y1229487D01*
X459242D01*
X456703Y1232026D01*
Y1242183D01*
X471938Y1229487D02*
Y1232026D01*
X474477D01*
Y1229487D01*
X471938D01*
X494790Y1244722D02*
X489712Y1242183D01*
X484634Y1237104D01*
Y1232026D01*
X487173Y1229487D01*
X492251D01*
X494790Y1232026D01*
Y1234565D01*
X492251Y1237104D01*
X484634D01*
X499869Y1242183D02*
X502408Y1244722D01*
X507486D01*
X510025Y1242183D01*
Y1232026D01*
X507486Y1229487D01*
X502408D01*
X499869Y1232026D01*
Y1242183D01*
X515104D02*
X517643Y1244722D01*
X522721D01*
X525261Y1242183D01*
Y1232026D01*
X522721Y1229487D01*
X517643D01*
X515104Y1232026D01*
Y1242183D01*
X530339Y1229487D02*
Y1239644D01*
X532878D01*
X535417Y1237104D01*
Y1229487D01*
Y1237104D01*
X537957Y1239644D01*
X540496Y1237104D01*
Y1229487D01*
X545574D02*
Y1239644D01*
X548113D01*
X550652Y1237104D01*
Y1229487D01*
Y1237104D01*
X553192Y1239644D01*
X555731Y1237104D01*
Y1229487D01*
X560809D02*
X565887Y1234565D01*
Y1239644D01*
X560809Y1244722D01*
X167227Y1191387D02*
X172306D01*
X169767D01*
Y1206622D01*
X167227Y1204083D01*
X190080Y1206622D02*
X179923D01*
Y1199005D01*
X185002Y1201544D01*
X187541D01*
X190080Y1199005D01*
Y1193926D01*
X187541Y1191387D01*
X182463D01*
X179923Y1193926D01*
X195158Y1191387D02*
X200237D01*
X197698D01*
Y1206622D01*
X195158Y1204083D01*
X223089Y1206622D02*
X233246D01*
X228168D01*
Y1191387D01*
X240864D02*
X245942D01*
X248481Y1193926D01*
Y1199005D01*
X245942Y1201544D01*
X240864D01*
X238324Y1199005D01*
Y1193926D01*
X240864Y1191387D01*
X256099Y1204083D02*
Y1201544D01*
X253559D01*
X258638D01*
X256099D01*
Y1193926D01*
X258638Y1191387D01*
X268795Y1201544D02*
X273873D01*
X276412Y1199005D01*
Y1191387D01*
X268795D01*
X266255Y1193926D01*
X268795Y1196465D01*
X276412D01*
X281490Y1191387D02*
X286569D01*
X284030D01*
Y1206622D01*
X281490D01*
X177384Y1648587D02*
X167227D01*
X177384Y1658744D01*
Y1661283D01*
X174845Y1663822D01*
X169767D01*
X167227Y1661283D01*
X177384Y1610487D02*
X167227D01*
X177384Y1620644D01*
Y1623183D01*
X174845Y1625722D01*
X169767D01*
X167227Y1623183D01*
X177384Y1572387D02*
X167227D01*
X177384Y1582544D01*
Y1585083D01*
X174845Y1587622D01*
X169767D01*
X167227Y1585083D01*
X174845Y1534287D02*
Y1549522D01*
X167227Y1541904D01*
X177384D01*
X174845Y1496187D02*
Y1511422D01*
X167227Y1503804D01*
X177384D01*
X174845Y1458087D02*
Y1473322D01*
X167227Y1465704D01*
X177384D01*
X174845Y1419987D02*
Y1435222D01*
X167227Y1427605D01*
X177384D01*
X167227Y1394583D02*
X169767Y1397122D01*
X174845D01*
X177384Y1394583D01*
Y1392044D01*
X174845Y1389505D01*
X177384Y1386965D01*
Y1384426D01*
X174845Y1381887D01*
X169767D01*
X167227Y1384426D01*
Y1386965D01*
X169767Y1389505D01*
X167227Y1392044D01*
Y1394583D01*
X169767Y1389505D02*
X174845D01*
X167227Y1343787D02*
X172306D01*
X169767D01*
Y1359022D01*
X167227Y1356483D01*
X190080Y1343787D02*
X179923D01*
X190080Y1353944D01*
Y1356483D01*
X187541Y1359022D01*
X182463D01*
X179923Y1356483D01*
X167227Y1305687D02*
X172306D01*
X169767D01*
Y1320922D01*
X167227Y1318383D01*
X190080Y1320922D02*
X185002Y1318383D01*
X179923Y1313304D01*
Y1308226D01*
X182463Y1305687D01*
X187541D01*
X190080Y1308226D01*
Y1310765D01*
X187541Y1313304D01*
X179923D01*
X174845Y1267587D02*
Y1282822D01*
X167227Y1275204D01*
X177384D01*
X182463Y1280283D02*
X185002Y1282822D01*
X190080D01*
X192619Y1280283D01*
Y1270126D01*
X190080Y1267587D01*
X185002D01*
X182463Y1270126D01*
Y1280283D01*
X177384Y1244722D02*
X167227D01*
Y1237104D01*
X172306Y1239644D01*
X174845D01*
X177384Y1237104D01*
Y1232026D01*
X174845Y1229487D01*
X169767D01*
X167227Y1232026D01*
X182463Y1242183D02*
X185002Y1244722D01*
X190080D01*
X192619Y1242183D01*
Y1239644D01*
X190080Y1237104D01*
X187541D01*
X190080D01*
X192619Y1234565D01*
Y1232026D01*
X190080Y1229487D01*
X185002D01*
X182463Y1232026D01*
D77*
X2547549Y1704969D02*
Y1686687D01*
Y1695828D01*
X2559738D01*
Y1704969D01*
Y1686687D01*
X2568878D02*
X2574973D01*
X2578020Y1689734D01*
Y1695828D01*
X2574973Y1698875D01*
X2568878D01*
X2565832Y1695828D01*
Y1689734D01*
X2568878Y1686687D01*
X2584114D02*
X2590208D01*
X2587161D01*
Y1704969D01*
X2584114D01*
X2608490Y1686687D02*
X2602396D01*
X2599349Y1689734D01*
Y1695828D01*
X2602396Y1698875D01*
X2608490D01*
X2611537Y1695828D01*
Y1692781D01*
X2599349D01*
X2635913Y1704969D02*
X2648101D01*
X2642007D01*
Y1686687D01*
X2657242D02*
X2663336D01*
X2666383Y1689734D01*
Y1695828D01*
X2663336Y1698875D01*
X2657242D01*
X2654195Y1695828D01*
Y1689734D01*
X2657242Y1686687D01*
X2672477D02*
X2678571D01*
X2675524D01*
Y1704969D01*
X2672477D01*
X2696853Y1686687D02*
X2690759D01*
X2687712Y1689734D01*
Y1695828D01*
X2690759Y1698875D01*
X2696853D01*
X2699900Y1695828D01*
Y1692781D01*
X2687712D01*
X2705994Y1698875D02*
Y1686687D01*
Y1692781D01*
X2709041Y1695828D01*
X2712088Y1698875D01*
X2715135D01*
X2727323D02*
X2733417D01*
X2736465Y1695828D01*
Y1686687D01*
X2727323D01*
X2724276Y1689734D01*
X2727323Y1692781D01*
X2736465D01*
X2742558Y1686687D02*
Y1698875D01*
X2751700D01*
X2754746Y1695828D01*
Y1686687D01*
X2773029Y1698875D02*
X2763888D01*
X2760840Y1695828D01*
Y1689734D01*
X2763888Y1686687D01*
X2773029D01*
X2788264D02*
X2782169D01*
X2779123Y1689734D01*
Y1695828D01*
X2782169Y1698875D01*
X2788264D01*
X2791311Y1695828D01*
Y1692781D01*
X2779123D01*
X2821781Y1686687D02*
X2815687Y1692781D01*
Y1698875D01*
X2821781Y1704969D01*
X2830922Y1695828D02*
X2843110D01*
X2849204Y1686687D02*
X2855298Y1692781D01*
Y1698875D01*
X2849204Y1704969D01*
X2208813D02*
Y1686687D01*
Y1695828D01*
X2221001D01*
Y1704969D01*
Y1686687D01*
X2230142D02*
X2236236D01*
X2239283Y1689734D01*
Y1695828D01*
X2236236Y1698875D01*
X2230142D01*
X2227095Y1695828D01*
Y1689734D01*
X2230142Y1686687D01*
X2245377D02*
X2251471D01*
X2248424D01*
Y1704969D01*
X2245377D01*
X2269753Y1686687D02*
X2263659D01*
X2260612Y1689734D01*
Y1695828D01*
X2263659Y1698875D01*
X2269753D01*
X2272800Y1695828D01*
Y1692781D01*
X2260612D01*
X2297177Y1704969D02*
X2309365D01*
X2303271D01*
Y1686687D01*
X2318506D02*
X2324600D01*
X2327647Y1689734D01*
Y1695828D01*
X2324600Y1698875D01*
X2318506D01*
X2315459Y1695828D01*
Y1689734D01*
X2318506Y1686687D01*
X2333741D02*
X2339835D01*
X2336788D01*
Y1704969D01*
X2333741D01*
X2358117Y1686687D02*
X2352023D01*
X2348976Y1689734D01*
Y1695828D01*
X2352023Y1698875D01*
X2358117D01*
X2361164Y1695828D01*
Y1692781D01*
X2348976D01*
X2367258Y1698875D02*
Y1686687D01*
Y1692781D01*
X2370305Y1695828D01*
X2373352Y1698875D01*
X2376399D01*
X2388587D02*
X2394681D01*
X2397728Y1695828D01*
Y1686687D01*
X2388587D01*
X2385540Y1689734D01*
X2388587Y1692781D01*
X2397728D01*
X2403822Y1686687D02*
Y1698875D01*
X2412963D01*
X2416010Y1695828D01*
Y1686687D01*
X2434292Y1698875D02*
X2425151D01*
X2422104Y1695828D01*
Y1689734D01*
X2425151Y1686687D01*
X2434292D01*
X2449527D02*
X2443433D01*
X2440386Y1689734D01*
Y1695828D01*
X2443433Y1698875D01*
X2449527D01*
X2452574Y1695828D01*
Y1692781D01*
X2440386D01*
X2483044Y1686687D02*
X2476950Y1692781D01*
Y1698875D01*
X2483044Y1704969D01*
X2492185Y1695828D02*
X2504373D01*
X2498279Y1701922D02*
Y1689734D01*
X2510468Y1686687D02*
X2516561Y1692781D01*
Y1698875D01*
X2510468Y1704969D01*
X1991957D02*
Y1686687D01*
X2001098D01*
X2004145Y1689734D01*
Y1701922D01*
X2001098Y1704969D01*
X1991957D01*
X2019380Y1686687D02*
X2013286D01*
X2010239Y1689734D01*
Y1695828D01*
X2013286Y1698875D01*
X2019380D01*
X2022427Y1695828D01*
Y1692781D01*
X2010239D01*
X2028521Y1686687D02*
X2037663D01*
X2040710Y1689734D01*
X2037663Y1692781D01*
X2031568D01*
X2028521Y1695828D01*
X2031568Y1698875D01*
X2040710D01*
X2058992D02*
X2049850D01*
X2046803Y1695828D01*
Y1689734D01*
X2049850Y1686687D01*
X2058992D01*
X2065086Y1698875D02*
Y1686687D01*
Y1692781D01*
X2068133Y1695828D01*
X2071180Y1698875D01*
X2074227D01*
X2083368Y1686687D02*
X2089462D01*
X2086415D01*
Y1698875D01*
X2083368D01*
X2098603Y1680593D02*
Y1698875D01*
X2107744D01*
X2110791Y1695828D01*
Y1689734D01*
X2107744Y1686687D01*
X2098603D01*
X2119932Y1701922D02*
Y1698875D01*
X2116885D01*
X2122979D01*
X2119932D01*
Y1689734D01*
X2122979Y1686687D01*
X2132120D02*
X2138214D01*
X2135167D01*
Y1698875D01*
X2132120D01*
X2150402Y1686687D02*
X2156496D01*
X2159543Y1689734D01*
Y1695828D01*
X2156496Y1698875D01*
X2150402D01*
X2147355Y1695828D01*
Y1689734D01*
X2150402Y1686687D01*
X2165637D02*
Y1698875D01*
X2174778D01*
X2177825Y1695828D01*
Y1686687D01*
X1641542Y1704969D02*
X1653730D01*
X1647636D01*
Y1686687D01*
X1668965D02*
X1662871D01*
X1659824Y1689734D01*
Y1695828D01*
X1662871Y1698875D01*
X1668965D01*
X1672012Y1695828D01*
Y1692781D01*
X1659824D01*
X1678106Y1686687D02*
Y1698875D01*
X1681153D01*
X1684200Y1695828D01*
Y1686687D01*
Y1695828D01*
X1687247Y1698875D01*
X1690294Y1695828D01*
Y1686687D01*
X1696388Y1680593D02*
Y1698875D01*
X1705529D01*
X1708576Y1695828D01*
Y1689734D01*
X1705529Y1686687D01*
X1696388D01*
X1714670D02*
X1720764D01*
X1717717D01*
Y1704969D01*
X1714670D01*
X1732952Y1698875D02*
X1739046D01*
X1742093Y1695828D01*
Y1686687D01*
X1732952D01*
X1729905Y1689734D01*
X1732952Y1692781D01*
X1742093D01*
X1751234Y1701922D02*
Y1698875D01*
X1748187D01*
X1754281D01*
X1751234D01*
Y1689734D01*
X1754281Y1686687D01*
X1772563D02*
X1766469D01*
X1763422Y1689734D01*
Y1695828D01*
X1766469Y1698875D01*
X1772563D01*
X1775610Y1695828D01*
Y1692781D01*
X1763422D01*
X1452109Y1686687D02*
Y1704969D01*
X1461250D01*
X1464297Y1701922D01*
Y1695828D01*
X1461250Y1692781D01*
X1452109D01*
X1473438Y1698875D02*
X1479532D01*
X1482579Y1695828D01*
Y1686687D01*
X1473438D01*
X1470391Y1689734D01*
X1473438Y1692781D01*
X1482579D01*
X1500861Y1704969D02*
Y1686687D01*
X1491720D01*
X1488673Y1689734D01*
Y1695828D01*
X1491720Y1698875D01*
X1500861D01*
X1537425Y1701922D02*
X1534378Y1704969D01*
X1528284D01*
X1525237Y1701922D01*
Y1698875D01*
X1528284Y1695828D01*
X1534378D01*
X1537425Y1692781D01*
Y1689734D01*
X1534378Y1686687D01*
X1528284D01*
X1525237Y1689734D01*
X1543519Y1704969D02*
Y1686687D01*
Y1695828D01*
X1546566Y1698875D01*
X1552660D01*
X1555707Y1695828D01*
Y1686687D01*
X1564848Y1698875D02*
X1570942D01*
X1573989Y1695828D01*
Y1686687D01*
X1564848D01*
X1561801Y1689734D01*
X1564848Y1692781D01*
X1573989D01*
X1580083Y1680593D02*
Y1698875D01*
X1589225D01*
X1592272Y1695828D01*
Y1689734D01*
X1589225Y1686687D01*
X1580083D01*
X1607507D02*
X1601413D01*
X1598365Y1689734D01*
Y1695828D01*
X1601413Y1698875D01*
X1607507D01*
X1610554Y1695828D01*
Y1692781D01*
X1598365D01*
X1302287Y1704969D02*
Y1692781D01*
X1308381Y1686687D01*
X1314475Y1692781D01*
Y1704969D01*
X1320569Y1686687D02*
X1326663D01*
X1323616D01*
Y1698875D01*
X1320569D01*
X1338851D02*
X1344946D01*
X1347993Y1695828D01*
Y1686687D01*
X1338851D01*
X1335804Y1689734D01*
X1338851Y1692781D01*
X1347993D01*
X1354086Y1686687D02*
X1366275Y1698875D01*
X1372369Y1686687D02*
Y1704969D01*
X1381510D01*
X1384557Y1701922D01*
Y1695828D01*
X1381510Y1692781D01*
X1372369D01*
X1393698Y1698875D02*
X1399792D01*
X1402839Y1695828D01*
Y1686687D01*
X1393698D01*
X1390651Y1689734D01*
X1393698Y1692781D01*
X1402839D01*
X1421121Y1704969D02*
Y1686687D01*
X1411980D01*
X1408933Y1689734D01*
Y1695828D01*
X1411980Y1698875D01*
X1421121D01*
X921402Y1704969D02*
Y1686687D01*
X930543D01*
X933589Y1689734D01*
Y1701922D01*
X930543Y1704969D01*
X921402D01*
X939684Y1698875D02*
Y1686687D01*
Y1692781D01*
X942731Y1695828D01*
X945778Y1698875D01*
X948825D01*
X957966Y1686687D02*
X964060D01*
X961013D01*
Y1698875D01*
X957966D01*
X973201Y1686687D02*
X979295D01*
X976248D01*
Y1704969D01*
X973201D01*
X988436Y1686687D02*
X994530D01*
X991483D01*
Y1704969D01*
X988436D01*
X1021953D02*
Y1686687D01*
X1034141D01*
X1043282Y1698875D02*
X1049376D01*
X1052423Y1695828D01*
Y1686687D01*
X1043282D01*
X1040235Y1689734D01*
X1043282Y1692781D01*
X1052423D01*
X1058517Y1698875D02*
Y1689734D01*
X1061564Y1686687D01*
X1070705D01*
Y1683640D01*
X1067658Y1680593D01*
X1064611D01*
X1070705Y1686687D02*
Y1698875D01*
X1085940Y1686687D02*
X1079846D01*
X1076799Y1689734D01*
Y1695828D01*
X1079846Y1698875D01*
X1085940D01*
X1088987Y1695828D01*
Y1692781D01*
X1076799D01*
X1095081Y1698875D02*
Y1686687D01*
Y1692781D01*
X1098128Y1695828D01*
X1101175Y1698875D01*
X1104222D01*
X1131645Y1686687D02*
Y1704969D01*
X1140787D01*
X1143833Y1701922D01*
Y1695828D01*
X1140787Y1692781D01*
X1131645D01*
X1152974Y1698875D02*
X1159069D01*
X1162116Y1695828D01*
Y1686687D01*
X1152974D01*
X1149928Y1689734D01*
X1152974Y1692781D01*
X1162116D01*
X1168210Y1686687D02*
X1174304D01*
X1171257D01*
Y1698875D01*
X1168210D01*
X1183445D02*
Y1686687D01*
Y1692781D01*
X1186492Y1695828D01*
X1189539Y1698875D01*
X1192586D01*
X735016Y1704969D02*
Y1686687D01*
Y1695828D01*
X747204D01*
Y1704969D01*
Y1686687D01*
X756345D02*
X762439D01*
X765486Y1689734D01*
Y1695828D01*
X762439Y1698875D01*
X756345D01*
X753298Y1695828D01*
Y1689734D01*
X756345Y1686687D01*
X771580D02*
X777674D01*
X774627D01*
Y1704969D01*
X771580D01*
X795956Y1686687D02*
X789862D01*
X786815Y1689734D01*
Y1695828D01*
X789862Y1698875D01*
X795956D01*
X799003Y1695828D01*
Y1692781D01*
X786815D01*
X823379Y1704969D02*
X835567D01*
X829473D01*
Y1686687D01*
X841661Y1698875D02*
Y1689734D01*
X844708Y1686687D01*
X853849D01*
Y1683640D01*
X850802Y1680593D01*
X847755D01*
X853849Y1686687D02*
Y1698875D01*
X859943Y1680593D02*
Y1698875D01*
X869084D01*
X872131Y1695828D01*
Y1689734D01*
X869084Y1686687D01*
X859943D01*
X887366D02*
X881272D01*
X878225Y1689734D01*
Y1695828D01*
X881272Y1698875D01*
X887366D01*
X890414Y1695828D01*
Y1692781D01*
X878225D01*
X606523Y1686687D02*
Y1704969D01*
X615664D01*
X618711Y1701922D01*
Y1695828D01*
X615664Y1692781D01*
X606523D01*
X624805Y1686687D02*
X630899D01*
X627852D01*
Y1704969D01*
X624805D01*
X643087Y1698875D02*
X649182D01*
X652228Y1695828D01*
Y1686687D01*
X643087D01*
X640041Y1689734D01*
X643087Y1692781D01*
X652228D01*
X661370Y1701922D02*
Y1698875D01*
X658323D01*
X664417D01*
X661370D01*
Y1689734D01*
X664417Y1686687D01*
X682699D02*
X676605D01*
X673558Y1689734D01*
Y1695828D01*
X676605Y1698875D01*
X682699D01*
X685746Y1695828D01*
Y1692781D01*
X673558D01*
X704028Y1704969D02*
Y1686687D01*
X694887D01*
X691840Y1689734D01*
Y1695828D01*
X694887Y1698875D01*
X704028D01*
X314509Y1704969D02*
Y1686687D01*
Y1695828D01*
X326697D01*
Y1704969D01*
Y1686687D01*
X335838D02*
X341932D01*
X344979Y1689734D01*
Y1695828D01*
X341932Y1698875D01*
X335838D01*
X332791Y1695828D01*
Y1689734D01*
X335838Y1686687D01*
X351073D02*
X357167D01*
X354120D01*
Y1704969D01*
X351073D01*
X375449Y1686687D02*
X369355D01*
X366308Y1689734D01*
Y1695828D01*
X369355Y1698875D01*
X375449D01*
X378496Y1695828D01*
Y1692781D01*
X366308D01*
X415060Y1701922D02*
X412013Y1704969D01*
X405919D01*
X402872Y1701922D01*
Y1698875D01*
X405919Y1695828D01*
X412013D01*
X415060Y1692781D01*
Y1689734D01*
X412013Y1686687D01*
X405919D01*
X402872Y1689734D01*
X421154Y1686687D02*
X427248D01*
X424201D01*
Y1698875D01*
X421154D01*
X436389D02*
X448577D01*
X436389Y1686687D01*
X448577D01*
X463812D02*
X457718D01*
X454671Y1689734D01*
Y1695828D01*
X457718Y1698875D01*
X463812D01*
X466860Y1695828D01*
Y1692781D01*
X454671D01*
X179415Y1701922D02*
X176369Y1704969D01*
X170274D01*
X167227Y1701922D01*
Y1689734D01*
X170274Y1686687D01*
X176369D01*
X179415Y1689734D01*
X188556Y1686687D02*
X194651D01*
X197698Y1689734D01*
Y1695828D01*
X194651Y1698875D01*
X188556D01*
X185509Y1695828D01*
Y1689734D01*
X188556Y1686687D01*
X203792Y1698875D02*
Y1689734D01*
X206839Y1686687D01*
X215980D01*
Y1698875D01*
X222074Y1686687D02*
Y1698875D01*
X231215D01*
X234262Y1695828D01*
Y1686687D01*
X243403Y1701922D02*
Y1698875D01*
X240356D01*
X246450D01*
X243403D01*
Y1689734D01*
X246450Y1686687D01*
X50923Y1701922D02*
X47876Y1704969D01*
X41782D01*
X38735Y1701922D01*
Y1698875D01*
X41782Y1695828D01*
X47876D01*
X50923Y1692781D01*
Y1689734D01*
X47876Y1686687D01*
X41782D01*
X38735Y1689734D01*
X57017Y1698875D02*
Y1689734D01*
X60064Y1686687D01*
X69205D01*
Y1683640D01*
X66158Y1680593D01*
X63111D01*
X69205Y1686687D02*
Y1698875D01*
X75299Y1686687D02*
Y1698875D01*
X78346D01*
X81393Y1695828D01*
Y1686687D01*
Y1695828D01*
X84440Y1698875D01*
X87487Y1695828D01*
Y1686687D01*
X93581Y1704969D02*
Y1686687D01*
X102722D01*
X105769Y1689734D01*
Y1692781D01*
Y1695828D01*
X102722Y1698875D01*
X93581D01*
X114910Y1686687D02*
X121004D01*
X124051Y1689734D01*
Y1695828D01*
X121004Y1698875D01*
X114910D01*
X111863Y1695828D01*
Y1689734D01*
X114910Y1686687D01*
X130145D02*
X136239D01*
X133192D01*
Y1704969D01*
X130145D01*
M02*
