M48
;Layer_Color=9474304
;FILE_FORMAT=4:4
METRIC,LZ
;TYPE=PLATED
T01F00S00C0.6000
T02F00S00C0.8000
T03F00S00C0.9000
T04F00S00C1.0200
T05F00S00C1.0400
T06F00S00C1.2000
T07F00S00C1.6000
T08F00S00C1.7000
T09F00S00C3.4000
;TYPE=NON_PLATED
T10F00S00C1.6000
T11F00S00C3.0000
%
T01
X01144804Y00224028
X0121948Y00222758
X0016244Y00309918
X00130137
X00118199Y00337262
X00119006Y00385102
X00137503
X0016244
X0060353Y00506815
X0069243Y00618368
X0081645Y00603436
X00836857
X00850922
X00984166Y00567178
X0107343Y00618368
X0119745Y00603436
X01217857
X01231922
X0127373Y00727416
X0107343Y00736715
X0104803Y00722094
Y0076454
X01016262Y00777748
X01003722
X0100993Y00734175
X0109883Y0076454
Y00784432
Y00796972
X0107343Y0066802
X0098453Y00734175
X0089273Y00727416
X00883866Y00793059
Y00805599
X0071783Y0076454
X00698681Y00777922
X00686141
X0066703Y0076454
Y00722094
X0069243Y00736715
X0062893Y00734175
X0060353
X0069243Y0066802
X00550672Y0075819
X00325146Y00918972
X00240056Y0094488
X00220498Y00933958
X00236629Y00833189
X00165751Y00733028
X00177366Y00706604
X00153Y00681022
X00140208Y00668528
X0007239Y00693514
X00091689Y0071993
T02
X0116185Y0070235
X0118725
X0121265
X0123805
X0122535Y0072775
X0119995
X0117455
X0125075
X0086975
X0084435
X0081895
X0079355
X0078085Y0070235
X0080625
X0083165
X0085705
T03
X011236Y0085655
X01149
X012636
X01289
X00908
X008826
X00768
X007426
T04
X00091436Y00476528
X00121436
Y00506528
X00091436
Y00536528
X00121436
Y00566528
X00091436
T05
X00197856Y00869845
Y00895245
X00223256
Y00869845
X00248656
Y00895245
X00274056
X00274056Y00869845
X00324856
X00350256
Y00895245
X00324856
X00375656Y00895245
X00401056
Y00869845
X00426456
X00451856
X00477256
X00502656
X00528056
Y00895245
X00553456
X00553456Y00869845
X00502656Y00895245
X00477256
X00451856Y00895245
X00426456
X00375656Y00869845
X00172456
X00147056
X00121656
X00096256
X00070856
Y00895245
X00045456
X00045456Y00869845
X00096256Y00895245
X00121656
X00147056Y00895245
X00172456
T06
X0128885Y002295
X008253Y0024855
Y0028665
X008634Y003438
X0078085Y0033745
X011682Y003438
X0117455Y003057
X012063Y0028665
X0123805Y003057
X012444Y0033745
X011301Y0071505
X007491
T07
X0079355Y003057
X0085705
T08
X0004191Y00349316
Y00400116
T09
X0135135Y00065
X0010135
X0135135Y00935
X0010135Y00785
T10
X007999Y0062615
X011809
X012444Y0081665
X008634
T11
X00048236Y00498028
Y00545028
M30
