G04*
G04 #@! TF.GenerationSoftware,Altium Limited,Altium Designer,24.5.2 (23)*
G04*
G04 Layer_Color=2752767*
%FSLAX44Y44*%
%MOMM*%
G71*
G04*
G04 #@! TF.SameCoordinates,31888D97-798D-4CBF-A4AE-393945775F34*
G04*
G04*
G04 #@! TF.FilePolarity,Positive*
G04*
G01*
G75*
%ADD10C,0.1270*%
%ADD11C,0.2540*%
%ADD26C,0.3810*%
%ADD59C,0.4064*%
D10*
X1174550Y343800D02*
G03*
X1174550Y343800I-6350J0D01*
G01*
X1250750Y337450D02*
G03*
X1250750Y337450I-6350J0D01*
G01*
X1244400Y305700D02*
G03*
X1244400Y305700I-6350J0D01*
G01*
X1180900D02*
G03*
X1180900Y305700I-6350J0D01*
G01*
X1212650Y286650D02*
G03*
X1212650Y286650I-6350J0D01*
G01*
X1295200Y229500D02*
G03*
X1295200Y229500I-6350J0D01*
G01*
X1136450Y715050D02*
G03*
X1136450Y715050I-6350J0D01*
G01*
X1267410Y856550D02*
G03*
X1267410Y856550I-3810J0D01*
G01*
X1269950D02*
G03*
X1269950Y856550I-6350J0D01*
G01*
X1292810D02*
G03*
X1292810Y856550I-3810J0D01*
G01*
X1295350D02*
G03*
X1295350Y856550I-6350J0D01*
G01*
X755450Y715050D02*
G03*
X755450Y715050I-6350J0D01*
G01*
X886410Y856550D02*
G03*
X886410Y856550I-3810J0D01*
G01*
X888950D02*
G03*
X888950Y856550I-6350J0D01*
G01*
X911810D02*
G03*
X911810Y856550I-3810J0D01*
G01*
X914350D02*
G03*
X914350Y856550I-6350J0D01*
G01*
X787200Y337450D02*
G03*
X787200Y337450I-6350J0D01*
G01*
X869750Y343800D02*
G03*
X869750Y343800I-6350J0D01*
G01*
X831650Y286650D02*
G03*
X831650Y286650I-6350J0D01*
G01*
Y248550D02*
G03*
X831650Y248550I-6350J0D01*
G01*
X214148Y927608D02*
Y930783D01*
X217323Y933958D01*
X214148Y937133D02*
X217323Y933958D01*
X214148Y937133D02*
Y940308D01*
X217323D01*
X220498Y937133D01*
X223673Y940308D01*
X226848D01*
Y937133D02*
Y940308D01*
X223673Y933958D02*
X226848Y937133D01*
X223673Y933958D02*
X226848Y930783D01*
Y927608D02*
Y930783D01*
X223673Y927608D02*
X226848D01*
X220498Y930783D02*
X223673Y927608D01*
X217323D02*
X220498Y930783D01*
X214148Y927608D02*
X217323D01*
X660680Y715744D02*
Y718919D01*
X663855Y722094D01*
X660680Y725269D02*
X663855Y722094D01*
X660680Y725269D02*
Y728444D01*
X663855D01*
X667030Y725269D01*
X670205Y728444D01*
X673380D01*
Y725269D02*
Y728444D01*
X670205Y722094D02*
X673380Y725269D01*
X670205Y722094D02*
X673380Y718919D01*
Y715744D02*
Y718919D01*
X670205Y715744D02*
X673380D01*
X667030Y718919D02*
X670205Y715744D01*
X663855D02*
X667030Y718919D01*
X660680Y715744D02*
X663855D01*
X686080Y730365D02*
Y733540D01*
X689255Y736715D01*
X686080Y739890D02*
X689255Y736715D01*
X686080Y739890D02*
Y743065D01*
X689255D01*
X692430Y739890D01*
X695605Y743065D01*
X698780D01*
Y739890D02*
Y743065D01*
X695605Y736715D02*
X698780Y739890D01*
X695605Y736715D02*
X698780Y733540D01*
Y730365D02*
Y733540D01*
X695605Y730365D02*
X698780D01*
X692430Y733540D02*
X695605Y730365D01*
X689255D02*
X692430Y733540D01*
X686080Y730365D02*
X689255D01*
X877516Y799249D02*
Y802424D01*
X880691Y805599D01*
X877516Y808774D02*
X880691Y805599D01*
X877516Y808774D02*
Y811949D01*
X880691D01*
X883866Y808774D01*
X887041Y811949D01*
X890216D01*
Y808774D02*
Y811949D01*
X887041Y805599D02*
X890216Y808774D01*
X887041Y805599D02*
X890216Y802424D01*
Y799249D02*
Y802424D01*
X887041Y799249D02*
X890216D01*
X883866Y802424D02*
X887041Y799249D01*
X880691D02*
X883866Y802424D01*
X877516Y799249D02*
X880691D01*
X877516Y786709D02*
Y789884D01*
X880691Y793059D01*
X877516Y796234D02*
X880691Y793059D01*
X877516Y796234D02*
Y799409D01*
X880691D01*
X883866Y796234D01*
X887041Y799409D01*
X890216D01*
Y796234D02*
Y799409D01*
X887041Y793059D02*
X890216Y796234D01*
X887041Y793059D02*
X890216Y789884D01*
Y786709D02*
Y789884D01*
X887041Y786709D02*
X890216D01*
X883866Y789884D02*
X887041Y786709D01*
X880691D02*
X883866Y789884D01*
X877516Y786709D02*
X880691D01*
X686080Y661670D02*
Y664845D01*
X689255Y668020D01*
X686080Y671195D02*
X689255Y668020D01*
X686080Y671195D02*
Y674370D01*
X689255D01*
X692430Y671195D01*
X695605Y674370D01*
X698780D01*
Y671195D02*
Y674370D01*
X695605Y668020D02*
X698780Y671195D01*
X695605Y668020D02*
X698780Y664845D01*
Y661670D02*
Y664845D01*
X695605Y661670D02*
X698780D01*
X692430Y664845D02*
X695605Y661670D01*
X689255D02*
X692430Y664845D01*
X686080Y661670D02*
X689255D01*
X660680Y758190D02*
Y761365D01*
X663855Y764540D01*
X660680Y767715D02*
X663855Y764540D01*
X660680Y767715D02*
Y770890D01*
X663855D01*
X667030Y767715D01*
X670205Y770890D01*
X673380D01*
Y767715D02*
Y770890D01*
X670205Y764540D02*
X673380Y767715D01*
X670205Y764540D02*
X673380Y761365D01*
Y758190D02*
Y761365D01*
X670205Y758190D02*
X673380D01*
X667030Y761365D02*
X670205Y758190D01*
X663855D02*
X667030Y761365D01*
X660680Y758190D02*
X663855D01*
X711480D02*
Y761365D01*
X714655Y764540D01*
X711480Y767715D02*
X714655Y764540D01*
X711480Y767715D02*
Y770890D01*
X714655D01*
X717830Y767715D01*
X721005Y770890D01*
X724180D01*
Y767715D02*
Y770890D01*
X721005Y764540D02*
X724180Y767715D01*
X721005Y764540D02*
X724180Y761365D01*
Y758190D02*
Y761365D01*
X721005Y758190D02*
X724180D01*
X717830Y761365D02*
X721005Y758190D01*
X714655D02*
X717830Y761365D01*
X711480Y758190D02*
X714655D01*
X692331Y771572D02*
Y774747D01*
X695506Y777922D01*
X692331Y781097D02*
X695506Y777922D01*
X692331Y781097D02*
Y784272D01*
X695506D01*
X698681Y781097D01*
X701856Y784272D01*
X705031D01*
Y781097D02*
Y784272D01*
X701856Y777922D02*
X705031Y781097D01*
X701856Y777922D02*
X705031Y774747D01*
Y771572D02*
Y774747D01*
X701856Y771572D02*
X705031D01*
X698681Y774747D02*
X701856Y771572D01*
X695506D02*
X698681Y774747D01*
X692331Y771572D02*
X695506D01*
X679791D02*
Y774747D01*
X682966Y777922D01*
X679791Y781097D02*
X682966Y777922D01*
X679791Y781097D02*
Y784272D01*
X682966D01*
X686141Y781097D01*
X689316Y784272D01*
X692491D01*
Y781097D02*
Y784272D01*
X689316Y777922D02*
X692491Y781097D01*
X689316Y777922D02*
X692491Y774747D01*
Y771572D02*
Y774747D01*
X689316Y771572D02*
X692491D01*
X686141Y774747D02*
X689316Y771572D01*
X682966D02*
X686141Y774747D01*
X679791Y771572D02*
X682966D01*
X810100Y597085D02*
Y600261D01*
X813275Y603436D01*
X810100Y606610D02*
X813275Y603436D01*
X810100Y606610D02*
Y609785D01*
X813275D01*
X816450Y606610D01*
X819625Y609785D01*
X822800D01*
Y606610D02*
Y609785D01*
X819625Y603436D02*
X822800Y606610D01*
X819625Y603436D02*
X822800Y600261D01*
Y597085D02*
Y600261D01*
X819625Y597085D02*
X822800D01*
X816450Y600261D02*
X819625Y597085D01*
X813275D02*
X816450Y600261D01*
X810100Y597085D02*
X813275D01*
X686080Y612018D02*
Y615193D01*
X689255Y618368D01*
X686080Y621543D02*
X689255Y618368D01*
X686080Y621543D02*
Y624718D01*
X689255D01*
X692430Y621543D01*
X695605Y624718D01*
X698780D01*
Y621543D02*
Y624718D01*
X695605Y618368D02*
X698780Y621543D01*
X695605Y618368D02*
X698780Y615193D01*
Y612018D02*
Y615193D01*
X695605Y612018D02*
X698780D01*
X692430Y615193D02*
X695605Y612018D01*
X689255D02*
X692430Y615193D01*
X686080Y612018D02*
X689255D01*
X830507Y597085D02*
Y600261D01*
X833682Y603436D01*
X830507Y606610D02*
X833682Y603436D01*
X830507Y606610D02*
Y609785D01*
X833682D01*
X836857Y606610D01*
X840032Y609785D01*
X843207D01*
Y606610D02*
Y609785D01*
X840032Y603436D02*
X843207Y606610D01*
X840032Y603436D02*
X843207Y600261D01*
Y597085D02*
Y600261D01*
X840032Y597085D02*
X843207D01*
X836857Y600261D02*
X840032Y597085D01*
X833682D02*
X836857Y600261D01*
X830507Y597085D02*
X833682D01*
X844572D02*
Y600261D01*
X847747Y603436D01*
X844572Y606610D02*
X847747Y603436D01*
X844572Y606610D02*
Y609785D01*
X847747D01*
X850922Y606610D01*
X854097Y609785D01*
X857272D01*
Y606610D02*
Y609785D01*
X854097Y603436D02*
X857272Y606610D01*
X854097Y603436D02*
X857272Y600261D01*
Y597085D02*
Y600261D01*
X854097Y597085D02*
X857272D01*
X850922Y600261D02*
X854097Y597085D01*
X847747D02*
X850922Y600261D01*
X844572Y597085D02*
X847747D01*
X597180Y727825D02*
Y731000D01*
X600355Y734175D01*
X597180Y737350D02*
X600355Y734175D01*
X597180Y737350D02*
Y740525D01*
X600355D01*
X603530Y737350D01*
X606705Y740525D01*
X609880D01*
Y737350D02*
Y740525D01*
X606705Y734175D02*
X609880Y737350D01*
X606705Y734175D02*
X609880Y731000D01*
Y727825D02*
Y731000D01*
X606705Y727825D02*
X609880D01*
X603530Y731000D02*
X606705Y727825D01*
X600355D02*
X603530Y731000D01*
X597180Y727825D02*
X600355D01*
X978180D02*
Y731000D01*
X981355Y734175D01*
X978180Y737350D02*
X981355Y734175D01*
X978180Y737350D02*
Y740525D01*
X981355D01*
X984530Y737350D01*
X987705Y740525D01*
X990880D01*
Y737350D02*
Y740525D01*
X987705Y734175D02*
X990880Y737350D01*
X987705Y734175D02*
X990880Y731000D01*
Y727825D02*
Y731000D01*
X987705Y727825D02*
X990880D01*
X984530Y731000D02*
X987705Y727825D01*
X981355D02*
X984530Y731000D01*
X978180Y727825D02*
X981355D01*
X1267380Y721066D02*
Y724241D01*
X1270555Y727416D01*
X1267380Y730591D02*
X1270555Y727416D01*
X1267380Y730591D02*
Y733766D01*
X1270555D01*
X1273730Y730591D01*
X1276905Y733766D01*
X1280080D01*
Y730591D02*
Y733766D01*
X1276905Y727416D02*
X1280080Y730591D01*
X1276905Y727416D02*
X1280080Y724241D01*
Y721066D02*
Y724241D01*
X1276905Y721066D02*
X1280080D01*
X1273730Y724241D02*
X1276905Y721066D01*
X1270555D02*
X1273730Y724241D01*
X1267380Y721066D02*
X1270555D01*
X1225572Y597085D02*
Y600261D01*
X1228747Y603436D01*
X1225572Y606610D02*
X1228747Y603436D01*
X1225572Y606610D02*
Y609785D01*
X1228747D01*
X1231922Y606610D01*
X1235097Y609785D01*
X1238272D01*
Y606610D02*
Y609785D01*
X1235097Y603436D02*
X1238272Y606610D01*
X1235097Y603436D02*
X1238272Y600261D01*
Y597085D02*
Y600261D01*
X1235097Y597085D02*
X1238272D01*
X1231922Y600261D02*
X1235097Y597085D01*
X1228747D02*
X1231922Y600261D01*
X1225572Y597085D02*
X1228747D01*
X1211507D02*
Y600261D01*
X1214682Y603436D01*
X1211507Y606610D02*
X1214682Y603436D01*
X1211507Y606610D02*
Y609785D01*
X1214682D01*
X1217857Y606610D01*
X1221032Y609785D01*
X1224207D01*
Y606610D02*
Y609785D01*
X1221032Y603436D02*
X1224207Y606610D01*
X1221032Y603436D02*
X1224207Y600261D01*
Y597085D02*
Y600261D01*
X1221032Y597085D02*
X1224207D01*
X1217857Y600261D02*
X1221032Y597085D01*
X1214682D02*
X1217857Y600261D01*
X1211507Y597085D02*
X1214682D01*
X1067080Y612018D02*
Y615193D01*
X1070255Y618368D01*
X1067080Y621543D02*
X1070255Y618368D01*
X1067080Y621543D02*
Y624718D01*
X1070255D01*
X1073430Y621543D01*
X1076605Y624718D01*
X1079780D01*
Y621543D02*
Y624718D01*
X1076605Y618368D02*
X1079780Y621543D01*
X1076605Y618368D02*
X1079780Y615193D01*
Y612018D02*
Y615193D01*
X1076605Y612018D02*
X1079780D01*
X1073430Y615193D02*
X1076605Y612018D01*
X1070255D02*
X1073430Y615193D01*
X1067080Y612018D02*
X1070255D01*
X1191100Y597085D02*
Y600261D01*
X1194275Y603436D01*
X1191100Y606610D02*
X1194275Y603436D01*
X1191100Y606610D02*
Y609785D01*
X1194275D01*
X1197450Y606610D01*
X1200625Y609785D01*
X1203800D01*
Y606610D02*
Y609785D01*
X1200625Y603436D02*
X1203800Y606610D01*
X1200625Y603436D02*
X1203800Y600261D01*
Y597085D02*
Y600261D01*
X1200625Y597085D02*
X1203800D01*
X1197450Y600261D02*
X1200625Y597085D01*
X1194275D02*
X1197450Y600261D01*
X1191100Y597085D02*
X1194275D01*
X1092480Y758190D02*
Y761365D01*
X1095655Y764540D01*
X1092480Y767715D02*
X1095655Y764540D01*
X1092480Y767715D02*
Y770890D01*
X1095655D01*
X1098830Y767715D01*
X1102005Y770890D01*
X1105180D01*
Y767715D02*
Y770890D01*
X1102005Y764540D02*
X1105180Y767715D01*
X1102005Y764540D02*
X1105180Y761365D01*
Y758190D02*
Y761365D01*
X1102005Y758190D02*
X1105180D01*
X1098830Y761365D02*
X1102005Y758190D01*
X1095655D02*
X1098830Y761365D01*
X1092480Y758190D02*
X1095655D01*
X1041680D02*
Y761365D01*
X1044855Y764540D01*
X1041680Y767715D02*
X1044855Y764540D01*
X1041680Y767715D02*
Y770890D01*
X1044855D01*
X1048030Y767715D01*
X1051205Y770890D01*
X1054380D01*
Y767715D02*
Y770890D01*
X1051205Y764540D02*
X1054380Y767715D01*
X1051205Y764540D02*
X1054380Y761365D01*
Y758190D02*
Y761365D01*
X1051205Y758190D02*
X1054380D01*
X1048030Y761365D02*
X1051205Y758190D01*
X1044855D02*
X1048030Y761365D01*
X1041680Y758190D02*
X1044855D01*
X1067080Y661670D02*
Y664845D01*
X1070255Y668020D01*
X1067080Y671195D02*
X1070255Y668020D01*
X1067080Y671195D02*
Y674370D01*
X1070255D01*
X1073430Y671195D01*
X1076605Y674370D01*
X1079780D01*
Y671195D02*
Y674370D01*
X1076605Y668020D02*
X1079780Y671195D01*
X1076605Y668020D02*
X1079780Y664845D01*
Y661670D02*
Y664845D01*
X1076605Y661670D02*
X1079780D01*
X1073430Y664845D02*
X1076605Y661670D01*
X1070255D02*
X1073430Y664845D01*
X1067080Y661670D02*
X1070255D01*
X1067080Y730365D02*
Y733540D01*
X1070255Y736715D01*
X1067080Y739890D02*
X1070255Y736715D01*
X1067080Y739890D02*
Y743065D01*
X1070255D01*
X1073430Y739890D01*
X1076605Y743065D01*
X1079780D01*
Y739890D02*
Y743065D01*
X1076605Y736715D02*
X1079780Y739890D01*
X1076605Y736715D02*
X1079780Y733540D01*
Y730365D02*
Y733540D01*
X1076605Y730365D02*
X1079780D01*
X1073430Y733540D02*
X1076605Y730365D01*
X1070255D02*
X1073430Y733540D01*
X1067080Y730365D02*
X1070255D01*
X1041680Y715744D02*
Y718919D01*
X1044855Y722094D01*
X1041680Y725269D02*
X1044855Y722094D01*
X1041680Y725269D02*
Y728444D01*
X1044855D01*
X1048030Y725269D01*
X1051205Y728444D01*
X1054380D01*
Y725269D02*
Y728444D01*
X1051205Y722094D02*
X1054380Y725269D01*
X1051205Y722094D02*
X1054380Y718919D01*
Y715744D02*
Y718919D01*
X1051205Y715744D02*
X1054380D01*
X1048030Y718919D02*
X1051205Y715744D01*
X1044855D02*
X1048030Y718919D01*
X1041680Y715744D02*
X1044855D01*
X1003580Y727825D02*
Y731000D01*
X1006755Y734175D01*
X1003580Y737350D02*
X1006755Y734175D01*
X1003580Y737350D02*
Y740525D01*
X1006755D01*
X1009930Y737350D01*
X1013105Y740525D01*
X1016280D01*
Y737350D02*
Y740525D01*
X1013105Y734175D02*
X1016280Y737350D01*
X1013105Y734175D02*
X1016280Y731000D01*
Y727825D02*
Y731000D01*
X1013105Y727825D02*
X1016280D01*
X1009930Y731000D02*
X1013105Y727825D01*
X1006755D02*
X1009930Y731000D01*
X1003580Y727825D02*
X1006755D01*
X1092480Y790622D02*
Y793797D01*
X1095655Y796972D01*
X1092480Y800147D02*
X1095655Y796972D01*
X1092480Y800147D02*
Y803322D01*
X1095655D01*
X1098830Y800147D01*
X1102005Y803322D01*
X1105180D01*
Y800147D02*
Y803322D01*
X1102005Y796972D02*
X1105180Y800147D01*
X1102005Y796972D02*
X1105180Y793797D01*
Y790622D02*
Y793797D01*
X1102005Y790622D02*
X1105180D01*
X1098830Y793797D02*
X1102005Y790622D01*
X1095655D02*
X1098830Y793797D01*
X1092480Y790622D02*
X1095655D01*
X1092480Y778082D02*
Y781257D01*
X1095655Y784432D01*
X1092480Y787607D02*
X1095655Y784432D01*
X1092480Y787607D02*
Y790782D01*
X1095655D01*
X1098830Y787607D01*
X1102005Y790782D01*
X1105180D01*
Y787607D02*
Y790782D01*
X1102005Y784432D02*
X1105180Y787607D01*
X1102005Y784432D02*
X1105180Y781257D01*
Y778082D02*
Y781257D01*
X1102005Y778082D02*
X1105180D01*
X1098830Y781257D02*
X1102005Y778082D01*
X1095655D02*
X1098830Y781257D01*
X1092480Y778082D02*
X1095655D01*
X597180Y500465D02*
Y503640D01*
X600355Y506815D01*
X597180Y509990D02*
X600355Y506815D01*
X597180Y509990D02*
Y513165D01*
X600355D01*
X603530Y509990D01*
X606705Y513165D01*
X609880D01*
Y509990D02*
Y513165D01*
X606705Y506815D02*
X609880Y509990D01*
X606705Y506815D02*
X609880Y503640D01*
Y500465D02*
Y503640D01*
X606705Y500465D02*
X609880D01*
X603530Y503640D02*
X606705Y500465D01*
X600355D02*
X603530Y503640D01*
X597180Y500465D02*
X600355D01*
X977816Y560828D02*
Y564003D01*
X980991Y567178D01*
X977816Y570353D02*
X980991Y567178D01*
X977816Y570353D02*
Y573528D01*
X980991D01*
X984166Y570353D01*
X987341Y573528D01*
X990516D01*
Y570353D02*
Y573528D01*
X987341Y567178D02*
X990516Y570353D01*
X987341Y567178D02*
X990516Y564003D01*
Y560828D02*
Y564003D01*
X987341Y560828D02*
X990516D01*
X984166Y564003D02*
X987341Y560828D01*
X980991D02*
X984166Y564003D01*
X977816Y560828D02*
X980991D01*
X1009912Y771398D02*
Y774573D01*
X1013087Y777748D01*
X1009912Y780923D02*
X1013087Y777748D01*
X1009912Y780923D02*
Y784098D01*
X1013087D01*
X1016262Y780923D01*
X1019437Y784098D01*
X1022612D01*
Y780923D02*
Y784098D01*
X1019437Y777748D02*
X1022612Y780923D01*
X1019437Y777748D02*
X1022612Y774573D01*
Y771398D02*
Y774573D01*
X1019437Y771398D02*
X1022612D01*
X1016262Y774573D02*
X1019437Y771398D01*
X1013087D02*
X1016262Y774573D01*
X1009912Y771398D02*
X1013087D01*
X997372D02*
Y774573D01*
X1000547Y777748D01*
X997372Y780923D02*
X1000547Y777748D01*
X997372Y780923D02*
Y784098D01*
X1000547D01*
X1003722Y780923D01*
X1006897Y784098D01*
X1010072D01*
Y780923D02*
Y784098D01*
X1006897Y777748D02*
X1010072Y780923D01*
X1006897Y777748D02*
X1010072Y774573D01*
Y771398D02*
Y774573D01*
X1006897Y771398D02*
X1010072D01*
X1003722Y774573D02*
X1006897Y771398D01*
X1000547D02*
X1003722Y774573D01*
X997372Y771398D02*
X1000547D01*
X571166Y584200D02*
Y587375D01*
X574341Y590550D01*
X571166Y593725D02*
X574341Y590550D01*
X571166Y593725D02*
Y596900D01*
X574341D01*
X577516Y593725D01*
X580691Y596900D01*
X583866D01*
Y593725D02*
Y596900D01*
X580691Y590550D02*
X583866Y593725D01*
X580691Y590550D02*
X583866Y587375D01*
Y584200D02*
Y587375D01*
X580691Y584200D02*
X583866D01*
X577516Y587375D02*
X580691Y584200D01*
X574341D02*
X577516Y587375D01*
X571166Y584200D02*
X574341D01*
X558626D02*
Y587375D01*
X561801Y590550D01*
X558626Y593725D02*
X561801Y590550D01*
X558626Y593725D02*
Y596900D01*
X561801D01*
X564976Y593725D01*
X568151Y596900D01*
X571326D01*
Y593725D02*
Y596900D01*
X568151Y590550D02*
X571326Y593725D01*
X568151Y590550D02*
X571326Y587375D01*
Y584200D02*
Y587375D01*
X568151Y584200D02*
X571326D01*
X564976Y587375D02*
X568151Y584200D01*
X561801D02*
X564976Y587375D01*
X558626Y584200D02*
X561801D01*
X532290Y648970D02*
Y652145D01*
X535465Y655320D01*
X532290Y658495D02*
X535465Y655320D01*
X532290Y658495D02*
Y661670D01*
X535465D01*
X538640Y658495D01*
X541815Y661670D01*
X544990D01*
Y658495D02*
Y661670D01*
X541815Y655320D02*
X544990Y658495D01*
X541815Y655320D02*
X544990Y652145D01*
Y648970D02*
Y652145D01*
X541815Y648970D02*
X544990D01*
X538640Y652145D02*
X541815Y648970D01*
X535465D02*
X538640Y652145D01*
X532290Y648970D02*
X535465D01*
X544830D02*
Y652145D01*
X548005Y655320D01*
X544830Y658495D02*
X548005Y655320D01*
X544830Y658495D02*
Y661670D01*
X548005D01*
X551180Y658495D01*
X554355Y661670D01*
X557530D01*
Y658495D02*
Y661670D01*
X554355Y655320D02*
X557530Y658495D01*
X554355Y655320D02*
X557530Y652145D01*
Y648970D02*
Y652145D01*
X554355Y648970D02*
X557530D01*
X551180Y652145D02*
X554355Y648970D01*
X548005D02*
X551180Y652145D01*
X544830Y648970D02*
X548005D01*
X515276Y745490D02*
Y748665D01*
X518451Y751840D01*
X515276Y755015D02*
X518451Y751840D01*
X515276Y755015D02*
Y758190D01*
X518451D01*
X521626Y755015D01*
X524801Y758190D01*
X527976D01*
Y755015D02*
Y758190D01*
X524801Y751840D02*
X527976Y755015D01*
X524801Y751840D02*
X527976Y748665D01*
Y745490D02*
Y748665D01*
X524801Y745490D02*
X527976D01*
X521626Y748665D02*
X524801Y745490D01*
X518451D02*
X521626Y748665D01*
X515276Y745490D02*
X518451D01*
X502736D02*
Y748665D01*
X505911Y751840D01*
X502736Y755015D02*
X505911Y751840D01*
X502736Y755015D02*
Y758190D01*
X505911D01*
X509086Y755015D01*
X512261Y758190D01*
X515436D01*
Y755015D02*
Y758190D01*
X512261Y751840D02*
X515436Y755015D01*
X512261Y751840D02*
X515436Y748665D01*
Y745490D02*
Y748665D01*
X512261Y745490D02*
X515436D01*
X509086Y748665D02*
X512261Y745490D01*
X505911D02*
X509086Y748665D01*
X502736Y745490D02*
X505911D01*
X210820Y715946D02*
Y719121D01*
X213995Y722296D01*
X210820Y725471D02*
X213995Y722296D01*
X210820Y725471D02*
Y728646D01*
X213995D01*
X217170Y725471D01*
X220345Y728646D01*
X223520D01*
Y725471D02*
Y728646D01*
X220345Y722296D02*
X223520Y725471D01*
X220345Y722296D02*
X223520Y719121D01*
Y715946D02*
Y719121D01*
X220345Y715946D02*
X223520D01*
X217170Y719121D02*
X220345Y715946D01*
X213995D02*
X217170Y719121D01*
X210820Y715946D02*
X213995D01*
X210820Y703406D02*
Y706581D01*
X213995Y709756D01*
X210820Y712931D02*
X213995Y709756D01*
X210820Y712931D02*
Y716106D01*
X213995D01*
X217170Y712931D01*
X220345Y716106D01*
X223520D01*
Y712931D02*
Y716106D01*
X220345Y709756D02*
X223520Y712931D01*
X220345Y709756D02*
X223520Y706581D01*
Y703406D02*
Y706581D01*
X220345Y703406D02*
X223520D01*
X217170Y706581D02*
X220345Y703406D01*
X213995D02*
X217170Y706581D01*
X210820Y703406D02*
X213995D01*
X233706Y938530D02*
Y941705D01*
X236881Y944880D01*
X233706Y948055D02*
X236881Y944880D01*
X233706Y948055D02*
Y951230D01*
X236881D01*
X240056Y948055D01*
X243231Y951230D01*
X246406D01*
Y948055D02*
Y951230D01*
X243231Y944880D02*
X246406Y948055D01*
X243231Y944880D02*
X246406Y941705D01*
Y938530D02*
Y941705D01*
X243231Y938530D02*
X246406D01*
X240056Y941705D02*
X243231Y938530D01*
X236881D02*
X240056Y941705D01*
X233706Y938530D02*
X236881D01*
X1222051Y220704D02*
Y223879D01*
X1225226Y227054D01*
X1222051Y230229D02*
X1225226Y227054D01*
X1222051Y230229D02*
Y233404D01*
X1225226D01*
X1228401Y230229D01*
X1231576Y233404D01*
X1234751D01*
Y230229D02*
Y233404D01*
X1231576Y227054D02*
X1234751Y230229D01*
X1231576Y227054D02*
X1234751Y223879D01*
Y220704D02*
Y223879D01*
X1231576Y220704D02*
X1234751D01*
X1228401Y223879D02*
X1231576Y220704D01*
X1225226D02*
X1228401Y223879D01*
X1222051Y220704D02*
X1225226D01*
X622580Y727825D02*
Y731000D01*
X625755Y734175D01*
X622580Y737350D02*
X625755Y734175D01*
X622580Y737350D02*
Y740525D01*
X625755D01*
X628930Y737350D01*
X632105Y740525D01*
X635280D01*
Y737350D02*
Y740525D01*
X632105Y734175D02*
X635280Y737350D01*
X632105Y734175D02*
X635280Y731000D01*
Y727825D02*
Y731000D01*
X632105Y727825D02*
X635280D01*
X628930Y731000D02*
X632105Y727825D01*
X625755D02*
X628930Y731000D01*
X622580Y727825D02*
X625755D01*
X487306Y834390D02*
Y837565D01*
X490481Y840740D01*
X487306Y843915D02*
X490481Y840740D01*
X487306Y843915D02*
Y847090D01*
X490481D01*
X493656Y843915D01*
X496831Y847090D01*
X500006D01*
Y843915D02*
Y847090D01*
X496831Y840740D02*
X500006Y843915D01*
X496831Y840740D02*
X500006Y837565D01*
Y834390D02*
Y837565D01*
X496831Y834390D02*
X500006D01*
X493656Y837565D02*
X496831Y834390D01*
X490481D02*
X493656Y837565D01*
X487306Y834390D02*
X490481D01*
X623570Y834254D02*
Y837429D01*
X626745Y840604D01*
X623570Y843779D02*
X626745Y840604D01*
X623570Y843779D02*
Y846954D01*
X626745D01*
X629920Y843779D01*
X633095Y846954D01*
X636270D01*
Y843779D02*
Y846954D01*
X633095Y840604D02*
X636270Y843779D01*
X633095Y840604D02*
X636270Y837429D01*
Y834254D02*
Y837429D01*
X633095Y834254D02*
X636270D01*
X629920Y837429D02*
X633095Y834254D01*
X626745D02*
X629920Y837429D01*
X623570Y834254D02*
X626745D01*
X712470Y118919D02*
Y122094D01*
X715645Y125269D01*
X712470Y128444D02*
X715645Y125269D01*
X712470Y128444D02*
Y131619D01*
X715645D01*
X718820Y128444D01*
X721995Y131619D01*
X725170D01*
Y128444D02*
Y131619D01*
X721995Y125269D02*
X725170Y128444D01*
X721995Y125269D02*
X725170Y122094D01*
Y118919D02*
Y122094D01*
X721995Y118919D02*
X725170D01*
X718820Y122094D02*
X721995Y118919D01*
X715645D02*
X718820Y122094D01*
X712470Y118919D02*
X715645D01*
X712470Y106379D02*
Y109554D01*
X715645Y112729D01*
X712470Y115904D02*
X715645Y112729D01*
X712470Y115904D02*
Y119079D01*
X715645D01*
X718820Y115904D01*
X721995Y119079D01*
X725170D01*
Y115904D02*
Y119079D01*
X721995Y112729D02*
X725170Y115904D01*
X721995Y112729D02*
X725170Y109554D01*
Y106379D02*
Y109554D01*
X721995Y106379D02*
X725170D01*
X718820Y109554D02*
X721995Y106379D01*
X715645D02*
X718820Y109554D01*
X712470Y106379D02*
X715645D01*
X777395Y178658D02*
Y181833D01*
X780570Y185008D01*
X777395Y188183D02*
X780570Y185008D01*
X777395Y188183D02*
Y191358D01*
X780570D01*
X783745Y188183D01*
X786920Y191358D01*
X790095D01*
Y188183D02*
Y191358D01*
X786920Y185008D02*
X790095Y188183D01*
X786920Y185008D02*
X790095Y181833D01*
Y178658D02*
Y181833D01*
X786920Y178658D02*
X790095D01*
X783745Y181833D02*
X786920Y178658D01*
X780570D02*
X783745Y181833D01*
X777395Y178658D02*
X780570D01*
X789935D02*
Y181833D01*
X793110Y185008D01*
X789935Y188183D02*
X793110Y185008D01*
X789935Y188183D02*
Y191358D01*
X793110D01*
X796285Y188183D01*
X799460Y191358D01*
X802635D01*
Y188183D02*
Y191358D01*
X799460Y185008D02*
X802635Y188183D01*
X799460Y185008D02*
X802635Y181833D01*
Y178658D02*
Y181833D01*
X799460Y178658D02*
X802635D01*
X796285Y181833D02*
X799460Y178658D01*
X793110D02*
X796285Y181833D01*
X789935Y178658D02*
X793110D01*
X783621Y216524D02*
Y219699D01*
X786796Y222874D01*
X783621Y226049D02*
X786796Y222874D01*
X783621Y226049D02*
Y229224D01*
X786796D01*
X789971Y226049D01*
X793146Y229224D01*
X796321D01*
Y226049D02*
Y229224D01*
X793146Y222874D02*
X796321Y226049D01*
X793146Y222874D02*
X796321Y219699D01*
Y216524D02*
Y219699D01*
X793146Y216524D02*
X796321D01*
X789971Y219699D02*
X793146Y216524D01*
X786796D02*
X789971Y219699D01*
X783621Y216524D02*
X786796D01*
X901650Y938530D02*
Y941705D01*
X904825Y944880D01*
X901650Y948055D02*
X904825Y944880D01*
X901650Y948055D02*
Y951230D01*
X904825D01*
X908000Y948055D01*
X911175Y951230D01*
X914350D01*
Y948055D02*
Y951230D01*
X911175Y944880D02*
X914350Y948055D01*
X911175Y944880D02*
X914350Y941705D01*
Y938530D02*
Y941705D01*
X911175Y938530D02*
X914350D01*
X908000Y941705D02*
X911175Y938530D01*
X904825D02*
X908000Y941705D01*
X901650Y938530D02*
X904825D01*
X1085850Y913130D02*
Y916305D01*
X1089025Y919480D01*
X1085850Y922655D02*
X1089025Y919480D01*
X1085850Y922655D02*
Y925830D01*
X1089025D01*
X1092200Y922655D01*
X1095375Y925830D01*
X1098550D01*
Y922655D02*
Y925830D01*
X1095375Y919480D02*
X1098550Y922655D01*
X1095375Y919480D02*
X1098550Y916305D01*
Y913130D02*
Y916305D01*
X1095375Y913130D02*
X1098550D01*
X1092200Y916305D02*
X1095375Y913130D01*
X1089025D02*
X1092200Y916305D01*
X1085850Y913130D02*
X1089025D01*
X857250D02*
Y916305D01*
X860425Y919480D01*
X857250Y922655D02*
X860425Y919480D01*
X857250Y922655D02*
Y925830D01*
X860425D01*
X863600Y922655D01*
X866775Y925830D01*
X869950D01*
Y922655D02*
Y925830D01*
X866775Y919480D02*
X869950Y922655D01*
X866775Y919480D02*
X869950Y916305D01*
Y913130D02*
Y916305D01*
X866775Y913130D02*
X869950D01*
X863600Y916305D02*
X866775Y913130D01*
X860425D02*
X863600Y916305D01*
X857250Y913130D02*
X860425D01*
X150526Y168426D02*
Y171602D01*
X153701Y174776D01*
X150526Y177952D02*
X153701Y174776D01*
X150526Y177952D02*
Y181126D01*
X153701D01*
X156876Y177952D01*
X160051Y181126D01*
X163226D01*
Y177952D02*
Y181126D01*
X160051Y174776D02*
X163226Y177952D01*
X160051Y174776D02*
X163226Y171602D01*
Y168426D02*
Y171602D01*
X160051Y168426D02*
X163226D01*
X156876Y171602D02*
X160051Y168426D01*
X153701D02*
X156876Y171602D01*
X150526Y168426D02*
X153701D01*
X100526Y268426D02*
Y271602D01*
X103701Y274776D01*
X100526Y277952D02*
X103701Y274776D01*
X100526Y277952D02*
Y281126D01*
X103701D01*
X106876Y277952D01*
X110051Y281126D01*
X113226D01*
Y277952D02*
Y281126D01*
X110051Y274776D02*
X113226Y277952D01*
X110051Y274776D02*
X113226Y271602D01*
Y268426D02*
Y271602D01*
X110051Y268426D02*
X113226D01*
X106876Y271602D02*
X110051Y268426D01*
X103701D02*
X106876Y271602D01*
X100526Y268426D02*
X103701D01*
X150526Y368427D02*
Y371601D01*
X153701Y374776D01*
X150526Y377952D02*
X153701Y374776D01*
X150526Y377952D02*
Y381127D01*
X153701D01*
X156876Y377952D01*
X160051Y381127D01*
X163226D01*
Y377952D02*
Y381127D01*
X160051Y374776D02*
X163226Y377952D01*
X160051Y374776D02*
X163226Y371601D01*
Y368427D02*
Y371601D01*
X160051Y368427D02*
X163226D01*
X156876Y371601D02*
X160051Y368427D01*
X153701D02*
X156876Y371601D01*
X150526Y368427D02*
X153701D01*
X100526Y468427D02*
Y471601D01*
X103701Y474776D01*
X100526Y477952D02*
X103701Y474776D01*
X100526Y477952D02*
Y481127D01*
X103701D01*
X106876Y477952D01*
X110051Y481127D01*
X113226D01*
Y477952D02*
Y481127D01*
X110051Y474776D02*
X113226Y477952D01*
X110051Y474776D02*
X113226Y471601D01*
Y468427D02*
Y471601D01*
X110051Y468427D02*
X113226D01*
X106876Y471601D02*
X110051Y468427D01*
X103701D02*
X106876Y471601D01*
X100526Y468427D02*
X103701D01*
X150526Y568427D02*
Y571601D01*
X153701Y574776D01*
X150526Y577952D02*
X153701Y574776D01*
X150526Y577952D02*
Y581127D01*
X153701D01*
X156876Y577952D01*
X160051Y581127D01*
X163226D01*
Y577952D02*
Y581127D01*
X160051Y574776D02*
X163226Y577952D01*
X160051Y574776D02*
X163226Y571601D01*
Y568427D02*
Y571601D01*
X160051Y568427D02*
X163226D01*
X156876Y571601D02*
X160051Y568427D01*
X153701D02*
X156876Y571601D01*
X150526Y568427D02*
X153701D01*
X200526Y68426D02*
Y71602D01*
X203701Y74777D01*
X200526Y77951D02*
X203701Y74777D01*
X200526Y77951D02*
Y81126D01*
X203701D01*
X206876Y77951D01*
X210051Y81126D01*
X213226D01*
Y77951D02*
Y81126D01*
X210051Y74777D02*
X213226Y77951D01*
X210051Y74777D02*
X213226Y71602D01*
Y68426D02*
Y71602D01*
X210051Y68426D02*
X213226D01*
X206876Y71602D02*
X210051Y68426D01*
X203701D02*
X206876Y71602D01*
X200526Y68426D02*
X203701D01*
X250526Y168426D02*
Y171602D01*
X253701Y174776D01*
X250526Y177952D02*
X253701Y174776D01*
X250526Y177952D02*
Y181126D01*
X253701D01*
X256876Y177952D01*
X260051Y181126D01*
X263226D01*
Y177952D02*
Y181126D01*
X260051Y174776D02*
X263226Y177952D01*
X260051Y174776D02*
X263226Y171602D01*
Y168426D02*
Y171602D01*
X260051Y168426D02*
X263226D01*
X256876Y171602D02*
X260051Y168426D01*
X253701D02*
X256876Y171602D01*
X250526Y168426D02*
X253701D01*
X200526Y268426D02*
Y271602D01*
X203701Y274776D01*
X200526Y277952D02*
X203701Y274776D01*
X200526Y277952D02*
Y281126D01*
X203701D01*
X206876Y277952D01*
X210051Y281126D01*
X213226D01*
Y277952D02*
Y281126D01*
X210051Y274776D02*
X213226Y277952D01*
X210051Y274776D02*
X213226Y271602D01*
Y268426D02*
Y271602D01*
X210051Y268426D02*
X213226D01*
X206876Y271602D02*
X210051Y268426D01*
X203701D02*
X206876Y271602D01*
X200526Y268426D02*
X203701D01*
X250526Y368427D02*
Y371601D01*
X253701Y374776D01*
X250526Y377952D02*
X253701Y374776D01*
X250526Y377952D02*
Y381127D01*
X253701D01*
X256876Y377952D01*
X260051Y381127D01*
X263226D01*
Y377952D02*
Y381127D01*
X260051Y374776D02*
X263226Y377952D01*
X260051Y374776D02*
X263226Y371601D01*
Y368427D02*
Y371601D01*
X260051Y368427D02*
X263226D01*
X256876Y371601D02*
X260051Y368427D01*
X253701D02*
X256876Y371601D01*
X250526Y368427D02*
X253701D01*
X300526Y68426D02*
Y71602D01*
X303701Y74777D01*
X300526Y77951D02*
X303701Y74777D01*
X300526Y77951D02*
Y81126D01*
X303701D01*
X306876Y77951D01*
X310051Y81126D01*
X313226D01*
Y77951D02*
Y81126D01*
X310051Y74777D02*
X313226Y77951D01*
X310051Y74777D02*
X313226Y71602D01*
Y68426D02*
Y71602D01*
X310051Y68426D02*
X313226D01*
X306876Y71602D02*
X310051Y68426D01*
X303701D02*
X306876Y71602D01*
X300526Y68426D02*
X303701D01*
X350526Y168426D02*
Y171602D01*
X353701Y174776D01*
X350526Y177952D02*
X353701Y174776D01*
X350526Y177952D02*
Y181126D01*
X353701D01*
X356876Y177952D01*
X360051Y181126D01*
X363226D01*
Y177952D02*
Y181126D01*
X360051Y174776D02*
X363226Y177952D01*
X360051Y174776D02*
X363226Y171602D01*
Y168426D02*
Y171602D01*
X360051Y168426D02*
X363226D01*
X356876Y171602D02*
X360051Y168426D01*
X353701D02*
X356876Y171602D01*
X350526Y168426D02*
X353701D01*
X300526Y268426D02*
Y271602D01*
X303701Y274776D01*
X300526Y277952D02*
X303701Y274776D01*
X300526Y277952D02*
Y281126D01*
X303701D01*
X306876Y277952D01*
X310051Y281126D01*
X313226D01*
Y277952D02*
Y281126D01*
X310051Y274776D02*
X313226Y277952D01*
X310051Y274776D02*
X313226Y271602D01*
Y268426D02*
Y271602D01*
X310051Y268426D02*
X313226D01*
X306876Y271602D02*
X310051Y268426D01*
X303701D02*
X306876Y271602D01*
X300526Y268426D02*
X303701D01*
X350526Y368427D02*
Y371601D01*
X353701Y374776D01*
X350526Y377952D02*
X353701Y374776D01*
X350526Y377952D02*
Y381127D01*
X353701D01*
X356876Y377952D01*
X360051Y381127D01*
X363226D01*
Y377952D02*
Y381127D01*
X360051Y374776D02*
X363226Y377952D01*
X360051Y374776D02*
X363226Y371601D01*
Y368427D02*
Y371601D01*
X360051Y368427D02*
X363226D01*
X356876Y371601D02*
X360051Y368427D01*
X353701D02*
X356876Y371601D01*
X350526Y368427D02*
X353701D01*
X400526Y68426D02*
Y71602D01*
X403701Y74777D01*
X400526Y77951D02*
X403701Y74777D01*
X400526Y77951D02*
Y81126D01*
X403701D01*
X406876Y77951D01*
X410051Y81126D01*
X413226D01*
Y77951D02*
Y81126D01*
X410051Y74777D02*
X413226Y77951D01*
X410051Y74777D02*
X413226Y71602D01*
Y68426D02*
Y71602D01*
X410051Y68426D02*
X413226D01*
X406876Y71602D02*
X410051Y68426D01*
X403701D02*
X406876Y71602D01*
X400526Y68426D02*
X403701D01*
X400526Y268426D02*
Y271602D01*
X403701Y274776D01*
X400526Y277952D02*
X403701Y274776D01*
X400526Y277952D02*
Y281126D01*
X403701D01*
X406876Y277952D01*
X410051Y281126D01*
X413226D01*
Y277952D02*
Y281126D01*
X410051Y274776D02*
X413226Y277952D01*
X410051Y274776D02*
X413226Y271602D01*
Y268426D02*
Y271602D01*
X410051Y268426D02*
X413226D01*
X406876Y271602D02*
X410051Y268426D01*
X403701D02*
X406876Y271602D01*
X400526Y268426D02*
X403701D01*
X450526Y768427D02*
Y771602D01*
X453701Y774777D01*
X450526Y777952D02*
X453701Y774777D01*
X450526Y777952D02*
Y781127D01*
X453701D01*
X456876Y777952D01*
X460051Y781127D01*
X463226D01*
Y777952D02*
Y781127D01*
X460051Y774777D02*
X463226Y777952D01*
X460051Y774777D02*
X463226Y771602D01*
Y768427D02*
Y771602D01*
X460051Y768427D02*
X463226D01*
X456876Y771602D02*
X460051Y768427D01*
X453701D02*
X456876Y771602D01*
X450526Y768427D02*
X453701D01*
X500526Y68426D02*
Y71602D01*
X503701Y74777D01*
X500526Y77951D02*
X503701Y74777D01*
X500526Y77951D02*
Y81126D01*
X503701D01*
X506876Y77951D01*
X510051Y81126D01*
X513226D01*
Y77951D02*
Y81126D01*
X510051Y74777D02*
X513226Y77951D01*
X510051Y74777D02*
X513226Y71602D01*
Y68426D02*
Y71602D01*
X510051Y68426D02*
X513226D01*
X506876Y71602D02*
X510051Y68426D01*
X503701D02*
X506876Y71602D01*
X500526Y68426D02*
X503701D01*
X550526Y168426D02*
Y171602D01*
X553701Y174776D01*
X550526Y177952D02*
X553701Y174776D01*
X550526Y177952D02*
Y181126D01*
X553701D01*
X556876Y177952D01*
X560051Y181126D01*
X563226D01*
Y177952D02*
Y181126D01*
X560051Y174776D02*
X563226Y177952D01*
X560051Y174776D02*
X563226Y171602D01*
Y168426D02*
Y171602D01*
X560051Y168426D02*
X563226D01*
X556876Y171602D02*
X560051Y168426D01*
X553701D02*
X556876Y171602D01*
X550526Y168426D02*
X553701D01*
X500526Y268426D02*
Y271602D01*
X503701Y274776D01*
X500526Y277952D02*
X503701Y274776D01*
X500526Y277952D02*
Y281126D01*
X503701D01*
X506876Y277952D01*
X510051Y281126D01*
X513226D01*
Y277952D02*
Y281126D01*
X510051Y274776D02*
X513226Y277952D01*
X510051Y274776D02*
X513226Y271602D01*
Y268426D02*
Y271602D01*
X510051Y268426D02*
X513226D01*
X506876Y271602D02*
X510051Y268426D01*
X503701D02*
X506876Y271602D01*
X500526Y268426D02*
X503701D01*
X550526Y368427D02*
Y371601D01*
X553701Y374776D01*
X550526Y377952D02*
X553701Y374776D01*
X550526Y377952D02*
Y381127D01*
X553701D01*
X556876Y377952D01*
X560051Y381127D01*
X563226D01*
Y377952D02*
Y381127D01*
X560051Y374776D02*
X563226Y377952D01*
X560051Y374776D02*
X563226Y371601D01*
Y368427D02*
Y371601D01*
X560051Y368427D02*
X563226D01*
X556876Y371601D02*
X560051Y368427D01*
X553701D02*
X556876Y371601D01*
X550526Y368427D02*
X553701D01*
X500526Y468427D02*
Y471601D01*
X503701Y474776D01*
X500526Y477952D02*
X503701Y474776D01*
X500526Y477952D02*
Y481127D01*
X503701D01*
X506876Y477952D01*
X510051Y481127D01*
X513226D01*
Y477952D02*
Y481127D01*
X510051Y474776D02*
X513226Y477952D01*
X510051Y474776D02*
X513226Y471601D01*
Y468427D02*
Y471601D01*
X510051Y468427D02*
X513226D01*
X506876Y471601D02*
X510051Y468427D01*
X503701D02*
X506876Y471601D01*
X500526Y468427D02*
X503701D01*
X550526Y568427D02*
Y571601D01*
X553701Y574776D01*
X550526Y577952D02*
X553701Y574776D01*
X550526Y577952D02*
Y581127D01*
X553701D01*
X556876Y577952D01*
X560051Y581127D01*
X563226D01*
Y577952D02*
Y581127D01*
X560051Y574776D02*
X563226Y577952D01*
X560051Y574776D02*
X563226Y571601D01*
Y568427D02*
Y571601D01*
X560051Y568427D02*
X563226D01*
X556876Y571601D02*
X560051Y568427D01*
X553701D02*
X556876Y571601D01*
X550526Y568427D02*
X553701D01*
X500526Y651510D02*
Y654685D01*
X503701Y657860D01*
X500526Y661035D02*
X503701Y657860D01*
X500526Y661035D02*
Y664210D01*
X503701D01*
X506876Y661035D01*
X510051Y664210D01*
X513226D01*
Y661035D02*
Y664210D01*
X510051Y657860D02*
X513226Y661035D01*
X510051Y657860D02*
X513226Y654685D01*
Y651510D02*
Y654685D01*
X510051Y651510D02*
X513226D01*
X506876Y654685D02*
X510051Y651510D01*
X503701D02*
X506876Y654685D01*
X500526Y651510D02*
X503701D01*
X600526Y68426D02*
Y71602D01*
X603701Y74777D01*
X600526Y77951D02*
X603701Y74777D01*
X600526Y77951D02*
Y81126D01*
X603701D01*
X606876Y77951D01*
X610051Y81126D01*
X613226D01*
Y77951D02*
Y81126D01*
X610051Y74777D02*
X613226Y77951D01*
X610051Y74777D02*
X613226Y71602D01*
Y68426D02*
Y71602D01*
X610051Y68426D02*
X613226D01*
X606876Y71602D02*
X610051Y68426D01*
X603701D02*
X606876Y71602D01*
X600526Y68426D02*
X603701D01*
X650526Y168426D02*
Y171602D01*
X653701Y174776D01*
X650526Y177952D02*
X653701Y174776D01*
X650526Y177952D02*
Y181126D01*
X653701D01*
X656876Y177952D01*
X660051Y181126D01*
X663226D01*
Y177952D02*
Y181126D01*
X660051Y174776D02*
X663226Y177952D01*
X660051Y174776D02*
X663226Y171602D01*
Y168426D02*
Y171602D01*
X660051Y168426D02*
X663226D01*
X656876Y171602D02*
X660051Y168426D01*
X653701D02*
X656876Y171602D01*
X650526Y168426D02*
X653701D01*
X600526Y268426D02*
Y271602D01*
X603701Y274776D01*
X600526Y277952D02*
X603701Y274776D01*
X600526Y277952D02*
Y281126D01*
X603701D01*
X606876Y277952D01*
X610051Y281126D01*
X613226D01*
Y277952D02*
Y281126D01*
X610051Y274776D02*
X613226Y277952D01*
X610051Y274776D02*
X613226Y271602D01*
Y268426D02*
Y271602D01*
X610051Y268426D02*
X613226D01*
X606876Y271602D02*
X610051Y268426D01*
X603701D02*
X606876Y271602D01*
X600526Y268426D02*
X603701D01*
X650526Y368427D02*
Y371601D01*
X653701Y374776D01*
X650526Y377952D02*
X653701Y374776D01*
X650526Y377952D02*
Y381127D01*
X653701D01*
X656876Y377952D01*
X660051Y381127D01*
X663226D01*
Y377952D02*
Y381127D01*
X660051Y374776D02*
X663226Y377952D01*
X660051Y374776D02*
X663226Y371601D01*
Y368427D02*
Y371601D01*
X660051Y368427D02*
X663226D01*
X656876Y371601D02*
X660051Y368427D01*
X653701D02*
X656876Y371601D01*
X650526Y368427D02*
X653701D01*
X600526Y468427D02*
Y471601D01*
X603701Y474776D01*
X600526Y477952D02*
X603701Y474776D01*
X600526Y477952D02*
Y481127D01*
X603701D01*
X606876Y477952D01*
X610051Y481127D01*
X613226D01*
Y477952D02*
Y481127D01*
X610051Y474776D02*
X613226Y477952D01*
X610051Y474776D02*
X613226Y471601D01*
Y468427D02*
Y471601D01*
X610051Y468427D02*
X613226D01*
X606876Y471601D02*
X610051Y468427D01*
X603701D02*
X606876Y471601D01*
X600526Y468427D02*
X603701D01*
X700526Y68426D02*
Y71602D01*
X703701Y74777D01*
X700526Y77951D02*
X703701Y74777D01*
X700526Y77951D02*
Y81126D01*
X703701D01*
X706876Y77951D01*
X710051Y81126D01*
X713226D01*
Y77951D02*
Y81126D01*
X710051Y74777D02*
X713226Y77951D01*
X710051Y74777D02*
X713226Y71602D01*
Y68426D02*
Y71602D01*
X710051Y68426D02*
X713226D01*
X706876Y71602D02*
X710051Y68426D01*
X703701D02*
X706876Y71602D01*
X700526Y68426D02*
X703701D01*
X750526Y168426D02*
Y171602D01*
X753701Y174776D01*
X750526Y177952D02*
X753701Y174776D01*
X750526Y177952D02*
Y181126D01*
X753701D01*
X756876Y177952D01*
X760051Y181126D01*
X763226D01*
Y177952D02*
Y181126D01*
X760051Y174776D02*
X763226Y177952D01*
X760051Y174776D02*
X763226Y171602D01*
Y168426D02*
Y171602D01*
X760051Y168426D02*
X763226D01*
X756876Y171602D02*
X760051Y168426D01*
X753701D02*
X756876Y171602D01*
X750526Y168426D02*
X753701D01*
X700526Y268426D02*
Y271602D01*
X703701Y274776D01*
X700526Y277952D02*
X703701Y274776D01*
X700526Y277952D02*
Y281126D01*
X703701D01*
X706876Y277952D01*
X710051Y281126D01*
X713226D01*
Y277952D02*
Y281126D01*
X710051Y274776D02*
X713226Y277952D01*
X710051Y274776D02*
X713226Y271602D01*
Y268426D02*
Y271602D01*
X710051Y268426D02*
X713226D01*
X706876Y271602D02*
X710051Y268426D01*
X703701D02*
X706876Y271602D01*
X700526Y268426D02*
X703701D01*
X750526Y368427D02*
Y371601D01*
X753701Y374776D01*
X750526Y377952D02*
X753701Y374776D01*
X750526Y377952D02*
Y381127D01*
X753701D01*
X756876Y377952D01*
X760051Y381127D01*
X763226D01*
Y377952D02*
Y381127D01*
X760051Y374776D02*
X763226Y377952D01*
X760051Y374776D02*
X763226Y371601D01*
Y368427D02*
Y371601D01*
X760051Y368427D02*
X763226D01*
X756876Y371601D02*
X760051Y368427D01*
X753701D02*
X756876Y371601D01*
X750526Y368427D02*
X753701D01*
X700526Y468427D02*
Y471601D01*
X703701Y474776D01*
X700526Y477952D02*
X703701Y474776D01*
X700526Y477952D02*
Y481127D01*
X703701D01*
X706876Y477952D01*
X710051Y481127D01*
X713226D01*
Y477952D02*
Y481127D01*
X710051Y474776D02*
X713226Y477952D01*
X710051Y474776D02*
X713226Y471601D01*
Y468427D02*
Y471601D01*
X710051Y468427D02*
X713226D01*
X706876Y471601D02*
X710051Y468427D01*
X703701D02*
X706876Y471601D01*
X700526Y468427D02*
X703701D01*
X750526Y768427D02*
Y771602D01*
X753701Y774777D01*
X750526Y777952D02*
X753701Y774777D01*
X750526Y777952D02*
Y781127D01*
X753701D01*
X756876Y777952D01*
X760051Y781127D01*
X763226D01*
Y777952D02*
Y781127D01*
X760051Y774777D02*
X763226Y777952D01*
X760051Y774777D02*
X763226Y771602D01*
Y768427D02*
Y771602D01*
X760051Y768427D02*
X763226D01*
X756876Y771602D02*
X760051Y768427D01*
X753701D02*
X756876Y771602D01*
X750526Y768427D02*
X753701D01*
X700526Y868427D02*
Y871602D01*
X703701Y874777D01*
X700526Y877952D02*
X703701Y874777D01*
X700526Y877952D02*
Y881127D01*
X703701D01*
X706876Y877952D01*
X710051Y881127D01*
X713226D01*
Y877952D02*
Y881127D01*
X710051Y874777D02*
X713226Y877952D01*
X710051Y874777D02*
X713226Y871602D01*
Y868427D02*
Y871602D01*
X710051Y868427D02*
X713226D01*
X706876Y871602D02*
X710051Y868427D01*
X703701D02*
X706876Y871602D01*
X700526Y868427D02*
X703701D01*
X800526Y68426D02*
Y71602D01*
X803701Y74777D01*
X800526Y77951D02*
X803701Y74777D01*
X800526Y77951D02*
Y81126D01*
X803701D01*
X806876Y77951D01*
X810051Y81126D01*
X813226D01*
Y77951D02*
Y81126D01*
X810051Y74777D02*
X813226Y77951D01*
X810051Y74777D02*
X813226Y71602D01*
Y68426D02*
Y71602D01*
X810051Y68426D02*
X813226D01*
X806876Y71602D02*
X810051Y68426D01*
X803701D02*
X806876Y71602D01*
X800526Y68426D02*
X803701D01*
X850526Y168426D02*
Y171602D01*
X853701Y174776D01*
X850526Y177952D02*
X853701Y174776D01*
X850526Y177952D02*
Y181126D01*
X853701D01*
X856876Y177952D01*
X860051Y181126D01*
X863226D01*
Y177952D02*
Y181126D01*
X860051Y174776D02*
X863226Y177952D01*
X860051Y174776D02*
X863226Y171602D01*
Y168426D02*
Y171602D01*
X860051Y168426D02*
X863226D01*
X856876Y171602D02*
X860051Y168426D01*
X853701D02*
X856876Y171602D01*
X850526Y168426D02*
X853701D01*
X850526Y368427D02*
Y371601D01*
X853701Y374776D01*
X850526Y377952D02*
X853701Y374776D01*
X850526Y377952D02*
Y381127D01*
X853701D01*
X856876Y377952D01*
X860051Y381127D01*
X863226D01*
Y377952D02*
Y381127D01*
X860051Y374776D02*
X863226Y377952D01*
X860051Y374776D02*
X863226Y371601D01*
Y368427D02*
Y371601D01*
X860051Y368427D02*
X863226D01*
X856876Y371601D02*
X860051Y368427D01*
X853701D02*
X856876Y371601D01*
X850526Y368427D02*
X853701D01*
X800526Y468427D02*
Y471601D01*
X803701Y474776D01*
X800526Y477952D02*
X803701Y474776D01*
X800526Y477952D02*
Y481127D01*
X803701D01*
X806876Y477952D01*
X810051Y481127D01*
X813226D01*
Y477952D02*
Y481127D01*
X810051Y474776D02*
X813226Y477952D01*
X810051Y474776D02*
X813226Y471601D01*
Y468427D02*
Y471601D01*
X810051Y468427D02*
X813226D01*
X806876Y471601D02*
X810051Y468427D01*
X803701D02*
X806876Y471601D01*
X800526Y468427D02*
X803701D01*
X850526Y768427D02*
Y771602D01*
X853701Y774777D01*
X850526Y777952D02*
X853701Y774777D01*
X850526Y777952D02*
Y781127D01*
X853701D01*
X856876Y777952D01*
X860051Y781127D01*
X863226D01*
Y777952D02*
Y781127D01*
X860051Y774777D02*
X863226Y777952D01*
X860051Y774777D02*
X863226Y771602D01*
Y768427D02*
Y771602D01*
X860051Y768427D02*
X863226D01*
X856876Y771602D02*
X860051Y768427D01*
X853701D02*
X856876Y771602D01*
X850526Y768427D02*
X853701D01*
X900526Y68426D02*
Y71602D01*
X903701Y74777D01*
X900526Y77951D02*
X903701Y74777D01*
X900526Y77951D02*
Y81126D01*
X903701D01*
X906876Y77951D01*
X910051Y81126D01*
X913226D01*
Y77951D02*
Y81126D01*
X910051Y74777D02*
X913226Y77951D01*
X910051Y74777D02*
X913226Y71602D01*
Y68426D02*
Y71602D01*
X910051Y68426D02*
X913226D01*
X906876Y71602D02*
X910051Y68426D01*
X903701D02*
X906876Y71602D01*
X900526Y68426D02*
X903701D01*
X950526Y168426D02*
Y171602D01*
X953701Y174776D01*
X950526Y177952D02*
X953701Y174776D01*
X950526Y177952D02*
Y181126D01*
X953701D01*
X956876Y177952D01*
X960051Y181126D01*
X963226D01*
Y177952D02*
Y181126D01*
X960051Y174776D02*
X963226Y177952D01*
X960051Y174776D02*
X963226Y171602D01*
Y168426D02*
Y171602D01*
X960051Y168426D02*
X963226D01*
X956876Y171602D02*
X960051Y168426D01*
X953701D02*
X956876Y171602D01*
X950526Y168426D02*
X953701D01*
X900526Y268426D02*
Y271602D01*
X903701Y274776D01*
X900526Y277952D02*
X903701Y274776D01*
X900526Y277952D02*
Y281126D01*
X903701D01*
X906876Y277952D01*
X910051Y281126D01*
X913226D01*
Y277952D02*
Y281126D01*
X910051Y274776D02*
X913226Y277952D01*
X910051Y274776D02*
X913226Y271602D01*
Y268426D02*
Y271602D01*
X910051Y268426D02*
X913226D01*
X906876Y271602D02*
X910051Y268426D01*
X903701D02*
X906876Y271602D01*
X900526Y268426D02*
X903701D01*
X950526Y368427D02*
Y371601D01*
X953701Y374776D01*
X950526Y377952D02*
X953701Y374776D01*
X950526Y377952D02*
Y381127D01*
X953701D01*
X956876Y377952D01*
X960051Y381127D01*
X963226D01*
Y377952D02*
Y381127D01*
X960051Y374776D02*
X963226Y377952D01*
X960051Y374776D02*
X963226Y371601D01*
Y368427D02*
Y371601D01*
X960051Y368427D02*
X963226D01*
X956876Y371601D02*
X960051Y368427D01*
X953701D02*
X956876Y371601D01*
X950526Y368427D02*
X953701D01*
X900526Y468427D02*
Y471601D01*
X903701Y474776D01*
X900526Y477952D02*
X903701Y474776D01*
X900526Y477952D02*
Y481127D01*
X903701D01*
X906876Y477952D01*
X910051Y481127D01*
X913226D01*
Y477952D02*
Y481127D01*
X910051Y474776D02*
X913226Y477952D01*
X910051Y474776D02*
X913226Y471601D01*
Y468427D02*
Y471601D01*
X910051Y468427D02*
X913226D01*
X906876Y471601D02*
X910051Y468427D01*
X903701D02*
X906876Y471601D01*
X900526Y468427D02*
X903701D01*
X950526Y768427D02*
Y771602D01*
X953701Y774777D01*
X950526Y777952D02*
X953701Y774777D01*
X950526Y777952D02*
Y781127D01*
X953701D01*
X956876Y777952D01*
X960051Y781127D01*
X963226D01*
Y777952D02*
Y781127D01*
X960051Y774777D02*
X963226Y777952D01*
X960051Y774777D02*
X963226Y771602D01*
Y768427D02*
Y771602D01*
X960051Y768427D02*
X963226D01*
X956876Y771602D02*
X960051Y768427D01*
X953701D02*
X956876Y771602D01*
X950526Y768427D02*
X953701D01*
X1000526Y68426D02*
Y71602D01*
X1003701Y74777D01*
X1000526Y77951D02*
X1003701Y74777D01*
X1000526Y77951D02*
Y81126D01*
X1003701D01*
X1006876Y77951D01*
X1010051Y81126D01*
X1013226D01*
Y77951D02*
Y81126D01*
X1010051Y74777D02*
X1013226Y77951D01*
X1010051Y74777D02*
X1013226Y71602D01*
Y68426D02*
Y71602D01*
X1010051Y68426D02*
X1013226D01*
X1006876Y71602D02*
X1010051Y68426D01*
X1003701D02*
X1006876Y71602D01*
X1000526Y68426D02*
X1003701D01*
X1050526Y168426D02*
Y171602D01*
X1053701Y174776D01*
X1050526Y177952D02*
X1053701Y174776D01*
X1050526Y177952D02*
Y181126D01*
X1053701D01*
X1056876Y177952D01*
X1060051Y181126D01*
X1063226D01*
Y177952D02*
Y181126D01*
X1060051Y174776D02*
X1063226Y177952D01*
X1060051Y174776D02*
X1063226Y171602D01*
Y168426D02*
Y171602D01*
X1060051Y168426D02*
X1063226D01*
X1056876Y171602D02*
X1060051Y168426D01*
X1053701D02*
X1056876Y171602D01*
X1050526Y168426D02*
X1053701D01*
X1000526Y268426D02*
Y271602D01*
X1003701Y274776D01*
X1000526Y277952D02*
X1003701Y274776D01*
X1000526Y277952D02*
Y281126D01*
X1003701D01*
X1006876Y277952D01*
X1010051Y281126D01*
X1013226D01*
Y277952D02*
Y281126D01*
X1010051Y274776D02*
X1013226Y277952D01*
X1010051Y274776D02*
X1013226Y271602D01*
Y268426D02*
Y271602D01*
X1010051Y268426D02*
X1013226D01*
X1006876Y271602D02*
X1010051Y268426D01*
X1003701D02*
X1006876Y271602D01*
X1000526Y268426D02*
X1003701D01*
X1050526Y368427D02*
Y371601D01*
X1053701Y374776D01*
X1050526Y377952D02*
X1053701Y374776D01*
X1050526Y377952D02*
Y381127D01*
X1053701D01*
X1056876Y377952D01*
X1060051Y381127D01*
X1063226D01*
Y377952D02*
Y381127D01*
X1060051Y374776D02*
X1063226Y377952D01*
X1060051Y374776D02*
X1063226Y371601D01*
Y368427D02*
Y371601D01*
X1060051Y368427D02*
X1063226D01*
X1056876Y371601D02*
X1060051Y368427D01*
X1053701D02*
X1056876Y371601D01*
X1050526Y368427D02*
X1053701D01*
X1000526Y468427D02*
Y471601D01*
X1003701Y474776D01*
X1000526Y477952D02*
X1003701Y474776D01*
X1000526Y477952D02*
Y481127D01*
X1003701D01*
X1006876Y477952D01*
X1010051Y481127D01*
X1013226D01*
Y477952D02*
Y481127D01*
X1010051Y474776D02*
X1013226Y477952D01*
X1010051Y474776D02*
X1013226Y471601D01*
Y468427D02*
Y471601D01*
X1010051Y468427D02*
X1013226D01*
X1006876Y471601D02*
X1010051Y468427D01*
X1003701D02*
X1006876Y471601D01*
X1000526Y468427D02*
X1003701D01*
X1100526Y68426D02*
Y71602D01*
X1103701Y74777D01*
X1100526Y77951D02*
X1103701Y74777D01*
X1100526Y77951D02*
Y81126D01*
X1103701D01*
X1106876Y77951D01*
X1110051Y81126D01*
X1113226D01*
Y77951D02*
Y81126D01*
X1110051Y74777D02*
X1113226Y77951D01*
X1110051Y74777D02*
X1113226Y71602D01*
Y68426D02*
Y71602D01*
X1110051Y68426D02*
X1113226D01*
X1106876Y71602D02*
X1110051Y68426D01*
X1103701D02*
X1106876Y71602D01*
X1100526Y68426D02*
X1103701D01*
X1150526Y168426D02*
Y171602D01*
X1153701Y174776D01*
X1150526Y177952D02*
X1153701Y174776D01*
X1150526Y177952D02*
Y181126D01*
X1153701D01*
X1156876Y177952D01*
X1160051Y181126D01*
X1163226D01*
Y177952D02*
Y181126D01*
X1160051Y174776D02*
X1163226Y177952D01*
X1160051Y174776D02*
X1163226Y171602D01*
Y168426D02*
Y171602D01*
X1160051Y168426D02*
X1163226D01*
X1156876Y171602D02*
X1160051Y168426D01*
X1153701D02*
X1156876Y171602D01*
X1150526Y168426D02*
X1153701D01*
X1100526Y268426D02*
Y271602D01*
X1103701Y274776D01*
X1100526Y277952D02*
X1103701Y274776D01*
X1100526Y277952D02*
Y281126D01*
X1103701D01*
X1106876Y277952D01*
X1110051Y281126D01*
X1113226D01*
Y277952D02*
Y281126D01*
X1110051Y274776D02*
X1113226Y277952D01*
X1110051Y274776D02*
X1113226Y271602D01*
Y268426D02*
Y271602D01*
X1110051Y268426D02*
X1113226D01*
X1106876Y271602D02*
X1110051Y268426D01*
X1103701D02*
X1106876Y271602D01*
X1100526Y268426D02*
X1103701D01*
X1150526Y368427D02*
Y371601D01*
X1153701Y374776D01*
X1150526Y377952D02*
X1153701Y374776D01*
X1150526Y377952D02*
Y381127D01*
X1153701D01*
X1156876Y377952D01*
X1160051Y381127D01*
X1163226D01*
Y377952D02*
Y381127D01*
X1160051Y374776D02*
X1163226Y377952D01*
X1160051Y374776D02*
X1163226Y371601D01*
Y368427D02*
Y371601D01*
X1160051Y368427D02*
X1163226D01*
X1156876Y371601D02*
X1160051Y368427D01*
X1153701D02*
X1156876Y371601D01*
X1150526Y368427D02*
X1153701D01*
X1100526Y468427D02*
Y471601D01*
X1103701Y474776D01*
X1100526Y477952D02*
X1103701Y474776D01*
X1100526Y477952D02*
Y481127D01*
X1103701D01*
X1106876Y477952D01*
X1110051Y481127D01*
X1113226D01*
Y477952D02*
Y481127D01*
X1110051Y474776D02*
X1113226Y477952D01*
X1110051Y474776D02*
X1113226Y471601D01*
Y468427D02*
Y471601D01*
X1110051Y468427D02*
X1113226D01*
X1106876Y471601D02*
X1110051Y468427D01*
X1103701D02*
X1106876Y471601D01*
X1100526Y468427D02*
X1103701D01*
X1150526Y768427D02*
Y771602D01*
X1153701Y774777D01*
X1150526Y777952D02*
X1153701Y774777D01*
X1150526Y777952D02*
Y781127D01*
X1153701D01*
X1156876Y777952D01*
X1160051Y781127D01*
X1163226D01*
Y777952D02*
Y781127D01*
X1160051Y774777D02*
X1163226Y777952D01*
X1160051Y774777D02*
X1163226Y771602D01*
Y768427D02*
Y771602D01*
X1160051Y768427D02*
X1163226D01*
X1156876Y771602D02*
X1160051Y768427D01*
X1153701D02*
X1156876Y771602D01*
X1150526Y768427D02*
X1153701D01*
X1200526Y68426D02*
Y71602D01*
X1203701Y74777D01*
X1200526Y77951D02*
X1203701Y74777D01*
X1200526Y77951D02*
Y81126D01*
X1203701D01*
X1206876Y77951D01*
X1210051Y81126D01*
X1213226D01*
Y77951D02*
Y81126D01*
X1210051Y74777D02*
X1213226Y77951D01*
X1210051Y74777D02*
X1213226Y71602D01*
Y68426D02*
Y71602D01*
X1210051Y68426D02*
X1213226D01*
X1206876Y71602D02*
X1210051Y68426D01*
X1203701D02*
X1206876Y71602D01*
X1200526Y68426D02*
X1203701D01*
X1250526Y168426D02*
Y171602D01*
X1253701Y174776D01*
X1250526Y177952D02*
X1253701Y174776D01*
X1250526Y177952D02*
Y181126D01*
X1253701D01*
X1256876Y177952D01*
X1260051Y181126D01*
X1263226D01*
Y177952D02*
Y181126D01*
X1260051Y174776D02*
X1263226Y177952D01*
X1260051Y174776D02*
X1263226Y171602D01*
Y168426D02*
Y171602D01*
X1260051Y168426D02*
X1263226D01*
X1256876Y171602D02*
X1260051Y168426D01*
X1253701D02*
X1256876Y171602D01*
X1250526Y168426D02*
X1253701D01*
X1250526Y368427D02*
Y371601D01*
X1253701Y374776D01*
X1250526Y377952D02*
X1253701Y374776D01*
X1250526Y377952D02*
Y381127D01*
X1253701D01*
X1256876Y377952D01*
X1260051Y381127D01*
X1263226D01*
Y377952D02*
Y381127D01*
X1260051Y374776D02*
X1263226Y377952D01*
X1260051Y374776D02*
X1263226Y371601D01*
Y368427D02*
Y371601D01*
X1260051Y368427D02*
X1263226D01*
X1256876Y371601D02*
X1260051Y368427D01*
X1253701D02*
X1256876Y371601D01*
X1250526Y368427D02*
X1253701D01*
X1200526Y468427D02*
Y471601D01*
X1203701Y474776D01*
X1200526Y477952D02*
X1203701Y474776D01*
X1200526Y477952D02*
Y481127D01*
X1203701D01*
X1206876Y477952D01*
X1210051Y481127D01*
X1213226D01*
Y477952D02*
Y481127D01*
X1210051Y474776D02*
X1213226Y477952D01*
X1210051Y474776D02*
X1213226Y471601D01*
Y468427D02*
Y471601D01*
X1210051Y468427D02*
X1213226D01*
X1206876Y471601D02*
X1210051Y468427D01*
X1203701D02*
X1206876Y471601D01*
X1200526Y468427D02*
X1203701D01*
X1250526Y768427D02*
Y771602D01*
X1253701Y774777D01*
X1250526Y777952D02*
X1253701Y774777D01*
X1250526Y777952D02*
Y781127D01*
X1253701D01*
X1256876Y777952D01*
X1260051Y781127D01*
X1263226D01*
Y777952D02*
Y781127D01*
X1260051Y774777D02*
X1263226Y777952D01*
X1260051Y774777D02*
X1263226Y771602D01*
Y768427D02*
Y771602D01*
X1260051Y768427D02*
X1263226D01*
X1256876Y771602D02*
X1260051Y768427D01*
X1253701D02*
X1256876Y771602D01*
X1250526Y768427D02*
X1253701D01*
X1350526Y168426D02*
Y171602D01*
X1353701Y174776D01*
X1350526Y177952D02*
X1353701Y174776D01*
X1350526Y177952D02*
Y181126D01*
X1353701D01*
X1356876Y177952D01*
X1360051Y181126D01*
X1363226D01*
Y177952D02*
Y181126D01*
X1360051Y174776D02*
X1363226Y177952D01*
X1360051Y174776D02*
X1363226Y171602D01*
Y168426D02*
Y171602D01*
X1360051Y168426D02*
X1363226D01*
X1356876Y171602D02*
X1360051Y168426D01*
X1353701D02*
X1356876Y171602D01*
X1350526Y168426D02*
X1353701D01*
X1300526Y268426D02*
Y271602D01*
X1303701Y274776D01*
X1300526Y277952D02*
X1303701Y274776D01*
X1300526Y277952D02*
Y281126D01*
X1303701D01*
X1306876Y277952D01*
X1310051Y281126D01*
X1313226D01*
Y277952D02*
Y281126D01*
X1310051Y274776D02*
X1313226Y277952D01*
X1310051Y274776D02*
X1313226Y271602D01*
Y268426D02*
Y271602D01*
X1310051Y268426D02*
X1313226D01*
X1306876Y271602D02*
X1310051Y268426D01*
X1303701D02*
X1306876Y271602D01*
X1300526Y268426D02*
X1303701D01*
X1350526Y368427D02*
Y371601D01*
X1353701Y374776D01*
X1350526Y377952D02*
X1353701Y374776D01*
X1350526Y377952D02*
Y381127D01*
X1353701D01*
X1356876Y377952D01*
X1360051Y381127D01*
X1363226D01*
Y377952D02*
Y381127D01*
X1360051Y374776D02*
X1363226Y377952D01*
X1360051Y374776D02*
X1363226Y371601D01*
Y368427D02*
Y371601D01*
X1360051Y368427D02*
X1363226D01*
X1356876Y371601D02*
X1360051Y368427D01*
X1353701D02*
X1356876Y371601D01*
X1350526Y368427D02*
X1353701D01*
X1300526Y468427D02*
Y471601D01*
X1303701Y474776D01*
X1300526Y477952D02*
X1303701Y474776D01*
X1300526Y477952D02*
Y481127D01*
X1303701D01*
X1306876Y477952D01*
X1310051Y481127D01*
X1313226D01*
Y477952D02*
Y481127D01*
X1310051Y474776D02*
X1313226Y477952D01*
X1310051Y474776D02*
X1313226Y471601D01*
Y468427D02*
Y471601D01*
X1310051Y468427D02*
X1313226D01*
X1306876Y471601D02*
X1310051Y468427D01*
X1303701D02*
X1306876Y471601D01*
X1300526Y468427D02*
X1303701D01*
X1350526Y568427D02*
Y571601D01*
X1353701Y574776D01*
X1350526Y577952D02*
X1353701Y574776D01*
X1350526Y577952D02*
Y581127D01*
X1353701D01*
X1356876Y577952D01*
X1360051Y581127D01*
X1363226D01*
Y577952D02*
Y581127D01*
X1360051Y574776D02*
X1363226Y577952D01*
X1360051Y574776D02*
X1363226Y571601D01*
Y568427D02*
Y571601D01*
X1360051Y568427D02*
X1363226D01*
X1356876Y571601D02*
X1360051Y568427D01*
X1353701D02*
X1356876Y571601D01*
X1350526Y568427D02*
X1353701D01*
X1300526Y668427D02*
Y671602D01*
X1303701Y674777D01*
X1300526Y677952D02*
X1303701Y674777D01*
X1300526Y677952D02*
Y681127D01*
X1303701D01*
X1306876Y677952D01*
X1310051Y681127D01*
X1313226D01*
Y677952D02*
Y681127D01*
X1310051Y674777D02*
X1313226Y677952D01*
X1310051Y674777D02*
X1313226Y671602D01*
Y668427D02*
Y671602D01*
X1310051Y668427D02*
X1313226D01*
X1306876Y671602D02*
X1310051Y668427D01*
X1303701D02*
X1306876Y671602D01*
X1300526Y668427D02*
X1303701D01*
X1350526Y768427D02*
Y771602D01*
X1353701Y774777D01*
X1350526Y777952D02*
X1353701Y774777D01*
X1350526Y777952D02*
Y781127D01*
X1353701D01*
X1356876Y777952D01*
X1360051Y781127D01*
X1363226D01*
Y777952D02*
Y781127D01*
X1360051Y774777D02*
X1363226Y777952D01*
X1360051Y774777D02*
X1363226Y771602D01*
Y768427D02*
Y771602D01*
X1360051Y768427D02*
X1363226D01*
X1356876Y771602D02*
X1360051Y768427D01*
X1353701D02*
X1356876Y771602D01*
X1350526Y768427D02*
X1353701D01*
X1300526Y868427D02*
Y871602D01*
X1303701Y874777D01*
X1300526Y877952D02*
X1303701Y874777D01*
X1300526Y877952D02*
Y881127D01*
X1303701D01*
X1306876Y877952D01*
X1310051Y881127D01*
X1313226D01*
Y877952D02*
Y881127D01*
X1310051Y874777D02*
X1313226Y877952D01*
X1310051Y874777D02*
X1313226Y871602D01*
Y868427D02*
Y871602D01*
X1310051Y868427D02*
X1313226D01*
X1306876Y871602D02*
X1310051Y868427D01*
X1303701D02*
X1306876Y871602D01*
X1300526Y868427D02*
X1303701D01*
X415290Y651510D02*
Y654685D01*
X418465Y657860D01*
X415290Y661035D02*
X418465Y657860D01*
X415290Y661035D02*
Y664210D01*
X418465D01*
X421640Y661035D01*
X424815Y664210D01*
X427990D01*
Y661035D02*
Y664210D01*
X424815Y657860D02*
X427990Y661035D01*
X424815Y657860D02*
X427990Y654685D01*
Y651510D02*
Y654685D01*
X424815Y651510D02*
X427990D01*
X421640Y654685D02*
X424815Y651510D01*
X418465D02*
X421640Y654685D01*
X415290Y651510D02*
X418465D01*
X134499Y671402D02*
Y674577D01*
X137674Y677752D01*
X134499Y680927D02*
X137674Y677752D01*
X134499Y680927D02*
Y684102D01*
X137674D01*
X140849Y680927D01*
X144024Y684102D01*
X147199D01*
Y680927D02*
Y684102D01*
X144024Y677752D02*
X147199Y680927D01*
X144024Y677752D02*
X147199Y674577D01*
Y671402D02*
Y674577D01*
X144024Y671402D02*
X147199D01*
X140849Y674577D02*
X144024Y671402D01*
X137674D02*
X140849Y674577D01*
X134499Y671402D02*
X137674D01*
X122080Y727353D02*
Y730527D01*
X125255Y733702D01*
X122080Y736878D02*
X125255Y733702D01*
X122080Y736878D02*
Y740052D01*
X125255D01*
X128430Y736878D01*
X131605Y740052D01*
X134780D01*
Y736878D02*
Y740052D01*
X131605Y733702D02*
X134780Y736878D01*
X131605Y733702D02*
X134780Y730527D01*
Y727353D02*
Y730527D01*
X131605Y727353D02*
X134780D01*
X128430Y730527D02*
X131605Y727353D01*
X125255D02*
X128430Y730527D01*
X122080Y727353D02*
X125255D01*
X161302D02*
Y730527D01*
X164477Y733702D01*
X161302Y736878D02*
X164477Y733702D01*
X161302Y736878D02*
Y740052D01*
X164477D01*
X167652Y736878D01*
X170827Y740052D01*
X174002D01*
Y736878D02*
Y740052D01*
X170827Y733702D02*
X174002Y736878D01*
X170827Y733702D02*
X174002Y730527D01*
Y727353D02*
Y730527D01*
X170827Y727353D02*
X174002D01*
X167652Y730527D02*
X170827Y727353D01*
X164477D02*
X167652Y730527D01*
X161302Y727353D02*
X164477D01*
X330046Y801370D02*
Y804545D01*
X333221Y807720D01*
X330046Y810895D02*
X333221Y807720D01*
X330046Y810895D02*
Y814070D01*
X333221D01*
X336396Y810895D01*
X339571Y814070D01*
X342746D01*
Y810895D02*
Y814070D01*
X339571Y807720D02*
X342746Y810895D01*
X339571Y807720D02*
X342746Y804545D01*
Y801370D02*
Y804545D01*
X339571Y801370D02*
X342746D01*
X336396Y804545D02*
X339571Y801370D01*
X333221D02*
X336396Y804545D01*
X330046Y801370D02*
X333221D01*
X383680Y802205D02*
Y805380D01*
X386855Y808555D01*
X383680Y811730D02*
X386855Y808555D01*
X383680Y811730D02*
Y814905D01*
X386855D01*
X390030Y811730D01*
X393205Y814905D01*
X396380D01*
Y811730D02*
Y814905D01*
X393205Y808555D02*
X396380Y811730D01*
X393205Y808555D02*
X396380Y805380D01*
Y802205D02*
Y805380D01*
X393205Y802205D02*
X396380D01*
X390030Y805380D02*
X393205Y802205D01*
X386855D02*
X390030Y805380D01*
X383680Y802205D02*
X386855D01*
X477322Y803910D02*
Y807085D01*
X480497Y810260D01*
X477322Y813435D02*
X480497Y810260D01*
X477322Y813435D02*
Y816610D01*
X480497D01*
X483672Y813435D01*
X486847Y816610D01*
X490022D01*
Y813435D02*
Y816610D01*
X486847Y810260D02*
X490022Y813435D01*
X486847Y810260D02*
X490022Y807085D01*
Y803910D02*
Y807085D01*
X486847Y803910D02*
X490022D01*
X483672Y807085D02*
X486847Y803910D01*
X480497D02*
X483672Y807085D01*
X477322Y803910D02*
X480497D01*
X198802Y801370D02*
Y804545D01*
X201977Y807720D01*
X198802Y810895D02*
X201977Y807720D01*
X198802Y810895D02*
Y814070D01*
X201977D01*
X205152Y810895D01*
X208327Y814070D01*
X211502D01*
Y810895D02*
Y814070D01*
X208327Y807720D02*
X211502Y810895D01*
X208327Y807720D02*
X211502Y804545D01*
Y801370D02*
Y804545D01*
X208327Y801370D02*
X211502D01*
X205152Y804545D02*
X208327Y801370D01*
X201977D02*
X205152Y804545D01*
X198802Y801370D02*
X201977D01*
X152292D02*
Y804545D01*
X155467Y807720D01*
X152292Y810895D02*
X155467Y807720D01*
X152292Y810895D02*
Y814070D01*
X155467D01*
X158642Y810895D01*
X161817Y814070D01*
X164992D01*
Y810895D02*
Y814070D01*
X161817Y807720D02*
X164992Y810895D01*
X161817Y807720D02*
X164992Y804545D01*
Y801370D02*
Y804545D01*
X161817Y801370D02*
X164992D01*
X158642Y804545D02*
X161817Y801370D01*
X155467D02*
X158642Y804545D01*
X152292Y801370D02*
X155467D01*
X330027Y914312D02*
Y917487D01*
X333202Y920662D01*
X330027Y923837D02*
X333202Y920662D01*
X330027Y923837D02*
Y927012D01*
X333202D01*
X336377Y923837D01*
X339552Y927012D01*
X342727D01*
Y923837D02*
Y927012D01*
X339552Y920662D02*
X342727Y923837D01*
X339552Y920662D02*
X342727Y917487D01*
Y914312D02*
Y917487D01*
X339552Y914312D02*
X342727D01*
X336377Y917487D02*
X339552Y914312D01*
X333202D02*
X336377Y917487D01*
X330027Y914312D02*
X333202D01*
X154839Y910590D02*
Y913765D01*
X158014Y916940D01*
X154839Y920115D02*
X158014Y916940D01*
X154839Y920115D02*
Y923290D01*
X158014D01*
X161189Y920115D01*
X164364Y923290D01*
X167539D01*
Y920115D02*
Y923290D01*
X164364Y916940D02*
X167539Y920115D01*
X164364Y916940D02*
X167539Y913765D01*
Y910590D02*
Y913765D01*
X164364Y910590D02*
X167539D01*
X161189Y913765D02*
X164364Y910590D01*
X158014D02*
X161189Y913765D01*
X154839Y910590D02*
X158014D01*
X674370Y905510D02*
Y908685D01*
X677545Y911860D01*
X674370Y915035D02*
X677545Y911860D01*
X674370Y915035D02*
Y918210D01*
X677545D01*
X680720Y915035D01*
X683895Y918210D01*
X687070D01*
Y915035D02*
Y918210D01*
X683895Y911860D02*
X687070Y915035D01*
X683895Y911860D02*
X687070Y908685D01*
Y905510D02*
Y908685D01*
X683895Y905510D02*
X687070D01*
X680720Y908685D02*
X683895Y905510D01*
X677545D02*
X680720Y908685D01*
X674370Y905510D02*
X677545D01*
X99445Y783095D02*
X101350Y781190D01*
X97540Y783095D02*
X99445D01*
X97540D02*
X99445Y785000D01*
X97540Y786905D02*
X99445Y785000D01*
X97540Y786905D02*
X99445D01*
X101350Y788810D01*
X103255Y786905D01*
X105160D01*
X103255Y785000D02*
X105160Y786905D01*
X103255Y785000D02*
X105160Y783095D01*
X103255D02*
X105160D01*
X101350Y781190D02*
X103255Y783095D01*
X98175Y781825D02*
X101350Y778650D01*
X95000Y781825D02*
X98175D01*
X95000D02*
X98175Y785000D01*
X95000Y788175D02*
X98175Y785000D01*
X95000Y788175D02*
X98175D01*
X101350Y791350D01*
X104525Y788175D01*
X107700D01*
X104525Y785000D02*
X107700Y788175D01*
X104525Y785000D02*
X107700Y781825D01*
X104525D02*
X107700D01*
X101350Y778650D02*
X104525Y781825D01*
X99445Y63095D02*
X101350Y61190D01*
X97540Y63095D02*
X99445D01*
X97540D02*
X99445Y65000D01*
X97540Y66905D02*
X99445Y65000D01*
X97540Y66905D02*
X99445D01*
X101350Y68810D01*
X103255Y66905D01*
X105160D01*
X103255Y65000D02*
X105160Y66905D01*
X103255Y65000D02*
X105160Y63095D01*
X103255D02*
X105160D01*
X101350Y61190D02*
X103255Y63095D01*
X98175Y61825D02*
X101350Y58650D01*
X95000Y61825D02*
X98175D01*
X95000D02*
X98175Y65000D01*
X95000Y68175D02*
X98175Y65000D01*
X95000Y68175D02*
X98175D01*
X101350Y71350D01*
X104525Y68175D01*
X107700D01*
X104525Y65000D02*
X107700Y68175D01*
X104525Y65000D02*
X107700Y61825D01*
X104525D02*
X107700D01*
X101350Y58650D02*
X104525Y61825D01*
X1349445Y63095D02*
X1351350Y61190D01*
X1347540Y63095D02*
X1349445D01*
X1347540D02*
X1349445Y65000D01*
X1347540Y66905D02*
X1349445Y65000D01*
X1347540Y66905D02*
X1349445D01*
X1351350Y68810D01*
X1353255Y66905D01*
X1355160D01*
X1353255Y65000D02*
X1355160Y66905D01*
X1353255Y65000D02*
X1355160Y63095D01*
X1353255D02*
X1355160D01*
X1351350Y61190D02*
X1353255Y63095D01*
X1348175Y61825D02*
X1351350Y58650D01*
X1345000Y61825D02*
X1348175D01*
X1345000D02*
X1348175Y65000D01*
X1345000Y68175D02*
X1348175Y65000D01*
X1345000Y68175D02*
X1348175D01*
X1351350Y71350D01*
X1354525Y68175D01*
X1357700D01*
X1354525Y65000D02*
X1357700Y68175D01*
X1354525Y65000D02*
X1357700Y61825D01*
X1354525D02*
X1357700D01*
X1351350Y58650D02*
X1354525Y61825D01*
X1349445Y933095D02*
X1351350Y931190D01*
X1347540Y933095D02*
X1349445D01*
X1347540D02*
X1349445Y935000D01*
X1347540Y936905D02*
X1349445Y935000D01*
X1347540Y936905D02*
X1349445D01*
X1351350Y938810D01*
X1353255Y936905D01*
X1355160D01*
X1353255Y935000D02*
X1355160Y936905D01*
X1353255Y935000D02*
X1355160Y933095D01*
X1353255D02*
X1355160D01*
X1351350Y931190D02*
X1353255Y933095D01*
X1348175Y931825D02*
X1351350Y928650D01*
X1345000Y931825D02*
X1348175D01*
X1345000D02*
X1348175Y935000D01*
X1345000Y938175D02*
X1348175Y935000D01*
X1345000Y938175D02*
X1348175D01*
X1351350Y941350D01*
X1354525Y938175D01*
X1357700D01*
X1354525Y935000D02*
X1357700Y938175D01*
X1354525Y935000D02*
X1357700Y931825D01*
X1354525D02*
X1357700D01*
X1351350Y928650D02*
X1354525Y931825D01*
X1119790Y852740D02*
X1127410D01*
Y860360D01*
X1119790D02*
X1127410D01*
X1119790Y852740D02*
Y860360D01*
X1117250Y850200D02*
X1129950D01*
Y862900D01*
X1117250D02*
X1129950D01*
X1117250Y850200D02*
Y862900D01*
X1145190Y852740D02*
X1152810D01*
Y860360D01*
X1145190D02*
X1152810D01*
X1145190Y852740D02*
Y860360D01*
X1142650Y850200D02*
X1155350D01*
Y862900D01*
X1142650D02*
X1155350D01*
X1142650Y850200D02*
Y862900D01*
X1174550Y619800D02*
X1180900Y622975D01*
X1187250Y619800D01*
X1184075Y626150D02*
X1187250Y619800D01*
X1184075Y626150D02*
X1187250Y632500D01*
X1180900Y629325D02*
X1187250Y632500D01*
X1174550D02*
X1180900Y629325D01*
X1174550Y632500D02*
X1177725Y626150D01*
X1174550Y619800D02*
X1177725Y626150D01*
X1238050Y810300D02*
X1244400Y813475D01*
X1250750Y810300D01*
X1247575Y816650D02*
X1250750Y810300D01*
X1247575Y816650D02*
X1250750Y823000D01*
X1244400Y819825D02*
X1250750Y823000D01*
X1238050D02*
X1244400Y819825D01*
X1238050Y823000D02*
X1241225Y816650D01*
X1238050Y810300D02*
X1241225Y816650D01*
X793550Y619800D02*
X799900Y622975D01*
X806250Y619800D01*
X803075Y626150D02*
X806250Y619800D01*
X803075Y626150D02*
X806250Y632500D01*
X799900Y629325D02*
X806250Y632500D01*
X793550D02*
X799900Y629325D01*
X793550Y632500D02*
X796725Y626150D01*
X793550Y619800D02*
X796725Y626150D01*
X857050Y810300D02*
X863400Y813475D01*
X869750Y810300D01*
X866575Y816650D02*
X869750Y810300D01*
X866575Y816650D02*
X869750Y823000D01*
X863400Y819825D02*
X869750Y823000D01*
X857050D02*
X863400Y819825D01*
X857050Y823000D02*
X860225Y816650D01*
X857050Y810300D02*
X860225Y816650D01*
X1244400Y724575D02*
X1247575D01*
X1244400D02*
Y730925D01*
X1247575D01*
Y734100D01*
X1253925D01*
Y730925D02*
Y734100D01*
Y730925D02*
X1257100D01*
Y724575D02*
Y730925D01*
X1253925Y724575D02*
X1257100D01*
X1253925Y721400D02*
Y724575D01*
X1247575Y721400D02*
X1253925D01*
X1247575D02*
Y724575D01*
X1231700Y699175D02*
X1234875D01*
X1231700D02*
Y705525D01*
X1234875D01*
Y708700D01*
X1241225D01*
Y705525D02*
Y708700D01*
Y705525D02*
X1244400D01*
Y699175D02*
Y705525D01*
X1241225Y699175D02*
X1244400D01*
X1241225Y696000D02*
Y699175D01*
X1234875Y696000D02*
X1241225D01*
X1234875D02*
Y699175D01*
X1219000Y724575D02*
X1222175D01*
X1219000D02*
Y730925D01*
X1222175D01*
Y734100D01*
X1228525D01*
Y730925D02*
Y734100D01*
Y730925D02*
X1231700D01*
Y724575D02*
Y730925D01*
X1228525Y724575D02*
X1231700D01*
X1228525Y721400D02*
Y724575D01*
X1222175Y721400D02*
X1228525D01*
X1222175D02*
Y724575D01*
X1206300Y699175D02*
X1209475D01*
X1206300D02*
Y705525D01*
X1209475D01*
Y708700D01*
X1215825D01*
Y705525D02*
Y708700D01*
Y705525D02*
X1219000D01*
Y699175D02*
Y705525D01*
X1215825Y699175D02*
X1219000D01*
X1215825Y696000D02*
Y699175D01*
X1209475Y696000D02*
X1215825D01*
X1209475D02*
Y699175D01*
X1193600Y724575D02*
X1196775D01*
X1193600D02*
Y730925D01*
X1196775D01*
Y734100D01*
X1203125D01*
Y730925D02*
Y734100D01*
Y730925D02*
X1206300D01*
Y724575D02*
Y730925D01*
X1203125Y724575D02*
X1206300D01*
X1203125Y721400D02*
Y724575D01*
X1196775Y721400D02*
X1203125D01*
X1196775D02*
Y724575D01*
X1180900Y699175D02*
X1184075D01*
X1180900D02*
Y705525D01*
X1184075D01*
Y708700D01*
X1190425D01*
Y705525D02*
Y708700D01*
Y705525D02*
X1193600D01*
Y699175D02*
Y705525D01*
X1190425Y699175D02*
X1193600D01*
X1190425Y696000D02*
Y699175D01*
X1184075Y696000D02*
X1190425D01*
X1184075D02*
Y699175D01*
X1168200Y724575D02*
X1171375D01*
X1168200D02*
Y730925D01*
X1171375D01*
Y734100D01*
X1177725D01*
Y730925D02*
Y734100D01*
Y730925D02*
X1180900D01*
Y724575D02*
Y730925D01*
X1177725Y724575D02*
X1180900D01*
X1177725Y721400D02*
Y724575D01*
X1171375Y721400D02*
X1177725D01*
X1171375D02*
Y724575D01*
X1155500Y699175D02*
X1158675D01*
X1155500D02*
Y705525D01*
X1158675D01*
Y708700D01*
X1165025D01*
Y705525D02*
Y708700D01*
Y705525D02*
X1168200D01*
Y699175D02*
Y705525D01*
X1165025Y699175D02*
X1168200D01*
X1165025Y696000D02*
Y699175D01*
X1158675Y696000D02*
X1165025D01*
X1158675D02*
Y699175D01*
X863400Y724575D02*
X866575D01*
X863400D02*
Y730925D01*
X866575D01*
Y734100D01*
X872925D01*
Y730925D02*
Y734100D01*
Y730925D02*
X876100D01*
Y724575D02*
Y730925D01*
X872925Y724575D02*
X876100D01*
X872925Y721400D02*
Y724575D01*
X866575Y721400D02*
X872925D01*
X866575D02*
Y724575D01*
X850700Y699175D02*
X853875D01*
X850700D02*
Y705525D01*
X853875D01*
Y708700D01*
X860225D01*
Y705525D02*
Y708700D01*
Y705525D02*
X863400D01*
Y699175D02*
Y705525D01*
X860225Y699175D02*
X863400D01*
X860225Y696000D02*
Y699175D01*
X853875Y696000D02*
X860225D01*
X853875D02*
Y699175D01*
X838000Y724575D02*
X841175D01*
X838000D02*
Y730925D01*
X841175D01*
Y734100D01*
X847525D01*
Y730925D02*
Y734100D01*
Y730925D02*
X850700D01*
Y724575D02*
Y730925D01*
X847525Y724575D02*
X850700D01*
X847525Y721400D02*
Y724575D01*
X841175Y721400D02*
X847525D01*
X841175D02*
Y724575D01*
X825300Y699175D02*
X828475D01*
X825300D02*
Y705525D01*
X828475D01*
Y708700D01*
X834825D01*
Y705525D02*
Y708700D01*
Y705525D02*
X838000D01*
Y699175D02*
Y705525D01*
X834825Y699175D02*
X838000D01*
X834825Y696000D02*
Y699175D01*
X828475Y696000D02*
X834825D01*
X828475D02*
Y699175D01*
X812600Y724575D02*
X815775D01*
X812600D02*
Y730925D01*
X815775D01*
Y734100D01*
X822125D01*
Y730925D02*
Y734100D01*
Y730925D02*
X825300D01*
Y724575D02*
Y730925D01*
X822125Y724575D02*
X825300D01*
X822125Y721400D02*
Y724575D01*
X815775Y721400D02*
X822125D01*
X815775D02*
Y724575D01*
X799900Y699175D02*
X803075D01*
X799900D02*
Y705525D01*
X803075D01*
Y708700D01*
X809425D01*
Y705525D02*
Y708700D01*
Y705525D02*
X812600D01*
Y699175D02*
Y705525D01*
X809425Y699175D02*
X812600D01*
X809425Y696000D02*
Y699175D01*
X803075Y696000D02*
X809425D01*
X803075D02*
Y699175D01*
X787200Y724575D02*
X790375D01*
X787200D02*
Y730925D01*
X790375D01*
Y734100D01*
X796725D01*
Y730925D02*
Y734100D01*
Y730925D02*
X799900D01*
Y724575D02*
Y730925D01*
X796725Y724575D02*
X799900D01*
X796725Y721400D02*
Y724575D01*
X790375Y721400D02*
X796725D01*
X790375D02*
Y724575D01*
X774500Y699175D02*
X777675D01*
X774500D02*
Y705525D01*
X777675D01*
Y708700D01*
X784025D01*
Y705525D02*
Y708700D01*
Y705525D02*
X787200D01*
Y699175D02*
Y705525D01*
X784025Y699175D02*
X787200D01*
X784025Y696000D02*
Y699175D01*
X777675Y696000D02*
X784025D01*
X777675D02*
Y699175D01*
X793550Y299350D02*
X799900Y312050D01*
X787200D02*
X799900D01*
X787200D02*
X793550Y299350D01*
X857050D02*
X863400Y312050D01*
X850700D02*
X863400D01*
X850700D02*
X857050Y299350D01*
X764190Y852740D02*
X771810D01*
Y860360D01*
X764190D02*
X771810D01*
X764190Y852740D02*
Y860360D01*
X761650Y850200D02*
X774350D01*
Y862900D01*
X761650D02*
X774350D01*
X761650Y850200D02*
Y862900D01*
X738790Y852740D02*
X746410D01*
Y860360D01*
X738790D02*
X746410D01*
X738790Y852740D02*
Y860360D01*
X736250Y850200D02*
X748950D01*
Y862900D01*
X736250D02*
X748950D01*
X736250Y850200D02*
Y862900D01*
X547106Y888895D02*
X559806D01*
Y901595D01*
X547106D02*
X559806D01*
X547106Y888895D02*
Y901595D01*
X547106Y863495D02*
X559806D01*
Y876195D01*
X547106D02*
X559806D01*
X547106Y863495D02*
Y876195D01*
X521706Y888895D02*
X534406D01*
Y901595D01*
X521706D02*
X534406D01*
X521706Y888895D02*
Y901595D01*
Y863495D02*
X534406D01*
Y876195D01*
X521706D02*
X534406D01*
X521706Y863495D02*
Y876195D01*
X496306Y888895D02*
X509006D01*
Y901595D01*
X496306D02*
X509006D01*
X496306Y888895D02*
Y901595D01*
Y863495D02*
X509006D01*
Y876195D01*
X496306D02*
X509006D01*
X496306Y863495D02*
Y876195D01*
X470906Y888895D02*
X483606D01*
Y901595D01*
X470906D02*
X483606D01*
X470906Y888895D02*
Y901595D01*
Y863495D02*
X483606D01*
Y876195D01*
X470906D02*
X483606D01*
X470906Y863495D02*
Y876195D01*
X445506Y888895D02*
X458206D01*
Y901595D01*
X445506D02*
X458206D01*
X445506Y888895D02*
Y901595D01*
X445506Y863495D02*
X458206D01*
Y876195D01*
X445506D02*
X458206D01*
X445506Y863495D02*
Y876195D01*
X420106Y888895D02*
X432806D01*
Y901595D01*
X420106D02*
X432806D01*
X420106Y888895D02*
Y901595D01*
X420106Y863495D02*
X432806D01*
Y876195D01*
X420106D02*
X432806D01*
X420106Y863495D02*
Y876195D01*
X394706Y888895D02*
X407406D01*
Y901595D01*
X394706D02*
X407406D01*
X394706Y888895D02*
Y901595D01*
Y863495D02*
X407406D01*
Y876195D01*
X394706D02*
X407406D01*
X394706Y863495D02*
Y876195D01*
X369306Y888895D02*
X382006D01*
Y901595D01*
X369306D02*
X382006D01*
X369306Y888895D02*
Y901595D01*
Y863495D02*
X382006D01*
Y876195D01*
X369306D02*
X382006D01*
X369306Y863495D02*
Y876195D01*
X343906Y888895D02*
X356606D01*
Y901595D01*
X343906D02*
X356606D01*
X343906Y888895D02*
Y901595D01*
Y863495D02*
X356606D01*
Y876195D01*
X343906D02*
X356606D01*
X343906Y863495D02*
Y876195D01*
X318506Y888895D02*
X331206D01*
Y901595D01*
X318506D02*
X331206D01*
X318506Y888895D02*
Y901595D01*
X318506Y863495D02*
X331206D01*
Y876195D01*
X318506D02*
X331206D01*
X318506Y863495D02*
Y876195D01*
X39106Y863495D02*
X51806D01*
Y876195D01*
X39106D02*
X51806D01*
X39106Y863495D02*
Y876195D01*
X39106Y888895D02*
X51806D01*
Y901595D01*
X39106D02*
X51806D01*
X39106Y888895D02*
Y901595D01*
X64506Y863495D02*
X77206D01*
Y876195D01*
X64506D02*
X77206D01*
X64506Y863495D02*
Y876195D01*
Y888895D02*
X77206D01*
Y901595D01*
X64506D02*
X77206D01*
X64506Y888895D02*
Y901595D01*
X89906Y863495D02*
X102606D01*
Y876195D01*
X89906D02*
X102606D01*
X89906Y863495D02*
Y876195D01*
Y888895D02*
X102606D01*
Y901595D01*
X89906D02*
X102606D01*
X89906Y888895D02*
Y901595D01*
X115306Y863495D02*
X128006D01*
Y876195D01*
X115306D02*
X128006D01*
X115306Y863495D02*
Y876195D01*
Y888895D02*
X128006D01*
Y901595D01*
X115306D02*
X128006D01*
X115306Y888895D02*
Y901595D01*
X140706Y863495D02*
X153406D01*
Y876195D01*
X140706D02*
X153406D01*
X140706Y863495D02*
Y876195D01*
X140706Y888895D02*
X153406D01*
Y901595D01*
X140706D02*
X153406D01*
X140706Y888895D02*
Y901595D01*
X166106Y863495D02*
X178806D01*
Y876195D01*
X166106D02*
X178806D01*
X166106Y863495D02*
Y876195D01*
X166106Y888895D02*
X178806D01*
Y901595D01*
X166106D02*
X178806D01*
X166106Y888895D02*
Y901595D01*
X191506Y863495D02*
X204206D01*
Y876195D01*
X191506D02*
X204206D01*
X191506Y863495D02*
Y876195D01*
Y888895D02*
X204206D01*
Y901595D01*
X191506D02*
X204206D01*
X191506Y888895D02*
Y901595D01*
X216906Y863495D02*
X229606D01*
Y876195D01*
X216906D02*
X229606D01*
X216906Y863495D02*
Y876195D01*
Y888895D02*
X229606D01*
Y901595D01*
X216906D02*
X229606D01*
X216906Y888895D02*
Y901595D01*
X242306Y863495D02*
X255006D01*
Y876195D01*
X242306D02*
X255006D01*
X242306Y863495D02*
Y876195D01*
Y888895D02*
X255006D01*
Y901595D01*
X242306D02*
X255006D01*
X242306Y888895D02*
Y901595D01*
X267706Y863495D02*
X280406D01*
Y876195D01*
X267706D02*
X280406D01*
X267706Y863495D02*
Y876195D01*
X267706Y888895D02*
X280406D01*
Y901595D01*
X267706D02*
X280406D01*
X267706Y888895D02*
Y901595D01*
X87626Y705847D02*
X89531D01*
X87626D02*
Y709657D01*
X89531D01*
Y711562D01*
X93341D01*
Y709657D02*
Y711562D01*
Y709657D02*
X95246D01*
Y705847D02*
Y709657D01*
X93341Y705847D02*
X95246D01*
X93341Y703942D02*
Y705847D01*
X89531Y703942D02*
X93341D01*
X89531D02*
Y705847D01*
X85086Y704577D02*
X88261D01*
X85086D02*
Y710927D01*
X88261D01*
Y714102D01*
X94611D01*
Y710927D02*
Y714102D01*
Y710927D02*
X97786D01*
Y704577D02*
Y710927D01*
X94611Y704577D02*
X97786D01*
X94611Y701402D02*
Y704577D01*
X88261Y701402D02*
X94611D01*
X88261D02*
Y704577D01*
X87626Y675847D02*
X89531D01*
X87626D02*
Y679657D01*
X89531D01*
Y681562D01*
X93341D01*
Y679657D02*
Y681562D01*
Y679657D02*
X95246D01*
Y675847D02*
Y679657D01*
X93341Y675847D02*
X95246D01*
X93341Y673942D02*
Y675847D01*
X89531Y673942D02*
X93341D01*
X89531D02*
Y675847D01*
X85086Y674577D02*
X88261D01*
X85086D02*
Y680927D01*
X88261D01*
Y684102D01*
X94611D01*
Y680927D02*
Y684102D01*
Y680927D02*
X97786D01*
Y674577D02*
Y680927D01*
X94611Y674577D02*
X97786D01*
X94611Y671402D02*
Y674577D01*
X88261Y671402D02*
X94611D01*
X88261D02*
Y674577D01*
X44426Y682442D02*
X48236Y684347D01*
X52046Y682442D01*
X50141Y686252D02*
X52046Y682442D01*
X50141Y686252D02*
X52046Y690062D01*
X48236Y688157D02*
X52046Y690062D01*
X44426D02*
X48236Y688157D01*
X44426Y690062D02*
X46331Y686252D01*
X44426Y682442D02*
X46331Y686252D01*
X41886Y679902D02*
X48236Y683077D01*
X54586Y679902D01*
X51411Y686252D02*
X54586Y679902D01*
X51411Y686252D02*
X54586Y692602D01*
X48236Y689427D02*
X54586Y692602D01*
X41886D02*
X48236Y689427D01*
X41886Y692602D02*
X45061Y686252D01*
X41886Y679902D02*
X45061Y686252D01*
X87626Y645847D02*
X89531D01*
X87626D02*
Y649657D01*
X89531D01*
Y651562D01*
X93341D01*
Y649657D02*
Y651562D01*
Y649657D02*
X95246D01*
Y645847D02*
Y649657D01*
X93341Y645847D02*
X95246D01*
X93341Y643942D02*
Y645847D01*
X89531Y643942D02*
X93341D01*
X89531D02*
Y645847D01*
X85086Y644577D02*
X88261D01*
X85086D02*
Y650927D01*
X88261D01*
Y654102D01*
X94611D01*
Y650927D02*
Y654102D01*
Y650927D02*
X97786D01*
Y644577D02*
Y650927D01*
X94611Y644577D02*
X97786D01*
X94611Y641402D02*
Y644577D01*
X88261Y641402D02*
X94611D01*
X88261D02*
Y644577D01*
X87626Y615847D02*
X89531D01*
X87626D02*
Y619657D01*
X89531D01*
Y621562D01*
X93341D01*
Y619657D02*
Y621562D01*
Y619657D02*
X95246D01*
Y615847D02*
Y619657D01*
X93341Y615847D02*
X95246D01*
X93341Y613942D02*
Y615847D01*
X89531Y613942D02*
X93341D01*
X89531D02*
Y615847D01*
X85086Y614577D02*
X88261D01*
X85086D02*
Y620927D01*
X88261D01*
Y624102D01*
X94611D01*
Y620927D02*
Y624102D01*
Y620927D02*
X97786D01*
Y614577D02*
Y620927D01*
X94611Y614577D02*
X97786D01*
X94611Y611402D02*
Y614577D01*
X88261Y611402D02*
X94611D01*
X88261D02*
Y614577D01*
X117626Y705847D02*
X119531D01*
X117626D02*
Y709657D01*
X119531D01*
Y711562D01*
X123341D01*
Y709657D02*
Y711562D01*
Y709657D02*
X125246D01*
Y705847D02*
Y709657D01*
X123341Y705847D02*
X125246D01*
X123341Y703942D02*
Y705847D01*
X119531Y703942D02*
X123341D01*
X119531D02*
Y705847D01*
X115086Y704577D02*
X118261D01*
X115086D02*
Y710927D01*
X118261D01*
Y714102D01*
X124611D01*
Y710927D02*
Y714102D01*
Y710927D02*
X127786D01*
Y704577D02*
Y710927D01*
X124611Y704577D02*
X127786D01*
X124611Y701402D02*
Y704577D01*
X118261Y701402D02*
X124611D01*
X118261D02*
Y704577D01*
X117626Y675847D02*
X119531D01*
X117626D02*
Y679657D01*
X119531D01*
Y681562D01*
X123341D01*
Y679657D02*
Y681562D01*
Y679657D02*
X125246D01*
Y675847D02*
Y679657D01*
X123341Y675847D02*
X125246D01*
X123341Y673942D02*
Y675847D01*
X119531Y673942D02*
X123341D01*
X119531D02*
Y675847D01*
X115086Y674577D02*
X118261D01*
X115086D02*
Y680927D01*
X118261D01*
Y684102D01*
X124611D01*
Y680927D02*
Y684102D01*
Y680927D02*
X127786D01*
Y674577D02*
Y680927D01*
X124611Y674577D02*
X127786D01*
X124611Y671402D02*
Y674577D01*
X118261Y671402D02*
X124611D01*
X118261D02*
Y674577D01*
X117626Y645847D02*
X119531D01*
X117626D02*
Y649657D01*
X119531D01*
Y651562D01*
X123341D01*
Y649657D02*
Y651562D01*
Y649657D02*
X125246D01*
Y645847D02*
Y649657D01*
X123341Y645847D02*
X125246D01*
X123341Y643942D02*
Y645847D01*
X119531Y643942D02*
X123341D01*
X119531D02*
Y645847D01*
X115086Y644577D02*
X118261D01*
X115086D02*
Y650927D01*
X118261D01*
Y654102D01*
X124611D01*
Y650927D02*
Y654102D01*
Y650927D02*
X127786D01*
Y644577D02*
Y650927D01*
X124611Y644577D02*
X127786D01*
X124611Y641402D02*
Y644577D01*
X118261Y641402D02*
X124611D01*
X118261D02*
Y644577D01*
X117626Y615847D02*
X119531D01*
X117626D02*
Y619657D01*
X119531D01*
Y621562D01*
X123341D01*
Y619657D02*
Y621562D01*
Y619657D02*
X125246D01*
Y615847D02*
Y619657D01*
X123341Y615847D02*
X125246D01*
X123341Y613942D02*
Y615847D01*
X119531Y613942D02*
X123341D01*
X119531D02*
Y615847D01*
X115086Y614577D02*
X118261D01*
X115086D02*
Y620927D01*
X118261D01*
Y624102D01*
X124611D01*
Y620927D02*
Y624102D01*
Y620927D02*
X127786D01*
Y614577D02*
Y620927D01*
X124611Y614577D02*
X127786D01*
X124611Y611402D02*
Y614577D01*
X118261Y611402D02*
X124611D01*
X118261D02*
Y614577D01*
X44426Y635442D02*
X48236Y637347D01*
X52046Y635442D01*
X50141Y639252D02*
X52046Y635442D01*
X50141Y639252D02*
X52046Y643062D01*
X48236Y641157D02*
X52046Y643062D01*
X44426D02*
X48236Y641157D01*
X44426Y643062D02*
X46331Y639252D01*
X44426Y635442D02*
X46331Y639252D01*
X41886Y632902D02*
X48236Y636077D01*
X54586Y632902D01*
X51411Y639252D02*
X54586Y632902D01*
X51411Y639252D02*
X54586Y645602D01*
X48236Y642427D02*
X54586Y645602D01*
X41886D02*
X48236Y642427D01*
X41886Y645602D02*
X45061Y639252D01*
X41886Y632902D02*
X45061Y639252D01*
D11*
X44609Y1504654D02*
G03*
X44609Y1504654I-5080J0D01*
G01*
X47995D02*
G03*
X47995Y1504654I-8467J0D01*
G01*
Y1352254D02*
G03*
X47995Y1352254I-8467J0D01*
G01*
X39529Y1610487D02*
X47995Y1627420D01*
X31062D02*
X47995D01*
X31062D02*
X39529Y1610487D01*
X34449Y1575774D02*
X39529Y1578314D01*
X44609Y1575774D01*
X42069Y1580854D02*
X44609Y1575774D01*
X42069Y1580854D02*
X44609Y1585934D01*
X39529Y1583394D02*
X44609Y1585934D01*
X34449D02*
X39529Y1583394D01*
X34449Y1585934D02*
X36989Y1580854D01*
X34449Y1575774D02*
X36989Y1580854D01*
X31062Y1572387D02*
X39529Y1576620D01*
X47995Y1572387D01*
X43762Y1580854D02*
X47995Y1572387D01*
X43762Y1580854D02*
X47995Y1589320D01*
X39529Y1585087D02*
X47995Y1589320D01*
X31062D02*
X39529Y1585087D01*
X31062Y1589320D02*
X35295Y1580854D01*
X31062Y1572387D02*
X35295Y1580854D01*
X34449Y1537674D02*
X44609D01*
Y1547834D01*
X34449D02*
X44609D01*
X34449Y1537674D02*
Y1547834D01*
X31062Y1534287D02*
X47995D01*
Y1551220D01*
X31062D02*
X47995D01*
X31062Y1534287D02*
Y1551220D01*
Y1458087D02*
X39529Y1462320D01*
X47995Y1458087D01*
X43762Y1466554D02*
X47995Y1458087D01*
X43762Y1466554D02*
X47995Y1475020D01*
X39529Y1470787D02*
X47995Y1475020D01*
X31062D02*
X39529Y1470787D01*
X31062Y1475020D02*
X35295Y1466554D01*
X31062Y1458087D02*
X35295Y1466554D01*
X36989Y1425914D02*
X39529Y1423374D01*
X34449Y1425914D02*
X36989D01*
X34449D02*
X36989Y1428454D01*
X34449Y1430994D02*
X36989Y1428454D01*
X34449Y1430994D02*
X36989D01*
X39529Y1433534D01*
X42069Y1430994D01*
X44609D01*
X42069Y1428454D02*
X44609Y1430994D01*
X42069Y1428454D02*
X44609Y1425914D01*
X42069D02*
X44609D01*
X39529Y1423374D02*
X42069Y1425914D01*
X35295Y1424220D02*
X39529Y1419987D01*
X31062Y1424220D02*
X35295D01*
X31062D02*
X35295Y1428454D01*
X31062Y1432687D02*
X35295Y1428454D01*
X31062Y1432687D02*
X35295D01*
X39529Y1436920D01*
X43762Y1432687D01*
X47995D01*
X43762Y1428454D02*
X47995Y1432687D01*
X43762Y1428454D02*
X47995Y1424220D01*
X43762D02*
X47995D01*
X39529Y1419987D02*
X43762Y1424220D01*
X34449Y1387814D02*
X36989D01*
X34449D02*
Y1392894D01*
X36989D01*
Y1395434D01*
X42069D01*
Y1392894D02*
Y1395434D01*
Y1392894D02*
X44609D01*
Y1387814D02*
Y1392894D01*
X42069Y1387814D02*
X44609D01*
X42069Y1385274D02*
Y1387814D01*
X36989Y1385274D02*
X42069D01*
X36989D02*
Y1387814D01*
X31062Y1386120D02*
X35295D01*
X31062D02*
Y1394587D01*
X35295D01*
Y1398820D01*
X43762D01*
Y1394587D02*
Y1398820D01*
Y1394587D02*
X47995D01*
Y1386120D02*
Y1394587D01*
X43762Y1386120D02*
X47995D01*
X43762Y1381887D02*
Y1386120D01*
X35295Y1381887D02*
X43762D01*
X35295D02*
Y1386120D01*
X31062Y1309920D02*
X35295D01*
X31062D02*
Y1318387D01*
X35295D01*
Y1322620D01*
X43762D01*
Y1318387D02*
Y1322620D01*
Y1318387D02*
X47995D01*
Y1309920D02*
Y1318387D01*
X43762Y1309920D02*
X47995D01*
X43762Y1305687D02*
Y1309920D01*
X35295Y1305687D02*
X43762D01*
X35295D02*
Y1309920D01*
X31062Y1267587D02*
X47995D01*
Y1284520D01*
X31062D02*
X47995D01*
X31062Y1267587D02*
Y1284520D01*
Y1229487D02*
Y1233720D01*
X35295Y1237954D01*
X31062Y1242187D02*
X35295Y1237954D01*
X31062Y1242187D02*
Y1246420D01*
X35295D01*
X39529Y1242187D01*
X43762Y1246420D01*
X47995D01*
Y1242187D02*
Y1246420D01*
X43762Y1237954D02*
X47995Y1242187D01*
X43762Y1237954D02*
X47995Y1233720D01*
Y1229487D02*
Y1233720D01*
X43762Y1229487D02*
X47995D01*
X39529Y1233720D02*
X43762Y1229487D01*
X35295D02*
X39529Y1233720D01*
X31062Y1229487D02*
X35295D01*
X1656777Y1620644D02*
X1649159D01*
X1646620Y1618105D01*
Y1613026D01*
X1649159Y1610487D01*
X1656777D01*
X1672012D02*
X1661855D01*
X1672012Y1620644D01*
Y1623183D01*
X1669473Y1625722D01*
X1664394D01*
X1661855Y1623183D01*
X1687247Y1625722D02*
X1677090D01*
Y1618105D01*
X1682168Y1620644D01*
X1684708D01*
X1687247Y1618105D01*
Y1613026D01*
X1684708Y1610487D01*
X1679629D01*
X1677090Y1613026D01*
X1692325Y1623183D02*
X1694864Y1625722D01*
X1699943D01*
X1702482Y1623183D01*
Y1613026D01*
X1699943Y1610487D01*
X1694864D01*
X1692325Y1613026D01*
Y1623183D01*
X1707560Y1625722D02*
Y1610487D01*
Y1618105D01*
X1710099Y1620644D01*
X1715178D01*
X1717717Y1618105D01*
Y1610487D01*
X1722795D02*
X1727874D01*
X1725334D01*
Y1625722D01*
X1722795Y1623183D01*
X1745648Y1625722D02*
X1740569Y1623183D01*
X1735491Y1618105D01*
Y1613026D01*
X1738030Y1610487D01*
X1743109D01*
X1745648Y1613026D01*
Y1615565D01*
X1743109Y1618105D01*
X1735491D01*
X1750726Y1623183D02*
X1753266Y1625722D01*
X1758344D01*
X1760883Y1623183D01*
Y1613026D01*
X1758344Y1610487D01*
X1753266D01*
X1750726Y1613026D01*
Y1623183D01*
X1656777Y1582544D02*
X1649159D01*
X1646620Y1580004D01*
Y1574926D01*
X1649159Y1572387D01*
X1656777D01*
X1661855Y1585083D02*
X1664394Y1587622D01*
X1669473D01*
X1672012Y1585083D01*
Y1574926D01*
X1669473Y1572387D01*
X1664394D01*
X1661855Y1574926D01*
Y1585083D01*
X1677090Y1587622D02*
Y1572387D01*
Y1580004D01*
X1679629Y1582544D01*
X1684708D01*
X1687247Y1580004D01*
Y1572387D01*
X1692325D02*
Y1582544D01*
X1699943D01*
X1702482Y1580004D01*
Y1572387D01*
X1707560Y1585083D02*
X1710099Y1587622D01*
X1715178D01*
X1717717Y1585083D01*
Y1582544D01*
X1715178Y1580004D01*
X1712639D01*
X1715178D01*
X1717717Y1577465D01*
Y1574926D01*
X1715178Y1572387D01*
X1710099D01*
X1707560Y1574926D01*
X1722795Y1585083D02*
X1725334Y1587622D01*
X1730413D01*
X1732952Y1585083D01*
Y1574926D01*
X1730413Y1572387D01*
X1725334D01*
X1722795Y1574926D01*
Y1585083D01*
X1738030D02*
X1740570Y1587622D01*
X1745648D01*
X1748187Y1585083D01*
Y1574926D01*
X1745648Y1572387D01*
X1740570D01*
X1738030Y1574926D01*
Y1585083D01*
X1753266Y1572387D02*
Y1582544D01*
X1755805D01*
X1758344Y1580004D01*
Y1572387D01*
Y1580004D01*
X1760883Y1582544D01*
X1763422Y1580004D01*
Y1572387D01*
X1768501D02*
X1773579D01*
X1771040D01*
Y1587622D01*
X1768501Y1585083D01*
X1791353Y1587622D02*
X1781196D01*
Y1580004D01*
X1786275Y1582544D01*
X1788814D01*
X1791353Y1580004D01*
Y1574926D01*
X1788814Y1572387D01*
X1783736D01*
X1781196Y1574926D01*
X1651698Y1534287D02*
X1646620Y1539365D01*
Y1544444D01*
X1651698Y1549522D01*
X1659316Y1534287D02*
Y1549522D01*
X1664394Y1544444D01*
X1669473Y1549522D01*
Y1534287D01*
X1674551D02*
X1679629D01*
X1677090D01*
Y1544444D01*
X1674551D01*
X1687247D02*
X1697404Y1534287D01*
X1692325Y1539365D01*
X1697404Y1544444D01*
X1687247Y1534287D01*
X1710099D02*
X1705021D01*
X1702482Y1536826D01*
Y1541904D01*
X1705021Y1544444D01*
X1710099D01*
X1712639Y1541904D01*
Y1539365D01*
X1702482D01*
X1727874Y1549522D02*
Y1534287D01*
X1720256D01*
X1717717Y1536826D01*
Y1541904D01*
X1720256Y1544444D01*
X1727874D01*
X1732952Y1534287D02*
X1738030Y1539365D01*
Y1544444D01*
X1732952Y1549522D01*
X1656777Y1506344D02*
X1649159D01*
X1646620Y1503804D01*
Y1498726D01*
X1649159Y1496187D01*
X1656777D01*
X1661855D02*
X1666933D01*
X1664394D01*
Y1511422D01*
X1661855Y1508883D01*
X1684708Y1511422D02*
X1674551D01*
Y1503804D01*
X1679629Y1506344D01*
X1682168D01*
X1684708Y1503804D01*
Y1498726D01*
X1682168Y1496187D01*
X1677090D01*
X1674551Y1498726D01*
X1699943Y1496187D02*
X1689786D01*
X1699943Y1506344D01*
Y1508883D01*
X1697404Y1511422D01*
X1692325D01*
X1689786Y1508883D01*
X1705021Y1511422D02*
Y1496187D01*
Y1503804D01*
X1707560Y1506344D01*
X1712639D01*
X1715178Y1503804D01*
Y1496187D01*
X1720256Y1498726D02*
X1722795Y1496187D01*
X1727874D01*
X1730413Y1498726D01*
Y1508883D01*
X1727874Y1511422D01*
X1722795D01*
X1720256Y1508883D01*
Y1506344D01*
X1722795Y1503804D01*
X1730413D01*
X1735491Y1508883D02*
X1738030Y1511422D01*
X1743109D01*
X1745648Y1508883D01*
Y1498726D01*
X1743109Y1496187D01*
X1738030D01*
X1735491Y1498726D01*
Y1508883D01*
X1753266Y1496187D02*
X1758344D01*
X1760883Y1498726D01*
Y1503804D01*
X1758344Y1506344D01*
X1753266D01*
X1750726Y1503804D01*
Y1498726D01*
X1753266Y1496187D01*
X1765961Y1508883D02*
X1768501Y1511422D01*
X1773579D01*
X1776118Y1508883D01*
Y1498726D01*
X1773579Y1496187D01*
X1768501D01*
X1765961Y1498726D01*
Y1508883D01*
X1781196Y1493648D02*
X1791353D01*
X1796431Y1508883D02*
X1798971Y1511422D01*
X1804049D01*
X1806588Y1508883D01*
Y1498726D01*
X1804049Y1496187D01*
X1798971D01*
X1796431Y1498726D01*
Y1508883D01*
X1811667Y1496187D02*
Y1506344D01*
X1814206D01*
X1816745Y1503804D01*
Y1496187D01*
Y1503804D01*
X1819284Y1506344D01*
X1821823Y1503804D01*
Y1496187D01*
X1826902D02*
X1831980D01*
X1829441D01*
Y1511422D01*
X1826902Y1508883D01*
X1849754Y1511422D02*
X1844676Y1508883D01*
X1839597Y1503804D01*
Y1498726D01*
X1842137Y1496187D01*
X1847215D01*
X1849754Y1498726D01*
Y1501265D01*
X1847215Y1503804D01*
X1839597D01*
X1854833Y1508883D02*
X1857372Y1511422D01*
X1862450D01*
X1864989Y1508883D01*
Y1506344D01*
X1862450Y1503804D01*
X1859911D01*
X1862450D01*
X1864989Y1501265D01*
Y1498726D01*
X1862450Y1496187D01*
X1857372D01*
X1854833Y1498726D01*
X1870068Y1496187D02*
Y1506344D01*
X1872607D01*
X1875146Y1503804D01*
Y1496187D01*
Y1503804D01*
X1877685Y1506344D01*
X1880224Y1503804D01*
Y1496187D01*
X1885303Y1506344D02*
X1895459Y1496187D01*
X1890381Y1501265D01*
X1895459Y1506344D01*
X1885303Y1496187D01*
X1900538D02*
X1905616D01*
X1903077D01*
Y1511422D01*
X1900538Y1508883D01*
X1923390Y1511422D02*
X1918312Y1508883D01*
X1913234Y1503804D01*
Y1498726D01*
X1915773Y1496187D01*
X1920851D01*
X1923390Y1498726D01*
Y1501265D01*
X1920851Y1503804D01*
X1913234D01*
X1928469Y1508883D02*
X1931008Y1511422D01*
X1936086D01*
X1938625Y1508883D01*
Y1506344D01*
X1936086Y1503804D01*
X1933547D01*
X1936086D01*
X1938625Y1501265D01*
Y1498726D01*
X1936086Y1496187D01*
X1931008D01*
X1928469Y1498726D01*
X1943704Y1491109D02*
Y1506344D01*
X1951321D01*
X1953861Y1503804D01*
Y1498726D01*
X1951321Y1496187D01*
X1943704D01*
X1958939Y1508883D02*
X1961478Y1511422D01*
X1966556D01*
X1969096Y1508883D01*
Y1498726D01*
X1966556Y1496187D01*
X1961478D01*
X1958939Y1498726D01*
Y1508883D01*
X1656777Y1468244D02*
X1649159D01*
X1646620Y1465704D01*
Y1460626D01*
X1649159Y1458087D01*
X1656777D01*
X1661855Y1470783D02*
X1664394Y1473322D01*
X1669473D01*
X1672012Y1470783D01*
Y1460626D01*
X1669473Y1458087D01*
X1664394D01*
X1661855Y1460626D01*
Y1470783D01*
X1677090Y1473322D02*
Y1458087D01*
Y1465704D01*
X1679629Y1468244D01*
X1684708D01*
X1687247Y1465704D01*
Y1458087D01*
X1692325D02*
Y1468244D01*
X1699943D01*
X1702482Y1465704D01*
Y1458087D01*
X1707560D02*
X1712639D01*
X1710099D01*
Y1473322D01*
X1707560Y1470783D01*
X1730413Y1473322D02*
X1725334Y1470783D01*
X1720256Y1465704D01*
Y1460626D01*
X1722795Y1458087D01*
X1727874D01*
X1730413Y1460626D01*
Y1463165D01*
X1727874Y1465704D01*
X1720256D01*
X1735491Y1470783D02*
X1738030Y1473322D01*
X1743109D01*
X1745648Y1470783D01*
Y1460626D01*
X1743109Y1458087D01*
X1738030D01*
X1735491Y1460626D01*
Y1470783D01*
X1656777Y1430144D02*
X1649159D01*
X1646620Y1427605D01*
Y1422526D01*
X1649159Y1419987D01*
X1656777D01*
X1669473D02*
Y1435222D01*
X1661855Y1427605D01*
X1672012D01*
X1684708Y1419987D02*
Y1435222D01*
X1677090Y1427605D01*
X1687247D01*
X1692325Y1432683D02*
X1694864Y1435222D01*
X1699943D01*
X1702482Y1432683D01*
Y1422526D01*
X1699943Y1419987D01*
X1694864D01*
X1692325Y1422526D01*
Y1432683D01*
X1707560Y1435222D02*
Y1419987D01*
Y1427605D01*
X1710099Y1430144D01*
X1715178D01*
X1717717Y1427605D01*
Y1419987D01*
X1722795Y1432683D02*
X1725334Y1435222D01*
X1730413D01*
X1732952Y1432683D01*
Y1430144D01*
X1730413Y1427605D01*
X1727874D01*
X1730413D01*
X1732952Y1425065D01*
Y1422526D01*
X1730413Y1419987D01*
X1725334D01*
X1722795Y1422526D01*
X1745648Y1419987D02*
Y1435222D01*
X1738030Y1427605D01*
X1748187D01*
X1753266Y1432683D02*
X1755805Y1435222D01*
X1760883D01*
X1763422Y1432683D01*
Y1422526D01*
X1760883Y1419987D01*
X1755805D01*
X1753266Y1422526D01*
Y1432683D01*
X1651698Y1381887D02*
X1646620Y1386965D01*
Y1392044D01*
X1651698Y1397122D01*
X1659316Y1381887D02*
Y1397122D01*
X1664394Y1392044D01*
X1669473Y1397122D01*
Y1381887D01*
X1674551D02*
X1679629D01*
X1677090D01*
Y1392044D01*
X1674551D01*
X1687247D02*
X1697404Y1381887D01*
X1692325Y1386965D01*
X1697404Y1392044D01*
X1687247Y1381887D01*
X1710099D02*
X1705021D01*
X1702482Y1384426D01*
Y1389505D01*
X1705021Y1392044D01*
X1710099D01*
X1712639Y1389505D01*
Y1386965D01*
X1702482D01*
X1727874Y1397122D02*
Y1381887D01*
X1720256D01*
X1717717Y1384426D01*
Y1389505D01*
X1720256Y1392044D01*
X1727874D01*
X1732952Y1381887D02*
X1738030Y1386965D01*
Y1392044D01*
X1732952Y1397122D01*
X1651698Y1343787D02*
X1646620Y1348865D01*
Y1353944D01*
X1651698Y1359022D01*
X1659316Y1343787D02*
Y1359022D01*
X1664394Y1353944D01*
X1669473Y1359022D01*
Y1343787D01*
X1674551D02*
X1679629D01*
X1677090D01*
Y1353944D01*
X1674551D01*
X1687247D02*
X1697404Y1343787D01*
X1692325Y1348865D01*
X1697404Y1353944D01*
X1687247Y1343787D01*
X1710099D02*
X1705021D01*
X1702482Y1346326D01*
Y1351405D01*
X1705021Y1353944D01*
X1710099D01*
X1712639Y1351405D01*
Y1348865D01*
X1702482D01*
X1727874Y1359022D02*
Y1343787D01*
X1720256D01*
X1717717Y1346326D01*
Y1351405D01*
X1720256Y1353944D01*
X1727874D01*
X1732952Y1343787D02*
X1738030Y1348865D01*
Y1353944D01*
X1732952Y1359022D01*
X1651698Y1305687D02*
X1646620Y1310765D01*
Y1315844D01*
X1651698Y1320922D01*
X1659316Y1305687D02*
Y1320922D01*
X1664394Y1315844D01*
X1669473Y1320922D01*
Y1305687D01*
X1674551D02*
X1679629D01*
X1677090D01*
Y1315844D01*
X1674551D01*
X1687247D02*
X1697404Y1305687D01*
X1692325Y1310765D01*
X1697404Y1315844D01*
X1687247Y1305687D01*
X1710099D02*
X1705021D01*
X1702482Y1308226D01*
Y1313304D01*
X1705021Y1315844D01*
X1710099D01*
X1712639Y1313304D01*
Y1310765D01*
X1702482D01*
X1727874Y1320922D02*
Y1305687D01*
X1720256D01*
X1717717Y1308226D01*
Y1313304D01*
X1720256Y1315844D01*
X1727874D01*
X1732952Y1305687D02*
X1738030Y1310765D01*
Y1315844D01*
X1732952Y1320922D01*
X1651698Y1267587D02*
X1646620Y1272665D01*
Y1277744D01*
X1651698Y1282822D01*
X1659316Y1267587D02*
Y1282822D01*
X1664394Y1277744D01*
X1669473Y1282822D01*
Y1267587D01*
X1674551D02*
X1679629D01*
X1677090D01*
Y1277744D01*
X1674551D01*
X1687247D02*
X1697404Y1267587D01*
X1692325Y1272665D01*
X1697404Y1277744D01*
X1687247Y1267587D01*
X1710099D02*
X1705021D01*
X1702482Y1270126D01*
Y1275204D01*
X1705021Y1277744D01*
X1710099D01*
X1712639Y1275204D01*
Y1272665D01*
X1702482D01*
X1727874Y1282822D02*
Y1267587D01*
X1720256D01*
X1717717Y1270126D01*
Y1275204D01*
X1720256Y1277744D01*
X1727874D01*
X1732952Y1267587D02*
X1738030Y1272665D01*
Y1277744D01*
X1732952Y1282822D01*
X1646620Y1239644D02*
X1651698Y1229487D01*
X1656777Y1239644D01*
X1661855Y1229487D02*
X1666933D01*
X1664394D01*
Y1244722D01*
X1661855Y1242183D01*
X1674551D02*
X1677090Y1244722D01*
X1682168D01*
X1684708Y1242183D01*
Y1232026D01*
X1682168Y1229487D01*
X1677090D01*
X1674551Y1232026D01*
Y1242183D01*
X1689786D02*
X1692325Y1244722D01*
X1697404D01*
X1699943Y1242183D01*
Y1232026D01*
X1697404Y1229487D01*
X1692325D01*
X1689786Y1232026D01*
Y1242183D01*
X1705021Y1244722D02*
Y1229487D01*
Y1237104D01*
X1707560Y1239644D01*
X1712639D01*
X1715178Y1237104D01*
Y1229487D01*
X1730413Y1244722D02*
X1720256D01*
Y1237104D01*
X1725334Y1239644D01*
X1727874D01*
X1730413Y1237104D01*
Y1232026D01*
X1727874Y1229487D01*
X1722795D01*
X1720256Y1232026D01*
X1735491Y1242183D02*
X1738030Y1244722D01*
X1743109D01*
X1745648Y1242183D01*
Y1232026D01*
X1743109Y1229487D01*
X1738030D01*
X1735491Y1232026D01*
Y1242183D01*
X1750726Y1229487D02*
Y1239644D01*
X1753266D01*
X1755805Y1237104D01*
Y1229487D01*
Y1237104D01*
X1758344Y1239644D01*
X1760883Y1237104D01*
Y1229487D01*
X1765961Y1242183D02*
X1768501Y1244722D01*
X1773579D01*
X1776118Y1242183D01*
Y1232026D01*
X1773579Y1229487D01*
X1768501D01*
X1765961Y1232026D01*
Y1242183D01*
X1781196Y1229487D02*
Y1239644D01*
X1783736D01*
X1786275Y1237104D01*
Y1229487D01*
Y1237104D01*
X1788814Y1239644D01*
X1791353Y1237104D01*
Y1229487D01*
X1796431Y1239644D02*
X1806588Y1229487D01*
X1801510Y1234565D01*
X1806588Y1239644D01*
X1796431Y1229487D01*
X1811667Y1242183D02*
X1814206Y1244722D01*
X1819284D01*
X1821823Y1242183D01*
Y1232026D01*
X1819284Y1229487D01*
X1814206D01*
X1811667Y1232026D01*
Y1242183D01*
X1457187Y1610487D02*
Y1625722D01*
X1464805D01*
X1467344Y1623183D01*
Y1618105D01*
X1464805Y1615565D01*
X1457187D01*
X1462266D02*
X1467344Y1610487D01*
X1474962D02*
X1480040D01*
X1482579Y1613026D01*
Y1618105D01*
X1480040Y1620644D01*
X1474962D01*
X1472422Y1618105D01*
Y1613026D01*
X1474962Y1610487D01*
X1487657Y1620644D02*
Y1613026D01*
X1490197Y1610487D01*
X1497814D01*
Y1620644D01*
X1502892Y1610487D02*
Y1620644D01*
X1510510D01*
X1513049Y1618105D01*
Y1610487D01*
X1528284Y1625722D02*
Y1610487D01*
X1520667D01*
X1518127Y1613026D01*
Y1618105D01*
X1520667Y1620644D01*
X1528284D01*
X1540980Y1610487D02*
X1535902D01*
X1533363Y1613026D01*
Y1618105D01*
X1535902Y1620644D01*
X1540980D01*
X1543519Y1618105D01*
Y1615565D01*
X1533363D01*
X1558754Y1625722D02*
Y1610487D01*
X1551137D01*
X1548598Y1613026D01*
Y1618105D01*
X1551137Y1620644D01*
X1558754D01*
X1457187Y1572387D02*
Y1587622D01*
X1464805D01*
X1467344Y1585083D01*
Y1580004D01*
X1464805Y1577465D01*
X1457187D01*
X1462266D02*
X1467344Y1572387D01*
X1474962D02*
X1480040D01*
X1482579Y1574926D01*
Y1580004D01*
X1480040Y1582544D01*
X1474962D01*
X1472422Y1580004D01*
Y1574926D01*
X1474962Y1572387D01*
X1487657Y1582544D02*
Y1574926D01*
X1490197Y1572387D01*
X1497814D01*
Y1582544D01*
X1502892Y1572387D02*
Y1582544D01*
X1510510D01*
X1513049Y1580004D01*
Y1572387D01*
X1528284Y1587622D02*
Y1572387D01*
X1520667D01*
X1518127Y1574926D01*
Y1580004D01*
X1520667Y1582544D01*
X1528284D01*
X1540980Y1572387D02*
X1535902D01*
X1533363Y1574926D01*
Y1580004D01*
X1535902Y1582544D01*
X1540980D01*
X1543519Y1580004D01*
Y1577465D01*
X1533363D01*
X1558754Y1587622D02*
Y1572387D01*
X1551137D01*
X1548598Y1574926D01*
Y1580004D01*
X1551137Y1582544D01*
X1558754D01*
X1462266Y1534287D02*
X1457187Y1539365D01*
Y1544444D01*
X1462266Y1549522D01*
X1469883Y1534287D02*
Y1549522D01*
X1474962Y1544444D01*
X1480040Y1549522D01*
Y1534287D01*
X1485118D02*
X1490197D01*
X1487657D01*
Y1544444D01*
X1485118D01*
X1497814D02*
X1507971Y1534287D01*
X1502892Y1539365D01*
X1507971Y1544444D01*
X1497814Y1534287D01*
X1520667D02*
X1515588D01*
X1513049Y1536826D01*
Y1541904D01*
X1515588Y1544444D01*
X1520667D01*
X1523206Y1541904D01*
Y1539365D01*
X1513049D01*
X1538441Y1549522D02*
Y1534287D01*
X1530823D01*
X1528284Y1536826D01*
Y1541904D01*
X1530823Y1544444D01*
X1538441D01*
X1543519Y1534287D02*
X1548598Y1539365D01*
Y1544444D01*
X1543519Y1549522D01*
X1457187Y1496187D02*
Y1511422D01*
X1464805D01*
X1467344Y1508883D01*
Y1503804D01*
X1464805Y1501265D01*
X1457187D01*
X1462266D02*
X1467344Y1496187D01*
X1474962D02*
X1480040D01*
X1482579Y1498726D01*
Y1503804D01*
X1480040Y1506344D01*
X1474962D01*
X1472422Y1503804D01*
Y1498726D01*
X1474962Y1496187D01*
X1487657Y1506344D02*
Y1498726D01*
X1490197Y1496187D01*
X1497814D01*
Y1506344D01*
X1502892Y1496187D02*
Y1506344D01*
X1510510D01*
X1513049Y1503804D01*
Y1496187D01*
X1528284Y1511422D02*
Y1496187D01*
X1520667D01*
X1518127Y1498726D01*
Y1503804D01*
X1520667Y1506344D01*
X1528284D01*
X1540980Y1496187D02*
X1535902D01*
X1533363Y1498726D01*
Y1503804D01*
X1535902Y1506344D01*
X1540980D01*
X1543519Y1503804D01*
Y1501265D01*
X1533363D01*
X1558754Y1511422D02*
Y1496187D01*
X1551137D01*
X1548598Y1498726D01*
Y1503804D01*
X1551137Y1506344D01*
X1558754D01*
X1457187Y1458087D02*
Y1473322D01*
X1464805D01*
X1467344Y1470783D01*
Y1465704D01*
X1464805Y1463165D01*
X1457187D01*
X1462266D02*
X1467344Y1458087D01*
X1474962D02*
X1480040D01*
X1482579Y1460626D01*
Y1465704D01*
X1480040Y1468244D01*
X1474962D01*
X1472422Y1465704D01*
Y1460626D01*
X1474962Y1458087D01*
X1487657Y1468244D02*
Y1460626D01*
X1490197Y1458087D01*
X1497814D01*
Y1468244D01*
X1502892Y1458087D02*
Y1468244D01*
X1510510D01*
X1513049Y1465704D01*
Y1458087D01*
X1528284Y1473322D02*
Y1458087D01*
X1520667D01*
X1518127Y1460626D01*
Y1465704D01*
X1520667Y1468244D01*
X1528284D01*
X1540980Y1458087D02*
X1535902D01*
X1533363Y1460626D01*
Y1465704D01*
X1535902Y1468244D01*
X1540980D01*
X1543519Y1465704D01*
Y1463165D01*
X1533363D01*
X1558754Y1473322D02*
Y1458087D01*
X1551137D01*
X1548598Y1460626D01*
Y1465704D01*
X1551137Y1468244D01*
X1558754D01*
X1457187Y1419987D02*
Y1435222D01*
X1464805D01*
X1467344Y1432683D01*
Y1427605D01*
X1464805Y1425065D01*
X1457187D01*
X1462266D02*
X1467344Y1419987D01*
X1474962D02*
X1480040D01*
X1482579Y1422526D01*
Y1427605D01*
X1480040Y1430144D01*
X1474962D01*
X1472422Y1427605D01*
Y1422526D01*
X1474962Y1419987D01*
X1487657Y1430144D02*
Y1422526D01*
X1490197Y1419987D01*
X1497814D01*
Y1430144D01*
X1502892Y1419987D02*
Y1430144D01*
X1510510D01*
X1513049Y1427605D01*
Y1419987D01*
X1528284Y1435222D02*
Y1419987D01*
X1520667D01*
X1518127Y1422526D01*
Y1427605D01*
X1520667Y1430144D01*
X1528284D01*
X1540980Y1419987D02*
X1535902D01*
X1533363Y1422526D01*
Y1427605D01*
X1535902Y1430144D01*
X1540980D01*
X1543519Y1427605D01*
Y1425065D01*
X1533363D01*
X1558754Y1435222D02*
Y1419987D01*
X1551137D01*
X1548598Y1422526D01*
Y1427605D01*
X1551137Y1430144D01*
X1558754D01*
X1462266Y1381887D02*
X1457187Y1386965D01*
Y1392044D01*
X1462266Y1397122D01*
X1469883Y1381887D02*
Y1397122D01*
X1474962Y1392044D01*
X1480040Y1397122D01*
Y1381887D01*
X1485118D02*
X1490197D01*
X1487657D01*
Y1392044D01*
X1485118D01*
X1497814D02*
X1507971Y1381887D01*
X1502892Y1386965D01*
X1507971Y1392044D01*
X1497814Y1381887D01*
X1520667D02*
X1515588D01*
X1513049Y1384426D01*
Y1389505D01*
X1515588Y1392044D01*
X1520667D01*
X1523206Y1389505D01*
Y1386965D01*
X1513049D01*
X1538441Y1397122D02*
Y1381887D01*
X1530823D01*
X1528284Y1384426D01*
Y1389505D01*
X1530823Y1392044D01*
X1538441D01*
X1543519Y1381887D02*
X1548598Y1386965D01*
Y1392044D01*
X1543519Y1397122D01*
X1457187Y1343787D02*
Y1359022D01*
X1464805D01*
X1467344Y1356483D01*
Y1351405D01*
X1464805Y1348865D01*
X1457187D01*
X1462266D02*
X1467344Y1343787D01*
X1474962D02*
X1480040D01*
X1482579Y1346326D01*
Y1351405D01*
X1480040Y1353944D01*
X1474962D01*
X1472422Y1351405D01*
Y1346326D01*
X1474962Y1343787D01*
X1487657Y1353944D02*
Y1346326D01*
X1490197Y1343787D01*
X1497814D01*
Y1353944D01*
X1502892Y1343787D02*
Y1353944D01*
X1510510D01*
X1513049Y1351405D01*
Y1343787D01*
X1528284Y1359022D02*
Y1343787D01*
X1520667D01*
X1518127Y1346326D01*
Y1351405D01*
X1520667Y1353944D01*
X1528284D01*
X1540980Y1343787D02*
X1535902D01*
X1533363Y1346326D01*
Y1351405D01*
X1535902Y1353944D01*
X1540980D01*
X1543519Y1351405D01*
Y1348865D01*
X1533363D01*
X1558754Y1359022D02*
Y1343787D01*
X1551137D01*
X1548598Y1346326D01*
Y1351405D01*
X1551137Y1353944D01*
X1558754D01*
X1462266Y1305687D02*
X1457187Y1310765D01*
Y1315844D01*
X1462266Y1320922D01*
X1469883Y1305687D02*
Y1320922D01*
X1474962Y1315844D01*
X1480040Y1320922D01*
Y1305687D01*
X1485118D02*
X1490197D01*
X1487657D01*
Y1315844D01*
X1485118D01*
X1497814D02*
X1507971Y1305687D01*
X1502892Y1310765D01*
X1507971Y1315844D01*
X1497814Y1305687D01*
X1520667D02*
X1515588D01*
X1513049Y1308226D01*
Y1313304D01*
X1515588Y1315844D01*
X1520667D01*
X1523206Y1313304D01*
Y1310765D01*
X1513049D01*
X1538441Y1320922D02*
Y1305687D01*
X1530823D01*
X1528284Y1308226D01*
Y1313304D01*
X1530823Y1315844D01*
X1538441D01*
X1543519Y1305687D02*
X1548598Y1310765D01*
Y1315844D01*
X1543519Y1320922D01*
X1462266Y1267587D02*
X1457187Y1272665D01*
Y1277744D01*
X1462266Y1282822D01*
X1469883Y1267587D02*
Y1282822D01*
X1474962Y1277744D01*
X1480040Y1282822D01*
Y1267587D01*
X1485118D02*
X1490197D01*
X1487657D01*
Y1277744D01*
X1485118D01*
X1497814D02*
X1507971Y1267587D01*
X1502892Y1272665D01*
X1507971Y1277744D01*
X1497814Y1267587D01*
X1520667D02*
X1515588D01*
X1513049Y1270126D01*
Y1275204D01*
X1515588Y1277744D01*
X1520667D01*
X1523206Y1275204D01*
Y1272665D01*
X1513049D01*
X1538441Y1282822D02*
Y1267587D01*
X1530823D01*
X1528284Y1270126D01*
Y1275204D01*
X1530823Y1277744D01*
X1538441D01*
X1543519Y1267587D02*
X1548598Y1272665D01*
Y1277744D01*
X1543519Y1282822D01*
X1457187Y1229487D02*
Y1244722D01*
X1464805D01*
X1467344Y1242183D01*
Y1237104D01*
X1464805Y1234565D01*
X1457187D01*
X1462266D02*
X1467344Y1229487D01*
X1474962D02*
X1480040D01*
X1482579Y1232026D01*
Y1237104D01*
X1480040Y1239644D01*
X1474962D01*
X1472422Y1237104D01*
Y1232026D01*
X1474962Y1229487D01*
X1487657Y1239644D02*
Y1232026D01*
X1490197Y1229487D01*
X1497814D01*
Y1239644D01*
X1502892Y1229487D02*
Y1239644D01*
X1510510D01*
X1513049Y1237104D01*
Y1229487D01*
X1528284Y1244722D02*
Y1229487D01*
X1520667D01*
X1518127Y1232026D01*
Y1237104D01*
X1520667Y1239644D01*
X1528284D01*
X1540980Y1229487D02*
X1535902D01*
X1533363Y1232026D01*
Y1237104D01*
X1535902Y1239644D01*
X1540980D01*
X1543519Y1237104D01*
Y1234565D01*
X1533363D01*
X1558754Y1244722D02*
Y1229487D01*
X1551137D01*
X1548598Y1232026D01*
Y1237104D01*
X1551137Y1239644D01*
X1558754D01*
X1307366Y1610487D02*
Y1625722D01*
X1314983D01*
X1317522Y1623183D01*
Y1618105D01*
X1314983Y1615565D01*
X1307366D01*
X1325140Y1620644D02*
X1330218D01*
X1332758Y1618105D01*
Y1610487D01*
X1325140D01*
X1322601Y1613026D01*
X1325140Y1615565D01*
X1332758D01*
X1347993Y1625722D02*
Y1610487D01*
X1340375D01*
X1337836Y1613026D01*
Y1618105D01*
X1340375Y1620644D01*
X1347993D01*
X1307366Y1572387D02*
Y1587622D01*
X1314983D01*
X1317522Y1585083D01*
Y1580004D01*
X1314983Y1577465D01*
X1307366D01*
X1325140Y1582544D02*
X1330218D01*
X1332758Y1580004D01*
Y1572387D01*
X1325140D01*
X1322601Y1574926D01*
X1325140Y1577465D01*
X1332758D01*
X1347993Y1587622D02*
Y1572387D01*
X1340375D01*
X1337836Y1574926D01*
Y1580004D01*
X1340375Y1582544D01*
X1347993D01*
X1307366Y1534287D02*
Y1549522D01*
X1314983D01*
X1317522Y1546983D01*
Y1541904D01*
X1314983Y1539365D01*
X1307366D01*
X1325140Y1544444D02*
X1330218D01*
X1332758Y1541904D01*
Y1534287D01*
X1325140D01*
X1322601Y1536826D01*
X1325140Y1539365D01*
X1332758D01*
X1347993Y1549522D02*
Y1534287D01*
X1340375D01*
X1337836Y1536826D01*
Y1541904D01*
X1340375Y1544444D01*
X1347993D01*
X1307366Y1496187D02*
Y1511422D01*
X1314983D01*
X1317522Y1508883D01*
Y1503804D01*
X1314983Y1501265D01*
X1307366D01*
X1325140Y1506344D02*
X1330218D01*
X1332758Y1503804D01*
Y1496187D01*
X1325140D01*
X1322601Y1498726D01*
X1325140Y1501265D01*
X1332758D01*
X1347993Y1511422D02*
Y1496187D01*
X1340375D01*
X1337836Y1498726D01*
Y1503804D01*
X1340375Y1506344D01*
X1347993D01*
X1307366Y1458087D02*
Y1473322D01*
X1314983D01*
X1317522Y1470783D01*
Y1465704D01*
X1314983Y1463165D01*
X1307366D01*
X1325140Y1468244D02*
X1330218D01*
X1332758Y1465704D01*
Y1458087D01*
X1325140D01*
X1322601Y1460626D01*
X1325140Y1463165D01*
X1332758D01*
X1347993Y1473322D02*
Y1458087D01*
X1340375D01*
X1337836Y1460626D01*
Y1465704D01*
X1340375Y1468244D01*
X1347993D01*
X1307366Y1419987D02*
Y1435222D01*
X1314983D01*
X1317522Y1432683D01*
Y1427605D01*
X1314983Y1425065D01*
X1307366D01*
X1325140Y1430144D02*
X1330218D01*
X1332758Y1427605D01*
Y1419987D01*
X1325140D01*
X1322601Y1422526D01*
X1325140Y1425065D01*
X1332758D01*
X1347993Y1435222D02*
Y1419987D01*
X1340375D01*
X1337836Y1422526D01*
Y1427605D01*
X1340375Y1430144D01*
X1347993D01*
X1307366Y1381887D02*
Y1397122D01*
X1314983D01*
X1317522Y1394583D01*
Y1389505D01*
X1314983Y1386965D01*
X1307366D01*
X1325140Y1392044D02*
X1330218D01*
X1332758Y1389505D01*
Y1381887D01*
X1325140D01*
X1322601Y1384426D01*
X1325140Y1386965D01*
X1332758D01*
X1347993Y1397122D02*
Y1381887D01*
X1340375D01*
X1337836Y1384426D01*
Y1389505D01*
X1340375Y1392044D01*
X1347993D01*
X1307366Y1343787D02*
Y1359022D01*
X1314983D01*
X1317522Y1356483D01*
Y1351405D01*
X1314983Y1348865D01*
X1307366D01*
X1325140Y1353944D02*
X1330218D01*
X1332758Y1351405D01*
Y1343787D01*
X1325140D01*
X1322601Y1346326D01*
X1325140Y1348865D01*
X1332758D01*
X1347993Y1359022D02*
Y1343787D01*
X1340375D01*
X1337836Y1346326D01*
Y1351405D01*
X1340375Y1353944D01*
X1347993D01*
X1307366Y1305687D02*
Y1320922D01*
X1314983D01*
X1317522Y1318383D01*
Y1313304D01*
X1314983Y1310765D01*
X1307366D01*
X1325140Y1315844D02*
X1330218D01*
X1332758Y1313304D01*
Y1305687D01*
X1325140D01*
X1322601Y1308226D01*
X1325140Y1310765D01*
X1332758D01*
X1347993Y1320922D02*
Y1305687D01*
X1340375D01*
X1337836Y1308226D01*
Y1313304D01*
X1340375Y1315844D01*
X1347993D01*
X1307366Y1267587D02*
Y1282822D01*
X1314983D01*
X1317522Y1280283D01*
Y1275204D01*
X1314983Y1272665D01*
X1307366D01*
X1325140Y1277744D02*
X1330218D01*
X1332758Y1275204D01*
Y1267587D01*
X1325140D01*
X1322601Y1270126D01*
X1325140Y1272665D01*
X1332758D01*
X1347993Y1282822D02*
Y1267587D01*
X1340375D01*
X1337836Y1270126D01*
Y1275204D01*
X1340375Y1277744D01*
X1347993D01*
X1307366Y1244722D02*
Y1234565D01*
X1312444Y1229487D01*
X1317522Y1234565D01*
Y1244722D01*
X1322601Y1229487D02*
X1327679D01*
X1325140D01*
Y1239644D01*
X1322601D01*
X1337836D02*
X1342914D01*
X1345453Y1237104D01*
Y1229487D01*
X1337836D01*
X1335297Y1232026D01*
X1337836Y1234565D01*
X1345453D01*
X926480Y1625722D02*
X936637D01*
X931558D01*
Y1610487D01*
X944254D02*
X949333D01*
X951872Y1613026D01*
Y1618105D01*
X949333Y1620644D01*
X944254D01*
X941715Y1618105D01*
Y1613026D01*
X944254Y1610487D01*
X956950Y1605409D02*
Y1620644D01*
X964567D01*
X967107Y1618105D01*
Y1613026D01*
X964567Y1610487D01*
X956950D01*
X987420Y1625722D02*
Y1610487D01*
X997577D01*
X1005194Y1620644D02*
X1010273D01*
X1012812Y1618105D01*
Y1610487D01*
X1005194D01*
X1002655Y1613026D01*
X1005194Y1615565D01*
X1012812D01*
X1017890Y1620644D02*
Y1613026D01*
X1020430Y1610487D01*
X1028047D01*
Y1607948D01*
X1025508Y1605409D01*
X1022969D01*
X1028047Y1610487D02*
Y1620644D01*
X1040743Y1610487D02*
X1035665D01*
X1033125Y1613026D01*
Y1618105D01*
X1035665Y1620644D01*
X1040743D01*
X1043282Y1618105D01*
Y1615565D01*
X1033125D01*
X1048360Y1620644D02*
Y1610487D01*
Y1615565D01*
X1050900Y1618105D01*
X1053439Y1620644D01*
X1055978D01*
X1078831Y1618105D02*
X1088987D01*
X1109301Y1625722D02*
Y1610487D01*
X1116918D01*
X1119457Y1613026D01*
Y1615565D01*
X1116918Y1618105D01*
X1109301D01*
X1116918D01*
X1119457Y1620644D01*
Y1623183D01*
X1116918Y1625722D01*
X1109301D01*
X1127075Y1610487D02*
X1132153D01*
X1134693Y1613026D01*
Y1618105D01*
X1132153Y1620644D01*
X1127075D01*
X1124536Y1618105D01*
Y1613026D01*
X1127075Y1610487D01*
X1142310Y1623183D02*
Y1620644D01*
X1139771D01*
X1144849D01*
X1142310D01*
Y1613026D01*
X1144849Y1610487D01*
X1155006Y1623183D02*
Y1620644D01*
X1152467D01*
X1157545D01*
X1155006D01*
Y1613026D01*
X1157545Y1610487D01*
X1167702D02*
X1172780D01*
X1175319Y1613026D01*
Y1618105D01*
X1172780Y1620644D01*
X1167702D01*
X1165163Y1618105D01*
Y1613026D01*
X1167702Y1610487D01*
X1180398D02*
Y1620644D01*
X1182937D01*
X1185476Y1618105D01*
Y1610487D01*
Y1618105D01*
X1188015Y1620644D01*
X1190554Y1618105D01*
Y1610487D01*
X1210868Y1625722D02*
Y1610487D01*
X1221025D01*
X1228642Y1620644D02*
X1233720D01*
X1236260Y1618105D01*
Y1610487D01*
X1228642D01*
X1226103Y1613026D01*
X1228642Y1615565D01*
X1236260D01*
X1241338Y1620644D02*
Y1613026D01*
X1243877Y1610487D01*
X1251495D01*
Y1607948D01*
X1248956Y1605409D01*
X1246416D01*
X1251495Y1610487D02*
Y1620644D01*
X1264191Y1610487D02*
X1259112D01*
X1256573Y1613026D01*
Y1618105D01*
X1259112Y1620644D01*
X1264191D01*
X1266730Y1618105D01*
Y1615565D01*
X1256573D01*
X1271808Y1620644D02*
Y1610487D01*
Y1615565D01*
X1274347Y1618105D01*
X1276887Y1620644D01*
X1279426D01*
X926480Y1587622D02*
X936637D01*
X931558D01*
Y1572387D01*
X944254D02*
X949333D01*
X951872Y1574926D01*
Y1580004D01*
X949333Y1582544D01*
X944254D01*
X941715Y1580004D01*
Y1574926D01*
X944254Y1572387D01*
X956950Y1567309D02*
Y1582544D01*
X964567D01*
X967107Y1580004D01*
Y1574926D01*
X964567Y1572387D01*
X956950D01*
X987420Y1587622D02*
Y1572387D01*
X997577D01*
X1005194Y1582544D02*
X1010273D01*
X1012812Y1580004D01*
Y1572387D01*
X1005194D01*
X1002655Y1574926D01*
X1005194Y1577465D01*
X1012812D01*
X1017890Y1582544D02*
Y1574926D01*
X1020430Y1572387D01*
X1028047D01*
Y1569848D01*
X1025508Y1567309D01*
X1022969D01*
X1028047Y1572387D02*
Y1582544D01*
X1040743Y1572387D02*
X1035665D01*
X1033125Y1574926D01*
Y1580004D01*
X1035665Y1582544D01*
X1040743D01*
X1043282Y1580004D01*
Y1577465D01*
X1033125D01*
X1048360Y1582544D02*
Y1572387D01*
Y1577465D01*
X1050900Y1580004D01*
X1053439Y1582544D01*
X1055978D01*
X1078831Y1580004D02*
X1088987D01*
X1109301Y1587622D02*
Y1572387D01*
X1116918D01*
X1119457Y1574926D01*
Y1577465D01*
X1116918Y1580004D01*
X1109301D01*
X1116918D01*
X1119457Y1582544D01*
Y1585083D01*
X1116918Y1587622D01*
X1109301D01*
X1127075Y1572387D02*
X1132153D01*
X1134693Y1574926D01*
Y1580004D01*
X1132153Y1582544D01*
X1127075D01*
X1124536Y1580004D01*
Y1574926D01*
X1127075Y1572387D01*
X1142310Y1585083D02*
Y1582544D01*
X1139771D01*
X1144849D01*
X1142310D01*
Y1574926D01*
X1144849Y1572387D01*
X1155006Y1585083D02*
Y1582544D01*
X1152467D01*
X1157545D01*
X1155006D01*
Y1574926D01*
X1157545Y1572387D01*
X1167702D02*
X1172780D01*
X1175319Y1574926D01*
Y1580004D01*
X1172780Y1582544D01*
X1167702D01*
X1165163Y1580004D01*
Y1574926D01*
X1167702Y1572387D01*
X1180398D02*
Y1582544D01*
X1182937D01*
X1185476Y1580004D01*
Y1572387D01*
Y1580004D01*
X1188015Y1582544D01*
X1190554Y1580004D01*
Y1572387D01*
X1210868Y1587622D02*
Y1572387D01*
X1221025D01*
X1228642Y1582544D02*
X1233720D01*
X1236260Y1580004D01*
Y1572387D01*
X1228642D01*
X1226103Y1574926D01*
X1228642Y1577465D01*
X1236260D01*
X1241338Y1582544D02*
Y1574926D01*
X1243877Y1572387D01*
X1251495D01*
Y1569848D01*
X1248956Y1567309D01*
X1246416D01*
X1251495Y1572387D02*
Y1582544D01*
X1264191Y1572387D02*
X1259112D01*
X1256573Y1574926D01*
Y1580004D01*
X1259112Y1582544D01*
X1264191D01*
X1266730Y1580004D01*
Y1577465D01*
X1256573D01*
X1271808Y1582544D02*
Y1572387D01*
Y1577465D01*
X1274347Y1580004D01*
X1276887Y1582544D01*
X1279426D01*
X926480Y1549522D02*
X936637D01*
X931558D01*
Y1534287D01*
X944254D02*
X949333D01*
X951872Y1536826D01*
Y1541904D01*
X949333Y1544444D01*
X944254D01*
X941715Y1541904D01*
Y1536826D01*
X944254Y1534287D01*
X956950Y1529209D02*
Y1544444D01*
X964567D01*
X967107Y1541904D01*
Y1536826D01*
X964567Y1534287D01*
X956950D01*
X987420Y1549522D02*
Y1534287D01*
X997577D01*
X1005194Y1544444D02*
X1010273D01*
X1012812Y1541904D01*
Y1534287D01*
X1005194D01*
X1002655Y1536826D01*
X1005194Y1539365D01*
X1012812D01*
X1017890Y1544444D02*
Y1536826D01*
X1020430Y1534287D01*
X1028047D01*
Y1531748D01*
X1025508Y1529209D01*
X1022969D01*
X1028047Y1534287D02*
Y1544444D01*
X1040743Y1534287D02*
X1035665D01*
X1033125Y1536826D01*
Y1541904D01*
X1035665Y1544444D01*
X1040743D01*
X1043282Y1541904D01*
Y1539365D01*
X1033125D01*
X1048360Y1544444D02*
Y1534287D01*
Y1539365D01*
X1050900Y1541904D01*
X1053439Y1544444D01*
X1055978D01*
X1078831Y1541904D02*
X1088987D01*
X1109301Y1549522D02*
Y1534287D01*
X1116918D01*
X1119457Y1536826D01*
Y1539365D01*
X1116918Y1541904D01*
X1109301D01*
X1116918D01*
X1119457Y1544444D01*
Y1546983D01*
X1116918Y1549522D01*
X1109301D01*
X1127075Y1534287D02*
X1132153D01*
X1134693Y1536826D01*
Y1541904D01*
X1132153Y1544444D01*
X1127075D01*
X1124536Y1541904D01*
Y1536826D01*
X1127075Y1534287D01*
X1142310Y1546983D02*
Y1544444D01*
X1139771D01*
X1144849D01*
X1142310D01*
Y1536826D01*
X1144849Y1534287D01*
X1155006Y1546983D02*
Y1544444D01*
X1152467D01*
X1157545D01*
X1155006D01*
Y1536826D01*
X1157545Y1534287D01*
X1167702D02*
X1172780D01*
X1175319Y1536826D01*
Y1541904D01*
X1172780Y1544444D01*
X1167702D01*
X1165163Y1541904D01*
Y1536826D01*
X1167702Y1534287D01*
X1180398D02*
Y1544444D01*
X1182937D01*
X1185476Y1541904D01*
Y1534287D01*
Y1541904D01*
X1188015Y1544444D01*
X1190554Y1541904D01*
Y1534287D01*
X1210868Y1549522D02*
Y1534287D01*
X1221025D01*
X1228642Y1544444D02*
X1233720D01*
X1236260Y1541904D01*
Y1534287D01*
X1228642D01*
X1226103Y1536826D01*
X1228642Y1539365D01*
X1236260D01*
X1241338Y1544444D02*
Y1536826D01*
X1243877Y1534287D01*
X1251495D01*
Y1531748D01*
X1248956Y1529209D01*
X1246416D01*
X1251495Y1534287D02*
Y1544444D01*
X1264191Y1534287D02*
X1259112D01*
X1256573Y1536826D01*
Y1541904D01*
X1259112Y1544444D01*
X1264191D01*
X1266730Y1541904D01*
Y1539365D01*
X1256573D01*
X1271808Y1544444D02*
Y1534287D01*
Y1539365D01*
X1274347Y1541904D01*
X1276887Y1544444D01*
X1279426D01*
X926480Y1511422D02*
X936637D01*
X931558D01*
Y1496187D01*
X944254D02*
X949333D01*
X951872Y1498726D01*
Y1503804D01*
X949333Y1506344D01*
X944254D01*
X941715Y1503804D01*
Y1498726D01*
X944254Y1496187D01*
X956950Y1491109D02*
Y1506344D01*
X964567D01*
X967107Y1503804D01*
Y1498726D01*
X964567Y1496187D01*
X956950D01*
X987420Y1511422D02*
Y1496187D01*
X997577D01*
X1005194Y1506344D02*
X1010273D01*
X1012812Y1503804D01*
Y1496187D01*
X1005194D01*
X1002655Y1498726D01*
X1005194Y1501265D01*
X1012812D01*
X1017890Y1506344D02*
Y1498726D01*
X1020430Y1496187D01*
X1028047D01*
Y1493648D01*
X1025508Y1491109D01*
X1022969D01*
X1028047Y1496187D02*
Y1506344D01*
X1040743Y1496187D02*
X1035665D01*
X1033125Y1498726D01*
Y1503804D01*
X1035665Y1506344D01*
X1040743D01*
X1043282Y1503804D01*
Y1501265D01*
X1033125D01*
X1048360Y1506344D02*
Y1496187D01*
Y1501265D01*
X1050900Y1503804D01*
X1053439Y1506344D01*
X1055978D01*
X1078831Y1503804D02*
X1088987D01*
X1109301Y1511422D02*
Y1496187D01*
X1116918D01*
X1119457Y1498726D01*
Y1501265D01*
X1116918Y1503804D01*
X1109301D01*
X1116918D01*
X1119457Y1506344D01*
Y1508883D01*
X1116918Y1511422D01*
X1109301D01*
X1127075Y1496187D02*
X1132153D01*
X1134693Y1498726D01*
Y1503804D01*
X1132153Y1506344D01*
X1127075D01*
X1124536Y1503804D01*
Y1498726D01*
X1127075Y1496187D01*
X1142310Y1508883D02*
Y1506344D01*
X1139771D01*
X1144849D01*
X1142310D01*
Y1498726D01*
X1144849Y1496187D01*
X1155006Y1508883D02*
Y1506344D01*
X1152467D01*
X1157545D01*
X1155006D01*
Y1498726D01*
X1157545Y1496187D01*
X1167702D02*
X1172780D01*
X1175319Y1498726D01*
Y1503804D01*
X1172780Y1506344D01*
X1167702D01*
X1165163Y1503804D01*
Y1498726D01*
X1167702Y1496187D01*
X1180398D02*
Y1506344D01*
X1182937D01*
X1185476Y1503804D01*
Y1496187D01*
Y1503804D01*
X1188015Y1506344D01*
X1190554Y1503804D01*
Y1496187D01*
X1210868Y1511422D02*
Y1496187D01*
X1221025D01*
X1228642Y1506344D02*
X1233720D01*
X1236260Y1503804D01*
Y1496187D01*
X1228642D01*
X1226103Y1498726D01*
X1228642Y1501265D01*
X1236260D01*
X1241338Y1506344D02*
Y1498726D01*
X1243877Y1496187D01*
X1251495D01*
Y1493648D01*
X1248956Y1491109D01*
X1246416D01*
X1251495Y1496187D02*
Y1506344D01*
X1264191Y1496187D02*
X1259112D01*
X1256573Y1498726D01*
Y1503804D01*
X1259112Y1506344D01*
X1264191D01*
X1266730Y1503804D01*
Y1501265D01*
X1256573D01*
X1271808Y1506344D02*
Y1496187D01*
Y1501265D01*
X1274347Y1503804D01*
X1276887Y1506344D01*
X1279426D01*
X926480Y1473322D02*
X936637D01*
X931558D01*
Y1458087D01*
X944254D02*
X949333D01*
X951872Y1460626D01*
Y1465704D01*
X949333Y1468244D01*
X944254D01*
X941715Y1465704D01*
Y1460626D01*
X944254Y1458087D01*
X956950Y1453009D02*
Y1468244D01*
X964567D01*
X967107Y1465704D01*
Y1460626D01*
X964567Y1458087D01*
X956950D01*
X987420Y1473322D02*
Y1458087D01*
X997577D01*
X1005194Y1468244D02*
X1010273D01*
X1012812Y1465704D01*
Y1458087D01*
X1005194D01*
X1002655Y1460626D01*
X1005194Y1463165D01*
X1012812D01*
X1017890Y1468244D02*
Y1460626D01*
X1020430Y1458087D01*
X1028047D01*
Y1455548D01*
X1025508Y1453009D01*
X1022969D01*
X1028047Y1458087D02*
Y1468244D01*
X1040743Y1458087D02*
X1035665D01*
X1033125Y1460626D01*
Y1465704D01*
X1035665Y1468244D01*
X1040743D01*
X1043282Y1465704D01*
Y1463165D01*
X1033125D01*
X1048360Y1468244D02*
Y1458087D01*
Y1463165D01*
X1050900Y1465704D01*
X1053439Y1468244D01*
X1055978D01*
X1078831Y1465704D02*
X1088987D01*
X1109301Y1473322D02*
Y1458087D01*
X1116918D01*
X1119457Y1460626D01*
Y1463165D01*
X1116918Y1465704D01*
X1109301D01*
X1116918D01*
X1119457Y1468244D01*
Y1470783D01*
X1116918Y1473322D01*
X1109301D01*
X1127075Y1458087D02*
X1132153D01*
X1134693Y1460626D01*
Y1465704D01*
X1132153Y1468244D01*
X1127075D01*
X1124536Y1465704D01*
Y1460626D01*
X1127075Y1458087D01*
X1142310Y1470783D02*
Y1468244D01*
X1139771D01*
X1144849D01*
X1142310D01*
Y1460626D01*
X1144849Y1458087D01*
X1155006Y1470783D02*
Y1468244D01*
X1152467D01*
X1157545D01*
X1155006D01*
Y1460626D01*
X1157545Y1458087D01*
X1167702D02*
X1172780D01*
X1175319Y1460626D01*
Y1465704D01*
X1172780Y1468244D01*
X1167702D01*
X1165163Y1465704D01*
Y1460626D01*
X1167702Y1458087D01*
X1180398D02*
Y1468244D01*
X1182937D01*
X1185476Y1465704D01*
Y1458087D01*
Y1465704D01*
X1188015Y1468244D01*
X1190554Y1465704D01*
Y1458087D01*
X1210868Y1473322D02*
Y1458087D01*
X1221025D01*
X1228642Y1468244D02*
X1233720D01*
X1236260Y1465704D01*
Y1458087D01*
X1228642D01*
X1226103Y1460626D01*
X1228642Y1463165D01*
X1236260D01*
X1241338Y1468244D02*
Y1460626D01*
X1243877Y1458087D01*
X1251495D01*
Y1455548D01*
X1248956Y1453009D01*
X1246416D01*
X1251495Y1458087D02*
Y1468244D01*
X1264191Y1458087D02*
X1259112D01*
X1256573Y1460626D01*
Y1465704D01*
X1259112Y1468244D01*
X1264191D01*
X1266730Y1465704D01*
Y1463165D01*
X1256573D01*
X1271808Y1468244D02*
Y1458087D01*
Y1463165D01*
X1274347Y1465704D01*
X1276887Y1468244D01*
X1279426D01*
X926480Y1435222D02*
X936637D01*
X931558D01*
Y1419987D01*
X944254D02*
X949333D01*
X951872Y1422526D01*
Y1427605D01*
X949333Y1430144D01*
X944254D01*
X941715Y1427605D01*
Y1422526D01*
X944254Y1419987D01*
X956950Y1414909D02*
Y1430144D01*
X964567D01*
X967107Y1427605D01*
Y1422526D01*
X964567Y1419987D01*
X956950D01*
X987420Y1435222D02*
Y1419987D01*
X997577D01*
X1005194Y1430144D02*
X1010273D01*
X1012812Y1427605D01*
Y1419987D01*
X1005194D01*
X1002655Y1422526D01*
X1005194Y1425065D01*
X1012812D01*
X1017890Y1430144D02*
Y1422526D01*
X1020430Y1419987D01*
X1028047D01*
Y1417448D01*
X1025508Y1414909D01*
X1022969D01*
X1028047Y1419987D02*
Y1430144D01*
X1040743Y1419987D02*
X1035665D01*
X1033125Y1422526D01*
Y1427605D01*
X1035665Y1430144D01*
X1040743D01*
X1043282Y1427605D01*
Y1425065D01*
X1033125D01*
X1048360Y1430144D02*
Y1419987D01*
Y1425065D01*
X1050900Y1427605D01*
X1053439Y1430144D01*
X1055978D01*
X1078831Y1427605D02*
X1088987D01*
X1109301Y1435222D02*
Y1419987D01*
X1116918D01*
X1119457Y1422526D01*
Y1425065D01*
X1116918Y1427605D01*
X1109301D01*
X1116918D01*
X1119457Y1430144D01*
Y1432683D01*
X1116918Y1435222D01*
X1109301D01*
X1127075Y1419987D02*
X1132153D01*
X1134693Y1422526D01*
Y1427605D01*
X1132153Y1430144D01*
X1127075D01*
X1124536Y1427605D01*
Y1422526D01*
X1127075Y1419987D01*
X1142310Y1432683D02*
Y1430144D01*
X1139771D01*
X1144849D01*
X1142310D01*
Y1422526D01*
X1144849Y1419987D01*
X1155006Y1432683D02*
Y1430144D01*
X1152467D01*
X1157545D01*
X1155006D01*
Y1422526D01*
X1157545Y1419987D01*
X1167702D02*
X1172780D01*
X1175319Y1422526D01*
Y1427605D01*
X1172780Y1430144D01*
X1167702D01*
X1165163Y1427605D01*
Y1422526D01*
X1167702Y1419987D01*
X1180398D02*
Y1430144D01*
X1182937D01*
X1185476Y1427605D01*
Y1419987D01*
Y1427605D01*
X1188015Y1430144D01*
X1190554Y1427605D01*
Y1419987D01*
X1210868Y1435222D02*
Y1419987D01*
X1221025D01*
X1228642Y1430144D02*
X1233720D01*
X1236260Y1427605D01*
Y1419987D01*
X1228642D01*
X1226103Y1422526D01*
X1228642Y1425065D01*
X1236260D01*
X1241338Y1430144D02*
Y1422526D01*
X1243877Y1419987D01*
X1251495D01*
Y1417448D01*
X1248956Y1414909D01*
X1246416D01*
X1251495Y1419987D02*
Y1430144D01*
X1264191Y1419987D02*
X1259112D01*
X1256573Y1422526D01*
Y1427605D01*
X1259112Y1430144D01*
X1264191D01*
X1266730Y1427605D01*
Y1425065D01*
X1256573D01*
X1271808Y1430144D02*
Y1419987D01*
Y1425065D01*
X1274347Y1427605D01*
X1276887Y1430144D01*
X1279426D01*
X926480Y1397122D02*
X936637D01*
X931558D01*
Y1381887D01*
X944254D02*
X949333D01*
X951872Y1384426D01*
Y1389505D01*
X949333Y1392044D01*
X944254D01*
X941715Y1389505D01*
Y1384426D01*
X944254Y1381887D01*
X956950Y1376809D02*
Y1392044D01*
X964567D01*
X967107Y1389505D01*
Y1384426D01*
X964567Y1381887D01*
X956950D01*
X987420Y1397122D02*
Y1381887D01*
X997577D01*
X1005194Y1392044D02*
X1010273D01*
X1012812Y1389505D01*
Y1381887D01*
X1005194D01*
X1002655Y1384426D01*
X1005194Y1386965D01*
X1012812D01*
X1017890Y1392044D02*
Y1384426D01*
X1020430Y1381887D01*
X1028047D01*
Y1379348D01*
X1025508Y1376809D01*
X1022969D01*
X1028047Y1381887D02*
Y1392044D01*
X1040743Y1381887D02*
X1035665D01*
X1033125Y1384426D01*
Y1389505D01*
X1035665Y1392044D01*
X1040743D01*
X1043282Y1389505D01*
Y1386965D01*
X1033125D01*
X1048360Y1392044D02*
Y1381887D01*
Y1386965D01*
X1050900Y1389505D01*
X1053439Y1392044D01*
X1055978D01*
X1078831Y1389505D02*
X1088987D01*
X1109301Y1397122D02*
Y1381887D01*
X1116918D01*
X1119457Y1384426D01*
Y1386965D01*
X1116918Y1389505D01*
X1109301D01*
X1116918D01*
X1119457Y1392044D01*
Y1394583D01*
X1116918Y1397122D01*
X1109301D01*
X1127075Y1381887D02*
X1132153D01*
X1134693Y1384426D01*
Y1389505D01*
X1132153Y1392044D01*
X1127075D01*
X1124536Y1389505D01*
Y1384426D01*
X1127075Y1381887D01*
X1142310Y1394583D02*
Y1392044D01*
X1139771D01*
X1144849D01*
X1142310D01*
Y1384426D01*
X1144849Y1381887D01*
X1155006Y1394583D02*
Y1392044D01*
X1152467D01*
X1157545D01*
X1155006D01*
Y1384426D01*
X1157545Y1381887D01*
X1167702D02*
X1172780D01*
X1175319Y1384426D01*
Y1389505D01*
X1172780Y1392044D01*
X1167702D01*
X1165163Y1389505D01*
Y1384426D01*
X1167702Y1381887D01*
X1180398D02*
Y1392044D01*
X1182937D01*
X1185476Y1389505D01*
Y1381887D01*
Y1389505D01*
X1188015Y1392044D01*
X1190554Y1389505D01*
Y1381887D01*
X1210868Y1397122D02*
Y1381887D01*
X1221025D01*
X1228642Y1392044D02*
X1233720D01*
X1236260Y1389505D01*
Y1381887D01*
X1228642D01*
X1226103Y1384426D01*
X1228642Y1386965D01*
X1236260D01*
X1241338Y1392044D02*
Y1384426D01*
X1243877Y1381887D01*
X1251495D01*
Y1379348D01*
X1248956Y1376809D01*
X1246416D01*
X1251495Y1381887D02*
Y1392044D01*
X1264191Y1381887D02*
X1259112D01*
X1256573Y1384426D01*
Y1389505D01*
X1259112Y1392044D01*
X1264191D01*
X1266730Y1389505D01*
Y1386965D01*
X1256573D01*
X1271808Y1392044D02*
Y1381887D01*
Y1386965D01*
X1274347Y1389505D01*
X1276887Y1392044D01*
X1279426D01*
X926480Y1359022D02*
X936637D01*
X931558D01*
Y1343787D01*
X944254D02*
X949333D01*
X951872Y1346326D01*
Y1351405D01*
X949333Y1353944D01*
X944254D01*
X941715Y1351405D01*
Y1346326D01*
X944254Y1343787D01*
X956950Y1338709D02*
Y1353944D01*
X964567D01*
X967107Y1351405D01*
Y1346326D01*
X964567Y1343787D01*
X956950D01*
X987420Y1359022D02*
Y1343787D01*
X997577D01*
X1005194Y1353944D02*
X1010273D01*
X1012812Y1351405D01*
Y1343787D01*
X1005194D01*
X1002655Y1346326D01*
X1005194Y1348865D01*
X1012812D01*
X1017890Y1353944D02*
Y1346326D01*
X1020430Y1343787D01*
X1028047D01*
Y1341248D01*
X1025508Y1338709D01*
X1022969D01*
X1028047Y1343787D02*
Y1353944D01*
X1040743Y1343787D02*
X1035665D01*
X1033125Y1346326D01*
Y1351405D01*
X1035665Y1353944D01*
X1040743D01*
X1043282Y1351405D01*
Y1348865D01*
X1033125D01*
X1048360Y1353944D02*
Y1343787D01*
Y1348865D01*
X1050900Y1351405D01*
X1053439Y1353944D01*
X1055978D01*
X1078831Y1351405D02*
X1088987D01*
X1109301Y1359022D02*
Y1343787D01*
X1116918D01*
X1119457Y1346326D01*
Y1348865D01*
X1116918Y1351405D01*
X1109301D01*
X1116918D01*
X1119457Y1353944D01*
Y1356483D01*
X1116918Y1359022D01*
X1109301D01*
X1127075Y1343787D02*
X1132153D01*
X1134693Y1346326D01*
Y1351405D01*
X1132153Y1353944D01*
X1127075D01*
X1124536Y1351405D01*
Y1346326D01*
X1127075Y1343787D01*
X1142310Y1356483D02*
Y1353944D01*
X1139771D01*
X1144849D01*
X1142310D01*
Y1346326D01*
X1144849Y1343787D01*
X1155006Y1356483D02*
Y1353944D01*
X1152467D01*
X1157545D01*
X1155006D01*
Y1346326D01*
X1157545Y1343787D01*
X1167702D02*
X1172780D01*
X1175319Y1346326D01*
Y1351405D01*
X1172780Y1353944D01*
X1167702D01*
X1165163Y1351405D01*
Y1346326D01*
X1167702Y1343787D01*
X1180398D02*
Y1353944D01*
X1182937D01*
X1185476Y1351405D01*
Y1343787D01*
Y1351405D01*
X1188015Y1353944D01*
X1190554Y1351405D01*
Y1343787D01*
X1210868Y1359022D02*
Y1343787D01*
X1221025D01*
X1228642Y1353944D02*
X1233720D01*
X1236260Y1351405D01*
Y1343787D01*
X1228642D01*
X1226103Y1346326D01*
X1228642Y1348865D01*
X1236260D01*
X1241338Y1353944D02*
Y1346326D01*
X1243877Y1343787D01*
X1251495D01*
Y1341248D01*
X1248956Y1338709D01*
X1246416D01*
X1251495Y1343787D02*
Y1353944D01*
X1264191Y1343787D02*
X1259112D01*
X1256573Y1346326D01*
Y1351405D01*
X1259112Y1353944D01*
X1264191D01*
X1266730Y1351405D01*
Y1348865D01*
X1256573D01*
X1271808Y1353944D02*
Y1343787D01*
Y1348865D01*
X1274347Y1351405D01*
X1276887Y1353944D01*
X1279426D01*
X926480Y1320922D02*
X936637D01*
X931558D01*
Y1305687D01*
X944254D02*
X949333D01*
X951872Y1308226D01*
Y1313304D01*
X949333Y1315844D01*
X944254D01*
X941715Y1313304D01*
Y1308226D01*
X944254Y1305687D01*
X956950Y1300609D02*
Y1315844D01*
X964567D01*
X967107Y1313304D01*
Y1308226D01*
X964567Y1305687D01*
X956950D01*
X987420Y1320922D02*
Y1305687D01*
X997577D01*
X1005194Y1315844D02*
X1010273D01*
X1012812Y1313304D01*
Y1305687D01*
X1005194D01*
X1002655Y1308226D01*
X1005194Y1310765D01*
X1012812D01*
X1017890Y1315844D02*
Y1308226D01*
X1020430Y1305687D01*
X1028047D01*
Y1303148D01*
X1025508Y1300609D01*
X1022969D01*
X1028047Y1305687D02*
Y1315844D01*
X1040743Y1305687D02*
X1035665D01*
X1033125Y1308226D01*
Y1313304D01*
X1035665Y1315844D01*
X1040743D01*
X1043282Y1313304D01*
Y1310765D01*
X1033125D01*
X1048360Y1315844D02*
Y1305687D01*
Y1310765D01*
X1050900Y1313304D01*
X1053439Y1315844D01*
X1055978D01*
X1078831Y1313304D02*
X1088987D01*
X1109301Y1320922D02*
Y1305687D01*
X1116918D01*
X1119457Y1308226D01*
Y1310765D01*
X1116918Y1313304D01*
X1109301D01*
X1116918D01*
X1119457Y1315844D01*
Y1318383D01*
X1116918Y1320922D01*
X1109301D01*
X1127075Y1305687D02*
X1132153D01*
X1134693Y1308226D01*
Y1313304D01*
X1132153Y1315844D01*
X1127075D01*
X1124536Y1313304D01*
Y1308226D01*
X1127075Y1305687D01*
X1142310Y1318383D02*
Y1315844D01*
X1139771D01*
X1144849D01*
X1142310D01*
Y1308226D01*
X1144849Y1305687D01*
X1155006Y1318383D02*
Y1315844D01*
X1152467D01*
X1157545D01*
X1155006D01*
Y1308226D01*
X1157545Y1305687D01*
X1167702D02*
X1172780D01*
X1175319Y1308226D01*
Y1313304D01*
X1172780Y1315844D01*
X1167702D01*
X1165163Y1313304D01*
Y1308226D01*
X1167702Y1305687D01*
X1180398D02*
Y1315844D01*
X1182937D01*
X1185476Y1313304D01*
Y1305687D01*
Y1313304D01*
X1188015Y1315844D01*
X1190554Y1313304D01*
Y1305687D01*
X1210868Y1320922D02*
Y1305687D01*
X1221025D01*
X1228642Y1315844D02*
X1233720D01*
X1236260Y1313304D01*
Y1305687D01*
X1228642D01*
X1226103Y1308226D01*
X1228642Y1310765D01*
X1236260D01*
X1241338Y1315844D02*
Y1308226D01*
X1243877Y1305687D01*
X1251495D01*
Y1303148D01*
X1248956Y1300609D01*
X1246416D01*
X1251495Y1305687D02*
Y1315844D01*
X1264191Y1305687D02*
X1259112D01*
X1256573Y1308226D01*
Y1313304D01*
X1259112Y1315844D01*
X1264191D01*
X1266730Y1313304D01*
Y1310765D01*
X1256573D01*
X1271808Y1315844D02*
Y1305687D01*
Y1310765D01*
X1274347Y1313304D01*
X1276887Y1315844D01*
X1279426D01*
X926480Y1282822D02*
X936637D01*
X931558D01*
Y1267587D01*
X944254D02*
X949333D01*
X951872Y1270126D01*
Y1275204D01*
X949333Y1277744D01*
X944254D01*
X941715Y1275204D01*
Y1270126D01*
X944254Y1267587D01*
X956950Y1262509D02*
Y1277744D01*
X964567D01*
X967107Y1275204D01*
Y1270126D01*
X964567Y1267587D01*
X956950D01*
X987420Y1282822D02*
Y1267587D01*
X997577D01*
X1005194Y1277744D02*
X1010273D01*
X1012812Y1275204D01*
Y1267587D01*
X1005194D01*
X1002655Y1270126D01*
X1005194Y1272665D01*
X1012812D01*
X1017890Y1277744D02*
Y1270126D01*
X1020430Y1267587D01*
X1028047D01*
Y1265048D01*
X1025508Y1262509D01*
X1022969D01*
X1028047Y1267587D02*
Y1277744D01*
X1040743Y1267587D02*
X1035665D01*
X1033125Y1270126D01*
Y1275204D01*
X1035665Y1277744D01*
X1040743D01*
X1043282Y1275204D01*
Y1272665D01*
X1033125D01*
X1048360Y1277744D02*
Y1267587D01*
Y1272665D01*
X1050900Y1275204D01*
X1053439Y1277744D01*
X1055978D01*
X1078831Y1275204D02*
X1088987D01*
X1109301Y1282822D02*
Y1267587D01*
X1116918D01*
X1119457Y1270126D01*
Y1272665D01*
X1116918Y1275204D01*
X1109301D01*
X1116918D01*
X1119457Y1277744D01*
Y1280283D01*
X1116918Y1282822D01*
X1109301D01*
X1127075Y1267587D02*
X1132153D01*
X1134693Y1270126D01*
Y1275204D01*
X1132153Y1277744D01*
X1127075D01*
X1124536Y1275204D01*
Y1270126D01*
X1127075Y1267587D01*
X1142310Y1280283D02*
Y1277744D01*
X1139771D01*
X1144849D01*
X1142310D01*
Y1270126D01*
X1144849Y1267587D01*
X1155006Y1280283D02*
Y1277744D01*
X1152467D01*
X1157545D01*
X1155006D01*
Y1270126D01*
X1157545Y1267587D01*
X1167702D02*
X1172780D01*
X1175319Y1270126D01*
Y1275204D01*
X1172780Y1277744D01*
X1167702D01*
X1165163Y1275204D01*
Y1270126D01*
X1167702Y1267587D01*
X1180398D02*
Y1277744D01*
X1182937D01*
X1185476Y1275204D01*
Y1267587D01*
Y1275204D01*
X1188015Y1277744D01*
X1190554Y1275204D01*
Y1267587D01*
X1210868Y1282822D02*
Y1267587D01*
X1221025D01*
X1228642Y1277744D02*
X1233720D01*
X1236260Y1275204D01*
Y1267587D01*
X1228642D01*
X1226103Y1270126D01*
X1228642Y1272665D01*
X1236260D01*
X1241338Y1277744D02*
Y1270126D01*
X1243877Y1267587D01*
X1251495D01*
Y1265048D01*
X1248956Y1262509D01*
X1246416D01*
X1251495Y1267587D02*
Y1277744D01*
X1264191Y1267587D02*
X1259112D01*
X1256573Y1270126D01*
Y1275204D01*
X1259112Y1277744D01*
X1264191D01*
X1266730Y1275204D01*
Y1272665D01*
X1256573D01*
X1271808Y1277744D02*
Y1267587D01*
Y1272665D01*
X1274347Y1275204D01*
X1276887Y1277744D01*
X1279426D01*
X926480Y1244722D02*
X936637D01*
X931558D01*
Y1229487D01*
X944254D02*
X949333D01*
X951872Y1232026D01*
Y1237104D01*
X949333Y1239644D01*
X944254D01*
X941715Y1237104D01*
Y1232026D01*
X944254Y1229487D01*
X956950Y1224409D02*
Y1239644D01*
X964567D01*
X967107Y1237104D01*
Y1232026D01*
X964567Y1229487D01*
X956950D01*
X987420Y1244722D02*
Y1229487D01*
X997577D01*
X1005194Y1239644D02*
X1010273D01*
X1012812Y1237104D01*
Y1229487D01*
X1005194D01*
X1002655Y1232026D01*
X1005194Y1234565D01*
X1012812D01*
X1017890Y1239644D02*
Y1232026D01*
X1020430Y1229487D01*
X1028047D01*
Y1226948D01*
X1025508Y1224409D01*
X1022969D01*
X1028047Y1229487D02*
Y1239644D01*
X1040743Y1229487D02*
X1035665D01*
X1033125Y1232026D01*
Y1237104D01*
X1035665Y1239644D01*
X1040743D01*
X1043282Y1237104D01*
Y1234565D01*
X1033125D01*
X1048360Y1239644D02*
Y1229487D01*
Y1234565D01*
X1050900Y1237104D01*
X1053439Y1239644D01*
X1055978D01*
X1078831Y1237104D02*
X1088987D01*
X1109301Y1244722D02*
Y1229487D01*
X1116918D01*
X1119457Y1232026D01*
Y1234565D01*
X1116918Y1237104D01*
X1109301D01*
X1116918D01*
X1119457Y1239644D01*
Y1242183D01*
X1116918Y1244722D01*
X1109301D01*
X1127075Y1229487D02*
X1132153D01*
X1134693Y1232026D01*
Y1237104D01*
X1132153Y1239644D01*
X1127075D01*
X1124536Y1237104D01*
Y1232026D01*
X1127075Y1229487D01*
X1142310Y1242183D02*
Y1239644D01*
X1139771D01*
X1144849D01*
X1142310D01*
Y1232026D01*
X1144849Y1229487D01*
X1155006Y1242183D02*
Y1239644D01*
X1152467D01*
X1157545D01*
X1155006D01*
Y1232026D01*
X1157545Y1229487D01*
X1167702D02*
X1172780D01*
X1175319Y1232026D01*
Y1237104D01*
X1172780Y1239644D01*
X1167702D01*
X1165163Y1237104D01*
Y1232026D01*
X1167702Y1229487D01*
X1180398D02*
Y1239644D01*
X1182937D01*
X1185476Y1237104D01*
Y1229487D01*
Y1237104D01*
X1188015Y1239644D01*
X1190554Y1237104D01*
Y1229487D01*
X1210868Y1244722D02*
Y1229487D01*
X1221025D01*
X1228642Y1239644D02*
X1233720D01*
X1236260Y1237104D01*
Y1229487D01*
X1228642D01*
X1226103Y1232026D01*
X1228642Y1234565D01*
X1236260D01*
X1241338Y1239644D02*
Y1232026D01*
X1243877Y1229487D01*
X1251495D01*
Y1226948D01*
X1248956Y1224409D01*
X1246416D01*
X1251495Y1229487D02*
Y1239644D01*
X1264191Y1229487D02*
X1259112D01*
X1256573Y1232026D01*
Y1237104D01*
X1259112Y1239644D01*
X1264191D01*
X1266730Y1237104D01*
Y1234565D01*
X1256573D01*
X1271808Y1239644D02*
Y1229487D01*
Y1234565D01*
X1274347Y1237104D01*
X1276887Y1239644D01*
X1279426D01*
X740094Y1610487D02*
Y1625722D01*
X747712D01*
X750251Y1623183D01*
Y1618105D01*
X747712Y1615565D01*
X740094D01*
X745173D02*
X750251Y1610487D01*
X757868D02*
X762947D01*
X765486Y1613026D01*
Y1618105D01*
X762947Y1620644D01*
X757868D01*
X755329Y1618105D01*
Y1613026D01*
X757868Y1610487D01*
X770564Y1620644D02*
Y1613026D01*
X773103Y1610487D01*
X780721D01*
Y1620644D01*
X785799Y1610487D02*
Y1620644D01*
X793417D01*
X795956Y1618105D01*
Y1610487D01*
X811191Y1625722D02*
Y1610487D01*
X803574D01*
X801034Y1613026D01*
Y1618105D01*
X803574Y1620644D01*
X811191D01*
X740094Y1572387D02*
Y1587622D01*
X747712D01*
X750251Y1585083D01*
Y1580004D01*
X747712Y1577465D01*
X740094D01*
X745173D02*
X750251Y1572387D01*
X757868D02*
X762947D01*
X765486Y1574926D01*
Y1580004D01*
X762947Y1582544D01*
X757868D01*
X755329Y1580004D01*
Y1574926D01*
X757868Y1572387D01*
X770564Y1582544D02*
Y1574926D01*
X773103Y1572387D01*
X780721D01*
Y1582544D01*
X785799Y1572387D02*
Y1582544D01*
X793417D01*
X795956Y1580004D01*
Y1572387D01*
X811191Y1587622D02*
Y1572387D01*
X803574D01*
X801034Y1574926D01*
Y1580004D01*
X803574Y1582544D01*
X811191D01*
X740094Y1534287D02*
Y1549522D01*
X747712D01*
X750251Y1546983D01*
Y1541904D01*
X747712Y1539365D01*
X740094D01*
X745173D02*
X750251Y1534287D01*
X757868D02*
X762947D01*
X765486Y1536826D01*
Y1541904D01*
X762947Y1544444D01*
X757868D01*
X755329Y1541904D01*
Y1536826D01*
X757868Y1534287D01*
X770564Y1544444D02*
Y1536826D01*
X773103Y1534287D01*
X780721D01*
Y1544444D01*
X785799Y1534287D02*
Y1544444D01*
X793417D01*
X795956Y1541904D01*
Y1534287D01*
X811191Y1549522D02*
Y1534287D01*
X803574D01*
X801034Y1536826D01*
Y1541904D01*
X803574Y1544444D01*
X811191D01*
X740094Y1496187D02*
Y1511422D01*
X747712D01*
X750251Y1508883D01*
Y1503804D01*
X747712Y1501265D01*
X740094D01*
X745173D02*
X750251Y1496187D01*
X757868D02*
X762947D01*
X765486Y1498726D01*
Y1503804D01*
X762947Y1506344D01*
X757868D01*
X755329Y1503804D01*
Y1498726D01*
X757868Y1496187D01*
X770564Y1506344D02*
Y1498726D01*
X773103Y1496187D01*
X780721D01*
Y1506344D01*
X785799Y1496187D02*
Y1506344D01*
X793417D01*
X795956Y1503804D01*
Y1496187D01*
X811191Y1511422D02*
Y1496187D01*
X803574D01*
X801034Y1498726D01*
Y1503804D01*
X803574Y1506344D01*
X811191D01*
X740094Y1458087D02*
Y1473322D01*
X747712D01*
X750251Y1470783D01*
Y1465704D01*
X747712Y1463165D01*
X740094D01*
X745173D02*
X750251Y1458087D01*
X757868D02*
X762947D01*
X765486Y1460626D01*
Y1465704D01*
X762947Y1468244D01*
X757868D01*
X755329Y1465704D01*
Y1460626D01*
X757868Y1458087D01*
X770564Y1468244D02*
Y1460626D01*
X773103Y1458087D01*
X780721D01*
Y1468244D01*
X785799Y1458087D02*
Y1468244D01*
X793417D01*
X795956Y1465704D01*
Y1458087D01*
X811191Y1473322D02*
Y1458087D01*
X803574D01*
X801034Y1460626D01*
Y1465704D01*
X803574Y1468244D01*
X811191D01*
X740094Y1419987D02*
Y1435222D01*
X747712D01*
X750251Y1432683D01*
Y1427605D01*
X747712Y1425065D01*
X740094D01*
X745173D02*
X750251Y1419987D01*
X757868D02*
X762947D01*
X765486Y1422526D01*
Y1427605D01*
X762947Y1430144D01*
X757868D01*
X755329Y1427605D01*
Y1422526D01*
X757868Y1419987D01*
X770564Y1430144D02*
Y1422526D01*
X773103Y1419987D01*
X780721D01*
Y1430144D01*
X785799Y1419987D02*
Y1430144D01*
X793417D01*
X795956Y1427605D01*
Y1419987D01*
X811191Y1435222D02*
Y1419987D01*
X803574D01*
X801034Y1422526D01*
Y1427605D01*
X803574Y1430144D01*
X811191D01*
X740094Y1381887D02*
Y1397122D01*
X747712D01*
X750251Y1394583D01*
Y1389505D01*
X747712Y1386965D01*
X740094D01*
X745173D02*
X750251Y1381887D01*
X757868D02*
X762947D01*
X765486Y1384426D01*
Y1389505D01*
X762947Y1392044D01*
X757868D01*
X755329Y1389505D01*
Y1384426D01*
X757868Y1381887D01*
X770564Y1392044D02*
Y1384426D01*
X773103Y1381887D01*
X780721D01*
Y1392044D01*
X785799Y1381887D02*
Y1392044D01*
X793417D01*
X795956Y1389505D01*
Y1381887D01*
X811191Y1397122D02*
Y1381887D01*
X803574D01*
X801034Y1384426D01*
Y1389505D01*
X803574Y1392044D01*
X811191D01*
X740094Y1343787D02*
Y1359022D01*
X747712D01*
X750251Y1356483D01*
Y1351405D01*
X747712Y1348865D01*
X740094D01*
X745173D02*
X750251Y1343787D01*
X757868D02*
X762947D01*
X765486Y1346326D01*
Y1351405D01*
X762947Y1353944D01*
X757868D01*
X755329Y1351405D01*
Y1346326D01*
X757868Y1343787D01*
X770564Y1353944D02*
Y1346326D01*
X773103Y1343787D01*
X780721D01*
Y1353944D01*
X785799Y1343787D02*
Y1353944D01*
X793417D01*
X795956Y1351405D01*
Y1343787D01*
X811191Y1359022D02*
Y1343787D01*
X803574D01*
X801034Y1346326D01*
Y1351405D01*
X803574Y1353944D01*
X811191D01*
X740094Y1305687D02*
Y1320922D01*
X747712D01*
X750251Y1318383D01*
Y1313304D01*
X747712Y1310765D01*
X740094D01*
X745173D02*
X750251Y1305687D01*
X757868D02*
X762947D01*
X765486Y1308226D01*
Y1313304D01*
X762947Y1315844D01*
X757868D01*
X755329Y1313304D01*
Y1308226D01*
X757868Y1305687D01*
X770564Y1315844D02*
Y1308226D01*
X773103Y1305687D01*
X780721D01*
Y1315844D01*
X785799Y1305687D02*
Y1315844D01*
X793417D01*
X795956Y1313304D01*
Y1305687D01*
X811191Y1320922D02*
Y1305687D01*
X803574D01*
X801034Y1308226D01*
Y1313304D01*
X803574Y1315844D01*
X811191D01*
X740094Y1267587D02*
Y1282822D01*
X747712D01*
X750251Y1280283D01*
Y1275204D01*
X747712Y1272665D01*
X740094D01*
X745173D02*
X750251Y1267587D01*
X757868D02*
X762947D01*
X765486Y1270126D01*
Y1275204D01*
X762947Y1277744D01*
X757868D01*
X755329Y1275204D01*
Y1270126D01*
X757868Y1267587D01*
X770564Y1277744D02*
Y1270126D01*
X773103Y1267587D01*
X780721D01*
Y1277744D01*
X785799Y1267587D02*
Y1277744D01*
X793417D01*
X795956Y1275204D01*
Y1267587D01*
X811191Y1282822D02*
Y1267587D01*
X803574D01*
X801034Y1270126D01*
Y1275204D01*
X803574Y1277744D01*
X811191D01*
X740094Y1229487D02*
Y1244722D01*
X747712D01*
X750251Y1242183D01*
Y1237104D01*
X747712Y1234565D01*
X740094D01*
X745173D02*
X750251Y1229487D01*
X757868D02*
X762947D01*
X765486Y1232026D01*
Y1237104D01*
X762947Y1239644D01*
X757868D01*
X755329Y1237104D01*
Y1232026D01*
X757868Y1229487D01*
X770564Y1239644D02*
Y1232026D01*
X773103Y1229487D01*
X780721D01*
Y1239644D01*
X785799Y1229487D02*
Y1239644D01*
X793417D01*
X795956Y1237104D01*
Y1229487D01*
X811191Y1244722D02*
Y1229487D01*
X803574D01*
X801034Y1232026D01*
Y1237104D01*
X803574Y1239644D01*
X811191D01*
X611602Y1610487D02*
Y1625722D01*
X619219D01*
X621758Y1623183D01*
Y1618105D01*
X619219Y1615565D01*
X611602D01*
X626837Y1625722D02*
X636993D01*
X631915D01*
Y1610487D01*
X642072Y1625722D02*
Y1610487D01*
Y1618105D01*
X652229D01*
Y1625722D01*
Y1610487D01*
X611602Y1572387D02*
Y1587622D01*
X621758Y1572387D01*
Y1587622D01*
X626837Y1572387D02*
Y1587622D01*
X634454D01*
X636993Y1585083D01*
Y1580004D01*
X634454Y1577465D01*
X626837D01*
X642072Y1587622D02*
X652229D01*
X647150D01*
Y1572387D01*
X657307Y1587622D02*
Y1572387D01*
Y1580004D01*
X667464D01*
Y1587622D01*
Y1572387D01*
X611602Y1534287D02*
Y1549522D01*
X619219D01*
X621758Y1546983D01*
Y1541904D01*
X619219Y1539365D01*
X611602D01*
X626837Y1549522D02*
X636993D01*
X631915D01*
Y1534287D01*
X642072Y1549522D02*
Y1534287D01*
Y1541904D01*
X652229D01*
Y1549522D01*
Y1534287D01*
X611602Y1496187D02*
Y1511422D01*
X619219D01*
X621758Y1508883D01*
Y1503804D01*
X619219Y1501265D01*
X611602D01*
X626837Y1511422D02*
X636993D01*
X631915D01*
Y1496187D01*
X642072Y1511422D02*
Y1496187D01*
Y1503804D01*
X652229D01*
Y1511422D01*
Y1496187D01*
X611602Y1458087D02*
Y1473322D01*
X621758Y1458087D01*
Y1473322D01*
X626837Y1458087D02*
Y1473322D01*
X634454D01*
X636993Y1470783D01*
Y1465704D01*
X634454Y1463165D01*
X626837D01*
X642072Y1473322D02*
X652229D01*
X647150D01*
Y1458087D01*
X657307Y1473322D02*
Y1458087D01*
Y1465704D01*
X667464D01*
Y1473322D01*
Y1458087D01*
X611602Y1419987D02*
Y1435222D01*
X619219D01*
X621758Y1432683D01*
Y1427605D01*
X619219Y1425065D01*
X611602D01*
X626837Y1435222D02*
X636993D01*
X631915D01*
Y1419987D01*
X642072Y1435222D02*
Y1419987D01*
Y1427605D01*
X652229D01*
Y1435222D01*
Y1419987D01*
X611602Y1381887D02*
Y1397122D01*
X619219D01*
X621758Y1394583D01*
Y1389505D01*
X619219Y1386965D01*
X611602D01*
X626837Y1397122D02*
X636993D01*
X631915D01*
Y1381887D01*
X642072Y1397122D02*
Y1381887D01*
Y1389505D01*
X652229D01*
Y1397122D01*
Y1381887D01*
X611602Y1343787D02*
Y1359022D01*
X619219D01*
X621758Y1356483D01*
Y1351405D01*
X619219Y1348865D01*
X611602D01*
X626837Y1359022D02*
X636993D01*
X631915D01*
Y1343787D01*
X642072Y1359022D02*
Y1343787D01*
Y1351405D01*
X652229D01*
Y1359022D01*
Y1343787D01*
X611602Y1305687D02*
Y1320922D01*
X619219D01*
X621758Y1318383D01*
Y1313304D01*
X619219Y1310765D01*
X611602D01*
X626837Y1320922D02*
X636993D01*
X631915D01*
Y1305687D01*
X642072Y1320922D02*
Y1305687D01*
Y1313304D01*
X652229D01*
Y1320922D01*
Y1305687D01*
X611602Y1267587D02*
Y1282822D01*
X619219D01*
X621758Y1280283D01*
Y1275204D01*
X619219Y1272665D01*
X611602D01*
X626837Y1282822D02*
X636993D01*
X631915D01*
Y1267587D01*
X642072Y1282822D02*
Y1267587D01*
Y1275204D01*
X652229D01*
Y1282822D01*
Y1267587D01*
X611602Y1229487D02*
Y1244722D01*
X619219D01*
X621758Y1242183D01*
Y1237104D01*
X619219Y1234565D01*
X611602D01*
X626837Y1244722D02*
X636993D01*
X631915D01*
Y1229487D01*
X642072Y1244722D02*
Y1229487D01*
Y1237104D01*
X652229D01*
Y1244722D01*
Y1229487D01*
X329744Y1625722D02*
X324665Y1623183D01*
X319587Y1618105D01*
Y1613026D01*
X322126Y1610487D01*
X327205D01*
X329744Y1613026D01*
Y1615565D01*
X327205Y1618105D01*
X319587D01*
X344979Y1610487D02*
X334822D01*
X344979Y1620644D01*
Y1623183D01*
X342440Y1625722D01*
X337361D01*
X334822Y1623183D01*
X350057Y1610487D02*
Y1613026D01*
X352597D01*
Y1610487D01*
X350057D01*
X362753Y1613026D02*
X365292Y1610487D01*
X370371D01*
X372910Y1613026D01*
Y1623183D01*
X370371Y1625722D01*
X365292D01*
X362753Y1623183D01*
Y1620644D01*
X365292Y1618105D01*
X372910D01*
X377988Y1613026D02*
X380527Y1610487D01*
X385606D01*
X388145Y1613026D01*
Y1623183D01*
X385606Y1625722D01*
X380527D01*
X377988Y1623183D01*
Y1620644D01*
X380527Y1618105D01*
X388145D01*
X393223Y1610487D02*
Y1620644D01*
X395762D01*
X398302Y1618105D01*
Y1610487D01*
Y1618105D01*
X400841Y1620644D01*
X403380Y1618105D01*
Y1610487D01*
X408458D02*
X413537D01*
X410998D01*
Y1620644D01*
X408458D01*
X421154Y1610487D02*
X426233D01*
X423694D01*
Y1625722D01*
X421154D01*
X454164Y1610487D02*
X449085Y1615565D01*
Y1620644D01*
X454164Y1625722D01*
X461781Y1610487D02*
X466860D01*
X464320D01*
Y1625722D01*
X461781Y1623183D01*
X474477Y1610487D02*
Y1613026D01*
X477016D01*
Y1610487D01*
X474477D01*
X497330Y1625722D02*
X492251Y1623183D01*
X487173Y1618105D01*
Y1613026D01*
X489712Y1610487D01*
X494790D01*
X497330Y1613026D01*
Y1615565D01*
X494790Y1618105D01*
X487173D01*
X502408Y1623183D02*
X504947Y1625722D01*
X510025D01*
X512565Y1623183D01*
Y1613026D01*
X510025Y1610487D01*
X504947D01*
X502408Y1613026D01*
Y1623183D01*
X517643D02*
X520182Y1625722D01*
X525261D01*
X527800Y1623183D01*
Y1613026D01*
X525261Y1610487D01*
X520182D01*
X517643Y1613026D01*
Y1623183D01*
X532878Y1610487D02*
Y1620644D01*
X535417D01*
X537957Y1618105D01*
Y1610487D01*
Y1618105D01*
X540496Y1620644D01*
X543035Y1618105D01*
Y1610487D01*
X548113D02*
Y1620644D01*
X550652D01*
X553192Y1618105D01*
Y1610487D01*
Y1618105D01*
X555731Y1620644D01*
X558270Y1618105D01*
Y1610487D01*
X563348D02*
X568427Y1615565D01*
Y1620644D01*
X563348Y1625722D01*
X319587Y1572387D02*
X324665D01*
X322126D01*
Y1587622D01*
X319587Y1585083D01*
X332283Y1572387D02*
X337361D01*
X334822D01*
Y1587622D01*
X332283Y1585083D01*
X344979D02*
X347518Y1587622D01*
X352597D01*
X355136Y1585083D01*
Y1582544D01*
X352597Y1580004D01*
X355136Y1577465D01*
Y1574926D01*
X352597Y1572387D01*
X347518D01*
X344979Y1574926D01*
Y1577465D01*
X347518Y1580004D01*
X344979Y1582544D01*
Y1585083D01*
X347518Y1580004D02*
X352597D01*
X360214Y1572387D02*
Y1574926D01*
X362753D01*
Y1572387D01*
X360214D01*
X372910D02*
X377988D01*
X375449D01*
Y1587622D01*
X372910Y1585083D01*
X385606Y1572387D02*
X390684D01*
X388145D01*
Y1587622D01*
X385606Y1585083D01*
X398302Y1572387D02*
Y1582544D01*
X400841D01*
X403380Y1580004D01*
Y1572387D01*
Y1580004D01*
X405919Y1582544D01*
X408458Y1580004D01*
Y1572387D01*
X413537D02*
X418615D01*
X416076D01*
Y1582544D01*
X413537D01*
X426233Y1572387D02*
X431311D01*
X428772D01*
Y1587622D01*
X426233D01*
X459242Y1572387D02*
X454164Y1577465D01*
Y1582544D01*
X459242Y1587622D01*
X466860Y1585083D02*
X469399Y1587622D01*
X474477D01*
X477016Y1585083D01*
Y1582544D01*
X474477Y1580004D01*
X471938D01*
X474477D01*
X477016Y1577465D01*
Y1574926D01*
X474477Y1572387D01*
X469399D01*
X466860Y1574926D01*
X482094Y1572387D02*
Y1574926D01*
X484634D01*
Y1572387D01*
X482094D01*
X494790Y1585083D02*
X497330Y1587622D01*
X502408D01*
X504947Y1585083D01*
Y1574926D01*
X502408Y1572387D01*
X497330D01*
X494790Y1574926D01*
Y1585083D01*
X510025D02*
X512565Y1587622D01*
X517643D01*
X520182Y1585083D01*
Y1574926D01*
X517643Y1572387D01*
X512565D01*
X510025Y1574926D01*
Y1585083D01*
X525261D02*
X527800Y1587622D01*
X532878D01*
X535417Y1585083D01*
Y1574926D01*
X532878Y1572387D01*
X527800D01*
X525261Y1574926D01*
Y1585083D01*
X540496Y1572387D02*
Y1582544D01*
X543035D01*
X545574Y1580004D01*
Y1572387D01*
Y1580004D01*
X548113Y1582544D01*
X550652Y1580004D01*
Y1572387D01*
X555731D02*
Y1582544D01*
X558270D01*
X560809Y1580004D01*
Y1572387D01*
Y1580004D01*
X563348Y1582544D01*
X565887Y1580004D01*
Y1572387D01*
X570966D02*
X576044Y1577465D01*
Y1582544D01*
X570966Y1587622D01*
X319587Y1546983D02*
X322126Y1549522D01*
X327205D01*
X329744Y1546983D01*
Y1544444D01*
X327205Y1541904D01*
X324665D01*
X327205D01*
X329744Y1539365D01*
Y1536826D01*
X327205Y1534287D01*
X322126D01*
X319587Y1536826D01*
X344979Y1549522D02*
X334822D01*
Y1541904D01*
X339901Y1544444D01*
X342440D01*
X344979Y1541904D01*
Y1536826D01*
X342440Y1534287D01*
X337361D01*
X334822Y1536826D01*
X350057Y1534287D02*
Y1536826D01*
X352597D01*
Y1534287D01*
X350057D01*
X370371D02*
Y1549522D01*
X362753Y1541904D01*
X372910D01*
X377988Y1546983D02*
X380527Y1549522D01*
X385606D01*
X388145Y1546983D01*
Y1544444D01*
X385606Y1541904D01*
X383067D01*
X385606D01*
X388145Y1539365D01*
Y1536826D01*
X385606Y1534287D01*
X380527D01*
X377988Y1536826D01*
X393223Y1534287D02*
Y1544444D01*
X395762D01*
X398302Y1541904D01*
Y1534287D01*
Y1541904D01*
X400841Y1544444D01*
X403380Y1541904D01*
Y1534287D01*
X408458D02*
X413537D01*
X410998D01*
Y1544444D01*
X408458D01*
X421154Y1534287D02*
X426233D01*
X423694D01*
Y1549522D01*
X421154D01*
X454164Y1534287D02*
X449085Y1539365D01*
Y1544444D01*
X454164Y1549522D01*
X461781Y1546983D02*
X464320Y1549522D01*
X469399D01*
X471938Y1546983D01*
Y1536826D01*
X469399Y1534287D01*
X464320D01*
X461781Y1536826D01*
Y1546983D01*
X477016Y1534287D02*
Y1536826D01*
X479555D01*
Y1534287D01*
X477016D01*
X489712Y1536826D02*
X492251Y1534287D01*
X497330D01*
X499869Y1536826D01*
Y1546983D01*
X497330Y1549522D01*
X492251D01*
X489712Y1546983D01*
Y1544444D01*
X492251Y1541904D01*
X499869D01*
X504947Y1546983D02*
X507486Y1549522D01*
X512565D01*
X515104Y1546983D01*
Y1536826D01*
X512565Y1534287D01*
X507486D01*
X504947Y1536826D01*
Y1546983D01*
X520182D02*
X522721Y1549522D01*
X527800D01*
X530339Y1546983D01*
Y1536826D01*
X527800Y1534287D01*
X522721D01*
X520182Y1536826D01*
Y1546983D01*
X535417Y1534287D02*
Y1544444D01*
X537957D01*
X540496Y1541904D01*
Y1534287D01*
Y1541904D01*
X543035Y1544444D01*
X545574Y1541904D01*
Y1534287D01*
X550652D02*
Y1544444D01*
X553192D01*
X555731Y1541904D01*
Y1534287D01*
Y1541904D01*
X558270Y1544444D01*
X560809Y1541904D01*
Y1534287D01*
X565887D02*
X570966Y1539365D01*
Y1544444D01*
X565887Y1549522D01*
X319587Y1508883D02*
X322126Y1511422D01*
X327205D01*
X329744Y1508883D01*
Y1506344D01*
X327205Y1503804D01*
X324665D01*
X327205D01*
X329744Y1501265D01*
Y1498726D01*
X327205Y1496187D01*
X322126D01*
X319587Y1498726D01*
X344979Y1511422D02*
X334822D01*
Y1503804D01*
X339901Y1506344D01*
X342440D01*
X344979Y1503804D01*
Y1498726D01*
X342440Y1496187D01*
X337361D01*
X334822Y1498726D01*
X350057Y1496187D02*
Y1498726D01*
X352597D01*
Y1496187D01*
X350057D01*
X370371D02*
Y1511422D01*
X362753Y1503804D01*
X372910D01*
X377988Y1508883D02*
X380527Y1511422D01*
X385606D01*
X388145Y1508883D01*
Y1506344D01*
X385606Y1503804D01*
X383067D01*
X385606D01*
X388145Y1501265D01*
Y1498726D01*
X385606Y1496187D01*
X380527D01*
X377988Y1498726D01*
X393223Y1496187D02*
Y1506344D01*
X395762D01*
X398302Y1503804D01*
Y1496187D01*
Y1503804D01*
X400841Y1506344D01*
X403380Y1503804D01*
Y1496187D01*
X408458D02*
X413537D01*
X410998D01*
Y1506344D01*
X408458D01*
X421154Y1496187D02*
X426233D01*
X423694D01*
Y1511422D01*
X421154D01*
X454164Y1496187D02*
X449085Y1501265D01*
Y1506344D01*
X454164Y1511422D01*
X461781Y1508883D02*
X464320Y1511422D01*
X469399D01*
X471938Y1508883D01*
Y1498726D01*
X469399Y1496187D01*
X464320D01*
X461781Y1498726D01*
Y1508883D01*
X477016Y1496187D02*
Y1498726D01*
X479555D01*
Y1496187D01*
X477016D01*
X489712Y1498726D02*
X492251Y1496187D01*
X497330D01*
X499869Y1498726D01*
Y1508883D01*
X497330Y1511422D01*
X492251D01*
X489712Y1508883D01*
Y1506344D01*
X492251Y1503804D01*
X499869D01*
X504947Y1508883D02*
X507486Y1511422D01*
X512565D01*
X515104Y1508883D01*
Y1498726D01*
X512565Y1496187D01*
X507486D01*
X504947Y1498726D01*
Y1508883D01*
X520182D02*
X522721Y1511422D01*
X527800D01*
X530339Y1508883D01*
Y1498726D01*
X527800Y1496187D01*
X522721D01*
X520182Y1498726D01*
Y1508883D01*
X535417Y1496187D02*
Y1506344D01*
X537957D01*
X540496Y1503804D01*
Y1496187D01*
Y1503804D01*
X543035Y1506344D01*
X545574Y1503804D01*
Y1496187D01*
X550652D02*
Y1506344D01*
X553192D01*
X555731Y1503804D01*
Y1496187D01*
Y1503804D01*
X558270Y1506344D01*
X560809Y1503804D01*
Y1496187D01*
X565887D02*
X570966Y1501265D01*
Y1506344D01*
X565887Y1511422D01*
X329744Y1473322D02*
X324665Y1470783D01*
X319587Y1465704D01*
Y1460626D01*
X322126Y1458087D01*
X327205D01*
X329744Y1460626D01*
Y1463165D01*
X327205Y1465704D01*
X319587D01*
X344979Y1458087D02*
X334822D01*
X344979Y1468244D01*
Y1470783D01*
X342440Y1473322D01*
X337361D01*
X334822Y1470783D01*
X350057Y1458087D02*
Y1460626D01*
X352597D01*
Y1458087D01*
X350057D01*
X362753Y1460626D02*
X365292Y1458087D01*
X370371D01*
X372910Y1460626D01*
Y1470783D01*
X370371Y1473322D01*
X365292D01*
X362753Y1470783D01*
Y1468244D01*
X365292Y1465704D01*
X372910D01*
X377988Y1460626D02*
X380527Y1458087D01*
X385606D01*
X388145Y1460626D01*
Y1470783D01*
X385606Y1473322D01*
X380527D01*
X377988Y1470783D01*
Y1468244D01*
X380527Y1465704D01*
X388145D01*
X393223Y1458087D02*
Y1468244D01*
X395762D01*
X398302Y1465704D01*
Y1458087D01*
Y1465704D01*
X400841Y1468244D01*
X403380Y1465704D01*
Y1458087D01*
X408458D02*
X413537D01*
X410998D01*
Y1468244D01*
X408458D01*
X421154Y1458087D02*
X426233D01*
X423694D01*
Y1473322D01*
X421154D01*
X454164Y1458087D02*
X449085Y1463165D01*
Y1468244D01*
X454164Y1473322D01*
X461781Y1458087D02*
X466860D01*
X464320D01*
Y1473322D01*
X461781Y1470783D01*
X474477Y1458087D02*
Y1460626D01*
X477016D01*
Y1458087D01*
X474477D01*
X497330Y1473322D02*
X492251Y1470783D01*
X487173Y1465704D01*
Y1460626D01*
X489712Y1458087D01*
X494790D01*
X497330Y1460626D01*
Y1463165D01*
X494790Y1465704D01*
X487173D01*
X502408Y1470783D02*
X504947Y1473322D01*
X510025D01*
X512565Y1470783D01*
Y1460626D01*
X510025Y1458087D01*
X504947D01*
X502408Y1460626D01*
Y1470783D01*
X517643D02*
X520182Y1473322D01*
X525261D01*
X527800Y1470783D01*
Y1460626D01*
X525261Y1458087D01*
X520182D01*
X517643Y1460626D01*
Y1470783D01*
X532878Y1458087D02*
Y1468244D01*
X535417D01*
X537957Y1465704D01*
Y1458087D01*
Y1465704D01*
X540496Y1468244D01*
X543035Y1465704D01*
Y1458087D01*
X548113D02*
Y1468244D01*
X550652D01*
X553192Y1465704D01*
Y1458087D01*
Y1465704D01*
X555731Y1468244D01*
X558270Y1465704D01*
Y1458087D01*
X563348D02*
X568427Y1463165D01*
Y1468244D01*
X563348Y1473322D01*
X319587Y1419987D02*
X324665D01*
X322126D01*
Y1435222D01*
X319587Y1432683D01*
X332283D02*
X334822Y1435222D01*
X339901D01*
X342440Y1432683D01*
Y1430144D01*
X339901Y1427605D01*
X337361D01*
X339901D01*
X342440Y1425065D01*
Y1422526D01*
X339901Y1419987D01*
X334822D01*
X332283Y1422526D01*
X347518Y1432683D02*
X350057Y1435222D01*
X355136D01*
X357675Y1432683D01*
Y1430144D01*
X355136Y1427605D01*
X352597D01*
X355136D01*
X357675Y1425065D01*
Y1422526D01*
X355136Y1419987D01*
X350057D01*
X347518Y1422526D01*
X362753Y1419987D02*
Y1422526D01*
X365292D01*
Y1419987D01*
X362753D01*
X375449Y1432683D02*
X377988Y1435222D01*
X383067D01*
X385606Y1432683D01*
Y1430144D01*
X383067Y1427605D01*
X385606Y1425065D01*
Y1422526D01*
X383067Y1419987D01*
X377988D01*
X375449Y1422526D01*
Y1425065D01*
X377988Y1427605D01*
X375449Y1430144D01*
Y1432683D01*
X377988Y1427605D02*
X383067D01*
X400841Y1435222D02*
X395762Y1432683D01*
X390684Y1427605D01*
Y1422526D01*
X393223Y1419987D01*
X398302D01*
X400841Y1422526D01*
Y1425065D01*
X398302Y1427605D01*
X390684D01*
X405919Y1419987D02*
Y1430144D01*
X408458D01*
X410998Y1427605D01*
Y1419987D01*
Y1427605D01*
X413537Y1430144D01*
X416076Y1427605D01*
Y1419987D01*
X421154D02*
X426233D01*
X423694D01*
Y1430144D01*
X421154D01*
X433850Y1419987D02*
X438928D01*
X436389D01*
Y1435222D01*
X433850D01*
X466860Y1419987D02*
X461781Y1425065D01*
Y1430144D01*
X466860Y1435222D01*
X474477Y1432683D02*
X477016Y1435222D01*
X482095D01*
X484634Y1432683D01*
Y1430144D01*
X482095Y1427605D01*
X479555D01*
X482095D01*
X484634Y1425065D01*
Y1422526D01*
X482095Y1419987D01*
X477016D01*
X474477Y1422526D01*
X489712Y1419987D02*
Y1422526D01*
X492251D01*
Y1419987D01*
X489712D01*
X510025D02*
Y1435222D01*
X502408Y1427605D01*
X512565D01*
X517643Y1432683D02*
X520182Y1435222D01*
X525261D01*
X527800Y1432683D01*
Y1422526D01*
X525261Y1419987D01*
X520182D01*
X517643Y1422526D01*
Y1432683D01*
X532878D02*
X535417Y1435222D01*
X540496D01*
X543035Y1432683D01*
Y1422526D01*
X540496Y1419987D01*
X535417D01*
X532878Y1422526D01*
Y1432683D01*
X548113Y1419987D02*
Y1430144D01*
X550652D01*
X553192Y1427605D01*
Y1419987D01*
Y1427605D01*
X555731Y1430144D01*
X558270Y1427605D01*
Y1419987D01*
X563348D02*
Y1430144D01*
X565887D01*
X568427Y1427605D01*
Y1419987D01*
Y1427605D01*
X570966Y1430144D01*
X573505Y1427605D01*
Y1419987D01*
X578583D02*
X583662Y1425065D01*
Y1430144D01*
X578583Y1435222D01*
X327205Y1381887D02*
Y1397122D01*
X319587Y1389505D01*
X329744D01*
X334822Y1394583D02*
X337361Y1397122D01*
X342440D01*
X344979Y1394583D01*
Y1384426D01*
X342440Y1381887D01*
X337361D01*
X334822Y1384426D01*
Y1394583D01*
X350057Y1381887D02*
Y1384426D01*
X352597D01*
Y1381887D01*
X350057D01*
X362753D02*
X367831D01*
X365292D01*
Y1397122D01*
X362753Y1394583D01*
X385606Y1397122D02*
X380527Y1394583D01*
X375449Y1389505D01*
Y1384426D01*
X377988Y1381887D01*
X383067D01*
X385606Y1384426D01*
Y1386965D01*
X383067Y1389505D01*
X375449D01*
X390684Y1381887D02*
Y1392044D01*
X393223D01*
X395762Y1389505D01*
Y1381887D01*
Y1389505D01*
X398302Y1392044D01*
X400841Y1389505D01*
Y1381887D01*
X405919D02*
X410998D01*
X408458D01*
Y1392044D01*
X405919D01*
X418615Y1381887D02*
X423694D01*
X421154D01*
Y1397122D01*
X418615D01*
X451624Y1381887D02*
X446546Y1386965D01*
Y1392044D01*
X451624Y1397122D01*
X459242Y1381887D02*
X464320D01*
X461781D01*
Y1397122D01*
X459242Y1394583D01*
X471938Y1381887D02*
Y1384426D01*
X474477D01*
Y1381887D01*
X471938D01*
X484634Y1394583D02*
X487173Y1397122D01*
X492251D01*
X494790Y1394583D01*
Y1384426D01*
X492251Y1381887D01*
X487173D01*
X484634Y1384426D01*
Y1394583D01*
X510025Y1381887D02*
X499869D01*
X510025Y1392044D01*
Y1394583D01*
X507486Y1397122D01*
X502408D01*
X499869Y1394583D01*
X515104D02*
X517643Y1397122D01*
X522721D01*
X525261Y1394583D01*
Y1384426D01*
X522721Y1381887D01*
X517643D01*
X515104Y1384426D01*
Y1394583D01*
X530339Y1381887D02*
Y1392044D01*
X532878D01*
X535417Y1389505D01*
Y1381887D01*
Y1389505D01*
X537957Y1392044D01*
X540496Y1389505D01*
Y1381887D01*
X545574D02*
Y1392044D01*
X548113D01*
X550652Y1389505D01*
Y1381887D01*
Y1389505D01*
X553192Y1392044D01*
X555731Y1389505D01*
Y1381887D01*
X560809D02*
X565887Y1386965D01*
Y1392044D01*
X560809Y1397122D01*
X327205Y1343787D02*
Y1359022D01*
X319587Y1351405D01*
X329744D01*
X334822Y1359022D02*
X344979D01*
Y1356483D01*
X334822Y1346326D01*
Y1343787D01*
X350057D02*
Y1346326D01*
X352597D01*
Y1343787D01*
X350057D01*
X372910D02*
X362753D01*
X372910Y1353944D01*
Y1356483D01*
X370371Y1359022D01*
X365292D01*
X362753Y1356483D01*
X385606Y1343787D02*
Y1359022D01*
X377988Y1351405D01*
X388145D01*
X393223Y1343787D02*
Y1353944D01*
X395762D01*
X398302Y1351405D01*
Y1343787D01*
Y1351405D01*
X400841Y1353944D01*
X403380Y1351405D01*
Y1343787D01*
X408458D02*
X413537D01*
X410998D01*
Y1353944D01*
X408458D01*
X421154Y1343787D02*
X426233D01*
X423694D01*
Y1359022D01*
X421154D01*
X454164Y1343787D02*
X449085Y1348865D01*
Y1353944D01*
X454164Y1359022D01*
X461781Y1343787D02*
X466860D01*
X464320D01*
Y1359022D01*
X461781Y1356483D01*
X474477Y1343787D02*
Y1346326D01*
X477016D01*
Y1343787D01*
X474477D01*
X497330D02*
X487173D01*
X497330Y1353944D01*
Y1356483D01*
X494790Y1359022D01*
X489712D01*
X487173Y1356483D01*
X502408D02*
X504947Y1359022D01*
X510025D01*
X512565Y1356483D01*
Y1346326D01*
X510025Y1343787D01*
X504947D01*
X502408Y1346326D01*
Y1356483D01*
X517643D02*
X520182Y1359022D01*
X525261D01*
X527800Y1356483D01*
Y1346326D01*
X525261Y1343787D01*
X520182D01*
X517643Y1346326D01*
Y1356483D01*
X532878Y1343787D02*
Y1353944D01*
X535417D01*
X537957Y1351405D01*
Y1343787D01*
Y1351405D01*
X540496Y1353944D01*
X543035Y1351405D01*
Y1343787D01*
X548113D02*
Y1353944D01*
X550652D01*
X553192Y1351405D01*
Y1343787D01*
Y1351405D01*
X555731Y1353944D01*
X558270Y1351405D01*
Y1343787D01*
X563348D02*
X568427Y1348865D01*
Y1353944D01*
X563348Y1359022D01*
X319587Y1318383D02*
X322126Y1320922D01*
X327205D01*
X329744Y1318383D01*
Y1315844D01*
X327205Y1313304D01*
X324665D01*
X327205D01*
X329744Y1310765D01*
Y1308226D01*
X327205Y1305687D01*
X322126D01*
X319587Y1308226D01*
X334822Y1305687D02*
X339901D01*
X337361D01*
Y1320922D01*
X334822Y1318383D01*
X347518Y1305687D02*
Y1308226D01*
X350057D01*
Y1305687D01*
X347518D01*
X370371Y1320922D02*
X360214D01*
Y1313304D01*
X365292Y1315844D01*
X367831D01*
X370371Y1313304D01*
Y1308226D01*
X367831Y1305687D01*
X362753D01*
X360214Y1308226D01*
X375449Y1318383D02*
X377988Y1320922D01*
X383067D01*
X385606Y1318383D01*
Y1308226D01*
X383067Y1305687D01*
X377988D01*
X375449Y1308226D01*
Y1318383D01*
X390684Y1305687D02*
Y1315844D01*
X393223D01*
X395762Y1313304D01*
Y1305687D01*
Y1313304D01*
X398302Y1315844D01*
X400841Y1313304D01*
Y1305687D01*
X405919D02*
X410998D01*
X408458D01*
Y1315844D01*
X405919D01*
X418615Y1305687D02*
X423694D01*
X421154D01*
Y1320922D01*
X418615D01*
X451624Y1305687D02*
X446546Y1310765D01*
Y1315844D01*
X451624Y1320922D01*
X459242Y1318383D02*
X461781Y1320922D01*
X466860D01*
X469399Y1318383D01*
Y1308226D01*
X466860Y1305687D01*
X461781D01*
X459242Y1308226D01*
Y1318383D01*
X474477Y1305687D02*
Y1308226D01*
X477016D01*
Y1305687D01*
X474477D01*
X487173Y1318383D02*
X489712Y1320922D01*
X494790D01*
X497330Y1318383D01*
Y1315844D01*
X494790Y1313304D01*
X497330Y1310765D01*
Y1308226D01*
X494790Y1305687D01*
X489712D01*
X487173Y1308226D01*
Y1310765D01*
X489712Y1313304D01*
X487173Y1315844D01*
Y1318383D01*
X489712Y1313304D02*
X494790D01*
X502408Y1318383D02*
X504947Y1320922D01*
X510025D01*
X512565Y1318383D01*
Y1308226D01*
X510025Y1305687D01*
X504947D01*
X502408Y1308226D01*
Y1318383D01*
X517643D02*
X520182Y1320922D01*
X525261D01*
X527800Y1318383D01*
Y1308226D01*
X525261Y1305687D01*
X520182D01*
X517643Y1308226D01*
Y1318383D01*
X532878Y1305687D02*
Y1315844D01*
X535417D01*
X537957Y1313304D01*
Y1305687D01*
Y1313304D01*
X540496Y1315844D01*
X543035Y1313304D01*
Y1305687D01*
X548113D02*
Y1315844D01*
X550652D01*
X553192Y1313304D01*
Y1305687D01*
Y1313304D01*
X555731Y1315844D01*
X558270Y1313304D01*
Y1305687D01*
X563348D02*
X568427Y1310765D01*
Y1315844D01*
X563348Y1320922D01*
X327205Y1267587D02*
Y1282822D01*
X319587Y1275204D01*
X329744D01*
X334822Y1280283D02*
X337361Y1282822D01*
X342440D01*
X344979Y1280283D01*
Y1270126D01*
X342440Y1267587D01*
X337361D01*
X334822Y1270126D01*
Y1280283D01*
X350057Y1267587D02*
Y1270126D01*
X352597D01*
Y1267587D01*
X350057D01*
X362753Y1270126D02*
X365292Y1267587D01*
X370371D01*
X372910Y1270126D01*
Y1280283D01*
X370371Y1282822D01*
X365292D01*
X362753Y1280283D01*
Y1277744D01*
X365292Y1275204D01*
X372910D01*
X388145Y1282822D02*
X377988D01*
Y1275204D01*
X383067Y1277744D01*
X385606D01*
X388145Y1275204D01*
Y1270126D01*
X385606Y1267587D01*
X380527D01*
X377988Y1270126D01*
X393223Y1267587D02*
Y1277744D01*
X395762D01*
X398302Y1275204D01*
Y1267587D01*
Y1275204D01*
X400841Y1277744D01*
X403380Y1275204D01*
Y1267587D01*
X408458D02*
X413537D01*
X410998D01*
Y1277744D01*
X408458D01*
X421154Y1267587D02*
X426233D01*
X423694D01*
Y1282822D01*
X421154D01*
X454164Y1267587D02*
X449085Y1272665D01*
Y1277744D01*
X454164Y1282822D01*
X461781Y1267587D02*
X466860D01*
X464320D01*
Y1282822D01*
X461781Y1280283D01*
X474477Y1267587D02*
Y1270126D01*
X477016D01*
Y1267587D01*
X474477D01*
X487173Y1280283D02*
X489712Y1282822D01*
X494790D01*
X497330Y1280283D01*
Y1270126D01*
X494790Y1267587D01*
X489712D01*
X487173Y1270126D01*
Y1280283D01*
X510025Y1267587D02*
Y1282822D01*
X502408Y1275204D01*
X512565D01*
X517643Y1280283D02*
X520182Y1282822D01*
X525261D01*
X527800Y1280283D01*
Y1270126D01*
X525261Y1267587D01*
X520182D01*
X517643Y1270126D01*
Y1280283D01*
X532878Y1267587D02*
Y1277744D01*
X535417D01*
X537957Y1275204D01*
Y1267587D01*
Y1275204D01*
X540496Y1277744D01*
X543035Y1275204D01*
Y1267587D01*
X548113D02*
Y1277744D01*
X550652D01*
X553192Y1275204D01*
Y1267587D01*
Y1275204D01*
X555731Y1277744D01*
X558270Y1275204D01*
Y1267587D01*
X563348D02*
X568427Y1272665D01*
Y1277744D01*
X563348Y1282822D01*
X319587Y1229487D02*
X324665D01*
X322126D01*
Y1244722D01*
X319587Y1242183D01*
X332283Y1232026D02*
X334822Y1229487D01*
X339901D01*
X342440Y1232026D01*
Y1242183D01*
X339901Y1244722D01*
X334822D01*
X332283Y1242183D01*
Y1239644D01*
X334822Y1237104D01*
X342440D01*
X347518Y1229487D02*
Y1232026D01*
X350057D01*
Y1229487D01*
X347518D01*
X370371Y1244722D02*
X365292Y1242183D01*
X360214Y1237104D01*
Y1232026D01*
X362753Y1229487D01*
X367831D01*
X370371Y1232026D01*
Y1234565D01*
X367831Y1237104D01*
X360214D01*
X375449Y1232026D02*
X377988Y1229487D01*
X383067D01*
X385606Y1232026D01*
Y1242183D01*
X383067Y1244722D01*
X377988D01*
X375449Y1242183D01*
Y1239644D01*
X377988Y1237104D01*
X385606D01*
X390684Y1229487D02*
Y1239644D01*
X393223D01*
X395762Y1237104D01*
Y1229487D01*
Y1237104D01*
X398302Y1239644D01*
X400841Y1237104D01*
Y1229487D01*
X405919D02*
X410998D01*
X408458D01*
Y1239644D01*
X405919D01*
X418615Y1229487D02*
X423694D01*
X421154D01*
Y1244722D01*
X418615D01*
X451624Y1229487D02*
X446546Y1234565D01*
Y1239644D01*
X451624Y1244722D01*
X459242Y1242183D02*
X461781Y1244722D01*
X466860D01*
X469399Y1242183D01*
Y1232026D01*
X466860Y1229487D01*
X461781D01*
X459242Y1232026D01*
Y1242183D01*
X474477Y1229487D02*
Y1232026D01*
X477016D01*
Y1229487D01*
X474477D01*
X497330Y1244722D02*
X487173D01*
Y1237104D01*
X492251Y1239644D01*
X494790D01*
X497330Y1237104D01*
Y1232026D01*
X494790Y1229487D01*
X489712D01*
X487173Y1232026D01*
X502408Y1242183D02*
X504947Y1244722D01*
X510025D01*
X512565Y1242183D01*
Y1232026D01*
X510025Y1229487D01*
X504947D01*
X502408Y1232026D01*
Y1242183D01*
X517643D02*
X520182Y1244722D01*
X525261D01*
X527800Y1242183D01*
Y1232026D01*
X525261Y1229487D01*
X520182D01*
X517643Y1232026D01*
Y1242183D01*
X532878Y1229487D02*
Y1239644D01*
X535417D01*
X537957Y1237104D01*
Y1229487D01*
Y1237104D01*
X540496Y1239644D01*
X543035Y1237104D01*
Y1229487D01*
X548113D02*
Y1239644D01*
X550652D01*
X553192Y1237104D01*
Y1229487D01*
Y1237104D01*
X555731Y1239644D01*
X558270Y1237104D01*
Y1229487D01*
X563348D02*
X568427Y1234565D01*
Y1239644D01*
X563348Y1244722D01*
X177384Y1191387D02*
X167227D01*
X177384Y1201544D01*
Y1204083D01*
X174845Y1206622D01*
X169767D01*
X167227Y1204083D01*
X182463D02*
X185002Y1206622D01*
X190080D01*
X192619Y1204083D01*
Y1201544D01*
X190080Y1199005D01*
X187541D01*
X190080D01*
X192619Y1196465D01*
Y1193926D01*
X190080Y1191387D01*
X185002D01*
X182463Y1193926D01*
X207854Y1191387D02*
X197698D01*
X207854Y1201544D01*
Y1204083D01*
X205315Y1206622D01*
X200237D01*
X197698Y1204083D01*
X228168Y1206622D02*
X238324D01*
X233246D01*
Y1191387D01*
X245942D02*
X251020D01*
X253559Y1193926D01*
Y1199005D01*
X251020Y1201544D01*
X245942D01*
X243403Y1199005D01*
Y1193926D01*
X245942Y1191387D01*
X261177Y1204083D02*
Y1201544D01*
X258638D01*
X263716D01*
X261177D01*
Y1193926D01*
X263716Y1191387D01*
X273873Y1201544D02*
X278951D01*
X281490Y1199005D01*
Y1191387D01*
X273873D01*
X271334Y1193926D01*
X273873Y1196465D01*
X281490D01*
X286569Y1191387D02*
X291647D01*
X289108D01*
Y1206622D01*
X286569D01*
X177384Y1610487D02*
X167227D01*
X177384Y1620644D01*
Y1623183D01*
X174845Y1625722D01*
X169767D01*
X167227Y1623183D01*
X177384Y1572387D02*
X167227D01*
X177384Y1582544D01*
Y1585083D01*
X174845Y1587622D01*
X169767D01*
X167227Y1585083D01*
X174845Y1534287D02*
Y1549522D01*
X167227Y1541904D01*
X177384D01*
X174845Y1496187D02*
Y1511422D01*
X167227Y1503804D01*
X177384D01*
X174845Y1458087D02*
Y1473322D01*
X167227Y1465704D01*
X177384D01*
X174845Y1419987D02*
Y1435222D01*
X167227Y1427605D01*
X177384D01*
X167227Y1394583D02*
X169767Y1397122D01*
X174845D01*
X177384Y1394583D01*
Y1392044D01*
X174845Y1389505D01*
X177384Y1386965D01*
Y1384426D01*
X174845Y1381887D01*
X169767D01*
X167227Y1384426D01*
Y1386965D01*
X169767Y1389505D01*
X167227Y1392044D01*
Y1394583D01*
X169767Y1389505D02*
X174845D01*
X167227Y1343787D02*
X172306D01*
X169767D01*
Y1359022D01*
X167227Y1356483D01*
X190080Y1343787D02*
X179923D01*
X190080Y1353944D01*
Y1356483D01*
X187541Y1359022D01*
X182463D01*
X179923Y1356483D01*
X167227Y1305687D02*
X172306D01*
X169767D01*
Y1320922D01*
X167227Y1318383D01*
X190080Y1320922D02*
X185002Y1318383D01*
X179923Y1313304D01*
Y1308226D01*
X182463Y1305687D01*
X187541D01*
X190080Y1308226D01*
Y1310765D01*
X187541Y1313304D01*
X179923D01*
X174845Y1267587D02*
Y1282822D01*
X167227Y1275204D01*
X177384D01*
X182463Y1280283D02*
X185002Y1282822D01*
X190080D01*
X192619Y1280283D01*
Y1270126D01*
X190080Y1267587D01*
X185002D01*
X182463Y1270126D01*
Y1280283D01*
X167227Y1229487D02*
X172306D01*
X169767D01*
Y1244722D01*
X167227Y1242183D01*
X179923D02*
X182463Y1244722D01*
X187541D01*
X190080Y1242183D01*
Y1239644D01*
X187541Y1237104D01*
X185002D01*
X187541D01*
X190080Y1234565D01*
Y1232026D01*
X187541Y1229487D01*
X182463D01*
X179923Y1232026D01*
X205315Y1244722D02*
X200237Y1242183D01*
X195158Y1237104D01*
Y1232026D01*
X197698Y1229487D01*
X202776D01*
X205315Y1232026D01*
Y1234565D01*
X202776Y1237104D01*
X195158D01*
D26*
X15875Y1637157D02*
X2891364D01*
X15875Y1218057D02*
X2891364D01*
X15875Y1179957D02*
X2891364D01*
Y1675257D01*
X15875D02*
X2891364D01*
X15875Y1179957D02*
Y1675257D01*
X2541198Y1179957D02*
Y1675257D01*
X2202462Y1179957D02*
Y1675257D01*
X1985606Y1179957D02*
Y1675257D01*
X1635190Y1179957D02*
Y1675257D01*
X1445757Y1179957D02*
Y1675257D01*
X1295936Y1179957D02*
Y1675257D01*
X915050Y1179957D02*
Y1675257D01*
X728664Y1179957D02*
Y1675257D01*
X600172Y1179957D02*
Y1675257D01*
X308157Y1179957D02*
Y1675257D01*
X155797Y1179957D02*
Y1675257D01*
D59*
X2552628Y1666869D02*
Y1648587D01*
Y1657728D01*
X2564816D01*
Y1666869D01*
Y1648587D01*
X2573957D02*
X2580051D01*
X2583098Y1651634D01*
Y1657728D01*
X2580051Y1660775D01*
X2573957D01*
X2570910Y1657728D01*
Y1651634D01*
X2573957Y1648587D01*
X2589192D02*
X2595286D01*
X2592239D01*
Y1666869D01*
X2589192D01*
X2613568Y1648587D02*
X2607474D01*
X2604427Y1651634D01*
Y1657728D01*
X2607474Y1660775D01*
X2613568D01*
X2616615Y1657728D01*
Y1654681D01*
X2604427D01*
X2640991Y1666869D02*
X2653179D01*
X2647085D01*
Y1648587D01*
X2662320D02*
X2668414D01*
X2671461Y1651634D01*
Y1657728D01*
X2668414Y1660775D01*
X2662320D01*
X2659273Y1657728D01*
Y1651634D01*
X2662320Y1648587D01*
X2677556D02*
X2683649D01*
X2680602D01*
Y1666869D01*
X2677556D01*
X2701931Y1648587D02*
X2695837D01*
X2692791Y1651634D01*
Y1657728D01*
X2695837Y1660775D01*
X2701931D01*
X2704979Y1657728D01*
Y1654681D01*
X2692791D01*
X2711073Y1660775D02*
Y1648587D01*
Y1654681D01*
X2714120Y1657728D01*
X2717167Y1660775D01*
X2720214D01*
X2732402D02*
X2738496D01*
X2741543Y1657728D01*
Y1648587D01*
X2732402D01*
X2729355Y1651634D01*
X2732402Y1654681D01*
X2741543D01*
X2747637Y1648587D02*
Y1660775D01*
X2756778D01*
X2759825Y1657728D01*
Y1648587D01*
X2778107Y1660775D02*
X2768966D01*
X2765919Y1657728D01*
Y1651634D01*
X2768966Y1648587D01*
X2778107D01*
X2793342D02*
X2787248D01*
X2784201Y1651634D01*
Y1657728D01*
X2787248Y1660775D01*
X2793342D01*
X2796389Y1657728D01*
Y1654681D01*
X2784201D01*
X2826859Y1648587D02*
X2820765Y1654681D01*
Y1660775D01*
X2826859Y1666869D01*
X2836000Y1657728D02*
X2848188D01*
X2854282Y1648587D02*
X2860376Y1654681D01*
Y1660775D01*
X2854282Y1666869D01*
X2213891D02*
Y1648587D01*
Y1657728D01*
X2226080D01*
Y1666869D01*
Y1648587D01*
X2235221D02*
X2241315D01*
X2244362Y1651634D01*
Y1657728D01*
X2241315Y1660775D01*
X2235221D01*
X2232174Y1657728D01*
Y1651634D01*
X2235221Y1648587D01*
X2250456D02*
X2256550D01*
X2253503D01*
Y1666869D01*
X2250456D01*
X2274832Y1648587D02*
X2268738D01*
X2265691Y1651634D01*
Y1657728D01*
X2268738Y1660775D01*
X2274832D01*
X2277879Y1657728D01*
Y1654681D01*
X2265691D01*
X2302255Y1666869D02*
X2314443D01*
X2308349D01*
Y1648587D01*
X2323584D02*
X2329678D01*
X2332725Y1651634D01*
Y1657728D01*
X2329678Y1660775D01*
X2323584D01*
X2320537Y1657728D01*
Y1651634D01*
X2323584Y1648587D01*
X2338819D02*
X2344913D01*
X2341866D01*
Y1666869D01*
X2338819D01*
X2363195Y1648587D02*
X2357101D01*
X2354054Y1651634D01*
Y1657728D01*
X2357101Y1660775D01*
X2363195D01*
X2366242Y1657728D01*
Y1654681D01*
X2354054D01*
X2372336Y1660775D02*
Y1648587D01*
Y1654681D01*
X2375383Y1657728D01*
X2378430Y1660775D01*
X2381477D01*
X2393665D02*
X2399759D01*
X2402806Y1657728D01*
Y1648587D01*
X2393665D01*
X2390618Y1651634D01*
X2393665Y1654681D01*
X2402806D01*
X2408900Y1648587D02*
Y1660775D01*
X2418041D01*
X2421088Y1657728D01*
Y1648587D01*
X2439371Y1660775D02*
X2430229D01*
X2427182Y1657728D01*
Y1651634D01*
X2430229Y1648587D01*
X2439371D01*
X2454606D02*
X2448512D01*
X2445464Y1651634D01*
Y1657728D01*
X2448512Y1660775D01*
X2454606D01*
X2457653Y1657728D01*
Y1654681D01*
X2445464D01*
X2488123Y1648587D02*
X2482029Y1654681D01*
Y1660775D01*
X2488123Y1666869D01*
X2497264Y1657728D02*
X2509452D01*
X2503358Y1663822D02*
Y1651634D01*
X2515546Y1648587D02*
X2521640Y1654681D01*
Y1660775D01*
X2515546Y1666869D01*
X1997036D02*
Y1648587D01*
X2006177D01*
X2009224Y1651634D01*
Y1663822D01*
X2006177Y1666869D01*
X1997036D01*
X2024459Y1648587D02*
X2018365D01*
X2015318Y1651634D01*
Y1657728D01*
X2018365Y1660775D01*
X2024459D01*
X2027506Y1657728D01*
Y1654681D01*
X2015318D01*
X2033600Y1648587D02*
X2042741D01*
X2045788Y1651634D01*
X2042741Y1654681D01*
X2036647D01*
X2033600Y1657728D01*
X2036647Y1660775D01*
X2045788D01*
X2064070D02*
X2054929D01*
X2051882Y1657728D01*
Y1651634D01*
X2054929Y1648587D01*
X2064070D01*
X2070164Y1660775D02*
Y1648587D01*
Y1654681D01*
X2073211Y1657728D01*
X2076258Y1660775D01*
X2079305D01*
X2088446Y1648587D02*
X2094540D01*
X2091493D01*
Y1660775D01*
X2088446D01*
X2103681Y1642493D02*
Y1660775D01*
X2112822D01*
X2115869Y1657728D01*
Y1651634D01*
X2112822Y1648587D01*
X2103681D01*
X2125010Y1663822D02*
Y1660775D01*
X2121963D01*
X2128057D01*
X2125010D01*
Y1651634D01*
X2128057Y1648587D01*
X2137198D02*
X2143292D01*
X2140245D01*
Y1660775D01*
X2137198D01*
X2155480Y1648587D02*
X2161574D01*
X2164621Y1651634D01*
Y1657728D01*
X2161574Y1660775D01*
X2155480D01*
X2152433Y1657728D01*
Y1651634D01*
X2155480Y1648587D01*
X2170715D02*
Y1660775D01*
X2179857D01*
X2182903Y1657728D01*
Y1648587D01*
X1646620Y1666869D02*
X1658808D01*
X1652714D01*
Y1648587D01*
X1674043D02*
X1667949D01*
X1664902Y1651634D01*
Y1657728D01*
X1667949Y1660775D01*
X1674043D01*
X1677090Y1657728D01*
Y1654681D01*
X1664902D01*
X1683184Y1648587D02*
Y1660775D01*
X1686231D01*
X1689278Y1657728D01*
Y1648587D01*
Y1657728D01*
X1692325Y1660775D01*
X1695372Y1657728D01*
Y1648587D01*
X1701466Y1642493D02*
Y1660775D01*
X1710607D01*
X1713654Y1657728D01*
Y1651634D01*
X1710607Y1648587D01*
X1701466D01*
X1719748D02*
X1725842D01*
X1722795D01*
Y1666869D01*
X1719748D01*
X1738030Y1660775D02*
X1744124D01*
X1747171Y1657728D01*
Y1648587D01*
X1738030D01*
X1734983Y1651634D01*
X1738030Y1654681D01*
X1747171D01*
X1756312Y1663822D02*
Y1660775D01*
X1753265D01*
X1759359D01*
X1756312D01*
Y1651634D01*
X1759359Y1648587D01*
X1777642D02*
X1771548D01*
X1768501Y1651634D01*
Y1657728D01*
X1771548Y1660775D01*
X1777642D01*
X1780689Y1657728D01*
Y1654681D01*
X1768501D01*
X1457187Y1648587D02*
Y1666869D01*
X1466328D01*
X1469375Y1663822D01*
Y1657728D01*
X1466328Y1654681D01*
X1457187D01*
X1478516Y1660775D02*
X1484610D01*
X1487657Y1657728D01*
Y1648587D01*
X1478516D01*
X1475469Y1651634D01*
X1478516Y1654681D01*
X1487657D01*
X1505939Y1666869D02*
Y1648587D01*
X1496798D01*
X1493751Y1651634D01*
Y1657728D01*
X1496798Y1660775D01*
X1505939D01*
X1542504Y1663822D02*
X1539457Y1666869D01*
X1533363D01*
X1530316Y1663822D01*
Y1660775D01*
X1533363Y1657728D01*
X1539457D01*
X1542504Y1654681D01*
Y1651634D01*
X1539457Y1648587D01*
X1533363D01*
X1530316Y1651634D01*
X1548598Y1666869D02*
Y1648587D01*
Y1657728D01*
X1551645Y1660775D01*
X1557739D01*
X1560786Y1657728D01*
Y1648587D01*
X1569927Y1660775D02*
X1576021D01*
X1579068Y1657728D01*
Y1648587D01*
X1569927D01*
X1566880Y1651634D01*
X1569927Y1654681D01*
X1579068D01*
X1585162Y1642493D02*
Y1660775D01*
X1594303D01*
X1597350Y1657728D01*
Y1651634D01*
X1594303Y1648587D01*
X1585162D01*
X1612585D02*
X1606491D01*
X1603444Y1651634D01*
Y1657728D01*
X1606491Y1660775D01*
X1612585D01*
X1615632Y1657728D01*
Y1654681D01*
X1603444D01*
X1307366Y1666869D02*
Y1654681D01*
X1313460Y1648587D01*
X1319554Y1654681D01*
Y1666869D01*
X1325648Y1648587D02*
X1331742D01*
X1328695D01*
Y1660775D01*
X1325648D01*
X1343930D02*
X1350024D01*
X1353071Y1657728D01*
Y1648587D01*
X1343930D01*
X1340883Y1651634D01*
X1343930Y1654681D01*
X1353071D01*
X1359165Y1648587D02*
X1371353Y1660775D01*
X1377447Y1648587D02*
Y1666869D01*
X1386588D01*
X1389635Y1663822D01*
Y1657728D01*
X1386588Y1654681D01*
X1377447D01*
X1398776Y1660775D02*
X1404870D01*
X1407917Y1657728D01*
Y1648587D01*
X1398776D01*
X1395729Y1651634D01*
X1398776Y1654681D01*
X1407917D01*
X1426199Y1666869D02*
Y1648587D01*
X1417058D01*
X1414011Y1651634D01*
Y1657728D01*
X1417058Y1660775D01*
X1426199D01*
X926480Y1666869D02*
Y1648587D01*
X935621D01*
X938668Y1651634D01*
Y1663822D01*
X935621Y1666869D01*
X926480D01*
X944762Y1660775D02*
Y1648587D01*
Y1654681D01*
X947809Y1657728D01*
X950856Y1660775D01*
X953903D01*
X963044Y1648587D02*
X969138D01*
X966091D01*
Y1660775D01*
X963044D01*
X978279Y1648587D02*
X984373D01*
X981326D01*
Y1666869D01*
X978279D01*
X993514Y1648587D02*
X999608D01*
X996561D01*
Y1666869D01*
X993514D01*
X1027031D02*
Y1648587D01*
X1039219D01*
X1048360Y1660775D02*
X1054454D01*
X1057502Y1657728D01*
Y1648587D01*
X1048360D01*
X1045313Y1651634D01*
X1048360Y1654681D01*
X1057502D01*
X1063596Y1660775D02*
Y1651634D01*
X1066643Y1648587D01*
X1075783D01*
Y1645540D01*
X1072737Y1642493D01*
X1069689D01*
X1075783Y1648587D02*
Y1660775D01*
X1091019Y1648587D02*
X1084925D01*
X1081878Y1651634D01*
Y1657728D01*
X1084925Y1660775D01*
X1091019D01*
X1094066Y1657728D01*
Y1654681D01*
X1081878D01*
X1100160Y1660775D02*
Y1648587D01*
Y1654681D01*
X1103207Y1657728D01*
X1106254Y1660775D01*
X1109301D01*
X1136724Y1648587D02*
Y1666869D01*
X1145865D01*
X1148912Y1663822D01*
Y1657728D01*
X1145865Y1654681D01*
X1136724D01*
X1158053Y1660775D02*
X1164147D01*
X1167194Y1657728D01*
Y1648587D01*
X1158053D01*
X1155006Y1651634D01*
X1158053Y1654681D01*
X1167194D01*
X1173288Y1648587D02*
X1179382D01*
X1176335D01*
Y1660775D01*
X1173288D01*
X1188523D02*
Y1648587D01*
Y1654681D01*
X1191570Y1657728D01*
X1194617Y1660775D01*
X1197664D01*
X740094Y1666869D02*
Y1648587D01*
Y1657728D01*
X752282D01*
Y1666869D01*
Y1648587D01*
X761423D02*
X767517D01*
X770564Y1651634D01*
Y1657728D01*
X767517Y1660775D01*
X761423D01*
X758376Y1657728D01*
Y1651634D01*
X761423Y1648587D01*
X776658D02*
X782752D01*
X779705D01*
Y1666869D01*
X776658D01*
X801034Y1648587D02*
X794940D01*
X791893Y1651634D01*
Y1657728D01*
X794940Y1660775D01*
X801034D01*
X804081Y1657728D01*
Y1654681D01*
X791893D01*
X828458Y1666869D02*
X840646D01*
X834552D01*
Y1648587D01*
X846740Y1660775D02*
Y1651634D01*
X849787Y1648587D01*
X858928D01*
Y1645540D01*
X855881Y1642493D01*
X852834D01*
X858928Y1648587D02*
Y1660775D01*
X865022Y1642493D02*
Y1660775D01*
X874163D01*
X877210Y1657728D01*
Y1651634D01*
X874163Y1648587D01*
X865022D01*
X892445D02*
X886351D01*
X883304Y1651634D01*
Y1657728D01*
X886351Y1660775D01*
X892445D01*
X895492Y1657728D01*
Y1654681D01*
X883304D01*
X611602Y1648587D02*
Y1666869D01*
X620743D01*
X623790Y1663822D01*
Y1657728D01*
X620743Y1654681D01*
X611602D01*
X629884Y1648587D02*
X635978D01*
X632931D01*
Y1666869D01*
X629884D01*
X648166Y1660775D02*
X654260D01*
X657307Y1657728D01*
Y1648587D01*
X648166D01*
X645119Y1651634D01*
X648166Y1654681D01*
X657307D01*
X666448Y1663822D02*
Y1660775D01*
X663401D01*
X669495D01*
X666448D01*
Y1651634D01*
X669495Y1648587D01*
X687777D02*
X681683D01*
X678636Y1651634D01*
Y1657728D01*
X681683Y1660775D01*
X687777D01*
X690824Y1657728D01*
Y1654681D01*
X678636D01*
X709106Y1666869D02*
Y1648587D01*
X699965D01*
X696918Y1651634D01*
Y1657728D01*
X699965Y1660775D01*
X709106D01*
X319587Y1666869D02*
Y1648587D01*
Y1657728D01*
X331775D01*
Y1666869D01*
Y1648587D01*
X340916D02*
X347010D01*
X350057Y1651634D01*
Y1657728D01*
X347010Y1660775D01*
X340916D01*
X337869Y1657728D01*
Y1651634D01*
X340916Y1648587D01*
X356151D02*
X362245D01*
X359198D01*
Y1666869D01*
X356151D01*
X380527Y1648587D02*
X374433D01*
X371386Y1651634D01*
Y1657728D01*
X374433Y1660775D01*
X380527D01*
X383574Y1657728D01*
Y1654681D01*
X371386D01*
X420139Y1663822D02*
X417092Y1666869D01*
X410998D01*
X407951Y1663822D01*
Y1660775D01*
X410998Y1657728D01*
X417092D01*
X420139Y1654681D01*
Y1651634D01*
X417092Y1648587D01*
X410998D01*
X407951Y1651634D01*
X426233Y1648587D02*
X432327D01*
X429280D01*
Y1660775D01*
X426233D01*
X441468D02*
X453656D01*
X441468Y1648587D01*
X453656D01*
X468891D02*
X462797D01*
X459750Y1651634D01*
Y1657728D01*
X462797Y1660775D01*
X468891D01*
X471938Y1657728D01*
Y1654681D01*
X459750D01*
X179415Y1663822D02*
X176369Y1666869D01*
X170274D01*
X167227Y1663822D01*
Y1651634D01*
X170274Y1648587D01*
X176369D01*
X179415Y1651634D01*
X188556Y1648587D02*
X194651D01*
X197698Y1651634D01*
Y1657728D01*
X194651Y1660775D01*
X188556D01*
X185509Y1657728D01*
Y1651634D01*
X188556Y1648587D01*
X203792Y1660775D02*
Y1651634D01*
X206839Y1648587D01*
X215980D01*
Y1660775D01*
X222074Y1648587D02*
Y1660775D01*
X231215D01*
X234262Y1657728D01*
Y1648587D01*
X243403Y1663822D02*
Y1660775D01*
X240356D01*
X246450D01*
X243403D01*
Y1651634D01*
X246450Y1648587D01*
X50923Y1663822D02*
X47876Y1666869D01*
X41782D01*
X38735Y1663822D01*
Y1660775D01*
X41782Y1657728D01*
X47876D01*
X50923Y1654681D01*
Y1651634D01*
X47876Y1648587D01*
X41782D01*
X38735Y1651634D01*
X57017Y1660775D02*
Y1651634D01*
X60064Y1648587D01*
X69205D01*
Y1645540D01*
X66158Y1642493D01*
X63111D01*
X69205Y1648587D02*
Y1660775D01*
X75299Y1648587D02*
Y1660775D01*
X78346D01*
X81393Y1657728D01*
Y1648587D01*
Y1657728D01*
X84440Y1660775D01*
X87487Y1657728D01*
Y1648587D01*
X93581Y1666869D02*
Y1648587D01*
X102722D01*
X105769Y1651634D01*
Y1654681D01*
Y1657728D01*
X102722Y1660775D01*
X93581D01*
X114910Y1648587D02*
X121004D01*
X124051Y1651634D01*
Y1657728D01*
X121004Y1660775D01*
X114910D01*
X111863Y1657728D01*
Y1651634D01*
X114910Y1648587D01*
X130145D02*
X136239D01*
X133192D01*
Y1666869D01*
X130145D01*
M02*
