G04*
G04 #@! TF.GenerationSoftware,Altium Limited,Altium Designer,24.5.2 (23)*
G04*
G04 Layer_Physical_Order=2*
G04 Layer_Color=16711680*
%FSLAX44Y44*%
%MOMM*%
G71*
G04*
G04 #@! TF.SameCoordinates,BE5CC84F-6731-4C53-AAD9-C32198600D17*
G04*
G04*
G04 #@! TF.FilePolarity,Positive*
G04*
G01*
G75*
%ADD27C,0.7620*%
%ADD29C,1.2700*%
%ADD30C,0.3810*%
%ADD31C,0.5080*%
%ADD33C,1.5200*%
%ADD34R,1.5200X1.5200*%
%ADD35C,3.2000*%
%ADD36R,3.2000X3.2000*%
%ADD37C,2.0000*%
%ADD38C,2.5000*%
%ADD39R,1.3080X1.3080*%
%ADD40C,1.3080*%
%ADD41C,1.5240*%
%ADD42C,1.8000*%
%ADD43R,1.6000X1.6000*%
%ADD44C,1.6000*%
%ADD45C,4.4000*%
%ADD46R,1.8000X1.8000*%
%ADD47C,1.0000*%
%ADD48C,0.2540*%
%ADD49R,0.8890X0.7620*%
%ADD50R,0.7600X1.6700*%
%ADD51R,1.7780X1.5240*%
%ADD52R,1.0160X1.5240*%
%ADD53R,0.7400X0.2700*%
%ADD54R,0.8400X2.4000*%
%ADD55R,1.5240X1.0160*%
%ADD56R,2.2000X0.6500*%
%ADD57R,0.8200X0.9200*%
%ADD58C,0.6350*%
%ADD59R,2.8045X1.6789*%
%ADD60R,1.7850X0.6850*%
%ADD61R,8.5914X0.7304*%
%ADD62R,3.4435X0.3108*%
%ADD63R,2.7741X0.7700*%
G36*
X1447521Y5179D02*
X5179D01*
Y831138D01*
X7211Y831440D01*
X7409Y830787D01*
X9261Y827323D01*
X11753Y824287D01*
X14789Y821795D01*
X18253Y819944D01*
X22011Y818803D01*
X25920Y818419D01*
Y818455D01*
X48286D01*
Y818419D01*
X52194Y818803D01*
X55953Y819944D01*
X59417Y821795D01*
X62453Y824287D01*
X64945Y827323D01*
X66796Y830787D01*
X67936Y834545D01*
X68321Y838454D01*
X68285D01*
Y855215D01*
X69002Y855765D01*
X72710D01*
X76291Y856725D01*
X79501Y858578D01*
X82123Y861200D01*
X83976Y864410D01*
X84936Y867991D01*
Y871699D01*
X83976Y875280D01*
X82123Y878490D01*
X79501Y881112D01*
X78779Y881529D01*
Y883561D01*
X79501Y883978D01*
X82123Y886600D01*
X83976Y889810D01*
X84936Y893391D01*
Y897099D01*
X83976Y900680D01*
X82123Y903890D01*
X79501Y906512D01*
X76291Y908365D01*
X72710Y909325D01*
X69002D01*
X67777Y910265D01*
Y945638D01*
X67756Y945795D01*
X68196Y948003D01*
X69535Y950008D01*
X71540Y951347D01*
X73748Y951787D01*
X73905Y951766D01*
X124782D01*
X125291Y949734D01*
X123280Y948659D01*
X120313Y946223D01*
X117877Y943256D01*
X116067Y939870D01*
X114953Y936196D01*
X114577Y932376D01*
X114611D01*
Y907436D01*
X113011Y906512D01*
X110389Y903890D01*
X108535Y900680D01*
X107576Y897099D01*
Y893391D01*
X108535Y889810D01*
X110389Y886600D01*
X113011Y883978D01*
X113733Y883561D01*
Y881529D01*
X113011Y881112D01*
X110389Y878490D01*
X108535Y875280D01*
X107576Y871699D01*
Y867991D01*
X108535Y864410D01*
X110389Y861200D01*
X113011Y858578D01*
X116221Y856725D01*
X119802Y855765D01*
X123510D01*
X127091Y856725D01*
X130301Y858578D01*
X132923Y861200D01*
X134776Y864410D01*
X135736Y867991D01*
Y871699D01*
X135258Y873483D01*
X136783Y875008D01*
X136783Y875008D01*
X136794Y874997D01*
X138772Y877407D01*
X140243Y880157D01*
X141148Y883142D01*
X141453Y886245D01*
X141437D01*
Y892956D01*
X141437Y894457D01*
X141470D01*
Y896033D01*
X141437D01*
X141437Y897533D01*
Y921476D01*
X141422Y921592D01*
X141815Y923571D01*
X143002Y925347D01*
X144779Y926534D01*
X146758Y926928D01*
X146874Y926913D01*
X213288D01*
X214309Y925892D01*
X216607Y924565D01*
X219171Y923878D01*
X221825D01*
X224389Y924565D01*
X226687Y925892D01*
X228564Y927769D01*
X229891Y930067D01*
X230578Y932631D01*
Y935285D01*
X230548Y935395D01*
X231911Y937241D01*
X233367Y937313D01*
X233867Y936814D01*
X236165Y935487D01*
X238729Y934800D01*
X241383D01*
X243946Y935487D01*
X246245Y936814D01*
X248122Y938691D01*
X249449Y940989D01*
X250136Y943553D01*
Y946207D01*
X249449Y948771D01*
X248893Y949734D01*
X250066Y951766D01*
X325476D01*
X325985Y949734D01*
X325795Y949632D01*
X322507Y946934D01*
X319808Y943645D01*
X317803Y939894D01*
X316568Y935823D01*
X316151Y931590D01*
X316179D01*
Y923601D01*
X315753Y922863D01*
X315066Y920299D01*
Y917645D01*
X315753Y915081D01*
X317080Y912783D01*
X318957Y910906D01*
X321255Y909579D01*
X323819Y908892D01*
X326473D01*
X329036Y909579D01*
X331335Y910906D01*
X333212Y912783D01*
X334539Y915081D01*
X335226Y917645D01*
Y920299D01*
X334539Y922863D01*
X334113Y923601D01*
Y931590D01*
X334104Y931656D01*
X334377Y933029D01*
X335192Y934249D01*
X336412Y935064D01*
X337785Y935337D01*
X337851Y935328D01*
X754222D01*
X754352Y935345D01*
X756079Y935002D01*
X757654Y933949D01*
X758707Y932374D01*
X759050Y930647D01*
X759033Y930517D01*
Y869630D01*
X754920D01*
Y865435D01*
X753664Y864856D01*
X752888Y864760D01*
X750631Y867017D01*
X747649Y868739D01*
X744322Y869630D01*
X740878D01*
X737551Y868739D01*
X734569Y867017D01*
X732133Y864581D01*
X730411Y861599D01*
X729520Y858272D01*
Y854828D01*
X730411Y851501D01*
X732133Y848519D01*
X734569Y846083D01*
X737551Y844361D01*
X740878Y843470D01*
X744322D01*
X747649Y844361D01*
X750631Y846083D01*
X752888Y848340D01*
X753664Y848244D01*
X754920Y847665D01*
Y843470D01*
X781080D01*
Y869630D01*
X776967D01*
Y930517D01*
X777000D01*
X776562Y934960D01*
X775266Y939233D01*
X773161Y943171D01*
X770328Y946623D01*
X766877Y949456D01*
X766356Y949734D01*
X766865Y951766D01*
X811174D01*
X811176Y951766D01*
X812513Y951500D01*
X813649Y950741D01*
X814407Y949606D01*
X814673Y948268D01*
X814673Y948267D01*
Y811714D01*
X814655D01*
X814463Y810747D01*
X813915Y809927D01*
X813095Y809379D01*
X812127Y809186D01*
Y809168D01*
X698686D01*
X696973Y809938D01*
X696581Y812922D01*
X695429Y815703D01*
X693597Y818090D01*
X691209Y819922D01*
X688428Y821074D01*
X685445Y821467D01*
X682461Y821074D01*
X679680Y819922D01*
X677293Y818090D01*
X675461Y815703D01*
X674309Y812922D01*
X673916Y809938D01*
X672203Y809168D01*
X641144D01*
Y809214D01*
X636845Y808791D01*
X632711Y807536D01*
X628901Y805500D01*
X625561Y802759D01*
X622821Y799420D01*
X620784Y795610D01*
X619530Y791476D01*
X619107Y787176D01*
X619153D01*
Y754831D01*
X618789Y752072D01*
X617604Y749210D01*
X616921Y748320D01*
X615660Y746810D01*
X615660Y746810D01*
X612891Y743435D01*
X612174Y742094D01*
X610164Y741796D01*
X609719Y742241D01*
X607421Y743568D01*
X604857Y744255D01*
X602203D01*
X599639Y743568D01*
X597341Y742241D01*
X595464Y740364D01*
X594137Y738065D01*
X593450Y735502D01*
Y732848D01*
X593517Y732596D01*
X592280Y730984D01*
X581305D01*
Y713204D01*
Y697964D01*
X583144D01*
Y671902D01*
X583089D01*
X583569Y668255D01*
X584977Y664856D01*
X587216Y661938D01*
X590135Y659699D01*
X593533Y658291D01*
X597180Y657811D01*
Y657866D01*
X622906D01*
Y657814D01*
X626467Y658283D01*
X629786Y659658D01*
X632637Y661845D01*
X634824Y664695D01*
X636199Y668014D01*
X636595Y671028D01*
X681131D01*
X682368Y669416D01*
X682350Y669347D01*
Y666693D01*
X683037Y664129D01*
X684218Y662083D01*
X683599Y660051D01*
X641144D01*
Y660096D01*
X636882Y659676D01*
X632784Y658433D01*
X629008Y656415D01*
X625698Y653698D01*
X622981Y650388D01*
X620962Y646611D01*
X619719Y642514D01*
X619300Y638252D01*
X619344D01*
Y632402D01*
X619365Y632249D01*
X618959Y629165D01*
X617709Y626148D01*
X616926Y625127D01*
X615660Y623620D01*
X615660Y623620D01*
X612891Y620245D01*
X610833Y616395D01*
X609678Y612588D01*
X607350D01*
Y585728D01*
X620050D01*
Y585728D01*
X621244D01*
Y539108D01*
X621223D01*
X621569Y535599D01*
X622592Y532225D01*
X624254Y529115D01*
X626491Y526389D01*
X629217Y524153D01*
X632326Y522491D01*
X635700Y521467D01*
X639209Y521121D01*
Y521142D01*
X861075D01*
Y521117D01*
X864759Y521480D01*
X868302Y522555D01*
X871567Y524300D01*
X874429Y526649D01*
X876778Y529511D01*
X878523Y532776D01*
X879598Y536319D01*
X879961Y540003D01*
X879936D01*
Y606044D01*
X881775D01*
Y621284D01*
Y633730D01*
X906700D01*
Y659130D01*
X878760D01*
Y649411D01*
X865813D01*
Y662178D01*
X881775D01*
Y677418D01*
Y695198D01*
X876795D01*
Y718400D01*
X876885Y718452D01*
X879048Y720615D01*
X880578Y723265D01*
X881370Y726220D01*
Y729280D01*
X880578Y732235D01*
X879048Y734885D01*
X876885Y737048D01*
X874235Y738578D01*
X871280Y739370D01*
X868220D01*
X865265Y738578D01*
X862615Y737048D01*
X860452Y734885D01*
X858922Y732235D01*
X858130Y729280D01*
Y726220D01*
X858922Y723265D01*
X860452Y720615D01*
X862615Y718452D01*
X862705Y718400D01*
Y714647D01*
X860673Y713409D01*
X858580Y713970D01*
X855520D01*
X852565Y713178D01*
X849915Y711648D01*
X847752Y709485D01*
X846222Y706835D01*
X845430Y703880D01*
Y700820D01*
X846222Y697865D01*
X846622Y697172D01*
X846763Y695198D01*
X846763Y695198D01*
X846763Y695198D01*
Y677418D01*
Y662178D01*
Y649224D01*
Y637219D01*
X841937D01*
Y649224D01*
Y662178D01*
Y677418D01*
Y695198D01*
X841937Y695198D01*
X841937D01*
X842078Y697172D01*
X842478Y697865D01*
X843270Y700820D01*
Y703880D01*
X842478Y706835D01*
X840948Y709485D01*
X838785Y711648D01*
X836135Y713178D01*
X833180Y713970D01*
X830120D01*
X828027Y713409D01*
X825995Y714647D01*
Y718400D01*
X826085Y718452D01*
X828248Y720615D01*
X829778Y723265D01*
X830570Y726220D01*
Y729280D01*
X829778Y732235D01*
X828248Y734885D01*
X826085Y737048D01*
X823435Y738578D01*
X820480Y739370D01*
X817420D01*
X814465Y738578D01*
X811815Y737048D01*
X809652Y734885D01*
X808122Y732235D01*
X807330Y729280D01*
Y726220D01*
X808122Y723265D01*
X809652Y720615D01*
X811815Y718452D01*
X811905Y718400D01*
Y714647D01*
X809873Y713409D01*
X807780Y713970D01*
X804720D01*
X802627Y713409D01*
X800595Y714647D01*
Y718400D01*
X800685Y718452D01*
X802848Y720615D01*
X804378Y723265D01*
X805170Y726220D01*
Y729280D01*
X804378Y732235D01*
X802848Y734885D01*
X800685Y737048D01*
X798035Y738578D01*
X795080Y739370D01*
X792020D01*
X789065Y738578D01*
X786415Y737048D01*
X784252Y734885D01*
X782722Y732235D01*
X781930Y729280D01*
Y726220D01*
X782722Y723265D01*
X784252Y720615D01*
X786415Y718452D01*
X786505Y718400D01*
Y713970D01*
X769230D01*
Y690730D01*
X773805D01*
Y660118D01*
X773738D01*
Y660051D01*
X753213D01*
Y669645D01*
X753251D01*
X752858Y672629D01*
X751706Y675409D01*
X749874Y677797D01*
X747487Y679629D01*
X744706Y680781D01*
X741722Y681173D01*
X738739Y680781D01*
X735958Y679629D01*
X733570Y677797D01*
X731738Y675409D01*
X730587Y672629D01*
X730194Y669645D01*
X730232D01*
Y660051D01*
X701261D01*
X700642Y662083D01*
X701823Y664129D01*
X702510Y666693D01*
Y669347D01*
X702491Y669416D01*
X703728Y671028D01*
X714010D01*
Y697888D01*
X714655Y698218D01*
Y713458D01*
Y727825D01*
X727355D01*
Y743065D01*
Y760845D01*
X727355D01*
X727296Y760922D01*
X727910Y763213D01*
Y765867D01*
X727223Y768431D01*
X725896Y770729D01*
X724019Y772606D01*
X721721Y773933D01*
X719157Y774620D01*
X716503D01*
X713939Y773933D01*
X711641Y772606D01*
X709764Y770729D01*
X708437Y768431D01*
X707750Y765867D01*
Y763213D01*
X707952Y762457D01*
X706715Y760845D01*
X702250D01*
Y768443D01*
X702572Y768529D01*
X704870Y769856D01*
X706747Y771733D01*
X708074Y774031D01*
X708761Y776595D01*
Y779249D01*
X708074Y781813D01*
X706747Y784111D01*
X704870Y785988D01*
X702572Y787315D01*
X702040Y787458D01*
X702307Y789490D01*
X812127D01*
Y789443D01*
X816472Y789871D01*
X820650Y791138D01*
X824501Y793196D01*
X827876Y795966D01*
X829531Y797983D01*
X830477Y798103D01*
X832037Y797833D01*
X834152Y795255D01*
X837154Y792792D01*
X840578Y790962D01*
X844293Y789835D01*
X848157Y789454D01*
Y789490D01*
X874387D01*
X874473Y789168D01*
X875800Y786870D01*
X877677Y784993D01*
X879975Y783666D01*
X882539Y782979D01*
X885193D01*
X887757Y783666D01*
X890055Y784993D01*
X891932Y786870D01*
X893259Y789168D01*
X893946Y791732D01*
Y794386D01*
X893259Y796950D01*
X891932Y799248D01*
X891851Y799329D01*
X891932Y799410D01*
X893259Y801708D01*
X893946Y804272D01*
Y806926D01*
X893259Y809490D01*
X891932Y811788D01*
X890055Y813665D01*
X887757Y814992D01*
X885193Y815679D01*
X882539D01*
X879975Y814992D01*
X877677Y813665D01*
X875800Y811788D01*
X875115Y810603D01*
X874426D01*
X873222Y812582D01*
X873940Y815262D01*
Y818038D01*
X873222Y820718D01*
X871834Y823122D01*
X869872Y825084D01*
X867468Y826472D01*
X864788Y827190D01*
X862012D01*
X859332Y826472D01*
X856928Y825084D01*
X854966Y823122D01*
X853578Y820718D01*
X852860Y818038D01*
Y815262D01*
X853578Y812582D01*
X854376Y811200D01*
X853203Y809168D01*
X848157D01*
Y809233D01*
X848138Y809241D01*
X848130Y809260D01*
X848065D01*
Y950468D01*
X848112D01*
X847684Y955909D01*
X846410Y961215D01*
X844321Y966257D01*
X841470Y970910D01*
X837926Y975060D01*
X833776Y978604D01*
X829123Y981456D01*
X824081Y983544D01*
X818774Y984818D01*
X813334Y985246D01*
Y985199D01*
X27716D01*
Y985244D01*
X23455Y984825D01*
X19358Y983582D01*
X15582Y981563D01*
X12273Y978847D01*
X9556Y975537D01*
X7538Y971762D01*
X7211Y970685D01*
X5179Y970986D01*
Y994821D01*
X1447521D01*
Y5179D01*
D02*
G37*
G36*
X693571Y746335D02*
X695605Y745493D01*
Y743065D01*
Y727825D01*
Y715998D01*
X689255D01*
Y731238D01*
X689217D01*
Y743065D01*
Y745493D01*
X691251Y746335D01*
X692411Y747225D01*
X693571Y746335D01*
D02*
G37*
%LPC*%
G36*
X586258Y925932D02*
Y925896D01*
X513837D01*
Y925921D01*
X510151Y925558D01*
X506607Y924483D01*
X503341Y922737D01*
X500478Y920388D01*
X498129Y917525D01*
X496383Y914259D01*
X495308Y910715D01*
X494947Y907053D01*
X494011Y906512D01*
X491389Y903890D01*
X489535Y900680D01*
X488576Y897099D01*
Y893391D01*
X489535Y889810D01*
X491389Y886600D01*
X494011Y883978D01*
X494733Y883561D01*
Y881529D01*
X494011Y881112D01*
X491389Y878490D01*
X489535Y875280D01*
X488576Y871699D01*
Y867991D01*
X489535Y864410D01*
X491389Y861200D01*
X494011Y858578D01*
X497221Y856725D01*
X500802Y855765D01*
X504510D01*
X508091Y856725D01*
X511301Y858578D01*
X513923Y861200D01*
X514340Y861922D01*
X516372D01*
X516789Y861200D01*
X519411Y858578D01*
X522621Y856725D01*
X526202Y855765D01*
X529910D01*
X533491Y856725D01*
X536701Y858578D01*
X539323Y861200D01*
X541176Y864410D01*
X542136Y867991D01*
Y871699D01*
X541176Y875280D01*
X539323Y878490D01*
X536701Y881112D01*
X535979Y881529D01*
Y883561D01*
X536701Y883978D01*
X539323Y886600D01*
X541176Y889810D01*
X542136Y893391D01*
Y897099D01*
X541176Y900680D01*
X539323Y903890D01*
X536701Y906512D01*
X533491Y908365D01*
X533017Y908492D01*
X533285Y910524D01*
X586258D01*
X586411Y910544D01*
X588488Y910131D01*
X590378Y908868D01*
X591641Y906978D01*
X592054Y904901D01*
X592034Y904748D01*
Y769392D01*
X592037Y769372D01*
X591772Y768044D01*
X591009Y766901D01*
X589866Y766137D01*
X588537Y765873D01*
X588518Y765876D01*
X557242D01*
X556861Y766256D01*
X554563Y767583D01*
X551999Y768270D01*
X549345D01*
X546781Y767583D01*
X544483Y766256D01*
X542606Y764379D01*
X541279Y762081D01*
X540592Y759517D01*
Y756863D01*
X541279Y754299D01*
X542606Y752001D01*
X544483Y750124D01*
X546781Y748797D01*
X549345Y748110D01*
X551999D01*
X554563Y748797D01*
X556861Y750124D01*
X557242Y750504D01*
X588518D01*
Y750479D01*
X592208Y750842D01*
X595756Y751919D01*
X599025Y753666D01*
X601891Y756018D01*
X604244Y758884D01*
X605991Y762154D01*
X607067Y765702D01*
X607431Y769392D01*
X607406D01*
Y904748D01*
X607442D01*
X607035Y908881D01*
X605829Y912855D01*
X603872Y916517D01*
X601237Y919727D01*
X598027Y922362D01*
X594365Y924320D01*
X590391Y925525D01*
X586258Y925932D01*
D02*
G37*
G36*
X295100Y923878D02*
Y923864D01*
X256172D01*
Y923871D01*
X253205Y923579D01*
X250352Y922713D01*
X247722Y921308D01*
X245417Y919417D01*
X243526Y917112D01*
X242120Y914482D01*
X241255Y911629D01*
X240963Y908662D01*
X240963D01*
X240527Y906810D01*
X240011Y906512D01*
X237389Y903890D01*
X235536Y900680D01*
X234576Y897099D01*
Y893391D01*
X235536Y889810D01*
X237389Y886600D01*
X240011Y883978D01*
X240733Y883561D01*
Y881529D01*
X240011Y881112D01*
X237389Y878490D01*
X235536Y875280D01*
X234576Y871699D01*
Y867991D01*
X235536Y864410D01*
X237389Y861200D01*
X240011Y858578D01*
X240970Y858024D01*
Y844565D01*
X238938Y843006D01*
X237956Y843269D01*
X235302D01*
X232738Y842582D01*
X230440Y841255D01*
X228563Y839379D01*
X227236Y837080D01*
X226549Y834516D01*
Y831862D01*
X227236Y829298D01*
X228563Y827000D01*
X228943Y826620D01*
Y724722D01*
X228918D01*
X229282Y720089D01*
X230367Y715570D01*
X232146Y711277D01*
X234574Y707315D01*
X237592Y703781D01*
X241125Y700763D01*
X245088Y698335D01*
X249381Y696556D01*
X253900Y695471D01*
X258533Y695107D01*
Y695132D01*
X508762D01*
X508765Y695133D01*
X510001Y694887D01*
X511051Y694185D01*
X511753Y693135D01*
X511999Y691899D01*
X511998Y691896D01*
Y210812D01*
X511968D01*
X512352Y203972D01*
X513500Y197218D01*
X515396Y190635D01*
X518018Y184306D01*
X521332Y178309D01*
X525296Y172722D01*
X529861Y167614D01*
X534969Y163049D01*
X540557Y159085D01*
X546553Y155771D01*
X552882Y153149D01*
X559465Y151252D01*
X566219Y150105D01*
X573059Y149721D01*
Y149751D01*
X573060Y149751D01*
X1229652Y149751D01*
Y149730D01*
X1233185Y150078D01*
X1236582Y151108D01*
X1239713Y152782D01*
X1242457Y155034D01*
X1244709Y157778D01*
X1246383Y160909D01*
X1247413Y164306D01*
X1247761Y167839D01*
X1247740D01*
Y241135D01*
X1247776D01*
X1247368Y246316D01*
X1246155Y251370D01*
X1244166Y256172D01*
X1241450Y260604D01*
X1239623Y262743D01*
X1239632Y262751D01*
X1239295Y263191D01*
X1238764Y263599D01*
X1238160Y264386D01*
Y272410D01*
X1236666D01*
Y286109D01*
X1236652Y286214D01*
X1236982Y289569D01*
X1237301Y290620D01*
X1239535D01*
X1242449Y291199D01*
X1245193Y292336D01*
X1247663Y293987D01*
X1249763Y296087D01*
X1251414Y298557D01*
X1252551Y301301D01*
X1253130Y304215D01*
Y307185D01*
X1252551Y310099D01*
X1251414Y312843D01*
X1249763Y315313D01*
X1247663Y317413D01*
X1245193Y319064D01*
X1242449Y320201D01*
X1239535Y320780D01*
X1236565D01*
X1233651Y320201D01*
X1230907Y319064D01*
X1228437Y317413D01*
X1226337Y315313D01*
X1224686Y312843D01*
X1223549Y310099D01*
X1222970Y307185D01*
Y304215D01*
X1223549Y301301D01*
X1224241Y299632D01*
X1222879Y296344D01*
X1222118Y293177D01*
X1219988Y293009D01*
X1219664Y293793D01*
X1218013Y296263D01*
X1215913Y298363D01*
X1213443Y300014D01*
X1210699Y301150D01*
X1207785Y301730D01*
X1204815D01*
X1201901Y301150D01*
X1199157Y300014D01*
X1196687Y298363D01*
X1194587Y296263D01*
X1192936Y293793D01*
X1191799Y291049D01*
X1191220Y288135D01*
Y285165D01*
X1191799Y282251D01*
X1192936Y279507D01*
X1194587Y277037D01*
X1196687Y274937D01*
X1199157Y273286D01*
X1199157Y273286D01*
X1199243Y273243D01*
X1200800Y272410D01*
Y264456D01*
X1199823Y263313D01*
X1199665Y263191D01*
X1199182Y262561D01*
X1197510Y260604D01*
X1194794Y256172D01*
X1192805Y251370D01*
X1191591Y246316D01*
X1191184Y241135D01*
X1191220D01*
Y180459D01*
X1191232Y180366D01*
X1190886Y178627D01*
X1189849Y177074D01*
X1188296Y176036D01*
X1186556Y175690D01*
X1186463Y175703D01*
X1168359D01*
X1167398Y177735D01*
X1169353Y180117D01*
X1171267Y183698D01*
X1172446Y187583D01*
X1172843Y191624D01*
X1172810D01*
Y241135D01*
X1172846D01*
X1172438Y246316D01*
X1171225Y251370D01*
X1169236Y256172D01*
X1166520Y260604D01*
X1164693Y262743D01*
X1164702Y262751D01*
X1164365Y263191D01*
X1163834Y263599D01*
X1163230Y264386D01*
Y272410D01*
X1161736D01*
Y294314D01*
X1163768Y295156D01*
X1164937Y293987D01*
X1167407Y292336D01*
X1170151Y291199D01*
X1173065Y290620D01*
X1176035D01*
X1178949Y291199D01*
X1181693Y292336D01*
X1184163Y293987D01*
X1186263Y296087D01*
X1187914Y298557D01*
X1189051Y301301D01*
X1189630Y304215D01*
Y307185D01*
X1189051Y310099D01*
X1187914Y312843D01*
X1186263Y315313D01*
X1184163Y317413D01*
X1181693Y319064D01*
X1178949Y320201D01*
X1176035Y320780D01*
X1173065D01*
X1170151Y320201D01*
X1167407Y319064D01*
X1164937Y317413D01*
X1162837Y315313D01*
X1162553Y314889D01*
X1161129Y313447D01*
X1157292Y312942D01*
X1153716Y311460D01*
X1150645Y309104D01*
X1149141Y307144D01*
X1148289Y306034D01*
X1146808Y302458D01*
X1146303Y298621D01*
X1146364D01*
Y273708D01*
X1144870Y272410D01*
X1144768D01*
X1142736Y273708D01*
Y333908D01*
X1142747D01*
X1142943Y334889D01*
X1143499Y335721D01*
X1144331Y336277D01*
X1145312Y336472D01*
Y336484D01*
X1154952D01*
X1156487Y334187D01*
X1158587Y332087D01*
X1161057Y330436D01*
X1163801Y329300D01*
X1166715Y328720D01*
X1169685D01*
X1172599Y329300D01*
X1175343Y330436D01*
X1177813Y332087D01*
X1179913Y334187D01*
X1181564Y336657D01*
X1182701Y339401D01*
X1183280Y342315D01*
Y345285D01*
X1182701Y348199D01*
X1181564Y350943D01*
X1179913Y353413D01*
X1177813Y355513D01*
X1175343Y357164D01*
X1172599Y358301D01*
X1169685Y358880D01*
X1166715D01*
X1163801Y358301D01*
X1161057Y357164D01*
X1158587Y355513D01*
X1156487Y353413D01*
X1155446Y351856D01*
X1145312D01*
Y351876D01*
X1141806Y351531D01*
X1138436Y350509D01*
X1135329Y348848D01*
X1132606Y346614D01*
X1130371Y343891D01*
X1128711Y340784D01*
X1127689Y337413D01*
X1127343Y333908D01*
X1127364D01*
Y272410D01*
X1125870D01*
Y264456D01*
X1124893Y263313D01*
X1124735Y263191D01*
X1124251Y262561D01*
X1122579Y260604D01*
X1119864Y256172D01*
X1117875Y251370D01*
X1116662Y246316D01*
X1116254Y241135D01*
X1116290D01*
Y199824D01*
X1116285D01*
X1116063Y198706D01*
X1115430Y197759D01*
X1114483Y197127D01*
X1113366Y196904D01*
Y196899D01*
X578866D01*
X578761Y196885D01*
X575405Y197216D01*
X572078Y198225D01*
X569011Y199865D01*
X566323Y202071D01*
X564117Y204759D01*
X562478Y207825D01*
X561468Y211153D01*
X561138Y214508D01*
X561152Y214613D01*
Y720189D01*
X561199D01*
X560749Y724751D01*
X559419Y729137D01*
X557258Y733179D01*
X554350Y736722D01*
X550807Y739630D01*
X546765Y741791D01*
X542379Y743121D01*
X537817Y743571D01*
Y743524D01*
X315092D01*
X315082Y743522D01*
X313805Y743776D01*
X312714Y744505D01*
X311985Y745597D01*
X311731Y746873D01*
X311732Y746884D01*
Y907232D01*
X311746D01*
X311427Y910480D01*
X310479Y913602D01*
X308941Y916480D01*
X306871Y919003D01*
X304348Y921073D01*
X301471Y922611D01*
X298348Y923558D01*
X295100Y923878D01*
D02*
G37*
G36*
X453710Y909325D02*
X450002D01*
X446421Y908365D01*
X443211Y906512D01*
X440589Y903890D01*
X440172Y903168D01*
X438140D01*
X437723Y903890D01*
X435101Y906512D01*
X431891Y908365D01*
X428310Y909325D01*
X424602D01*
X421021Y908365D01*
X417811Y906512D01*
X415189Y903890D01*
X413335Y900680D01*
X412376Y897099D01*
Y893391D01*
X413335Y889810D01*
X415189Y886600D01*
X417811Y883978D01*
X418533Y883561D01*
Y881529D01*
X417811Y881112D01*
X415189Y878490D01*
X413335Y875280D01*
X412376Y871699D01*
Y867991D01*
X413335Y864410D01*
X415189Y861200D01*
X417811Y858578D01*
X421021Y856725D01*
X424602Y855765D01*
X428310D01*
X431891Y856725D01*
X435101Y858578D01*
X437723Y861200D01*
X438140Y861922D01*
X440172D01*
X440589Y861200D01*
X443211Y858578D01*
X446421Y856725D01*
X450002Y855765D01*
X453710D01*
X457291Y856725D01*
X460501Y858578D01*
X463123Y861200D01*
X464976Y864410D01*
X465936Y867991D01*
Y871699D01*
X464976Y875280D01*
X463123Y878490D01*
X460501Y881112D01*
X459779Y881529D01*
Y883561D01*
X460501Y883978D01*
X463123Y886600D01*
X464976Y889810D01*
X465936Y893391D01*
Y897099D01*
X464976Y900680D01*
X463123Y903890D01*
X460501Y906512D01*
X457291Y908365D01*
X453710Y909325D01*
D02*
G37*
G36*
X377510Y909325D02*
X373802D01*
X370221Y908365D01*
X367011Y906512D01*
X364389Y903890D01*
X363972Y903168D01*
X361940D01*
X361523Y903890D01*
X358901Y906512D01*
X355691Y908365D01*
X352110Y909325D01*
X348402D01*
X344821Y908365D01*
X341611Y906512D01*
X338989Y903890D01*
X337136Y900680D01*
X336176Y897099D01*
Y893391D01*
X337136Y889810D01*
X338989Y886600D01*
X341611Y883978D01*
X342333Y883561D01*
Y881529D01*
X341611Y881112D01*
X338989Y878490D01*
X337136Y875280D01*
X336176Y871699D01*
Y867991D01*
X337136Y864410D01*
X338989Y861200D01*
X341611Y858578D01*
X344821Y856725D01*
X348402Y855765D01*
X352110D01*
X355691Y856725D01*
X358901Y858578D01*
X361523Y861200D01*
X361940Y861922D01*
X363972D01*
X364389Y861200D01*
X367011Y858578D01*
X370221Y856725D01*
X373802Y855765D01*
X377510D01*
X381091Y856725D01*
X384301Y858578D01*
X386923Y861200D01*
X388776Y864410D01*
X389736Y867991D01*
Y871699D01*
X388776Y875280D01*
X386923Y878490D01*
X384301Y881112D01*
X383579Y881529D01*
Y883561D01*
X384301Y883978D01*
X386923Y886600D01*
X388776Y889810D01*
X389736Y893391D01*
Y897099D01*
X388776Y900680D01*
X386923Y903890D01*
X384301Y906512D01*
X381091Y908365D01*
X377510Y909325D01*
D02*
G37*
G36*
X199710D02*
X196002D01*
X192421Y908365D01*
X189211Y906512D01*
X186589Y903890D01*
X186172Y903168D01*
X184140D01*
X183723Y903890D01*
X181101Y906512D01*
X177891Y908365D01*
X174310Y909325D01*
X170602D01*
X167021Y908365D01*
X163811Y906512D01*
X161189Y903890D01*
X159335Y900680D01*
X158376Y897099D01*
Y893391D01*
X159335Y889810D01*
X161189Y886600D01*
X163811Y883978D01*
X164533Y883561D01*
Y881529D01*
X163811Y881112D01*
X161189Y878490D01*
X159335Y875280D01*
X158376Y871699D01*
Y867991D01*
X159335Y864410D01*
X161189Y861200D01*
X163811Y858578D01*
X167021Y856725D01*
X170602Y855765D01*
X174310D01*
X177891Y856725D01*
X181101Y858578D01*
X183723Y861200D01*
X184140Y861922D01*
X186172D01*
X186589Y861200D01*
X189211Y858578D01*
X192421Y856725D01*
X196002Y855765D01*
X199710D01*
X203291Y856725D01*
X206501Y858578D01*
X209123Y861200D01*
X210976Y864410D01*
X211936Y867991D01*
Y871699D01*
X210976Y875280D01*
X209123Y878490D01*
X206501Y881112D01*
X205779Y881529D01*
Y883561D01*
X206501Y883978D01*
X209123Y886600D01*
X210976Y889810D01*
X211936Y893391D01*
Y897099D01*
X210976Y900680D01*
X209123Y903890D01*
X206501Y906512D01*
X203291Y908365D01*
X199710Y909325D01*
D02*
G37*
G36*
X1353797Y972328D02*
X1348903D01*
X1344052Y971689D01*
X1339326Y970423D01*
X1334805Y968550D01*
X1330567Y966104D01*
X1326685Y963125D01*
X1323225Y959665D01*
X1320246Y955783D01*
X1317800Y951545D01*
X1315927Y947024D01*
X1314661Y942298D01*
X1314022Y937447D01*
Y932553D01*
X1314661Y927702D01*
X1315927Y922976D01*
X1317800Y918455D01*
X1320246Y914217D01*
X1323225Y910335D01*
X1326685Y906875D01*
X1330567Y903896D01*
X1334805Y901450D01*
X1339326Y899577D01*
X1344052Y898311D01*
X1348903Y897672D01*
X1353797D01*
X1358648Y898311D01*
X1363374Y899577D01*
X1367895Y901450D01*
X1372133Y903896D01*
X1376015Y906875D01*
X1379475Y910335D01*
X1382454Y914217D01*
X1384900Y918455D01*
X1386773Y922976D01*
X1388039Y927702D01*
X1388678Y932553D01*
Y937447D01*
X1388039Y942298D01*
X1386773Y947024D01*
X1384900Y951545D01*
X1382454Y955783D01*
X1379475Y959665D01*
X1376015Y963125D01*
X1372133Y966104D01*
X1367895Y968550D01*
X1363374Y970423D01*
X1358648Y971689D01*
X1353797Y972328D01*
D02*
G37*
G36*
X909672Y869250D02*
X906328D01*
X903098Y868384D01*
X900202Y866712D01*
X897837Y864348D01*
X896420Y861893D01*
X895467Y861681D01*
X895133D01*
X894180Y861893D01*
X892762Y864348D01*
X890398Y866712D01*
X887502Y868384D01*
X884272Y869250D01*
X880928D01*
X877698Y868384D01*
X874802Y866712D01*
X872437Y864348D01*
X870765Y861452D01*
X869900Y858222D01*
Y854878D01*
X870765Y851648D01*
X872437Y848752D01*
X874802Y846387D01*
X877698Y844715D01*
X880928Y843850D01*
X884272D01*
X887502Y844715D01*
X890398Y846387D01*
X892762Y848752D01*
X894180Y851207D01*
X895133Y851419D01*
X895467D01*
X896420Y851207D01*
X897837Y848752D01*
X900202Y846387D01*
X903098Y844715D01*
X906328Y843850D01*
X909672D01*
X912902Y844715D01*
X915798Y846387D01*
X918162Y848752D01*
X919834Y851648D01*
X920700Y854878D01*
Y858222D01*
X919834Y861452D01*
X918162Y864348D01*
X915798Y866712D01*
X912902Y868384D01*
X909672Y869250D01*
D02*
G37*
G36*
X1290672D02*
X1287328D01*
X1284098Y868384D01*
X1281202Y866712D01*
X1278837Y864348D01*
X1277165Y861452D01*
X1276300Y858222D01*
Y854878D01*
X1277165Y851648D01*
X1278837Y848752D01*
X1281202Y846387D01*
X1284098Y844715D01*
X1287328Y843850D01*
X1290672D01*
X1293902Y844715D01*
X1296798Y846387D01*
X1299162Y848752D01*
X1300834Y851648D01*
X1301700Y854878D01*
Y858222D01*
X1300834Y861452D01*
X1299162Y864348D01*
X1296798Y866712D01*
X1293902Y868384D01*
X1290672Y869250D01*
D02*
G37*
G36*
X1125322Y869630D02*
X1121878D01*
X1118551Y868739D01*
X1115569Y867017D01*
X1113133Y864581D01*
X1111411Y861599D01*
X1110520Y858272D01*
Y854828D01*
X1111411Y851501D01*
X1113133Y848519D01*
X1115569Y846083D01*
X1118551Y844361D01*
X1121878Y843470D01*
X1125322D01*
X1128649Y844361D01*
X1131631Y846083D01*
X1134067Y848519D01*
X1135789Y851501D01*
X1136680Y854828D01*
Y858272D01*
X1135789Y861599D01*
X1134067Y864581D01*
X1131631Y867017D01*
X1128649Y868739D01*
X1125322Y869630D01*
D02*
G37*
G36*
X1245788Y827190D02*
X1243012D01*
X1240332Y826472D01*
X1237928Y825084D01*
X1235966Y823122D01*
X1234578Y820718D01*
X1233860Y818038D01*
Y815262D01*
X1234578Y812582D01*
X1235966Y810178D01*
X1237928Y808216D01*
X1240332Y806828D01*
X1243012Y806110D01*
X1245788D01*
X1248468Y806828D01*
X1250872Y808216D01*
X1252834Y810178D01*
X1254222Y812582D01*
X1254940Y815262D01*
Y818038D01*
X1254222Y820718D01*
X1252834Y823122D01*
X1250872Y825084D01*
X1248468Y826472D01*
X1245788Y827190D01*
D02*
G37*
G36*
X1100157Y807052D02*
X1097503D01*
X1094939Y806365D01*
X1092641Y805038D01*
X1090764Y803161D01*
X1089437Y800863D01*
X1089351Y800541D01*
X1086384D01*
Y800591D01*
X1081924Y800152D01*
X1077635Y798851D01*
X1073682Y796738D01*
X1070218Y793895D01*
X1067375Y790431D01*
X1065262Y786478D01*
X1063961Y782189D01*
X1063522Y777729D01*
X1063572D01*
Y760845D01*
X1059144D01*
X1057907Y762457D01*
X1058110Y763213D01*
Y765867D01*
X1057423Y768431D01*
X1056096Y770729D01*
X1054219Y772606D01*
X1051920Y773933D01*
X1049357Y774620D01*
X1046703D01*
X1044139Y773933D01*
X1041841Y772606D01*
X1039964Y770729D01*
X1038637Y768431D01*
X1037950Y765867D01*
Y763213D01*
X1038564Y760922D01*
X1038505Y760845D01*
X1038505D01*
Y743065D01*
Y731238D01*
X1029705D01*
X1029294Y735408D01*
X1028027Y739585D01*
X1025969Y743435D01*
X1023200Y746810D01*
X1023200Y746810D01*
X1021924Y748313D01*
X1021276Y749158D01*
X1020179Y751809D01*
X1019818Y754550D01*
X1019831Y754653D01*
Y768269D01*
X1020153Y768355D01*
X1022451Y769682D01*
X1024328Y771559D01*
X1025655Y773857D01*
X1026342Y776421D01*
Y779075D01*
X1025655Y781639D01*
X1024328Y783937D01*
X1022451Y785814D01*
X1020153Y787141D01*
X1017589Y787828D01*
X1014935D01*
X1012371Y787141D01*
X1010073Y785814D01*
X1009992Y785733D01*
X1009911Y785814D01*
X1007613Y787141D01*
X1005049Y787828D01*
X1002395D01*
X999831Y787141D01*
X997533Y785814D01*
X995656Y783937D01*
X994329Y781639D01*
X993642Y779075D01*
Y776421D01*
X994329Y773857D01*
X995656Y771559D01*
X997533Y769682D01*
X999831Y768355D01*
X1000153Y768269D01*
Y754831D01*
X999789Y752072D01*
X998604Y749210D01*
X997921Y748320D01*
X996660Y746810D01*
X996660Y746810D01*
X993891Y743435D01*
X993174Y742094D01*
X991164Y741796D01*
X990719Y742241D01*
X988420Y743568D01*
X985857Y744255D01*
X983203D01*
X980639Y743568D01*
X978341Y742241D01*
X976464Y740364D01*
X975137Y738065D01*
X974450Y735502D01*
Y732848D01*
X974517Y732596D01*
X973280Y730984D01*
X962305D01*
Y713204D01*
Y697964D01*
X964144D01*
Y671902D01*
X964089D01*
X964569Y668255D01*
X965977Y664856D01*
X968216Y661938D01*
X971134Y659699D01*
X974533Y658291D01*
X978180Y657811D01*
Y657866D01*
X1003905D01*
Y657814D01*
X1007467Y658283D01*
X1010787Y659658D01*
X1013637Y661845D01*
X1015824Y664695D01*
X1017199Y668014D01*
X1017595Y671028D01*
X1062131D01*
X1063368Y669416D01*
X1063350Y669347D01*
Y666693D01*
X1064037Y664129D01*
X1065218Y662083D01*
X1064599Y660051D01*
X1022144D01*
Y660096D01*
X1017882Y659676D01*
X1013784Y658433D01*
X1010008Y656415D01*
X1006698Y653698D01*
X1003981Y650388D01*
X1001962Y646611D01*
X1000719Y642514D01*
X1000300Y638252D01*
X1000344D01*
Y632402D01*
X1000365Y632249D01*
X999959Y629165D01*
X998709Y626148D01*
X997926Y625127D01*
X996660Y623620D01*
X996660Y623620D01*
X993891Y620245D01*
X991833Y616395D01*
X990678Y612588D01*
X988350D01*
Y585728D01*
X1001050D01*
Y585728D01*
X1002244D01*
Y531502D01*
X1002222D01*
X1002574Y527924D01*
X1003618Y524483D01*
X1005313Y521312D01*
X1007594Y518532D01*
X1010373Y516251D01*
X1013544Y514556D01*
X1016985Y513512D01*
X1020564Y513160D01*
Y513182D01*
X1240564D01*
Y513151D01*
X1244508Y513539D01*
X1248301Y514690D01*
X1251796Y516558D01*
X1254860Y519072D01*
X1257374Y522136D01*
X1259242Y525631D01*
X1260393Y529424D01*
X1260781Y533368D01*
X1260750D01*
Y606044D01*
X1262775D01*
Y621284D01*
Y633730D01*
X1287700D01*
Y659130D01*
X1259760D01*
Y649411D01*
X1246813D01*
Y662178D01*
X1262775D01*
Y677418D01*
Y695198D01*
X1257795D01*
Y718400D01*
X1257885Y718452D01*
X1260048Y720615D01*
X1261578Y723265D01*
X1262370Y726220D01*
Y729280D01*
X1261578Y732235D01*
X1260048Y734885D01*
X1257885Y737048D01*
X1255235Y738578D01*
X1252280Y739370D01*
X1249220D01*
X1246265Y738578D01*
X1243615Y737048D01*
X1241452Y734885D01*
X1239922Y732235D01*
X1239130Y729280D01*
Y726220D01*
X1239922Y723265D01*
X1241452Y720615D01*
X1243615Y718452D01*
X1243705Y718400D01*
Y714647D01*
X1241673Y713409D01*
X1239580Y713970D01*
X1236520D01*
X1233565Y713178D01*
X1230915Y711648D01*
X1228752Y709485D01*
X1227222Y706835D01*
X1226430Y703880D01*
Y700820D01*
X1227222Y697865D01*
X1227622Y697172D01*
X1227763Y695198D01*
X1227763Y695198D01*
X1227763Y695198D01*
Y677418D01*
Y662178D01*
Y649224D01*
Y637219D01*
X1222937D01*
Y649224D01*
Y662178D01*
Y677418D01*
Y695198D01*
X1222937Y695198D01*
X1222937D01*
X1223078Y697172D01*
X1223478Y697865D01*
X1224270Y700820D01*
Y703880D01*
X1223478Y706835D01*
X1221948Y709485D01*
X1219785Y711648D01*
X1217135Y713178D01*
X1214180Y713970D01*
X1211120D01*
X1209027Y713409D01*
X1206995Y714647D01*
Y718400D01*
X1207085Y718452D01*
X1209248Y720615D01*
X1210778Y723265D01*
X1211570Y726220D01*
Y729280D01*
X1210778Y732235D01*
X1209248Y734885D01*
X1207085Y737048D01*
X1204435Y738578D01*
X1201480Y739370D01*
X1198420D01*
X1195465Y738578D01*
X1192815Y737048D01*
X1190652Y734885D01*
X1189122Y732235D01*
X1188330Y729280D01*
Y726220D01*
X1189122Y723265D01*
X1190652Y720615D01*
X1192815Y718452D01*
X1192905Y718400D01*
Y714647D01*
X1190873Y713409D01*
X1188780Y713970D01*
X1185720D01*
X1183627Y713409D01*
X1181595Y714647D01*
Y718400D01*
X1181685Y718452D01*
X1183848Y720615D01*
X1185378Y723265D01*
X1186170Y726220D01*
Y729280D01*
X1185378Y732235D01*
X1183848Y734885D01*
X1181685Y737048D01*
X1179035Y738578D01*
X1176080Y739370D01*
X1173020D01*
X1170065Y738578D01*
X1167415Y737048D01*
X1165252Y734885D01*
X1163722Y732235D01*
X1162930Y729280D01*
Y726220D01*
X1163722Y723265D01*
X1165252Y720615D01*
X1167415Y718452D01*
X1167505Y718400D01*
Y713970D01*
X1150230D01*
Y690730D01*
X1154805D01*
Y660118D01*
X1154738D01*
Y660051D01*
X1134213D01*
Y669994D01*
X1134251D01*
X1133858Y672978D01*
X1132707Y675759D01*
X1130874Y678146D01*
X1128487Y679978D01*
X1125706Y681130D01*
X1122722Y681523D01*
X1119739Y681130D01*
X1116958Y679978D01*
X1114570Y678146D01*
X1112738Y675759D01*
X1111587Y672978D01*
X1111194Y669994D01*
X1111232D01*
Y660051D01*
X1082261D01*
X1081642Y662083D01*
X1082823Y664129D01*
X1083510Y666693D01*
Y669347D01*
X1083491Y669416D01*
X1084728Y671028D01*
X1095010D01*
Y697888D01*
X1095655Y698218D01*
Y713458D01*
Y727825D01*
X1108355D01*
Y743065D01*
Y760845D01*
X1108355D01*
X1108296Y760922D01*
X1108910Y763213D01*
Y765867D01*
X1108223Y768431D01*
X1106896Y770729D01*
X1105019Y772606D01*
X1103795Y773313D01*
Y775659D01*
X1105019Y776366D01*
X1106896Y778243D01*
X1108223Y780541D01*
X1108910Y783105D01*
Y785759D01*
X1108223Y788323D01*
X1106896Y790621D01*
X1106815Y790702D01*
X1106896Y790783D01*
X1108223Y793081D01*
X1108910Y795645D01*
Y798299D01*
X1108223Y800863D01*
X1106896Y803161D01*
X1105019Y805038D01*
X1102720Y806365D01*
X1100157Y807052D01*
D02*
G37*
G36*
X103797Y822328D02*
X98903D01*
X94052Y821689D01*
X89326Y820423D01*
X84805Y818550D01*
X80567Y816104D01*
X76685Y813125D01*
X73225Y809665D01*
X70246Y805783D01*
X67800Y801545D01*
X65927Y797024D01*
X64661Y792298D01*
X64022Y787447D01*
Y782553D01*
X64661Y777702D01*
X65927Y772976D01*
X67800Y768455D01*
X70246Y764217D01*
X73225Y760335D01*
X76685Y756875D01*
X80567Y753896D01*
X84805Y751450D01*
X89326Y749577D01*
X94052Y748311D01*
X98903Y747672D01*
X103797D01*
X108648Y748311D01*
X113374Y749577D01*
X117895Y751450D01*
X122133Y753896D01*
X126015Y756875D01*
X129475Y760335D01*
X132454Y764217D01*
X134900Y768455D01*
X136773Y772976D01*
X138039Y777702D01*
X138678Y782553D01*
Y787447D01*
X138039Y792298D01*
X136773Y797024D01*
X134900Y801545D01*
X132454Y805783D01*
X129475Y809665D01*
X126015Y813125D01*
X122133Y816104D01*
X117895Y818550D01*
X113374Y820423D01*
X108648Y821689D01*
X103797Y822328D01*
D02*
G37*
G36*
X1226880Y739370D02*
X1223820D01*
X1220865Y738578D01*
X1218215Y737048D01*
X1216052Y734885D01*
X1214522Y732235D01*
X1213730Y729280D01*
Y726220D01*
X1214522Y723265D01*
X1216052Y720615D01*
X1218215Y718452D01*
X1220865Y716922D01*
X1223820Y716130D01*
X1226880D01*
X1229835Y716922D01*
X1232485Y718452D01*
X1234648Y720615D01*
X1236178Y723265D01*
X1236970Y726220D01*
Y729280D01*
X1236178Y732235D01*
X1234648Y734885D01*
X1232485Y737048D01*
X1229835Y738578D01*
X1226880Y739370D01*
D02*
G37*
G36*
X845880D02*
X842820D01*
X839865Y738578D01*
X837215Y737048D01*
X835052Y734885D01*
X833522Y732235D01*
X832730Y729280D01*
Y726220D01*
X833522Y723265D01*
X835052Y720615D01*
X837215Y718452D01*
X839865Y716922D01*
X842820Y716130D01*
X845880D01*
X848835Y716922D01*
X851485Y718452D01*
X853648Y720615D01*
X855178Y723265D01*
X855970Y726220D01*
Y729280D01*
X855178Y732235D01*
X853648Y734885D01*
X851485Y737048D01*
X848835Y738578D01*
X845880Y739370D01*
D02*
G37*
G36*
X93016Y730010D02*
X90362D01*
X87798Y729323D01*
X85500Y727996D01*
X83623Y726119D01*
X82296Y723821D01*
X81609Y721257D01*
Y718603D01*
X82296Y716039D01*
X83623Y713741D01*
X84003Y713361D01*
Y696971D01*
X81971Y696703D01*
X81783Y697405D01*
X80456Y699703D01*
X78579Y701580D01*
X76281Y702907D01*
X73717Y703594D01*
X71063D01*
X68499Y702907D01*
X66201Y701580D01*
X64324Y699703D01*
X62997Y697405D01*
X62310Y694841D01*
Y692187D01*
X62997Y689623D01*
X64324Y687325D01*
X64566Y687083D01*
Y565429D01*
X64531Y563397D01*
X64531Y563397D01*
X64687Y561416D01*
X64932Y558307D01*
X66123Y553342D01*
X68078Y548625D01*
X70745Y544272D01*
X74061Y540389D01*
X77339Y537590D01*
X77440Y537490D01*
X78756Y536493D01*
Y534859D01*
X79620Y531634D01*
X81290Y528742D01*
X83650Y526381D01*
X86542Y524712D01*
X89767Y523848D01*
X93105D01*
X96330Y524712D01*
X99222Y526381D01*
X101582Y528742D01*
X103252Y531634D01*
X104116Y534859D01*
Y538197D01*
X103252Y541422D01*
X101582Y544314D01*
X99222Y546674D01*
X96330Y548344D01*
X93105Y549208D01*
X89767D01*
X88451Y548855D01*
X86752Y549781D01*
X84940Y551268D01*
X84330Y552011D01*
X85199Y553848D01*
X104116D01*
Y579208D01*
X99375D01*
Y713361D01*
X99755Y713741D01*
X101082Y716039D01*
X101769Y718603D01*
Y721257D01*
X101082Y723821D01*
X99755Y726119D01*
X97878Y727996D01*
X95580Y729323D01*
X93016Y730010D01*
D02*
G37*
G36*
X167078Y743108D02*
X164424D01*
X161860Y742421D01*
X159562Y741094D01*
X157685Y739217D01*
X156358Y736919D01*
X155671Y734355D01*
Y731701D01*
X156358Y729137D01*
X157685Y726839D01*
X157775Y726749D01*
Y692103D01*
X155743Y690723D01*
X154327Y691103D01*
X151673D01*
X149109Y690416D01*
X146811Y689089D01*
X144934Y687212D01*
X143607Y684913D01*
X142920Y682350D01*
Y680341D01*
X141929Y679101D01*
X141107Y678608D01*
X138881D01*
X136317Y677921D01*
X134019Y676594D01*
X132142Y674717D01*
X130815Y672419D01*
X130128Y669855D01*
Y667201D01*
X130815Y664637D01*
X132142Y662339D01*
X132522Y661958D01*
Y576248D01*
X130490Y575406D01*
X129222Y576674D01*
X126330Y578344D01*
X123105Y579208D01*
X119767D01*
X116542Y578344D01*
X113650Y576674D01*
X111290Y574314D01*
X109620Y571422D01*
X108756Y568197D01*
Y564859D01*
X109620Y561634D01*
X111290Y558742D01*
X113650Y556381D01*
X116542Y554712D01*
X119767Y553848D01*
X123105D01*
X126330Y554712D01*
X128897Y556194D01*
X129881Y555605D01*
X130497Y554878D01*
X129824Y553618D01*
X127821Y551177D01*
X126119Y549781D01*
X124421Y548856D01*
X123105Y549208D01*
X119767D01*
X116542Y548344D01*
X113650Y546674D01*
X111290Y544314D01*
X109620Y541422D01*
X108756Y538197D01*
Y534859D01*
X109620Y531634D01*
X110238Y530563D01*
X109237Y528233D01*
X106722Y527629D01*
X101920Y525640D01*
X97488Y522924D01*
X93536Y519549D01*
X91645Y519208D01*
X89767D01*
X86542Y518344D01*
X83650Y516674D01*
X81290Y514314D01*
X79620Y511422D01*
X78756Y508197D01*
Y504859D01*
X79620Y501634D01*
X81290Y498742D01*
X83650Y496381D01*
X86542Y494712D01*
X89767Y493848D01*
X93105D01*
X96330Y494712D01*
X99222Y496381D01*
X101582Y498742D01*
X103252Y501634D01*
X104116Y504859D01*
Y508197D01*
X104086Y508309D01*
X104431Y508654D01*
X104496Y508738D01*
X107102Y510877D01*
X107415Y511044D01*
X109150Y509668D01*
X108756Y508197D01*
Y504859D01*
X109620Y501634D01*
X111290Y498742D01*
X113650Y496381D01*
X116542Y494712D01*
X119767Y493848D01*
X123105D01*
X126330Y494712D01*
X129222Y496381D01*
X131582Y498742D01*
X131640Y498842D01*
X156074D01*
Y498826D01*
X159408Y499154D01*
X162614Y500126D01*
X165568Y501706D01*
X167648Y503413D01*
X169680Y502697D01*
Y486996D01*
X169662D01*
X169493Y486149D01*
X169013Y485431D01*
X168295Y484951D01*
X167448Y484782D01*
Y484764D01*
X131132D01*
X129222Y486674D01*
X126330Y488344D01*
X123105Y489208D01*
X119767D01*
X116542Y488344D01*
X113650Y486674D01*
X111290Y484314D01*
X109620Y481422D01*
X108756Y478197D01*
Y474859D01*
X109620Y471634D01*
X111290Y468742D01*
X113650Y466381D01*
X116542Y464712D01*
X119767Y463848D01*
X123105D01*
X126330Y464712D01*
X129222Y466381D01*
X131582Y468742D01*
X131958Y469392D01*
X167448D01*
Y469373D01*
X170886Y469712D01*
X174192Y470715D01*
X177239Y472343D01*
X179909Y474535D01*
X182101Y477205D01*
X183729Y480252D01*
X184732Y483558D01*
X185071Y486996D01*
X185052D01*
Y700035D01*
X185432Y700415D01*
X186759Y702713D01*
X187446Y705277D01*
Y707931D01*
X186759Y710495D01*
X185432Y712793D01*
X183555Y714670D01*
X181257Y715997D01*
X178693Y716684D01*
X176039D01*
X175179Y716454D01*
X173146Y718013D01*
Y726168D01*
X173817Y726839D01*
X175144Y729137D01*
X175831Y731701D01*
Y734355D01*
X175144Y736919D01*
X173817Y739217D01*
X171940Y741094D01*
X169642Y742421D01*
X167078Y743108D01*
D02*
G37*
G36*
X305413Y626079D02*
X295587D01*
X295335Y626029D01*
X295080Y626055D01*
X285302Y625092D01*
X285056Y625017D01*
X284799D01*
X275162Y623100D01*
X274925Y623002D01*
X274669Y622977D01*
X265267Y620124D01*
X265040Y620003D01*
X264788Y619953D01*
X255711Y616193D01*
X255497Y616050D01*
X255251Y615976D01*
X246586Y611344D01*
X246388Y611181D01*
X246150Y611083D01*
X237981Y605624D01*
X237799Y605443D01*
X237572Y605321D01*
X229977Y599088D01*
X229814Y598890D01*
X229601Y598747D01*
X222653Y591799D01*
X222510Y591586D01*
X222312Y591423D01*
X216078Y583828D01*
X215957Y583601D01*
X215776Y583419D01*
X210317Y575250D01*
X210219Y575013D01*
X210056Y574814D01*
X205424Y566149D01*
X205350Y565903D01*
X205207Y565689D01*
X201447Y556612D01*
X201397Y556360D01*
X201276Y556133D01*
X198423Y546731D01*
X198398Y546475D01*
X198300Y546238D01*
X196383Y536601D01*
Y536344D01*
X196308Y536098D01*
X195345Y526320D01*
X195371Y526065D01*
X195320Y525813D01*
Y515987D01*
X195371Y515735D01*
X195345Y515480D01*
X196308Y505702D01*
X196383Y505456D01*
Y505199D01*
X198300Y495562D01*
X198398Y495325D01*
X198423Y495069D01*
X201276Y485667D01*
X201397Y485440D01*
X201447Y485188D01*
X205207Y476111D01*
X205350Y475897D01*
X205424Y475651D01*
X210056Y466986D01*
X210219Y466787D01*
X210317Y466550D01*
X215776Y458381D01*
X215957Y458199D01*
X216078Y457972D01*
X222312Y450377D01*
X222510Y450214D01*
X222653Y450001D01*
X229601Y443053D01*
X229814Y442910D01*
X229977Y442712D01*
X237572Y436479D01*
X237799Y436357D01*
X237981Y436176D01*
X246150Y430717D01*
X246388Y430619D01*
X246586Y430456D01*
X255251Y425824D01*
X255497Y425750D01*
X255711Y425607D01*
X264788Y421847D01*
X265040Y421797D01*
X265267Y421676D01*
X274669Y418823D01*
X274925Y418798D01*
X275162Y418700D01*
X284799Y416783D01*
X285056D01*
X285302Y416708D01*
X295080Y415745D01*
X295335Y415771D01*
X295587Y415720D01*
X305413D01*
X305665Y415771D01*
X305920Y415745D01*
X315698Y416708D01*
X315944Y416783D01*
X316201D01*
X325838Y418700D01*
X326075Y418798D01*
X326331Y418823D01*
X335733Y421676D01*
X335960Y421797D01*
X336212Y421847D01*
X345289Y425607D01*
X345503Y425750D01*
X345749Y425824D01*
X354414Y430456D01*
X354613Y430619D01*
X354850Y430717D01*
X363019Y436176D01*
X363201Y436357D01*
X363428Y436479D01*
X371023Y442712D01*
X371186Y442910D01*
X371399Y443053D01*
X378347Y450001D01*
X378490Y450214D01*
X378688Y450377D01*
X384921Y457972D01*
X385043Y458199D01*
X385224Y458381D01*
X390683Y466550D01*
X390781Y466787D01*
X390944Y466986D01*
X395576Y475651D01*
X395650Y475897D01*
X395793Y476111D01*
X399553Y485188D01*
X399603Y485440D01*
X399724Y485667D01*
X402577Y495069D01*
X402602Y495325D01*
X402700Y495562D01*
X404617Y505199D01*
Y505456D01*
X404692Y505702D01*
X405655Y515480D01*
X405629Y515735D01*
X405680Y515987D01*
Y525813D01*
X405629Y526065D01*
X405655Y526320D01*
X404692Y536098D01*
X404617Y536344D01*
Y536601D01*
X402700Y546238D01*
X402602Y546475D01*
X402577Y546731D01*
X399724Y556133D01*
X399603Y556360D01*
X399553Y556612D01*
X395793Y565689D01*
X395650Y565903D01*
X395576Y566149D01*
X390944Y574814D01*
X390781Y575013D01*
X390683Y575250D01*
X385224Y583419D01*
X385043Y583601D01*
X384921Y583828D01*
X378688Y591423D01*
X378490Y591586D01*
X378347Y591799D01*
X371399Y598747D01*
X371186Y598890D01*
X371023Y599088D01*
X363428Y605321D01*
X363201Y605443D01*
X363019Y605624D01*
X354850Y611083D01*
X354613Y611181D01*
X354414Y611344D01*
X345749Y615976D01*
X345503Y616050D01*
X345289Y616193D01*
X336212Y619953D01*
X335960Y620003D01*
X335733Y620124D01*
X326331Y622977D01*
X326075Y623002D01*
X325838Y623100D01*
X316201Y625017D01*
X315944D01*
X315698Y625092D01*
X305920Y626055D01*
X305665Y626029D01*
X305413Y626079D01*
D02*
G37*
G36*
X49964Y562568D02*
X46508D01*
X43120Y561894D01*
X39928Y560572D01*
X37055Y558652D01*
X34612Y556209D01*
X32692Y553336D01*
X31370Y550144D01*
X30696Y546755D01*
Y543301D01*
X31370Y539912D01*
X32692Y536720D01*
X34612Y533847D01*
X37055Y531404D01*
X39928Y529484D01*
X43120Y528162D01*
X46508Y527488D01*
X49964D01*
X53352Y528162D01*
X56544Y529484D01*
X59417Y531404D01*
X61860Y533847D01*
X63780Y536720D01*
X65102Y539912D01*
X65776Y543301D01*
Y546755D01*
X65102Y550144D01*
X63780Y553336D01*
X61860Y556209D01*
X59417Y558652D01*
X56544Y560572D01*
X53352Y561894D01*
X49964Y562568D01*
D02*
G37*
G36*
X984166Y579617D02*
X981182Y579224D01*
X978401Y578073D01*
X976014Y576240D01*
X974182Y573853D01*
X973030Y571072D01*
X972637Y568088D01*
Y532215D01*
X972682Y531869D01*
X972252Y528601D01*
X970857Y525234D01*
X968639Y522342D01*
X965747Y520123D01*
X962379Y518728D01*
X959111Y518298D01*
X958766Y518344D01*
X603530D01*
X600546Y517951D01*
X597766Y516799D01*
X595378Y514967D01*
X593546Y512579D01*
X592394Y509799D01*
X592001Y506815D01*
X592394Y503831D01*
X593546Y501051D01*
X595378Y498663D01*
X597766Y496831D01*
X600546Y495679D01*
X603530Y495286D01*
X958766D01*
Y495271D01*
X964545Y495726D01*
X970182Y497079D01*
X975538Y499298D01*
X980481Y502327D01*
X984889Y506092D01*
X988654Y510500D01*
X991683Y515443D01*
X993901Y520799D01*
X995255Y526436D01*
X995710Y532215D01*
X995694D01*
Y568088D01*
X995301Y571072D01*
X994150Y573853D01*
X992318Y576240D01*
X989930Y578073D01*
X987149Y579224D01*
X984166Y579617D01*
D02*
G37*
G36*
X49964Y515568D02*
X46508D01*
X43120Y514894D01*
X39928Y513572D01*
X37055Y511652D01*
X34612Y509209D01*
X32692Y506336D01*
X31370Y503144D01*
X30696Y499756D01*
Y496301D01*
X31370Y492912D01*
X32692Y489720D01*
X34612Y486847D01*
X37055Y484404D01*
X39928Y482484D01*
X43120Y481162D01*
X46508Y480488D01*
X49964D01*
X53352Y481162D01*
X56544Y482484D01*
X59417Y484404D01*
X61860Y486847D01*
X63780Y489720D01*
X65102Y492912D01*
X65776Y496301D01*
Y499756D01*
X65102Y503144D01*
X63780Y506336D01*
X61860Y509209D01*
X59417Y511652D01*
X56544Y513572D01*
X53352Y514894D01*
X49964Y515568D01*
D02*
G37*
G36*
X93105Y489208D02*
X89767D01*
X86542Y488344D01*
X83650Y486674D01*
X81290Y484314D01*
X79620Y481422D01*
X78756Y478197D01*
Y474859D01*
X79620Y471634D01*
X81290Y468742D01*
X83650Y466381D01*
X86542Y464712D01*
X89767Y463848D01*
X93105D01*
X96330Y464712D01*
X99222Y466381D01*
X101582Y468742D01*
X103252Y471634D01*
X104116Y474859D01*
Y478197D01*
X103252Y481422D01*
X101582Y484314D01*
X99222Y486674D01*
X96330Y488344D01*
X93105Y489208D01*
D02*
G37*
G36*
X864885Y358880D02*
X861915D01*
X859001Y358301D01*
X856257Y357164D01*
X853787Y355513D01*
X851687Y353413D01*
X850036Y350943D01*
X848900Y348199D01*
X848320Y345285D01*
Y342315D01*
X848900Y339401D01*
X850036Y336657D01*
X851687Y334187D01*
X853787Y332087D01*
X856257Y330436D01*
X859001Y329300D01*
X861915Y328720D01*
X864885D01*
X867799Y329300D01*
X870543Y330436D01*
X873013Y332087D01*
X875113Y334187D01*
X876764Y336657D01*
X877900Y339401D01*
X878480Y342315D01*
Y345285D01*
X877900Y348199D01*
X876764Y350943D01*
X875113Y353413D01*
X873013Y355513D01*
X870543Y357164D01*
X867799Y358301D01*
X864885Y358880D01*
D02*
G37*
G36*
X136333Y377736D02*
X127824D01*
Y374502D01*
X22753D01*
X22371Y374426D01*
X21333Y374220D01*
X21333Y374220D01*
X21332Y374220D01*
X19259Y373361D01*
X19259Y373361D01*
X19259Y373361D01*
X18386Y372778D01*
X17579Y372239D01*
X17579Y372238D01*
X17578Y372238D01*
X15992Y370652D01*
X15992Y370651D01*
X15991Y370651D01*
X15452Y369844D01*
X14869Y368971D01*
X14869Y368971D01*
X14869Y368971D01*
X14010Y366898D01*
X14010Y366897D01*
X14010Y366897D01*
X13804Y365859D01*
X13616Y364915D01*
X13616Y364915D01*
X13616Y364915D01*
X13616Y363793D01*
Y328422D01*
X13616Y327677D01*
X13616Y327677D01*
X13616Y327677D01*
X13820Y326655D01*
X14010Y325695D01*
X14011Y325695D01*
X14011Y325695D01*
X14581Y324319D01*
X14581Y324319D01*
X15195Y323399D01*
X15703Y322639D01*
X15703Y322639D01*
X15703Y322639D01*
X16757Y321585D01*
X16757Y321585D01*
X16757Y321585D01*
X17517Y321077D01*
X18437Y320463D01*
X18437Y320462D01*
X19813Y319893D01*
X19813Y319893D01*
X19813Y319893D01*
X20905Y319675D01*
X21795Y319498D01*
X21795Y319498D01*
X21795Y319498D01*
X22540Y319499D01*
X73493D01*
X75476Y319893D01*
X77300Y320648D01*
X77300Y320648D01*
X78980Y321771D01*
X80377Y323168D01*
X81500Y324848D01*
X81500Y324848D01*
X82255Y326672D01*
X82255Y326672D01*
X82649Y328655D01*
Y344221D01*
X82650Y344283D01*
X82651Y344422D01*
X82655Y344551D01*
X82660Y344687D01*
X82663Y344762D01*
X82645Y344881D01*
X82668Y344999D01*
Y347457D01*
X82690Y348014D01*
X82877Y349214D01*
X83216Y350274D01*
X83714Y351270D01*
X84360Y352177D01*
X85138Y352973D01*
X86029Y353640D01*
X86885Y354095D01*
X119006D01*
X120988Y354489D01*
X121419Y354776D01*
X131253D01*
X131754Y354876D01*
X136333D01*
Y359455D01*
X136433Y359956D01*
Y367656D01*
X136333Y368156D01*
Y372736D01*
Y377736D01*
D02*
G37*
G36*
X163767Y395182D02*
X161113D01*
X158549Y394495D01*
X156251Y393168D01*
X154374Y391291D01*
X153047Y388993D01*
X152360Y386429D01*
Y383775D01*
X153047Y381211D01*
X153880Y379768D01*
X152824Y377736D01*
X138673D01*
Y364876D01*
X138673Y364876D01*
X138573Y362928D01*
X138573Y362885D01*
Y359820D01*
X138673Y359319D01*
Y356805D01*
X138574Y356306D01*
Y306208D01*
X138574Y305548D01*
X138673Y305047D01*
Y304537D01*
X138931Y303242D01*
X139126Y302771D01*
X139226Y302270D01*
X139731Y301050D01*
X140014Y300626D01*
X140210Y300155D01*
X140943Y299057D01*
X141304Y298696D01*
X141587Y298272D01*
X142521Y297338D01*
X142945Y297055D01*
X143306Y296694D01*
X144404Y295960D01*
X144875Y295765D01*
X145300Y295482D01*
X146519Y294976D01*
X147020Y294877D01*
X147491Y294682D01*
X148786Y294424D01*
X149296D01*
X149797Y294324D01*
X150457Y294324D01*
X150457Y294324D01*
X186258D01*
X188241Y294719D01*
X190481Y295647D01*
X192161Y296770D01*
X193876Y298484D01*
X194999Y300165D01*
X194999Y300165D01*
X195927Y302405D01*
X196321Y304387D01*
Y305600D01*
X196321Y337437D01*
X196321Y345986D01*
X196321Y346494D01*
X196321Y346494D01*
X196321Y346494D01*
X196135Y347433D01*
X195927Y348476D01*
X195927Y348476D01*
X195927Y348477D01*
X195538Y349416D01*
X194415Y351097D01*
X194268Y352998D01*
X194268Y352998D01*
X194268Y352998D01*
Y369658D01*
X170567D01*
X168914Y370878D01*
Y377321D01*
X170506Y378913D01*
X171833Y381211D01*
X172520Y383775D01*
Y386429D01*
X171833Y388993D01*
X170506Y391291D01*
X168629Y393168D01*
X166331Y394495D01*
X163767Y395182D01*
D02*
G37*
G36*
X858782Y323280D02*
X855319D01*
X851922Y322604D01*
X848723Y321279D01*
X845843Y319355D01*
X843395Y316907D01*
X841471Y314027D01*
X840146Y310828D01*
X839470Y307432D01*
Y303969D01*
X840146Y300572D01*
X841471Y297373D01*
X843395Y294493D01*
X845843Y292045D01*
X848723Y290121D01*
X851922Y288796D01*
X855319Y288120D01*
X858782D01*
X862178Y288796D01*
X865377Y290121D01*
X868257Y292045D01*
X870705Y294493D01*
X872629Y297373D01*
X873954Y300572D01*
X874630Y303969D01*
Y307432D01*
X873954Y310828D01*
X872629Y314027D01*
X870705Y316907D01*
X868257Y319355D01*
X865377Y321279D01*
X862178Y322604D01*
X858782Y323280D01*
D02*
G37*
G36*
X795282D02*
X791818D01*
X788422Y322604D01*
X785223Y321279D01*
X782343Y319355D01*
X779895Y316907D01*
X777971Y314027D01*
X776646Y310828D01*
X775970Y307432D01*
Y303969D01*
X776646Y300572D01*
X777971Y297373D01*
X779895Y294493D01*
X782343Y292045D01*
X785223Y290121D01*
X788422Y288796D01*
X791818Y288120D01*
X795282D01*
X798678Y288796D01*
X801877Y290121D01*
X804757Y292045D01*
X807205Y294493D01*
X809129Y297373D01*
X810454Y300572D01*
X811130Y303969D01*
Y307432D01*
X810454Y310828D01*
X809129Y314027D01*
X807205Y316907D01*
X804757Y319355D01*
X801877Y321279D01*
X798678Y322604D01*
X795282Y323280D01*
D02*
G37*
G36*
X826785Y301730D02*
X823815D01*
X820901Y301150D01*
X818157Y300014D01*
X815687Y298363D01*
X813587Y296263D01*
X811936Y293793D01*
X810799Y291049D01*
X810220Y288135D01*
Y285165D01*
X810799Y282251D01*
X811936Y279507D01*
X813587Y277037D01*
X815687Y274937D01*
X818157Y273286D01*
X820901Y272150D01*
X823815Y271570D01*
X826785D01*
X829699Y272150D01*
X832443Y273286D01*
X834913Y274937D01*
X837013Y277037D01*
X838664Y279507D01*
X839800Y282251D01*
X840380Y285165D01*
Y288135D01*
X839800Y291049D01*
X838664Y293793D01*
X837013Y296263D01*
X834913Y298363D01*
X832443Y300014D01*
X829699Y301150D01*
X826785Y301730D01*
D02*
G37*
G36*
X1353797Y102328D02*
X1348903D01*
X1344052Y101689D01*
X1339326Y100423D01*
X1334805Y98550D01*
X1330567Y96104D01*
X1326685Y93125D01*
X1323225Y89665D01*
X1320246Y85783D01*
X1317800Y81545D01*
X1315927Y77024D01*
X1314661Y72298D01*
X1314022Y67447D01*
Y62553D01*
X1314661Y57702D01*
X1315927Y52976D01*
X1317800Y48455D01*
X1320246Y44217D01*
X1323225Y40335D01*
X1326685Y36875D01*
X1330567Y33896D01*
X1334805Y31450D01*
X1339326Y29577D01*
X1344052Y28311D01*
X1348903Y27672D01*
X1353797D01*
X1358648Y28311D01*
X1363374Y29577D01*
X1367895Y31450D01*
X1372133Y33896D01*
X1376015Y36875D01*
X1379475Y40335D01*
X1382454Y44217D01*
X1384900Y48455D01*
X1386773Y52976D01*
X1388039Y57702D01*
X1388678Y62553D01*
Y67447D01*
X1388039Y72298D01*
X1386773Y77024D01*
X1384900Y81545D01*
X1382454Y85783D01*
X1379475Y89665D01*
X1376015Y93125D01*
X1372133Y96104D01*
X1367895Y98550D01*
X1363374Y100423D01*
X1358648Y101689D01*
X1353797Y102328D01*
D02*
G37*
G36*
X103797D02*
X98903D01*
X94052Y101689D01*
X89326Y100423D01*
X84805Y98550D01*
X80567Y96104D01*
X76685Y93125D01*
X73225Y89665D01*
X70246Y85783D01*
X67800Y81545D01*
X65927Y77024D01*
X64661Y72298D01*
X64022Y67447D01*
Y62553D01*
X64661Y57702D01*
X65927Y52976D01*
X67800Y48455D01*
X70246Y44217D01*
X73225Y40335D01*
X76685Y36875D01*
X80567Y33896D01*
X84805Y31450D01*
X89326Y29577D01*
X94052Y28311D01*
X98903Y27672D01*
X103797D01*
X108648Y28311D01*
X113374Y29577D01*
X117895Y31450D01*
X122133Y33896D01*
X126015Y36875D01*
X129475Y40335D01*
X132454Y44217D01*
X134900Y48455D01*
X136773Y52976D01*
X138039Y57702D01*
X138678Y62553D01*
Y67447D01*
X138039Y72298D01*
X136773Y77024D01*
X134900Y81545D01*
X132454Y85783D01*
X129475Y89665D01*
X126015Y93125D01*
X122133Y96104D01*
X117895Y98550D01*
X113374Y100423D01*
X108648Y101689D01*
X103797Y102328D01*
D02*
G37*
%LPD*%
G36*
X1074571Y746335D02*
X1076605Y745493D01*
Y743065D01*
Y727825D01*
Y715998D01*
X1070255D01*
Y731238D01*
X1070217D01*
Y743065D01*
Y745493D01*
X1072251Y746335D01*
X1073411Y747225D01*
X1074571Y746335D01*
D02*
G37*
G36*
X24436Y369434D02*
X119006Y369434D01*
Y359274D01*
X85833D01*
X85833Y359274D01*
X84939Y358926D01*
X83247Y358027D01*
X81713Y356879D01*
X80374Y355508D01*
X79262Y353947D01*
X78405Y352234D01*
X77821Y350408D01*
X77526Y348515D01*
X77489Y347557D01*
Y344999D01*
X77484Y344902D01*
X77477Y344709D01*
X77473Y344516D01*
X77470Y344324D01*
X77470Y344227D01*
Y329642D01*
Y328655D01*
X76714Y326830D01*
X75318Y325434D01*
X73493Y324678D01*
X22540D01*
X21795Y324678D01*
X20419Y325248D01*
X19366Y326301D01*
X18796Y327677D01*
X18796Y328422D01*
Y363794D01*
X18796Y364916D01*
X19654Y366989D01*
X21241Y368576D01*
X23314Y369434D01*
X24436Y369434D01*
D02*
G37*
G36*
X151153Y350352D02*
Y350352D01*
X151188Y349999D01*
X151458Y349347D01*
X151957Y348848D01*
X152609Y348577D01*
X152962Y348543D01*
X188585D01*
X188585Y348543D01*
X189094Y348543D01*
X190033Y348153D01*
X190753Y347434D01*
X191142Y346494D01*
X191142Y345986D01*
X191142Y337437D01*
X191142Y305600D01*
Y304387D01*
X190214Y302147D01*
X188499Y300432D01*
X186258Y299504D01*
X150457D01*
X150457Y299504D01*
X149797Y299504D01*
X148502Y299762D01*
X147282Y300267D01*
X146184Y301001D01*
X145250Y301934D01*
X144516Y303032D01*
X144011Y304252D01*
X143753Y305548D01*
X143753Y306208D01*
Y356306D01*
X151153D01*
X151153Y350352D01*
D02*
G37*
D27*
X768000Y930517D02*
G03*
X754222Y944295I-13778J0D01*
G01*
X337851D02*
G03*
X325146Y931590I0J-12705D01*
G01*
X337851Y944295D02*
X754222D01*
X768000Y856550D02*
Y930517D01*
X103512Y384420D02*
X103946Y384854D01*
X118758D02*
X119006Y385102D01*
X103946Y384854D02*
X118758D01*
X130137Y337262D02*
Y337262D01*
X118199D02*
X130137D01*
Y309918D02*
Y337262D01*
X325146Y918972D02*
Y931590D01*
X666776Y722348D02*
X667030Y722094D01*
X1144550Y224282D02*
Y242730D01*
X1219480Y222758D02*
Y242730D01*
D29*
X958766Y506815D02*
G03*
X984166Y532215I0J25400D01*
G01*
X603530Y506815D02*
X958766D01*
X984166Y567178D02*
Y568088D01*
Y532215D02*
Y567178D01*
X181244Y337308D02*
X181244Y337308D01*
X223256Y869845D02*
Y895245D01*
X147056Y869845D02*
Y895245D01*
X96256Y869845D02*
Y895245D01*
X324856Y869845D02*
Y895245D01*
X553456Y869845D02*
Y895245D01*
X477256Y869845D02*
Y895245D01*
X401056Y869845D02*
Y895245D01*
D30*
X18554Y939419D02*
G03*
X22999Y934974I4445J0D01*
G01*
X35801Y926084D02*
G03*
X35801Y934974I0J4445D01*
G01*
X22999Y926084D02*
G03*
X18554Y921639I0J-4445D01*
G01*
X676555Y802123D02*
G03*
X681000Y806568I0J4445D01*
G01*
X689890Y809938D02*
G03*
X681000Y809938I-4445J0D01*
G01*
X689890Y806568D02*
G03*
X694335Y802123I4445J0D01*
G01*
X746167Y657451D02*
G03*
X750612Y653006I4445J0D01*
G01*
X746167Y669645D02*
G03*
X737277Y669645I-4445J0D01*
G01*
X732832Y653006D02*
G03*
X737277Y657451I0J4445D01*
G01*
X1127167D02*
G03*
X1131612Y653006I4445J0D01*
G01*
X1127167Y669994D02*
G03*
X1118277Y669994I-4445J0D01*
G01*
X1113832Y653006D02*
G03*
X1118277Y657451I0J4445D01*
G01*
X1098830Y784432D02*
G03*
X1095354Y787908I-3476J0D01*
G01*
X1086384D02*
G03*
X1076205Y777729I0J-10179D01*
G01*
Y755765D02*
G03*
X1080015Y751955I3810J0D01*
G01*
X1095354Y793496D02*
G03*
X1098830Y796972I0J3476D01*
G01*
X1086384Y793496D02*
G03*
X1070617Y777729I0J-15767D01*
G01*
X1066807Y751955D02*
G03*
X1070617Y755765I0J3810D01*
G01*
X1007198Y774272D02*
G03*
X1003722Y777748I-3476J0D01*
G01*
X1016262D02*
G03*
X1012786Y774272I0J-3476D01*
G01*
X1001675Y741795D02*
G03*
X1007198Y754654I-13349J13349D01*
G01*
X1211749Y543368D02*
G03*
X1222556Y554175I0J10807D01*
G01*
X1211900Y537780D02*
G03*
X1228144Y554024I0J16244D01*
G01*
X1237288Y614934D02*
G03*
X1231922Y609568I0J-5366D01*
G01*
X1217857Y610489D02*
G03*
X1214101Y614880I-4445J0D01*
G01*
D02*
G03*
X1213412Y614934I-689J-4391D01*
G01*
X1081685Y579457D02*
G03*
X1086130Y590188I-10731J10731D01*
G01*
X1065298Y579333D02*
G03*
X1065175Y579457I-12694J-12446D01*
G01*
X1081685D02*
G03*
X1075970Y565660I13797J-13797D01*
G01*
X1070382Y567060D02*
G03*
X1065298Y579333I-17356J0D01*
G01*
X1060730Y590188D02*
G03*
X1065175Y579457I15176J0D01*
G01*
X856288Y614934D02*
G03*
X850922Y609568I0J-5366D01*
G01*
Y603436D02*
G03*
X847144Y599658I0J-3778D01*
G01*
X830900Y537780D02*
G03*
X847144Y554024I0J16244D01*
G01*
X689382Y551507D02*
G03*
X703109Y537780I13727J0D01*
G01*
X679730Y590188D02*
G03*
X684175Y579457I15176J0D01*
G01*
X689382Y567060D02*
G03*
X684298Y579333I-17356J0D01*
G01*
X836857Y610489D02*
G03*
X833101Y614880I-4445J0D01*
G01*
X841556Y598736D02*
G03*
X836857Y603436I-4699J0D01*
G01*
X830749Y543368D02*
G03*
X841556Y554175I0J10807D01*
G01*
X700685Y579457D02*
G03*
X694970Y565660I13797J-13797D01*
G01*
Y551507D02*
G03*
X703109Y543368I8139J0D01*
G01*
X833101Y614880D02*
G03*
X832412Y614934I-689J-4391D01*
G01*
X700685Y579457D02*
G03*
X705130Y590188I-10731J10731D01*
G01*
X684298Y579333D02*
G03*
X684175Y579457I-12694J-12446D01*
G01*
X827306Y948267D02*
G03*
X811174Y964399I-16133J0D01*
G01*
X812127Y802123D02*
G03*
X821718Y811714I0J9591D01*
G01*
X812127Y796535D02*
G03*
X827306Y811714I0J15179D01*
G01*
X821718Y948267D02*
G03*
X811174Y958811I-10545J0D01*
G01*
X1165498Y647418D02*
G03*
X1174550Y656470I0J9053D01*
G01*
X1022144Y647418D02*
G03*
X1012978Y638252I0J-9166D01*
G01*
Y631176D02*
G03*
X1018061Y618729I17778J0D01*
G01*
X1022630Y607874D02*
G03*
X1018185Y618605I-15176J0D01*
G01*
X1154738Y653006D02*
G03*
X1161850Y660118I0J7112D01*
G01*
X1022144Y653006D02*
G03*
X1007390Y638252I0J-14754D01*
G01*
X1001675Y618605D02*
G03*
X997230Y607874I10731J-10731D01*
G01*
X1012786Y754653D02*
G03*
X1018061Y741919I18009J0D01*
G01*
X1022630Y731064D02*
G03*
X1018185Y741795I-15176J0D01*
G01*
X1001675D02*
G03*
X997230Y731064I10731J-10731D01*
G01*
X1018061Y618729D02*
G03*
X1018185Y618605I12694J12446D01*
G01*
X1001675D02*
G03*
X1007390Y632402I-13797J13797D01*
G01*
X1264666Y642366D02*
G03*
X1268730Y646430I0J4064D01*
G01*
X1075970Y551507D02*
G03*
X1084109Y543368I8139J0D01*
G01*
X1222556Y598736D02*
G03*
X1217857Y603436I-4699J0D01*
G01*
X1070382Y551507D02*
G03*
X1084109Y537780I13727J0D01*
G01*
X1231922Y603436D02*
G03*
X1228144Y599658I0J-3778D01*
G01*
X880390Y802123D02*
G03*
X883866Y805599I0J3476D01*
G01*
X841020Y950468D02*
G03*
X813334Y978154I-27686J0D01*
G01*
X841020Y809260D02*
G03*
X848157Y802123I7137J0D01*
G01*
X689617Y774446D02*
G03*
X686141Y777922I-3476J0D01*
G01*
X70856Y869845D02*
G03*
X61240Y860229I0J-9616D01*
G01*
X27716Y978154D02*
G03*
X12966Y963403I0J-14750D01*
G01*
Y838454D02*
G03*
X25920Y825500I12954J0D01*
G01*
X685807Y751955D02*
G03*
X689617Y755765I0J3810D01*
G01*
X48286Y825500D02*
G03*
X61240Y838454I0J12954D01*
G01*
X835432Y809260D02*
G03*
X848157Y796535I12725J0D01*
G01*
X835432Y950468D02*
G03*
X813334Y972566I-22098J0D01*
G01*
X883866Y793059D02*
G03*
X880390Y796535I-3476J0D01*
G01*
X55652Y859649D02*
G03*
X45456Y869845I-10196J0D01*
G01*
X27716Y972566D02*
G03*
X18554Y963403I0J-9162D01*
G01*
Y838454D02*
G03*
X25920Y831088I7366J0D01*
G01*
X698681Y777922D02*
G03*
X695205Y774446I0J-3476D01*
G01*
Y755765D02*
G03*
X699015Y751955I3810J0D01*
G01*
X48286Y831088D02*
G03*
X55652Y838454I0J7366D01*
G01*
X883666Y642366D02*
G03*
X887730Y646430I0J4064D01*
G01*
X641144Y802123D02*
G03*
X626198Y787176I0J-14947D01*
G01*
X620675Y741795D02*
G03*
X626198Y754654I-13349J13349D01*
G01*
X73905Y958811D02*
G03*
X60732Y945638I0J-13174D01*
G01*
Y905369D02*
G03*
X70856Y895245I10124J0D01*
G01*
X620675Y741795D02*
G03*
X616230Y731064I10731J-10731D01*
G01*
X641630D02*
G03*
X637185Y741795I-15176J0D01*
G01*
X73905Y964399D02*
G03*
X55144Y945638I0J-18762D01*
G01*
X641144Y796535D02*
G03*
X631978Y787368I0J-9167D01*
G01*
X631786Y754653D02*
G03*
X637061Y741919I18009J0D01*
G01*
X620675Y618605D02*
G03*
X616230Y607874I10731J-10731D01*
G01*
X641144Y653006D02*
G03*
X626390Y638252I0J-14754D01*
G01*
X620675Y618605D02*
G03*
X626390Y632402I-13797J13797D01*
G01*
X641630Y607874D02*
G03*
X637185Y618605I-15176J0D01*
G01*
X637061Y618729D02*
G03*
X637185Y618605I12694J12446D01*
G01*
X631978Y631176D02*
G03*
X637061Y618729I17778J0D01*
G01*
X641144Y647418D02*
G03*
X631978Y638252I0J-9166D01*
G01*
X654076Y706854D02*
G03*
X654330Y707108I0J254D01*
G01*
X773738Y653006D02*
G03*
X780850Y660118I0J7112D01*
G01*
X784498Y647418D02*
G03*
X793550Y656470I0J9053D01*
G01*
X146874Y933958D02*
G03*
X134392Y921476I0J-12482D01*
G01*
X134160Y944880D02*
G03*
X121656Y932376I0J-12504D01*
G01*
X131801Y879990D02*
G03*
X134392Y886245I-6255J6255D01*
G01*
Y894457D02*
G03*
X134388Y894638I-3810J0D01*
G01*
Y895852D02*
G03*
X134388Y894638I12668J-607D01*
G01*
Y895852D02*
G03*
X134392Y896033I-3806J181D01*
G01*
X45456Y895245D02*
G03*
X55144Y904933I0J9688D01*
G01*
X18554Y939419D02*
Y957372D01*
X22999Y934974D02*
X35801D01*
X22999Y926084D02*
X35801D01*
X18554Y910844D02*
Y921639D01*
Y957372D02*
Y963403D01*
Y838454D02*
Y910844D01*
X660245Y802123D02*
X676555D01*
X681000Y806568D02*
Y809938D01*
X689890Y806568D02*
Y809938D01*
X694335Y802123D02*
X705130D01*
X641144D02*
X660245D01*
X705130D02*
X812127D01*
X750612Y653006D02*
X762755D01*
X746167Y657451D02*
Y669645D01*
X737277Y657451D02*
Y669645D01*
X730927Y653006D02*
X732832D01*
X762755D02*
X773738D01*
X641144D02*
X730927D01*
X1131612D02*
X1143755D01*
X1127167Y657451D02*
Y669994D01*
X1118277Y657451D02*
Y669994D01*
X1111927Y653006D02*
X1113832D01*
X1022144D02*
X1111927D01*
X1143755D02*
X1154738D01*
X1086384Y787908D02*
X1095354D01*
X1076205Y755765D02*
Y777729D01*
X1080015Y751955D02*
X1086130D01*
X1086384Y793496D02*
X1095354D01*
X1070617Y755765D02*
Y777729D01*
X1060692Y751955D02*
X1066807D01*
X1007198Y754654D02*
Y774272D01*
X1012786Y754653D02*
Y774272D01*
X1222556Y554175D02*
Y598736D01*
X1084109Y543368D02*
X1211749D01*
X1231922Y603436D02*
Y609568D01*
X1217857Y603436D02*
Y610489D01*
X1086130Y590188D02*
Y599158D01*
X1060730Y590188D02*
Y599158D01*
X850922Y603436D02*
Y609568D01*
X847144Y554024D02*
Y599658D01*
X679730Y590188D02*
Y599158D01*
X689382Y551507D02*
Y567060D01*
X703109Y537780D02*
X830900D01*
X836857Y603436D02*
Y610489D01*
X841556Y554175D02*
Y598736D01*
X703109Y543368D02*
X830749D01*
X694970Y551507D02*
Y565660D01*
X705130Y590188D02*
Y599158D01*
X821718Y811714D02*
Y948267D01*
X827306Y811714D02*
Y948267D01*
X73905Y958811D02*
X811174D01*
X641144Y796535D02*
X812127D01*
X73905Y964399D02*
X811174D01*
X1022144Y647418D02*
X1165498D01*
X1022630Y599158D02*
Y607874D01*
Y597408D02*
Y599158D01*
X1012978Y631176D02*
Y638252D01*
X1007390Y632402D02*
Y638252D01*
X997230Y599158D02*
Y607874D01*
Y597408D02*
Y599158D01*
X1250750Y688808D02*
X1253250Y686308D01*
X1197450D02*
X1199950Y688808D01*
X1022630Y722094D02*
Y731064D01*
X1018061Y741919D02*
X1018185Y741795D01*
X997230Y722094D02*
Y731064D01*
X1161850Y660118D02*
Y702350D01*
X1174550Y656470D02*
Y727750D01*
X1199950Y688808D02*
Y727750D01*
X1250750Y688808D02*
Y727750D01*
X1212650Y687070D02*
Y702350D01*
Y687070D02*
X1213412Y686308D01*
X1238050Y687070D02*
Y702350D01*
X1237288Y686308D02*
X1238050Y687070D01*
X1048030Y736715D02*
X1060692D01*
X1086130D02*
X1098830D01*
X1086130Y722348D02*
Y734175D01*
Y684458D02*
Y707108D01*
X1060692Y722348D02*
Y734175D01*
Y722348D02*
X1060730D01*
X997230Y684458D02*
Y706854D01*
X1022630Y684458D02*
Y706854D01*
X1035076D01*
X1213412Y630174D02*
Y642366D01*
Y630174D02*
X1237288D01*
Y642366D01*
X1264666D01*
X1199950Y630174D02*
X1213412D01*
X1237288D02*
X1250750D01*
X1075970Y551507D02*
Y565660D01*
X1084109Y537780D02*
X1211900D01*
X1070382Y551507D02*
Y567060D01*
X1228144Y554024D02*
Y599658D01*
X1273730Y671830D02*
Y727416D01*
X984530Y706854D02*
X997230D01*
X848157Y802123D02*
X880390D01*
X841020Y809260D02*
Y950468D01*
X689617Y755765D02*
Y774446D01*
X27716Y978154D02*
X813334D01*
X61240Y838454D02*
Y860229D01*
X12966Y838454D02*
Y963403D01*
X679692Y751955D02*
X685807D01*
X25920Y825500D02*
X48286D01*
X848157Y796535D02*
X880390D01*
X835432Y809260D02*
Y950468D01*
X699015Y751955D02*
X705130D01*
X27716Y972566D02*
X813334D01*
X55652Y838454D02*
Y859649D01*
X25920Y831088D02*
X48286D01*
X695205Y755765D02*
Y774446D01*
X603530Y706854D02*
X616230D01*
X892730Y671830D02*
Y727416D01*
X856288Y630174D02*
X869750D01*
X818950D02*
X832412D01*
X856288Y642366D02*
X883666D01*
X856288Y630174D02*
Y642366D01*
X832412Y630174D02*
X856288D01*
X832412D02*
Y642366D01*
X626198Y754654D02*
Y787176D01*
X616230Y722094D02*
Y731064D01*
X60732Y905369D02*
Y945638D01*
X641630Y722094D02*
Y731064D01*
X637061Y741919D02*
X637185Y741795D01*
X55144Y904933D02*
Y945638D01*
X631786Y754653D02*
X632013Y787368D01*
X626390Y632402D02*
Y638252D01*
X631978Y631176D02*
Y638252D01*
X616230Y598904D02*
Y607874D01*
X641630Y598904D02*
Y607874D01*
Y706854D02*
X654076D01*
X641630Y684458D02*
Y706854D01*
X616230Y684458D02*
Y706854D01*
X641144Y647418D02*
X784498D01*
X679692Y722348D02*
X679730D01*
X679692D02*
Y734175D01*
X705130Y684458D02*
Y707108D01*
Y722348D02*
Y734175D01*
Y736715D02*
X717830D01*
X667030D02*
X679692D01*
X856288Y686308D02*
X857050Y687070D01*
Y702350D01*
X831650Y687070D02*
X832412Y686308D01*
X831650Y687070D02*
Y702350D01*
X869750Y686308D02*
Y727750D01*
X818950Y686308D02*
Y727750D01*
X793550Y656470D02*
Y727750D01*
X780850Y660118D02*
Y702350D01*
X146874Y933958D02*
X220498D01*
X134160Y944880D02*
X240056D01*
X134392Y896033D02*
Y921476D01*
X121656Y895245D02*
Y932376D01*
X134392Y886245D02*
Y894457D01*
X121656Y869845D02*
X131801Y879990D01*
X147056Y895245D02*
X147056D01*
X324856Y869845D02*
X324856D01*
X553456Y895245D02*
X553456D01*
D31*
X167448Y477078D02*
G03*
X177366Y486996I0J9918D01*
G01*
X156074Y506528D02*
G03*
X165461Y515915I0J9387D01*
G01*
X139258Y521528D02*
G03*
X152869Y535139I0J13611D01*
G01*
X121986Y477078D02*
G03*
X121436Y476528I0J-550D01*
G01*
X130791Y543616D02*
G03*
X140208Y562567I-14359J18951D01*
G01*
X116957Y521528D02*
G03*
X98996Y514089I0J-25400D01*
G01*
X293403Y745327D02*
G03*
X313306Y725424I19903J0D01*
G01*
X304046Y746884D02*
G03*
X315092Y735838I11046J0D01*
G01*
X236629Y724722D02*
G03*
X258533Y702818I21904J0D01*
G01*
X248656Y724615D02*
G03*
X260801Y712470I12146J0D01*
G01*
X519684Y691896D02*
G03*
X508762Y702818I-10922J0D01*
G01*
X530606Y702392D02*
G03*
X520528Y712470I-10078J0D01*
G01*
X542290Y713914D02*
G03*
X530780Y725424I-11509J0D01*
G01*
X553466Y720189D02*
G03*
X537817Y735838I-15649J0D01*
G01*
X599720Y904748D02*
G03*
X586258Y918210I-13462J0D01*
G01*
X588518Y758190D02*
G03*
X599720Y769392I0J11202D01*
G01*
X513837Y918210D02*
G03*
X502656Y907029I0J-11181D01*
G01*
X91436Y566528D02*
G03*
X91689Y566781I0J253D01*
G01*
X72251Y563397D02*
G03*
X82081Y543616I24818J-0D01*
G01*
X530606Y213789D02*
G03*
X576398Y168017I45772J-0D01*
G01*
X519684Y210812D02*
G03*
X573059Y157437I53375J0D01*
G01*
X542290Y214539D02*
G03*
X580651Y178597I36019J-0D01*
G01*
X553466Y214613D02*
G03*
X578866Y189214I25400J0D01*
G01*
X1153081Y178667D02*
G03*
X1165124Y191624I-948J12957D01*
G01*
X1229652Y157437D02*
G03*
X1240054Y167839I0J10402D01*
G01*
X1113366Y189214D02*
G03*
X1123976Y199824I0J10610D01*
G01*
X1186463Y168017D02*
G03*
X1198906Y180459I0J12442D01*
G01*
X1253250Y614934D02*
G03*
X1253064Y614748I0J-186D01*
G01*
X1240564Y520868D02*
G03*
X1253064Y533368I0J12500D01*
G01*
X1009930Y531502D02*
G03*
X1020564Y520868I10634J0D01*
G01*
X861075Y528828D02*
G03*
X872250Y540003I0J11175D01*
G01*
X628930Y539108D02*
G03*
X639209Y528828I10280J0D01*
G01*
X1003905Y665552D02*
G03*
X1009930Y671576I0J6024D01*
G01*
X971830Y671902D02*
G03*
X978180Y665552I6350J0D01*
G01*
X590830Y671902D02*
G03*
X597180Y665552I6350J0D01*
G01*
X622906D02*
G03*
X628930Y671576I0J6024D01*
G01*
X293403Y886245D02*
G03*
X284403Y895245I-9000J0D01*
G01*
X1165124Y241135D02*
G03*
X1158930Y257756I-25400J0D01*
G01*
X1155359Y302723D02*
G03*
X1154050Y298621I5770J-4102D01*
G01*
X1161129Y305700D02*
G03*
X1157027Y304391I0J-7079D01*
G01*
X304046Y907232D02*
G03*
X295100Y916178I-8946J0D01*
G01*
X256172D02*
G03*
X248656Y908662I0J-7516D01*
G01*
X1130169Y257756D02*
G03*
X1123976Y241135I19207J-16621D01*
G01*
X1131415Y259095D02*
G03*
X1130169Y257756I17960J-17960D01*
G01*
X1145312Y344170D02*
G03*
X1135050Y333908I0J-10262D01*
G01*
X1168200Y343800D02*
G03*
X1167830Y344170I-370J0D01*
G01*
X1205099Y257756D02*
G03*
X1198906Y241135I19207J-16621D01*
G01*
X1206345Y259095D02*
G03*
X1205099Y257756I17960J-17960D01*
G01*
X1230165Y293778D02*
G03*
X1228980Y286109I24214J-7669D01*
G01*
X1236419Y304069D02*
G03*
X1230165Y293778I17960J-17960D01*
G01*
X1240054Y241135D02*
G03*
X1233860Y257756I-25400J0D01*
G01*
X1157027Y304391D02*
G03*
X1155359Y302723I4102J-5770D01*
G01*
X121986Y477078D02*
X167448D01*
X177366Y486996D02*
Y706604D01*
X165461Y515915D02*
Y732738D01*
X121436Y506528D02*
X156074D01*
X165461Y732738D02*
X165751Y733028D01*
X152869Y535139D02*
Y680892D01*
X153000Y681022D01*
X140208Y562567D02*
Y668528D01*
X116957Y521528D02*
X139258D01*
X91436Y506528D02*
X98996Y514089D01*
X121436Y536528D02*
X130791Y543616D01*
X72251Y563397D02*
Y693514D01*
X293403Y745327D02*
Y886245D01*
X304046Y746884D02*
Y907232D01*
X313306Y725424D02*
X530780D01*
X315092Y735838D02*
X537817D01*
X236629Y724722D02*
Y833189D01*
X258533Y702818D02*
X508762D01*
X260801Y712470D02*
X520528D01*
X248656Y724615D02*
Y869845D01*
X519684Y210812D02*
Y691896D01*
X530606Y213789D02*
Y702392D01*
X542290Y214539D02*
Y713914D01*
X553466Y214613D02*
Y720189D01*
X599720Y769392D02*
Y904748D01*
X513837Y918210D02*
X586258D01*
X550672Y758190D02*
X588518D01*
X502656Y895245D02*
Y907029D01*
X91689Y566781D02*
Y719930D01*
X82081Y543616D02*
X91436Y536528D01*
X573059Y157437D02*
X1229652Y157437D01*
X576398Y168017D02*
X1186463Y168017D01*
X580651Y178597D02*
X1152121Y178597D01*
X578866Y189214D02*
X1113366D01*
X1152121Y178597D02*
X1153081Y178667D01*
X1123976Y199824D02*
Y241135D01*
X1165124Y191624D02*
Y241135D01*
X1198906Y180459D02*
Y241135D01*
X1240054Y167839D02*
Y241135D01*
X1253064Y533368D02*
Y614748D01*
X1020564Y520868D02*
X1240564D01*
X1009930Y531502D02*
Y599158D01*
X639209Y528828D02*
X861075D01*
X628930Y599158D02*
Y601726D01*
Y539108D02*
Y599158D01*
X872250Y540003D02*
Y614934D01*
X1009930Y722348D02*
Y734175D01*
X1060730Y684458D02*
Y707108D01*
X1035330Y722348D02*
X1047776D01*
X1073430Y684458D02*
Y707108D01*
Y722740D02*
Y736715D01*
Y668020D02*
Y684458D01*
X1048030Y751955D02*
Y764540D01*
X1098830Y751955D02*
Y764540D01*
X1197450Y603436D02*
Y614934D01*
X1073430Y599158D02*
Y618368D01*
X971830Y722094D02*
X984530D01*
Y734175D01*
X1009930Y671576D02*
Y684458D01*
Y707108D01*
X978180Y665552D02*
X1003905D01*
X971830Y671902D02*
Y706854D01*
X590830Y671902D02*
Y706854D01*
X597180Y665552D02*
X622906D01*
X628930Y684458D02*
Y707108D01*
Y671576D02*
Y684458D01*
X603530Y722094D02*
Y734175D01*
X590830Y722094D02*
X603530D01*
X692430Y599158D02*
Y618368D01*
X816450Y603436D02*
Y614934D01*
X717830Y751955D02*
Y764540D01*
X667030Y751955D02*
Y764540D01*
X692430Y668020D02*
Y684458D01*
X628930Y722348D02*
Y734175D01*
X692430Y722740D02*
Y734175D01*
Y684458D02*
Y707108D01*
X654330Y722348D02*
X666776D01*
X679730Y684458D02*
Y707108D01*
X274056Y895245D02*
X284403D01*
X1154050Y262730D02*
Y298621D01*
X1161129Y305700D02*
X1174550D01*
X248656Y895245D02*
Y908662D01*
X256172Y916178D02*
X295100D01*
X1131415Y259095D02*
X1135050Y262730D01*
Y333908D01*
X1145312Y344170D02*
X1167830D01*
X1206345Y259095D02*
X1209980Y262730D01*
X1228980D02*
Y286109D01*
X1236419Y304069D02*
X1238050Y305700D01*
X1228980Y262730D02*
X1232614Y259095D01*
X1154050Y262730D02*
X1157684Y259095D01*
X1207760Y285661D02*
X1209548Y283873D01*
X1209938Y264790D01*
X1206300Y286650D02*
X1207760Y285661D01*
D33*
X121436Y476528D02*
D03*
Y506528D02*
D03*
Y536528D02*
D03*
Y566528D02*
D03*
X91436Y476528D02*
D03*
Y506528D02*
D03*
Y536528D02*
D03*
D34*
Y566528D02*
D03*
D35*
X41910Y400116D02*
D03*
D36*
Y349316D02*
D03*
D37*
X825300Y248550D02*
D03*
Y286650D02*
D03*
X863400Y343800D02*
D03*
X780850Y337450D02*
D03*
X1288850Y229500D02*
D03*
X1206300Y286650D02*
D03*
X1174550Y305700D02*
D03*
X1238050D02*
D03*
X1244400Y337450D02*
D03*
X1168200Y343800D02*
D03*
D38*
X857050Y305700D02*
D03*
X793550D02*
D03*
D39*
X780850Y702350D02*
D03*
X1161850D02*
D03*
D40*
X793550Y727750D02*
D03*
X806250Y702350D02*
D03*
X818950Y727750D02*
D03*
X831650Y702350D02*
D03*
X844350Y727750D02*
D03*
X857050Y702350D02*
D03*
X869750Y727750D02*
D03*
X1174550D02*
D03*
X1187250Y702350D02*
D03*
X1199950Y727750D02*
D03*
X1212650Y702350D02*
D03*
X1225350Y727750D02*
D03*
X1238050Y702350D02*
D03*
X1250750Y727750D02*
D03*
D41*
X908000Y856550D02*
D03*
X882600D02*
D03*
X1289000D02*
D03*
X1263600D02*
D03*
D42*
X749100Y715050D02*
D03*
X1130100D02*
D03*
X45456Y895245D02*
D03*
X70856Y869845D02*
D03*
Y895245D02*
D03*
X96256Y869845D02*
D03*
Y895245D02*
D03*
X121656Y869845D02*
D03*
Y895245D02*
D03*
X147056Y869845D02*
D03*
X147056Y895245D02*
D03*
X172456Y869845D02*
D03*
X172456Y895245D02*
D03*
X197856Y869845D02*
D03*
Y895245D02*
D03*
X223256Y869845D02*
D03*
Y895245D02*
D03*
X248656Y869845D02*
D03*
Y895245D02*
D03*
X274056Y869845D02*
D03*
X274056Y895245D02*
D03*
X553456D02*
D03*
X553456Y869845D02*
D03*
X528056Y895245D02*
D03*
Y869845D02*
D03*
X502656Y895245D02*
D03*
Y869845D02*
D03*
X477256Y895245D02*
D03*
Y869845D02*
D03*
X451856Y895245D02*
D03*
X451856Y869845D02*
D03*
X426456Y895245D02*
D03*
X426456Y869845D02*
D03*
X401056Y895245D02*
D03*
Y869845D02*
D03*
X375656Y895245D02*
D03*
Y869845D02*
D03*
X350256Y895245D02*
D03*
Y869845D02*
D03*
X324856Y895245D02*
D03*
D43*
X768000Y856550D02*
D03*
X1149000D02*
D03*
D44*
X742600D02*
D03*
X1123600D02*
D03*
D45*
X1351350Y935000D02*
D03*
Y65000D02*
D03*
X101350D02*
D03*
Y785000D02*
D03*
D46*
X45456Y869845D02*
D03*
X324856D02*
D03*
D47*
X177366Y706604D02*
D03*
X165751Y733028D02*
D03*
X153000Y681022D02*
D03*
X140208Y668528D02*
D03*
X91689Y719930D02*
D03*
X72390Y693514D02*
D03*
X550672Y758190D02*
D03*
X1003722Y777748D02*
D03*
X1016262D02*
D03*
X118199Y337262D02*
D03*
X130137Y309918D02*
D03*
X119006Y385102D02*
D03*
X137503D02*
D03*
X984166Y567178D02*
D03*
X603530Y506815D02*
D03*
X1098830Y784432D02*
D03*
Y796972D02*
D03*
X1009930Y734175D02*
D03*
X1048030Y722094D02*
D03*
X1073430Y736715D02*
D03*
Y668020D02*
D03*
X1048030Y764540D02*
D03*
X1098830D02*
D03*
X1197450Y603436D02*
D03*
X1073430Y618368D02*
D03*
X1217857Y603436D02*
D03*
X1231922D02*
D03*
X1273730Y727416D02*
D03*
X984530Y734175D02*
D03*
X603530D02*
D03*
X892730Y727416D02*
D03*
X850922Y603436D02*
D03*
X836857D02*
D03*
X692430Y618368D02*
D03*
X816450Y603436D02*
D03*
X686141Y777922D02*
D03*
X698681D02*
D03*
X717830Y764540D02*
D03*
X667030D02*
D03*
X692430Y668020D02*
D03*
X628930Y734175D02*
D03*
X883866Y793059D02*
D03*
Y805599D02*
D03*
X692430Y736715D02*
D03*
X667030Y722094D02*
D03*
X325146Y918972D02*
D03*
X220498Y933958D02*
D03*
X240056Y944880D02*
D03*
X236629Y833189D02*
D03*
X1219480Y222758D02*
D03*
X1144804Y224028D02*
D03*
X162440Y309918D02*
D03*
Y385102D02*
D03*
D48*
X157868Y366306D02*
G03*
X162440Y370878I0J4572D01*
G01*
X147453Y366306D02*
X157868D01*
X162440Y370878D02*
Y385102D01*
D49*
X1060730Y707108D02*
D03*
Y722348D02*
D03*
X1048030Y751955D02*
D03*
Y736715D02*
D03*
X1009930Y707108D02*
D03*
Y722348D02*
D03*
X590830Y706854D02*
D03*
Y722094D02*
D03*
X603530Y706854D02*
D03*
Y722094D02*
D03*
X856288Y642874D02*
D03*
Y658114D02*
D03*
X832412D02*
D03*
Y642874D02*
D03*
X1073430Y707108D02*
D03*
Y722348D02*
D03*
X1098830Y751955D02*
D03*
Y736715D02*
D03*
X1213412Y614934D02*
D03*
Y630174D02*
D03*
X1086130Y736715D02*
D03*
Y751955D02*
D03*
X1237288Y630174D02*
D03*
Y614934D02*
D03*
X1086130Y707108D02*
D03*
Y722348D02*
D03*
X1253250Y671068D02*
D03*
Y686308D02*
D03*
X1060692Y736715D02*
D03*
Y751955D02*
D03*
X971830Y706854D02*
D03*
Y722094D02*
D03*
X984530Y706854D02*
D03*
Y722094D02*
D03*
X1035330Y707108D02*
D03*
Y722348D02*
D03*
X1197450Y614934D02*
D03*
Y630174D02*
D03*
X1237288Y671068D02*
D03*
Y686308D02*
D03*
X997230Y706854D02*
D03*
Y722094D02*
D03*
X1253250Y614934D02*
D03*
Y630174D02*
D03*
X1022630Y706854D02*
D03*
Y722094D02*
D03*
X1197450Y671068D02*
D03*
Y686308D02*
D03*
X1213412Y642874D02*
D03*
Y658114D02*
D03*
Y671068D02*
D03*
Y686308D02*
D03*
X1237288Y642874D02*
D03*
Y658114D02*
D03*
X667030Y751955D02*
D03*
Y736715D02*
D03*
X654330Y707108D02*
D03*
Y722348D02*
D03*
X641630Y706854D02*
D03*
Y722094D02*
D03*
X616230Y706854D02*
D03*
Y722094D02*
D03*
X628930Y722348D02*
D03*
Y707108D02*
D03*
X692430D02*
D03*
Y722348D02*
D03*
X679730Y707108D02*
D03*
Y722348D02*
D03*
X679692Y736715D02*
D03*
Y751955D02*
D03*
X705130Y707108D02*
D03*
Y722348D02*
D03*
Y736715D02*
D03*
Y751955D02*
D03*
X717830D02*
D03*
Y736715D02*
D03*
X872250Y614934D02*
D03*
Y630174D02*
D03*
X856288Y671068D02*
D03*
Y686308D02*
D03*
X872250Y671068D02*
D03*
Y686308D02*
D03*
X832412Y614934D02*
D03*
Y630174D02*
D03*
X856288D02*
D03*
Y614934D02*
D03*
X816450Y686308D02*
D03*
X832412D02*
D03*
X816450Y671068D02*
D03*
X832412D02*
D03*
X816450Y614934D02*
D03*
Y630174D02*
D03*
D50*
X997230Y599158D02*
D03*
X1009930Y599158D02*
D03*
X1022630Y599158D02*
D03*
X1035330D02*
D03*
X1048030D02*
D03*
X1060730D02*
D03*
X1073430Y599158D02*
D03*
X1086130Y599158D02*
D03*
Y684458D02*
D03*
X1073430Y684458D02*
D03*
X1060730Y684458D02*
D03*
X1048030D02*
D03*
X1035330D02*
D03*
X1022630D02*
D03*
X1009930Y684458D02*
D03*
X997230Y684458D02*
D03*
X616230Y599158D02*
D03*
X628930Y599158D02*
D03*
X641630Y599158D02*
D03*
X654330D02*
D03*
X667030D02*
D03*
X679730D02*
D03*
X692430Y599158D02*
D03*
X705130Y599158D02*
D03*
Y684458D02*
D03*
X692430Y684458D02*
D03*
X679730Y684458D02*
D03*
X667030D02*
D03*
X654330D02*
D03*
X641630D02*
D03*
X628930Y684458D02*
D03*
X616230Y684458D02*
D03*
D51*
X1273730Y671830D02*
D03*
Y646430D02*
D03*
X892730Y671830D02*
D03*
Y646430D02*
D03*
D52*
X130137Y337262D02*
D03*
X150457Y337262D02*
D03*
D53*
X127553Y356306D02*
D03*
Y361306D02*
D03*
Y366306D02*
D03*
Y371306D02*
D03*
Y376306D02*
D03*
X147453D02*
D03*
X147453Y371306D02*
D03*
X147453Y366306D02*
D03*
Y361306D02*
D03*
Y356306D02*
D03*
D54*
X137503Y366306D02*
D03*
D55*
X103512Y384674D02*
D03*
X103512Y364354D02*
D03*
D56*
X178188Y361328D02*
D03*
Y342328D02*
D03*
D57*
X1228980Y262730D02*
D03*
X1209980D02*
D03*
X1219480Y242730D02*
D03*
X1154050Y262730D02*
D03*
X1135050D02*
D03*
X1144550Y242730D02*
D03*
D58*
X137503Y366306D02*
Y385102D01*
X1199950Y671068D02*
X1213412D01*
Y657606D02*
Y671068D01*
X1237288Y658114D02*
Y671068D01*
X1253250D01*
X856288D02*
X869750D01*
X856288Y657606D02*
Y671068D01*
X832412Y657606D02*
Y671068D01*
X818950D02*
X832412D01*
D59*
X138337Y382897D02*
D03*
D60*
X132778Y354231D02*
D03*
D61*
X84867Y378154D02*
D03*
D62*
X160970Y361374D02*
D03*
D63*
X117382Y363806D02*
D03*
M02*
