G04*
G04 #@! TF.GenerationSoftware,Altium Limited,Altium Designer,24.5.2 (23)*
G04*
G04 Layer_Color=255*
%FSLAX44Y44*%
%MOMM*%
G71*
G04*
G04 #@! TF.SameCoordinates,BE5CC84F-6731-4C53-AAD9-C32198600D17*
G04*
G04*
G04 #@! TF.FilePolarity,Positive*
G04*
G01*
G75*
%ADD33C,1.5200*%
%ADD34R,1.5200X1.5200*%
%ADD35C,3.2000*%
%ADD36R,3.2000X3.2000*%
%ADD37C,2.0000*%
%ADD38C,2.5000*%
%ADD39R,1.3080X1.3080*%
%ADD40C,1.3080*%
%ADD41C,1.5240*%
%ADD42C,1.8000*%
%ADD43R,1.6000X1.6000*%
%ADD44C,1.6000*%
%ADD45C,4.4000*%
%ADD46R,1.8000X1.8000*%
%ADD49R,0.8890X0.7620*%
%ADD50R,0.7600X1.6700*%
%ADD51R,1.7780X1.5240*%
%ADD52R,1.0160X1.5240*%
%ADD53R,0.7400X0.2700*%
%ADD54R,0.8400X2.4000*%
%ADD55R,1.5240X1.0160*%
%ADD56R,2.2000X0.6500*%
%ADD57R,0.8200X0.9200*%
D33*
X121436Y476528D02*
D03*
Y506528D02*
D03*
Y536528D02*
D03*
Y566528D02*
D03*
X91436Y476528D02*
D03*
Y506528D02*
D03*
Y536528D02*
D03*
D34*
Y566528D02*
D03*
D35*
X41910Y400116D02*
D03*
D36*
Y349316D02*
D03*
D37*
X825300Y248550D02*
D03*
Y286650D02*
D03*
X863400Y343800D02*
D03*
X780850Y337450D02*
D03*
X1288850Y229500D02*
D03*
X1206300Y286650D02*
D03*
X1174550Y305700D02*
D03*
X1238050D02*
D03*
X1244400Y337450D02*
D03*
X1168200Y343800D02*
D03*
D38*
X857050Y305700D02*
D03*
X793550D02*
D03*
D39*
X780850Y702350D02*
D03*
X1161850D02*
D03*
D40*
X793550Y727750D02*
D03*
X806250Y702350D02*
D03*
X818950Y727750D02*
D03*
X831650Y702350D02*
D03*
X844350Y727750D02*
D03*
X857050Y702350D02*
D03*
X869750Y727750D02*
D03*
X1174550D02*
D03*
X1187250Y702350D02*
D03*
X1199950Y727750D02*
D03*
X1212650Y702350D02*
D03*
X1225350Y727750D02*
D03*
X1238050Y702350D02*
D03*
X1250750Y727750D02*
D03*
D41*
X908000Y856550D02*
D03*
X882600D02*
D03*
X1289000D02*
D03*
X1263600D02*
D03*
D42*
X749100Y715050D02*
D03*
X1130100D02*
D03*
X45456Y895245D02*
D03*
X70856Y869845D02*
D03*
Y895245D02*
D03*
X96256Y869845D02*
D03*
Y895245D02*
D03*
X121656Y869845D02*
D03*
Y895245D02*
D03*
X147056Y869845D02*
D03*
X147056Y895245D02*
D03*
X172456Y869845D02*
D03*
X172456Y895245D02*
D03*
X197856Y869845D02*
D03*
Y895245D02*
D03*
X223256Y869845D02*
D03*
Y895245D02*
D03*
X248656Y869845D02*
D03*
Y895245D02*
D03*
X274056Y869845D02*
D03*
X274056Y895245D02*
D03*
X553456D02*
D03*
X553456Y869845D02*
D03*
X528056Y895245D02*
D03*
Y869845D02*
D03*
X502656Y895245D02*
D03*
Y869845D02*
D03*
X477256Y895245D02*
D03*
Y869845D02*
D03*
X451856Y895245D02*
D03*
X451856Y869845D02*
D03*
X426456Y895245D02*
D03*
X426456Y869845D02*
D03*
X401056Y895245D02*
D03*
Y869845D02*
D03*
X375656Y895245D02*
D03*
Y869845D02*
D03*
X350256Y895245D02*
D03*
Y869845D02*
D03*
X324856Y895245D02*
D03*
D43*
X768000Y856550D02*
D03*
X1149000D02*
D03*
D44*
X742600D02*
D03*
X1123600D02*
D03*
D45*
X1351350Y935000D02*
D03*
Y65000D02*
D03*
X101350D02*
D03*
Y785000D02*
D03*
D46*
X45456Y869845D02*
D03*
X324856D02*
D03*
D49*
X1060730Y707108D02*
D03*
Y722348D02*
D03*
X1048030Y751955D02*
D03*
Y736715D02*
D03*
X1009930Y707108D02*
D03*
Y722348D02*
D03*
X590830Y706854D02*
D03*
Y722094D02*
D03*
X603530Y706854D02*
D03*
Y722094D02*
D03*
X856288Y642874D02*
D03*
Y658114D02*
D03*
X832412D02*
D03*
Y642874D02*
D03*
X1073430Y707108D02*
D03*
Y722348D02*
D03*
X1098830Y751955D02*
D03*
Y736715D02*
D03*
X1213412Y614934D02*
D03*
Y630174D02*
D03*
X1086130Y736715D02*
D03*
Y751955D02*
D03*
X1237288Y630174D02*
D03*
Y614934D02*
D03*
X1086130Y707108D02*
D03*
Y722348D02*
D03*
X1253250Y671068D02*
D03*
Y686308D02*
D03*
X1060692Y736715D02*
D03*
Y751955D02*
D03*
X971830Y706854D02*
D03*
Y722094D02*
D03*
X984530Y706854D02*
D03*
Y722094D02*
D03*
X1035330Y707108D02*
D03*
Y722348D02*
D03*
X1197450Y614934D02*
D03*
Y630174D02*
D03*
X1237288Y671068D02*
D03*
Y686308D02*
D03*
X997230Y706854D02*
D03*
Y722094D02*
D03*
X1253250Y614934D02*
D03*
Y630174D02*
D03*
X1022630Y706854D02*
D03*
Y722094D02*
D03*
X1197450Y671068D02*
D03*
Y686308D02*
D03*
X1213412Y642874D02*
D03*
Y658114D02*
D03*
Y671068D02*
D03*
Y686308D02*
D03*
X1237288Y642874D02*
D03*
Y658114D02*
D03*
X667030Y751955D02*
D03*
Y736715D02*
D03*
X654330Y707108D02*
D03*
Y722348D02*
D03*
X641630Y706854D02*
D03*
Y722094D02*
D03*
X616230Y706854D02*
D03*
Y722094D02*
D03*
X628930Y722348D02*
D03*
Y707108D02*
D03*
X692430D02*
D03*
Y722348D02*
D03*
X679730Y707108D02*
D03*
Y722348D02*
D03*
X679692Y736715D02*
D03*
Y751955D02*
D03*
X705130Y707108D02*
D03*
Y722348D02*
D03*
Y736715D02*
D03*
Y751955D02*
D03*
X717830D02*
D03*
Y736715D02*
D03*
X872250Y614934D02*
D03*
Y630174D02*
D03*
X856288Y671068D02*
D03*
Y686308D02*
D03*
X872250Y671068D02*
D03*
Y686308D02*
D03*
X832412Y614934D02*
D03*
Y630174D02*
D03*
X856288D02*
D03*
Y614934D02*
D03*
X816450Y686308D02*
D03*
X832412D02*
D03*
X816450Y671068D02*
D03*
X832412D02*
D03*
X816450Y614934D02*
D03*
Y630174D02*
D03*
D50*
X997230Y599158D02*
D03*
X1009930Y599158D02*
D03*
X1022630Y599158D02*
D03*
X1035330D02*
D03*
X1048030D02*
D03*
X1060730D02*
D03*
X1073430Y599158D02*
D03*
X1086130Y599158D02*
D03*
Y684458D02*
D03*
X1073430Y684458D02*
D03*
X1060730Y684458D02*
D03*
X1048030D02*
D03*
X1035330D02*
D03*
X1022630D02*
D03*
X1009930Y684458D02*
D03*
X997230Y684458D02*
D03*
X616230Y599158D02*
D03*
X628930Y599158D02*
D03*
X641630Y599158D02*
D03*
X654330D02*
D03*
X667030D02*
D03*
X679730D02*
D03*
X692430Y599158D02*
D03*
X705130Y599158D02*
D03*
Y684458D02*
D03*
X692430Y684458D02*
D03*
X679730Y684458D02*
D03*
X667030D02*
D03*
X654330D02*
D03*
X641630D02*
D03*
X628930Y684458D02*
D03*
X616230Y684458D02*
D03*
D51*
X1273730Y671830D02*
D03*
Y646430D02*
D03*
X892730Y671830D02*
D03*
Y646430D02*
D03*
D52*
X130137Y337262D02*
D03*
X150457Y337262D02*
D03*
D53*
X127553Y356306D02*
D03*
Y361306D02*
D03*
Y366306D02*
D03*
Y371306D02*
D03*
Y376306D02*
D03*
X147453D02*
D03*
X147453Y371306D02*
D03*
X147453Y366306D02*
D03*
Y361306D02*
D03*
Y356306D02*
D03*
D54*
X137503Y366306D02*
D03*
D55*
X103512Y384674D02*
D03*
X103512Y364354D02*
D03*
D56*
X178188Y361328D02*
D03*
Y342328D02*
D03*
D57*
X1228980Y262730D02*
D03*
X1209980D02*
D03*
X1219480Y242730D02*
D03*
X1154050Y262730D02*
D03*
X1135050D02*
D03*
X1144550Y242730D02*
D03*
M02*
