G04*
G04 #@! TF.GenerationSoftware,Altium Limited,Altium Designer,24.5.2 (23)*
G04*
G04 Layer_Physical_Order=1*
G04 Layer_Color=255*
%FSLAX44Y44*%
%MOMM*%
G71*
G04*
G04 #@! TF.SameCoordinates,31888D97-798D-4CBF-A4AE-393945775F34*
G04*
G04*
G04 #@! TF.FilePolarity,Positive*
G04*
G01*
G75*
%ADD26C,0.3810*%
%ADD27C,0.3048*%
%ADD28C,0.7620*%
%ADD29C,1.0160*%
%ADD30C,0.5080*%
%ADD31C,1.2700*%
%ADD32C,1.5200*%
%ADD33R,1.5200X1.5200*%
%ADD34C,1.8000*%
%ADD35R,1.8000X1.8000*%
%ADD36C,1.6000*%
%ADD37R,1.6000X1.6000*%
%ADD38C,2.0000*%
%ADD39C,2.5000*%
%ADD40R,1.3080X1.3080*%
%ADD41C,1.3080*%
%ADD42C,1.5240*%
%ADD43C,4.4000*%
%ADD44C,1.0000*%
G36*
X188211Y971601D02*
X187061Y970986D01*
X183133Y967763D01*
X179910Y963835D01*
X177515Y959354D01*
X176040Y954492D01*
X175542Y949436D01*
X175606D01*
Y910320D01*
X174310Y909325D01*
X170602D01*
X167021Y908365D01*
X163811Y906512D01*
X161189Y903890D01*
X159463Y900900D01*
X158577Y900685D01*
X157235Y900694D01*
X156290Y902331D01*
X154142Y904479D01*
X151510Y905999D01*
X149596Y906512D01*
Y895245D01*
Y883979D01*
X151510Y884491D01*
X154142Y886011D01*
X156290Y888159D01*
X157235Y889797D01*
X158577Y889805D01*
X159463Y889590D01*
X161189Y886600D01*
X163811Y883978D01*
X164533Y883561D01*
Y881529D01*
X163811Y881112D01*
X161189Y878490D01*
X159463Y875500D01*
X158577Y875285D01*
X157235Y875293D01*
X156290Y876931D01*
X154142Y879079D01*
X151510Y880599D01*
X149596Y881112D01*
Y869845D01*
Y858578D01*
X151510Y859091D01*
X154142Y860611D01*
X156290Y862759D01*
X157235Y864397D01*
X158577Y864405D01*
X159463Y864190D01*
X161189Y861200D01*
X163811Y858578D01*
X167021Y856725D01*
X170602Y855765D01*
X174310D01*
X175352Y854965D01*
Y842264D01*
X175358Y842225D01*
X175050Y840678D01*
X174152Y839334D01*
X172808Y838436D01*
X171261Y838128D01*
X171222Y838133D01*
X27225D01*
Y838169D01*
X26616Y838290D01*
X26101Y838635D01*
X25756Y839151D01*
X25635Y839759D01*
X25599D01*
Y972176D01*
X26280Y972952D01*
X27056Y973633D01*
X55712D01*
X55755Y971619D01*
X55755D01*
X56148Y968635D01*
X57299Y965855D01*
X59131Y963467D01*
X61519Y961635D01*
X64300Y960483D01*
X67283Y960090D01*
X70267Y960483D01*
X73048Y961635D01*
X75435Y963467D01*
X76912D01*
X79299Y961635D01*
X82080Y960483D01*
X85063Y960090D01*
X88047Y960483D01*
X90828Y961635D01*
X93215Y963467D01*
X95048Y965855D01*
X96199Y968635D01*
X96592Y971619D01*
X96592D01*
X96635Y973633D01*
X187702D01*
X188211Y971601D01*
D02*
G37*
G36*
X902907Y953579D02*
X901811Y952946D01*
X900790Y951925D01*
X247266D01*
X246245Y952946D01*
X245148Y953579D01*
X245693Y955611D01*
X902363D01*
X902907Y953579D01*
D02*
G37*
G36*
X1447521Y5179D02*
X5179D01*
Y832250D01*
X7211Y832551D01*
X7503Y831590D01*
X9476Y827899D01*
X12130Y824665D01*
X15365Y822010D01*
X19056Y820037D01*
X23060Y818822D01*
X27225Y818412D01*
Y818455D01*
X171222D01*
Y818400D01*
X175877Y818859D01*
X180354Y820217D01*
X184480Y822422D01*
X188096Y825390D01*
X191064Y829006D01*
X193269Y833132D01*
X194627Y837608D01*
X195086Y842264D01*
X195031D01*
Y855020D01*
X196002Y855765D01*
X199710D01*
X203291Y856725D01*
X206501Y858578D01*
X209123Y861200D01*
X210849Y864190D01*
X211735Y864405D01*
X213076Y864397D01*
X214022Y862759D01*
X216170Y860611D01*
X218802Y859091D01*
X220716Y858578D01*
Y869845D01*
Y881112D01*
X218802Y880599D01*
X216170Y879079D01*
X214022Y876931D01*
X213076Y875293D01*
X211735Y875285D01*
X210849Y875500D01*
X209123Y878490D01*
X206501Y881112D01*
X205779Y881529D01*
Y883561D01*
X206501Y883978D01*
X209123Y886600D01*
X210849Y889590D01*
X211735Y889805D01*
X213076Y889797D01*
X214022Y888159D01*
X216170Y886011D01*
X218802Y884491D01*
X220716Y883979D01*
Y895245D01*
Y906512D01*
X218802Y905999D01*
X216170Y904479D01*
X214022Y902331D01*
X213076Y900693D01*
X211735Y900685D01*
X210849Y900900D01*
X209123Y903890D01*
X206501Y906512D01*
X203291Y908365D01*
X199710Y909325D01*
X196002D01*
X195285Y909875D01*
Y949436D01*
X195264Y949596D01*
X195706Y951819D01*
X197057Y953840D01*
X199077Y955190D01*
X201301Y955632D01*
X201461Y955611D01*
X234419D01*
X234963Y953579D01*
X233867Y952946D01*
X231990Y951069D01*
X230663Y948771D01*
X229976Y946207D01*
Y943553D01*
X230005Y943443D01*
X228642Y941597D01*
X227186Y941525D01*
X226687Y942024D01*
X224389Y943351D01*
X221825Y944038D01*
X219171D01*
X216607Y943351D01*
X214309Y942024D01*
X212432Y940147D01*
X211105Y937849D01*
X210418Y935285D01*
Y932631D01*
X211105Y930067D01*
X212432Y927769D01*
X214309Y925892D01*
X216607Y924565D01*
X219171Y923878D01*
X221825D01*
X224389Y924565D01*
X226687Y925892D01*
X227708Y926913D01*
X349579D01*
X350306Y924881D01*
X348548Y923438D01*
X346270Y920662D01*
X344577Y917495D01*
X343535Y914059D01*
X343183Y910485D01*
X343211D01*
Y907436D01*
X341611Y906512D01*
X338989Y903890D01*
X337263Y900900D01*
X336377Y900685D01*
X335036Y900693D01*
X334090Y902331D01*
X331942Y904479D01*
X329310Y905999D01*
X327396Y906511D01*
Y895245D01*
Y883979D01*
X329310Y884491D01*
X331942Y886011D01*
X334090Y888159D01*
X335036Y889797D01*
X336377Y889805D01*
X337263Y889590D01*
X338989Y886600D01*
X341611Y883978D01*
X342333Y883561D01*
Y881529D01*
X341611Y881112D01*
X338989Y878490D01*
X338428Y877518D01*
X336396Y878063D01*
Y881385D01*
X327396D01*
Y869845D01*
Y858305D01*
X336396D01*
Y861627D01*
X338428Y862172D01*
X338989Y861200D01*
X341611Y858578D01*
X344821Y856725D01*
X348402Y855765D01*
X352110D01*
X355691Y856725D01*
X358901Y858578D01*
X361523Y861200D01*
X361940Y861922D01*
X363972D01*
X364389Y861200D01*
X367011Y858578D01*
X370221Y856725D01*
X373802Y855765D01*
X377510D01*
X381091Y856725D01*
X384301Y858578D01*
X386923Y861200D01*
X388649Y864190D01*
X389535Y864405D01*
X390876Y864397D01*
X391822Y862759D01*
X393970Y860611D01*
X396602Y859091D01*
X398516Y858579D01*
Y869845D01*
Y881111D01*
X396602Y880599D01*
X393970Y879079D01*
X391822Y876931D01*
X390876Y875293D01*
X389535Y875285D01*
X388649Y875500D01*
X386923Y878490D01*
X384301Y881112D01*
X383579Y881529D01*
Y883561D01*
X384301Y883978D01*
X386923Y886600D01*
X388649Y889590D01*
X389535Y889805D01*
X390876Y889797D01*
X391822Y888159D01*
X393970Y886011D01*
X396602Y884491D01*
X398516Y883979D01*
Y895245D01*
X403596D01*
Y883979D01*
X405510Y884491D01*
X408142Y886011D01*
X410290Y888159D01*
X411236Y889797D01*
X412577Y889805D01*
X413463Y889590D01*
X415189Y886600D01*
X417811Y883978D01*
X418533Y883561D01*
Y881529D01*
X417811Y881112D01*
X415189Y878490D01*
X413463Y875500D01*
X412577Y875285D01*
X411236Y875293D01*
X410290Y876931D01*
X408142Y879079D01*
X405510Y880599D01*
X403596Y881112D01*
Y869845D01*
Y858578D01*
X405510Y859091D01*
X408142Y860611D01*
X410290Y862759D01*
X411236Y864397D01*
X412577Y864405D01*
X413463Y864190D01*
X415189Y861200D01*
X417811Y858578D01*
X421021Y856725D01*
X424602Y855765D01*
X428310D01*
X429317Y854992D01*
Y816715D01*
Y808910D01*
X420954D01*
Y808948D01*
X417970Y808555D01*
X415189Y807403D01*
X412802Y805571D01*
X410970Y803184D01*
X409818Y800403D01*
X409425Y797420D01*
X409818Y794436D01*
X410970Y791655D01*
X412802Y789268D01*
X415189Y787435D01*
X417970Y786284D01*
X420954Y785891D01*
Y785929D01*
X429317D01*
Y767343D01*
X429307D01*
X429079Y765607D01*
X428409Y763989D01*
X427343Y762600D01*
X425953Y761534D01*
X424336Y760864D01*
X422599Y760635D01*
Y760626D01*
X392631D01*
Y774981D01*
X392653D01*
X392324Y778317D01*
X391351Y781525D01*
X389771Y784482D01*
X387644Y787073D01*
X385053Y789200D01*
X382096Y790780D01*
X378888Y791753D01*
X375552Y792082D01*
X372216Y791753D01*
X369008Y790780D01*
X366052Y789200D01*
X363461Y787073D01*
X362397Y785777D01*
X359778Y785788D01*
X358688Y787116D01*
X356097Y789242D01*
X353140Y790823D01*
X349932Y791796D01*
X346596Y792124D01*
X343260Y791796D01*
X340052Y790823D01*
X337096Y789242D01*
X334505Y787116D01*
X333431Y785808D01*
X330805D01*
X329732Y787116D01*
X327141Y789242D01*
X324184Y790823D01*
X320976Y791796D01*
X317640Y792124D01*
X314304Y791796D01*
X311096Y790823D01*
X308140Y789242D01*
X305549Y787116D01*
X304475Y785808D01*
X301849D01*
X300776Y787116D01*
X298185Y789242D01*
X295228Y790823D01*
X292020Y791796D01*
X288684Y792124D01*
X285348Y791796D01*
X282140Y790823D01*
X279184Y789242D01*
X276593Y787116D01*
X275519Y785808D01*
X272893D01*
X271820Y787116D01*
X269229Y789242D01*
X266272Y790823D01*
X263064Y791796D01*
X259728Y792124D01*
X256392Y791796D01*
X253184Y790823D01*
X250228Y789242D01*
X247637Y787116D01*
X246563Y785808D01*
X243937D01*
X242864Y787116D01*
X240273Y789242D01*
X237316Y790823D01*
X234108Y791796D01*
X230772Y792124D01*
X227436Y791796D01*
X224228Y790823D01*
X221272Y789242D01*
X218681Y787116D01*
X217607Y785808D01*
X214981D01*
X213908Y787116D01*
X211317Y789242D01*
X208360Y790823D01*
X205152Y791796D01*
X201816Y792124D01*
X198480Y791796D01*
X195272Y790823D01*
X192316Y789242D01*
X189725Y787116D01*
X188651Y785808D01*
X186025D01*
X184952Y787116D01*
X182361Y789242D01*
X179404Y790823D01*
X176196Y791796D01*
X172860Y792124D01*
X169524Y791796D01*
X166316Y790823D01*
X163360Y789242D01*
X160769Y787116D01*
X158642Y784525D01*
X157062Y781568D01*
X156089Y778360D01*
X155760Y775024D01*
X155782D01*
Y760626D01*
X124874D01*
Y760661D01*
X120046Y760281D01*
X115337Y759150D01*
X110863Y757297D01*
X106734Y754767D01*
X103051Y751622D01*
X99906Y747939D01*
X97376Y743810D01*
X95522Y739336D01*
X94392Y734627D01*
X94012Y729799D01*
X94047D01*
Y720457D01*
X94030D01*
X94025Y720432D01*
X78756D01*
Y695072D01*
X99635D01*
Y692996D01*
X99636Y692983D01*
X99359Y690873D01*
X99122Y690302D01*
X96662Y689376D01*
X96330Y689568D01*
X93105Y690432D01*
X89767D01*
X86542Y689568D01*
X83650Y687898D01*
X81290Y685538D01*
X79620Y682646D01*
X78756Y679421D01*
Y676083D01*
X79620Y672858D01*
X81290Y669966D01*
X83650Y667606D01*
X86542Y665936D01*
X89767Y665072D01*
X93105D01*
X96330Y665936D01*
X99222Y667606D01*
X101582Y669966D01*
X103252Y672858D01*
X103642Y674315D01*
X103846Y674424D01*
X106724Y676786D01*
X108477Y676179D01*
X108801Y675913D01*
X109620Y672858D01*
X111290Y669966D01*
X113650Y667606D01*
X116542Y665936D01*
X119767Y665072D01*
X123105D01*
X126330Y665936D01*
X129222Y667606D01*
X131582Y669966D01*
X133252Y672858D01*
X134116Y676083D01*
Y679421D01*
X133845Y680433D01*
X135311Y682523D01*
X135930Y682647D01*
X136014Y682636D01*
X179083D01*
Y680136D01*
X179061D01*
X179389Y676800D01*
X180362Y673592D01*
X181943Y670636D01*
X184069Y668044D01*
X186661Y665918D01*
X189617Y664337D01*
X192825Y663364D01*
X196161Y663036D01*
X199497Y663364D01*
X202705Y664337D01*
X205662Y665918D01*
X208253Y668044D01*
X209326Y669352D01*
X211952D01*
X213025Y668044D01*
X215617Y665918D01*
X218573Y664337D01*
X221781Y663364D01*
X225117Y663036D01*
X228453Y663364D01*
X231661Y664337D01*
X234618Y665918D01*
X237209Y668044D01*
X238282Y669352D01*
X240908D01*
X241981Y668044D01*
X244573Y665918D01*
X247529Y664337D01*
X250737Y663364D01*
X254073Y663036D01*
X257409Y663364D01*
X260617Y664337D01*
X263573Y665918D01*
X266165Y668044D01*
X267238Y669352D01*
X269864D01*
X270937Y668044D01*
X273529Y665918D01*
X276485Y664337D01*
X279693Y663364D01*
X283029Y663036D01*
X286365Y663364D01*
X289573Y664337D01*
X292530Y665918D01*
X295121Y668044D01*
X296194Y669352D01*
X298820D01*
X299893Y668044D01*
X302485Y665918D01*
X305441Y664337D01*
X308649Y663364D01*
X311985Y663036D01*
X315321Y663364D01*
X318529Y664337D01*
X321485Y665918D01*
X324077Y668044D01*
X325150Y669352D01*
X327776D01*
X328849Y668044D01*
X331441Y665918D01*
X334397Y664337D01*
X337605Y663364D01*
X340941Y663036D01*
X344277Y663364D01*
X347485Y664337D01*
X350442Y665918D01*
X353033Y668044D01*
X354106Y669352D01*
X356732D01*
X357805Y668044D01*
X360397Y665918D01*
X363353Y664337D01*
X366561Y663364D01*
X369897Y663036D01*
X373233Y663364D01*
X376441Y664337D01*
X379398Y665918D01*
X381989Y668044D01*
X383062Y669352D01*
X385688D01*
X386761Y668044D01*
X389353Y665918D01*
X392309Y664337D01*
X395517Y663364D01*
X398853Y663036D01*
X402189Y663364D01*
X405397Y664337D01*
X408354Y665918D01*
X410945Y668044D01*
X413072Y670636D01*
X414652Y673592D01*
X415625Y676800D01*
X415953Y680136D01*
X415931D01*
Y682636D01*
X442974D01*
Y677848D01*
X442935D01*
X443328Y674864D01*
X444480Y672083D01*
X446312Y669696D01*
X448700Y667864D01*
X451480Y666712D01*
X454464Y666319D01*
X457448Y666712D01*
X460228Y667864D01*
X462616Y669696D01*
X464448Y672083D01*
X465600Y674864D01*
X465993Y677848D01*
X465954D01*
Y682636D01*
X531773D01*
Y682632D01*
X533033Y682381D01*
X534102Y681667D01*
X534817Y680598D01*
X535067Y679337D01*
X535071D01*
Y664799D01*
X534749Y664713D01*
X532451Y663386D01*
X530574Y661509D01*
X529247Y659211D01*
X528560Y656647D01*
Y653993D01*
X529247Y651429D01*
X530574Y649131D01*
X532451Y647254D01*
X534749Y645927D01*
X537313Y645240D01*
X539967D01*
X542531Y645927D01*
X544829Y647254D01*
X544910Y647335D01*
X544991Y647254D01*
X547289Y645927D01*
X549853Y645240D01*
X552507D01*
X555071Y645927D01*
X557369Y647254D01*
X559246Y649131D01*
X560573Y651429D01*
X561260Y653993D01*
Y656647D01*
X560573Y659211D01*
X559246Y661509D01*
X557369Y663386D01*
X555071Y664713D01*
X554749Y664799D01*
Y679337D01*
X554800D01*
X554357Y683830D01*
X553047Y688150D01*
X550919Y692131D01*
X548055Y695620D01*
X544566Y698484D01*
X540585Y700612D01*
X536265Y701922D01*
X531773Y702365D01*
Y702314D01*
X413331D01*
Y702336D01*
X409995Y702008D01*
X406787Y701034D01*
X403831Y699454D01*
X401239Y697328D01*
X400429Y696340D01*
X400189Y696225D01*
X397837Y696385D01*
X396467Y698054D01*
X393876Y700181D01*
X390919Y701761D01*
X387711Y702734D01*
X384375Y703063D01*
X381039Y702734D01*
X377831Y701761D01*
X374875Y700181D01*
X372283Y698054D01*
X371210Y696746D01*
X368584D01*
X367511Y698054D01*
X364920Y700181D01*
X361963Y701761D01*
X358755Y702734D01*
X355419Y703063D01*
X352083Y702734D01*
X348875Y701761D01*
X345919Y700181D01*
X343327Y698054D01*
X342254Y696746D01*
X339628D01*
X338555Y698054D01*
X335964Y700181D01*
X333007Y701761D01*
X329799Y702734D01*
X326463Y703063D01*
X323127Y702734D01*
X319919Y701761D01*
X316963Y700181D01*
X314371Y698054D01*
X313298Y696746D01*
X310672D01*
X309599Y698054D01*
X307008Y700181D01*
X304051Y701761D01*
X300843Y702734D01*
X297507Y703063D01*
X294171Y702734D01*
X290963Y701761D01*
X288007Y700181D01*
X285415Y698054D01*
X284342Y696746D01*
X281716D01*
X280643Y698054D01*
X278051Y700181D01*
X275095Y701761D01*
X271887Y702734D01*
X268551Y703063D01*
X265215Y702734D01*
X262007Y701761D01*
X259051Y700181D01*
X256459Y698054D01*
X255386Y696746D01*
X252760D01*
X251687Y698054D01*
X249095Y700181D01*
X246139Y701761D01*
X242931Y702734D01*
X239595Y703063D01*
X236259Y702734D01*
X233051Y701761D01*
X230095Y700181D01*
X227503Y698054D01*
X226430Y696746D01*
X223804D01*
X222731Y698054D01*
X222064Y698602D01*
X222270Y701061D01*
X223359Y701690D01*
X225236Y703567D01*
X226563Y705865D01*
X226649Y706187D01*
X503866D01*
Y706144D01*
X508035Y706555D01*
X512044Y707771D01*
X515739Y709746D01*
X518978Y712404D01*
X521636Y715642D01*
X523611Y719337D01*
X524827Y723347D01*
X525238Y727516D01*
X525195D01*
Y742361D01*
X525517Y742447D01*
X527815Y743774D01*
X529692Y745651D01*
X531019Y747949D01*
X531706Y750513D01*
Y753167D01*
X531019Y755731D01*
X529692Y758029D01*
X527815Y759906D01*
X525517Y761233D01*
X522953Y761920D01*
X520299D01*
X517735Y761233D01*
X515437Y759906D01*
X515356Y759825D01*
X515275Y759906D01*
X512977Y761233D01*
X510413Y761920D01*
X507759D01*
X505195Y761233D01*
X502897Y759906D01*
X501020Y758029D01*
X499693Y755731D01*
X499006Y753167D01*
Y750513D01*
X499693Y747949D01*
X501020Y745651D01*
X502897Y743774D01*
X505195Y742447D01*
X505517Y742361D01*
Y727516D01*
X505481D01*
X505358Y726898D01*
X505008Y726374D01*
X504484Y726024D01*
X503866Y725901D01*
Y725865D01*
X226649D01*
X226563Y726187D01*
X225236Y728485D01*
X223492Y730230D01*
X223419Y730441D01*
X223403Y730707D01*
X223636Y732549D01*
X225795Y733702D01*
X228386Y735829D01*
X229459Y737137D01*
X232085D01*
X233159Y735829D01*
X235750Y733702D01*
X238706Y732122D01*
X241914Y731149D01*
X245250Y730820D01*
X248586Y731149D01*
X251794Y732122D01*
X254751Y733702D01*
X257342Y735829D01*
X258415Y737137D01*
X261041D01*
X262115Y735829D01*
X264706Y733702D01*
X267662Y732122D01*
X270870Y731149D01*
X274206Y730820D01*
X277542Y731149D01*
X280750Y732122D01*
X283707Y733702D01*
X286298Y735829D01*
X287371Y737137D01*
X289997D01*
X291071Y735829D01*
X293662Y733702D01*
X296618Y732122D01*
X299826Y731149D01*
X303162Y730820D01*
X306498Y731149D01*
X309706Y732122D01*
X312663Y733702D01*
X315254Y735829D01*
X316327Y737137D01*
X318953D01*
X320027Y735829D01*
X322618Y733702D01*
X325574Y732122D01*
X328782Y731149D01*
X332118Y730820D01*
X335454Y731149D01*
X338662Y732122D01*
X341619Y733702D01*
X344210Y735829D01*
X345283Y737137D01*
X347909D01*
X348983Y735829D01*
X351574Y733702D01*
X354530Y732122D01*
X357738Y731149D01*
X361074Y730820D01*
X364410Y731149D01*
X367618Y732122D01*
X370575Y733702D01*
X373166Y735829D01*
X375293Y738420D01*
X376873Y741377D01*
X377554Y743621D01*
X379746Y744451D01*
X380530Y743807D01*
X383486Y742227D01*
X386694Y741254D01*
X390030Y740925D01*
Y740947D01*
X422599D01*
Y740926D01*
X426732Y741252D01*
X430763Y742219D01*
X434593Y743806D01*
X438127Y745972D01*
X441279Y748664D01*
X443971Y751816D01*
X446137Y755350D01*
X447723Y759180D01*
X448691Y763211D01*
X449016Y767343D01*
X448995D01*
Y854992D01*
X450002Y855765D01*
X453710D01*
X457291Y856725D01*
X460501Y858578D01*
X463123Y861200D01*
X464849Y864190D01*
X465735Y864405D01*
X467076Y864397D01*
X468022Y862759D01*
X470170Y860611D01*
X472802Y859091D01*
X474716Y858579D01*
Y869845D01*
Y881111D01*
X472802Y880599D01*
X470170Y879079D01*
X468022Y876931D01*
X467076Y875293D01*
X465735Y875285D01*
X464849Y875500D01*
X463123Y878490D01*
X460501Y881112D01*
X459779Y881529D01*
Y883561D01*
X460501Y883978D01*
X463123Y886600D01*
X464849Y889590D01*
X465735Y889805D01*
X467076Y889797D01*
X468022Y888159D01*
X470170Y886011D01*
X472802Y884491D01*
X474716Y883979D01*
Y895245D01*
X479796D01*
Y883979D01*
X481710Y884491D01*
X484342Y886011D01*
X486490Y888159D01*
X487435Y889797D01*
X488777Y889805D01*
X489663Y889590D01*
X491389Y886600D01*
X494011Y883978D01*
X494733Y883561D01*
Y881529D01*
X494011Y881112D01*
X491389Y878490D01*
X489663Y875500D01*
X488777Y875285D01*
X487435Y875293D01*
X486490Y876931D01*
X484342Y879079D01*
X481710Y880599D01*
X479796Y881112D01*
Y869845D01*
Y858578D01*
X481710Y859091D01*
X484342Y860611D01*
X486490Y862759D01*
X487435Y864397D01*
X488777Y864405D01*
X489663Y864190D01*
X491389Y861200D01*
X494011Y858578D01*
X497221Y856725D01*
X500802Y855765D01*
X504510D01*
X508091Y856725D01*
X511301Y858578D01*
X513923Y861200D01*
X514340Y861922D01*
X516372D01*
X516789Y861200D01*
X519411Y858578D01*
X522621Y856725D01*
X526202Y855765D01*
X529910D01*
X533491Y856725D01*
X536701Y858578D01*
X539323Y861200D01*
X541049Y864190D01*
X541935Y864405D01*
X543276Y864397D01*
X544222Y862759D01*
X546370Y860611D01*
X549002Y859091D01*
X550916Y858579D01*
Y869845D01*
Y881111D01*
X549002Y880599D01*
X546370Y879079D01*
X544222Y876931D01*
X543276Y875293D01*
X541935Y875285D01*
X541049Y875500D01*
X539323Y878490D01*
X536701Y881112D01*
X535979Y881529D01*
Y883561D01*
X536701Y883978D01*
X539323Y886600D01*
X541049Y889590D01*
X541935Y889805D01*
X543276Y889797D01*
X544222Y888159D01*
X546370Y886011D01*
X549002Y884491D01*
X550916Y883978D01*
Y895245D01*
X553456D01*
Y897785D01*
X564723D01*
X564210Y899699D01*
X562690Y902331D01*
X560732Y904289D01*
X560840Y905108D01*
X561415Y906321D01*
X633435D01*
X633484Y906328D01*
X635090Y906009D01*
X636493Y905071D01*
X637430Y903668D01*
X637749Y902063D01*
X637743Y902013D01*
Y851442D01*
X635920Y850543D01*
X635684Y850724D01*
X632904Y851876D01*
X629920Y852269D01*
X493656D01*
X490672Y851876D01*
X487892Y850724D01*
X485504Y848892D01*
X483672Y846504D01*
X482520Y843724D01*
X482127Y840740D01*
X482520Y837756D01*
X483672Y834976D01*
X485504Y832588D01*
X487892Y830756D01*
X490672Y829604D01*
X493656Y829211D01*
X629920D01*
X632904Y829604D01*
X635684Y830756D01*
X635920Y830937D01*
X637743Y830038D01*
Y575437D01*
X637689D01*
X638145Y569639D01*
X639503Y563984D01*
X641728Y558611D01*
X644767Y553653D01*
X648544Y549231D01*
X652966Y545454D01*
X657925Y542415D01*
X663298Y540190D01*
X668953Y538832D01*
X674750Y538376D01*
Y538429D01*
X1311786D01*
Y538404D01*
X1316162Y538748D01*
X1320430Y539773D01*
X1324486Y541453D01*
X1328229Y543746D01*
X1331567Y546597D01*
X1334418Y549935D01*
X1336711Y553678D01*
X1338391Y557733D01*
X1339416Y562002D01*
X1339760Y566378D01*
X1339734D01*
Y873175D01*
X1339784D01*
X1339344Y877646D01*
X1338040Y881946D01*
X1335921Y885909D01*
X1333071Y889382D01*
X1329598Y892233D01*
X1325635Y894351D01*
X1321335Y895655D01*
X1316864Y896095D01*
Y896045D01*
X1137920D01*
Y896093D01*
X1133563Y895663D01*
X1129374Y894393D01*
X1125513Y892329D01*
X1122129Y889551D01*
X1119351Y886167D01*
X1117287Y882306D01*
X1116017Y878117D01*
X1115587Y873760D01*
X1115635D01*
Y867055D01*
X1115569Y867017D01*
X1113133Y864581D01*
X1111411Y861599D01*
X1110520Y858272D01*
Y854828D01*
X1111411Y851501D01*
X1113133Y848519D01*
X1115569Y846083D01*
X1118551Y844361D01*
X1121878Y843470D01*
X1125322D01*
X1128649Y844361D01*
X1131631Y846083D01*
X1133888Y848340D01*
X1134664Y848244D01*
X1135920Y847665D01*
Y843470D01*
X1162080D01*
Y869630D01*
X1135920D01*
Y865435D01*
X1134664Y864856D01*
X1133888Y864760D01*
X1131631Y867017D01*
X1129725Y868117D01*
Y873760D01*
X1129724Y873773D01*
X1130001Y875882D01*
X1130820Y877859D01*
X1132123Y879557D01*
X1133821Y880860D01*
X1135798Y881679D01*
X1137907Y881956D01*
X1137920Y881955D01*
X1316864D01*
X1316896Y881959D01*
X1319138Y881664D01*
X1321258Y880786D01*
X1323078Y879389D01*
X1324475Y877569D01*
X1325353Y875449D01*
X1325648Y873207D01*
X1325644Y873175D01*
Y837937D01*
X1323807Y837068D01*
X1323433Y837375D01*
X1320013Y839203D01*
X1316303Y840328D01*
X1312444Y840708D01*
Y840673D01*
X1112012D01*
X1111849Y840652D01*
X1108697Y841067D01*
X1105607Y842347D01*
X1102954Y844382D01*
X1100919Y847035D01*
X1099639Y850125D01*
X1099224Y853277D01*
X1099245Y853440D01*
Y912270D01*
X1100266Y913291D01*
X1101593Y915589D01*
X1102280Y918153D01*
Y920807D01*
X1101593Y923371D01*
X1100266Y925669D01*
X1098389Y927546D01*
X1096091Y928873D01*
X1093527Y929560D01*
X1090873D01*
X1088309Y928873D01*
X1086011Y927546D01*
X1084134Y925669D01*
X1082807Y923371D01*
X1082120Y920807D01*
Y918153D01*
X1082807Y915589D01*
X1084134Y913291D01*
X1085155Y912270D01*
Y853440D01*
X1085132D01*
X1085463Y849235D01*
X1086448Y845134D01*
X1088062Y841237D01*
X1090266Y837640D01*
X1093005Y834433D01*
X1096212Y831694D01*
X1099809Y829490D01*
X1103706Y827876D01*
X1107807Y826891D01*
X1112012Y826560D01*
Y826583D01*
X1236641D01*
X1237395Y824551D01*
X1235966Y823122D01*
X1234578Y820718D01*
X1233860Y818038D01*
Y815262D01*
X1234578Y812582D01*
X1235966Y810178D01*
X1237928Y808216D01*
X1240332Y806828D01*
X1243012Y806110D01*
X1245788D01*
X1248468Y806828D01*
X1250872Y808216D01*
X1252834Y810178D01*
X1254222Y812582D01*
X1254940Y815262D01*
Y818038D01*
X1254222Y820718D01*
X1252834Y823122D01*
X1251405Y824551D01*
X1252159Y826583D01*
X1312444D01*
X1312573Y826600D01*
X1314624Y826192D01*
X1316472Y824957D01*
X1317708Y823108D01*
X1318116Y821057D01*
X1318098Y820928D01*
Y569468D01*
X1318102Y569443D01*
X1317813Y567251D01*
X1316957Y565185D01*
X1315596Y563411D01*
X1313822Y562049D01*
X1311756Y561193D01*
X1309563Y560905D01*
X1309539Y560908D01*
X994677D01*
X994415Y561092D01*
X993814Y561910D01*
X993408Y562940D01*
X993532Y563241D01*
X993559Y563287D01*
X993572Y563338D01*
X994064Y564525D01*
X994232Y565799D01*
X994246Y565851D01*
Y565904D01*
X994413Y567178D01*
Y732114D01*
X994610Y732848D01*
Y735502D01*
X993923Y738065D01*
X993496Y738804D01*
Y740841D01*
X1037464D01*
X1038437Y740216D01*
X1039063Y739242D01*
Y726723D01*
X1038637Y725985D01*
X1037950Y723421D01*
Y720767D01*
X1038637Y718203D01*
X1039964Y715905D01*
X1041841Y714028D01*
X1044139Y712701D01*
X1046703Y712014D01*
X1049357D01*
X1051920Y712701D01*
X1054219Y714028D01*
X1056096Y715905D01*
X1057423Y718203D01*
X1058110Y720767D01*
Y723421D01*
X1057423Y725985D01*
X1056997Y726723D01*
Y739813D01*
X1057011D01*
X1056647Y743515D01*
X1055567Y747075D01*
X1053813Y750356D01*
X1051664Y752974D01*
X1051783Y754193D01*
X1052156Y755283D01*
X1054219Y756474D01*
X1054599Y756854D01*
X1091144D01*
Y678175D01*
X1091130D01*
X1090943Y677236D01*
X1090411Y676439D01*
X1089614Y675907D01*
X1088674Y675720D01*
Y675706D01*
X1079999D01*
X1079619Y676086D01*
X1077320Y677413D01*
X1074757Y678100D01*
X1072103D01*
X1069539Y677413D01*
X1067241Y676086D01*
X1065364Y674209D01*
X1064037Y671911D01*
X1063350Y669347D01*
Y666693D01*
X1064037Y664129D01*
X1065364Y661831D01*
X1067241Y659954D01*
X1069539Y658627D01*
X1072103Y657940D01*
X1074757D01*
X1077320Y658627D01*
X1079619Y659954D01*
X1079999Y660334D01*
X1088674D01*
Y660314D01*
X1092159Y660657D01*
X1095510Y661674D01*
X1098598Y663324D01*
X1101304Y665546D01*
X1103526Y668252D01*
X1105176Y671340D01*
X1106193Y674691D01*
X1106536Y678175D01*
X1106516D01*
Y757971D01*
X1106896Y758351D01*
X1108223Y760649D01*
X1108910Y763213D01*
Y765867D01*
X1108223Y768431D01*
X1106896Y770729D01*
X1105019Y772606D01*
X1103795Y773313D01*
Y775659D01*
X1105019Y776366D01*
X1106896Y778243D01*
X1108223Y780541D01*
X1108910Y783105D01*
Y785759D01*
X1108223Y788323D01*
X1106896Y790621D01*
X1106815Y790702D01*
X1106896Y790783D01*
X1108223Y793081D01*
X1108910Y795645D01*
Y798299D01*
X1108223Y800863D01*
X1106896Y803161D01*
X1105019Y805038D01*
X1102720Y806365D01*
X1100157Y807052D01*
X1097503D01*
X1094939Y806365D01*
X1092641Y805038D01*
X1090764Y803161D01*
X1089437Y800863D01*
X1089351Y800541D01*
X1071659D01*
Y800566D01*
X1070819Y800733D01*
X1070107Y801209D01*
X1069631Y801921D01*
X1069464Y802761D01*
X1069440D01*
X1069440Y802761D01*
X1069440Y966788D01*
X1069461D01*
X1069134Y970941D01*
X1068162Y974991D01*
X1066568Y978839D01*
X1064392Y982391D01*
X1061686Y985558D01*
X1058519Y988263D01*
X1054967Y990440D01*
X1051119Y992034D01*
X1047976Y992789D01*
X1048216Y994821D01*
X1447521D01*
Y5179D01*
D02*
G37*
G36*
X1042916Y973625D02*
X1044686Y973392D01*
X1046335Y972709D01*
X1047750Y971622D01*
X1048837Y970207D01*
X1049520Y968558D01*
X1049753Y966788D01*
X1049761D01*
X1049761Y804793D01*
X1049716Y802761D01*
X1049716D01*
X1050137Y798480D01*
X1051386Y794363D01*
X1053414Y790570D01*
X1056143Y787244D01*
X1059468Y784516D01*
X1063262Y782488D01*
X1067378Y781239D01*
X1071659Y780817D01*
Y780863D01*
X1089351D01*
X1089437Y780541D01*
X1090764Y778243D01*
X1092641Y776366D01*
X1093865Y775659D01*
Y773313D01*
X1092641Y772606D01*
X1092260Y772226D01*
X1054599D01*
X1054219Y772606D01*
X1051920Y773933D01*
X1049357Y774620D01*
X1046703D01*
X1044139Y773933D01*
X1041841Y772606D01*
X1039964Y770729D01*
X1038637Y768431D01*
X1037950Y765867D01*
Y763213D01*
X1038637Y760649D01*
X1038707Y760528D01*
X1037373Y758775D01*
X993236D01*
Y758783D01*
X989787Y758443D01*
X986470Y757437D01*
X983413Y755803D01*
X980733Y753604D01*
X978534Y750925D01*
X976901Y747868D01*
X975894Y744551D01*
X975555Y741102D01*
X975555D01*
X975433Y739120D01*
X975291Y738934D01*
X974267Y736463D01*
X973918Y733811D01*
Y577425D01*
X890795D01*
X890068Y579457D01*
X892146Y581163D01*
X894732Y584314D01*
X896654Y587910D01*
X897837Y591811D01*
X898237Y595868D01*
X898197D01*
Y645868D01*
X898258D01*
X897774Y650783D01*
X896340Y655509D01*
X894012Y659865D01*
X890879Y663683D01*
X887061Y666816D01*
X882705Y669145D01*
X877979Y670578D01*
X873064Y671062D01*
Y671001D01*
X828160D01*
Y671027D01*
X827342Y671190D01*
X826647Y671654D01*
X826184Y672348D01*
X826021Y673166D01*
X825995D01*
Y690053D01*
X828027Y691291D01*
X830120Y690730D01*
X833180D01*
X836135Y691522D01*
X838785Y693052D01*
X840948Y695215D01*
X842478Y697865D01*
X843270Y700820D01*
Y703880D01*
X842478Y706835D01*
X840948Y709485D01*
X838785Y711648D01*
X837547Y712363D01*
X837589Y714685D01*
X841157Y716576D01*
X842820Y716130D01*
X845880D01*
X848835Y716922D01*
X851485Y718452D01*
X853648Y720615D01*
X855178Y723265D01*
X855970Y726220D01*
Y729280D01*
X855178Y732235D01*
X853648Y734885D01*
X851485Y737048D01*
X848835Y738578D01*
X845880Y739370D01*
X842820D01*
X839865Y738578D01*
X837215Y737048D01*
X835052Y734885D01*
X833522Y732235D01*
X832886Y729861D01*
X832510Y729634D01*
X830233Y730538D01*
X829778Y732235D01*
X828248Y734885D01*
X826085Y737048D01*
X823435Y738578D01*
X820480Y739370D01*
X817420D01*
X814465Y738578D01*
X811815Y737048D01*
X809652Y734885D01*
X808122Y732235D01*
X807330Y729280D01*
Y726220D01*
X808122Y723265D01*
X809652Y720615D01*
X811815Y718452D01*
X814465Y716922D01*
X815673Y716598D01*
X816426Y714711D01*
X815199Y712708D01*
X815009Y712487D01*
X812704Y712041D01*
X810735Y713178D01*
X807780Y713970D01*
X804720D01*
X801765Y713178D01*
X799115Y711648D01*
X796952Y709485D01*
X795422Y706835D01*
X794630Y703880D01*
Y700820D01*
X795422Y697865D01*
X796952Y695215D01*
X799115Y693052D01*
X801765Y691522D01*
X804720Y690730D01*
X806317D01*
Y673166D01*
X806272D01*
X806692Y668896D01*
X807938Y664790D01*
X809960Y661006D01*
X812683Y657689D01*
X816000Y654967D01*
X819784Y652944D01*
X823890Y651698D01*
X828160Y651278D01*
Y651323D01*
X873064D01*
X873181Y651338D01*
X875166Y650943D01*
X876948Y649753D01*
X878139Y647970D01*
X878534Y645985D01*
X878519Y645868D01*
Y638517D01*
X868167D01*
Y638556D01*
X865183Y638163D01*
X862402Y637011D01*
X860015Y635179D01*
X858183Y632791D01*
X857031Y630011D01*
X856638Y627027D01*
X857031Y624043D01*
X858183Y621263D01*
X860015Y618875D01*
X862402Y617043D01*
X865183Y615891D01*
X868167Y615498D01*
Y615537D01*
X878519D01*
Y609643D01*
Y596349D01*
X877881Y595428D01*
X876960Y594790D01*
X859406D01*
X858564Y596822D01*
X858988Y597246D01*
X860315Y599545D01*
X861002Y602108D01*
Y604762D01*
X860315Y607326D01*
X858988Y609625D01*
X857111Y611502D01*
X854812Y612828D01*
X852249Y613516D01*
X849595D01*
X847031Y612828D01*
X844733Y611502D01*
X843889Y610658D01*
X843046Y611502D01*
X840748Y612828D01*
X838184Y613516D01*
X835530D01*
X832966Y612828D01*
X830668Y611502D01*
X828791Y609625D01*
X827784Y607881D01*
X827189Y607711D01*
X826118D01*
X825523Y607881D01*
X824516Y609625D01*
X822639Y611502D01*
X820341Y612828D01*
X817777Y613516D01*
X815123D01*
X812559Y612828D01*
X810261Y611502D01*
X808384Y609625D01*
X807057Y607326D01*
X806370Y604762D01*
Y602108D01*
X807057Y599545D01*
X808384Y597246D01*
X808764Y596866D01*
Y588872D01*
X700300D01*
Y588923D01*
X700206Y588963D01*
X700167Y589057D01*
X700116D01*
Y611799D01*
X700496Y612179D01*
X701823Y614477D01*
X702510Y617041D01*
Y619695D01*
X701823Y622259D01*
X700496Y624557D01*
X698619Y626434D01*
X696320Y627761D01*
X693757Y628448D01*
X691103D01*
X688539Y627761D01*
X686241Y626434D01*
X684364Y624557D01*
X683037Y622259D01*
X682350Y619695D01*
Y617041D01*
X683037Y614477D01*
X684364Y612179D01*
X684744Y611799D01*
Y589057D01*
X684735D01*
X685034Y586020D01*
X685920Y583100D01*
X687358Y580409D01*
X688139Y579457D01*
X687178Y577425D01*
X680238D01*
X680184Y577418D01*
X679098Y577634D01*
X678132Y578280D01*
X677486Y579246D01*
X677270Y580331D01*
X677278Y580386D01*
Y722094D01*
X677110Y723368D01*
Y723421D01*
X677096Y723473D01*
X676928Y724746D01*
X676437Y725933D01*
X676423Y725985D01*
X676396Y726031D01*
X675905Y727218D01*
X675122Y728237D01*
X675096Y728283D01*
X675058Y728321D01*
X674276Y729340D01*
X673257Y730122D01*
X673219Y730160D01*
X673173Y730187D01*
X672154Y730969D01*
X670967Y731460D01*
X670920Y731487D01*
X670869Y731501D01*
X669682Y731992D01*
X668408Y732160D01*
X668357Y732174D01*
X668304D01*
X667030Y732342D01*
X665756Y732174D01*
X665703D01*
X665651Y732160D01*
X664378Y731992D01*
X663190Y731501D01*
X663139Y731487D01*
X663093Y731460D01*
X663009Y731426D01*
X660977Y732695D01*
Y754363D01*
X662737Y755379D01*
X663139Y755147D01*
X665703Y754460D01*
X668357D01*
X670920Y755147D01*
X673219Y756474D01*
X673599Y756854D01*
X710144D01*
Y678175D01*
X710130D01*
X709943Y677236D01*
X709411Y676439D01*
X708614Y675907D01*
X707674Y675720D01*
Y675706D01*
X698999D01*
X698619Y676086D01*
X696320Y677413D01*
X693757Y678100D01*
X691103D01*
X688539Y677413D01*
X686241Y676086D01*
X684364Y674209D01*
X683037Y671911D01*
X682350Y669347D01*
Y666693D01*
X683037Y664129D01*
X684364Y661831D01*
X686241Y659954D01*
X688539Y658627D01*
X691103Y657940D01*
X693757D01*
X696320Y658627D01*
X698619Y659954D01*
X698999Y660334D01*
X707674D01*
Y660314D01*
X711159Y660657D01*
X714510Y661674D01*
X717598Y663324D01*
X720304Y665546D01*
X722526Y668252D01*
X724176Y671340D01*
X725193Y674691D01*
X725536Y678175D01*
X725516D01*
Y757971D01*
X725896Y758351D01*
X727223Y760649D01*
X727910Y763213D01*
Y765867D01*
X727223Y768431D01*
X725896Y770729D01*
X724019Y772606D01*
X721721Y773933D01*
X719157Y774620D01*
X716503D01*
X713939Y773933D01*
X711641Y772606D01*
X711260Y772226D01*
X709064D01*
X708397Y773380D01*
X708135Y774258D01*
X708761Y776595D01*
Y779249D01*
X708074Y781813D01*
X706747Y784111D01*
X704870Y785988D01*
X702572Y787315D01*
X702250Y787401D01*
Y789490D01*
X874387D01*
X874473Y789168D01*
X875800Y786870D01*
X877677Y784993D01*
X879975Y783666D01*
X882539Y782979D01*
X885193D01*
X887757Y783666D01*
X890055Y784993D01*
X891932Y786870D01*
X893259Y789168D01*
X893946Y791732D01*
Y794386D01*
X893259Y796950D01*
X891932Y799248D01*
X891851Y799329D01*
X891932Y799410D01*
X893259Y801708D01*
X893946Y804272D01*
Y806926D01*
X893259Y809490D01*
X891932Y811788D01*
X890055Y813665D01*
X887757Y814992D01*
X885193Y815679D01*
X882539D01*
X879975Y814992D01*
X877677Y813665D01*
X875800Y811788D01*
X875115Y810603D01*
X874426D01*
X873222Y812582D01*
X873940Y815262D01*
Y818038D01*
X873222Y820718D01*
X871834Y823122D01*
X869872Y825084D01*
X867468Y826472D01*
X864788Y827190D01*
X862012D01*
X859332Y826472D01*
X856928Y825084D01*
X854966Y823122D01*
X853578Y820718D01*
X852860Y818038D01*
Y815262D01*
X853578Y812582D01*
X854376Y811200D01*
X853203Y809168D01*
X700300D01*
Y809193D01*
X696836Y808852D01*
X693506Y807842D01*
X690437Y806201D01*
X687746Y803994D01*
X685538Y801303D01*
X683898Y798234D01*
X682888Y794903D01*
X682546Y791440D01*
X682572D01*
Y787401D01*
X682250Y787315D01*
X679952Y785988D01*
X678075Y784111D01*
X676748Y781813D01*
X676061Y779249D01*
Y776595D01*
X676687Y774258D01*
X676425Y773380D01*
X675758Y772226D01*
X673599D01*
X673219Y772606D01*
X670920Y773933D01*
X668357Y774620D01*
X665703D01*
X663139Y773933D01*
X662737Y773701D01*
X660977Y774717D01*
Y903177D01*
X661041D01*
X660548Y908183D01*
X659087Y912997D01*
X656716Y917433D01*
X653525Y921322D01*
X649636Y924513D01*
X648949Y924881D01*
X649458Y926913D01*
X752523D01*
X752927Y924881D01*
X749984Y923662D01*
X746443Y921492D01*
X743285Y918795D01*
X740588Y915637D01*
X738418Y912096D01*
X736829Y908259D01*
X735859Y904220D01*
X735533Y900080D01*
X735555D01*
Y872529D01*
X735240Y872158D01*
X734835Y871846D01*
X733778Y871418D01*
X733523Y871413D01*
X733232Y871489D01*
X733137Y871553D01*
X732880Y871604D01*
X732409Y871800D01*
X732166Y871848D01*
X731873D01*
X731716Y871889D01*
X731556Y871868D01*
X731155Y871947D01*
X718651D01*
X718151Y871848D01*
X717641D01*
X716660Y871653D01*
X716188Y871458D01*
X715688Y871358D01*
X714390Y870820D01*
X713966Y870537D01*
X713494Y870342D01*
X712663Y869786D01*
X712302Y869425D01*
X711878Y869142D01*
X710884Y868148D01*
X710601Y867724D01*
X710240Y867363D01*
X709684Y866532D01*
X709489Y866060D01*
X709205Y865636D01*
X708668Y864338D01*
X708568Y863837D01*
X708373Y863366D01*
X708178Y862385D01*
X708178Y861875D01*
X708078Y861375D01*
Y860672D01*
X708078Y860672D01*
Y840543D01*
X708473Y838561D01*
X708473Y838561D01*
X709401Y836321D01*
X710523Y834640D01*
X712238Y832925D01*
X713919Y831803D01*
X716159Y830875D01*
X718141Y830480D01*
X885653D01*
X886391Y830452D01*
X886895Y830531D01*
X887405Y830511D01*
X889065Y830774D01*
X889543Y830951D01*
X890047Y831031D01*
X891624Y831612D01*
X892059Y831879D01*
X892537Y832056D01*
X893970Y832934D01*
X894345Y833280D01*
X894780Y833547D01*
X896013Y834687D01*
X896313Y835100D01*
X896688Y835446D01*
X897676Y836806D01*
X897889Y837269D01*
X898189Y837682D01*
X898893Y839208D01*
X899012Y839704D01*
X899225Y840167D01*
X899617Y841802D01*
X899637Y842311D01*
X899756Y842807D01*
X899789Y843647D01*
X899773Y843749D01*
X899793Y843850D01*
Y844277D01*
X901825Y845450D01*
X903098Y844715D01*
X906328Y843850D01*
X909672D01*
X912902Y844715D01*
X915798Y846387D01*
X918162Y848752D01*
X919834Y851648D01*
X920700Y854878D01*
Y858222D01*
X919834Y861452D01*
X918162Y864348D01*
X915798Y866712D01*
X915045Y867147D01*
Y920800D01*
X915082D01*
X914694Y924749D01*
X913542Y928546D01*
X911671Y932045D01*
X910585Y933369D01*
X911206Y935304D01*
X911891Y935487D01*
X914189Y936814D01*
X916066Y938691D01*
X917393Y940989D01*
X918080Y943553D01*
Y946207D01*
X917393Y948771D01*
X916066Y951069D01*
X914189Y952946D01*
X913092Y953579D01*
X913637Y955611D01*
X934227D01*
X935965Y954901D01*
X936358Y951917D01*
X937509Y949137D01*
X939342Y946749D01*
X941729Y944917D01*
X944510Y943765D01*
X947494Y943373D01*
X950477Y943765D01*
X953258Y944917D01*
X955646Y946749D01*
X957478Y949137D01*
X958629Y951917D01*
X959022Y954901D01*
X960760Y955611D01*
X1023684D01*
Y955579D01*
X1024377Y955442D01*
X1024964Y955049D01*
X1025356Y954462D01*
X1025494Y953770D01*
X1025526D01*
Y933917D01*
X1025468Y931909D01*
X1025461Y931906D01*
X1025458Y931899D01*
X1023450Y931841D01*
X970598D01*
Y931863D01*
X967262Y931535D01*
X964054Y930562D01*
X961098Y928981D01*
X958506Y926855D01*
X956380Y924264D01*
X954799Y921307D01*
X953826Y918099D01*
X953498Y914763D01*
X953826Y911427D01*
X954799Y908219D01*
X956380Y905263D01*
X958506Y902671D01*
X959814Y901598D01*
Y898972D01*
X958506Y897899D01*
X956380Y895307D01*
X954799Y892351D01*
X953826Y889143D01*
X953498Y885807D01*
X953826Y882471D01*
X954799Y879263D01*
X956380Y876307D01*
X958506Y873715D01*
X959814Y872642D01*
Y870016D01*
X958506Y868943D01*
X956380Y866351D01*
X954799Y863395D01*
X953826Y860187D01*
X953498Y856851D01*
X953826Y853515D01*
X954799Y850307D01*
X956380Y847351D01*
X958506Y844759D01*
X960923Y842776D01*
X961261Y842091D01*
X961413Y840549D01*
X960728Y839987D01*
X958602Y837395D01*
X957021Y834439D01*
X956048Y831231D01*
X955720Y827895D01*
X956048Y824559D01*
X957021Y821351D01*
X958602Y818395D01*
X960728Y815803D01*
X963320Y813677D01*
X966276Y812096D01*
X969484Y811123D01*
X972820Y810795D01*
Y810817D01*
X1002587D01*
X1003456Y808980D01*
X1003012Y808439D01*
X1001432Y805483D01*
X1000459Y802275D01*
X1000131Y798939D01*
X1000153D01*
Y787227D01*
X999831Y787141D01*
X997533Y785814D01*
X995656Y783937D01*
X994329Y781639D01*
X993642Y779075D01*
Y776421D01*
X994329Y773857D01*
X995656Y771559D01*
X997533Y769682D01*
X999831Y768355D01*
X1002395Y767668D01*
X1005049D01*
X1007613Y768355D01*
X1009911Y769682D01*
X1009992Y769763D01*
X1010073Y769682D01*
X1012371Y768355D01*
X1014935Y767668D01*
X1017589D01*
X1020153Y768355D01*
X1022451Y769682D01*
X1024328Y771559D01*
X1025655Y773857D01*
X1026342Y776421D01*
Y779075D01*
X1025655Y781639D01*
X1024328Y783937D01*
X1022451Y785814D01*
X1020153Y787141D01*
X1019831Y787227D01*
Y796339D01*
X1028153D01*
Y796317D01*
X1031489Y796645D01*
X1034697Y797618D01*
X1037653Y799199D01*
X1040245Y801325D01*
X1042371Y803917D01*
X1043952Y806873D01*
X1044925Y810081D01*
X1045253Y813417D01*
X1044925Y816753D01*
X1043952Y819961D01*
X1042371Y822917D01*
X1040245Y825509D01*
X1038937Y826582D01*
Y829208D01*
X1040245Y830281D01*
X1042371Y832873D01*
X1043952Y835829D01*
X1044925Y839037D01*
X1045253Y842373D01*
X1044925Y845709D01*
X1043952Y848917D01*
X1042371Y851873D01*
X1040245Y854465D01*
X1038937Y855538D01*
Y858164D01*
X1040245Y859237D01*
X1042371Y861829D01*
X1043952Y864785D01*
X1044925Y867993D01*
X1045253Y871329D01*
X1044925Y874665D01*
X1043952Y877873D01*
X1042371Y880829D01*
X1040245Y883421D01*
X1038937Y884494D01*
Y887120D01*
X1040245Y888193D01*
X1042371Y890785D01*
X1043952Y893741D01*
X1044925Y896949D01*
X1045253Y900285D01*
X1044925Y903621D01*
X1043952Y906829D01*
X1042371Y909786D01*
X1040245Y912377D01*
X1038558Y913761D01*
X1038392Y916096D01*
X1038510Y916350D01*
X1039887Y917480D01*
X1042156Y920246D01*
X1043843Y923400D01*
X1044881Y926824D01*
X1045232Y930384D01*
X1045204D01*
Y953770D01*
X1045248D01*
X1044833Y957977D01*
X1043606Y962022D01*
X1041614Y965750D01*
X1038932Y969018D01*
X1035784Y971601D01*
X1035782Y971753D01*
X1037121Y973633D01*
X1042916D01*
Y973625D01*
D02*
G37*
G36*
X897201Y926495D02*
X899201Y925159D01*
X900537Y923159D01*
X900975Y920956D01*
X900955Y920800D01*
Y867147D01*
X900202Y866712D01*
X897837Y864348D01*
X896420Y861893D01*
X895467Y861681D01*
X895133D01*
X894180Y861893D01*
X892762Y864348D01*
X890398Y866712D01*
X887502Y868384D01*
X884272Y869250D01*
X880928D01*
X880451Y869122D01*
X880323Y869314D01*
X880023Y869921D01*
X879766Y870146D01*
X879576Y870431D01*
X879013Y870807D01*
X878504Y871254D01*
X878180Y871363D01*
X877896Y871553D01*
X877231Y871685D01*
X876590Y871903D01*
X876249Y871881D01*
X875914Y871947D01*
X778540Y871947D01*
X776558Y871553D01*
X774877Y870431D01*
X774343Y869630D01*
X754920D01*
Y865435D01*
X753664Y864856D01*
X752888Y864760D01*
X750631Y867017D01*
X749645Y867586D01*
Y900080D01*
X749626Y900229D01*
X750028Y903288D01*
X751266Y906277D01*
X753236Y908844D01*
X755803Y910814D01*
X758792Y912052D01*
X761851Y912454D01*
X762000Y912435D01*
X856390D01*
X857411Y911414D01*
X859709Y910087D01*
X862273Y909400D01*
X864927D01*
X867491Y910087D01*
X869789Y911414D01*
X871666Y913291D01*
X872993Y915589D01*
X873680Y918153D01*
Y920807D01*
X872993Y923371D01*
X872121Y924881D01*
X873129Y926913D01*
X894842D01*
X894998Y926933D01*
X897201Y926495D01*
D02*
G37*
G36*
X876458Y864736D02*
X876361Y864680D01*
X874470Y862788D01*
X873132Y860472D01*
X872762Y859090D01*
X882600D01*
Y856550D01*
X885140D01*
Y846712D01*
X886521Y847082D01*
X888838Y848420D01*
X890730Y850312D01*
X892067Y852628D01*
X892582Y854548D01*
X894614Y854281D01*
Y843850D01*
X894614Y843850D01*
X894581Y843010D01*
X894189Y841376D01*
X893485Y839850D01*
X892497Y838491D01*
X891264Y837350D01*
X889831Y836472D01*
X888254Y835890D01*
X886594Y835627D01*
X885755Y835660D01*
X718141D01*
X715901Y836588D01*
X714186Y838303D01*
X713258Y840543D01*
Y860672D01*
X713258D01*
Y861375D01*
X713453Y862356D01*
X713991Y863654D01*
X714546Y864486D01*
X715540Y865479D01*
X716372Y866035D01*
X717670Y866573D01*
X718651Y866768D01*
X731155D01*
X731398Y866720D01*
X732133Y864581D01*
X730411Y861599D01*
X729520Y858272D01*
Y854828D01*
X730411Y851501D01*
X732133Y848519D01*
X734569Y846083D01*
X737551Y844361D01*
X740878Y843470D01*
X744322D01*
X747649Y844361D01*
X750631Y846083D01*
X753067Y848519D01*
X754789Y851501D01*
X755428Y853887D01*
X757460Y853620D01*
Y846010D01*
X765460D01*
Y856550D01*
X768000D01*
Y859090D01*
X778540D01*
Y866768D01*
X875914Y866768D01*
X876458Y864736D01*
D02*
G37*
G36*
X170859Y743621D02*
X171540Y741377D01*
X173120Y738420D01*
X175247Y735829D01*
X177838Y733702D01*
X180794Y732122D01*
X184002Y731149D01*
X187338Y730820D01*
X190674Y731149D01*
X193882Y732122D01*
X196839Y733702D01*
X199430Y735829D01*
X200503Y737137D01*
X203129D01*
X204203Y735829D01*
X206794Y733702D01*
X209750Y732122D01*
X210082Y732022D01*
X210416Y729797D01*
X209104Y728485D01*
X207777Y726187D01*
X207090Y723623D01*
Y720969D01*
X207777Y718405D01*
X209104Y716107D01*
X209185Y716026D01*
X209104Y715945D01*
X207777Y713647D01*
X207090Y711083D01*
Y708429D01*
X207777Y705865D01*
X208347Y704879D01*
X207303Y702734D01*
X204095Y701761D01*
X201139Y700181D01*
X198547Y698054D01*
X197177Y696385D01*
X194825Y696225D01*
X194585Y696340D01*
X193775Y697328D01*
X191183Y699454D01*
X188227Y701034D01*
X185019Y702008D01*
X181683Y702336D01*
Y702314D01*
X135321D01*
X135204Y702299D01*
X135191Y702301D01*
X133736Y704663D01*
X134116Y706083D01*
Y709421D01*
X133252Y712646D01*
X131582Y715538D01*
X129222Y717898D01*
X126330Y719568D01*
X123105Y720432D01*
X119767D01*
X116542Y719568D01*
X115485Y718958D01*
X113725Y719974D01*
Y729799D01*
X113711Y729909D01*
X114077Y732692D01*
X115194Y735388D01*
X116970Y737703D01*
X119285Y739479D01*
X121981Y740595D01*
X124764Y740962D01*
X124874Y740947D01*
X158382D01*
Y740925D01*
X161718Y741254D01*
X164926Y742227D01*
X167883Y743807D01*
X168667Y744451D01*
X170859Y743621D01*
D02*
G37*
G36*
X827784Y598990D02*
X828791Y597246D01*
X830668Y595369D01*
X832498Y594313D01*
X834024Y593090D01*
X834370Y589577D01*
X835394Y586200D01*
X837058Y583087D01*
X839297Y580359D01*
X840395Y579457D01*
X839668Y577425D01*
X822406D01*
X821404Y579457D01*
X822276Y580595D01*
X823705Y584044D01*
X824192Y587745D01*
X824136D01*
Y596866D01*
X824516Y597246D01*
X825523Y598990D01*
X826118Y599160D01*
X827189D01*
X827784Y598990D01*
D02*
G37*
%LPC*%
G36*
X72710Y909325D02*
X69002D01*
X65421Y908365D01*
X62211Y906512D01*
X59589Y903890D01*
X59172Y903168D01*
X57140D01*
X56723Y903890D01*
X54101Y906512D01*
X50891Y908365D01*
X47310Y909325D01*
X43602D01*
X40021Y908365D01*
X36811Y906512D01*
X34189Y903890D01*
X32336Y900680D01*
X31376Y897099D01*
Y893391D01*
X32336Y889810D01*
X34189Y886600D01*
X34832Y885957D01*
X33990Y883925D01*
X31376D01*
Y855765D01*
X59536D01*
Y858379D01*
X61568Y859221D01*
X62211Y858578D01*
X65421Y856725D01*
X69002Y855765D01*
X72710D01*
X76291Y856725D01*
X79501Y858578D01*
X82123Y861200D01*
X83849Y864190D01*
X84735Y864405D01*
X86076Y864397D01*
X87022Y862759D01*
X89170Y860611D01*
X91802Y859091D01*
X93716Y858578D01*
Y869845D01*
Y881112D01*
X91802Y880599D01*
X89170Y879079D01*
X87022Y876931D01*
X86076Y875293D01*
X84735Y875285D01*
X83849Y875500D01*
X82123Y878490D01*
X79501Y881112D01*
X78779Y881529D01*
Y883561D01*
X79501Y883978D01*
X82123Y886600D01*
X83849Y889590D01*
X84735Y889805D01*
X86076Y889797D01*
X87022Y888159D01*
X89170Y886011D01*
X91802Y884491D01*
X93716Y883979D01*
Y895245D01*
Y906512D01*
X91802Y905999D01*
X89170Y904479D01*
X87022Y902331D01*
X86076Y900693D01*
X84735Y900685D01*
X83849Y900900D01*
X82123Y903890D01*
X79501Y906512D01*
X76291Y908365D01*
X72710Y909325D01*
D02*
G37*
G36*
X123510Y909325D02*
X119802D01*
X116221Y908365D01*
X113011Y906512D01*
X110389Y903890D01*
X108663Y900900D01*
X107777Y900685D01*
X106435Y900693D01*
X105490Y902331D01*
X103342Y904479D01*
X100710Y905999D01*
X98796Y906512D01*
Y895245D01*
Y883979D01*
X100710Y884491D01*
X103342Y886011D01*
X105490Y888159D01*
X106435Y889797D01*
X107777Y889805D01*
X108663Y889590D01*
X110389Y886600D01*
X113011Y883978D01*
X113733Y883561D01*
Y881529D01*
X113011Y881112D01*
X110389Y878490D01*
X108663Y875500D01*
X107777Y875285D01*
X106435Y875293D01*
X105490Y876931D01*
X103342Y879079D01*
X100710Y880599D01*
X98796Y881112D01*
Y869845D01*
Y858578D01*
X100710Y859091D01*
X103342Y860611D01*
X105490Y862759D01*
X106435Y864397D01*
X107777Y864405D01*
X108663Y864190D01*
X110389Y861200D01*
X113011Y858578D01*
X116221Y856725D01*
X119802Y855765D01*
X123510D01*
X127091Y856725D01*
X130301Y858578D01*
X132923Y861200D01*
X134649Y864190D01*
X135535Y864405D01*
X136876Y864397D01*
X137822Y862759D01*
X139970Y860611D01*
X142602Y859091D01*
X144516Y858578D01*
Y869845D01*
Y881112D01*
X142602Y880599D01*
X139970Y879079D01*
X137822Y876931D01*
X136876Y875293D01*
X135535Y875285D01*
X134649Y875500D01*
X132923Y878490D01*
X130301Y881112D01*
X129579Y881529D01*
Y883561D01*
X130301Y883978D01*
X132923Y886600D01*
X134649Y889590D01*
X135535Y889805D01*
X136876Y889797D01*
X137822Y888159D01*
X139970Y886011D01*
X142602Y884491D01*
X144516Y883979D01*
Y895245D01*
Y906511D01*
X142602Y905999D01*
X139970Y904479D01*
X137822Y902331D01*
X136876Y900693D01*
X135535Y900685D01*
X134649Y900900D01*
X132923Y903890D01*
X130301Y906512D01*
X127091Y908365D01*
X123510Y909325D01*
D02*
G37*
G36*
X275910Y909325D02*
X272202D01*
X268621Y908365D01*
X265411Y906512D01*
X262789Y903890D01*
X262372Y903168D01*
X260340D01*
X259923Y903890D01*
X257301Y906512D01*
X254091Y908365D01*
X250510Y909325D01*
X246802D01*
X243221Y908365D01*
X240011Y906512D01*
X237389Y903890D01*
X235663Y900900D01*
X234777Y900685D01*
X233435Y900693D01*
X232490Y902331D01*
X230342Y904479D01*
X227710Y905999D01*
X225796Y906512D01*
Y895245D01*
Y883979D01*
X227710Y884491D01*
X230342Y886011D01*
X232490Y888159D01*
X233435Y889797D01*
X234777Y889805D01*
X235663Y889590D01*
X237389Y886600D01*
X240011Y883978D01*
X240733Y883561D01*
Y881529D01*
X240011Y881112D01*
X237389Y878490D01*
X235663Y875500D01*
X234777Y875285D01*
X233435Y875293D01*
X232490Y876931D01*
X230342Y879079D01*
X227710Y880599D01*
X225796Y881112D01*
Y869845D01*
Y858578D01*
X227710Y859091D01*
X230342Y860611D01*
X232490Y862759D01*
X233435Y864397D01*
X234777Y864405D01*
X235663Y864190D01*
X237389Y861200D01*
X240011Y858578D01*
X243221Y856725D01*
X246802Y855765D01*
X250510D01*
X254091Y856725D01*
X257301Y858578D01*
X259923Y861200D01*
X260340Y861922D01*
X262372D01*
X262789Y861200D01*
X265411Y858578D01*
X268621Y856725D01*
X272202Y855765D01*
X275910D01*
X279491Y856725D01*
X282701Y858578D01*
X285323Y861200D01*
X287176Y864410D01*
X288136Y867991D01*
Y871699D01*
X287176Y875280D01*
X285323Y878490D01*
X282701Y881112D01*
X281979Y881529D01*
Y883561D01*
X282701Y883978D01*
X285323Y886600D01*
X287176Y889810D01*
X288136Y893391D01*
Y897099D01*
X287176Y900680D01*
X285323Y903890D01*
X282701Y906512D01*
X279491Y908365D01*
X275910Y909325D01*
D02*
G37*
G36*
X322316Y906512D02*
X320402Y905999D01*
X317770Y904479D01*
X315622Y902331D01*
X314102Y899699D01*
X313589Y897785D01*
X322316D01*
Y906512D01*
D02*
G37*
G36*
X1353797Y972328D02*
X1348903D01*
X1344052Y971689D01*
X1339326Y970423D01*
X1334805Y968550D01*
X1330567Y966104D01*
X1326685Y963125D01*
X1323225Y959665D01*
X1320246Y955783D01*
X1317800Y951545D01*
X1315927Y947024D01*
X1314661Y942298D01*
X1314022Y937447D01*
Y932553D01*
X1314661Y927702D01*
X1315927Y922976D01*
X1317800Y918455D01*
X1320246Y914217D01*
X1323225Y910335D01*
X1326685Y906875D01*
X1330567Y903896D01*
X1334805Y901450D01*
X1339326Y899577D01*
X1344052Y898311D01*
X1348903Y897672D01*
X1353797D01*
X1358648Y898311D01*
X1363374Y899577D01*
X1367895Y901450D01*
X1372133Y903896D01*
X1376015Y906875D01*
X1379475Y910335D01*
X1382454Y914217D01*
X1384900Y918455D01*
X1386773Y922976D01*
X1388039Y927702D01*
X1388678Y932553D01*
Y937447D01*
X1388039Y942298D01*
X1386773Y947024D01*
X1384900Y951545D01*
X1382454Y955783D01*
X1379475Y959665D01*
X1376015Y963125D01*
X1372133Y966104D01*
X1367895Y968550D01*
X1363374Y970423D01*
X1358648Y971689D01*
X1353797Y972328D01*
D02*
G37*
G36*
X564722Y892705D02*
X555996D01*
Y883979D01*
X557910Y884491D01*
X560542Y886011D01*
X562690Y888159D01*
X564210Y890791D01*
X564722Y892705D01*
D02*
G37*
G36*
X322316D02*
X313589D01*
X314102Y890791D01*
X315622Y888159D01*
X317770Y886011D01*
X320402Y884491D01*
X322316Y883978D01*
Y892705D01*
D02*
G37*
G36*
X555996Y881112D02*
Y872385D01*
X564723D01*
X564210Y874299D01*
X562690Y876931D01*
X560542Y879079D01*
X557910Y880599D01*
X555996Y881112D01*
D02*
G37*
G36*
X322316Y881385D02*
X313316D01*
Y872385D01*
X322316D01*
Y881385D01*
D02*
G37*
G36*
X1290672Y869250D02*
X1287328D01*
X1284098Y868384D01*
X1281202Y866712D01*
X1278837Y864348D01*
X1277420Y861893D01*
X1276467Y861681D01*
X1276133D01*
X1275180Y861893D01*
X1273762Y864348D01*
X1271398Y866712D01*
X1268502Y868384D01*
X1265272Y869250D01*
X1261928D01*
X1258698Y868384D01*
X1255802Y866712D01*
X1253437Y864348D01*
X1251765Y861452D01*
X1250900Y858222D01*
Y854878D01*
X1251765Y851648D01*
X1253437Y848752D01*
X1255802Y846387D01*
X1258698Y844715D01*
X1261928Y843850D01*
X1265272D01*
X1268502Y844715D01*
X1271398Y846387D01*
X1273762Y848752D01*
X1275180Y851207D01*
X1276133Y851419D01*
X1276467D01*
X1277420Y851207D01*
X1278837Y848752D01*
X1281202Y846387D01*
X1284098Y844715D01*
X1287328Y843850D01*
X1290672D01*
X1293902Y844715D01*
X1296798Y846387D01*
X1299162Y848752D01*
X1300834Y851648D01*
X1301700Y854878D01*
Y858222D01*
X1300834Y861452D01*
X1299162Y864348D01*
X1296798Y866712D01*
X1293902Y868384D01*
X1290672Y869250D01*
D02*
G37*
G36*
X564722Y867305D02*
X555996D01*
Y858578D01*
X557910Y859091D01*
X560542Y860611D01*
X562690Y862759D01*
X564210Y865391D01*
X564722Y867305D01*
D02*
G37*
G36*
X322316D02*
X313316D01*
Y858305D01*
X322316D01*
Y867305D01*
D02*
G37*
G36*
X103481Y812080D02*
X99219D01*
X95009Y811413D01*
X90955Y810096D01*
X87157Y808161D01*
X83709Y805656D01*
X80695Y802641D01*
X78189Y799193D01*
X76254Y795395D01*
X74937Y791341D01*
X74270Y787131D01*
Y782869D01*
X74937Y778659D01*
X76254Y774605D01*
X78189Y770807D01*
X80695Y767359D01*
X83709Y764344D01*
X87157Y761839D01*
X90955Y759904D01*
X95009Y758587D01*
X99219Y757920D01*
X103481D01*
X107691Y758587D01*
X111745Y759904D01*
X115543Y761839D01*
X118991Y764344D01*
X122005Y767359D01*
X124511Y770807D01*
X126446Y774605D01*
X127763Y778659D01*
X128430Y782869D01*
Y787131D01*
X127763Y791341D01*
X126446Y795395D01*
X124511Y799193D01*
X122005Y802641D01*
X118991Y805656D01*
X115543Y808161D01*
X111745Y810096D01*
X107691Y811413D01*
X103481Y812080D01*
D02*
G37*
G36*
X1226880Y739370D02*
X1223820D01*
X1220865Y738578D01*
X1218215Y737048D01*
X1216052Y734885D01*
X1214522Y732235D01*
X1213827Y729642D01*
X1213533Y729447D01*
X1213413Y729437D01*
X1211702Y730044D01*
X1211232Y730543D01*
X1210778Y732235D01*
X1209248Y734885D01*
X1207085Y737048D01*
X1204435Y738578D01*
X1201480Y739370D01*
X1198420D01*
X1195465Y738578D01*
X1192815Y737048D01*
X1190652Y734885D01*
X1189122Y732235D01*
X1188330Y729280D01*
Y726220D01*
X1189122Y723265D01*
X1190652Y720615D01*
X1192815Y718452D01*
X1195465Y716922D01*
X1196320Y716693D01*
X1197073Y714805D01*
X1195944Y712963D01*
X1195687Y712746D01*
X1193399Y712217D01*
X1191735Y713178D01*
X1188780Y713970D01*
X1185720D01*
X1182765Y713178D01*
X1180115Y711648D01*
X1177952Y709485D01*
X1176422Y706835D01*
X1175630Y703880D01*
Y700820D01*
X1176422Y697865D01*
X1177952Y695215D01*
X1180115Y693052D01*
X1182765Y691522D01*
X1185720Y690730D01*
X1187317D01*
Y673166D01*
X1187272D01*
X1187692Y668896D01*
X1188938Y664790D01*
X1190960Y661006D01*
X1193683Y657689D01*
X1197000Y654967D01*
X1200784Y652944D01*
X1204890Y651698D01*
X1209160Y651278D01*
Y651323D01*
X1254064D01*
X1254181Y651338D01*
X1256166Y650943D01*
X1257948Y649753D01*
X1259139Y647970D01*
X1259534Y645985D01*
X1259519Y645868D01*
Y638517D01*
X1249167D01*
Y638556D01*
X1246183Y638163D01*
X1243402Y637011D01*
X1241015Y635179D01*
X1239183Y632791D01*
X1238031Y630011D01*
X1237638Y627027D01*
X1238031Y624043D01*
X1239183Y621263D01*
X1241015Y618875D01*
X1243402Y617043D01*
X1246183Y615891D01*
X1249167Y615498D01*
Y615537D01*
X1259519D01*
Y609643D01*
Y596349D01*
X1258881Y595428D01*
X1257960Y594790D01*
X1240406D01*
X1239564Y596822D01*
X1239988Y597246D01*
X1241315Y599545D01*
X1242002Y602108D01*
Y604762D01*
X1241315Y607326D01*
X1239988Y609625D01*
X1238111Y611502D01*
X1235813Y612828D01*
X1233249Y613516D01*
X1230595D01*
X1228031Y612828D01*
X1225732Y611502D01*
X1224889Y610658D01*
X1224046Y611502D01*
X1221748Y612828D01*
X1219184Y613516D01*
X1216530D01*
X1213966Y612828D01*
X1211668Y611502D01*
X1209791Y609625D01*
X1208784Y607881D01*
X1208189Y607711D01*
X1207118D01*
X1206523Y607881D01*
X1205516Y609625D01*
X1203639Y611502D01*
X1201341Y612828D01*
X1198777Y613516D01*
X1196123D01*
X1193559Y612828D01*
X1191261Y611502D01*
X1189384Y609625D01*
X1188057Y607326D01*
X1187370Y604762D01*
Y602108D01*
X1188057Y599545D01*
X1189384Y597246D01*
X1189764Y596866D01*
Y588930D01*
X1189724Y588913D01*
X1189707Y588872D01*
X1081300D01*
Y588923D01*
X1081206Y588963D01*
X1081167Y589057D01*
X1081116D01*
Y611799D01*
X1081496Y612179D01*
X1082823Y614477D01*
X1083510Y617041D01*
Y619695D01*
X1082823Y622259D01*
X1081496Y624557D01*
X1079619Y626434D01*
X1077320Y627761D01*
X1074757Y628448D01*
X1072103D01*
X1069539Y627761D01*
X1067241Y626434D01*
X1065364Y624557D01*
X1064037Y622259D01*
X1063350Y619695D01*
Y617041D01*
X1064037Y614477D01*
X1065364Y612179D01*
X1065744Y611799D01*
Y589057D01*
X1065735D01*
X1066034Y586020D01*
X1066920Y583100D01*
X1068358Y580409D01*
X1070294Y578051D01*
X1072653Y576115D01*
X1075343Y574677D01*
X1078263Y573791D01*
X1081300Y573492D01*
Y573501D01*
X1189791D01*
Y573493D01*
X1192786Y573788D01*
X1195666Y574661D01*
X1198321Y576080D01*
X1200647Y577990D01*
X1202557Y580316D01*
X1203975Y582970D01*
X1204849Y585850D01*
X1205144Y588846D01*
X1205136D01*
Y596866D01*
X1205516Y597246D01*
X1206523Y598990D01*
X1207118Y599160D01*
X1208189D01*
X1208784Y598990D01*
X1209791Y597246D01*
X1211668Y595369D01*
X1213498Y594313D01*
X1215024Y593090D01*
X1215370Y589577D01*
X1216394Y586200D01*
X1218058Y583087D01*
X1220297Y580359D01*
X1223025Y578120D01*
X1226138Y576456D01*
X1229516Y575431D01*
X1233028Y575085D01*
Y575112D01*
X1258441D01*
Y575072D01*
X1262498Y575471D01*
X1266399Y576655D01*
X1269995Y578577D01*
X1273146Y581163D01*
X1275732Y584314D01*
X1277654Y587910D01*
X1278837Y591811D01*
X1279237Y595868D01*
X1279197D01*
Y645868D01*
X1279258D01*
X1278774Y650783D01*
X1277340Y655509D01*
X1275012Y659865D01*
X1271879Y663683D01*
X1268061Y666816D01*
X1263705Y669145D01*
X1258979Y670578D01*
X1254064Y671062D01*
Y671001D01*
X1209160D01*
Y671027D01*
X1208342Y671190D01*
X1207647Y671654D01*
X1207184Y672348D01*
X1207021Y673166D01*
X1206995D01*
Y690053D01*
X1209027Y691291D01*
X1211120Y690730D01*
X1214180D01*
X1217135Y691522D01*
X1219785Y693052D01*
X1221948Y695215D01*
X1223478Y697865D01*
X1224270Y700820D01*
Y703880D01*
X1223478Y706835D01*
X1221948Y709485D01*
X1219785Y711648D01*
X1218776Y712231D01*
X1218818Y714553D01*
X1222475Y716490D01*
X1223820Y716130D01*
X1226880D01*
X1229835Y716922D01*
X1232485Y718452D01*
X1234648Y720615D01*
X1236178Y723265D01*
X1236970Y726220D01*
Y729280D01*
X1236178Y732235D01*
X1234648Y734885D01*
X1232485Y737048D01*
X1229835Y738578D01*
X1226880Y739370D01*
D02*
G37*
G36*
X1132640Y726317D02*
Y717590D01*
X1141367D01*
X1140854Y719504D01*
X1139334Y722136D01*
X1137186Y724284D01*
X1134554Y725804D01*
X1132640Y726317D01*
D02*
G37*
G36*
X1127560D02*
X1125646Y725804D01*
X1123014Y724284D01*
X1120866Y722136D01*
X1119346Y719504D01*
X1118833Y717590D01*
X1127560D01*
Y726317D01*
D02*
G37*
G36*
X1252280Y739370D02*
X1249220D01*
X1246265Y738578D01*
X1243615Y737048D01*
X1241452Y734885D01*
X1239922Y732235D01*
X1239130Y729280D01*
Y726220D01*
X1239922Y723265D01*
X1241452Y720615D01*
X1243615Y718452D01*
X1246265Y716922D01*
X1249220Y716130D01*
X1252280D01*
X1255235Y716922D01*
X1257885Y718452D01*
X1260048Y720615D01*
X1261578Y723265D01*
X1262370Y726220D01*
Y729280D01*
X1261578Y732235D01*
X1260048Y734885D01*
X1257885Y737048D01*
X1255235Y738578D01*
X1252280Y739370D01*
D02*
G37*
G36*
X1176080D02*
X1173020D01*
X1170065Y738578D01*
X1167415Y737048D01*
X1165252Y734885D01*
X1163722Y732235D01*
X1162930Y729280D01*
Y726220D01*
X1163722Y723265D01*
X1165252Y720615D01*
X1167415Y718452D01*
X1170065Y716922D01*
X1173020Y716130D01*
X1176080D01*
X1179035Y716922D01*
X1181685Y718452D01*
X1183848Y720615D01*
X1185378Y723265D01*
X1186170Y726220D01*
Y729280D01*
X1185378Y732235D01*
X1183848Y734885D01*
X1181685Y737048D01*
X1179035Y738578D01*
X1176080Y739370D01*
D02*
G37*
G36*
X1141367Y712510D02*
X1132640D01*
Y703783D01*
X1134554Y704296D01*
X1137186Y705816D01*
X1139334Y707964D01*
X1140854Y710596D01*
X1141367Y712510D01*
D02*
G37*
G36*
X1127560D02*
X1118833D01*
X1119346Y710596D01*
X1120866Y707964D01*
X1123014Y705816D01*
X1125646Y704296D01*
X1127560Y703783D01*
Y712510D01*
D02*
G37*
G36*
X1239580Y713970D02*
X1236520D01*
X1233565Y713178D01*
X1230915Y711648D01*
X1228752Y709485D01*
X1227222Y706835D01*
X1226430Y703880D01*
Y700820D01*
X1227222Y697865D01*
X1228752Y695215D01*
X1230915Y693052D01*
X1233565Y691522D01*
X1236520Y690730D01*
X1239580D01*
X1242535Y691522D01*
X1245185Y693052D01*
X1247348Y695215D01*
X1248878Y697865D01*
X1249670Y700820D01*
Y703880D01*
X1248878Y706835D01*
X1247348Y709485D01*
X1245185Y711648D01*
X1242535Y713178D01*
X1239580Y713970D01*
D02*
G37*
G36*
X1173470D02*
X1150230D01*
Y690730D01*
X1173470D01*
Y713970D01*
D02*
G37*
G36*
X49964Y703792D02*
X46508D01*
X43120Y703118D01*
X39928Y701796D01*
X37055Y699876D01*
X34612Y697433D01*
X32692Y694560D01*
X31370Y691368D01*
X30696Y687980D01*
Y684525D01*
X31370Y681136D01*
X32692Y677944D01*
X34612Y675071D01*
X37055Y672628D01*
X39928Y670708D01*
X43120Y669386D01*
X46508Y668712D01*
X49964D01*
X53352Y669386D01*
X56544Y670708D01*
X59417Y672628D01*
X61860Y675071D01*
X63780Y677944D01*
X65102Y681136D01*
X65776Y684525D01*
Y687980D01*
X65102Y691368D01*
X63780Y694560D01*
X61860Y697433D01*
X59417Y699876D01*
X56544Y701796D01*
X53352Y703118D01*
X49964Y703792D01*
D02*
G37*
G36*
X93105Y660432D02*
X89767D01*
X86542Y659568D01*
X83650Y657898D01*
X81290Y655538D01*
X79620Y652646D01*
X78756Y649421D01*
Y646083D01*
X79620Y642858D01*
X81290Y639966D01*
X83650Y637606D01*
X86542Y635936D01*
X89767Y635072D01*
X93105D01*
X96330Y635936D01*
X99222Y637606D01*
X101582Y639966D01*
X103252Y642858D01*
X104116Y646083D01*
Y649421D01*
X103252Y652646D01*
X101582Y655538D01*
X99222Y657898D01*
X96330Y659568D01*
X93105Y660432D01*
D02*
G37*
G36*
X49964Y656792D02*
X46508D01*
X43120Y656118D01*
X39928Y654796D01*
X37055Y652876D01*
X34612Y650433D01*
X32692Y647560D01*
X31370Y644368D01*
X30696Y640980D01*
Y637524D01*
X31370Y634136D01*
X32692Y630944D01*
X34612Y628071D01*
X37055Y625628D01*
X39928Y623708D01*
X43120Y622386D01*
X46508Y621712D01*
X49964D01*
X53352Y622386D01*
X56544Y623708D01*
X59417Y625628D01*
X61860Y628071D01*
X63780Y630944D01*
X65102Y634136D01*
X65776Y637524D01*
Y640980D01*
X65102Y644368D01*
X63780Y647560D01*
X61860Y650433D01*
X59417Y652876D01*
X56544Y654796D01*
X53352Y656118D01*
X49964Y656792D01*
D02*
G37*
G36*
X1182288Y636690D02*
X1179512D01*
X1176832Y635972D01*
X1174428Y634584D01*
X1172466Y632622D01*
X1171078Y630218D01*
X1170360Y627538D01*
Y624762D01*
X1171078Y622082D01*
X1172466Y619678D01*
X1174428Y617716D01*
X1176832Y616328D01*
X1179512Y615610D01*
X1182288D01*
X1184968Y616328D01*
X1187372Y617716D01*
X1189334Y619678D01*
X1190722Y622082D01*
X1191440Y624762D01*
Y627538D01*
X1190722Y630218D01*
X1189334Y632622D01*
X1187372Y634584D01*
X1184968Y635972D01*
X1182288Y636690D01*
D02*
G37*
G36*
X93105Y630432D02*
X89767D01*
X86542Y629568D01*
X83650Y627898D01*
X81290Y625538D01*
X79620Y622646D01*
X78756Y619421D01*
Y616083D01*
X79620Y612858D01*
X81290Y609966D01*
X83650Y607606D01*
X86542Y605936D01*
X89767Y605072D01*
X93105D01*
X96330Y605936D01*
X99222Y607606D01*
X101582Y609966D01*
X103252Y612858D01*
X104116Y616083D01*
Y619421D01*
X103252Y622646D01*
X101582Y625538D01*
X99222Y627898D01*
X96330Y629568D01*
X93105Y630432D01*
D02*
G37*
G36*
X123105Y660432D02*
X119767D01*
X116542Y659568D01*
X113650Y657898D01*
X111290Y655538D01*
X109620Y652646D01*
X108756Y649421D01*
Y646083D01*
X109620Y642858D01*
X111290Y639966D01*
X113650Y637606D01*
X116542Y635936D01*
X119767Y635072D01*
X122313D01*
X124120Y634916D01*
X124353Y634114D01*
Y632806D01*
X122268Y631094D01*
X121724Y630432D01*
X119767D01*
X116542Y629568D01*
X113650Y627898D01*
X111290Y625538D01*
X109620Y622646D01*
X108756Y619421D01*
Y616083D01*
X109620Y612858D01*
X111290Y609966D01*
X113650Y607606D01*
X116542Y605936D01*
X119767Y605072D01*
X123105D01*
X126330Y605936D01*
X129222Y607606D01*
X131582Y609966D01*
X133252Y612858D01*
X134116Y616083D01*
Y619421D01*
X133427Y621993D01*
X133910Y622364D01*
X135829Y623158D01*
X137883Y623429D01*
X137888Y623428D01*
X269157D01*
X269459Y621396D01*
X265267Y620124D01*
X265040Y620003D01*
X264788Y619953D01*
X255711Y616193D01*
X255497Y616050D01*
X255251Y615976D01*
X246586Y611344D01*
X246388Y611181D01*
X246150Y611083D01*
X237981Y605624D01*
X237799Y605443D01*
X237572Y605321D01*
X229977Y599088D01*
X229814Y598890D01*
X229601Y598747D01*
X222653Y591799D01*
X222510Y591586D01*
X222312Y591423D01*
X216078Y583828D01*
X215957Y583601D01*
X215776Y583419D01*
X210317Y575250D01*
X210219Y575013D01*
X210056Y574814D01*
X205424Y566149D01*
X205350Y565903D01*
X205207Y565689D01*
X201447Y556612D01*
X201397Y556360D01*
X201276Y556133D01*
X198423Y546731D01*
X198398Y546475D01*
X198300Y546238D01*
X196383Y536601D01*
Y536344D01*
X196308Y536098D01*
X195345Y526320D01*
X195371Y526065D01*
X195320Y525813D01*
Y515987D01*
X195371Y515735D01*
X195345Y515480D01*
X196308Y505702D01*
X196383Y505456D01*
Y505199D01*
X198300Y495562D01*
X198398Y495325D01*
X198423Y495069D01*
X201276Y485667D01*
X201397Y485440D01*
X201447Y485188D01*
X205207Y476111D01*
X205350Y475897D01*
X205424Y475651D01*
X210056Y466986D01*
X210219Y466787D01*
X210317Y466550D01*
X215776Y458381D01*
X215957Y458199D01*
X216078Y457972D01*
X222312Y450377D01*
X222510Y450214D01*
X222653Y450001D01*
X229601Y443053D01*
X229814Y442910D01*
X229977Y442712D01*
X237572Y436479D01*
X237799Y436357D01*
X237981Y436176D01*
X246150Y430717D01*
X246388Y430619D01*
X246586Y430456D01*
X255251Y425824D01*
X255497Y425750D01*
X255711Y425607D01*
X264788Y421847D01*
X265040Y421797D01*
X265267Y421676D01*
X274669Y418823D01*
X274925Y418798D01*
X275162Y418700D01*
X284799Y416783D01*
X285056D01*
X285302Y416708D01*
X295080Y415745D01*
X295335Y415771D01*
X295587Y415720D01*
X305413D01*
X305665Y415771D01*
X305920Y415745D01*
X315698Y416708D01*
X315944Y416783D01*
X316201D01*
X325838Y418700D01*
X326075Y418798D01*
X326331Y418823D01*
X335733Y421676D01*
X335960Y421797D01*
X336212Y421847D01*
X345289Y425607D01*
X345503Y425750D01*
X345749Y425824D01*
X354414Y430456D01*
X354613Y430619D01*
X354850Y430717D01*
X363019Y436176D01*
X363201Y436357D01*
X363428Y436479D01*
X371023Y442712D01*
X371186Y442910D01*
X371399Y443053D01*
X378347Y450001D01*
X378490Y450214D01*
X378688Y450377D01*
X384921Y457972D01*
X385043Y458199D01*
X385224Y458381D01*
X390683Y466550D01*
X390781Y466787D01*
X390944Y466986D01*
X395576Y475651D01*
X395650Y475897D01*
X395793Y476111D01*
X399553Y485188D01*
X399603Y485440D01*
X399724Y485667D01*
X402577Y495069D01*
X402602Y495325D01*
X402700Y495562D01*
X404617Y505199D01*
Y505456D01*
X404692Y505702D01*
X405655Y515480D01*
X405629Y515735D01*
X405680Y515987D01*
Y525813D01*
X405629Y526065D01*
X405655Y526320D01*
X404692Y536098D01*
X404617Y536344D01*
Y536601D01*
X402700Y546238D01*
X402602Y546475D01*
X402577Y546731D01*
X399724Y556133D01*
X399603Y556360D01*
X399553Y556612D01*
X395793Y565689D01*
X395650Y565903D01*
X395576Y566149D01*
X390944Y574814D01*
X390781Y575013D01*
X390683Y575250D01*
X385224Y583419D01*
X385043Y583601D01*
X384921Y583828D01*
X378688Y591423D01*
X378490Y591586D01*
X378347Y591799D01*
X371399Y598747D01*
X371186Y598890D01*
X371023Y599088D01*
X363428Y605321D01*
X363201Y605443D01*
X363019Y605624D01*
X354850Y611083D01*
X354613Y611181D01*
X354414Y611344D01*
X345749Y615976D01*
X345503Y616050D01*
X345289Y616193D01*
X336212Y619953D01*
X335960Y620003D01*
X335733Y620124D01*
X331541Y621396D01*
X331843Y623428D01*
X480126D01*
Y619829D01*
X480088D01*
X480481Y616846D01*
X481633Y614065D01*
X483465Y611677D01*
X485852Y609845D01*
X488633Y608694D01*
X491617Y608301D01*
X494601Y608694D01*
X497381Y609845D01*
X499769Y611677D01*
X501601Y614065D01*
X502752Y616846D01*
X503145Y619829D01*
X503107D01*
Y623428D01*
X559911D01*
X560741Y622762D01*
X561407Y621932D01*
Y600029D01*
X561085Y599943D01*
X558787Y598616D01*
X556910Y596739D01*
X555583Y594441D01*
X554896Y591877D01*
Y589223D01*
X555583Y586659D01*
X556910Y584361D01*
X558787Y582484D01*
X561085Y581157D01*
X563649Y580470D01*
X566303D01*
X568867Y581157D01*
X571165Y582484D01*
X571246Y582565D01*
X571327Y582484D01*
X573625Y581157D01*
X576189Y580470D01*
X578843D01*
X581407Y581157D01*
X583705Y582484D01*
X585582Y584361D01*
X586909Y586659D01*
X587596Y589223D01*
Y591877D01*
X586909Y594441D01*
X585582Y596739D01*
X583705Y598616D01*
X581407Y599943D01*
X581085Y600029D01*
Y622227D01*
X581126D01*
X580724Y626308D01*
X579533Y630233D01*
X577600Y633849D01*
X574998Y637020D01*
X571828Y639621D01*
X568211Y641554D01*
X564287Y642745D01*
X560205Y643147D01*
Y643107D01*
X138625D01*
X138621Y643106D01*
X138617Y643107D01*
X138595Y643107D01*
X138440Y643086D01*
X136219Y643528D01*
X134342Y644782D01*
X134252Y644899D01*
X133895Y645257D01*
X134116Y646083D01*
Y649421D01*
X133252Y652646D01*
X131582Y655538D01*
X129222Y657898D01*
X126330Y659568D01*
X123105Y660432D01*
D02*
G37*
G36*
X603530Y745703D02*
X600546Y745311D01*
X597766Y744159D01*
X595378Y742327D01*
X593546Y739939D01*
X592394Y737159D01*
X592001Y734175D01*
Y506815D01*
X592394Y503831D01*
X593546Y501051D01*
X595378Y498663D01*
X597766Y496831D01*
X600546Y495679D01*
X603530Y495286D01*
X606514Y495679D01*
X609294Y496831D01*
X611682Y498663D01*
X613514Y501051D01*
X614666Y503831D01*
X615058Y506815D01*
Y734175D01*
X614666Y737159D01*
X613514Y739939D01*
X611682Y742327D01*
X609294Y744159D01*
X606514Y745311D01*
X603530Y745703D01*
D02*
G37*
G36*
X783390Y349752D02*
Y339990D01*
X793152D01*
X792535Y342290D01*
X790884Y345150D01*
X788550Y347485D01*
X785690Y349135D01*
X783390Y349752D01*
D02*
G37*
G36*
X778310D02*
X776010Y349135D01*
X773150Y347485D01*
X770816Y345150D01*
X769165Y342290D01*
X768548Y339990D01*
X778310D01*
Y349752D01*
D02*
G37*
G36*
X1246940Y349752D02*
Y339990D01*
X1256702D01*
X1256085Y342290D01*
X1254435Y345150D01*
X1252100Y347485D01*
X1249240Y349135D01*
X1246940Y349752D01*
D02*
G37*
G36*
X1241860Y349752D02*
X1239560Y349135D01*
X1236700Y347485D01*
X1234365Y345150D01*
X1232715Y342290D01*
X1232098Y339990D01*
X1241860D01*
Y349752D01*
D02*
G37*
G36*
X1169685Y358880D02*
X1166715D01*
X1163801Y358301D01*
X1161057Y357164D01*
X1158587Y355513D01*
X1156487Y353413D01*
X1154836Y350943D01*
X1153699Y348199D01*
X1153120Y345285D01*
Y342315D01*
X1153699Y339401D01*
X1154836Y336657D01*
X1156487Y334187D01*
X1158587Y332087D01*
X1161057Y330436D01*
X1163801Y329300D01*
X1166715Y328720D01*
X1169685D01*
X1172599Y329300D01*
X1175343Y330436D01*
X1177813Y332087D01*
X1179913Y334187D01*
X1181564Y336657D01*
X1182701Y339401D01*
X1183280Y342315D01*
Y345285D01*
X1182701Y348199D01*
X1181564Y350943D01*
X1179913Y353413D01*
X1177813Y355513D01*
X1175343Y357164D01*
X1172599Y358301D01*
X1169685Y358880D01*
D02*
G37*
G36*
X864885D02*
X861915D01*
X859001Y358301D01*
X856257Y357164D01*
X853787Y355513D01*
X851687Y353413D01*
X850036Y350943D01*
X848900Y348199D01*
X848320Y345285D01*
Y342315D01*
X848900Y339401D01*
X850036Y336657D01*
X851687Y334187D01*
X853787Y332087D01*
X856257Y330436D01*
X859001Y329300D01*
X861915Y328720D01*
X864885D01*
X867799Y329300D01*
X870543Y330436D01*
X873013Y332087D01*
X875113Y334187D01*
X876764Y336657D01*
X877900Y339401D01*
X878480Y342315D01*
Y345285D01*
X877900Y348199D01*
X876764Y350943D01*
X875113Y353413D01*
X873013Y355513D01*
X870543Y357164D01*
X867799Y358301D01*
X864885Y358880D01*
D02*
G37*
G36*
X1256702Y334910D02*
X1246940D01*
Y325148D01*
X1249240Y325765D01*
X1252100Y327416D01*
X1254435Y329750D01*
X1256085Y332610D01*
X1256702Y334910D01*
D02*
G37*
G36*
X793152Y334910D02*
X783390D01*
Y325148D01*
X785690Y325765D01*
X788550Y327416D01*
X790884Y329750D01*
X792535Y332610D01*
X793152Y334910D01*
D02*
G37*
G36*
X778310D02*
X768548D01*
X769165Y332610D01*
X770816Y329750D01*
X773150Y327416D01*
X776010Y325765D01*
X778310Y325148D01*
Y334910D01*
D02*
G37*
G36*
X1241860Y334910D02*
X1232098D01*
X1232715Y332610D01*
X1234365Y329750D01*
X1236700Y327416D01*
X1239560Y325765D01*
X1241860Y325148D01*
Y334910D01*
D02*
G37*
G36*
X1239535Y320780D02*
X1236565D01*
X1233651Y320201D01*
X1230907Y319064D01*
X1228437Y317413D01*
X1226337Y315313D01*
X1224686Y312843D01*
X1223549Y310099D01*
X1222970Y307185D01*
Y304215D01*
X1223549Y301301D01*
X1224686Y298557D01*
X1226337Y296087D01*
X1228437Y293987D01*
X1230907Y292336D01*
X1233651Y291199D01*
X1236565Y290620D01*
X1239535D01*
X1242449Y291199D01*
X1245193Y292336D01*
X1247663Y293987D01*
X1249763Y296087D01*
X1251414Y298557D01*
X1252551Y301301D01*
X1253130Y304215D01*
Y307185D01*
X1252551Y310099D01*
X1251414Y312843D01*
X1249763Y315313D01*
X1247663Y317413D01*
X1245193Y319064D01*
X1242449Y320201D01*
X1239535Y320780D01*
D02*
G37*
G36*
X1176035D02*
X1173065D01*
X1170151Y320201D01*
X1167407Y319064D01*
X1164937Y317413D01*
X1162837Y315313D01*
X1161186Y312843D01*
X1160050Y310099D01*
X1159470Y307185D01*
Y304215D01*
X1160050Y301301D01*
X1161186Y298557D01*
X1162837Y296087D01*
X1164937Y293987D01*
X1167407Y292336D01*
X1170151Y291199D01*
X1173065Y290620D01*
X1176035D01*
X1178949Y291199D01*
X1181693Y292336D01*
X1184163Y293987D01*
X1186263Y296087D01*
X1187914Y298557D01*
X1189051Y301301D01*
X1189630Y304215D01*
Y307185D01*
X1189051Y310099D01*
X1187914Y312843D01*
X1186263Y315313D01*
X1184163Y317413D01*
X1181693Y319064D01*
X1178949Y320201D01*
X1176035Y320780D01*
D02*
G37*
G36*
X858782Y323280D02*
X855319D01*
X851922Y322604D01*
X848723Y321279D01*
X845843Y319355D01*
X843395Y316907D01*
X841471Y314027D01*
X840146Y310828D01*
X839470Y307432D01*
Y303969D01*
X840146Y300572D01*
X841471Y297373D01*
X843395Y294493D01*
X845843Y292045D01*
X848723Y290121D01*
X851922Y288796D01*
X855319Y288120D01*
X858782D01*
X862178Y288796D01*
X865377Y290121D01*
X868257Y292045D01*
X870705Y294493D01*
X872629Y297373D01*
X873954Y300572D01*
X874630Y303969D01*
Y307432D01*
X873954Y310828D01*
X872629Y314027D01*
X870705Y316907D01*
X868257Y319355D01*
X865377Y321279D01*
X862178Y322604D01*
X858782Y323280D01*
D02*
G37*
G36*
X795282D02*
X791818D01*
X788422Y322604D01*
X785223Y321279D01*
X782343Y319355D01*
X779895Y316907D01*
X777971Y314027D01*
X776646Y310828D01*
X775970Y307432D01*
Y303969D01*
X776646Y300572D01*
X777971Y297373D01*
X779895Y294493D01*
X782343Y292045D01*
X785223Y290121D01*
X788422Y288796D01*
X791818Y288120D01*
X795282D01*
X798678Y288796D01*
X801877Y290121D01*
X804757Y292045D01*
X807205Y294493D01*
X809129Y297373D01*
X810454Y300572D01*
X811130Y303969D01*
Y307432D01*
X810454Y310828D01*
X809129Y314027D01*
X807205Y316907D01*
X804757Y319355D01*
X801877Y321279D01*
X798678Y322604D01*
X795282Y323280D01*
D02*
G37*
G36*
X1207785Y301730D02*
X1204815D01*
X1201901Y301150D01*
X1199157Y300014D01*
X1196687Y298363D01*
X1194587Y296263D01*
X1192936Y293793D01*
X1191799Y291049D01*
X1191220Y288135D01*
Y285165D01*
X1191799Y282251D01*
X1192936Y279507D01*
X1194587Y277037D01*
X1196687Y274937D01*
X1199157Y273286D01*
X1201901Y272150D01*
X1204815Y271570D01*
X1207785D01*
X1210699Y272150D01*
X1213443Y273286D01*
X1215913Y274937D01*
X1218013Y277037D01*
X1219664Y279507D01*
X1220800Y282251D01*
X1221380Y285165D01*
Y288135D01*
X1220800Y291049D01*
X1219664Y293793D01*
X1218013Y296263D01*
X1215913Y298363D01*
X1213443Y300014D01*
X1210699Y301150D01*
X1207785Y301730D01*
D02*
G37*
G36*
X826785D02*
X823815D01*
X820901Y301150D01*
X818157Y300014D01*
X815687Y298363D01*
X813587Y296263D01*
X811936Y293793D01*
X810799Y291049D01*
X810220Y288135D01*
Y285165D01*
X810799Y282251D01*
X811936Y279507D01*
X813587Y277037D01*
X815687Y274937D01*
X818157Y273286D01*
X820901Y272150D01*
X823815Y271570D01*
X826785D01*
X829699Y272150D01*
X832443Y273286D01*
X834913Y274937D01*
X837013Y277037D01*
X838664Y279507D01*
X839800Y282251D01*
X840380Y285165D01*
Y288135D01*
X839800Y291049D01*
X838664Y293793D01*
X837013Y296263D01*
X834913Y298363D01*
X832443Y300014D01*
X829699Y301150D01*
X826785Y301730D01*
D02*
G37*
G36*
X827840Y260852D02*
Y251090D01*
X837602D01*
X836985Y253390D01*
X835334Y256250D01*
X833000Y258584D01*
X830140Y260235D01*
X827840Y260852D01*
D02*
G37*
G36*
X822760D02*
X820460Y260235D01*
X817600Y258584D01*
X815266Y256250D01*
X813615Y253390D01*
X812998Y251090D01*
X822760D01*
Y260852D01*
D02*
G37*
G36*
X837602Y246010D02*
X827840D01*
Y236248D01*
X830140Y236865D01*
X833000Y238515D01*
X835334Y240850D01*
X836985Y243710D01*
X837602Y246010D01*
D02*
G37*
G36*
X822760D02*
X812998D01*
X813615Y243710D01*
X815266Y240850D01*
X817600Y238515D01*
X820460Y236865D01*
X822760Y236248D01*
Y246010D01*
D02*
G37*
G36*
X1291390Y241802D02*
Y232040D01*
X1301152D01*
X1300535Y234340D01*
X1298884Y237200D01*
X1296550Y239534D01*
X1293690Y241185D01*
X1291390Y241802D01*
D02*
G37*
G36*
X1286310Y241802D02*
X1284010Y241185D01*
X1281150Y239534D01*
X1278816Y237200D01*
X1277165Y234340D01*
X1276548Y232040D01*
X1286310D01*
Y241802D01*
D02*
G37*
G36*
X1301152Y226960D02*
X1291390D01*
Y217198D01*
X1293690Y217815D01*
X1296550Y219466D01*
X1298884Y221800D01*
X1300535Y224660D01*
X1301152Y226960D01*
D02*
G37*
G36*
X1286310D02*
X1276548D01*
X1277165Y224660D01*
X1278816Y221800D01*
X1281150Y219466D01*
X1284010Y217815D01*
X1286310Y217198D01*
Y226960D01*
D02*
G37*
G36*
X797612Y195088D02*
X794958D01*
X792394Y194401D01*
X790095Y193074D01*
X790015Y192993D01*
X789934Y193074D01*
X787635Y194401D01*
X785072Y195088D01*
X782418D01*
X779854Y194401D01*
X777555Y193074D01*
X775679Y191197D01*
X774352Y188898D01*
X773665Y186335D01*
Y183681D01*
X774352Y181117D01*
X775679Y178818D01*
X777555Y176942D01*
X779854Y175615D01*
X780433Y175459D01*
Y129234D01*
X780411D01*
X780226Y128788D01*
X779780Y128603D01*
Y128581D01*
X728368D01*
X728213Y129160D01*
X726886Y131458D01*
X725009Y133335D01*
X722711Y134662D01*
X720147Y135349D01*
X717493D01*
X714929Y134662D01*
X712631Y133335D01*
X710754Y131458D01*
X709427Y129160D01*
X708740Y126596D01*
Y123942D01*
X709427Y121378D01*
X710754Y119080D01*
X710835Y118999D01*
X710754Y118918D01*
X709427Y116620D01*
X708740Y114056D01*
Y111402D01*
X709427Y108838D01*
X710754Y106540D01*
X712631Y104663D01*
X714929Y103336D01*
X717493Y102649D01*
X720147D01*
X722711Y103336D01*
X725009Y104663D01*
X726886Y106540D01*
X728213Y108838D01*
X728368Y109417D01*
X779780D01*
Y109378D01*
X783654Y109760D01*
X787378Y110890D01*
X790811Y112725D01*
X793820Y115194D01*
X796289Y118203D01*
X798124Y121635D01*
X799254Y125360D01*
X799635Y129234D01*
X799597D01*
Y175459D01*
X800175Y175615D01*
X802474Y176942D01*
X804351Y178818D01*
X805678Y181117D01*
X806365Y183681D01*
Y186335D01*
X805678Y188898D01*
X804351Y191197D01*
X802474Y193074D01*
X800175Y194401D01*
X797612Y195088D01*
D02*
G37*
G36*
X1353797Y102328D02*
X1348903D01*
X1344052Y101689D01*
X1339326Y100423D01*
X1334805Y98550D01*
X1330567Y96104D01*
X1326685Y93125D01*
X1323225Y89665D01*
X1320246Y85783D01*
X1317800Y81545D01*
X1315927Y77024D01*
X1314661Y72298D01*
X1314022Y67447D01*
Y62553D01*
X1314661Y57702D01*
X1315927Y52976D01*
X1317800Y48455D01*
X1320246Y44217D01*
X1323225Y40335D01*
X1326685Y36875D01*
X1330567Y33896D01*
X1334805Y31450D01*
X1339326Y29577D01*
X1344052Y28311D01*
X1348903Y27672D01*
X1353797D01*
X1358648Y28311D01*
X1363374Y29577D01*
X1367895Y31450D01*
X1372133Y33896D01*
X1376015Y36875D01*
X1379475Y40335D01*
X1382454Y44217D01*
X1384900Y48455D01*
X1386773Y52976D01*
X1388039Y57702D01*
X1388678Y62553D01*
Y67447D01*
X1388039Y72298D01*
X1386773Y77024D01*
X1384900Y81545D01*
X1382454Y85783D01*
X1379475Y89665D01*
X1376015Y93125D01*
X1372133Y96104D01*
X1367895Y98550D01*
X1363374Y100423D01*
X1358648Y101689D01*
X1353797Y102328D01*
D02*
G37*
G36*
X103797D02*
X98903D01*
X94052Y101689D01*
X89326Y100423D01*
X84805Y98550D01*
X80567Y96104D01*
X76685Y93125D01*
X73225Y89665D01*
X70246Y85783D01*
X67800Y81545D01*
X65927Y77024D01*
X64661Y72298D01*
X64022Y67447D01*
Y62553D01*
X64661Y57702D01*
X65927Y52976D01*
X67800Y48455D01*
X70246Y44217D01*
X73225Y40335D01*
X76685Y36875D01*
X80567Y33896D01*
X84805Y31450D01*
X89326Y29577D01*
X94052Y28311D01*
X98903Y27672D01*
X103797D01*
X108648Y28311D01*
X113374Y29577D01*
X117895Y31450D01*
X122133Y33896D01*
X126015Y36875D01*
X129475Y40335D01*
X132454Y44217D01*
X134900Y48455D01*
X136773Y52976D01*
X138039Y57702D01*
X138678Y62553D01*
Y67447D01*
X138039Y72298D01*
X136773Y77024D01*
X134900Y81545D01*
X132454Y85783D01*
X129475Y89665D01*
X126015Y93125D01*
X122133Y96104D01*
X117895Y98550D01*
X113374Y100423D01*
X108648Y101689D01*
X103797Y102328D01*
D02*
G37*
G36*
X751640Y726317D02*
Y717590D01*
X760367D01*
X759854Y719504D01*
X758334Y722136D01*
X756186Y724284D01*
X753554Y725804D01*
X751640Y726317D01*
D02*
G37*
G36*
X746560D02*
X744646Y725804D01*
X742014Y724284D01*
X739866Y722136D01*
X738346Y719504D01*
X737833Y717590D01*
X746560D01*
Y726317D01*
D02*
G37*
G36*
X871280Y739370D02*
X868220D01*
X865265Y738578D01*
X862615Y737048D01*
X860452Y734885D01*
X858922Y732235D01*
X858130Y729280D01*
Y726220D01*
X858922Y723265D01*
X860452Y720615D01*
X862615Y718452D01*
X865265Y716922D01*
X868220Y716130D01*
X871280D01*
X874235Y716922D01*
X876885Y718452D01*
X879048Y720615D01*
X880578Y723265D01*
X881370Y726220D01*
Y729280D01*
X880578Y732235D01*
X879048Y734885D01*
X876885Y737048D01*
X874235Y738578D01*
X871280Y739370D01*
D02*
G37*
G36*
X795080D02*
X792020D01*
X789065Y738578D01*
X786415Y737048D01*
X784252Y734885D01*
X782722Y732235D01*
X781930Y729280D01*
Y726220D01*
X782722Y723265D01*
X784252Y720615D01*
X786415Y718452D01*
X789065Y716922D01*
X792020Y716130D01*
X795080D01*
X798035Y716922D01*
X800685Y718452D01*
X802848Y720615D01*
X804378Y723265D01*
X805170Y726220D01*
Y729280D01*
X804378Y732235D01*
X802848Y734885D01*
X800685Y737048D01*
X798035Y738578D01*
X795080Y739370D01*
D02*
G37*
G36*
X760367Y712510D02*
X751640D01*
Y703783D01*
X753554Y704296D01*
X756186Y705816D01*
X758334Y707964D01*
X759854Y710596D01*
X760367Y712510D01*
D02*
G37*
G36*
X746560D02*
X737833D01*
X738346Y710596D01*
X739866Y707964D01*
X742014Y705816D01*
X744646Y704296D01*
X746560Y703783D01*
Y712510D01*
D02*
G37*
G36*
X858580Y713970D02*
X855520D01*
X852565Y713178D01*
X849915Y711648D01*
X847752Y709485D01*
X846222Y706835D01*
X845430Y703880D01*
Y700820D01*
X846222Y697865D01*
X847752Y695215D01*
X849915Y693052D01*
X852565Y691522D01*
X855520Y690730D01*
X858580D01*
X861535Y691522D01*
X864185Y693052D01*
X866348Y695215D01*
X867878Y697865D01*
X868670Y700820D01*
Y703880D01*
X867878Y706835D01*
X866348Y709485D01*
X864185Y711648D01*
X861535Y713178D01*
X858580Y713970D01*
D02*
G37*
G36*
X792470D02*
X769230D01*
Y690730D01*
X792470D01*
Y713970D01*
D02*
G37*
G36*
X801288Y636690D02*
X798512D01*
X795832Y635972D01*
X793428Y634584D01*
X791466Y632622D01*
X790078Y630218D01*
X789360Y627538D01*
Y624762D01*
X790078Y622082D01*
X791466Y619678D01*
X793428Y617716D01*
X795832Y616328D01*
X798512Y615610D01*
X801288D01*
X803968Y616328D01*
X806372Y617716D01*
X808334Y619678D01*
X809722Y622082D01*
X810440Y624762D01*
Y627538D01*
X809722Y630218D01*
X808334Y632622D01*
X806372Y634584D01*
X803968Y635972D01*
X801288Y636690D01*
D02*
G37*
G36*
X880060Y854010D02*
X872762D01*
X873132Y852628D01*
X874470Y850312D01*
X876361Y848420D01*
X878678Y847082D01*
X880060Y846712D01*
Y854010D01*
D02*
G37*
G36*
X778540D02*
X770540D01*
Y846010D01*
X778540D01*
Y854010D01*
D02*
G37*
%LPD*%
D26*
X182893Y775024D02*
G03*
X162827Y775024I-10033J0D01*
G01*
X177305D02*
G03*
X168415Y775024I-4445J0D01*
G01*
X356629D02*
G03*
X336563Y775024I-10033J0D01*
G01*
X206261D02*
G03*
X197371Y775024I-4445J0D01*
G01*
X211849D02*
G03*
X191783Y775024I-10033J0D01*
G01*
X240805D02*
G03*
X220739Y775024I-10033J0D01*
G01*
X235217D02*
G03*
X226327Y775024I-4445J0D01*
G01*
X293129D02*
G03*
X284239Y775024I-4445J0D01*
G01*
X327673D02*
G03*
X307607Y775024I-10033J0D01*
G01*
X379997Y774981D02*
G03*
X371107Y774981I-4445J0D01*
G01*
X385585D02*
G03*
X365519Y774981I-10033J0D01*
G01*
X264173Y775024D02*
G03*
X255283Y775024I-4445J0D01*
G01*
X269761D02*
G03*
X249695Y775024I-10033J0D01*
G01*
X298717D02*
G03*
X278651Y775024I-10033J0D01*
G01*
X322085D02*
G03*
X313195Y775024I-4445J0D01*
G01*
X351041D02*
G03*
X342151Y775024I-4445J0D01*
G01*
X463354Y689681D02*
G03*
X458909Y685236I0J-4445D01*
G01*
X450019Y677848D02*
G03*
X458909Y677848I4445J0D01*
G01*
X450019Y685236D02*
G03*
X445574Y689681I-4445J0D01*
G01*
X431917Y801864D02*
G03*
X436362Y806310I0J4445D01*
G01*
X420954Y801864D02*
G03*
X420954Y792974I0J-4445D01*
G01*
X436362Y788530D02*
G03*
X431917Y792974I-4445J0D01*
G01*
X762000Y919480D02*
G03*
X742600Y900080I0J-19400D01*
G01*
X1092200Y853440D02*
G03*
X1112012Y833628I19812J0D01*
G01*
X1122680Y857470D02*
G03*
X1123600Y856550I920J0D01*
G01*
X1137920Y889000D02*
G03*
X1122680Y873760I0J-15240D01*
G01*
X1332689Y873175D02*
G03*
X1316864Y889000I-15826J0D01*
G01*
X908000Y920800D02*
G03*
X894842Y933958I-13158J0D01*
G01*
X542116Y679337D02*
G03*
X531773Y689681I-10343J0D01*
G01*
X136014D02*
G03*
X126253Y684609I0J-11929D01*
G01*
X547704Y679337D02*
G03*
X531773Y695269I-15931J0D01*
G01*
X547704Y663712D02*
G03*
X551180Y655320I11868J0D01*
G01*
X124097Y702287D02*
G03*
X135321Y695269I11223J5465D01*
G01*
X413331Y689681D02*
G03*
X408886Y685236I0J-4445D01*
G01*
X388820Y680136D02*
G03*
X408886Y680136I10033J0D01*
G01*
X388820Y685962D02*
G03*
X379930Y685962I-4445J0D01*
G01*
X359864Y680136D02*
G03*
X379930Y680136I10033J0D01*
G01*
X359864Y685962D02*
G03*
X350974Y685962I-4445J0D01*
G01*
X330908Y680136D02*
G03*
X350974Y680136I10033J0D01*
G01*
X330908Y685962D02*
G03*
X322018Y685962I-4445J0D01*
G01*
X301952Y680136D02*
G03*
X322018Y680136I10033J0D01*
G01*
X301952Y685962D02*
G03*
X293062Y685962I-4445J0D01*
G01*
X272996Y680136D02*
G03*
X293062Y680136I10033J0D01*
G01*
X272996Y685962D02*
G03*
X264106Y685962I-4445J0D01*
G01*
X244040Y680136D02*
G03*
X264106Y680136I10033J0D01*
G01*
X244040Y685962D02*
G03*
X235150Y685962I-4445J0D01*
G01*
X215084Y680136D02*
G03*
X235150Y680136I10033J0D01*
G01*
X215084Y685962D02*
G03*
X206194Y685962I-4445J0D01*
G01*
X186128Y680136D02*
G03*
X206194Y680136I10033J0D01*
G01*
X186128Y685236D02*
G03*
X181683Y689681I-4445J0D01*
G01*
X413331Y695269D02*
G03*
X403298Y685236I0J-10033D01*
G01*
X394408Y680136D02*
G03*
X403298Y680136I4445J0D01*
G01*
X394408Y685962D02*
G03*
X374342Y685962I-10033J0D01*
G01*
X365452Y680136D02*
G03*
X374342Y680136I4445J0D01*
G01*
X365452Y685962D02*
G03*
X345386Y685962I-10033J0D01*
G01*
X336496Y680136D02*
G03*
X345386Y680136I4445J0D01*
G01*
X336496Y685962D02*
G03*
X316430Y685962I-10033J0D01*
G01*
X307540Y680136D02*
G03*
X316430Y680136I4445J0D01*
G01*
X307540Y685962D02*
G03*
X287474Y685962I-10033J0D01*
G01*
X278584Y680136D02*
G03*
X287474Y680136I4445J0D01*
G01*
X278584Y685962D02*
G03*
X258518Y685962I-10033J0D01*
G01*
X249628Y680136D02*
G03*
X258518Y680136I4445J0D01*
G01*
X249628Y685962D02*
G03*
X229562Y685962I-10033J0D01*
G01*
X220672Y680136D02*
G03*
X229562Y680136I4445J0D01*
G01*
X220672Y685962D02*
G03*
X200606Y685962I-10033J0D01*
G01*
X191716Y680136D02*
G03*
X200606Y680136I4445J0D01*
G01*
X191716Y685236D02*
G03*
X181683Y695269I-10033J0D01*
G01*
X500507Y630473D02*
G03*
X496062Y626028I0J-4445D01*
G01*
X487172Y619829D02*
G03*
X496062Y619829I4445J0D01*
G01*
X487172Y626028D02*
G03*
X482727Y630473I-4445J0D01*
G01*
X327673Y747921D02*
G03*
X336563Y747921I4445J0D01*
G01*
X293129D02*
G03*
X313195Y747921I10033J0D01*
G01*
X264173D02*
G03*
X284239Y747921I10033J0D01*
G01*
X177305D02*
G03*
X197371Y747921I10033J0D01*
G01*
X158382Y753581D02*
G03*
X162827Y758026I0J4445D01*
G01*
X379997D02*
G03*
X390030Y747993I10033J0D01*
G01*
X235217Y747921D02*
G03*
X255283Y747921I10033J0D01*
G01*
X158382Y747993D02*
G03*
X168415Y758026I0J10033D01*
G01*
X206261Y747921D02*
G03*
X226327Y747921I10033J0D01*
G01*
X240805D02*
G03*
X249695Y747921I4445J0D01*
G01*
X356629D02*
G03*
X365519Y747921I4445J0D01*
G01*
X322085D02*
G03*
X342151Y747921I10033J0D01*
G01*
X269761D02*
G03*
X278651Y747921I4445J0D01*
G01*
X182893D02*
G03*
X191783Y747921I4445J0D01*
G01*
X211849D02*
G03*
X220739Y747921I4445J0D01*
G01*
X351041D02*
G03*
X371107Y747921I10033J0D01*
G01*
X385585Y758026D02*
G03*
X390030Y753581I4445J0D01*
G01*
X298717Y747921D02*
G03*
X307607Y747921I4445J0D01*
G01*
X97131Y712659D02*
G03*
X101092Y720457I-5695J7798D01*
G01*
X124874Y747993D02*
G03*
X106680Y729799I0J-18194D01*
G01*
X451856Y869845D02*
G03*
X441950Y859939I0J-9906D01*
G01*
X422599Y747993D02*
G03*
X441950Y767343I0J19350D01*
G01*
X124874Y753581D02*
G03*
X101092Y729799I0J-23782D01*
G01*
X436362Y859939D02*
G03*
X426456Y869845I-9906J0D01*
G01*
X422599Y753581D02*
G03*
X436362Y767343I0J13762D01*
G01*
X91436Y677752D02*
G03*
X106680Y692996I0J15244D01*
G01*
X880453Y794797D02*
G03*
X876257Y796535I-4196J-4196D01*
G01*
X881006Y794243D02*
G03*
X883866Y793059I2859J2859D01*
G01*
X698681Y777922D02*
G03*
X697497Y780781I-4044J0D01*
G01*
X700300Y796535D02*
G03*
X695205Y791440I0J-5095D01*
G01*
Y785531D02*
G03*
X696943Y781335I5934J0D01*
G01*
X883866Y805599D02*
G03*
X881006Y804415I0J-4044D01*
G01*
X876257Y802123D02*
G03*
X880453Y803861I0J5934D01*
G01*
X700300Y802123D02*
G03*
X689617Y791440I0J-10683D01*
G01*
X687879Y781335D02*
G03*
X689617Y785531I-4196J4196D01*
G01*
X687325Y780781D02*
G03*
X686141Y777922I2859J-2859D01*
G01*
X956384Y962656D02*
G03*
X951938Y958212I0J-4445D01*
G01*
X943048Y954901D02*
G03*
X951938Y954901I4445J0D01*
G01*
X943048Y958212D02*
G03*
X938604Y962656I-4445J0D01*
G01*
X972820Y837928D02*
G03*
X972820Y817862I0J-10033D01*
G01*
Y832340D02*
G03*
X972820Y823450I0J-4445D01*
G01*
X1026983Y919208D02*
G03*
X1038159Y930384I0J11176D01*
G01*
X1025468Y924796D02*
G03*
X1032571Y931899I0J7103D01*
G01*
X1028153Y866884D02*
G03*
X1028153Y875774I0J4445D01*
G01*
Y895840D02*
G03*
X1028153Y904730I0J4445D01*
G01*
Y808972D02*
G03*
X1028153Y817862I0J4445D01*
G01*
Y837928D02*
G03*
X1028153Y846818I0J4445D01*
G01*
X1032571Y953770D02*
G03*
X1023684Y962656I-8887J0D01*
G01*
X1017231Y808972D02*
G03*
X1007198Y798939I0J-10033D01*
G01*
X1005460Y781161D02*
G03*
X1007198Y785357I-4196J4196D01*
G01*
X1004906Y780607D02*
G03*
X1003722Y777748I2859J-2859D01*
G01*
X970598Y924796D02*
G03*
X970598Y904730I0J-10033D01*
G01*
X201461Y962656D02*
G03*
X188240Y949436I0J-13221D01*
G01*
Y904861D02*
G03*
X197856Y895245I9616J0D01*
G01*
X970598Y866884D02*
G03*
X970598Y846818I0J-10033D01*
G01*
Y895840D02*
G03*
X970598Y875774I0J-10033D01*
G01*
X1028153Y861296D02*
G03*
X1028153Y881362I0J10033D01*
G01*
Y890252D02*
G03*
X1028153Y910318I0J10033D01*
G01*
Y803384D02*
G03*
X1028153Y823450I0J10033D01*
G01*
Y832340D02*
G03*
X1028153Y852406I0J10033D01*
G01*
X1038159Y953770D02*
G03*
X1023684Y968244I-14475J0D01*
G01*
X1012786Y785357D02*
G03*
X1014524Y781161I5934J0D01*
G01*
X1016262Y777748D02*
G03*
X1015078Y780607I-4044J0D01*
G01*
X970598Y890252D02*
G03*
X970598Y881362I0J-4445D01*
G01*
Y919208D02*
G03*
X970598Y910318I0J-4445D01*
G01*
X201461Y968244D02*
G03*
X182652Y949436I0J-18809D01*
G01*
X970598Y861296D02*
G03*
X970598Y852406I0J-4445D01*
G01*
X1017231Y803384D02*
G03*
X1012786Y798939I0J-4445D01*
G01*
X93953Y980678D02*
G03*
X89508Y976233I0J-4445D01*
G01*
X80618Y971619D02*
G03*
X89508Y971619I4445J0D01*
G01*
X80618Y976233D02*
G03*
X71728Y976233I-4445J0D01*
G01*
X62838Y971619D02*
G03*
X71728Y971619I4445J0D01*
G01*
X62838Y976233D02*
G03*
X58393Y980678I-4445J0D01*
G01*
X1098830Y796972D02*
G03*
X1095970Y795788I0J-4044D01*
G01*
X1091221Y793496D02*
G03*
X1095417Y795234I0J5934D01*
G01*
X1062394Y966788D02*
G03*
X1042916Y986266I-19478J0D01*
G01*
X1062394Y802761D02*
G03*
X1071659Y793496I9265J0D01*
G01*
X26877Y986266D02*
G03*
X12966Y972355I0J-13911D01*
G01*
Y839759D02*
G03*
X27225Y825500I14259J0D01*
G01*
X171222D02*
G03*
X187986Y842264I0J16764D01*
G01*
X197856Y869845D02*
G03*
X187986Y859975I0J-9870D01*
G01*
X1095970Y785616D02*
G03*
X1098830Y784432I2859J2859D01*
G01*
X1095417Y786170D02*
G03*
X1091221Y787908I-4196J-4196D01*
G01*
X1056806Y802761D02*
G03*
X1071659Y787908I14853J0D01*
G01*
X1056806Y966788D02*
G03*
X1042916Y980678I-13890J0D01*
G01*
X26877D02*
G03*
X18554Y972355I0J-8323D01*
G01*
Y839759D02*
G03*
X27225Y831088I8671J0D01*
G01*
X171222D02*
G03*
X182398Y842264I0J11176D01*
G01*
Y859903D02*
G03*
X172456Y869845I-9942J0D01*
G01*
X503866Y718820D02*
G03*
X512562Y727516I0J8696D01*
G01*
Y743448D02*
G03*
X510270Y748981I-7824J0D01*
G01*
X509086Y751840D02*
G03*
X510270Y748981I4044J0D01*
G01*
X220029Y721112D02*
G03*
X217170Y722296I-2859J-2859D01*
G01*
X220583Y720558D02*
G03*
X224779Y718820I4196J4196D01*
G01*
X520442Y748981D02*
G03*
X521626Y751840I-2859J2859D01*
G01*
X520442Y748981D02*
G03*
X518150Y743448I5533J-5533D01*
G01*
X503866Y713232D02*
G03*
X518150Y727516I0J14284D01*
G01*
X224779Y713232D02*
G03*
X220583Y711494I0J-5934D01*
G01*
X217170Y709756D02*
G03*
X220029Y710940I0J4044D01*
G01*
X137888Y630473D02*
G03*
X125360Y623721I0J-14999D01*
G01*
X129271Y639917D02*
G03*
X138603Y636061I9332J9365D01*
G01*
X574040Y622227D02*
G03*
X560205Y636061I-13835J0D01*
G01*
X568452Y622227D02*
G03*
X560205Y630473I-8246J0D01*
G01*
X574040Y598942D02*
G03*
X577516Y590550I11868J0D01*
G01*
X564976D02*
G03*
X568452Y598942I-8392J8392D01*
G01*
X538640Y655320D02*
G03*
X542116Y663712I-8392J8392D01*
G01*
X885564Y618137D02*
G03*
X881119Y622582I-4445J0D01*
G01*
X868167Y631472D02*
G03*
X868167Y622582I0J-4445D01*
G01*
X881119Y631472D02*
G03*
X885564Y635917I0J4445D01*
G01*
Y645868D02*
G03*
X885535Y646712I-12500J0D01*
G01*
X1266564Y618137D02*
G03*
X1262119Y622582I-4445J0D01*
G01*
X1249167Y631472D02*
G03*
X1249167Y622582I0J-4445D01*
G01*
X1262119Y631472D02*
G03*
X1266564Y635917I0J4445D01*
G01*
Y645868D02*
G03*
X1266535Y646712I-12500J0D01*
G01*
X1210568Y718154D02*
G03*
X1210566Y718153I9382J-17663D01*
G01*
D02*
G03*
X1199950Y700429I9384J-17662D01*
G01*
X1266535Y646712D02*
G03*
X1254064Y658368I-12471J-844D01*
G01*
X1194362Y673166D02*
G03*
X1209160Y658368I14798J0D01*
G01*
X1222095Y593090D02*
G03*
X1233028Y582157I10933J0D01*
G01*
X1258441D02*
G03*
X1272152Y595868I0J13711D01*
G01*
X1222095Y599197D02*
G03*
X1217857Y603436I-4238J0D01*
G01*
X1272152Y645868D02*
G03*
X1254064Y663956I-18088J0D01*
G01*
X1227683Y593090D02*
G03*
X1233028Y587745I5345J0D01*
G01*
X1258441D02*
G03*
X1266564Y595868I0J8123D01*
G01*
X1231922Y603436D02*
G03*
X1227683Y599197I0J-4238D01*
G01*
X1199950Y673166D02*
G03*
X1209160Y663956I9210J0D01*
G01*
X1194362Y690880D02*
G03*
X1191280Y698320I-10521J0D01*
G01*
X813362Y690880D02*
G03*
X810280Y698320I-10521J0D01*
G01*
X831106Y719223D02*
G03*
X818950Y699004I10736J-20219D01*
G01*
X818950Y673166D02*
G03*
X828160Y663956I9210J0D01*
G01*
X813362Y673166D02*
G03*
X828160Y658368I14798J0D01*
G01*
X885564Y645868D02*
G03*
X873064Y658368I-12500J0D01*
G01*
X850922Y603436D02*
G03*
X846683Y599197I0J-4238D01*
G01*
X877441Y587745D02*
G03*
X885564Y595868I0J8123D01*
G01*
X846683Y593090D02*
G03*
X852028Y587745I5345J0D01*
G01*
X891152Y645868D02*
G03*
X873064Y663956I-18088J0D01*
G01*
X841095Y599197D02*
G03*
X836857Y603436I-4238J0D01*
G01*
X877441Y582157D02*
G03*
X891152Y595868I0J13711D01*
G01*
X841095Y593090D02*
G03*
X852028Y582157I10933J0D01*
G01*
X653932Y577187D02*
G03*
X677256Y553863I23324J0D01*
G01*
X644788Y575437D02*
G03*
X674750Y545475I29962J0D01*
G01*
X1309539Y553863D02*
G03*
X1325144Y569468I0J15605D01*
G01*
X1311786Y545475D02*
G03*
X1332689Y566378I0J20903D01*
G01*
X1325144Y820928D02*
G03*
X1312444Y833628I-12700J0D01*
G01*
X644788Y902013D02*
G03*
X633435Y913367I-11353J0D01*
G01*
X362992Y884174D02*
G03*
X362992Y884181I-3810J0D01*
G01*
X371294Y913367D02*
G03*
X362973Y905046I0J-8321D01*
G01*
X653932Y903177D02*
G03*
X635379Y921730I-18553J0D01*
G01*
X361501D02*
G03*
X350256Y910485I0J-11245D01*
G01*
Y869845D02*
G03*
X362992Y882581I0J12736D01*
G01*
X172456Y895245D02*
G03*
X182652Y905441I0J10196D01*
G01*
X365519Y747921D02*
Y774981D01*
X356629Y747921D02*
Y775024D01*
X255283Y747921D02*
Y775024D01*
X351041Y747921D02*
Y775024D01*
X264173Y747921D02*
Y775024D01*
X385585Y758026D02*
Y774981D01*
X371107Y747921D02*
Y774981D01*
X162827Y758026D02*
Y775024D01*
X336563Y747921D02*
Y775024D01*
X379997Y758026D02*
Y774981D01*
X197371Y747921D02*
Y775024D01*
X293129Y747921D02*
Y775024D01*
X342151Y747921D02*
Y775024D01*
X182893Y747921D02*
Y775024D01*
X313195Y747921D02*
Y775024D01*
X327673Y747921D02*
Y775024D01*
X226327Y747921D02*
Y775024D01*
X298717Y747921D02*
Y775024D01*
X278651Y747921D02*
Y775024D01*
X249695Y747921D02*
Y775024D01*
X220739Y747921D02*
Y775024D01*
X235217Y747921D02*
Y775024D01*
X240805Y747921D02*
Y775024D01*
X206261Y747921D02*
Y775024D01*
X211849Y747921D02*
Y775024D01*
X168415Y758026D02*
Y775024D01*
X269761Y747921D02*
Y775024D01*
X177305Y747921D02*
Y775024D01*
X284239Y747921D02*
Y775024D01*
X307607Y747921D02*
Y775024D01*
X322085Y747921D02*
Y775024D01*
X191783Y747921D02*
Y775024D01*
X463354Y689681D02*
X477520D01*
X458909Y677848D02*
Y685236D01*
X450019Y677848D02*
Y685236D01*
X434779Y689681D02*
X445574D01*
X436362Y806310D02*
Y816715D01*
X420954Y801864D02*
X431917D01*
X420954Y792974D02*
X431917D01*
X436362Y786624D02*
Y788530D01*
X742600Y856550D02*
Y900080D01*
X762000Y919480D02*
X863600D01*
X1092200Y853440D02*
Y919480D01*
X1112012Y833628D02*
X1312444D01*
X1122680Y857470D02*
Y873760D01*
X1137920Y889000D02*
X1316864D01*
X1332689Y566378D02*
Y873175D01*
X240056Y944880D02*
X908000D01*
Y856550D02*
Y920800D01*
X220498Y933958D02*
X894842D01*
X477520Y689681D02*
X531773D01*
X542116Y663712D02*
Y679337D01*
X136014Y689681D02*
X162506D01*
X121436Y677752D02*
X126253Y684609D01*
X428446Y695269D02*
X531773D01*
X547704Y663712D02*
Y679337D01*
X135321Y695269D02*
X162506D01*
X121436Y707752D02*
X124097Y702287D01*
X428446Y689681D02*
X434779D01*
X413331D02*
X428446D01*
X408886Y680136D02*
Y685236D01*
X388820Y680136D02*
Y685962D01*
X379930Y680136D02*
Y685962D01*
X359864Y680136D02*
Y685962D01*
X350974Y680136D02*
Y685962D01*
X330908Y680136D02*
Y685962D01*
X322018Y680136D02*
Y685962D01*
X301952Y680136D02*
Y685962D01*
X293062Y680136D02*
Y685962D01*
X272996Y680136D02*
Y685962D01*
X264106Y680136D02*
Y685962D01*
X244040Y680136D02*
Y685962D01*
X235150Y680136D02*
Y685962D01*
X215084Y680136D02*
Y685962D01*
X206194Y680136D02*
Y685962D01*
X186128Y680136D02*
Y685236D01*
X162506Y689681D02*
X181683D01*
X413331Y695269D02*
X428446D01*
X403298Y680136D02*
Y685236D01*
X394408Y680136D02*
Y685962D01*
X374342Y680136D02*
Y685962D01*
X365452Y680136D02*
Y685962D01*
X345386Y680136D02*
Y685962D01*
X336496Y680136D02*
Y685962D01*
X316430Y680136D02*
Y685962D01*
X307540Y680136D02*
Y685962D01*
X287474Y680136D02*
Y685962D01*
X278584Y680136D02*
Y685962D01*
X258518Y680136D02*
Y685962D01*
X249628Y680136D02*
Y685962D01*
X229562Y680136D02*
Y685962D01*
X220672Y680136D02*
Y685962D01*
X200606Y680136D02*
Y685962D01*
X191716Y680136D02*
Y685236D01*
X162506Y695269D02*
X181683D01*
X500507Y630473D02*
X508862D01*
X496062Y619829D02*
Y626028D01*
X487172Y619829D02*
Y626028D01*
X471932Y630473D02*
X482727D01*
X508862D02*
X560205D01*
X137888D02*
X471932D01*
X436362Y816715D02*
Y859939D01*
Y767343D02*
Y786624D01*
X153683Y747993D02*
X158382D01*
X124874Y753581D02*
X158382D01*
X390030D02*
X422599D01*
X390030Y747993D02*
X404116D01*
X422599D01*
X124874D02*
X153683D01*
X96777Y713018D02*
X97131Y713367D01*
X95385Y711645D02*
X96777Y713018D01*
X95628Y711364D02*
X97131Y712659D01*
X91436Y707752D02*
X95628Y711364D01*
X101092Y720457D02*
Y729799D01*
X91436Y707752D02*
X95385Y711645D01*
X97131Y713367D02*
Y713447D01*
X106680Y692996D02*
Y729799D01*
X441950Y767343D02*
Y859939D01*
X880453Y794797D02*
X881006Y794243D01*
X700300Y796535D02*
X876257D01*
X696943Y781335D02*
X697497Y780781D01*
X695205Y785531D02*
Y791440D01*
X880453Y803861D02*
X881006Y804415D01*
X700300Y802123D02*
X876257D01*
X689617Y785531D02*
Y791440D01*
X687325Y780781D02*
X687879Y781335D01*
X956384Y962656D02*
X965200D01*
X951938Y954901D02*
Y958212D01*
X943048Y954901D02*
Y958212D01*
X927808Y962656D02*
X938604D01*
X965200D02*
X1023684D01*
X201461D02*
X927808D01*
X972820Y832340D02*
X1028153D01*
X972820Y817862D02*
X1028153D01*
X972820Y837928D02*
X1028153D01*
X972820Y823450D02*
X1028153D01*
X1038159Y930384D02*
Y953770D01*
X970598Y919208D02*
X1026983D01*
X1032571Y931899D02*
Y953770D01*
X970598Y924796D02*
X1025468D01*
X1017231Y808972D02*
X1028153D01*
X1007198Y785357D02*
Y798939D01*
X1004906Y780607D02*
X1005460Y781161D01*
X970598Y895840D02*
X1028153D01*
X970598Y904730D02*
X1028153D01*
X188240Y904861D02*
Y949436D01*
X970598Y866884D02*
X1028153D01*
X970598Y846818D02*
X1028153D01*
X970598Y875774D02*
X1028153D01*
X1017231Y803384D02*
X1028153D01*
X1014524Y781161D02*
X1015078Y780607D01*
X970598Y910318D02*
X1028153D01*
X201461Y968244D02*
X1023684D01*
X970598Y890252D02*
X1028153D01*
X182652Y905441D02*
Y949436D01*
X970598Y861296D02*
X1028153D01*
X970598Y852406D02*
X1028153D01*
X970598Y881362D02*
X1028153D01*
X1012786Y785357D02*
Y798939D01*
X101461Y980678D02*
X1042916D01*
X93953D02*
X101461D01*
X89508Y971619D02*
Y976233D01*
X80618Y971619D02*
Y976233D01*
X71728Y971619D02*
Y976233D01*
X62838Y971619D02*
Y976233D01*
X47598Y980678D02*
X58393D01*
X26877D02*
X47598D01*
X1095417Y795234D02*
X1095970Y795788D01*
X1071659Y793496D02*
X1091221D01*
X1062394Y966788D02*
X1062394Y802761D01*
X26877Y986266D02*
X1042916D01*
X12966Y839759D02*
Y972355D01*
X27225Y825500D02*
X171222D01*
X187986Y842264D02*
Y859975D01*
X1095417Y786170D02*
X1095970Y785616D01*
X1071659Y787908D02*
X1091221D01*
X1056806Y966788D02*
X1056806Y802761D01*
X18554Y839759D02*
Y972355D01*
X27225Y831088D02*
X171222D01*
X182398Y842264D02*
Y859903D01*
X512562Y727516D02*
Y743448D01*
X224779Y718820D02*
X503866D01*
X220029Y721112D02*
X220583Y720558D01*
X518150Y727516D02*
Y743448D01*
X224779Y713232D02*
X503866D01*
X220029Y710940D02*
X220583Y711494D01*
X121436Y617752D02*
X125360Y623721D01*
X138603Y636061D02*
X138625Y636061D01*
X560205D01*
X121436Y647752D02*
X129271Y639917D01*
X574040Y598942D02*
Y622227D01*
X568452Y598942D02*
Y622227D01*
X885564Y609643D02*
Y618137D01*
X868167Y622582D02*
X881119D01*
X868167Y631472D02*
X881119D01*
X885564Y635917D02*
Y645868D01*
Y595868D02*
Y609643D01*
X1266564D02*
Y618137D01*
X1249167Y622582D02*
X1262119D01*
X1249167Y631472D02*
X1262119D01*
X1266564Y635917D02*
Y645868D01*
X1224888Y726248D02*
X1225350Y727750D01*
X1210568Y718154D02*
X1223814Y725173D01*
X1224888Y726248D01*
X1199950Y673166D02*
Y700430D01*
X1266564Y595868D02*
Y609643D01*
X1209160Y658368D02*
X1254064D01*
X1194362Y673166D02*
Y690880D01*
X1209160Y663956D02*
X1254064D01*
X1222095Y593090D02*
Y599197D01*
X1233028Y582157D02*
X1258441D01*
X1272152Y595868D02*
Y645868D01*
X1227683Y593090D02*
Y599197D01*
X1233028Y587745D02*
X1258441D01*
X1187250Y702350D02*
X1191280Y698320D01*
X806250Y702350D02*
X810280Y698320D01*
X813362Y673166D02*
Y690880D01*
X818950Y673166D02*
Y699004D01*
X842907Y725476D02*
X843981Y726551D01*
X831106Y719223D02*
X842907Y725476D01*
X843981Y726551D02*
X844350Y727750D01*
X852028Y587745D02*
X877441D01*
X846683Y593090D02*
Y599197D01*
X828160Y658368D02*
X873064D01*
X891152Y595868D02*
Y645868D01*
X852028Y582157D02*
X877441D01*
X841095Y593090D02*
Y599197D01*
X828160Y663956D02*
X873064D01*
X644788Y575437D02*
Y902013D01*
X677256Y553863D02*
X1309539D01*
X653932Y577187D02*
Y903177D01*
X674750Y545475D02*
X1311786D01*
X1325144Y569468D02*
Y820928D01*
X371294Y913367D02*
X633435D01*
X362992Y882581D02*
Y884174D01*
X362973Y900499D02*
Y905046D01*
X361501Y921730D02*
X635379D01*
X362973Y895031D02*
Y900499D01*
Y895031D02*
X362973Y895031D01*
Y892072D02*
Y895031D01*
Y892072D02*
X362978Y892067D01*
X362973Y900499D02*
X362973Y900499D01*
X362978Y892067D02*
X362992Y884181D01*
X350256Y895245D02*
Y910485D01*
D27*
X783745Y185008D02*
G03*
X785073Y181798I4542J0D01*
G01*
X785421Y181451D02*
G03*
X785419Y181452I-4044J-4041D01*
G01*
X787094Y177409D02*
G03*
X785421Y181451I-5717J0D01*
G01*
X779780Y121920D02*
G03*
X787094Y129234I0J7314D01*
G01*
X785073Y181798D02*
G03*
X785075Y181796I3213J3210D01*
G01*
X722377Y123593D02*
G03*
X726418Y121920I4041J4044D01*
G01*
X722030Y123941D02*
G03*
X718820Y125269I-3210J-3213D01*
G01*
X722031Y123939D02*
G03*
X722030Y123941I-3211J-3211D01*
G01*
X722376Y123595D02*
G03*
X722377Y123593I4043J4043D01*
G01*
X794956Y181798D02*
G03*
X796285Y185008I-3213J3210D01*
G01*
X794955Y181796D02*
G03*
X794956Y181798I-3211J3211D01*
G01*
X794610Y181452D02*
G03*
X794609Y181451I4043J-4043D01*
G01*
D02*
G03*
X792936Y177409I4044J-4041D01*
G01*
X779780Y116078D02*
G03*
X792936Y129234I0J13156D01*
G01*
X726418Y116078D02*
G03*
X722377Y114405I0J-5717D01*
G01*
D02*
G03*
X722376Y114403I4041J-4044D01*
G01*
X722030Y114057D02*
G03*
X722031Y114059I-3210J3213D01*
G01*
X718820Y112729D02*
G03*
X722030Y114057I0J4542D01*
G01*
X787094Y129234D02*
Y177409D01*
X785073Y181798D02*
X785075Y181796D01*
X785419Y181452D02*
X785421Y181451D01*
X785075Y181796D02*
X785419Y181452D01*
X726418Y121920D02*
X779780D01*
X722376Y123595D02*
X722377Y123593D01*
X722031Y123939D02*
X722376Y123595D01*
X722030Y123941D02*
X722031Y123939D01*
X794955Y181796D02*
X794956Y181798D01*
X794610Y181452D02*
X794955Y181796D01*
X794609Y181451D02*
X794610Y181452D01*
X792936Y129234D02*
Y177409D01*
X726418Y116078D02*
X779780D01*
X722376Y114403D02*
X722377Y114405D01*
X722031Y114059D02*
X722376Y114403D01*
X722030Y114057D02*
X722031Y114059D01*
D28*
X1048030Y739813D02*
G03*
X1038035Y749808I-9995J0D01*
G01*
X993236D02*
G03*
X984530Y741102I0J-8706D01*
G01*
X629920Y840604D02*
Y840740D01*
X1048030Y722094D02*
Y739813D01*
X993236Y749808D02*
X1038035D01*
X984530Y734175D02*
Y741102D01*
D29*
X667030Y580386D02*
G03*
X680238Y567178I13208J0D01*
G01*
X667030Y580386D02*
Y722094D01*
X680238Y567178D02*
X984166D01*
Y733811D01*
D30*
X1189791Y581187D02*
G03*
X1197450Y588846I0J7659D01*
G01*
X809892Y581187D02*
G03*
X816450Y587745I0J6558D01*
G01*
X1088674Y668020D02*
G03*
X1098830Y678175I0J10155D01*
G01*
X1073430Y589057D02*
G03*
X1081300Y581187I7870J0D01*
G01*
X692430Y589057D02*
G03*
X700300Y581187I7870J0D01*
G01*
X707674Y668020D02*
G03*
X717830Y678175I0J10155D01*
G01*
X1081300Y581187D02*
X1189791D01*
X1197450Y588846D02*
Y603436D01*
X816450Y587745D02*
Y603436D01*
X700300Y581187D02*
X809892D01*
X1073430Y668020D02*
X1088674D01*
X1048030Y764540D02*
X1098830D01*
X1073430Y589057D02*
Y618368D01*
X1098830Y678175D02*
Y764540D01*
X717830Y678175D02*
Y764540D01*
X692430Y589057D02*
Y618368D01*
X667030Y764540D02*
X717830D01*
X692430Y668020D02*
X707674D01*
D31*
X493656Y840740D02*
X629920D01*
X603530Y506815D02*
Y734175D01*
D32*
X121436Y617752D02*
D03*
Y647752D02*
D03*
Y677752D02*
D03*
Y707752D02*
D03*
X91436Y617752D02*
D03*
Y647752D02*
D03*
Y677752D02*
D03*
D33*
Y707752D02*
D03*
D34*
X274056Y895245D02*
D03*
X274056Y869845D02*
D03*
X248656Y895245D02*
D03*
Y869845D02*
D03*
X223256Y895245D02*
D03*
Y869845D02*
D03*
X197856Y895245D02*
D03*
Y869845D02*
D03*
X172456Y895245D02*
D03*
X172456Y869845D02*
D03*
X147056Y895245D02*
D03*
X147056Y869845D02*
D03*
X121656Y895245D02*
D03*
Y869845D02*
D03*
X96256Y895245D02*
D03*
Y869845D02*
D03*
X70856Y895245D02*
D03*
Y869845D02*
D03*
X45456Y895245D02*
D03*
X324856D02*
D03*
X350256Y869845D02*
D03*
Y895245D02*
D03*
X375656Y869845D02*
D03*
Y895245D02*
D03*
X401056Y869845D02*
D03*
Y895245D02*
D03*
X426456Y869845D02*
D03*
X426456Y895245D02*
D03*
X451856Y869845D02*
D03*
X451856Y895245D02*
D03*
X477256Y869845D02*
D03*
Y895245D02*
D03*
X502656Y869845D02*
D03*
Y895245D02*
D03*
X528056Y869845D02*
D03*
Y895245D02*
D03*
X553456Y869845D02*
D03*
X553456Y895245D02*
D03*
X749100Y715050D02*
D03*
X1130100D02*
D03*
D35*
X45456Y869845D02*
D03*
X324856D02*
D03*
D36*
X742600Y856550D02*
D03*
X1123600D02*
D03*
D37*
X768000D02*
D03*
X1149000D02*
D03*
D38*
X825300Y248550D02*
D03*
Y286650D02*
D03*
X863400Y343800D02*
D03*
X780850Y337450D02*
D03*
X1288850Y229500D02*
D03*
X1206300Y286650D02*
D03*
X1174550Y305700D02*
D03*
X1238050D02*
D03*
X1244400Y337450D02*
D03*
X1168200Y343800D02*
D03*
D39*
X857050Y305700D02*
D03*
X793550D02*
D03*
D40*
X780850Y702350D02*
D03*
X1161850D02*
D03*
D41*
X793550Y727750D02*
D03*
X806250Y702350D02*
D03*
X818950Y727750D02*
D03*
X831650Y702350D02*
D03*
X844350Y727750D02*
D03*
X857050Y702350D02*
D03*
X869750Y727750D02*
D03*
X1174550D02*
D03*
X1187250Y702350D02*
D03*
X1199950Y727750D02*
D03*
X1212650Y702350D02*
D03*
X1225350Y727750D02*
D03*
X1238050Y702350D02*
D03*
X1250750Y727750D02*
D03*
D42*
X908000Y856550D02*
D03*
X882600D02*
D03*
X1289000D02*
D03*
X1263600D02*
D03*
D43*
X1351350Y935000D02*
D03*
Y65000D02*
D03*
X101350D02*
D03*
Y785000D02*
D03*
D44*
X680720Y911860D02*
D03*
X161189Y916940D02*
D03*
X336377Y920662D02*
D03*
X158642Y807720D02*
D03*
X205152D02*
D03*
X483672Y810260D02*
D03*
X390030Y808555D02*
D03*
X336396Y807720D02*
D03*
X167652Y733702D02*
D03*
X128430D02*
D03*
X140849Y677752D02*
D03*
X421640Y657860D02*
D03*
X1306876Y874777D02*
D03*
X1356876Y774777D02*
D03*
X1306876Y674777D02*
D03*
X1356876Y574776D02*
D03*
X1306876Y474776D02*
D03*
X1356876Y374776D02*
D03*
X1306876Y274776D02*
D03*
X1356876Y174776D02*
D03*
X1256876Y774777D02*
D03*
X1206876Y474776D02*
D03*
X1256876Y374776D02*
D03*
Y174776D02*
D03*
X1206876Y74777D02*
D03*
X1156876Y774777D02*
D03*
X1106876Y474776D02*
D03*
X1156876Y374776D02*
D03*
X1106876Y274776D02*
D03*
X1156876Y174776D02*
D03*
X1106876Y74777D02*
D03*
X1006876Y474776D02*
D03*
X1056876Y374776D02*
D03*
X1006876Y274776D02*
D03*
X1056876Y174776D02*
D03*
X1006876Y74777D02*
D03*
X956876Y774777D02*
D03*
X906876Y474776D02*
D03*
X956876Y374776D02*
D03*
X906876Y274776D02*
D03*
X956876Y174776D02*
D03*
X906876Y74777D02*
D03*
X856876Y774777D02*
D03*
X806876Y474776D02*
D03*
X856876Y374776D02*
D03*
Y174776D02*
D03*
X806876Y74777D02*
D03*
X706876Y874777D02*
D03*
X756876Y774777D02*
D03*
X706876Y474776D02*
D03*
X756876Y374776D02*
D03*
X706876Y274776D02*
D03*
X756876Y174776D02*
D03*
X706876Y74777D02*
D03*
X606876Y474776D02*
D03*
X656876Y374776D02*
D03*
X606876Y274776D02*
D03*
X656876Y174776D02*
D03*
X606876Y74777D02*
D03*
X506876Y657860D02*
D03*
X556876Y574776D02*
D03*
X506876Y474776D02*
D03*
X556876Y374776D02*
D03*
X506876Y274776D02*
D03*
X556876Y174776D02*
D03*
X506876Y74777D02*
D03*
X456876Y774777D02*
D03*
X406876Y274776D02*
D03*
Y74777D02*
D03*
X356876Y374776D02*
D03*
X306876Y274776D02*
D03*
X356876Y174776D02*
D03*
X306876Y74777D02*
D03*
X256876Y374776D02*
D03*
X206876Y274776D02*
D03*
X256876Y174776D02*
D03*
X206876Y74777D02*
D03*
X156876Y574776D02*
D03*
X106876Y474776D02*
D03*
X156876Y374776D02*
D03*
X106876Y274776D02*
D03*
X156876Y174776D02*
D03*
X863600Y919480D02*
D03*
X1092200D02*
D03*
X908000Y944880D02*
D03*
X789971Y222874D02*
D03*
X796285Y185008D02*
D03*
X783745D02*
D03*
X718820Y112729D02*
D03*
Y125269D02*
D03*
X629920Y840604D02*
D03*
X493656Y840740D02*
D03*
X628930Y734175D02*
D03*
X1228401Y227054D02*
D03*
X240056Y944880D02*
D03*
X217170Y709756D02*
D03*
Y722296D02*
D03*
X509086Y751840D02*
D03*
X521626D02*
D03*
X551180Y655320D02*
D03*
X538640D02*
D03*
X564976Y590550D02*
D03*
X577516D02*
D03*
X1003722Y777748D02*
D03*
X1016262D02*
D03*
X984166Y567178D02*
D03*
X603530Y506815D02*
D03*
X1098830Y784432D02*
D03*
Y796972D02*
D03*
X1009930Y734175D02*
D03*
X1048030Y722094D02*
D03*
X1073430Y736715D02*
D03*
Y668020D02*
D03*
X1048030Y764540D02*
D03*
X1098830D02*
D03*
X1197450Y603436D02*
D03*
X1073430Y618368D02*
D03*
X1217857Y603436D02*
D03*
X1231922D02*
D03*
X1273730Y727416D02*
D03*
X984530Y734175D02*
D03*
X603530D02*
D03*
X850922Y603436D02*
D03*
X836857D02*
D03*
X692430Y618368D02*
D03*
X816450Y603436D02*
D03*
X686141Y777922D02*
D03*
X698681D02*
D03*
X717830Y764540D02*
D03*
X667030D02*
D03*
X692430Y668020D02*
D03*
X883866Y793059D02*
D03*
Y805599D02*
D03*
X692430Y736715D02*
D03*
X667030Y722094D02*
D03*
X220498Y933958D02*
D03*
M02*
