M48
;Layer_Color=9474304
;FILE_FORMAT=4:4
METRIC,LZ
;TYPE=PLATED
T01F00S00C0.5000
T02F00S00C0.8000
T03F00S00C0.9000
T04F00S00C1.0200
T05F00S00C1.0400
T06F00S00C1.2000
T07F00S00C1.6000
T08F00S00C3.4000
;TYPE=NON_PLATED
T09F00S00C1.6000
T10F00S00C3.0000
%
T01
X01006876Y00074777
X01106876
X01206876
X01256876Y00174776
X01228401Y00227054
X01156876Y00174776
X01056876
X01356876
X00956876
X00856876
X00796285Y00185008
X00783745
X00756876Y00174776
X00789971Y00222874
X00806876Y00074777
X00906876
X00706876
X0071882Y00112729
Y00125269
X00656876Y00174776
X00606876Y00074777
X00506876
X00406876
X00306876
X00206876
X00256876Y00174776
X00356876
X00556876
X00156876
X00106876Y00274776
X00156876Y00374776
X00106876Y00474776
X00156876Y00574776
X00256876Y00374776
X00356876
X00406876Y00274776
X00506876
X00556876Y00374776
X00506876Y00474776
X00556876Y00574776
X00564976Y0059055
X00577516
X00306876Y00274776
X00206876
X00606876
X00706876
X00756876Y00374776
X00856876
X00956876
X00906876Y00474776
X00806876
X00706876
X00606876
X0060353Y00506815
X00656876Y00374776
X0069243Y00618368
X0081645Y00603436
X00836857
X00850922
X00984166Y00567178
X00906876Y00274776
X01006876
X01106876
X01156876Y00374776
X01256876
X01356876
X01306876Y00474776
X01206876
X01106876
X01006876
X01056876Y00374776
X0107343Y00618368
X0119745Y00603436
X01217857
X01231922
X01356876Y00574776
X01306876Y00274776
Y00674777
X0127373Y00727416
X01256876Y00774777
X01356876
X01306876Y00874777
X01156876Y00774777
X0109883Y00784432
Y00796972
Y0076454
X0104803
Y00722094
X0107343Y00736715
X0100993Y00734175
X01003722Y00777748
X01016262
X0107343Y0066802
X010922Y0091948
X00908Y0094488
X008636Y0091948
X00883866Y00805599
Y00793059
X00856876Y00774777
X00956876
X0098453Y00734175
X00756876Y00774777
X0071783Y0076454
X00698681Y00777922
X00686141
X0066703Y0076454
Y00722094
X0069243Y00736715
X0062893Y00734175
X0060353
X0062992Y00840604
X00706876Y00874777
X0068072Y0091186
X0069243Y0066802
X0055118Y0065532
X0053864
X00506876Y0065786
X0042164
X00456876Y00774777
X00483672Y0081026
X00493656Y0084074
X00509086Y0075184
X00521626
X0039003Y00808555
X00336396Y0080772
X00336377Y00920662
X00240056Y0094488
X00220498Y00933958
X00205152Y0080772
X0021717Y00722296
Y00709756
X00167652Y00733702
X0012843
X00140849Y00677752
X00158642Y0080772
X00161189Y0091694
T02
X0116185Y0070235
X0118725
X0121265
X0123805
X0122535Y0072775
X0119995
X0117455
X0125075
X0086975
X0084435
X0081895
X0079355
X0078085Y0070235
X0080625
X0083165
X0085705
T03
X011236Y0085655
X01149
X012636
X01289
X00908
X008826
X00768
X007426
T04
X00091436Y00617752
X00121436
Y00647752
X00091436
Y00677752
X00121436
Y00707752
X00091436
T05
X00197856Y00869845
X00223256
X00248656
Y00895245
X00274056
X00274056Y00869845
X00324856
X00324856Y00895245
X00350256
Y00869845
X00375656
Y00895245
X00401056
Y00869845
X00426456
X00426456Y00895245
X00451856
X00451856Y00869845
X00477256
Y00895245
X00502656
Y00869845
X00528056
Y00895245
X00553456
X00553456Y00869845
X00223256Y00895245
X00197856
X00172456Y00895245
X00147056
X00147056Y00869845
X00172456
X00121656
Y00895245
X00096256
Y00869845
X00070856
Y00895245
X00045456
X00045456Y00869845
T06
X0128885Y002295
X008253Y0024855
Y0028665
X008634Y003438
X0078085Y0033745
X011682Y003438
X0117455Y003057
X012063Y0028665
X0123805Y003057
X012444Y0033745
X011301Y0071505
X007491
T07
X0079355Y003057
X0085705
T08
X0135135Y00065
X0010135
X0135135Y00935
X0010135Y00785
T09
X007999Y0062615
X011809
X012444Y0081665
X008634
T10
X00048236Y00639252
Y00686252
M30
