G04*
G04 #@! TF.GenerationSoftware,Altium Limited,Altium Designer,24.5.2 (23)*
G04*
G04 Layer_Color=128*
%FSLAX44Y44*%
%MOMM*%
G71*
G04*
G04 #@! TF.SameCoordinates,BE5CC84F-6731-4C53-AAD9-C32198600D17*
G04*
G04*
G04 #@! TF.FilePolarity,Positive*
G04*
G01*
G75*
%ADD10C,0.1270*%
D10*
X33236Y498028D02*
X63236D01*
X48236Y483028D02*
Y513028D01*
X116336Y476528D02*
X126536D01*
X121436Y471428D02*
Y481628D01*
X116336Y506528D02*
X126536D01*
X121436Y501428D02*
Y511628D01*
X116336Y536528D02*
X126536D01*
X121436Y531428D02*
Y541628D01*
X116336Y566528D02*
X126536D01*
X121436Y561428D02*
Y571628D01*
X86336Y476528D02*
X96536D01*
X91436Y471428D02*
Y481628D01*
X86336Y506528D02*
X96536D01*
X91436Y501428D02*
Y511628D01*
X33236Y545028D02*
X63236D01*
X48236Y530028D02*
Y560028D01*
X86336Y536528D02*
X96536D01*
X91436Y531428D02*
Y541628D01*
X86336Y566528D02*
X96536D01*
X91436Y561428D02*
Y571628D01*
X33410Y400116D02*
X50410D01*
X41910Y391616D02*
Y408616D01*
X33410Y349316D02*
X50410D01*
X41910Y340816D02*
Y357816D01*
X819300Y248550D02*
X831300D01*
X825300Y242550D02*
Y254550D01*
X819300Y286650D02*
X831300D01*
X825300Y280650D02*
Y292650D01*
X849050Y305700D02*
X865050D01*
X857050Y297700D02*
Y313700D01*
X785550Y305700D02*
X801550D01*
X793550Y297700D02*
Y313700D01*
X857400Y343800D02*
X869400D01*
X863400Y337800D02*
Y349800D01*
X774850Y337450D02*
X786850D01*
X780850Y331450D02*
Y343450D01*
X776850Y702350D02*
X784850D01*
X780850Y698350D02*
Y706350D01*
X789550Y727750D02*
X797550D01*
X793550Y723750D02*
Y731750D01*
X802250Y702350D02*
X810250D01*
X806250Y698350D02*
Y706350D01*
X814950Y727750D02*
X822950D01*
X818950Y723750D02*
Y731750D01*
X827650Y702350D02*
X835650D01*
X831650Y698350D02*
Y706350D01*
X840350Y727750D02*
X848350D01*
X844350Y723750D02*
Y731750D01*
X853050Y702350D02*
X861050D01*
X857050Y698350D02*
Y706350D01*
X865750Y727750D02*
X873750D01*
X869750Y723750D02*
Y731750D01*
X1157850Y702350D02*
X1165850D01*
X1161850Y698350D02*
Y706350D01*
X1170550Y727750D02*
X1178550D01*
X1174550Y723750D02*
Y731750D01*
X1183250Y702350D02*
X1191250D01*
X1187250Y698350D02*
Y706350D01*
X1195950Y727750D02*
X1203950D01*
X1199950Y723750D02*
Y731750D01*
X1208650Y702350D02*
X1216650D01*
X1212650Y698350D02*
Y706350D01*
X1221350Y727750D02*
X1229350D01*
X1225350Y723750D02*
Y731750D01*
X1234050Y702350D02*
X1242050D01*
X1238050Y698350D02*
Y706350D01*
X1246750Y727750D02*
X1254750D01*
X1250750Y723750D02*
Y731750D01*
X903500Y856550D02*
X912500D01*
X908000Y852050D02*
Y861050D01*
X878100Y856550D02*
X887100D01*
X882600Y852050D02*
Y861050D01*
X855400Y816650D02*
X871400D01*
X863400Y808650D02*
Y824650D01*
X791900Y626150D02*
X807900D01*
X799900Y618150D02*
Y634150D01*
X743100Y715050D02*
X755100D01*
X749100Y709050D02*
Y721050D01*
X1284500Y856550D02*
X1293500D01*
X1289000Y852050D02*
Y861050D01*
X1259100Y856550D02*
X1268100D01*
X1263600Y852050D02*
Y861050D01*
X1236400Y816650D02*
X1252400D01*
X1244400Y808650D02*
Y824650D01*
X1172900Y626150D02*
X1188900D01*
X1180900Y618150D02*
Y634150D01*
X1124100Y715050D02*
X1136100D01*
X1130100Y709050D02*
Y721050D01*
X763500Y856550D02*
X772500D01*
X768000Y852050D02*
Y861050D01*
X738100Y856550D02*
X747100D01*
X742600Y852050D02*
Y861050D01*
X1144500Y856550D02*
X1153500D01*
X1149000Y852050D02*
Y861050D01*
X1119100Y856550D02*
X1128100D01*
X1123600Y852050D02*
Y861050D01*
X1334350Y935000D02*
X1368350D01*
X1351350Y918000D02*
Y952000D01*
X1334350Y65000D02*
X1368350D01*
X1351350Y48000D02*
Y82000D01*
X84350Y65000D02*
X118350D01*
X101350Y48000D02*
Y82000D01*
X84350Y785000D02*
X118350D01*
X101350Y768000D02*
Y802000D01*
X40256Y869845D02*
X50656D01*
X45456Y864645D02*
Y875045D01*
X40256Y895245D02*
X50656D01*
X45456Y890045D02*
Y900445D01*
X65656Y869845D02*
X76056D01*
X70856Y864645D02*
Y875045D01*
X65656Y895245D02*
X76056D01*
X70856Y890045D02*
Y900445D01*
X91056Y869845D02*
X101456D01*
X96256Y864645D02*
Y875045D01*
X91056Y895245D02*
X101456D01*
X96256Y890045D02*
Y900445D01*
X116456Y869845D02*
X126856D01*
X121656Y864645D02*
Y875045D01*
X116456Y895245D02*
X126856D01*
X121656Y890045D02*
Y900445D01*
X141856Y869845D02*
X152256D01*
X147056Y864645D02*
Y875045D01*
X141856Y895245D02*
X152256D01*
X147056Y890045D02*
Y900445D01*
X167256Y869845D02*
X177656D01*
X172456Y864645D02*
Y875045D01*
X167256Y895245D02*
X177656D01*
X172456Y890045D02*
Y900445D01*
X192656Y869845D02*
X203056D01*
X197856Y864645D02*
Y875045D01*
X192656Y895245D02*
X203056D01*
X197856Y890045D02*
Y900445D01*
X218056Y869845D02*
X228456D01*
X223256Y864645D02*
Y875045D01*
X218056Y895245D02*
X228456D01*
X223256Y890045D02*
Y900445D01*
X243456Y869845D02*
X253856D01*
X248656Y864645D02*
Y875045D01*
X243456Y895245D02*
X253856D01*
X248656Y890045D02*
Y900445D01*
X268856Y869845D02*
X279256D01*
X274056Y864645D02*
Y875045D01*
X268856Y895245D02*
X279256D01*
X274056Y890045D02*
Y900445D01*
X548256Y895245D02*
X558656D01*
X553456Y890045D02*
Y900445D01*
X548256Y869845D02*
X558656D01*
X553456Y864645D02*
Y875045D01*
X522856Y895245D02*
X533256D01*
X528056Y890045D02*
Y900445D01*
X522856Y869845D02*
X533256D01*
X528056Y864645D02*
Y875045D01*
X497456Y895245D02*
X507856D01*
X502656Y890045D02*
Y900445D01*
X497456Y869845D02*
X507856D01*
X502656Y864645D02*
Y875045D01*
X472056Y895245D02*
X482456D01*
X477256Y890045D02*
Y900445D01*
X472056Y869845D02*
X482456D01*
X477256Y864645D02*
Y875045D01*
X446656Y895245D02*
X457056D01*
X451856Y890045D02*
Y900445D01*
X446656Y869845D02*
X457056D01*
X451856Y864645D02*
Y875045D01*
X421256Y895245D02*
X431656D01*
X426456Y890045D02*
Y900445D01*
X421256Y869845D02*
X431656D01*
X426456Y864645D02*
Y875045D01*
X395856Y895245D02*
X406256D01*
X401056Y890045D02*
Y900445D01*
X395856Y869845D02*
X406256D01*
X401056Y864645D02*
Y875045D01*
X370456Y895245D02*
X380856D01*
X375656Y890045D02*
Y900445D01*
X370456Y869845D02*
X380856D01*
X375656Y864645D02*
Y875045D01*
X345056Y895245D02*
X355456D01*
X350256Y890045D02*
Y900445D01*
X345056Y869845D02*
X355456D01*
X350256Y864645D02*
Y875045D01*
X319656Y895245D02*
X330056D01*
X324856Y890045D02*
Y900445D01*
X319656Y869845D02*
X330056D01*
X324856Y864645D02*
Y875045D01*
X1282850Y229500D02*
X1294850D01*
X1288850Y223500D02*
Y235500D01*
X1200300Y286650D02*
X1212300D01*
X1206300Y280650D02*
Y292650D01*
X1168550Y305700D02*
X1180550D01*
X1174550Y299700D02*
Y311700D01*
X1232050Y305700D02*
X1244050D01*
X1238050Y299700D02*
Y311700D01*
X1238400Y337450D02*
X1250400D01*
X1244400Y331450D02*
Y343450D01*
X1162200Y343800D02*
X1174200D01*
X1168200Y337800D02*
Y349800D01*
X174366Y706604D02*
X180366D01*
X177366Y703604D02*
Y709604D01*
X162751Y733028D02*
X168751D01*
X165751Y730028D02*
Y736028D01*
X150000Y681022D02*
X156000D01*
X153000Y678023D02*
Y684023D01*
X137208Y668528D02*
X143208D01*
X140208Y665528D02*
Y671528D01*
X88689Y719930D02*
X94689D01*
X91689Y716930D02*
Y722930D01*
X69390Y693514D02*
X75390D01*
X72390Y690514D02*
Y696514D01*
X547672Y758190D02*
X553672D01*
X550672Y755190D02*
Y761190D01*
X1000722Y777748D02*
X1006722D01*
X1003722Y774748D02*
Y780748D01*
X1013262Y777748D02*
X1019262D01*
X1016262Y774748D02*
Y780748D01*
X115199Y337262D02*
X121199D01*
X118199Y334262D02*
Y340262D01*
X127137Y309918D02*
X133137D01*
X130137Y306918D02*
Y312918D01*
X116006Y385102D02*
X122006D01*
X119006Y382102D02*
Y388102D01*
X134503Y385102D02*
X140503D01*
X137503Y382102D02*
Y388102D01*
X981166Y567178D02*
X987166D01*
X984166Y564178D02*
Y570178D01*
X600530Y506815D02*
X606530D01*
X603530Y503815D02*
Y509815D01*
X1095830Y784432D02*
X1101830D01*
X1098830Y781432D02*
Y787432D01*
X1095830Y796972D02*
X1101830D01*
X1098830Y793972D02*
Y799972D01*
X1006930Y734175D02*
X1012930D01*
X1009930Y731175D02*
Y737175D01*
X1045030Y722094D02*
X1051030D01*
X1048030Y719094D02*
Y725094D01*
X1070430Y736715D02*
X1076430D01*
X1073430Y733715D02*
Y739715D01*
X1070430Y668020D02*
X1076430D01*
X1073430Y665020D02*
Y671020D01*
X1045030Y764540D02*
X1051030D01*
X1048030Y761540D02*
Y767540D01*
X1095830Y764540D02*
X1101830D01*
X1098830Y761540D02*
Y767540D01*
X1194450Y603436D02*
X1200450D01*
X1197450Y600435D02*
Y606436D01*
X1070430Y618368D02*
X1076430D01*
X1073430Y615368D02*
Y621368D01*
X1214857Y603436D02*
X1220857D01*
X1217857Y600435D02*
Y606436D01*
X1228922Y603436D02*
X1234922D01*
X1231922Y600435D02*
Y606436D01*
X1270730Y727416D02*
X1276730D01*
X1273730Y724416D02*
Y730416D01*
X981530Y734175D02*
X987530D01*
X984530Y731175D02*
Y737175D01*
X600530Y734175D02*
X606530D01*
X603530Y731175D02*
Y737175D01*
X889730Y727416D02*
X895730D01*
X892730Y724416D02*
Y730416D01*
X847922Y603436D02*
X853922D01*
X850922Y600435D02*
Y606436D01*
X833857Y603436D02*
X839857D01*
X836857Y600435D02*
Y606436D01*
X689430Y618368D02*
X695430D01*
X692430Y615368D02*
Y621368D01*
X813450Y603436D02*
X819450D01*
X816450Y600435D02*
Y606436D01*
X683141Y777922D02*
X689141D01*
X686141Y774922D02*
Y780922D01*
X695681Y777922D02*
X701681D01*
X698681Y774922D02*
Y780922D01*
X714830Y764540D02*
X720830D01*
X717830Y761540D02*
Y767540D01*
X664030Y764540D02*
X670030D01*
X667030Y761540D02*
Y767540D01*
X689430Y668020D02*
X695430D01*
X692430Y665020D02*
Y671020D01*
X625930Y734175D02*
X631930D01*
X628930Y731175D02*
Y737175D01*
X880866Y793059D02*
X886866D01*
X883866Y790059D02*
Y796059D01*
X880866Y805599D02*
X886866D01*
X883866Y802599D02*
Y808599D01*
X689430Y736715D02*
X695430D01*
X692430Y733715D02*
Y739715D01*
X664030Y722094D02*
X670030D01*
X667030Y719094D02*
Y725094D01*
X322146Y918972D02*
X328146D01*
X325146Y915972D02*
Y921972D01*
X217498Y933958D02*
X223498D01*
X220498Y930958D02*
Y936958D01*
X237056Y944880D02*
X243056D01*
X240056Y941880D02*
Y947880D01*
X233629Y833189D02*
X239629D01*
X236629Y830189D02*
Y836189D01*
X1216480Y222758D02*
X1222480D01*
X1219480Y219758D02*
Y225758D01*
X1141804Y224028D02*
X1147804D01*
X1144804Y221028D02*
Y227028D01*
X159440Y309918D02*
X165440D01*
X162440Y306918D02*
Y312918D01*
X159440Y385102D02*
X165440D01*
X162440Y382102D02*
Y388102D01*
M02*
